<?xml version="1.0" standalone="no"?>
<!DOCTYPE svg PUBLIC "-//W3C//DTD SVG 1.1//EN" "http://www.w3.org/Graphics/SVG/1.1/DTD/svg11.dtd">
<svg xmlns="http://www.w3.org/2000/svg"><metadata>This SVG WebFont was generated by YouWorkForThem.
Copyright Â© 2018 by Emil Bertell. All rights reserved.</metadata><defs><font horiz-adv-x="0" id="ywftsvg"><font-face ascent="1638" bbox="-735 -764 3150 2106.45" cap-height="1444" descent="-410" font-family="" font-stretch="normal" font-weight="500" panose-1="0 0 6 0 0 0 0 0 0 0" underline-position="0" underline-thickness="0" unicode-range="U+0020-FB02" units-per-em="2048" x-height="977"/><missing-glyph horiz-adv-x="530"/><glyph d="M1030 209q-18 -88 13.5 -114.5t146.5 3.5l12 -39q-102 -88 -254 -88q-244 0 -168 312l140 600h-369l-186 -856q-94 -434 -451 -435q-111 0 -191.5 58.5t-80.5 138.5q0 47 25.5 73.5t68.5 26.5q117 0 166 -202q125 14 170 233l209 963h-166l22 94h164l37 166 q90 408 467 407q176 0 275.5 -66.5t99.5 -156.5q0 -53 -32 -84t-81 -31q-139 0 -156 232q-27 8 -65 8q-90 0 -141.5 -48t-75.5 -159l-58 -268h635z" glyph-name="uniFB01" horiz-adv-x="1292" unicode="fi"/><glyph d="M1006 213q-18 -88 13.5 -114.5t145.5 3.5l13 -41q-104 -86 -256 -86q-238 0 -162 322l246 1057q-72 94 -177 94q-80 0 -130 -50t-74 -163l-56 -258h207l-20 -94h-207l-184 -856q-94 -434 -451 -435q-111 0 -191.5 58.5t-80.5 138.5q0 47 25.5 73.5t68.5 26.5 q117 0 166 -202q125 14 170 233l209 963h-166l22 94h164l37 166q90 408 465 407q176 0 287 -88l223 84z" glyph-name="uniFB02" horiz-adv-x="1247" unicode="fl"/><glyph d="M1481 1006q131 0 207.5 -89.5t76.5 -252.5q0 -299 -176 -496t-446 -197q-221 0 -303 146.5t-19 414.5l189 816q-78 100 -185 100q-154 0 -196 -207l-58 -264h213l-20 -94h-213l-186 -856q-94 -434 -451 -435q-111 0 -191.5 58.5t-80.5 138.5q0 47 25.5 73.5t68.5 26.5 q117 0 166 -202q125 14 170 233l209 963h-166l22 94h164l37 166q43 199 157.5 303t321.5 104q162 0 279 -90l223 88l-162 -706q134 164 324 164zM1143 78q135 0 241.5 195.5t106.5 445.5q0 168 -109 168q-78 0 -151.5 -74t-126.5 -201l-60 -258q-31 -115 -7 -195.5 t106 -80.5z" glyph-name="f_b.liga" horiz-adv-x="1822" unicode="fb"/><glyph d="M1485 1550q127 0 213 -58t86 -138q0 -49 -30 -81t-75 -32q-61 0 -98 61.5t-49 153.5h-16q-147 0 -193 -211l-57 -268h219l-21 -94h-219l-186 -856q-94 -434 -445 -435q-104 0 -175.5 52.5t-71.5 122.5q0 45 26.5 72.5t65.5 27.5q94 0 157 -182q109 29 152 235l209 963 h-432l-185 -856q-98 -434 -450 -435q-111 0 -189.5 56.5t-78.5 138.5q0 47 25.5 73.5t68.5 26.5q115 0 162 -200q125 14 170 233l208 963h-165l22 94h164l37 166q90 408 446 407q129 0 216 -57t87 -137q0 -53 -28.5 -84t-75.5 -31q-113 0 -145 215h-23q-143 0 -188 -211 l-58 -268h432l37 166q91 407 451 407z" glyph-name="f_f.liga" horiz-adv-x="1406" unicode="ff"/><glyph d="M1731 209q-18 -88 13.5 -114.5t145.5 3.5l13 -39q-102 -88 -254 -88q-240 0 -168 312l139 600h-369l-186 -856q-94 -434 -451 -435q-111 0 -191.5 58.5t-80.5 138.5q0 47 26.5 73.5t67.5 26.5q117 0 166 -202q123 12 172 233l209 963h-432l-186 -856q-94 -434 -451 -435 q-111 0 -191.5 58.5t-80.5 138.5q0 47 25.5 73.5t68.5 26.5q117 0 166 -202q125 14 170 233l209 963h-166l22 94h164l37 166q90 408 446 407q129 0 216 -57t87 -137q0 -53 -28.5 -84t-75.5 -31q-113 0 -145 215h-23q-143 0 -186 -211l-58 -268h433l36 166q86 408 467 407 q174 0 273.5 -66.5t99.5 -156.5q0 -53 -31.5 -84t-79.5 -31q-141 0 -157 232q-27 8 -66 8q-90 0 -141 -48t-76 -159l-57 -268h635z" glyph-name="f_f_i.liga" horiz-adv-x="1992" unicode="ffi"/><glyph d="M1686 213q-18 -88 13.5 -114.5t145.5 3.5l13 -41q-104 -86 -256 -86q-238 0 -162 322l246 1059q-74 92 -177 92q-158 0 -202 -213l-56 -258h205l-20 -94h-205l-187 -856q-94 -434 -450 -435q-111 0 -191.5 58.5t-80.5 138.5q0 47 26.5 73.5t67.5 26.5q117 0 166 -202 q123 12 172 233l209 963h-412l-186 -856q-94 -434 -451 -435q-111 0 -191.5 58.5t-80.5 138.5q0 47 25.5 73.5t68.5 26.5q117 0 166 -202q125 14 170 233l209 963h-166l22 94h164l37 166q90 408 446 407q129 0 216 -57t87 -137q0 -16 -2 -25q117 219 398 219q178 0 289 -88 l221 84zM983 977l37 166q16 74 39 129q-27 -31 -76 -31q-113 0 -145 215h-23q-143 0 -186 -211l-58 -268h412z" glyph-name="f_f_l.liga" horiz-adv-x="1927" unicode="ffl"/><glyph d="M1806 92l13 -39q-104 -82 -267 -82q-119 0 -158.5 76t-2.5 205l106 381q61 223 -43 223q-113 0 -243 -205t-185 -448l-47 -203h-264l307 1343q-86 104 -186 105q-86 0 -135.5 -49t-71.5 -154l-58 -268h213l-20 -94h-213l-186 -856q-94 -434 -451 -435q-111 0 -191.5 58.5 t-80.5 138.5q0 47 25.5 73.5t68.5 26.5q117 0 166 -202q125 14 170 233l209 963h-166l22 94h164l37 166q43 199 154.5 303t314.5 104q195 0 311 -90l217 84l-198 -864q90 156 204.5 241t235.5 85q115 0 178.5 -84t9.5 -285l-114 -428q-23 -82 9.5 -114t145.5 -3z" glyph-name="f_h.liga" horiz-adv-x="1910" unicode="fh"/><glyph d="M569 977h672l-192 -836q-68 -293 -194 -420t-286 -127q-86 0 -147.5 39t-61.5 99q0 35 23 58.5t61 23.5q90 0 150 -131q100 72 154 307l206 893h-405l-178 -815q-102 -475 -457 -476q-111 0 -191.5 58.5t-80.5 138.5q0 47 25.5 73.5t68.5 26.5q117 0 166 -202 q123 18 178 270l201 926h-166l22 94h164l37 166q43 199 153.5 303t309.5 104q166 0 277.5 -67.5t111.5 -153.5q0 -49 -27.5 -78.5t-77.5 -29.5q-70 0 -118.5 64.5t-73.5 166.5q-27 6 -57 6q-164 0 -209 -213z" glyph-name="f_j.liga" horiz-adv-x="1277" unicode="fj"/><glyph d="M1538 221q25 -94 71 -121.5t134 4.5l10 -38q-33 -41 -99.5 -68t-135.5 -27q-98 0 -155.5 57.5t-81.5 150.5t-34 255q-121 -55 -186 -82l-82 -352h-264l309 1339q-86 109 -188 109q-88 0 -136.5 -48t-70.5 -155l-58 -268h213l-20 -94h-213l-186 -856q-94 -434 -451 -435 q-111 0 -191.5 58.5t-80.5 138.5q0 47 25.5 73.5t68.5 26.5q117 0 166 -202q125 14 170 233l209 963h-166l22 94h164l37 166q43 199 154.5 303t312.5 104q193 0 309 -88l221 84l-252 -1089q334 145 496 280q-68 90 -68 162q0 47 36 77t95 30q57 0 93.5 -30t36.5 -89 q0 -164 -289 -332q16 -180 55 -334z" glyph-name="f_k.liga" horiz-adv-x="1839" unicode="fk"/><glyph d="M1544 1497q53 0 88 -32.5t35 -84.5q0 -72 -61.5 -133t-135.5 -61q-55 0 -88.5 33.5t-33.5 85.5q0 74 61 133t135 59zM469 172q209 -39 296 -92t87 -164q0 -154 -152.5 -239t-423.5 -85q-434 0 -434 183q0 84 97.5 143t279.5 70q-172 55 -172 182q0 143 221 184 q-143 70 -143 242q0 166 143.5 288t345.5 122q55 0 111 -13q156 166 307 176q51 4 80 -18.5t29 -60.5q0 -59 -37 -100.5t-88 -41.5q-76 0 -125 90q-49 -27 -96 -71q133 -68 133 -236t-140.5 -291t-338.5 -123q-201 0 -201 -63q0 -27 41 -41t180 -41zM1147 872l10 41l426 82 l-219 -934q-55 -240 -190.5 -352t-315.5 -117l-18 54q84 23 144 94.5t101 249.5l181 774q12 55 -6.5 71.5t-112.5 36.5zM588 911q-90 0 -162 -109.5t-72 -240.5q0 -147 113 -147q92 0 162.5 109.5t70.5 246.5q1 141 -112 141zM315 -311q141 0 227.5 39t86.5 106 q0 49 -50.5 70.5t-193.5 44.5l-37 6q-283 -35 -282 -152q-1 -114 249 -114z" glyph-name="g_j.liga" horiz-adv-x="1622" unicode="gj"/><glyph d="M1559 1006q160 0 159 -181q0 -119 -63.5 -281.5t-174 -326.5t-245.5 -305t-295 -230.5t-305 -89.5q-162 0 -162 132q0 55 33 98t86 43q109 0 194 -158q104 45 222 139q-61 500 -168 932q-20 86 -41 111h-260l-144 -621q-45 -182 68 -182q119 0 231 137l41 -39 q-158 -213 -385 -213q-291 0 -209 357l131 561h-133l23 88h145l260 289h58l-66 -289h535q109 -526 139 -909q229 264 311 546q-123 147 -123 254q0 66 36 102t102 36z" glyph-name="t_y.liga" horiz-adv-x="1779" unicode="ty"/><glyph glyph-name=".notdef" horiz-adv-x="530"/><glyph glyph-name="glyph1"/><glyph glyph-name="glyph2" horiz-adv-x="681"/><glyph glyph-name="space" horiz-adv-x="307" unicode=" "/><glyph d="M229 430l90 805q16 238 181 238q174 0 67 -254l-286 -789h-52zM150 -25q-49 0 -80 31t-31 76q0 70 53 123t125 53q47 0 78 -29.5t31 -76.5q0 -68 -52 -122.5t-124 -54.5z" glyph-name="exclam" horiz-adv-x="550" unicode="!"/><glyph d="M338 1040l2 310q0 98 37 149t94 51q59 0 74.5 -48t-29.5 -152l-143 -310h-35zM682 1040l2 310q0 98 37 149t94 51q59 0 74.5 -48t-29.5 -152l-143 -310h-35z" glyph-name="quotedbl" horiz-adv-x="800" unicode="&quot;"/><glyph d="M1579 963h-205l-186 -455h196l-24 -92h-209l-170 -416h-236l170 416h-385l-170 -416h-235l170 416h-182l22 92h199l186 455h-188l22 92h203l160 389h233l-159 -389h385l157 389h238l-160 -389h193zM952 508l185 455h-383l-187 -455h385z" glyph-name="numbersign" horiz-adv-x="1597" unicode="#"/><glyph d="M702 850q162 -76 243 -160t81 -235q0 -170 -119 -275.5t-309 -105.5q-35 0 -88 4l-51 -201h-121l55 223q-74 23 -170 78q-37 29 -70.5 20.5t-53 -26.5t-48.5 -63h-37l119 512h43q-20 -184 50.5 -290t191.5 -136l110 442q-158 66 -237.5 158t-79.5 241q0 152 109.5 248 t281.5 96q68 0 109 -8l49 197h123l-58 -226q53 -23 103 -45q63 -25 91 -13.5t73 67.5h34l-108 -471h-43q23 301 -172 370zM434 1098q0 -72 37 -115t121 -84l94 373h-14q-106 0 -172 -48t-66 -126zM535 182q127 4 197.5 60.5t70.5 150.5q0 70 -41 115t-125 84z" glyph-name="dollar" horiz-adv-x="1112" unicode="$"/><glyph d="M457 819q-131 0 -208 58.5t-77 171.5q0 182 125 303t311 121q131 0 208 -59.5t77 -172.5q0 -180 -125 -301t-311 -121zM25 0l1441 1444h164l-1442 -1444h-163zM477 907q72 0 131.5 113t59.5 246q0 119 -82 118q-70 0 -129.5 -113.5t-59.5 -244.5q0 -119 80 -119zM956 -29 q-131 0 -207.5 59.5t-76.5 172.5q0 180 125 302t311 122q131 0 208 -59.5t77 -172.5q0 -182 -125.5 -303t-311.5 -121zM977 59q72 0 131 114t59 245q0 121 -82 121q-70 0 -129 -114t-59 -245q0 -121 80 -121z" glyph-name="percent" horiz-adv-x="1566" unicode="%"/><glyph d="M1305 180q145 0 221 164l47 -10q-47 -139 -147.5 -238.5t-251.5 -99.5q-156 0 -306 110q-223 -135 -483 -135q-393 0 -393 283q0 164 125 295t358 203q-23 106 -22 200q0 252 146 386.5t386 134.5q156 0 240 -61.5t84 -170.5q0 -92 -49.5 -173t-133.5 -138.5t-178 -96 t-198 -63.5q82 -268 270 -448q115 104 190 231q94 156 -106 182l8 41h465l-10 -41q-94 -18 -148.5 -54t-109.5 -124q-102 -164 -230 -289q117 -88 226 -88zM954 1368q-115 0 -182 -88t-67 -244q0 -94 24 -196q326 147 354 370q12 78 -22.5 118t-106.5 40zM506 96 q145 0 291 70q-209 197 -299 502q-225 -150 -226 -373q0 -92 60.5 -145.5t173.5 -53.5z" glyph-name="ampersand" horiz-adv-x="1640" unicode="&amp;"/><glyph d="M338 1040l2 310q0 98 37 149t94 51q59 0 74.5 -48t-29.5 -152l-143 -310h-35z" glyph-name="quotesingle" horiz-adv-x="454" unicode="'"/><glyph d="M649 -225q-203 72 -318.5 239.5t-115.5 415.5q0 416 247 767t623 470l7 -47q-150 -59 -295.5 -260t-237.5 -471.5t-92 -517.5q0 -203 55.5 -351.5t153.5 -197.5z" glyph-name="parenleft" horiz-adv-x="966" unicode="("/><glyph d="M424 1667q205 -72 319.5 -239.5t114.5 -415.5q0 -416 -245.5 -767t-624.5 -470l-4 47q150 59 294 260t236 471t92 518q0 203 -55 351.5t-154 197.5z" glyph-name="parenright" horiz-adv-x="966" unicode=")"/><glyph d="M758 1337q10 -29 -12.5 -59.5t-73.5 -46.5l-150 -51l129 -54q43 -16 51.5 -46.5t-14.5 -55.5q-18 -27 -53 -27t-57 37l-74 115l-2 -152q2 -49 -21.5 -77.5t-58.5 -28.5t-41 27.5t18 78.5l66 150l-125 -111q-41 -37 -75 -38t-40 26q-10 29 12.5 58.5t73.5 45.5l148 52 l-125 51q-41 16 -50.5 48t15.5 58q18 27 52 25t59 -39l71 -111v152q-2 51 21.5 80t56.5 29q35 0 43 -28t-16 -81l-68 -154l125 113q41 39 74 41t41 -27z" glyph-name="asterisk" horiz-adv-x="663" unicode="*"/><glyph d="M1042 762l-22 -96h-365l-94 -400l-100 2l94 398h-367l23 96h367l92 391h100l-92 -391h364z" glyph-name="plus" horiz-adv-x="1124" unicode="+"/><glyph d="M143 240q115 0 115 -136q0 -170 -114.5 -303t-290.5 -163l-7 36q104 33 182 115t103 199q-29 -16 -68 -17q-41 0 -65.5 24.5t-24.5 65.5q0 72 51 125.5t119 53.5z" glyph-name="comma" horiz-adv-x="415" unicode=","/><glyph d="M164 537l24 96h762l-24 -96h-762z" glyph-name="hyphen" horiz-adv-x="1064" unicode="-"/><glyph d="M133 -25q-49 0 -78.5 31t-29.5 76q0 70 52 123t124 53q47 0 78.5 -30.5t31.5 -75.5q0 -68 -53 -122.5t-125 -54.5z" glyph-name="period" horiz-adv-x="499" unicode="."/><glyph d="M-141 -250l1380 1921h133l-1380 -1921h-133z" glyph-name="slash" horiz-adv-x="1124" unicode="/"/><glyph d="M610 -29q-215 0 -346 132.5t-131 371.5q0 258 114.5 489.5t304 370t402.5 138.5t343 -135.5t130 -376.5q0 -260 -112.5 -488.5t-301 -365t-403.5 -136.5zM635 80q125 0 242.5 140t191.5 365.5t74 458.5q0 156 -55.5 238t-157.5 82q-121 0 -242 -144.5t-195.5 -371.5 t-74.5 -457q0 -154 56.5 -232.5t160.5 -78.5z" glyph-name="zero" horiz-adv-x="1452" unicode="0"/><glyph d="M-20 0l8 41q115 20 150.5 44t47.5 81l252 1100h-170l15 55l139 27q229 41 299 100h49l-295 -1282q-14 -59 12.5 -83t128.5 -42l-10 -41h-626z" glyph-name="one" horiz-adv-x="784" unicode="1"/><glyph d="M596 199q76 2 117 6t93 21.5t88 53t79 98t86 159.5h43l-125 -537h-991l26 109q379 225 610.5 517t231.5 550q0 197 -168 196q-88 0 -170 -41q-14 -176 -80.5 -262t-161.5 -86q-98 0 -98 90q0 135 178 267.5t418 132.5q176 0 274.5 -81t98.5 -241q0 -143 -76 -288.5 t-206 -269.5t-259 -219t-276 -179z" glyph-name="two" horiz-adv-x="1196" unicode="2"/><glyph d="M1188 1208q0 -170 -128 -300t-345 -179q154 -23 239.5 -101.5t85.5 -213.5q0 -188 -167.5 -315.5t-458.5 -127.5q-199 0 -316.5 74t-117.5 191q0 59 32.5 97t85.5 38q76 0 119 -81t55 -200q49 -18 113 -18q158 0 261.5 112.5t103.5 272.5q0 119 -76 165t-219 46h-131 l28 114h131q172 0 290 119t118 291q0 84 -45 131t-133 47q-100 0 -189 -41q-20 -182 -80.5 -251.5t-152.5 -69.5q-86 0 -86 94q0 141 184 256t416 115q383 -1 383 -265z" glyph-name="three" horiz-adv-x="1148" unicode="3"/><glyph d="M1245 1444l-231 -1006h198l-26 -110h-199l-37 -162q-14 -59 10.5 -81t122.5 -44l-10 -41h-608l10 41q106 18 141 41.5t50 83.5l36 162h-702l18 75l930 1041h297zM186 438h543l189 819z" glyph-name="four" horiz-adv-x="1249" unicode="4"/><glyph d="M1145 1214h-705l-108 -464q156 100 375 100q166 0 258 -84t92 -252q0 -240 -180.5 -391.5t-464.5 -151.5q-180 0 -301 79t-121 194q0 57 31.5 96t87.5 39q70 0 108.5 -67.5t56.5 -221.5q41 -18 99 -18q162 0 274.5 123.5t112.5 308.5q0 119 -49 177t-133 58 q-199 0 -318 -133l-74 23l195 815h676q70 0 114 61h48z" glyph-name="five" horiz-adv-x="1144" unicode="5"/><glyph d="M1188 1092q-86 0 -132 75.5t-46 198.5q-199 0 -363 -221t-219 -541q76 104 194.5 175t264.5 71q139 0 230 -70.5t91 -220.5q0 -244 -191.5 -416t-463.5 -172q-211 0 -319.5 115t-108.5 330q0 283 116.5 526.5t315.5 387t428 143.5q156 0 251 -69t95 -163q0 -63 -42 -106 t-101 -43zM772 733q-96 0 -192.5 -70.5t-169.5 -197.5q-4 -78 -4 -117q0 -145 43 -206.5t131 -61.5q135 0 237.5 145.5t102.5 331.5q-1 176 -148 176z" glyph-name="six" horiz-adv-x="1292" unicode="6"/><glyph d="M383 1444h793l-25 -105l-737 -1339h-281l848 1214h-799l72 291h45q4 -39 23.5 -50t60.5 -11z" glyph-name="seven" horiz-adv-x="1007" unicode="7"/><glyph d="M858 1473q199 0 298 -79t83 -220q-12 -119 -108.5 -210.5t-258.5 -138.5q129 -74 192.5 -160.5t63.5 -205.5q0 -225 -180 -356.5t-481 -131.5q-236 0 -338 90.5t-86 237.5q16 150 133 256.5t301 165.5q-193 135 -192 328q0 180 161.5 302t411.5 122zM793 868 q225 135 225 338q0 160 -184 160q-123 0 -205 -66.5t-82 -166.5q0 -78 56.5 -138.5t189.5 -126.5zM498 76q156 0 259 80t103 209q0 84 -58.5 148.5t-185.5 125.5q-4 2 -59 33q-139 -76 -214 -179.5t-75 -218.5q1 -198 230 -198z" glyph-name="eight" horiz-adv-x="1226" unicode="8"/><glyph d="M823 1473q211 0 326 -123t115 -359q0 -274 -115 -508.5t-313.5 -373t-432.5 -138.5q-178 0 -284.5 69t-106.5 189q0 68 36 112t95 44q82 0 120 -83t38 -206q43 -18 102 -18q186 0 341 205.5t212 521.5q-182 -217 -448 -217q-152 0 -248 73.5t-96 233.5q0 236 193.5 407 t465.5 171zM616 698q100 0 195.5 66.5t163.5 179.5q6 76 6 154q0 266 -182 266q-139 0 -244.5 -145.5t-105.5 -333.5q0 -90 43.5 -138.5t123.5 -48.5z" glyph-name="nine" horiz-adv-x="1282" unicode="9"/><glyph d="M317 645q-47 0 -77.5 31t-30.5 76q0 70 52 124t124 54q47 0 79 -31t32 -78q0 -68 -53.5 -122t-125.5 -54zM147 -25q-49 0 -78.5 31t-29.5 76q0 70 52 123t124 53q47 0 79 -30.5t32 -75.5q0 -68 -53.5 -122.5t-125.5 -54.5z" glyph-name="colon" horiz-adv-x="544" unicode=":"/><glyph d="M348 938q47 0 79 -30.5t32 -76.5q0 -68 -53.5 -122t-124.5 -54q-49 0 -79 31t-30 76q0 70 52 123t124 53zM190 240q115 0 115 -136q0 -170 -114.5 -303t-290.5 -163l-6 36q104 33 182 115t102 199q-29 -16 -67 -17q-41 0 -66 24.5t-25 65.5q0 72 51 125.5t119 53.5z" glyph-name="semicolon" horiz-adv-x="501" unicode=";"/><glyph d="M1133 1016l-814 -318l625 -307l-22 -96l-740 362l-8 84l916 361z" glyph-name="less" horiz-adv-x="1097" unicode="&lt;"/><glyph d="M236 864l22 99h817l-24 -99h-815zM139 444l23 99h817l-25 -99h-815z" glyph-name="equal" horiz-adv-x="1112" unicode="="/><glyph d="M1012 737l8 -84l-916 -358l-43 86l813 317l-624 308l22 96z" glyph-name="greater" horiz-adv-x="1097" unicode=">"/><glyph d="M1204 1190q0 -100 -46 -189.5t-109.5 -148.5t-155.5 -111.5t-161.5 -79t-147.5 -51.5l-41 -176h-125l49 217q444 233 444 545q0 86 -44 130t-117 44q-104 0 -193 -49q-16 -145 -77.5 -220t-139.5 -75q-80 0 -80 82q0 139 178 252t402 113q172 0 268 -74t96 -209zM432 258 q47 0 78 -29.5t31 -76.5q0 -68 -52.5 -122.5t-123.5 -54.5q-49 0 -80 31t-31 76q0 70 53 123t125 53z" glyph-name="question" horiz-adv-x="1167" unicode="?"/><glyph d="M1178 1417q281 0 441.5 -159.5t160.5 -413.5q0 -283 -144.5 -487.5t-347.5 -204.5q-109 0 -164 57t-57 143q-117 -172 -307 -172q-113 0 -176.5 74t-63.5 211q0 215 135.5 377t321.5 162q162 0 205 -142l180 131h47l-117 -501q-29 -119 -11.5 -184.5t77.5 -65.5 q125 0 223 184t98 410q0 221 -129 362t-389 141q-246 0 -459 -131t-336.5 -348t-123.5 -463q0 -266 149.5 -395t386.5 -129q236 0 436 117l11 -17q-199 -168 -496 -168q-281 0 -434.5 157t-153.5 425t140.5 505.5t381.5 381t515 143.5zM858 301q106 0 180 141l72 303 q6 150 -94 150q-90 0 -169 -145.5t-79 -307.5q0 -141 90 -141z" glyph-name="at" horiz-adv-x="1847" unicode="@"/><glyph d="M1311 256q14 -102 37.5 -146t97.5 -69l-10 -41h-645l8 41q156 25 195.5 74t25.5 166l-31 221h-590l-129 -219q-66 -94 -42 -154.5t173 -87.5l-10 -41h-514l8 41q84 20 138.5 73.5t113.5 153.5l697 1176h311zM459 602h516l-98 709z" glyph-name="A" horiz-adv-x="1538" unicode="A"/><glyph d="M1049 752q174 -14 254.5 -87t80.5 -206q0 -215 -179 -337t-488 -122h-725l10 41q111 16 153 37.5t56 68.5l262 1135l-2 -4q14 59 -16.5 82.5t-139.5 42.5l11 41h757q201 0 291 -64.5t90 -197.5q0 -152 -113.5 -270.5t-301.5 -159.5zM950 1341h-180l-125 -546h162 q156 0 263.5 106.5t107.5 259.5q0 88 -51.5 134t-176.5 46zM645 100q209 0 331 104.5t122 258.5q0 231 -289 231h-188l-138 -594h162z" glyph-name="B" horiz-adv-x="1476" unicode="B"/><glyph d="M651 -29q-236 0 -381 146.5t-145 396.5t123 472t329.5 354.5t440.5 132.5q141 0 303 -91q68 -39 105.5 -26.5t91.5 94.5h36l-145 -633h-53q39 281 -49 416t-265 135q-244 0 -431 -250t-187 -592q0 -199 82 -312.5t237 -113.5q188 0 344 106.5t244 264.5l45 -22 q-84 -188 -281.5 -333t-443.5 -145z" glyph-name="C" horiz-adv-x="1462" unicode="C"/><glyph d="M1022 1444q313 0 482 -128t169 -392q0 -410 -280.5 -667t-730.5 -257h-670l10 41q111 16 153 37.5t56 68.5l262 1135l-2 -4q14 59 -16.5 82.5t-139.5 42.5l11 41h696zM666 102q303 0 505.5 236.5t202.5 585.5q0 418 -424 417h-176l-285 -1239h177z" glyph-name="D" horiz-adv-x="1695" unicode="D"/><glyph d="M1374 926h-45q10 141 -1 227t-50 126t-84 51t-127 11h-293l-125 -544h160q53 0 85 8t71 36.5t74.5 94t74.5 172.5h43l-170 -739h-45q14 141 -2 213.5t-51 92t-107 19.5h-157l-138 -594h281q186 0 311 104.5t219 319.5h45l-172 -524h-1179l10 41q111 18 153 40.5t58 74.5 l258 1124l-2 -8q14 61 -15.5 86.5t-138.5 44.5l11 41h1169z" glyph-name="E" horiz-adv-x="1433" unicode="E"/><glyph d="M1495 1444l-125 -539h-43q6 72 5 129.5t-4 100.5t-15.5 75.5t-22.5 55t-32.5 37t-38 22.5t-46 11t-50 4t-56.5 1h-293l-125 -544h160q53 0 85 8t71 36.5t74.5 94t74.5 172.5h43l-168 -729h-43q12 137 -4 206.5t-52 89t-108 19.5h-157l-119 -520v2q-14 -68 32 -92.5 t214 -42.5l-11 -41h-749l10 41q111 16 153 37.5t56 68.5l262 1135l-2 -4q14 59 -16.5 82.5t-139.5 42.5l11 41h1169z" glyph-name="F" horiz-adv-x="1323" unicode="F"/><glyph d="M952 729h656l-11 -41q-100 -18 -136 -39.5t-48 -81.5l-133 -567h-61q-10 66 -25.5 93.5t-48.5 27.5q-35 0 -113 -38t-190.5 -75t-231.5 -37q-225 0 -355 138.5t-130 384.5q0 397 264 688t615 291q68 0 134 -14.5t95 -26t100 -41.5q66 -29 103 -18t80 77h40l-129 -563h-53 q18 231 -76 355t-255.5 124t-306 -122t-227.5 -316.5t-83 -401.5q0 -199 77 -312.5t222 -113.5q170 0 328 109l84 356q14 57 -27 81t-168 42z" glyph-name="G" horiz-adv-x="1605" unicode="G"/><glyph d="M1241 1444h657l-10 -41q-121 -18 -159.5 -42t-53.5 -83l-256 -1112q-12 -57 14.5 -82t141.5 -43l-10 -41h-656l9 41q123 20 161.5 42.5t53.5 82.5l127 549h-629l-127 -549q-14 -59 13.5 -83t141.5 -42l-12 -41h-655l10 41q123 20 161 41.5t52 83.5l258 1112 q14 59 -16.5 82.5t-141.5 42.5l11 41h655l-8 -41q-90 -12 -134 -29.5t-56.5 -36t-22.5 -59.5l-107 -459h629l107 459q12 59 -18 82.5t-138 42.5z" glyph-name="H" horiz-adv-x="1783" unicode="H"/><glyph d="M-8 0l10 41q123 20 161 41.5t52 83.5l258 1112q14 59 -16.5 82.5t-141.5 42.5l11 41h655l-8 -41q-129 -18 -165 -43t-48 -82l-256 -1112q-14 -61 13.5 -84t141.5 -41l-12 -41h-655z" glyph-name="I" horiz-adv-x="866" unicode="I"/><glyph d="M643 1444h680l-10 -41q-113 -18 -149 -46t-56 -108l-154 -665q-143 -612 -661 -613q-174 0 -256 72t-82 164q0 74 43 121t108 47q76 0 113 -86t33 -223q66 2 117 18t105 58t97 127t74 214l176 764q16 78 -14.5 107.5t-173.5 48.5z" glyph-name="J" horiz-adv-x="1165" unicode="J"/><glyph d="M1792 1403q-213 -37 -451 -238l-262 -227l277 -717q33 -84 65.5 -119.5t112.5 -60.5l-10 -41h-674l10 41q127 20 160 60t0 112l-195 506l-243 -211l-78 -342q-14 -61 11.5 -84t133.5 -41l-10 -41h-647l10 41q125 23 162 43t51 82l256 1112q14 59 -15.5 82.5t-140.5 42.5 l11 41h655l-8 -41q-125 -20 -162 -43t-51 -82l-146 -627l617 541q51 45 74.5 72.5t34 57.5t-23.5 49.5t-112 31.5l10 41h586z" glyph-name="K" horiz-adv-x="1669" unicode="K"/><glyph d="M1286 547h43l-174 -547h-1163l10 41q111 16 153 37.5t56 68.5l260 1131q12 59 -17.5 82.5t-138.5 42.5l11 41h739l-8 -41q-127 -14 -187.5 -29.5t-82 -37t-31.5 -68.5l-269 -1168h265q184 0 308 104.5t226 342.5z" glyph-name="L" horiz-adv-x="1363" unicode="L"/><glyph d="M1860 1444h499l-10 -41q-123 -20 -162 -42t-53 -83l-240 -1040q-20 -94 16 -134.5t126 -62.5l-11 -41h-663l10 41q131 16 171 55t63 142l231 997l-827 -1098h-109l-342 1059l-211 -922q-27 -117 20.5 -162.5t157.5 -70.5l-10 -41h-545l11 41q53 12 84.5 24.5t67.5 37 t58.5 66.5t36.5 105l232 1004q12 59 -16.5 82.5t-137.5 42.5l8 41h498l311 -975z" glyph-name="M" horiz-adv-x="2242" unicode="M"/><glyph d="M1327 1444h535l-9 -41q-111 -23 -166 -71t-79 -148l-273 -1184h-248l-536 1176l-211 -916q-25 -104 18 -149t158 -70l-10 -41h-535l11 41q106 25 163.5 68t81.5 151l234 1018q14 59 -15.5 82.5t-138.5 42.5l8 41h457l524 -1135l201 875q25 104 -21 150t-157 69z" glyph-name="N" horiz-adv-x="1714" unicode="N"/><glyph d="M698 -29q-256 0 -411.5 147.5t-155.5 418.5q0 385 274.5 660.5t675.5 275.5q262 0 414 -146.5t152 -419.5q0 -250 -120 -463t-340.5 -343t-488.5 -130zM723 80q168 0 314.5 123t231.5 321.5t85 413.5q0 426 -297 426q-254 0 -442.5 -261t-188.5 -597q0 -201 77 -313.5 t220 -112.5z" glyph-name="O" horiz-adv-x="1671" unicode="O"/><glyph d="M1090 1444q401 0 401 -291q0 -248 -174 -404.5t-449 -156.5h-270l-94 -406q-14 -76 26.5 -101.5t192.5 -43.5l-10 -41h-721l10 41q119 18 160 43t55 94l254 1096q14 61 -16.5 85.5t-139.5 43.5l11 41h764zM793 694q182 0 297.5 121t115.5 313q0 213 -266 213h-170 l-149 -647h172z" glyph-name="P" horiz-adv-x="1409" unicode="P"/><glyph d="M698 -29q-47 0 -69 2l-209 -118q115 6 281.5 -43.5t261.5 -49.5q96 0 170.5 36t154.5 122l41 -16q-78 -174 -194.5 -263.5t-260.5 -89.5q-106 0 -202.5 46.5t-183.5 91.5t-173 45q-78 0 -182 -39l-16 67l395 232q-178 47 -279.5 186t-101.5 357q0 385 274.5 660.5 t675.5 275.5q262 0 414 -146.5t152 -419.5q0 -250 -120 -463t-340.5 -343t-488.5 -130zM1057 1364q-254 0 -442.5 -261t-188.5 -597q0 -201 77 -313.5t220 -112.5q168 0 314.5 123t231.5 321.5t85 413.5q0 426 -297 426z" glyph-name="Q" horiz-adv-x="1671" unicode="Q"/><glyph d="M1438 281l30 -15q-106 -295 -329 -295q-127 0 -182.5 80t-43.5 277q10 170 -15.5 249.5t-79.5 101t-173 21.5h-22l-119 -516q-14 -72 16.5 -98.5t147.5 -44.5l-11 -41h-665l10 41q111 16 153 37.5t56 68.5l262 1135l-2 -4q14 59 -16.5 82.5t-139.5 42.5l11 41h759 q195 0 288 -66.5t93 -206.5q2 -184 -161.5 -306t-427.5 -130q154 -20 231.5 -93t79.5 -241t17.5 -224t60.5 -56q43 0 82 36t90 124zM645 797h90q205 0 325 102t120 266q0 176 -232 176h-178z" glyph-name="R" horiz-adv-x="1515" unicode="R"/><glyph d="M631 -29q-193 0 -393 103q-66 31 -100 14.5t-77 -88.5h-34l131 573h43q-25 -252 93 -372.5t302 -120.5q123 0 203 65.5t80 169.5q0 109 -68 171.5t-207 115.5q-184 72 -276 177.5t-92 273.5q0 182 132 301t349 119q195 0 362 -101q66 -39 95.5 -24.5t74.5 98.5h35 l-131 -569h-45q16 133 -6.5 230t-74.5 151.5t-118.5 80t-150.5 25.5q-121 0 -191.5 -58.5t-70.5 -156.5q0 -100 62.5 -161.5t193.5 -115.5q188 -76 287.5 -177t99.5 -277q0 -211 -146.5 -329t-361.5 -118z" glyph-name="S" horiz-adv-x="1245" unicode="S"/><glyph d="M1524 1444l-129 -547h-43q8 88 7 155.5t-7 114.5t-22.5 80t-35 51.5t-49.5 28.5t-59.5 13t-73.5 3h-78l-270 -1159q-16 -70 18.5 -96.5t161.5 -46.5l-10 -41h-713l10 41q135 20 181.5 45t64.5 98l268 1159h-83q-80 0 -128.5 -11t-104.5 -54t-106.5 -135t-107.5 -246h-45 l129 547h1225z" glyph-name="T" horiz-adv-x="1378" unicode="T"/><glyph d="M735 -29q-287 0 -412.5 178.5t-46.5 524.5l140 604q12 57 -17.5 81.5t-126.5 43.5l11 41h635l-11 -41q-113 -20 -144.5 -43t-45.5 -82l-158 -688q-57 -260 -9 -385t210 -125q168 0 273.5 123t164.5 387l158 688q14 61 -13.5 84.5t-130.5 40.5l11 41h643l-8 -41 q-111 -20 -148 -42t-51 -83l-139 -604q-49 -211 -126 -353.5t-182.5 -216t-217.5 -103.5t-259 -30z" glyph-name="U" horiz-adv-x="1708" unicode="U"/><glyph d="M1305 1444h493l-10 -41q-86 -23 -134 -67t-114 -156l-700 -1180h-314l-161 1188q-16 113 -39 150.5t-99 64.5l11 41h647l-11 -41q-154 -27 -195.5 -67t-29.5 -142l152 -1063l616 1049q61 88 40 143t-163 80z" glyph-name="V" horiz-adv-x="1591" unicode="V"/><glyph d="M2310 1444h492l-11 -41q-86 -20 -129 -59t-102 -140l-715 -1204h-315l-82 1147l-604 -1147h-312l-163 1188q-14 111 -37 149.5t-99 65.5l9 41h647l-10 -41q-154 -27 -196 -67t-28 -142l148 -1057l549 1057q53 92 28.5 136t-157.5 73l10 41h725l-8 -41q-145 -25 -183 -65 t-32 -144l73 -1057l621 1057q20 35 30.5 56.5t11.5 47t-15.5 43t-54.5 34t-101 28.5z" glyph-name="W" horiz-adv-x="2600" unicode="W"/><glyph d="M1206 1446l514 -2l-8 -41q-84 -18 -148.5 -62.5t-156.5 -142.5l-403 -438l229 -522q41 -94 75.5 -135.5t104.5 -61.5l-10 -41h-701l13 41q100 12 148 44t47 75t-21 96l-176 412l-357 -420q-37 -45 -52 -71.5t-16 -57.5t39 -49.5t122 -28.5l-11 -41h-518l8 41 q86 20 151.5 67.5t141.5 135.5l436 501l-211 461q-45 98 -86 139t-112 58l10 41h700l-10 -41q-137 -18 -172 -71.5t12 -139.5l158 -356l318 350q172 190 -66 219z" glyph-name="X" horiz-adv-x="1544" unicode="X"/><glyph d="M1239 1444h487l-10 -41q-88 -20 -147.5 -61.5t-134.5 -127.5l-459 -526l-121 -522q-14 -59 14.5 -83t139.5 -42l-11 -41h-655l10 41q121 20 160 41.5t53 81.5l111 481l-232 561q-37 90 -78.5 134t-117.5 63l8 41h709l-13 -41q-131 -20 -166.5 -68.5t2.5 -140.5l158 -414 l328 394q59 70 76.5 113.5t-9 73.5t-112.5 42z" glyph-name="Y" horiz-adv-x="1538" unicode="Y"/><glyph d="M1372 1444l-16 -66l-1010 -1276h340q68 0 105.5 4.5t93 27t94.5 67.5t86 128t94 208h43l-125 -537h-1083l20 80l998 1261h-328q-55 0 -86 -3t-77 -15t-77.5 -40t-72.5 -75t-78 -123.5t-76 -183.5h-43l127 543h1071z" glyph-name="Z" horiz-adv-x="1265" unicode="Z"/><glyph d="M88 -207l430 1860h483l-22 -99h-225l-381 -1663h223l-23 -98h-485z" glyph-name="bracketleft" horiz-adv-x="837" unicode="["/><glyph d="M817 -250l-520 1921h111l520 -1921h-111z" glyph-name="backslash" horiz-adv-x="1122" unicode="\"/><glyph d="M858 1649l-430 -1858h-483l22 98h226l380 1661h-223l23 99h485z" glyph-name="bracketright" horiz-adv-x="839" unicode="]"/><glyph glyph-name="asciicircum" horiz-adv-x="1130" unicode="^"/><glyph d="M-6 -182l22 94h820l-23 -94h-819z" glyph-name="underscore" horiz-adv-x="1114" unicode="_"/><glyph d="M938 203q-18 -86 11.5 -109.5t137.5 4.5l13 -41q-100 -82 -248 -82q-188 0 -178 199q-133 -203 -344 -203q-133 0 -203 92.5t-70 253.5q0 283 176.5 486t423.5 203q170 0 242 -142l150 113h67zM432 98q90 0 181.5 126t138.5 317l43 176q-10 195 -119 194 q-131 0 -238.5 -195.5t-107.5 -430.5q0 -187 102 -187z" glyph-name="a" horiz-adv-x="1177" unicode="a"/><glyph d="M782 1006q127 0 203 -87.5t76 -244.5q0 -305 -177 -504t-448 -199q-223 0 -303 145.5t-18 415.5l178 764q12 61 -3.5 81t-103.5 38l11 41l417 92l-161 -710q128 168 329 168zM436 78q135 0 242.5 195.5t107.5 439.5q0 182 -106 182q-80 0 -159 -86t-128 -225l-57 -250 q-29 -113 -2.5 -184.5t102.5 -71.5z" glyph-name="b" horiz-adv-x="1116" unicode="b"/><glyph d="M678 1006q137 0 219 -78t82 -183q0 -57 -29.5 -92t-83.5 -35q-154 0 -118 285q-23 8 -56 8q-143 0 -255.5 -185t-112.5 -417q0 -225 172 -225q170 0 301 131l41 -49q-176 -195 -447 -195q-164 0 -252 92.5t-88 264.5q0 283 182.5 480.5t444.5 197.5z" glyph-name="c" horiz-adv-x="970" unicode="c"/><glyph d="M934 205q-18 -84 11.5 -109.5t135.5 2.5l13 -41q-100 -82 -248 -82q-195 0 -168 218q-133 -221 -363 -222q-127 0 -196.5 92.5t-69.5 253.5q0 285 177 487t431 202q113 0 181 -68l82 354q14 63 -7.5 83t-128.5 36l9 41l448 82zM416 98q96 0 189 124t140 315l43 184 q-10 190 -112 190q-135 0 -243.5 -194.5t-108.5 -431.5q0 -187 92 -187z" glyph-name="d" horiz-adv-x="1167" unicode="d"/><glyph d="M977 770q0 -182 -192.5 -279.5t-454.5 -89.5q-4 -49 -4 -71q0 -250 184 -250t321 158l43 -48q-164 -219 -450 -219q-178 0 -275.5 95.5t-97.5 275.5q0 270 184.5 467t440.5 197q129 0 215 -58.5t86 -177.5zM651 907q-98 0 -189 -131t-124 -309q190 18 297.5 119.5 t107.5 220.5q0 100 -92 100z" glyph-name="e" horiz-adv-x="985" unicode="e"/><glyph d="M784 1550q129 0 216 -57t87 -137q0 -53 -28.5 -84t-75.5 -31q-111 0 -145 217h-23q-143 0 -188 -213l-58 -268h215l-20 -94h-215l-187 -856q-94 -434 -448 -435q-111 0 -191.5 58.5t-80.5 138.5q0 47 25.5 73.5t68.5 26.5q117 0 166 -202q125 14 170 233l209 963h-166 l22 94h164l37 166q90 407 446 407z" glyph-name="f" horiz-adv-x="710" unicode="f"/><glyph d="M1032 1169q51 4 80 -18.5t29 -60.5q0 -59 -37 -100.5t-88 -41.5q-76 0 -125 90q-49 -27 -96 -71q133 -68 133 -236t-140.5 -291t-338.5 -123q-201 0 -201 -63q0 -27 41 -41t180 -41q209 -39 296 -92t87 -164q0 -154 -152.5 -239t-423.5 -85q-434 0 -434 183 q0 84 97.5 143t279.5 70q-172 55 -172 182q0 143 221 184q-143 70 -143 242q0 166 143.5 288t345.5 122q55 0 111 -13q155 166 307 176zM467 414q92 0 162.5 109.5t70.5 246.5q0 141 -112 141q-90 0 -162 -109.5t-72 -240.5q0 -147 113 -147zM629 -166q0 49 -50.5 70.5 t-193.5 44.5l-37 6q-283 -35 -282 -152q0 -115 249 -114q141 0 227.5 38.5t86.5 106.5z" glyph-name="g" horiz-adv-x="1011" unicode="g"/><glyph d="M1141 92l12 -39q-104 -82 -266 -82q-119 0 -159 76t-3 205l106 381q61 223 -43 223q-113 0 -242.5 -205t-185.5 -448l-47 -203h-262l299 1298q12 53 -2 72t-98 37l12 41l406 82l-197 -850q90 156 205 241t235 85q115 0 178.5 -84t10.5 -285l-115 -428q-23 -82 10 -114 t146 -3z" glyph-name="h" horiz-adv-x="1245" unicode="h"/><glyph d="M453 1186q-53 0 -88 33.5t-35 85.5q0 74 61.5 133t136.5 59q53 0 88 -32.5t35 -84.5q0 -72 -62 -133t-136 -61zM283 -29q-225 0 -156 324l106 459q12 53 -2 71.5t-96 36.5l10 41l410 92l-180 -786q-18 -88 13.5 -114.5t146.5 3.5l12 -39q-102 -88 -264 -88z" glyph-name="i" horiz-adv-x="636" unicode="i"/><glyph d="M532 1497q55 0 89 -32.5t34 -84.5q0 -72 -61.5 -133t-134.5 -61q-53 0 -88 33.5t-35 85.5q0 74 61 133t135 59zM135 872l10 41l426 82l-196 -854q-68 -291 -210 -420t-315 -129q-92 0 -140 28t-48 75q0 49 36 87t81 38q86 0 133 -139q102 61 162 309l180 774 q12 55 -6.5 71.5t-112.5 36.5z" glyph-name="j" horiz-adv-x="610" unicode="j"/><glyph d="M874 221q25 -94 71 -121.5t132 4.5l13 -38q-35 -41 -100.5 -68t-135.5 -27q-143 0 -198.5 109.5t-73.5 351.5q-25 -10 -87.5 -37.5t-99.5 -44.5l-82 -350h-262l301 1313q12 51 -2 69.5t-98 36.5l10 41l410 86l-254 -1091q342 150 497 278q-74 92 -73 164q0 49 38 79 t97 30q131 0 131 -119q0 -164 -291 -332q20 -193 57 -334z" glyph-name="k" horiz-adv-x="1175" unicode="k"/><glyph d="M250 -25q-238 0 -162 322l238 1018q8 31 6 50t-27.5 32.5t-89.5 25.5l10 41l416 82l-305 -1333q-20 -88 11.5 -114.5t148.5 3.5l10 -41q-100 -86 -256 -86z" glyph-name="l" horiz-adv-x="575" unicode="l"/><glyph d="M1759 92l10 -39q-102 -82 -264 -82q-119 0 -155.5 76t-1.5 207l102 379q59 223 -39 223q-119 0 -237.5 -202.5t-184.5 -493.5l-37 -160h-268l150 647q49 211 -60 211q-98 0 -218 -202.5t-183 -487.5l-41 -168h-264l176 766q10 51 -7.5 69.5t-99.5 38.5l10 39l416 82 l-90 -340q174 350 428 351q246 0 201 -320q84 154 195.5 237t234.5 83q51 0 91 -15.5t76 -56.5t40 -112.5t-21 -184.5l-112 -430q-23 -82 9.5 -113t143.5 -2z" glyph-name="m" horiz-adv-x="1863" unicode="m"/><glyph d="M1159 92l12 -39q-104 -82 -266 -82q-233 0 -149 316l94 346q61 223 -33 223q-117 0 -246 -194.5t-194 -479.5l-43 -182h-264l174 760q12 53 -5.5 73.5t-101.5 40.5l10 41l418 82l-102 -379q94 193 220 290.5t265 97.5q109 0 165 -90.5t-1 -303.5l-106 -405 q-23 -82 9.5 -113t143.5 -2z" glyph-name="n" horiz-adv-x="1263" unicode="n"/><glyph d="M455 -29q-184 0 -293 94.5t-109 278.5q0 274 182.5 468t454.5 194q186 0 295 -96.5t109 -282.5q0 -276 -180 -466t-459 -190zM469 72q137 0 244.5 189.5t107.5 424.5q0 219 -147 219q-88 0 -170 -91t-131 -232.5t-49 -288.5q0 -221 145 -221z" glyph-name="o" horiz-adv-x="1148" unicode="o"/><glyph d="M868 1006q119 0 199 -85t80 -247q0 -281 -171 -492t-401 -211q-164 0 -237 107l-107 -457h-264l262 1143q12 53 -6 72.5t-104 35.5l10 39l420 84l-53 -231q145 242 372 242zM522 68q131 0 241.5 208.5t110.5 442.5q0 176 -100 176q-94 0 -201.5 -145.5t-158.5 -339.5 l-41 -172q20 -170 149 -170z" glyph-name="p" horiz-adv-x="1204" unicode="p"/><glyph d="M1069 977h49l-313 -1356h-266l125 539q-133 -188 -342 -189q-127 0 -196 92.5t-69 253.5q0 285 177.5 487t429.5 202q176 0 239 -152zM424 98q96 0 190.5 128t137.5 315l43 180q-10 190 -113 190q-135 0 -243.5 -194.5t-108.5 -431.5q0 -187 94 -187z" glyph-name="q" horiz-adv-x="1148" unicode="q"/><glyph d="M848 1006q115 0 115 -109q0 -78 -43 -127t-97 -49q-74 0 -125 123q-90 -86 -178 -256t-135 -369l-51 -219h-264l176 766q12 51 -5.5 70.5t-103.5 37.5l10 39l418 82l-119 -409q181 420 402 420z" glyph-name="r" horiz-adv-x="886" unicode="r"/><glyph d="M530 909q-80 2 -127 -29.5t-47 -85t38 -93t132 -89.5q135 -68 197.5 -138.5t62.5 -188.5q0 -145 -112.5 -229.5t-300.5 -84.5q-174 0 -273.5 56.5t-99.5 148.5q0 47 27.5 76t72.5 29q115 0 166 -201q45 -10 90 -10q86 0 142.5 37.5t56.5 99.5q0 57 -38 91t-142 85 q-133 66 -192.5 139.5t-59.5 184.5q0 137 107.5 219t295.5 80q147 -2 244.5 -51.5t97.5 -127.5q0 -47 -29.5 -77.5t-76.5 -30.5q-119 0 -166 184q-31 6 -66 6z" glyph-name="s" horiz-adv-x="917" unicode="s"/><glyph d="M539 889l-144 -621q-45 -182 68 -182q119 0 231 137l41 -39q-158 -213 -385 -213q-291 0 -209 357l131 561h-133l23 88h145l260 289h58l-66 -289h270l-20 -88h-270z" glyph-name="t" horiz-adv-x="796" unicode="t"/><glyph d="M997 213q-20 -86 12.5 -113.5t147.5 2.5l12 -41q-104 -86 -258 -86q-82 0 -126 41t-47 107.5t20 152.5l2 7q-160 -311 -430 -312q-55 0 -98.5 16.5t-79 58.5t-41 112.5t15.5 177.5l115 485q10 53 -14.5 75t-102.5 40l10 41h410l-146 -631q-53 -229 62 -229 q102 0 209.5 154.5t175.5 447.5l59 258h266z" glyph-name="u" horiz-adv-x="1247" unicode="u"/><glyph d="M899 1006q168 0 162 -230q-6 -176 -96.5 -361.5t-247 -314.5t-324.5 -129q-141 0 -207.5 104.5t-23.5 307.5l78 377q20 94 -9.5 115.5t-142.5 -15.5l-14 39q133 106 288 107q203 0 148 -271l-84 -416q-41 -205 61 -204q121 0 257.5 163.5t166.5 342.5q-145 145 -145 262 q0 55 35 89t98 34z" glyph-name="v" horiz-adv-x="1103" unicode="v"/><glyph d="M1481 1006q166 0 159 -230q-4 -178 -92 -364.5t-235.5 -313.5t-304.5 -127q-113 0 -177.5 63.5t-66.5 190.5q-143 -254 -371 -254q-141 0 -207.5 104.5t-23.5 307.5l78 377q20 94 -9.5 115.5t-142.5 -15.5l-14 39q133 106 288 107q203 0 148 -271l-84 -416 q-41 -205 61 -204q78 0 155 114.5t126 250.5t76 268l43 217h270l-117 -646q-41 -205 62 -204q106 0 234 165.5t155 340.5q-143 143 -143 262q0 55 35 89t98 34z" glyph-name="w" horiz-adv-x="1685" unicode="w"/><glyph d="M1167 899q2 -59 -29.5 -96t-82.5 -41q-74 -6 -152 55q-76 -86 -215 -323l88 -277q31 -92 80 -116.5t150 14.5l12 -39q-98 -104 -264 -105q-217 0 -289 254l-35 119q-125 -209 -210 -291t-185 -82q-53 0 -82 30t-31 77q-2 59 30 96t85 41q78 6 156 -61q70 80 202 301 l-96 325q-20 72 -53 102.5t-113 53.5l8 41h394l118 -375q133 231 216 317.5t184 86.5q110 -1 114 -107z" glyph-name="x" horiz-adv-x="1124" unicode="x"/><glyph d="M907 1006q160 0 160 -181q0 -150 -99.5 -362.5t-251 -405t-351 -329t-379.5 -136.5q-162 0 -162 132q0 55 31.5 98t87 43t106.5 -44t86 -114q104 45 223 141q-57 471 -168 930q-18 80 -39.5 110t-87.5 48l13 41h368q106 -532 140 -909q229 268 311 546q-125 145 -125 254 q0 66 37 102t100 36z" glyph-name="y" horiz-adv-x="1130" unicode="y"/><glyph d="M631 213q86 0 129 39t82 145l59 -12q-43 -418 -319 -418q-104 0 -243.5 46t-178.5 46q-55 0 -129 -73l-74 67l694 647q-141 59 -280 60q-86 0 -127 -34t-84 -140l-60 12q47 408 312 408q109 0 240.5 -46.5t170.5 -46.5q59 0 133 74l76 -63l-700 -650q156 -61 299 -61z " glyph-name="z" horiz-adv-x="993" unicode="z"/><glyph d="M502 1419q43 186 201.5 250t373.5 2l-20 -47q-129 14 -201 -28t-96 -148q-23 -92 -35 -226.5t-23 -193.5q-43 -258 -325 -293q94 -16 145 -72.5t51 -142.5q0 -72 -64.5 -234.5t-76.5 -226.5q-25 -119 30.5 -166t180.5 -43l-2 -47q-231 -47 -365.5 31t-74.5 299 q10 35 71.5 194.5t61.5 245.5q0 115 -127 115h-88l24 103h95q94 0 145 41.5t66 156.5q4 35 10 115t16.5 160.5t26.5 154.5z" glyph-name="braceleft" horiz-adv-x="901" unicode="{"/><glyph d="M147 -287l441 1907h110l-440 -1907h-111z" glyph-name="bar" horiz-adv-x="759" unicode="|"/><glyph d="M809 786h88l-25 -100h-94q-94 0 -144 -42t-65 -157q-2 -18 -17 -174.5t-38 -255.5q-43 -186 -201.5 -249.5t-373.5 -2.5l20 48q129 -14 200.5 27.5t96.5 146.5q23 92 35 226t22 193q45 260 326 295q-94 16 -145.5 71.5t-51.5 141.5q0 72 63.5 236t78.5 227 q27 119 -29.5 165t-181.5 42l2 47q233 49 366 -29.5t74 -300.5q-10 -35 -71.5 -193.5t-61.5 -244.5q0 -117 127 -117z" glyph-name="braceright" horiz-adv-x="901" unicode="}"/><glyph glyph-name="asciitilde" horiz-adv-x="1130" unicode="~"/><glyph d="M393 1008q47 0 78 -31t31 -76q0 -70 -52.5 -123t-125.5 -53q-47 0 -78 30.5t-31 75.5q0 68 53 122.5t125 54.5zM311 553l-90 -805q-16 -238 -180 -237q-174 0 -66 256l285 786h51z" glyph-name="exclamdown" horiz-adv-x="548" unicode="¡"/><glyph d="M965 815q-92 0 -111.5 90t16.5 197q-35 8 -67 12l-180 -768h2q180 0 315 135l45 -51q-160 -160 -385 -186l-57 -246l-111 2l55 240q-168 8 -264 98t-96 250q0 252 167 428t417 192l55 236h113l-56 -238q137 -12 211 -78.5t74 -152.5q0 -70 -41 -115t-102 -45zM416 563 q0 -150 100 -196l168 725q-115 -51 -191.5 -200t-76.5 -329z" glyph-name="cent" horiz-adv-x="1079" unicode="¢"/><glyph d="M879 219q262 0 364 356h51q-27 -287 -149.5 -445.5t-313.5 -158.5q-168 0 -305 154q-152 -125 -325 -125q-96 0 -148.5 55.5t-52.5 139.5q0 109 78 179t203 70q94 0 202 -61q2 8 2 29q0 29 -3 59.5t-6 54t-12 57t-13.5 50t-15.5 56.5t-15 52h-262l24 101h213 q-23 94 -22 194q0 201 136 319t368 118q201 0 314.5 -77t123.5 -186q6 -68 -28 -110.5t-87 -46.5q-88 -6 -128 73.5t-25 221.5q-47 12 -105 12q-276 0 -276 -281q0 -63 26 -237h361l-25 -101h-317q14 -100 14 -188q0 -147 -70 -274q115 -60 224 -60zM215 102q59 0 118.5 35 t98.5 94q-94 109 -176 109q-63 0 -102 -38t-39 -91q0 -51 26.5 -80t73.5 -29z" glyph-name="sterling" horiz-adv-x="1366" unicode="£"/><glyph glyph-name="currency" horiz-adv-x="1130" unicode="¤"/><glyph d="M1149 1444h469l-10 -41q-76 -16 -134.5 -59.5t-138.5 -129.5l-370 -407h338l-27 -102h-361l-59 -256h363l-25 -105h-363l-40 -178q-14 -61 15.5 -84t139.5 -41l-10 -41h-655l8 41q125 20 162.5 44t52.5 81l41 178h-363l23 105h364l58 256h-363l25 102h309l-176 399 q-43 98 -81 139t-108 58l11 41h686l-10 -41q-125 -20 -159 -73.5t5 -135.5l135 -340l275 320q55 68 73.5 111.5t-7 74.5t-103.5 43z" glyph-name="yen" horiz-adv-x="1417" unicode="¥"/><glyph d="M389 766l199 854h110l-196 -854h-113zM147 -287l199 856h111l-199 -856h-111z" glyph-name="brokenbar" horiz-adv-x="759" unicode="¦"/><glyph d="M866 1012q174 -59 255 -133t81 -205q0 -129 -102.5 -219t-284.5 -115q168 -102 168 -285q0 -141 -107.5 -224t-261.5 -83q-74 0 -138 12.5t-92 22.5t-89 35q-72 29 -101.5 19.5t-64.5 -64.5h-35l96 417l46 -4q-6 -332 315 -331q92 0 144.5 36.5t52.5 108.5 q0 78 -60.5 119t-212.5 90q-174 59 -254 132t-80 206q0 131 103.5 220t285.5 116q-158 102 -157 282q0 141 103.5 224.5t252.5 83.5q74 0 139.5 -13.5t91 -23t89.5 -35.5q70 -29 99.5 -19.5t65.5 64.5h33l-96 -416l-43 2q2 164 -79 248t-238 84q-182 0 -183 -143 q0 -78 58.5 -120t199.5 -89zM696 395q127 8 205 60.5t78 138.5q0 127 -252 201q-27 8 -80 28q-127 -8 -204.5 -59t-77.5 -139q0 -125 249 -201q29 -9 82 -29z" glyph-name="section" horiz-adv-x="1282" unicode="§"/><glyph d="M659 -29q-246 0 -393 157t-147 402q0 242 119.5 459t330.5 350.5t457 133.5q248 0 395.5 -157t147.5 -400.5t-120 -460.5t-331 -350.5t-459 -133.5zM678 39q209 0 399.5 121t304 321.5t113.5 419.5q0 229 -130 365.5t-355 136.5q-319 0 -568 -262t-249 -596 q0 -231 131 -368.5t354 -137.5zM760 299q-129 0 -210 77t-81 238q0 227 142.5 388t326.5 161q80 0 178 -49q41 -20 66.5 -12t54.5 57h35l-84 -364h-47q8 143 -32 213.5t-114 70.5q-119 0 -212 -140t-93 -325q0 -213 152 -213q90 0 165.5 49.5t122.5 131.5l27 -9 q-49 -115 -153.5 -194.5t-243.5 -79.5z" glyph-name="copyright" horiz-adv-x="1579" unicode="©"/><glyph d="M940 840l-285 -289l150 -293l-27 -29l-209 164q-88 63 -88 123q0 33 10.5 59.5t41 51t47 35t65.5 38.5l283 168zM604 834l-282 -289l147 -295l-25 -27l-211 164q-90 68 -90 123q0 31 10.5 55.5t39 49t42 33.5t58.5 36q10 6 16 10l283 168z" glyph-name="guillemotleft" horiz-adv-x="1015" unicode="«"/><glyph glyph-name="logicalnot" horiz-adv-x="1130" unicode="¬"/><glyph d="M768 1468q158 0 256 -92t98 -252q0 -223 -163.5 -388t-399.5 -165q-158 0 -256 93.5t-98 253.5q0 227 163.5 388.5t399.5 161.5zM569 629q193 0 338.5 145.5t145.5 339.5q0 143 -82 220t-217 77q-193 0 -337.5 -142.5t-144.5 -340.5q0 -145 83 -222t214 -77zM846 844 q25 0 55 49l17 -4q-39 -102 -130 -103q-45 0 -64 27t-19 88q0 66 -12.5 82t-59.5 16h-19l-28 -125q-6 -29 4 -39t49 -16l-4 -24h-252l4 24q41 8 54.5 16.5t19.5 34.5l74 318q4 20 -4.5 26.5t-47.5 14.5l4 24h269q145 0 145 -88q0 -53 -48 -95t-124 -52q92 -12 92 -98 q0 -47 4.5 -61.5t20.5 -14.5zM627 1051h26q55 0 91 27.5t36 72.5q0 51 -90 51h-31z" glyph-name="registered" horiz-adv-x="1081" unicode="®"/><glyph d="M532 760q-117 0 -189.5 72.5t-72.5 197.5q0 174 124 308.5t302 134.5q119 0 192 -73t73 -198q0 -176 -125.5 -309t-303.5 -133zM551 858q119 0 208 100.5t89 231.5q0 90 -45 137t-123 47q-121 0 -209 -100t-88 -234q0 -88 45 -135t123 -47z" glyph-name="degree" horiz-adv-x="940" unicode="°"/><glyph d="M698 877h363l-23 -99h-364l-70 -303l-104 2l71 301h-364l24 99h365l70 294h100zM72 195l22 96h832l-23 -96h-831z" glyph-name="plusminus" horiz-adv-x="1124" unicode="±"/><glyph d="M1645 1444l-11 -41q-119 -20 -154.5 -44t-49.5 -87l-197 -842q-154 -653 -768 -653q-211 0 -316.5 73.5t-105.5 174.5q0 68 41 109.5t102 41.5q152 0 191 -307h20q125 0 217 20l136 586h-105q-227 0 -353 98.5t-126 294.5q0 256 193.5 416t519.5 160h766zM741 578h33 l176 763h-32q-207 0 -341.5 -136t-134.5 -337q0 -290 299 -290zM1085 422l211 919h-198l-322 -1390q229 125 309 471z" glyph-name="paragraph" horiz-adv-x="1513" unicode="¶"/><glyph d="M246 512q-47 0 -78 30.5t-31 78.5q0 68 52.5 122t123.5 54q47 0 79 -31t32 -78q0 -68 -53 -122t-125 -54z" glyph-name="periodcentered" horiz-adv-x="499" unicode="·"/><glyph d="M809 705q90 -68 90 -123q0 -14 -2 -28.5t-9 -27t-12.5 -21.5t-18.5 -21.5t-19.5 -18.5t-24.5 -18.5t-24.5 -15.5t-29 -17.5t-26.5 -16.5l-282 -168l-13 29l283 291l-148 293l25 26zM563 575q0 -33 -11 -58t-42 -50t-47.5 -36t-65.5 -40l-282 -168l-13 29l285 291 l-149 291l26 28l209 -164q90 -66 90 -123z" glyph-name="guillemotright" horiz-adv-x="1015" unicode="»"/><glyph d="M588 762l-8 -35h-478l9 35q76 8 99 21.5t28 39.5l112 496h-112l12 49l86 10q184 20 252 72h43l-144 -627q-4 -12 -3 -21t9.5 -15.5t31 -12.5t63.5 -12zM1466 1444h162l-1442 -1444h-161zM1462 715l-108 -471h133l-19 -82h-135l-14 -66q-6 -29 9 -41t89 -20l-6 -35h-471 l6 35q76 10 97.5 21.5t27.5 39.5l14 66h-438l12 53l547 500h256zM799 244h307l80 348z" glyph-name="onequarter" horiz-adv-x="1568" unicode="¼"/><glyph d="M588 762l-8 -35h-478l9 35q76 8 99 21.5t28 39.5l112 496h-112l12 49l86 10q184 20 252 72h43l-144 -627q-4 -12 -3 -21t9.5 -15.5t31 -12.5t63.5 -12zM1448 1444h162l-1442 -1444h-162zM1266 154q106 0 162.5 28.5t113.5 124.5h35l-70 -307h-710l20 88q233 94 367.5 222 t134.5 249q0 100 -111 100q-41 0 -86 -10q-41 -199 -174 -200q-66 0 -65 57q0 84 119.5 156.5t279.5 72.5q289 0 289 -180q0 -236 -443 -401h138z" glyph-name="onehalf" horiz-adv-x="1673" unicode="½"/><glyph d="M418 723q-131 0 -217 32.5t-86 94.5q0 43 31.5 72.5t70.5 29.5q100 0 115 -151q25 -6 57 -6q96 0 151.5 43t55.5 108q0 106 -186 107h-103l19 86h96q111 0 177.5 45t66.5 123q0 92 -117 92q-57 0 -90 -10q-18 -68 -61.5 -117t-108.5 -51q-63 0 -64 51q0 76 121 137 t291 61q285 0 285 -153q0 -172 -306 -213q233 -27 234 -164q0 -96 -114.5 -156.5t-317.5 -60.5zM1571 1444h162l-1442 -1444h-162zM1559 715l-109 -471h133l-18 -82h-135l-15 -66q-6 -29 9.5 -41t88.5 -20l-8 -35h-471l8 35q76 10 97.5 21.5t27.5 39.5l15 66h-439l13 53 l547 500h256zM895 244h307l80 348z" glyph-name="threequarters" horiz-adv-x="1665" unicode="¾"/><glyph d="M733 721q-47 0 -78.5 30.5t-31.5 77.5q0 68 53 122.5t125 54.5q49 0 78.5 -31t29.5 -78q0 -68 -52 -122t-124 -54zM825 -45q80 0 80 -82q0 -139 -178 -252t-403 -113q-170 0 -266.5 74t-96.5 209q0 100 46 189.5t109.5 148.5t156 111.5t162 79t147.5 51.5l41 176h125 l-52 -219q-444 -229 -444 -543q0 -86 45 -130t119 -44q100 0 192 49q14 145 75.5 220t141.5 75z" glyph-name="questiondown" horiz-adv-x="1167" unicode="¿"/><glyph d="M1044 1595l-141 211q-53 66 -42 129.5t73 83.5q59 20 101 -12.5t34 -124.5l-10 -278zM1311 256q14 -102 37.5 -146t97.5 -69l-10 -41h-645l8 41q156 25 195.5 74t25.5 166l-31 221h-590l-129 -219q-66 -94 -42 -154.5t173 -87.5l-10 -41h-514l8 41q84 20 138.5 73.5 t113.5 153.5l697 1176h311zM459 602h516l-98 709z" glyph-name="Agrave" horiz-adv-x="1538" unicode="À"/><glyph d="M1243 1806l-233 -211l-15 9l125 286q31 86 86.5 119t102.5 10q47 -18 30.5 -85t-96.5 -128zM1311 256q14 -102 37.5 -146t97.5 -69l-10 -41h-645l8 41q156 25 195.5 74t25.5 166l-31 221h-590l-129 -219q-66 -94 -42 -154.5t173 -87.5l-10 -41h-514l8 41 q84 20 138.5 73.5t113.5 153.5l697 1176h311zM459 602h516l-98 709z" glyph-name="Aacute" horiz-adv-x="1538" unicode="Á"/><glyph d="M1071 1815l-258 -170l-12 12l166 227q45 61 77.5 87t73.5 26q37 0 58.5 -26.5t37.5 -90.5l66 -254l-16 -10zM1311 256q14 -102 37.5 -146t97.5 -69l-10 -41h-645l8 41q156 25 195.5 74t25.5 166l-31 221h-590l-129 -219q-66 -94 -42 -154.5t173 -87.5l-10 -41h-514l8 41 q84 20 138.5 73.5t113.5 153.5l697 1176h311zM459 602h516l-98 709z" glyph-name="Acircumflex" horiz-adv-x="1538" unicode="Â"/><glyph d="M909 1780q-49 0 -83.5 -27t-75.5 -78l-27 8q41 119 108.5 183.5t149.5 64.5q63 0 133 -50t117 -50q80 0 164 102l24 -8q-41 -119 -109.5 -182.5t-146.5 -63.5q-68 0 -138.5 50.5t-115.5 50.5zM1311 256q14 -102 37.5 -146t97.5 -69l-10 -41h-645l8 41q156 25 195.5 74 t25.5 166l-31 221h-590l-129 -219q-66 -94 -42 -154.5t173 -87.5l-10 -41h-514l8 41q84 20 138.5 73.5t113.5 153.5l697 1176h311zM459 602h516l-98 709z" glyph-name="Atilde" horiz-adv-x="1538" unicode="Ã"/><glyph d="M827 1675q-45 0 -73.5 29t-28.5 74q0 63 53 115.5t117 52.5q45 0 74.5 -30t29.5 -73q0 -63 -53 -115.5t-119 -52.5zM1247 1675q-45 0 -73.5 29t-28.5 74q0 63 53 115.5t117 52.5q45 0 73.5 -30t28.5 -73q0 -63 -53.5 -115.5t-116.5 -52.5zM1311 256q14 -102 37.5 -146 t97.5 -69l-10 -41h-645l8 41q156 25 195.5 74t25.5 166l-31 221h-590l-129 -219q-66 -94 -42 -154.5t173 -87.5l-10 -41h-514l8 41q84 20 138.5 73.5t113.5 153.5l697 1176h311zM459 602h516l-98 709z" glyph-name="Adieresis" horiz-adv-x="1538" unicode="Ä"/><glyph d="M1012 1556q-88 0 -140.5 52.5t-52.5 144.5q0 121 80 200t211 79q88 0 141.5 -51.5t53.5 -141.5q0 -123 -84 -203t-209 -80zM1094 1944q-66 0 -116 -51.5t-50 -133.5q0 -55 27.5 -83.5t70.5 -28.5q70 0 120 50t50 132q0 55 -28.5 85t-73.5 30zM1311 256q14 -102 37.5 -146 t97.5 -69l-10 -41h-645l8 41q156 25 195.5 74t25.5 166l-31 221h-590l-129 -219q-66 -94 -42 -154.5t173 -87.5l-10 -41h-514l8 41q84 20 138.5 73.5t113.5 153.5l697 1176h311zM459 602h516l-98 709z" glyph-name="Aring" horiz-adv-x="1538" unicode="Å"/><glyph d="M1952 926h-45q10 182 -19.5 273t-87 116.5t-172.5 25.5h-258l-82 -544h96q51 0 79 6t70 32.5t79 94t78 178.5h45l-168 -729h-45q2 76 6 129t-10.5 88t-23.5 54.5t-35.5 29.5t-46 12t-52.5 2h-88l-88 -594h172q188 0 314 102.5t216 321.5h43l-172 -524h-1073l8 41 q72 14 115 30.5t66.5 44t31.5 54.5t17 80l36 252h-495l-172 -238q-70 -86 -53.5 -138t143.5 -85l-10 -41h-473l8 41q78 23 131 68t135 159l848 1176h1051zM526 592h445l112 772z" glyph-name="AE" horiz-adv-x="2021" unicode="Æ"/><glyph d="M1409 817h-53q39 281 -49 416t-265 135q-244 0 -431 -250t-187 -592q0 -199 82 -312.5t237 -113.5q188 0 344 106.5t244 264.5l45 -22q-84 -188 -280.5 -332t-442.5 -146l-41 -90q231 12 232 -139q0 -78 -67.5 -129t-174.5 -51q-113 0 -178.5 49t-85.5 121l16 18 q66 -82 185 -82q135 0 135 74q0 72 -174 76l2 18l65 141q-201 25 -321.5 168.5t-120.5 368.5q0 250 123 472t329.5 354.5t440.5 132.5q141 0 303 -91q68 -39 105.5 -26.5t91.5 94.5h36z" glyph-name="Ccedilla" horiz-adv-x="1462" unicode="Ç"/><glyph d="M987 1595l-141 211q-53 66 -42 129.5t73 83.5q59 20 101 -12.5t34 -124.5l-11 -278zM1374 926h-45q10 141 -1 227t-50 126t-84 51t-127 11h-293l-125 -544h160q53 0 85 8t71 36.5t74.5 94t74.5 172.5h43l-170 -739h-45q14 141 -2 213.5t-51 92t-107 19.5h-157l-138 -594 h281q186 0 311 104.5t219 319.5h45l-172 -524h-1179l10 41q111 18 153 40.5t58 74.5l258 1124l-2 -8q14 61 -15.5 86.5t-138.5 44.5l11 41h1169z" glyph-name="Egrave" horiz-adv-x="1433" unicode="È"/><glyph d="M1186 1806l-234 -211l-14 9l125 286q31 86 86 119t102 10q47 -18 31 -85t-96 -128zM1374 926h-45q10 141 -1 227t-50 126t-84 51t-127 11h-293l-125 -544h160q53 0 85 8t71 36.5t74.5 94t74.5 172.5h43l-170 -739h-45q14 141 -2 213.5t-51 92t-107 19.5h-157l-138 -594 h281q186 0 311 104.5t219 319.5h45l-172 -524h-1179l10 41q111 18 153 40.5t58 74.5l258 1124l-2 -8q14 61 -15.5 86.5t-138.5 44.5l11 41h1169z" glyph-name="Eacute" horiz-adv-x="1433" unicode="É"/><glyph d="M1014 1815l-258 -170l-13 12l166 227q45 61 78 87t74 26q37 0 58.5 -26.5t37.5 -90.5l66 -254l-17 -10zM1374 926h-45q10 141 -1 227t-50 126t-84 51t-127 11h-293l-125 -544h160q53 0 85 8t71 36.5t74.5 94t74.5 172.5h43l-170 -739h-45q14 141 -2 213.5t-51 92 t-107 19.5h-157l-138 -594h281q186 0 311 104.5t219 319.5h45l-172 -524h-1179l10 41q111 18 153 40.5t58 74.5l258 1124l-2 -8q14 61 -15.5 86.5t-138.5 44.5l11 41h1169z" glyph-name="Ecircumflex" horiz-adv-x="1433" unicode="Ê"/><glyph d="M770 1675q-45 0 -73.5 29t-28.5 74q0 63 53 115.5t117 52.5q45 0 74.5 -30t29.5 -73q0 -63 -53 -115.5t-119 -52.5zM1190 1675q-45 0 -74 29t-29 74q0 63 53.5 115.5t116.5 52.5q45 0 74 -30t29 -73q0 -63 -53.5 -115.5t-116.5 -52.5zM1374 926h-45q10 141 -1 227 t-50 126t-84 51t-127 11h-293l-125 -544h160q53 0 85 8t71 36.5t74.5 94t74.5 172.5h43l-170 -739h-45q14 141 -2 213.5t-51 92t-107 19.5h-157l-138 -594h281q186 0 311 104.5t219 319.5h45l-172 -524h-1179l10 41q111 18 153 40.5t58 74.5l258 1124l-2 -8 q14 61 -15.5 86.5t-138.5 44.5l11 41h1169z" glyph-name="Edieresis" horiz-adv-x="1433" unicode="Ë"/><glyph d="M709 1595l-142 211q-53 66 -41.5 129.5t72.5 83.5q59 20 101 -12.5t34 -124.5l-10 -278zM-8 0l10 41q123 20 161 41.5t52 83.5l258 1112q14 59 -16.5 82.5t-141.5 42.5l11 41h655l-8 -41q-129 -18 -165 -43t-48 -82l-256 -1112q-14 -61 13.5 -84t141.5 -41l-12 -41h-655z " glyph-name="Igrave" horiz-adv-x="866" unicode="Ì"/><glyph d="M674 1595l-15 9l125 286q31 86 86.5 119t102.5 10q47 -18 30.5 -84.5t-96.5 -128.5zM-8 0l10 41q123 20 161 41.5t52 83.5l258 1112q14 59 -16.5 82.5t-141.5 42.5l11 41h655l-8 -41q-129 -18 -165 -43t-48 -82l-256 -1112q-14 -61 13.5 -84t141.5 -41l-12 -41h-655z" glyph-name="Iacute" horiz-adv-x="866" unicode="Í"/><glyph d="M735 1815l-258 -170l-12 12l166 227q45 61 77.5 87t73.5 26q37 0 58.5 -26.5t38.5 -90.5l65 -254l-16 -10zM326 1444h655l-8 -41q-129 -18 -165 -43t-48 -82l-256 -1112q-14 -61 13.5 -84t141.5 -41l-12 -41h-655l10 41q123 20 161 41.5t52 83.5l258 1112 q14 59 -16.5 82.5t-141.5 42.5z" glyph-name="Icircumflex" horiz-adv-x="866" unicode="Î"/><glyph d="M492 1675q-45 0 -74 29t-29 74q0 63 53.5 115.5t116.5 52.5q45 0 75 -30t30 -73q0 -63 -53 -115.5t-119 -52.5zM911 1675q-45 0 -73.5 29t-28.5 74q0 63 53 115.5t117 52.5q45 0 73.5 -30t28.5 -73q0 -63 -53.5 -115.5t-116.5 -52.5zM-8 0l10 41q123 20 161 41.5t52 83.5 l258 1112q14 59 -16.5 82.5t-141.5 42.5l11 41h655l-8 -41q-129 -18 -165 -43t-48 -82l-256 -1112q-14 -61 13.5 -84t141.5 -41l-12 -41h-655z" glyph-name="Idieresis" horiz-adv-x="866" unicode="Ï"/><glyph d="M1022 1444q313 0 482 -128t169 -392q0 -410 -280.5 -667t-730.5 -257h-670l10 41q111 16 153 37.5t56 68.5l127 549h-152l25 97h147l115 489l-2 -4q14 59 -16.5 82.5t-139.5 42.5l11 41h696zM666 102q303 0 505.5 236.5t202.5 585.5q0 418 -424 417h-176l-127 -548h326 l-25 -97h-321l-138 -594h177z" glyph-name="Eth" horiz-adv-x="1695" unicode="Ð"/><glyph d="M999 1780q-49 0 -83.5 -27t-75.5 -78l-27 8q41 119 108.5 183.5t149.5 64.5q63 0 133 -50t117 -50q80 0 164 102l24 -8q-41 -119 -109.5 -182.5t-146.5 -63.5q-68 0 -138.5 50.5t-115.5 50.5zM1327 1444h535l-9 -41q-111 -23 -166 -71t-79 -148l-273 -1184h-248 l-536 1176l-211 -916q-25 -104 18 -149t158 -70l-10 -41h-535l11 41q106 25 163.5 68t81.5 151l234 1018q14 59 -15.5 82.5t-138.5 42.5l8 41h457l524 -1135l201 875q25 104 -21 150t-157 69z" glyph-name="Ntilde" horiz-adv-x="1714" unicode="Ñ"/><glyph d="M1112 1595l-141 211q-53 66 -42 129.5t72 83.5q59 20 101.5 -12.5t34.5 -124.5l-11 -278zM698 -29q-256 0 -411.5 147.5t-155.5 418.5q0 385 274.5 660.5t675.5 275.5q262 0 414 -146.5t152 -419.5q0 -250 -120 -463t-340.5 -343t-488.5 -130zM723 80q168 0 314.5 123 t231.5 321.5t85 413.5q0 426 -297 426q-254 0 -442.5 -261t-188.5 -597q0 -201 77 -313.5t220 -112.5z" glyph-name="Ograve" horiz-adv-x="1671" unicode="Ò"/><glyph d="M1075 1595l-14 9l125 286q31 86 86 119t102 10q47 -18 31 -84.5t-96 -128.5zM698 -29q-256 0 -411.5 147.5t-155.5 418.5q0 385 274.5 660.5t675.5 275.5q262 0 414 -146.5t152 -419.5q0 -250 -120 -463t-340.5 -343t-488.5 -130zM723 80q168 0 314.5 123t231.5 321.5 t85 413.5q0 426 -297 426q-254 0 -442.5 -261t-188.5 -597q0 -201 77 -313.5t220 -112.5z" glyph-name="Oacute" horiz-adv-x="1671" unicode="Ó"/><glyph d="M1139 1815l-258 -170l-13 12l166 227q45 61 78 87t74 26q37 0 58.5 -26.5t37.5 -90.5l66 -254l-17 -10zM1081 1473q262 0 414 -146.5t152 -419.5q0 -250 -120 -463t-340 -343t-489 -130q-256 0 -411.5 147.5t-155.5 418.5q0 385 274.5 660.5t675.5 275.5zM723 80 q168 0 314.5 123t231.5 321.5t85 413.5q0 426 -297 426q-254 0 -442.5 -261t-188.5 -597q0 -201 77 -313.5t220 -112.5z" glyph-name="Ocircumflex" horiz-adv-x="1671" unicode="Ô"/><glyph d="M817 1675l-26 8q41 119 108.5 183.5t149.5 64.5q66 0 135 -50t114 -50q80 0 164 102l25 -8q-41 -119 -109.5 -182.5t-146.5 -63.5q-68 0 -138.5 50.5t-115.5 50.5q-49 0 -84 -27t-76 -78zM698 -29q-256 0 -411.5 147.5t-155.5 418.5q0 385 274.5 660.5t675.5 275.5 q262 0 414 -146.5t152 -419.5q0 -250 -120 -463t-340.5 -343t-488.5 -130zM723 80q168 0 314.5 123t231.5 321.5t85 413.5q0 426 -297 426q-254 0 -442.5 -261t-188.5 -597q0 -201 77 -313.5t220 -112.5z" glyph-name="Otilde" horiz-adv-x="1671" unicode="Õ"/><glyph d="M895 1675q-45 0 -73.5 29t-28.5 74q0 63 53 115.5t117 52.5q45 0 74.5 -30t29.5 -73q0 -63 -54.5 -115.5t-117.5 -52.5zM1315 1675q-45 0 -74 29t-29 74q0 63 53.5 115.5t116.5 52.5q45 0 74 -30t29 -73q0 -63 -53.5 -115.5t-116.5 -52.5zM698 -29q-256 0 -411.5 147.5 t-155.5 418.5q0 385 274.5 660.5t675.5 275.5q262 0 414 -146.5t152 -419.5q0 -250 -120 -463t-340.5 -343t-488.5 -130zM723 80q168 0 314.5 123t231.5 321.5t85 413.5q0 426 -297 426q-254 0 -442.5 -261t-188.5 -597q0 -201 77 -313.5t220 -112.5z" glyph-name="Odieresis" horiz-adv-x="1671" unicode="Ö"/><glyph d="M952 999l-327 -278l198 -281l-84 -67l-194 278l-326 -278l-51 67l328 279l-197 280l82 66l197 -277l325 277z" glyph-name="multiply" horiz-adv-x="1009" unicode="×"/><glyph d="M1761 1192l-139 -88q25 -86 25 -197q0 -250 -120 -463t-340 -343t-489 -130q-346 0 -489 248l-143 -90l-52 94l150 94q-33 102 -33 220q0 385 274.5 660.5t675.5 275.5q365 0 502 -267l119 76zM426 506v-25l920 578q-39 305 -289 305q-254 0 -442.5 -261t-188.5 -597z M723 80q168 0 314.5 123t231.5 320.5t85 412.5l-916 -574q23 -135 96.5 -208.5t188.5 -73.5z" glyph-name="Oslash" horiz-adv-x="1671" unicode="Ø"/><glyph d="M1130 1595l-141 211q-53 66 -42 129.5t73 83.5q59 20 101 -12.5t34 -124.5l-10 -278zM735 -29q-287 0 -412.5 178.5t-46.5 524.5l140 604q12 57 -17.5 81.5t-126.5 43.5l11 41h635l-11 -41q-113 -20 -144.5 -43t-45.5 -82l-158 -688q-57 -260 -9 -385t210 -125 q168 0 273.5 123t164.5 387l158 688q14 61 -13.5 84.5t-130.5 40.5l11 41h643l-8 -41q-111 -20 -148 -42t-51 -83l-139 -604q-49 -211 -126 -353.5t-182.5 -216t-217.5 -103.5t-259 -30z" glyph-name="Ugrave" horiz-adv-x="1708" unicode="Ù"/><glyph d="M1096 1595l-15 9l125 286q31 86 86.5 119t102.5 10q47 -18 30.5 -84.5t-96.5 -128.5zM735 -29q-287 0 -412.5 178.5t-46.5 524.5l140 604q12 57 -17.5 81.5t-126.5 43.5l11 41h635l-11 -41q-113 -20 -144.5 -43t-45.5 -82l-158 -688q-57 -260 -9 -385t210 -125 q168 0 273.5 123t164.5 387l158 688q14 61 -13.5 84.5t-130.5 40.5l11 41h643l-8 -41q-111 -20 -148 -42t-51 -83l-139 -604q-49 -211 -126 -353.5t-182.5 -216t-217.5 -103.5t-259 -30z" glyph-name="Uacute" horiz-adv-x="1708" unicode="Ú"/><glyph d="M1157 1815l-258 -170l-12 12l166 227q45 61 77.5 87t73.5 26q37 0 58.5 -26.5t37.5 -90.5l66 -254l-16 -10zM1223 1444h643l-8 -41q-111 -20 -148 -42t-51 -83l-139 -604q-49 -211 -126 -353.5t-182.5 -216t-217 -103.5t-259.5 -30q-287 0 -412.5 178.5t-46.5 524.5 l140 604q12 57 -17.5 81.5t-126.5 43.5l11 41h635l-11 -41q-113 -20 -144.5 -43t-45.5 -82l-158 -688q-57 -260 -9 -385t210 -125q168 0 273.5 123t164.5 387l158 688q14 61 -13.5 84.5t-130.5 40.5z" glyph-name="Ucircumflex" horiz-adv-x="1708" unicode="Û"/><glyph d="M915 1675q-45 0 -73.5 29t-28.5 74q0 63 53.5 115.5t116.5 52.5q45 0 74.5 -30t29.5 -73q0 -63 -54.5 -115.5t-117.5 -52.5zM1335 1675q-45 0 -73.5 29t-28.5 74q0 63 53 115.5t117 52.5q45 0 73.5 -30t28.5 -73q0 -63 -53.5 -115.5t-116.5 -52.5zM735 -29 q-287 0 -412.5 178.5t-46.5 524.5l140 604q12 57 -17.5 81.5t-126.5 43.5l11 41h635l-11 -41q-113 -20 -144.5 -43t-45.5 -82l-158 -688q-57 -260 -9 -385t210 -125q168 0 273.5 123t164.5 387l158 688q14 61 -13.5 84.5t-130.5 40.5l11 41h643l-8 -41q-111 -20 -148 -42 t-51 -83l-139 -604q-49 -211 -126 -353.5t-182.5 -216t-217.5 -103.5t-259 -30z" glyph-name="Udieresis" horiz-adv-x="1708" unicode="Ü"/><glyph d="M1245 1806l-233 -211l-15 9l125 286q31 86 86.5 119t102.5 10q47 -18 30.5 -85t-96.5 -128zM1239 1444h487l-10 -41q-88 -20 -147.5 -61.5t-134.5 -127.5l-459 -526l-121 -522q-14 -59 14.5 -83t139.5 -42l-11 -41h-655l10 41q121 20 160 41.5t53 81.5l111 481l-232 561 q-37 90 -78.5 134t-117.5 63l8 41h709l-13 -41q-131 -20 -166.5 -68.5t2.5 -140.5l158 -414l328 394q59 70 76.5 113.5t-9 73.5t-112.5 42z" glyph-name="Yacute" horiz-adv-x="1538" unicode="Ý"/><glyph d="M965 1153q236 0 345 -78t109 -239q0 -229 -178 -371.5t-471 -142.5h-235l-31 -136q-14 -76 26.5 -101.5t192.5 -43.5l-10 -41h-721l10 41q119 20 159 44t54 87l256 1104q14 59 -16.5 83.5t-139.5 43.5l11 41h655l-10 -41q-121 -20 -161 -43t-54 -82l-29 -125h238z M692 426q201 0 322 108.5t121 276.5q0 123 -68 181.5t-209 58.5h-156l-143 -625h133z" glyph-name="Thorn" horiz-adv-x="1390" unicode="Þ"/><glyph d="M1253 1032q-362 -43 -362 -186q0 -31 16.5 -57.5t40 -46t80.5 -62.5q104 -74 157.5 -156t53.5 -198q0 -156 -120 -255.5t-306 -99.5q-137 0 -219 47.5t-82 126.5q0 57 30.5 96.5t78.5 39.5q49 0 88 -57.5t59 -145.5h18q98 0 164 50t66 130q0 61 -33 105.5t-104 95.5 q-115 90 -159 149.5t-44 149.5q0 113 88 195.5t256 113.5q100 383 -121 383q-119 0 -186.5 -73.5t-104.5 -237.5l-248 -1061q-59 -250 -172.5 -368t-306.5 -118q-121 0 -205 57.5t-84 149.5q0 39 20.5 63.5t59.5 24.5q47 0 94.5 -54t71.5 -148h10q84 0 133.5 54t79.5 185 l269 1155q106 471 590 471q86 0 148 -13t114.5 -48t78 -91.5t25.5 -148.5t-33 -217z" glyph-name="germandbls" horiz-adv-x="1290" unicode="ß"/><glyph d="M768 1128l-141 211q-53 66 -42 129.5t72 83.5q59 20 101.5 -12.5t34.5 -124.5l-11 -278zM938 203q-18 -86 11.5 -109.5t137.5 4.5l13 -41q-100 -82 -248 -82q-188 0 -178 199q-133 -203 -344 -203q-133 0 -203 92.5t-70 253.5q0 283 176.5 486t423.5 203q170 0 242 -142 l150 113h67zM432 98q90 0 181.5 126t138.5 317l43 176q-10 195 -119 194q-131 0 -238.5 -195.5t-107.5 -430.5q0 -187 102 -187z" glyph-name="agrave" horiz-adv-x="1177" unicode="à"/><glyph d="M967 1339l-234 -211l-14 9l125 286q31 86 86 119t102 10q47 -18 31 -85t-96 -128zM938 203q-18 -86 11.5 -109.5t137.5 4.5l13 -41q-100 -82 -248 -82q-188 0 -178 199q-133 -203 -344 -203q-133 0 -203 92.5t-70 253.5q0 283 176.5 486t423.5 203q170 0 242 -142 l150 113h67zM432 98q90 0 181.5 126t138.5 317l43 176q-10 195 -119 194q-131 0 -238.5 -195.5t-107.5 -430.5q0 -187 102 -187z" glyph-name="aacute" horiz-adv-x="1177" unicode="á"/><glyph d="M795 1348l-258 -170l-13 12l166 227q45 61 78 87t74 26q37 0 58.5 -26.5t37.5 -90.5l66 -254l-17 -10zM938 203q-18 -86 11.5 -109.5t137.5 4.5l13 -41q-100 -82 -248 -82q-188 0 -178 199q-133 -203 -344 -203q-133 0 -203 92.5t-70 253.5q0 283 176.5 486t423.5 203 q170 0 242 -142l150 113h67zM432 98q90 0 181.5 126t138.5 317l43 176q-10 195 -119 194q-131 0 -238.5 -195.5t-107.5 -430.5q0 -187 102 -187z" glyph-name="acircumflex" horiz-adv-x="1177" unicode="â"/><glyph d="M635 1313q-49 0 -84 -26.5t-76 -78.5l-26 9q41 119 108.5 183t149.5 64q63 0 132.5 -50t116.5 -50q80 0 164 102l25 -8q-41 -119 -109.5 -182.5t-146.5 -63.5q-68 0 -138.5 50.5t-115.5 50.5zM1116 977l-178 -774q-18 -86 11.5 -109.5t137.5 4.5l13 -41 q-100 -82 -248 -82q-188 0 -178 199q-133 -203 -344 -203q-133 0 -203 92.5t-70 253.5q0 283 176.5 486t423.5 203q170 0 242 -142l150 113h67zM432 98q90 0 181.5 126t138.5 317l43 176q-10 195 -119 194q-131 0 -238.5 -195.5t-107.5 -430.5q0 -187 102 -187z" glyph-name="atilde" horiz-adv-x="1177" unicode="ã"/><glyph d="M551 1208q-45 0 -73.5 29t-28.5 74q0 63 53 115.5t116 52.5q45 0 75 -30t30 -73q0 -63 -54.5 -115.5t-117.5 -52.5zM971 1208q-45 0 -74 29t-29 74q0 63 53.5 115.5t116.5 52.5q45 0 74 -30t29 -73q0 -63 -53.5 -115.5t-116.5 -52.5zM1116 977l-178 -774 q-18 -86 11.5 -109.5t137.5 4.5l13 -41q-100 -82 -248 -82q-188 0 -178 199q-133 -203 -344 -203q-133 0 -203 92.5t-70 253.5q0 283 176.5 486t423.5 203q170 0 242 -142l150 113h67zM432 98q90 0 181.5 126t138.5 317l43 176q-10 195 -119 194q-131 0 -238.5 -195.5 t-107.5 -430.5q0 -187 102 -187z" glyph-name="adieresis" horiz-adv-x="1177" unicode="ä"/><glyph d="M735 1090q-88 0 -140 52t-52 144q0 121 79.5 200t211.5 79q88 0 141 -51.5t53 -141.5q0 -123 -84 -202.5t-209 -79.5zM817 1477q-66 0 -116 -51.5t-50 -133.5q0 -55 28 -83.5t71 -28.5q70 0 120 50t50 132q0 55 -29 85t-74 30zM938 203q-18 -86 11.5 -109.5t137.5 4.5 l13 -41q-100 -82 -248 -82q-188 0 -178 199q-133 -203 -344 -203q-133 0 -203 92.5t-70 253.5q0 283 176.5 486t423.5 203q170 0 242 -142l150 113h67zM432 98q90 0 181.5 126t138.5 317l43 176q-10 195 -119 194q-131 0 -238.5 -195.5t-107.5 -430.5q0 -187 102 -187z" glyph-name="aring" horiz-adv-x="1177" unicode="å"/><glyph d="M1509 776q0 -123 -91 -211t-229 -127t-302 -37q-6 -45 -6 -92q0 -229 180 -229q182 0 321 139l37 -51q-197 -197 -458 -197q-279 0 -336 242q-147 -244 -420 -244q-98 0 -151.5 58.5t-53.5 144.5q0 160 162 265.5t483 146.5l21 84q53 233 -99 233q-72 0 -153 -31 q2 -133 -54.5 -200.5t-128.5 -67.5q-82 0 -81 86q0 123 149.5 220.5t362.5 97.5q168 0 231 -109q152 109 326 109q135 0 212.5 -56.5t77.5 -173.5zM1190 907q-92 0 -175 -132t-118 -306q178 23 278.5 123t100.5 215q0 100 -86 100zM344 123q68 0 147.5 76.5t114.5 203.5 l23 103q-182 -37 -272.5 -112t-90.5 -173t78 -98z" glyph-name="ae" horiz-adv-x="1538" unicode="æ"/><glyph d="M678 1006q137 0 219 -78t82 -183q0 -57 -29.5 -92t-83.5 -35q-154 0 -118 285q-23 8 -56 8q-143 0 -255.5 -185t-112.5 -417q0 -225 172 -225q170 0 301 131l41 -49q-145 -160 -361 -189l-43 -96q231 12 232 -139q0 -78 -68 -129t-174 -51q-113 0 -178.5 49t-85.5 121 l16 18q66 -82 184 -82q135 0 136 74q0 72 -174 76l2 18l63 135q-162 2 -249 93.5t-87 263.5q0 283 182.5 480.5t444.5 197.5z" glyph-name="ccedilla" horiz-adv-x="970" unicode="ç"/><glyph d="M692 1128l-141 211q-53 66 -42 129.5t73 83.5q59 20 101 -12.5t34 -124.5l-10 -278zM977 770q0 -182 -192.5 -279.5t-454.5 -89.5q-4 -49 -4 -71q0 -250 184 -250t321 158l43 -48q-164 -219 -450 -219q-178 0 -275.5 95.5t-97.5 275.5q0 270 184.5 467t440.5 197 q129 0 215 -58.5t86 -177.5zM651 907q-98 0 -189 -131t-124 -309q190 18 297.5 119.5t107.5 220.5q0 100 -92 100z" glyph-name="egrave" horiz-adv-x="985" unicode="è"/><glyph d="M891 1339l-234 -211l-14 9l125 286q31 86 86 119t102 10q47 -18 31 -85t-96 -128zM676 1006q129 0 215 -58.5t86 -177.5q0 -182 -192.5 -279.5t-454.5 -89.5q-4 -49 -4 -71q0 -250 184 -250t321 158l43 -48q-164 -219 -450 -219q-178 0 -275.5 95.5t-97.5 275.5 q0 270 184.5 467t440.5 197zM338 467q190 18 297.5 119.5t107.5 220.5q0 100 -92 100q-98 0 -189 -131t-124 -309z" glyph-name="eacute" horiz-adv-x="985" unicode="é"/><glyph d="M719 1348l-258 -170l-12 12l165 227q45 61 78 87t74 26q37 0 58.5 -26.5t37.5 -90.5l66 -254l-17 -10zM977 770q0 -182 -192.5 -279.5t-454.5 -89.5q-4 -49 -4 -71q0 -250 184 -250t321 158l43 -48q-164 -219 -450 -219q-178 0 -275.5 95.5t-97.5 275.5q0 270 184.5 467 t440.5 197q129 0 215 -58.5t86 -177.5zM651 907q-98 0 -189 -131t-124 -309q190 18 297.5 119.5t107.5 220.5q0 100 -92 100z" glyph-name="ecircumflex" horiz-adv-x="985" unicode="ê"/><glyph d="M477 1208q-45 0 -73.5 29t-28.5 74q0 63 53 115.5t117 52.5q45 0 74.5 -30t29.5 -73q0 -63 -54.5 -115.5t-117.5 -52.5zM965 1479q45 0 73.5 -30t28.5 -73q0 -63 -53 -115.5t-117 -52.5q-45 0 -73.5 29t-28.5 74q0 63 53.5 115.5t116.5 52.5zM676 1006q129 0 215 -58.5 t86 -177.5q0 -182 -192.5 -279.5t-454.5 -89.5q-4 -49 -4 -71q0 -250 184 -250t321 158l43 -48q-164 -219 -450 -219q-178 0 -275.5 95.5t-97.5 275.5q0 270 184.5 467t440.5 197zM338 467q190 18 297.5 119.5t107.5 220.5q0 100 -92 100q-98 0 -189 -131t-124 -309z" glyph-name="edieresis" horiz-adv-x="985" unicode="ë"/><glyph d="M500 1128l-142 211q-53 66 -41.5 129.5t72.5 83.5q59 20 101 -12.5t34 -124.5l-10 -278zM283 -29q-225 0 -156 324l106 459q12 53 -2 71.5t-96 36.5l10 41l410 92l-180 -786q-18 -88 13.5 -114.5t146.5 3.5l12 -39q-102 -88 -264 -88z" glyph-name="igrave" horiz-adv-x="636" unicode="ì"/><glyph d="M465 1128l-14 9l124 286q31 86 86.5 119t102.5 10q47 -18 30.5 -84.5t-96.5 -128.5zM283 -29q-225 0 -156 324l106 459q12 53 -2 71.5t-96 36.5l10 41l410 92l-180 -786q-18 -88 13.5 -114.5t146.5 3.5l12 -39q-102 -88 -264 -88z" glyph-name="iacute" horiz-adv-x="636" unicode="í"/><glyph d="M670 1413l65 -254l-16 -10l-193 199l-258 -170l-12 12l166 227q45 61 77.5 87t73.5 26q37 0 59 -27t38 -90zM555 995l-180 -786q-18 -88 13.5 -114.5t146.5 3.5l12 -39q-102 -88 -264 -88q-225 0 -156 324l106 459q12 53 -2 71.5t-96 36.5l10 41z" glyph-name="icircumflex" horiz-adv-x="636" unicode="î"/><glyph d="M285 1208q-45 0 -74 29t-29 74q0 63 53.5 115.5t116.5 52.5q45 0 75 -30t30 -73q0 -63 -54.5 -115.5t-117.5 -52.5zM705 1208q-45 0 -74 29t-29 74q0 63 53.5 115.5t116.5 52.5q45 0 73.5 -30t28.5 -73q0 -63 -53 -115.5t-116 -52.5zM283 -29q-225 0 -156 324l106 459 q12 53 -2 71.5t-96 36.5l10 41l410 92l-180 -786q-18 -88 13.5 -114.5t146.5 3.5l12 -39q-102 -88 -264 -88z" glyph-name="idieresis" horiz-adv-x="636" unicode="ï"/><glyph d="M1376 1280l-190 -76q39 -104 39 -250q0 -266 -99.5 -491t-274.5 -358.5t-386 -133.5q-190 0 -297 87t-107 255q0 233 165 399.5t399 166.5q211 0 284 -146q20 133 21 244q0 74 -8 125l-324 -127l-12 86l317 123q-57 176 -213 176q-158 0 -293 -113l-35 60q61 66 173 116 t251 50q252 0 365 -193l213 84zM492 80q111 0 212 132t162 337q-8 102 -60 157.5t-132 55.5q-133 0 -231.5 -139.5t-98.5 -327.5q0 -100 39 -157.5t109 -57.5z" glyph-name="eth" horiz-adv-x="1249" unicode="ð"/><glyph d="M657 1313q-49 0 -83.5 -26.5t-75.5 -78.5l-27 9q41 119 108.5 183t149.5 64q66 0 135.5 -50t114.5 -50q80 0 164 102l24 -8q-41 -119 -109.5 -182.5t-146.5 -63.5q-68 0 -138.5 50.5t-115.5 50.5zM1159 92l12 -39q-104 -82 -266 -82q-233 0 -149 316l94 346 q61 223 -33 223q-117 0 -246 -194.5t-194 -479.5l-43 -182h-264l174 760q12 53 -5.5 73.5t-101.5 40.5l10 41l418 82l-102 -379q94 193 220 290.5t265 97.5q109 0 165 -90.5t-1 -303.5l-106 -405q-23 -82 9.5 -113t143.5 -2z" glyph-name="ntilde" horiz-adv-x="1263" unicode="ñ"/><glyph d="M758 1128l-142 211q-53 66 -41.5 129.5t72.5 83.5q59 20 101.5 -12.5t33.5 -124.5l-10 -278zM455 -29q-184 0 -293 94.5t-109 278.5q0 274 182.5 468t454.5 194q186 0 295 -96.5t109 -282.5q0 -276 -180 -466t-459 -190zM469 72q137 0 244.5 189.5t107.5 424.5 q0 219 -147 219q-88 0 -170 -91t-131 -232.5t-49 -288.5q0 -221 145 -221z" glyph-name="ograve" horiz-adv-x="1148" unicode="ò"/><glyph d="M723 1128l-14 9l125 286q31 86 86 119t102 10q47 -18 30.5 -84.5t-96.5 -128.5zM455 -29q-184 0 -293 94.5t-109 278.5q0 274 182.5 468t454.5 194q186 0 295 -96.5t109 -282.5q0 -276 -180 -466t-459 -190zM469 72q137 0 244.5 189.5t107.5 424.5q0 219 -147 219 q-88 0 -170 -91t-131 -232.5t-49 -288.5q0 -221 145 -221z" glyph-name="oacute" horiz-adv-x="1148" unicode="ó"/><glyph d="M784 1348l-258 -170l-12 12l166 227q45 61 78 87t73 26q37 0 58.5 -26.5t38.5 -90.5l65 -254l-16 -10zM690 1006q186 0 295 -96.5t109 -282.5q0 -276 -180.5 -466t-458.5 -190q-184 0 -293 94.5t-109 278.5q0 274 182.5 468t454.5 194zM469 72q137 0 244.5 189.5 t107.5 424.5q0 219 -147 219q-88 0 -170 -91t-131 -232.5t-49 -288.5q0 -221 145 -221z" glyph-name="ocircumflex" horiz-adv-x="1148" unicode="ô"/><glyph d="M465 1208l-27 9q41 119 108.5 183t149.5 64q66 0 135.5 -50t114.5 -50q80 0 164 102l25 -8q-41 -119 -110 -182.5t-146 -63.5q-68 0 -138.5 50.5t-115.5 50.5q-49 0 -84 -27t-76 -78zM455 -29q-184 0 -293 94.5t-109 278.5q0 274 182.5 468t454.5 194q186 0 295 -96.5 t109 -282.5q0 -276 -180 -466t-459 -190zM469 72q137 0 244.5 189.5t107.5 424.5q0 219 -147 219q-88 0 -170 -91t-131 -232.5t-49 -288.5q0 -221 145 -221z" glyph-name="otilde" horiz-adv-x="1148" unicode="õ"/><glyph d="M543 1208q-45 0 -74 29t-29 74q0 63 53.5 115.5t116.5 52.5q45 0 75 -30t30 -73q0 -63 -54.5 -115.5t-117.5 -52.5zM963 1208q-45 0 -74 29t-29 74q0 63 53.5 115.5t116.5 52.5q45 0 74 -30t29 -73q0 -63 -53.5 -115.5t-116.5 -52.5zM455 -29q-184 0 -293 94.5 t-109 278.5q0 274 182.5 468t454.5 194q186 0 295 -96.5t109 -282.5q0 -276 -180 -466t-459 -190zM469 72q137 0 244.5 189.5t107.5 424.5q0 219 -147 219q-88 0 -170 -91t-131 -232.5t-49 -288.5q0 -221 145 -221z" glyph-name="odieresis" horiz-adv-x="1148" unicode="ö"/><glyph d="M653 893q-39 0 -64.5 26.5t-25.5 65.5q0 55 46 100t102 45q39 0 65.5 -25.5t26.5 -62.5q0 -55 -47.5 -102t-102.5 -47zM188 666l23 96h833l-24 -96h-832zM516 297q-41 0 -65.5 25.5t-24.5 64.5q0 55 45 100t102 45q41 0 68 -24.5t27 -63.5q0 -55 -48.5 -101t-103.5 -46z " glyph-name="divide" horiz-adv-x="1126" unicode="÷"/><glyph d="M1268 750l-176 -84q2 -12 2 -39q0 -276 -180.5 -466t-458.5 -190q-285 0 -371 205l-150 -72l-51 93l174 84q-4 41 -4 63q0 274 182.5 468t454.5 194q145 0 244.5 -58.5t138.5 -175.5l144 70zM674 905q-115 0 -214.5 -147.5t-127.5 -343.5l489 235v37q0 219 -147 219z M469 72q113 0 209 133t129 321l-483 -233q0 -221 145 -221z" glyph-name="oslash" horiz-adv-x="1159" unicode="ø"/><glyph d="M797 1128l-142 211q-53 66 -41.5 129.5t72.5 83.5q59 20 101 -12.5t34 -124.5l-10 -278zM997 213q-20 -86 12.5 -113.5t147.5 2.5l12 -41q-104 -86 -258 -86q-82 0 -126 41t-47 107.5t20 152.5l2 7q-160 -311 -430 -312q-55 0 -98.5 16.5t-79 58.5t-41 112.5t15.5 177.5 l115 485q10 53 -14.5 75t-102.5 40l10 41h410l-146 -631q-53 -229 62 -229q102 0 209.5 154.5t175.5 447.5l59 258h266z" glyph-name="ugrave" horiz-adv-x="1247" unicode="ù"/><glyph d="M995 1339l-233 -211l-14 9l124 286q31 86 86.5 119t102.5 10q47 -18 30.5 -85t-96.5 -128zM997 213q-20 -86 12.5 -113.5t147.5 2.5l12 -41q-104 -86 -258 -86q-82 0 -126 41t-47 107.5t20 152.5l2 7q-160 -311 -430 -312q-55 0 -98.5 16.5t-79 58.5t-41 112.5 t15.5 177.5l115 485q10 53 -14.5 75t-102.5 40l10 41h410l-146 -631q-53 -229 62 -229q102 0 209.5 154.5t175.5 447.5l59 258h266z" glyph-name="uacute" horiz-adv-x="1247" unicode="ú"/><glyph d="M823 1348l-258 -170l-12 12l166 227q45 61 77.5 87t73.5 26q37 0 58.5 -26.5t38.5 -90.5l65 -254l-16 -10zM997 213q-20 -86 12.5 -113.5t147.5 2.5l12 -41q-104 -86 -258 -86q-82 0 -126 41t-47 107.5t20 152.5l2 7q-160 -311 -430 -312q-55 0 -98.5 16.5t-79 58.5 t-41 112.5t15.5 177.5l115 485q10 53 -14.5 75t-102.5 40l10 41h410l-146 -631q-53 -229 62 -229q102 0 209.5 154.5t175.5 447.5l59 258h266z" glyph-name="ucircumflex" horiz-adv-x="1247" unicode="û"/><glyph d="M580 1208q-45 0 -74 29t-29 74q0 63 53.5 115.5t116.5 52.5q45 0 75 -30t30 -73q0 -63 -54.5 -115.5t-117.5 -52.5zM999 1208q-45 0 -73.5 29t-28.5 74q0 63 53.5 115.5t116.5 52.5q45 0 73.5 -30t28.5 -73q0 -63 -53.5 -115.5t-116.5 -52.5zM997 213 q-20 -86 12.5 -113.5t147.5 2.5l12 -41q-104 -86 -258 -86q-82 0 -126 41t-47 107.5t20 152.5l2 7q-160 -311 -430 -312q-55 0 -98.5 16.5t-79 58.5t-41 112.5t15.5 177.5l115 485q10 53 -14.5 75t-102.5 40l10 41h410l-146 -631q-53 -229 62 -229q102 0 209.5 154.5 t175.5 447.5l59 258h266z" glyph-name="udieresis" horiz-adv-x="1247" unicode="ü"/><glyph d="M928 1339l-234 -211l-14 9l125 286q31 86 86 119t102 10q47 -18 31 -85t-96 -128zM907 1006q160 0 160 -181q0 -150 -99.5 -362.5t-251 -405t-351 -329t-379.5 -136.5q-162 0 -162 132q0 55 31.5 98t87 43t106.5 -44t86 -114q104 45 223 141q-57 471 -168 930 q-18 80 -39.5 110t-87.5 48l13 41h368q106 -532 140 -909q229 268 311 546q-125 145 -125 254q0 66 37 102t100 36z" glyph-name="yacute" horiz-adv-x="1130" unicode="ý"/><glyph d="M838 1006q135 0 222 -90.5t87 -256.5q0 -279 -170 -483.5t-402 -204.5q-166 0 -237 115l-107 -465h-264l387 1679q12 53 -6 73t-104 36l12 41l416 82l-156 -678q136 152 322 152zM532 68q125 0 233.5 202.5t108.5 429.5q0 98 -34.5 152.5t-100.5 54.5q-147 0 -256 -194 l-110 -475q20 -170 159 -170z" glyph-name="thorn" horiz-adv-x="1191" unicode="þ"/><glyph d="M512 1208q-45 0 -73.5 29t-28.5 74q0 63 53 115.5t117 52.5q45 0 74.5 -30t29.5 -73q0 -63 -53 -115.5t-119 -52.5zM932 1208q-45 0 -74 29t-29 74q0 63 53.5 115.5t116.5 52.5q45 0 74 -30t29 -73q0 -63 -53.5 -115.5t-116.5 -52.5zM907 1006q160 0 160 -181 q0 -150 -99.5 -362.5t-251 -405t-351 -329t-379.5 -136.5q-162 0 -162 132q0 55 31.5 98t87 43t106.5 -44t86 -114q104 45 223 141q-57 471 -168 930q-18 80 -39.5 110t-87.5 48l13 41h368q106 -532 140 -909q229 268 311 546q-125 145 -125 254q0 66 37 102t100 36z" glyph-name="ydieresis" horiz-adv-x="1130" unicode="ÿ"/><glyph d="M1382 1886l-22 -96h-580l23 96h579zM1311 256q14 -102 37.5 -146t97.5 -69l-10 -41h-645l8 41q156 25 195.5 74t25.5 166l-31 221h-590l-129 -219q-66 -94 -42 -154.5t173 -87.5l-10 -41h-514l8 41q84 20 138.5 73.5t113.5 153.5l697 1176h311zM459 602h516l-98 709z" glyph-name="Amacron" horiz-adv-x="1538" unicode="Ā"/><glyph d="M1106 1419l-23 -96h-579l22 96h580zM938 203q-18 -86 11.5 -109.5t137.5 4.5l13 -41q-100 -82 -248 -82q-188 0 -178 199q-133 -203 -344 -203q-133 0 -203 92.5t-70 253.5q0 283 176.5 486t423.5 203q170 0 242 -142l150 113h67zM432 98q90 0 181.5 126t138.5 317 l43 176q-10 195 -119 194q-131 0 -238.5 -195.5t-107.5 -430.5q0 -187 102 -187z" glyph-name="amacron" horiz-adv-x="1177" unicode="ā"/><glyph d="M1028 1620q-106 0 -146 85t-3 230h30q-12 -70 27 -122t119 -52q86 0 153.5 51.5t87.5 122.5h31q-31 -150 -110.5 -232.5t-188.5 -82.5zM1311 256q14 -102 37.5 -146t97.5 -69l-10 -41h-645l8 41q156 25 195.5 74t25.5 166l-31 221h-590l-129 -219q-66 -94 -42 -154.5 t173 -87.5l-10 -41h-514l8 41q84 20 138.5 73.5t113.5 153.5l697 1176h311zM459 602h516l-98 709z" glyph-name="Abreve" horiz-adv-x="1538" unicode="Ă"/><glyph d="M752 1153q-106 0 -146.5 85t-3.5 230h31q-12 -70 26.5 -122t118.5 -52q86 0 153.5 51.5t88.5 122.5h31q-31 -150 -110.5 -232.5t-188.5 -82.5zM938 203q-18 -86 11.5 -109.5t137.5 4.5l13 -41q-100 -82 -248 -82q-188 0 -178 199q-133 -203 -344 -203q-133 0 -203 92.5 t-70 253.5q0 283 176.5 486t423.5 203q170 0 242 -142l150 113h67zM432 98q90 0 181.5 126t138.5 317l43 176q-10 195 -119 194q-131 0 -238.5 -195.5t-107.5 -430.5q0 -187 102 -187z" glyph-name="abreve" horiz-adv-x="1177" unicode="ă"/><glyph d="M1436 0q-158 -49 -238 -132t-80 -147q0 -61 60 -61q98 0 176 66l8 -13q-47 -70 -126 -114.5t-165 -44.5q-133 0 -133 124q0 102 110.5 191.5t278.5 130.5h-536l8 41q156 25 195.5 74t25.5 166l-31 221h-590l-129 -219q-66 -94 -42 -154.5t173 -87.5l-10 -41h-514l8 41 q84 20 138.5 73.5t113.5 153.5l697 1176h311l166 -1188q14 -102 37.5 -146t97.5 -69zM459 602h516l-98 709z" glyph-name="Aogonek" horiz-adv-x="1538" unicode="Ą"/><glyph d="M940 -14q-143 -49 -217 -129t-74 -141.5t60 -61.5q98 0 176 65l8 -12q-47 -70 -126 -115t-165 -45q-133 0 -133 125q0 94 93 177t243 131q-137 23 -131 194q-133 -203 -344 -203q-133 0 -203 92.5t-70 253.5q0 283 176.5 486t423.5 203q170 0 242 -142l150 113h67 l-178 -774q-18 -86 11.5 -109.5t137.5 4.5l13 -41q-64 -51 -160 -71zM432 98q90 0 181.5 126t138.5 317l43 176q-10 195 -119 194q-131 0 -238.5 -195.5t-107.5 -430.5q0 -187 102 -187z" glyph-name="aogonek" horiz-adv-x="1177" unicode="ą"/><glyph d="M1055 1595l-15 9l125 286q31 86 86.5 119t102.5 10q47 -18 30.5 -84.5t-96.5 -128.5zM651 -29q-236 0 -381 146.5t-145 396.5t123 472t329.5 354.5t440.5 132.5q141 0 303 -91q68 -39 105.5 -26.5t91.5 94.5h36l-145 -633h-53q39 281 -49 416t-265 135q-244 0 -431 -250 t-187 -592q0 -199 82 -312.5t237 -113.5q188 0 344 106.5t244 264.5l45 -22q-84 -188 -281.5 -333t-443.5 -145z" glyph-name="Cacute" horiz-adv-x="1462" unicode="Ć"/><glyph d="M868 1339l-233 -211l-14 9l124 286q31 86 86.5 119t102.5 10q47 -18 30.5 -85t-96.5 -128zM678 1006q137 0 219 -78t82 -183q0 -57 -29.5 -92t-83.5 -35q-154 0 -118 285q-23 8 -56 8q-143 0 -255.5 -185t-112.5 -417q0 -225 172 -225q170 0 301 131l41 -49 q-176 -195 -447 -195q-164 0 -252 92.5t-88 264.5q0 283 182.5 480.5t444.5 197.5z" glyph-name="cacute" horiz-adv-x="970" unicode="ć"/><glyph d="M1079 1653q-53 0 -87 33.5t-34 85.5q0 74 61.5 133t137.5 59q53 0 87 -33t34 -84q0 -72 -61.5 -133t-137.5 -61zM651 -29q-236 0 -381 146.5t-145 396.5t123 472t329.5 354.5t440.5 132.5q141 0 303 -91q68 -39 105.5 -26.5t91.5 94.5h36l-145 -633h-53q39 281 -49 416 t-265 135q-244 0 -431 -250t-187 -592q0 -199 82 -312.5t237 -113.5q188 0 344 106.5t244 264.5l45 -22q-84 -188 -281.5 -333t-443.5 -145z" glyph-name="Cdotaccent" horiz-adv-x="1462" unicode="Ċ"/><glyph d="M659 1186q-53 0 -86.5 33.5t-33.5 85.5q0 74 61.5 133t136.5 59q53 0 87 -32.5t34 -84.5q0 -72 -61.5 -133t-137.5 -61zM678 1006q137 0 219 -78t82 -183q0 -57 -29.5 -92t-83.5 -35q-154 0 -118 285q-23 8 -56 8q-143 0 -255.5 -185t-112.5 -417q0 -225 172 -225 q170 0 301 131l41 -49q-176 -195 -447 -195q-164 0 -252 92.5t-88 264.5q0 283 182.5 480.5t444.5 197.5z" glyph-name="cdotaccent" horiz-adv-x="970" unicode="ċ"/><glyph d="M1073 1616q-39 0 -61.5 26.5t-38.5 92.5l-64 250l19 12l176 -211l295 211l10 -12l-180 -248q-82 -121 -156 -121zM1409 817h-53q39 281 -49 416t-265 135q-244 0 -431 -250t-187 -592q0 -199 82 -312.5t237 -113.5q188 0 344 106.5t244 264.5l45 -22 q-84 -188 -281.5 -333t-443.5 -145q-236 0 -381 146.5t-145 396.5t123 472t329.5 354.5t440.5 132.5q141 0 303 -91q68 -39 105.5 -26.5t91.5 94.5h36z" glyph-name="Ccaron" horiz-adv-x="1462" unicode="Č"/><glyph d="M653 1149q-39 0 -61.5 26.5t-38.5 92.5l-64 250l19 12l176 -211l295 211l10 -12l-180 -248q-82 -121 -156 -121zM678 1006q137 0 219 -78t82 -183q0 -57 -29.5 -92t-83.5 -35q-154 0 -118 285q-23 8 -56 8q-143 0 -255.5 -185t-112.5 -417q0 -225 172 -225q170 0 301 131 l41 -49q-176 -195 -447 -195q-164 0 -252 92.5t-88 264.5q0 283 182.5 480.5t444.5 197.5z" glyph-name="ccaron" horiz-adv-x="970" unicode="č"/><glyph d="M1102 1616q-39 0 -61.5 26.5t-39.5 92.5l-63 250l18 12l177 -211l294 211l11 -12l-181 -248q-81 -121 -155 -121zM1022 1444q313 0 482 -128t169 -392q0 -410 -280.5 -667t-730.5 -257h-670l10 41q111 16 153 37.5t56 68.5l262 1135l-2 -4q14 59 -16.5 82.5t-139.5 42.5 l11 41h696zM666 102q303 0 505.5 236.5t202.5 585.5q0 418 -424 417h-176l-285 -1239h177z" glyph-name="Dcaron" horiz-adv-x="1695" unicode="Ď"/><glyph d="M1509 1550q45 0 58.5 -32.5t-3 -85t-55.5 -111.5l-198 -336l-19 2l72 373q14 92 53 141t92 49zM1241 1534l-307 -1329q-18 -84 11.5 -109.5t135.5 2.5l13 -41q-100 -82 -248 -82q-195 0 -168 218q-133 -221 -363 -222q-127 0 -196.5 92.5t-69.5 253.5q0 285 177 487 t431 202q113 0 181 -68l82 354q14 63 -7.5 83t-128.5 36l9 41zM416 98q96 0 189 124t140 315l43 184q-10 190 -112 190q-135 0 -243.5 -194.5t-108.5 -431.5q0 -187 92 -187z" glyph-name="dcaron" horiz-adv-x="1167" unicode="ď"/><glyph d="M1022 1444q313 0 482 -128t169 -392q0 -410 -280.5 -667t-730.5 -257h-670l10 41q111 16 153 37.5t56 68.5l127 549h-152l25 97h147l115 489l-2 -4q14 59 -16.5 82.5t-139.5 42.5l11 41h696zM666 102q303 0 505.5 236.5t202.5 585.5q0 418 -424 417h-176l-127 -548h326 l-25 -97h-321l-138 -594h177z" glyph-name="Dcroat" horiz-adv-x="1695" unicode="Đ"/><glyph d="M1153 1153l-219 -948q-18 -84 11.5 -109.5t135.5 2.5l13 -41q-100 -82 -248 -82q-195 0 -168 218q-133 -221 -363 -222q-127 0 -196.5 92.5t-69.5 253.5q0 285 177 487t431 202q113 0 181 -68l49 215h-336l22 96h336l11 43q14 63 -7.5 83t-128.5 36l9 41l448 82l-65 -285 h161l-24 -96h-160zM416 98q96 0 189 124t140 315l43 184q-10 190 -112 190q-135 0 -243.5 -194.5t-108.5 -431.5q0 -187 92 -187z" glyph-name="dcroat" horiz-adv-x="1310" unicode="đ"/><glyph d="M1325 1886l-22 -96h-580l22 96h580zM1374 926h-45q10 141 -1 227t-50 126t-84 51t-127 11h-293l-125 -544h160q53 0 85 8t71 36.5t74.5 94t74.5 172.5h43l-170 -739h-45q14 141 -2 213.5t-51 92t-107 19.5h-157l-138 -594h281q186 0 311 104.5t219 319.5h45l-172 -524 h-1179l10 41q111 18 153 40.5t58 74.5l258 1124l-2 -8q14 61 -15.5 86.5t-138.5 44.5l11 41h1169z" glyph-name="Emacron" horiz-adv-x="1433" unicode="Ē"/><glyph d="M451 1419h579l-22 -96h-580zM676 1006q129 0 215 -58.5t86 -177.5q0 -182 -192.5 -279.5t-454.5 -89.5q-4 -49 -4 -71q0 -250 184 -250t321 158l43 -48q-164 -219 -450 -219q-178 0 -275.5 95.5t-97.5 275.5q0 270 184.5 467t440.5 197zM338 467q190 18 297.5 119.5 t107.5 220.5q0 100 -92 100q-98 0 -189 -131t-124 -309z" glyph-name="emacron" horiz-adv-x="985" unicode="ē"/><glyph d="M977 1653q-53 0 -87 33.5t-34 85.5q0 74 61.5 133t137.5 59q53 0 87 -33t34 -84q0 -72 -61.5 -133t-137.5 -61zM1374 926h-45q10 141 -1 227t-50 126t-84 51t-127 11h-293l-125 -544h160q53 0 85 8t71 36.5t74.5 94t74.5 172.5h43l-170 -739h-45q14 141 -2 213.5t-51 92 t-107 19.5h-157l-138 -594h281q186 0 311 104.5t219 319.5h45l-172 -524h-1179l10 41q111 18 153 40.5t58 74.5l258 1124l-2 -8q14 61 -15.5 86.5t-138.5 44.5l11 41h1169z" glyph-name="Edotaccent" horiz-adv-x="1433" unicode="Ė"/><glyph d="M682 1186q-53 0 -87 33.5t-34 85.5q0 74 61.5 133t137.5 59q53 0 87 -32.5t34 -84.5q0 -72 -61.5 -133t-137.5 -61zM977 770q0 -182 -192.5 -279.5t-454.5 -89.5q-4 -49 -4 -71q0 -250 184 -250t321 158l43 -48q-164 -219 -450 -219q-178 0 -275.5 95.5t-97.5 275.5 q0 270 184.5 467t440.5 197q129 0 215 -58.5t86 -177.5zM651 907q-98 0 -189 -131t-124 -309q190 18 297.5 119.5t107.5 220.5q0 100 -92 100z" glyph-name="edotaccent" horiz-adv-x="985" unicode="ė"/><glyph d="M1374 926h-45q10 141 -1 227t-50 126t-84 51t-127 11h-293l-125 -544h160q53 0 85 8t71 36.5t74.5 94t74.5 172.5h43l-170 -739h-45q14 141 -2 213.5t-51 92t-107 19.5h-157l-138 -594h281q186 0 311 104.5t219 319.5h45l-172 -524h-28q-143 -49 -215 -129t-72 -139 q0 -61 59 -62q98 0 177 66l8 -12q-47 -70 -126 -115t-165 -45q-133 0 -133 125q0 94 98 180t252 131h-1034l10 41q111 18 153 40.5t58 74.5l258 1124l-2 -8q14 61 -15.5 86.5t-138.5 44.5l11 41h1169z" glyph-name="Eogonek" horiz-adv-x="1433" unicode="Ę"/><glyph d="M977 770q0 -182 -192.5 -279.5t-454.5 -89.5q-4 -49 -4 -71q0 -250 184 -250t321 158l43 -48q-109 -150 -284 -196q-147 -49 -222 -130t-75 -142.5t59 -61.5q98 0 176 66l9 -13q-47 -70 -126 -114.5t-165 -44.5q-133 0 -133 124q0 86 81.5 165t213.5 128 q-170 4 -263.5 99.5t-93.5 271.5q0 270 184.5 467t440.5 197q129 0 215 -58.5t86 -177.5zM651 907q-98 0 -189 -131t-124 -309q190 18 297.5 119.5t107.5 220.5q0 100 -92 100z" glyph-name="eogonek" horiz-adv-x="985" unicode="ę"/><glyph d="M971 1616q-39 0 -61.5 26.5t-39.5 92.5l-63 250l18 12l176 -211l295 211l11 -12l-181 -248q-81 -121 -155 -121zM1374 926h-45q10 141 -1 227t-50 126t-84 51t-127 11h-293l-125 -544h160q53 0 85 8t71 36.5t74.5 94t74.5 172.5h43l-170 -739h-45q14 141 -2 213.5t-51 92 t-107 19.5h-157l-138 -594h281q186 0 311 104.5t219 319.5h45l-172 -524h-1179l10 41q111 18 153 40.5t58 74.5l258 1124l-2 -8q14 61 -15.5 86.5t-138.5 44.5l11 41h1169z" glyph-name="Ecaron" horiz-adv-x="1433" unicode="Ě"/><glyph d="M676 1149q-39 0 -61.5 26.5t-39.5 92.5l-63 250l18 12l177 -211l294 211l11 -12l-181 -248q-81 -121 -155 -121zM676 1006q129 0 215 -58.5t86 -177.5q0 -182 -192.5 -279.5t-454.5 -89.5q-4 -49 -4 -71q0 -250 184 -250t321 158l43 -48q-164 -219 -450 -219 q-178 0 -275.5 95.5t-97.5 275.5q0 270 184.5 467t440.5 197zM338 467q190 18 297.5 119.5t107.5 220.5q0 100 -92 100q-98 0 -189 -131t-124 -309z" glyph-name="ecaron" horiz-adv-x="985" unicode="ě"/><glyph d="M1081 1620q-106 0 -146 85t-3 230h31q-12 -70 26.5 -122t118.5 -52q86 0 153.5 51.5t88.5 122.5h30q-31 -150 -110.5 -232.5t-188.5 -82.5zM952 729h656l-11 -41q-100 -18 -136 -39.5t-48 -81.5l-133 -567h-61q-10 66 -25.5 93.5t-48.5 27.5q-35 0 -113 -38t-190.5 -75 t-231.5 -37q-225 0 -355 138.5t-130 384.5q0 397 264 688t615 291q68 0 134 -14.5t95 -26t100 -41.5q66 -29 103 -18t80 77h40l-129 -563h-53q18 231 -76 355t-255.5 124t-306 -122t-227.5 -316.5t-83 -401.5q0 -199 77 -312.5t222 -113.5q170 0 328 109l84 356 q14 57 -27 81t-168 42z" glyph-name="Gbreve" horiz-adv-x="1605" unicode="Ğ"/><glyph d="M662 1153q-106 0 -146.5 85t-3.5 230h31q-12 -70 26.5 -122t118.5 -52q86 0 153.5 51.5t88.5 122.5h31q-31 -150 -110.5 -232.5t-188.5 -82.5zM1032 1169q51 4 80 -18.5t29 -60.5q0 -59 -37 -100.5t-88 -41.5q-76 0 -125 90q-49 -27 -96 -71q133 -68 133 -236 t-140.5 -291t-338.5 -123q-201 0 -201 -63q0 -27 41 -41t180 -41q209 -39 296 -92t87 -164q0 -154 -152.5 -239t-423.5 -85q-434 0 -434 183q0 84 97.5 143t279.5 70q-172 55 -172 182q0 143 221 184q-143 70 -143 242q0 166 143.5 288t345.5 122q55 0 111 -13 q155 166 307 176zM467 414q92 0 162.5 109.5t70.5 246.5q0 141 -112 141q-90 0 -162 -109.5t-72 -240.5q0 -147 113 -147zM629 -166q0 49 -50.5 70.5t-193.5 44.5l-37 6q-283 -35 -282 -152q0 -115 249 -114q141 0 227.5 38.5t86.5 106.5z" glyph-name="gbreve" horiz-adv-x="1011" unicode="ğ"/><glyph d="M1087 1653q-53 0 -86.5 33.5t-33.5 85.5q0 74 61.5 133t136.5 59q53 0 87 -33t34 -84q0 -72 -61.5 -133t-137.5 -61zM952 729h656l-11 -41q-100 -18 -136 -39.5t-48 -81.5l-133 -567h-61q-10 66 -25.5 93.5t-48.5 27.5q-35 0 -113 -38t-190.5 -75t-231.5 -37 q-225 0 -355 138.5t-130 384.5q0 397 264 688t615 291q68 0 134 -14.5t95 -26t100 -41.5q66 -29 103 -18t80 77h40l-129 -563h-53q18 231 -76 355t-255.5 124t-306 -122t-227.5 -316.5t-83 -401.5q0 -199 77 -312.5t222 -113.5q170 0 328 109l84 356q14 57 -27 81t-168 42z " glyph-name="Gdotaccent" horiz-adv-x="1605" unicode="Ġ"/><glyph d="M668 1196q-45 0 -76 30.5t-31 76.5q0 66 55.5 119t120.5 53q45 0 76 -30t31 -75q0 -66 -54 -120t-122 -54zM1032 1169q51 4 80 -18.5t29 -60.5q0 -59 -37 -100.5t-88 -41.5q-76 0 -125 90q-49 -27 -96 -71q133 -68 133 -236t-140.5 -291t-338.5 -123q-201 0 -201 -63 q0 -27 41 -41t180 -41q209 -39 296 -92t87 -164q0 -154 -152.5 -239t-423.5 -85q-434 0 -434 183q0 84 97.5 143t279.5 70q-172 55 -172 182q0 143 221 184q-143 70 -143 242q0 166 143.5 288t345.5 122q55 0 111 -13q155 166 307 176zM467 414q92 0 162.5 109.5t70.5 246.5 q0 141 -112 141q-90 0 -162 -109.5t-72 -240.5q0 -147 113 -147zM629 -166q0 49 -50.5 70.5t-193.5 44.5l-37 6q-283 -35 -282 -152q0 -115 249 -114q141 0 227.5 38.5t86.5 106.5z" glyph-name="gdotaccent" horiz-adv-x="1011" unicode="ġ"/><glyph d="M952 729h656l-11 -41q-100 -18 -136 -39.5t-48 -81.5l-133 -567h-61q-10 66 -25.5 93.5t-48.5 27.5q-35 0 -113 -38t-190.5 -75t-231.5 -37q-225 0 -355 138.5t-130 384.5q0 397 264 688t615 291q68 0 134 -14.5t95 -26t100 -41.5q66 -29 103 -18t80 77h40l-129 -563h-53 q18 231 -76 355t-255.5 124t-306 -122t-227.5 -316.5t-83 -401.5q0 -199 77 -312.5t222 -113.5q170 0 328 109l84 356q14 57 -27 81t-168 42zM649 -129q100 0 101 -107q0 -131 -101.5 -232t-240.5 -112v31q176 43 227 205q-25 -12 -51 -12q-37 0 -58.5 20.5t-21.5 54.5 q0 61 44 106.5t101 45.5z" glyph-name="Gcommaaccent" horiz-adv-x="1605" unicode="Ģ"/><glyph d="M670 1176q-51 0 -77 30.5t-26 75.5q0 131 102.5 233.5t241.5 112.5v-33q-176 -43 -227 -202q27 10 51 10q37 0 58.5 -19.5t21.5 -54.5q0 -61 -44 -107t-101 -46zM1032 1169q51 4 80 -18.5t29 -60.5q0 -59 -37 -100.5t-88 -41.5q-76 0 -125 90q-49 -27 -96 -71 q133 -68 133 -236t-140.5 -291t-338.5 -123q-201 0 -201 -63q0 -27 41 -41t180 -41q209 -39 296 -92t87 -164q0 -154 -152.5 -239t-423.5 -85q-434 0 -434 183q0 84 97.5 143t279.5 70q-172 55 -172 182q0 143 221 184q-143 70 -143 242q0 166 143.5 288t345.5 122 q55 0 111 -13q155 166 307 176zM467 414q92 0 162.5 109.5t70.5 246.5q0 141 -112 141q-90 0 -162 -109.5t-72 -240.5q0 -147 113 -147zM629 -166q0 49 -50.5 70.5t-193.5 44.5l-37 6q-283 -35 -282 -152q0 -115 249 -114q141 0 227.5 38.5t86.5 106.5z" glyph-name="gcommaaccent" horiz-adv-x="1011" unicode="ģ"/><glyph d="M1882 1403q-123 -18 -162 -42t-51 -83l-49 -209h170l-27 -102h-166l-186 -801q-12 -57 13.5 -82t144.5 -43l-10 -41h-658l10 41q127 18 164 43t49 82l93 399h-629l-92 -399q-12 -57 14.5 -82t140.5 -43l-10 -41h-655l8 41q123 20 162 41.5t53 83.5l186 801h-170l25 102 h168l49 209q14 59 -16.5 82.5t-141.5 42.5l8 41h658l-8 -41q-125 -20 -162 -43t-51 -82l-49 -209h628l47 209q14 59 -16.5 82.5t-138.5 42.5l8 41h657zM1239 668l70 299h-627l-70 -299h627z" glyph-name="Hbar" horiz-adv-x="1765" unicode="Ħ"/><glyph d="M1141 92l12 -39q-104 -82 -266 -82q-119 0 -159 76t-3 205l106 381q61 223 -43 223q-113 0 -242.5 -205t-185.5 -448l-47 -203h-262l262 1141h-178l25 96h176l14 61q12 53 -2 72t-98 37l12 41l406 82l-68 -293h365l-25 -96h-362l-107 -461q90 156 205 241t235 85 q115 0 178.5 -84t10.5 -285l-115 -428q-23 -82 10 -114t146 -3z" glyph-name="hbar" horiz-adv-x="1368" unicode="ħ"/><glyph d="M444 1790l23 96h580l-23 -96h-580zM-8 0l10 41q123 20 161 41.5t52 83.5l258 1112q14 59 -16.5 82.5t-141.5 42.5l11 41h655l-8 -41q-129 -18 -165 -43t-48 -82l-256 -1112q-14 -61 13.5 -84t141.5 -41l-12 -41h-655z" glyph-name="Imacron" horiz-adv-x="866" unicode="Ī"/><glyph d="M236 1323l22 96h580l-23 -96h-579zM283 -29q-225 0 -156 324l106 459q12 53 -2 71.5t-96 36.5l10 41l410 92l-180 -786q-18 -88 13.5 -114.5t146.5 3.5l12 -39q-102 -88 -264 -88z" glyph-name="imacron" horiz-adv-x="636" unicode="ī"/><glyph d="M326 1444h655l-8 -41q-129 -18 -165 -43t-48 -82l-256 -1112q-14 -61 13.5 -84t141.5 -41l-12 -41q-158 -49 -237.5 -132t-79.5 -147q0 -61 59 -61q98 0 176 66l8 -13q-47 -70 -125.5 -114.5t-164.5 -44.5q-133 0 -133 124q0 102 110.5 191.5t278.5 130.5h-547l10 41 q123 20 161 41.5t52 83.5l258 1112q14 59 -16.5 82.5t-141.5 42.5z" glyph-name="Iogonek" horiz-adv-x="866" unicode="Į"/><glyph d="M569 1497q53 0 87 -32.5t34 -84.5q0 -72 -61.5 -133t-136.5 -61q-53 0 -87 33.5t-34 85.5q0 74 61 133t137 59zM555 995l-180 -786q-18 -88 13.5 -114.5t146.5 3.5l12 -39q-59 -49 -137 -71q-156 -49 -234 -131t-78 -146q0 -61 60 -61q98 0 176 65l8 -12 q-47 -70 -126 -115t-165 -45q-133 0 -133 125q0 92 92 175t238 130q-184 25 -121 322l106 459q12 53 -2 71.5t-96 36.5l10 41z" glyph-name="iogonek" horiz-adv-x="636" unicode="į"/><glyph d="M698 1653q-53 0 -86.5 33.5t-33.5 85.5q0 74 61 133t137 59q53 0 87 -33t34 -84q0 -72 -61.5 -133t-137.5 -61zM-8 0l10 41q123 20 161 41.5t52 83.5l258 1112q14 59 -16.5 82.5t-141.5 42.5l11 41h655l-8 -41q-129 -18 -165 -43t-48 -82l-256 -1112q-14 -61 13.5 -84 t141.5 -41l-12 -41h-655z" glyph-name="Idotaccent" horiz-adv-x="866" unicode="İ"/><glyph d="M283 -29q-225 0 -156 324l106 459q12 53 -2 71.5t-96 36.5l10 41l410 92l-180 -786q-18 -88 13.5 -114.5t146.5 3.5l12 -39q-102 -88 -264 -88z" glyph-name="dotlessi" horiz-adv-x="636" unicode="ı"/><glyph d="M1792 1403q-213 -37 -451 -238l-262 -227l277 -717q33 -84 65.5 -119.5t112.5 -60.5l-10 -41h-674l10 41q127 20 160 60t0 112l-195 506l-243 -211l-78 -342q-14 -61 11.5 -84t133.5 -41l-10 -41h-647l10 41q125 23 162 43t51 82l256 1112q14 59 -15.5 82.5t-140.5 42.5 l11 41h655l-8 -41q-125 -20 -162 -43t-51 -82l-146 -627l617 541q51 45 74.5 72.5t34 57.5t-23.5 49.5t-112 31.5l10 41h586zM698 -129q100 0 101 -107q0 -131 -101.5 -232t-240.5 -112v31q176 43 227 205q-25 -12 -51 -12q-37 0 -58.5 20.5t-21.5 54.5q0 61 44 106.5 t101 45.5z" glyph-name="Kcommaaccent" horiz-adv-x="1669" unicode="Ķ"/><glyph d="M874 221q25 -94 71 -121.5t132 4.5l13 -38q-35 -41 -100.5 -68t-135.5 -27q-143 0 -198.5 109.5t-73.5 351.5q-25 -10 -87.5 -37.5t-99.5 -44.5l-82 -350h-262l301 1313q12 51 -2 69.5t-98 36.5l10 41l410 86l-254 -1091q342 150 497 278q-74 92 -73 164q0 49 38 79 t97 30q131 0 131 -119q0 -164 -291 -332q20 -193 57 -334zM446 -129q100 0 101 -107q0 -131 -101.5 -232t-240.5 -112v31q176 43 227 205q-25 -12 -51 -12q-37 0 -58.5 20.5t-21.5 54.5q0 61 44 106.5t101 45.5z" glyph-name="kcommaaccent" horiz-adv-x="1175" unicode="ķ"/><glyph d="M924 1806l-234 -211l-14 9l125 286q31 86 86 119t102 10q47 -18 31 -85t-96 -128zM1286 547h43l-174 -547h-1163l10 41q111 16 153 37.5t56 68.5l260 1131q12 59 -17.5 82.5t-138.5 42.5l11 41h739l-8 -41q-127 -14 -187.5 -29.5t-82 -37t-31.5 -68.5l-269 -1168h265 q184 0 308 104.5t226 342.5z" glyph-name="Lacute" horiz-adv-x="1363" unicode="Ĺ"/><glyph d="M520 1673l-14 8l125 287q31 86 86 119t102 10q47 -18 31 -84.5t-96 -128.5zM250 -25q-238 0 -162 322l238 1018q8 31 6 50t-27.5 32.5t-89.5 25.5l10 41l416 82l-305 -1333q-20 -88 11.5 -114.5t148.5 3.5l10 -41q-100 -86 -256 -86z" glyph-name="lacute" horiz-adv-x="575" unicode="ĺ"/><glyph d="M1286 547h43l-174 -547h-1163l10 41q111 16 153 37.5t56 68.5l260 1131q12 59 -17.5 82.5t-138.5 42.5l11 41h739l-8 -41q-127 -14 -187.5 -29.5t-82 -37t-31.5 -68.5l-269 -1168h265q184 0 308 104.5t226 342.5zM547 -129q100 0 100 -107q0 -131 -101.5 -232 t-240.5 -112v31q176 43 227 205q-25 -12 -51 -12q-37 0 -58.5 20.5t-21.5 54.5q0 61 44.5 106.5t101.5 45.5z" glyph-name="Lcommaaccent" horiz-adv-x="1363" unicode="Ļ"/><glyph d="M336 213q-20 -88 11.5 -114.5t148.5 3.5l10 -41q-100 -86 -256 -86q-238 0 -162 322l238 1018q8 31 6 50t-27.5 32.5t-89.5 25.5l10 41l416 82zM211 -129q100 0 100 -107q0 -131 -101 -232t-241 -112v31q176 43 228 205q-25 -12 -52 -12q-37 0 -58 20.5t-21 54.5 q0 61 44 106.5t101 45.5z" glyph-name="lcommaaccent" horiz-adv-x="575" unicode="ļ"/><glyph d="M1374 1473q45 0 58.5 -33t-3 -85t-55.5 -112l-198 -336l-19 2l72 373q14 92 53 141.5t92 49.5zM752 100q184 0 308 104.5t226 342.5h43l-174 -547h-1163l10 41q111 16 153 37.5t56 68.5l260 1131q12 59 -17.5 82.5t-138.5 42.5l11 41h739l-8 -41q-127 -14 -187.5 -29.5 t-82 -37t-31.5 -68.5l-269 -1168h265z" glyph-name="Lcaron" horiz-adv-x="1363" unicode="Ľ"/><glyph d="M709 985l-19 2l72 373q14 92 53 141t92 49q45 0 58.5 -32.5t-3 -85t-55.5 -111.5zM250 -25q-238 0 -162 322l238 1018q8 31 6 50t-27.5 32.5t-89.5 25.5l10 41l416 82l-305 -1333q-20 -88 11.5 -114.5t148.5 3.5l10 -41q-100 -86 -256 -86z" glyph-name="lcaron" horiz-adv-x="575" unicode="ľ"/><glyph d="M1286 547h43l-174 -547h-1163l10 41q111 16 153 37.5t56 68.5l117 506l-217 -57l4 88l233 61l123 533q12 59 -17.5 82.5t-138.5 42.5l11 41h739l-8 -41q-127 -14 -187.5 -29.5t-82 -37t-31.5 -68.5l-101 -441l330 88l-6 -90l-346 -92l-146 -633h265q184 0 308 104.5 t226 342.5z" glyph-name="Lslash" horiz-adv-x="1488" unicode="Ł"/><glyph d="M399 213q-20 -88 12.5 -114.5t147.5 3.5l10 -41q-102 -86 -256 -86q-240 0 -159 322l110 477l-180 -69l-12 98l219 84l98 428q8 31 6 50t-27.5 32.5t-88.5 25.5l12 41l414 82l-125 -549l204 78l11 -98l-242 -92z" glyph-name="lslash" horiz-adv-x="655" unicode="ł"/><glyph d="M1333 1806l-233 -211l-15 9l125 286q31 86 86.5 119t102.5 10q47 -18 30.5 -85t-96.5 -128zM1327 1444h535l-9 -41q-111 -23 -166 -71t-79 -148l-273 -1184h-248l-536 1176l-211 -916q-25 -104 18 -149t158 -70l-10 -41h-535l11 41q106 25 163.5 68t81.5 151l234 1018 q14 59 -15.5 82.5t-138.5 42.5l8 41h457l524 -1135l201 875q25 104 -21 150t-157 69z" glyph-name="Nacute" horiz-adv-x="1714" unicode="Ń"/><glyph d="M991 1339l-233 -211l-15 9l125 286q31 86 86.5 119t102.5 10q47 -18 30.5 -85t-96.5 -128zM1159 92l12 -39q-104 -82 -266 -82q-233 0 -149 316l94 346q61 223 -33 223q-117 0 -246 -194.5t-194 -479.5l-43 -182h-264l174 760q12 53 -5.5 73.5t-101.5 40.5l10 41l418 82 l-102 -379q94 193 220 290.5t265 97.5q109 0 165 -90.5t-1 -303.5l-106 -405q-23 -82 9.5 -113t143.5 -2z" glyph-name="nacute" horiz-adv-x="1263" unicode="ń"/><glyph d="M1327 1444h535l-9 -41q-111 -23 -166 -71t-79 -148l-273 -1184h-248l-536 1176l-211 -916q-25 -104 18 -149t158 -70l-10 -41h-535l11 41q106 25 163.5 68t81.5 151l234 1018q14 59 -15.5 82.5t-138.5 42.5l8 41h457l524 -1135l201 875q25 104 -21 150t-157 69zM711 -129 q100 0 100 -107q0 -131 -101.5 -232t-240.5 -112v31q176 43 227 205q-25 -12 -51 -12q-37 0 -58.5 20.5t-21.5 54.5q0 61 44.5 106.5t101.5 45.5z" glyph-name="Ncommaaccent" horiz-adv-x="1714" unicode="Ņ"/><glyph d="M1159 92l12 -39q-104 -82 -266 -82q-233 0 -149 316l94 346q61 223 -33 223q-117 0 -246 -194.5t-194 -479.5l-43 -182h-264l174 760q12 53 -5.5 73.5t-101.5 40.5l10 41l418 82l-102 -379q94 193 220 290.5t265 97.5q109 0 165 -90.5t-1 -303.5l-106 -405 q-23 -82 9.5 -113t143.5 -2zM492 -129q100 0 100 -107q0 -131 -101.5 -232t-240.5 -112v31q176 43 227 205q-25 -12 -51 -12q-37 0 -58.5 20.5t-21.5 54.5q0 61 44.5 106.5t101.5 45.5z" glyph-name="ncommaaccent" horiz-adv-x="1263" unicode="ņ"/><glyph d="M1118 1616q-39 0 -61.5 26.5t-38.5 92.5l-64 250l19 12l176 -211l295 211l10 -12l-180 -248q-82 -121 -156 -121zM1327 1444h535l-9 -41q-111 -23 -166 -71t-79 -148l-273 -1184h-248l-536 1176l-211 -916q-25 -104 18 -149t158 -70l-10 -41h-535l11 41q106 25 163.5 68 t81.5 151l234 1018q14 59 -15.5 82.5t-138.5 42.5l8 41h457l524 -1135l201 875q25 104 -21 150t-157 69z" glyph-name="Ncaron" horiz-adv-x="1714" unicode="Ň"/><glyph d="M776 1149q-39 0 -61.5 26.5t-38.5 92.5l-64 250l19 12l176 -211l295 211l10 -12l-180 -248q-82 -121 -156 -121zM1159 92l12 -39q-104 -82 -266 -82q-233 0 -149 316l94 346q61 223 -33 223q-117 0 -246 -194.5t-194 -479.5l-43 -182h-264l174 760q12 53 -5.5 73.5 t-101.5 40.5l10 41l418 82l-102 -379q94 193 220 290.5t265 97.5q109 0 165 -90.5t-1 -303.5l-106 -405q-23 -82 9.5 -113t143.5 -2z" glyph-name="ncaron" horiz-adv-x="1263" unicode="ň"/><glyph d="M1303 1444h534l-8 -41q-111 -25 -167 -71t-79 -148l-242 -1041q-66 -289 -199.5 -420t-299.5 -131q-88 0 -138.5 34t-50.5 91q0 59 39 104.5t90 45.5q102 0 152 -178q154 47 233 227l-620 1266l-213 -922q-23 -104 20 -149t158 -70l-10 -41h-535l8 41q106 25 165 68 t83 151l234 1018q12 59 -17.5 82.5t-138.5 42.5l10 41h457l520 -1061l182 801q23 102 -19 148t-159 71z" glyph-name="Eng" horiz-adv-x="1703" unicode="Ŋ"/><glyph d="M944 1006q104 0 163.5 -85t8.5 -292l-121 -486q-137 -551 -516 -551q-184 0 -184 109q0 45 29.5 80t72.5 35q90 0 138 -135q94 72 157 321l164 647q53 205 -43 205q-109 0 -241 -202.5t-193 -463.5l-45 -188h-264l174 760q12 53 -5.5 73.5t-101.5 40.5l10 41l418 82 l-76 -329q185 338 455 338z" glyph-name="eng" horiz-adv-x="1251" unicode="ŋ"/><glyph d="M848 1790l22 96h580l-23 -96h-579zM698 -29q-256 0 -411.5 147.5t-155.5 418.5q0 385 274.5 660.5t675.5 275.5q262 0 414 -146.5t152 -419.5q0 -250 -120 -463t-340.5 -343t-488.5 -130zM723 80q168 0 314.5 123t231.5 321.5t85 413.5q0 426 -297 426 q-254 0 -442.5 -261t-188.5 -597q0 -201 77 -313.5t220 -112.5z" glyph-name="Omacron" horiz-adv-x="1671" unicode="Ō"/><glyph d="M494 1323l22 96h580l-23 -96h-579zM455 -29q-184 0 -293 94.5t-109 278.5q0 274 182.5 468t454.5 194q186 0 295 -96.5t109 -282.5q0 -276 -180 -466t-459 -190zM469 72q137 0 244.5 189.5t107.5 424.5q0 219 -147 219q-88 0 -170 -91t-131 -232.5t-49 -288.5 q0 -221 145 -221z" glyph-name="omacron" horiz-adv-x="1148" unicode="ō"/><glyph d="M940 1597l-16 5l45 256q10 104 52 148t99 40q39 -2 52.5 -30.5t-6 -80t-70.5 -112.5zM1188 1595l-14 11l163 264q51 84 107.5 107.5t89.5 -7.5q39 -27 10.5 -89t-117.5 -116zM698 -29q-256 0 -411.5 147.5t-155.5 418.5q0 385 274.5 660.5t675.5 275.5q262 0 414 -146.5 t152 -419.5q0 -250 -120 -463t-340.5 -343t-488.5 -130zM723 80q168 0 314.5 123t231.5 321.5t85 413.5q0 426 -297 426q-254 0 -442.5 -261t-188.5 -597q0 -201 77 -313.5t220 -112.5z" glyph-name="Ohungarumlaut" horiz-adv-x="1671" unicode="Ő"/><glyph d="M588 1130l-17 5l45 256q10 104 52.5 148t99.5 40q39 -2 52.5 -30.5t-6 -80t-71.5 -112.5zM836 1128l-15 11l164 264q51 84 107.5 107.5t89.5 -7.5q39 -27 10 -89t-117 -116zM455 -29q-184 0 -293 94.5t-109 278.5q0 274 182.5 468t454.5 194q186 0 295 -96.5t109 -282.5 q0 -276 -180 -466t-459 -190zM469 72q137 0 244.5 189.5t107.5 424.5q0 219 -147 219q-88 0 -170 -91t-131 -232.5t-49 -288.5q0 -221 145 -221z" glyph-name="ohungarumlaut" horiz-adv-x="1148" unicode="ő"/><glyph d="M2142 926h-43q4 59 5 109t-4 89t-11 70t-19.5 52.5t-24.5 37.5t-31.5 26.5t-37 16.5t-43 9t-47 4t-53.5 1h-283l-127 -544h152q51 0 81 7t71.5 34.5t78.5 94t76 175.5h43l-170 -729h-43q4 74 7 126t-10 87t-23.5 55.5t-35 30.5t-46 13t-54.5 3h-149l-137 -594h270 q362 0 539 424h45l-179 -524h-1173q-287 0 -458 153.5t-171 428.5q0 358 289 610t725 252h1112zM975 100l287 1241h-93q-319 0 -527 -228t-208 -554q0 -215 99.5 -337t300.5 -122h141z" glyph-name="OE" horiz-adv-x="2207" unicode="Œ"/><glyph d="M1724 770q0 -182 -192.5 -279.5t-454.5 -89.5q-4 -49 -4 -71q0 -250 187 -250q180 0 321 158l41 -48q-164 -219 -448 -219q-221 0 -314 142q-170 -141 -405 -142q-184 0 -293 94.5t-109 278.5q0 274 182.5 468t454.5 194q240 0 342 -152q172 152 391 152q131 0 216 -58.5 t85 -177.5zM1399 907q-98 0 -189.5 -131t-124.5 -309q190 18 298 119.5t108 220.5q0 100 -92 100zM469 72q137 0 244.5 189.5t107.5 424.5q0 219 -147 219q-88 0 -170 -91t-131 -232.5t-49 -288.5q0 -221 145 -221z" glyph-name="oe" horiz-adv-x="1734" unicode="œ"/><glyph d="M1229 1806l-234 -211l-14 9l125 286q31 86 86 119t102 10q47 -18 31 -85t-96 -128zM1438 281l30 -15q-106 -295 -329 -295q-127 0 -182.5 80t-43.5 277q10 170 -15.5 249.5t-79.5 101t-173 21.5h-22l-119 -516q-14 -72 16.5 -98.5t147.5 -44.5l-11 -41h-665l10 41 q111 16 153 37.5t56 68.5l262 1135l-2 -4q14 59 -16.5 82.5t-139.5 42.5l11 41h759q195 0 288 -66.5t93 -206.5q2 -184 -161.5 -306t-427.5 -130q154 -20 231.5 -93t79.5 -241t17.5 -224t60.5 -56q43 0 82 36t90 124zM645 797h90q205 0 325 102t120 266q0 176 -232 176h-178 z" glyph-name="Racute" horiz-adv-x="1515" unicode="Ŕ"/><glyph d="M780 1339l-233 -211l-15 9l125 286q31 86 86.5 119t102.5 10q47 -18 30.5 -85t-96.5 -128zM848 1006q115 0 115 -109q0 -78 -43 -127t-97 -49q-74 0 -125 123q-90 -86 -178 -256t-135 -369l-51 -219h-264l176 766q12 51 -5.5 70.5t-103.5 37.5l10 39l418 82l-119 -409 q181 420 402 420z" glyph-name="racute" horiz-adv-x="886" unicode="ŕ"/><glyph d="M1438 281l30 -15q-106 -295 -329 -295q-127 0 -182.5 80t-43.5 277q10 170 -15.5 249.5t-79.5 101t-173 21.5h-22l-119 -516q-14 -72 16.5 -98.5t147.5 -44.5l-11 -41h-665l10 41q111 16 153 37.5t56 68.5l262 1135l-2 -4q14 59 -16.5 82.5t-139.5 42.5l11 41h759 q195 0 288 -66.5t93 -206.5q2 -184 -161.5 -306t-427.5 -130q154 -20 231.5 -93t79.5 -241t17.5 -224t60.5 -56q43 0 82 36t90 124zM645 797h90q205 0 325 102t120 266q0 176 -232 176h-178zM608 -129q100 0 101 -107q0 -131 -101.5 -232t-240.5 -112v31q176 43 227 205 q-25 -12 -51 -12q-37 0 -58.5 20.5t-21.5 54.5q0 61 44 106.5t101 45.5z" glyph-name="Rcommaaccent" horiz-adv-x="1515" unicode="Ŗ"/><glyph d="M848 1006q115 0 115 -109q0 -78 -43 -127t-97 -49q-74 0 -125 123q-90 -86 -178 -256t-135 -369l-51 -219h-264l176 766q12 51 -5.5 70.5t-103.5 37.5l10 39l418 82l-119 -409q181 420 402 420zM205 -129q100 0 100 -107q0 -131 -101.5 -232t-240.5 -112v31 q176 43 227 205q-25 -12 -51 -12q-37 0 -58.5 20.5t-21.5 54.5q0 61 44.5 106.5t101.5 45.5z" glyph-name="rcommaaccent" horiz-adv-x="886" unicode="ŗ"/><glyph d="M1014 1616q-39 0 -61.5 26.5t-39.5 92.5l-63 250l18 12l176 -211l295 211l11 -12l-181 -248q-81 -121 -155 -121zM1438 281l30 -15q-106 -295 -329 -295q-127 0 -182.5 80t-43.5 277q10 170 -15.5 249.5t-79.5 101t-173 21.5h-22l-119 -516q-14 -72 16.5 -98.5 t147.5 -44.5l-11 -41h-665l10 41q111 16 153 37.5t56 68.5l262 1135l-2 -4q14 59 -16.5 82.5t-139.5 42.5l11 41h759q195 0 288 -66.5t93 -206.5q2 -184 -161.5 -306t-427.5 -130q154 -20 231.5 -93t79.5 -241t17.5 -224t60.5 -56q43 0 82 36t90 124zM645 797h90 q205 0 325 102t120 266q0 176 -232 176h-178z" glyph-name="Rcaron" horiz-adv-x="1515" unicode="Ř"/><glyph d="M565 1149q-39 0 -61.5 26.5t-38.5 92.5l-64 250l19 12l176 -211l295 211l10 -12l-180 -248q-82 -121 -156 -121zM848 1006q115 0 115 -109q0 -78 -43 -127t-97 -49q-74 0 -125 123q-90 -86 -178 -256t-135 -369l-51 -219h-264l176 766q12 51 -5.5 70.5t-103.5 37.5l10 39 l418 82l-119 -409q181 420 402 420z" glyph-name="rcaron" horiz-adv-x="886" unicode="ř"/><glyph d="M864 1595l-14 9l125 286q31 86 86 119t102 10q47 -18 31 -84.5t-96 -128.5zM631 -29q-193 0 -393 103q-66 31 -100 14.5t-77 -88.5h-34l131 573h43q-25 -252 93 -372.5t302 -120.5q123 0 203 65.5t80 169.5q0 109 -68 171.5t-207 115.5q-184 72 -276 177.5t-92 273.5 q0 182 132 301t349 119q195 0 362 -101q66 -39 95.5 -24.5t74.5 98.5h35l-131 -569h-45q16 133 -6.5 230t-74.5 151.5t-118.5 80t-150.5 25.5q-121 0 -191.5 -58.5t-70.5 -156.5q0 -100 62.5 -161.5t193.5 -115.5q188 -76 287.5 -177t99.5 -277q0 -211 -146.5 -329 t-361.5 -118z" glyph-name="Sacute" horiz-adv-x="1245" unicode="Ś"/><glyph d="M817 1339l-233 -211l-15 9l125 286q31 86 86.5 119t102.5 10q47 -18 30.5 -85t-96.5 -128zM526 1006q147 -2 244.5 -51.5t97.5 -127.5q0 -47 -29.5 -77.5t-76.5 -30.5q-119 0 -166 184q-31 6 -66 6q-80 2 -127 -29.5t-47 -85t38 -93t132 -89.5q135 -68 197.5 -138.5 t62.5 -188.5q0 -145 -112.5 -229.5t-300.5 -84.5q-174 0 -273.5 56.5t-99.5 148.5q0 47 27.5 76t72.5 29q115 0 166 -201q45 -10 90 -10q86 0 142.5 37.5t56.5 99.5q0 57 -38 91t-142 85q-133 66 -192.5 139.5t-59.5 184.5q0 137 107.5 219t295.5 80z" glyph-name="sacute" horiz-adv-x="917" unicode="ś"/><glyph d="M1153 877h-45q16 133 -6.5 230t-74.5 151.5t-118.5 80t-150.5 25.5q-121 0 -191.5 -58.5t-70.5 -156.5q0 -100 62.5 -161.5t193.5 -115.5q188 -76 287.5 -177t99.5 -277q0 -211 -146.5 -329t-361.5 -118q-33 0 -90 4l-43 -94q231 12 231 -139q0 -78 -67.5 -129 t-174.5 -51q-113 0 -178 49t-86 121l17 18q66 -82 184 -82q135 0 135 74q0 72 -174 76l2 18l72 154q-96 18 -221 84q-66 31 -100 14.5t-77 -88.5h-34l131 573h43q-25 -252 93 -372.5t302 -120.5q123 0 203 65.5t80 169.5q0 109 -68 171.5t-207 115.5q-184 72 -276 177.5 t-92 273.5q0 182 132 301t349 119q195 0 362 -101q66 -39 95.5 -24.5t74.5 98.5h35z" glyph-name="Scedilla" horiz-adv-x="1245" unicode="Ş"/><glyph d="M530 909q-80 2 -127 -29.5t-47 -85t38 -93t132 -89.5q135 -68 197.5 -138.5t62.5 -188.5q0 -145 -112.5 -229.5t-300.5 -84.5h-6l-41 -90q231 12 231 -139q0 -78 -67.5 -129t-174.5 -51q-113 0 -178 49t-86 121l17 18q66 -82 184 -82q135 0 135 74q0 72 -174 76l2 18 l66 139q-133 14 -207 68.5t-74 132.5q0 47 27.5 76t72.5 29q115 0 166 -201q45 -10 90 -10q86 0 142.5 37.5t56.5 99.5q0 57 -38 91t-142 85q-133 66 -192.5 139.5t-59.5 184.5q0 137 107.5 219t295.5 80q147 -2 244.5 -51.5t97.5 -127.5q0 -47 -29.5 -77.5t-76.5 -30.5 q-119 0 -166 184q-31 6 -66 6z" glyph-name="scedilla" horiz-adv-x="917" unicode="ş"/><glyph d="M883 1616q-39 0 -61.5 26.5t-39.5 92.5l-63 250l18 12l176 -211l295 211l11 -12l-181 -248q-81 -121 -155 -121zM1153 877h-45q16 133 -6.5 230t-74.5 151.5t-118.5 80t-150.5 25.5q-121 0 -191.5 -58.5t-70.5 -156.5q0 -100 62.5 -161.5t193.5 -115.5 q188 -76 287.5 -177t99.5 -277q0 -211 -146.5 -329t-361.5 -118q-193 0 -393 103q-66 31 -100 14.5t-77 -88.5h-34l131 573h43q-25 -252 93 -372.5t302 -120.5q123 0 203 65.5t80 169.5q0 109 -68 171.5t-207 115.5q-184 72 -276 177.5t-92 273.5q0 182 132 301t349 119 q195 0 362 -101q66 -39 95.5 -24.5t74.5 98.5h35z" glyph-name="Scaron" horiz-adv-x="1245" unicode="Š"/><glyph d="M602 1149q-39 0 -61.5 26.5t-38.5 92.5l-64 250l19 12l176 -211l295 211l10 -12l-180 -248q-82 -121 -156 -121zM526 1006q147 -2 244.5 -51.5t97.5 -127.5q0 -47 -29.5 -77.5t-76.5 -30.5q-119 0 -166 184q-31 6 -66 6q-80 2 -127 -29.5t-47 -85t38 -93t132 -89.5 q135 -68 197.5 -138.5t62.5 -188.5q0 -145 -112.5 -229.5t-300.5 -84.5q-174 0 -273.5 56.5t-99.5 148.5q0 47 27.5 76t72.5 29q115 0 166 -201q45 -10 90 -10q86 0 142.5 37.5t56.5 99.5q0 57 -38 91t-142 85q-133 66 -192.5 139.5t-59.5 184.5q0 137 107.5 219t295.5 80z " glyph-name="scaron" horiz-adv-x="917" unicode="š"/><glyph d="M1524 1444l-129 -547h-43q8 88 7 155.5t-7 114.5t-22.5 80t-35 51.5t-49.5 28.5t-59.5 13t-73.5 3h-78l-270 -1159q-16 -70 18.5 -96.5t161.5 -46.5l-10 -41h-313l-56 -119q231 12 232 -139q0 -78 -67.5 -129t-174.5 -51q-113 0 -178.5 49t-85.5 121l16 18 q66 -82 185 -82q135 0 135 74q0 72 -174 76l2 18l77 164h-311l10 41q135 20 181.5 45t64.5 98l268 1159h-83q-80 0 -128.5 -11t-104.5 -54t-106.5 -135t-107.5 -246h-45l129 547h1225z" glyph-name="Tcommaaccent" horiz-adv-x="1378" unicode="Ţ"/><glyph d="M539 889l-144 -621q-45 -182 68 -182q119 0 231 137l41 -39q-141 -190 -327 -209l-43 -94q231 12 231 -139q0 -78 -67.5 -129t-174.5 -51q-113 0 -178 49t-86 121l16 18q66 -82 185 -82q135 0 135 74q0 72 -174 76l2 18l63 137q-127 8 -170 101.5t-6 253.5l131 561h-133 l23 88h145l260 289h58l-66 -289h270l-20 -88h-270z" glyph-name="tcommaaccent" horiz-adv-x="796" unicode="ţ"/><glyph d="M950 1616q-39 0 -61.5 26.5t-38.5 92.5l-64 250l19 12l176 -211l295 211l10 -12l-180 -248q-82 -121 -156 -121zM1524 1444l-129 -547h-43q8 88 7 155.5t-7 114.5t-22.5 80t-35 51.5t-49.5 28.5t-59.5 13t-73.5 3h-78l-270 -1159q-16 -70 18.5 -96.5t161.5 -46.5l-10 -41 h-713l10 41q135 20 181.5 45t64.5 98l268 1159h-83q-80 0 -128.5 -11t-104.5 -54t-106.5 -135t-107.5 -246h-45l129 547h1225z" glyph-name="Tcaron" horiz-adv-x="1378" unicode="Ť"/><glyph d="M938 1550q47 0 64.5 -33.5t-3 -90t-77.5 -115.5l-154 -195l-16 4l51 238q22 192 135 192zM625 1266l-66 -289h270l-20 -88h-270l-144 -621q-45 -182 68 -182q119 0 231 137l41 -39q-158 -213 -385 -213q-291 0 -209 357l131 561h-133l23 88h145l260 289h58z" glyph-name="tcaron" horiz-adv-x="811" unicode="ť"/><glyph d="M1524 1444l-129 -547h-43q8 88 7 155.5t-7 114.5t-22.5 80t-35 51.5t-49.5 28.5t-59.5 13t-73.5 3h-78l-164 -704h347l-31 -96h-338l-84 -359q-16 -70 18.5 -96.5t161.5 -46.5l-10 -41h-713l10 41q135 20 181.5 45t64.5 98l82 359h-346l29 96h340l163 704h-83 q-80 0 -128.5 -11t-104.5 -54t-106.5 -135t-107.5 -246h-45l129 547h1225z" glyph-name="Tbar" horiz-adv-x="1468" unicode="Ŧ"/><glyph d="M809 889h-270l-74 -320h287l-23 -88h-285l-49 -213q-45 -182 68 -182q119 0 231 137l41 -39q-158 -213 -385 -213q-291 0 -209 357l35 153h-104l20 88h105l75 320h-133l23 88h145l260 289h58l-66 -289h270z" glyph-name="tbar" horiz-adv-x="870" unicode="ŧ"/><glyph d="M866 1790l23 96h579l-22 -96h-580zM735 -29q-287 0 -412.5 178.5t-46.5 524.5l140 604q12 57 -17.5 81.5t-126.5 43.5l11 41h635l-11 -41q-113 -20 -144.5 -43t-45.5 -82l-158 -688q-57 -260 -9 -385t210 -125q168 0 273.5 123t164.5 387l158 688q14 61 -13.5 84.5 t-130.5 40.5l11 41h643l-8 -41q-111 -20 -148 -42t-51 -83l-139 -604q-49 -211 -126 -353.5t-182.5 -216t-217.5 -103.5t-259 -30z" glyph-name="Umacron" horiz-adv-x="1708" unicode="Ū"/><glyph d="M1135 1419l-23 -96h-580l23 96h580zM997 213q-20 -86 12.5 -113.5t147.5 2.5l12 -41q-104 -86 -258 -86q-82 0 -126 41t-47 107.5t20 152.5l2 7q-160 -311 -430 -312q-55 0 -98.5 16.5t-79 58.5t-41 112.5t15.5 177.5l115 485q10 53 -14.5 75t-102.5 40l10 41h410 l-146 -631q-53 -229 62 -229q102 0 209.5 154.5t175.5 447.5l59 258h266z" glyph-name="umacron" horiz-adv-x="1247" unicode="ū"/><glyph d="M1098 1556q-88 0 -140.5 52.5t-52.5 144.5q0 121 80 200t211 79q88 0 141.5 -51.5t53.5 -141.5q0 -123 -84 -203t-209 -80zM1112 1647q70 0 120 50t50 132q0 55 -28.5 85t-73.5 30q-66 0 -116 -51.5t-50 -133.5q0 -55 27.5 -83.5t70.5 -28.5zM735 -29 q-287 0 -412.5 178.5t-46.5 524.5l140 604q12 57 -17.5 81.5t-126.5 43.5l11 41h635l-11 -41q-113 -20 -144.5 -43t-45.5 -82l-158 -688q-57 -260 -9 -385t210 -125q168 0 273.5 123t164.5 387l158 688q14 61 -13.5 84.5t-130.5 40.5l11 41h643l-8 -41q-111 -20 -148 -42 t-51 -83l-139 -604q-49 -211 -126 -353.5t-182.5 -216t-217.5 -103.5t-259 -30z" glyph-name="Uring" horiz-adv-x="1708" unicode="Ů"/><glyph d="M764 1090q-88 0 -140.5 52t-52.5 144q0 121 80 200t211 79q88 0 141.5 -51.5t53.5 -141.5q0 -123 -84 -202.5t-209 -79.5zM846 1477q-66 0 -116 -51.5t-50 -133.5q0 -55 27.5 -83.5t70.5 -28.5q70 0 120 50t50 132q0 55 -28.5 85t-73.5 30zM997 213q-20 -86 12.5 -113.5 t147.5 2.5l12 -41q-104 -86 -258 -86q-82 0 -126 41t-47 107.5t20 152.5l2 7q-160 -311 -430 -312q-55 0 -98.5 16.5t-79 58.5t-41 112.5t15.5 177.5l115 485q10 53 -14.5 75t-102.5 40l10 41h410l-146 -631q-53 -229 62 -229q102 0 209.5 154.5t175.5 447.5l59 258h266z " glyph-name="uring" horiz-adv-x="1247" unicode="ů"/><glyph d="M961 1597l-17 5l45 256q10 104 52 148t100 40q39 -2 52 -30.5t-6.5 -80t-70.5 -112.5zM1208 1595l-14 11l164 264q51 84 107.5 107.5t88.5 -7.5q39 -27 10.5 -89t-116.5 -116zM735 -29q-287 0 -412.5 178.5t-46.5 524.5l140 604q12 57 -17.5 81.5t-126.5 43.5l11 41h635 l-11 -41q-113 -20 -144.5 -43t-45.5 -82l-158 -688q-57 -260 -9 -385t210 -125q168 0 273.5 123t164.5 387l158 688q14 61 -13.5 84.5t-130.5 40.5l11 41h643l-8 -41q-111 -20 -148 -42t-51 -83l-139 -604q-49 -211 -126 -353.5t-182.5 -216t-217.5 -103.5t-259 -30z" glyph-name="Uhungarumlaut" horiz-adv-x="1708" unicode="Ű"/><glyph d="M780 1356l-155 -226l-17 5l45 256q10 104 52.5 148t99.5 40q39 -2 52 -30.5t-6.5 -80t-70.5 -112.5zM1219 1503q39 -27 10 -89t-117 -116l-240 -170l-14 11l164 264q51 84 107.5 107.5t89.5 -7.5zM1171 977l-174 -764q-20 -86 12.5 -113.5t147.5 2.5l12 -41 q-104 -86 -258 -86q-82 0 -126 41t-47 107.5t20 152.5l2 7q-160 -311 -430 -312q-55 0 -98.5 16.5t-79 58.5t-41 112.5t15.5 177.5l115 485q10 53 -14.5 75t-102.5 40l10 41h410l-146 -631q-53 -229 62 -229q102 0 209.5 154.5t175.5 447.5l59 258h266z" glyph-name="uhungarumlaut" horiz-adv-x="1247" unicode="ű"/><glyph d="M1223 1444h643l-8 -41q-111 -20 -148 -42t-51 -83l-139 -604q-55 -240 -152.5 -392.5t-212.5 -217t-270 -84.5q-143 -49 -215 -128t-72 -140.5t59 -61.5q98 0 177 65l8 -12q-47 -70 -126 -115t-165 -45q-133 0 -133 125q0 92 90 174t233 129h-6q-287 0 -412.5 178.5 t-46.5 524.5l140 604q12 57 -17.5 81.5t-126.5 43.5l11 41h635l-11 -41q-113 -20 -144.5 -43t-45.5 -82l-158 -688q-57 -260 -9 -385t210 -125q168 0 273.5 123t164.5 387l158 688q14 61 -13.5 84.5t-130.5 40.5z" glyph-name="Uogonek" horiz-adv-x="1708" unicode="Ų"/><glyph d="M1026 -10q-145 -49 -219 -129t-74 -141.5t60 -61.5q98 0 176 66l8 -13q-47 -70 -126 -115t-165 -45q-133 0 -133 125q0 90 88 172t231 129q-190 29 -114 299l2 7q-160 -311 -430 -312q-55 0 -98.5 16.5t-79 58.5t-41 112.5t15.5 177.5l115 485q10 53 -14.5 75t-102.5 40 l10 41h410l-146 -631q-53 -229 62 -229q102 0 209.5 154.5t175.5 447.5l59 258h266l-174 -764q-20 -86 12.5 -113.5t147.5 2.5l12 -41q-61 -48 -143 -71z" glyph-name="uogonek" horiz-adv-x="1247" unicode="ų"/><glyph d="M1606 1815l-258 -170l-13 12l166 227q45 61 78 87t74 26q37 0 58.5 -26.5t37.5 -90.5l66 -254l-17 -10zM2310 1444h492l-11 -41q-86 -20 -129 -59t-102 -140l-715 -1204h-315l-82 1147l-604 -1147h-312l-163 1188q-14 111 -37 149.5t-99 65.5l9 41h647l-10 -41 q-154 -27 -196 -67t-28 -142l148 -1057l549 1057q53 92 28.5 136t-157.5 73l10 41h725l-8 -41q-145 -25 -183 -65t-32 -144l73 -1057l621 1057q20 35 30.5 56.5t11.5 47t-15.5 43t-54.5 34t-101 28.5z" glyph-name="Wcircumflex" horiz-adv-x="2600" unicode="Ŵ"/><glyph d="M1081 1348l-258 -170l-12 12l166 227q45 61 77.5 87t73.5 26q37 0 58.5 -26.5t38.5 -90.5l65 -254l-16 -10zM1481 1006q166 0 159 -230q-4 -178 -92 -364.5t-235.5 -313.5t-304.5 -127q-113 0 -177.5 63.5t-66.5 190.5q-143 -254 -371 -254q-141 0 -207.5 104.5 t-23.5 307.5l78 377q20 94 -9.5 115.5t-142.5 -15.5l-14 39q133 106 288 107q203 0 148 -271l-84 -416q-41 -205 61 -204q78 0 155 114.5t126 250.5t76 268l43 217h270l-117 -646q-41 -205 62 -204q106 0 234 165.5t155 340.5q-143 143 -143 262q0 55 35 89t98 34z" glyph-name="wcircumflex" horiz-adv-x="1685" unicode="ŵ"/><glyph d="M1073 1815l-258 -170l-12 12l166 227q45 61 77.5 87t73.5 26q37 0 58.5 -26.5t38.5 -90.5l65 -254l-16 -10zM1239 1444h487l-10 -41q-88 -20 -147.5 -61.5t-134.5 -127.5l-459 -526l-121 -522q-14 -59 14.5 -83t139.5 -42l-11 -41h-655l10 41q121 20 160 41.5t53 81.5 l111 481l-232 561q-37 90 -78.5 134t-117.5 63l8 41h709l-13 -41q-131 -20 -166.5 -68.5t2.5 -140.5l158 -414l328 394q59 70 76.5 113.5t-9 73.5t-112.5 42z" glyph-name="Ycircumflex" horiz-adv-x="1538" unicode="Ŷ"/><glyph d="M756 1348l-258 -170l-13 12l166 227q45 61 78 87t74 26q37 0 58.5 -26.5t37.5 -90.5l66 -254l-17 -10zM907 1006q160 0 160 -181q0 -150 -99.5 -362.5t-251 -405t-351 -329t-379.5 -136.5q-162 0 -162 132q0 55 31.5 98t87 43t106.5 -44t86 -114q104 45 223 141 q-57 471 -168 930q-18 80 -39.5 110t-87.5 48l13 41h368q106 -532 140 -909q229 268 311 546q-125 145 -125 254q0 66 37 102t100 36z" glyph-name="ycircumflex" horiz-adv-x="1130" unicode="ŷ"/><glyph d="M831 1675q-45 0 -73.5 29t-28.5 74q0 63 53.5 115.5t116.5 52.5q45 0 75 -30t30 -73q0 -63 -53.5 -115.5t-119.5 -52.5zM1251 1675q-45 0 -73.5 29t-28.5 74q0 63 53 115.5t117 52.5q45 0 73.5 -30t28.5 -73q0 -63 -53.5 -115.5t-116.5 -52.5zM1239 1444h487l-10 -41 q-88 -20 -147.5 -61.5t-134.5 -127.5l-459 -526l-121 -522q-14 -59 14.5 -83t139.5 -42l-11 -41h-655l10 41q121 20 160 41.5t53 81.5l111 481l-232 561q-37 90 -78.5 134t-117.5 63l8 41h709l-13 -41q-131 -20 -166.5 -68.5t2.5 -140.5l158 -414l328 394q59 70 76.5 113.5 t-9 73.5t-112.5 42z" glyph-name="Ydieresis" horiz-adv-x="1538" unicode="Ÿ"/><glyph d="M1108 1806l-234 -211l-14 9l125 286q31 86 86 119t103 10q47 -18 30.5 -85t-96.5 -128zM1372 1444l-16 -66l-1010 -1276h340q68 0 105.5 4.5t93 27t94.5 67.5t86 128t94 208h43l-125 -537h-1083l20 80l998 1261h-328q-55 0 -86 -3t-77 -15t-77.5 -40t-72.5 -75 t-78 -123.5t-76 -183.5h-43l127 543h1071z" glyph-name="Zacute" horiz-adv-x="1265" unicode="Ź"/><glyph d="M868 1339l-233 -211l-14 9l124 286q31 86 86.5 119t102.5 10q47 -18 30.5 -85t-96.5 -128zM631 213q86 0 129 39t82 145l59 -12q-43 -418 -319 -418q-104 0 -243.5 46t-178.5 46q-55 0 -129 -73l-74 67l694 647q-141 59 -280 60q-86 0 -127 -34t-84 -140l-60 12 q47 408 312 408q109 0 240.5 -46.5t170.5 -46.5q59 0 133 74l76 -63l-700 -650q156 -61 299 -61z" glyph-name="zacute" horiz-adv-x="993" unicode="ź"/><glyph d="M899 1653q-53 0 -87 33.5t-34 85.5q0 74 61.5 133t137.5 59q53 0 87 -33t34 -84q0 -72 -61.5 -133t-137.5 -61zM1372 1444l-16 -66l-1010 -1276h340q68 0 105.5 4.5t93 27t94.5 67.5t86 128t94 208h43l-125 -537h-1083l20 80l998 1261h-328q-55 0 -86 -3t-77 -15 t-77.5 -40t-72.5 -75t-78 -123.5t-76 -183.5h-43l127 543h1071z" glyph-name="Zdotaccent" horiz-adv-x="1265" unicode="Ż"/><glyph d="M662 1186q-53 0 -87 33.5t-34 85.5q0 74 61.5 133t136.5 59q53 0 87 -32.5t34 -84.5q0 -72 -61 -133t-137 -61zM631 213q86 0 129 39t82 145l59 -12q-43 -418 -319 -418q-104 0 -243.5 46t-178.5 46q-55 0 -129 -73l-74 67l694 647q-141 59 -280 60q-86 0 -127 -34 t-84 -140l-60 12q47 408 312 408q109 0 240.5 -46.5t170.5 -46.5q59 0 133 74l76 -63l-700 -650q156 -61 299 -61z" glyph-name="zdotaccent" horiz-adv-x="993" unicode="ż"/><glyph d="M893 1616q-39 0 -61.5 26.5t-38.5 92.5l-64 250l19 12l176 -211l295 211l10 -12l-180 -248q-82 -121 -156 -121zM1372 1444l-16 -66l-1010 -1276h340q68 0 105.5 4.5t93 27t94.5 67.5t86 128t94 208h43l-125 -537h-1083l20 80l998 1261h-328q-55 0 -86 -3t-77 -15 t-77.5 -40t-72.5 -75t-78 -123.5t-76 -183.5h-43l127 543h1071z" glyph-name="Zcaron" horiz-adv-x="1265" unicode="Ž"/><glyph d="M653 1149q-39 0 -61.5 26.5t-38.5 92.5l-64 250l19 12l176 -211l295 211l10 -12l-180 -248q-82 -121 -156 -121zM631 213q86 0 129 39t82 145l59 -12q-43 -418 -319 -418q-104 0 -243.5 46t-178.5 46q-55 0 -129 -73l-74 67l694 647q-141 59 -280 60q-86 0 -127 -34 t-84 -140l-60 12q47 408 312 408q109 0 240.5 -46.5t170.5 -46.5q59 0 133 74l76 -63l-700 -650q156 -61 299 -61z" glyph-name="zcaron" horiz-adv-x="993" unicode="ž"/><glyph d="M1153 877h-45q16 133 -6.5 230t-74.5 151.5t-118.5 80t-150.5 25.5q-121 0 -191.5 -58.5t-70.5 -156.5q0 -100 62.5 -161.5t193.5 -115.5q188 -76 287.5 -177t99.5 -277q0 -211 -146.5 -329t-361.5 -118q-193 0 -393 103q-66 31 -100 14.5t-77 -88.5h-34l131 573h43 q-25 -252 93 -372.5t302 -120.5q123 0 203 65.5t80 169.5q0 109 -68 171.5t-207 115.5q-184 72 -276 177.5t-92 273.5q0 182 132 301t349 119q195 0 362 -101q66 -39 95.5 -24.5t74.5 98.5h35zM477 -129q100 0 101 -107q0 -131 -101.5 -232t-240.5 -112v31q176 43 227 205 q-25 -12 -51 -12q-37 0 -58.5 20.5t-21.5 54.5q0 61 44 106.5t101 45.5z" glyph-name="Scommaaccent" horiz-adv-x="1245" unicode="Ș"/><glyph d="M530 909q-80 2 -127 -29.5t-47 -85t38 -93t132 -89.5q135 -68 197.5 -138.5t62.5 -188.5q0 -145 -112.5 -229.5t-300.5 -84.5q-174 0 -273.5 56.5t-99.5 148.5q0 47 27.5 76t72.5 29q115 0 166 -201q45 -10 90 -10q86 0 142.5 37.5t56.5 99.5q0 57 -38 91t-142 85 q-133 66 -192.5 139.5t-59.5 184.5q0 137 107.5 219t295.5 80q147 -2 244.5 -51.5t97.5 -127.5q0 -47 -29.5 -77.5t-76.5 -30.5q-119 0 -166 184q-31 6 -66 6zM305 -129q100 0 101 -107q0 -131 -101.5 -232t-241.5 -112v31q176 43 228 205q-25 -12 -51 -12q-37 0 -58.5 20.5 t-21.5 54.5q0 61 44 106.5t101 45.5z" glyph-name="scommaaccent" horiz-adv-x="917" unicode="ș"/><glyph d="M1524 1444l-129 -547h-43q8 88 7 155.5t-7 114.5t-22.5 80t-35 51.5t-49.5 28.5t-59.5 13t-73.5 3h-78l-270 -1159q-16 -70 18.5 -96.5t161.5 -46.5l-10 -41h-713l10 41q135 20 181.5 45t64.5 98l268 1159h-83q-80 0 -128.5 -11t-104.5 -54t-106.5 -135t-107.5 -246h-45 l129 547h1225zM545 -129q100 0 100 -107q0 -131 -101.5 -232t-240.5 -112v31q176 43 227 205q-25 -12 -51 -12q-37 0 -58.5 20.5t-21.5 54.5q0 61 44.5 106.5t101.5 45.5z" glyph-name="uni021A" horiz-adv-x="1378" unicode="Ț"/><glyph d="M539 889l-144 -621q-45 -182 68 -182q119 0 231 137l41 -39q-158 -213 -385 -213q-291 0 -209 357l131 561h-133l23 88h145l260 289h58l-66 -289h270l-20 -88h-270zM342 -129q100 0 100 -107q0 -131 -101 -232t-241 -112v31q176 43 228 205q-25 -12 -52 -12 q-37 0 -58 20.5t-21 54.5q0 61 44 106.5t101 45.5z" glyph-name="uni021B" horiz-adv-x="796" unicode="ț"/><glyph d="M41 1128l-141 211q-53 66 -42 129.5t72 83.5q59 20 101.5 -12.5t34.5 -124.5l-11 -278z" glyph-name="gravecomb" unicode="̀"/><glyph d="M-133 1128l-14 9l124 286q31 86 86.5 119t102.5 10q47 -18 30.5 -84.5t-96.5 -128.5z" glyph-name="acutecomb" unicode="́"/><glyph d="M82 1159l-16 -10l-193 199l-258 -170l-12 12l166 227q45 61 77.5 87t73.5 26q37 0 58.5 -26.5t37.5 -90.5z" glyph-name="uni0302" unicode="̂"/><glyph d="M-518 1208l-27 9q41 119 108.5 183t149.5 64q66 0 135.5 -50t114.5 -50q80 0 164 102l25 -8q-41 -119 -110 -182.5t-146 -63.5q-68 0 -138.5 50.5t-115.5 50.5q-49 0 -84 -27t-76 -78z" glyph-name="tildecomb" unicode="̃"/><glyph d="M-457 1323l23 96h579l-22 -96h-580z" glyph-name="uni0304" unicode="̄"/><glyph d="M-129 1153q-106 0 -146 85t-4 230h31q-12 -70 27 -122t119 -52q86 0 153.5 51.5t87.5 122.5h31q-31 -150 -110.5 -232.5t-188.5 -82.5z" glyph-name="uni0306" unicode="̆"/><glyph d="M-90 1186q-53 0 -87 33.5t-34 85.5q0 74 61.5 133t137.5 59q53 0 87 -32.5t34 -84.5q0 -72 -61.5 -133t-137.5 -61z" glyph-name="uni0307" unicode="̇"/><glyph d="M-494 1208q-45 0 -73.5 29t-28.5 74q0 63 53.5 115.5t116.5 52.5q45 0 74.5 -30t29.5 -73q0 -63 -54.5 -115.5t-117.5 -52.5zM-74 1208q-45 0 -73.5 29t-28.5 74q0 63 53 115.5t117 52.5q45 0 73.5 -30t28.5 -73q0 -63 -53.5 -115.5t-116.5 -52.5z" glyph-name="uni0308" unicode="̈"/><glyph d="M-182 1090q-88 0 -140.5 52t-52.5 144q0 121 80 200t211 79q88 0 141.5 -51.5t53.5 -141.5q0 -123 -84 -202.5t-209 -79.5zM-168 1180q70 0 120 50t50 132q0 55 -28.5 85t-73.5 30q-66 0 -116 -51.5t-50 -133.5q0 -55 27.5 -83.5t70.5 -28.5z" glyph-name="uni030A" unicode="̊"/><glyph d="M-434 1130l-17 5l45 256q10 104 52.5 148t99.5 40q39 -2 52.5 -30.5t-6 -80t-71.5 -112.5zM-186 1128l-15 11l164 264q51 84 107.5 107.5t89.5 -7.5q39 -27 10 -89t-117 -116z" glyph-name="uni030B" unicode="̋"/><glyph d="M156 1530l10 -12l-180 -248q-82 -121 -156 -121q-39 0 -61.5 26.5t-38.5 92.5l-64 250l19 12l176 -211z" glyph-name="uni030C" unicode="̌"/><glyph d="M201 1595q-176 -43 -228 -202q27 10 52 10q37 0 58 -19.5t21 -54.5q0 -61 -44 -107t-101 -46q-51 0 -76.5 30.5t-25.5 75.5q0 131 102 233.5t242 112.5v-33z" glyph-name="uni0312" unicode="̒"/><glyph d="M-358 -129q100 0 100 -107q0 -131 -101.5 -232t-240.5 -112v31q176 43 227 205q-25 -12 -51 -12q-37 0 -58.5 20.5t-21.5 54.5q0 61 44.5 106.5t101.5 45.5z" glyph-name="uni0326" unicode="̦"/><glyph d="M-461 -119q231 12 232 -139q0 -78 -68 -129t-174 -51q-113 0 -178.5 49t-85.5 121l16 18q66 -82 184 -82q135 0 136 74q0 72 -174 76l2 18l82 174h88z" glyph-name="uni0327" unicode="̧"/><glyph d="M-565 -442q-133 0 -133 125q0 115 138 212t337 125l22 -16q-158 -49 -237.5 -132t-79.5 -146q0 -61 59 -62q98 0 176 66l9 -13q-47 -70 -126 -114.5t-165 -44.5z" glyph-name="uni0328" unicode="̨"/><glyph d="M1579 1595l-141 211q-53 66 -42 129.5t72 83.5q59 20 101.5 -12.5t34.5 -124.5l-11 -278zM2310 1444h492l-11 -41q-86 -20 -129 -59t-102 -140l-715 -1204h-315l-82 1147l-604 -1147h-312l-163 1188q-14 111 -37 149.5t-99 65.5l9 41h647l-10 -41q-154 -27 -196 -67 t-28 -142l148 -1057l549 1057q53 92 28.5 136t-157.5 73l10 41h725l-8 -41q-145 -25 -183 -65t-32 -144l73 -1057l621 1057q20 35 30.5 56.5t11.5 47t-15.5 43t-54.5 34t-101 28.5z" glyph-name="Wgrave" horiz-adv-x="2600" unicode="Ẁ"/><glyph d="M1057 1128l-142 211q-53 66 -41.5 129.5t72.5 83.5q59 20 101.5 -12.5t33.5 -124.5l-10 -278zM1481 1006q166 0 159 -230q-4 -178 -92 -364.5t-235.5 -313.5t-304.5 -127q-113 0 -177.5 63.5t-66.5 190.5q-143 -254 -371 -254q-141 0 -207.5 104.5t-23.5 307.5l78 377 q20 94 -9.5 115.5t-142.5 -15.5l-14 39q133 106 288 107q203 0 148 -271l-84 -416q-41 -205 61 -204q78 0 155 114.5t126 250.5t76 268l43 217h270l-117 -646q-41 -205 62 -204q106 0 234 165.5t155 340.5q-143 143 -143 262q0 55 35 89t98 34z" glyph-name="wgrave" horiz-adv-x="1685" unicode="ẁ"/><glyph d="M1776 1806l-234 -211l-14 9l125 286q31 86 86 119t102 10q47 -18 31 -85t-96 -128zM2310 1444h492l-11 -41q-86 -20 -129 -59t-102 -140l-715 -1204h-315l-82 1147l-604 -1147h-312l-163 1188q-14 111 -37 149.5t-99 65.5l9 41h647l-10 -41q-154 -27 -196 -67t-28 -142 l148 -1057l549 1057q53 92 28.5 136t-157.5 73l10 41h725l-8 -41q-145 -25 -183 -65t-32 -144l73 -1057l621 1057q20 35 30.5 56.5t11.5 47t-15.5 43t-54.5 34t-101 28.5z" glyph-name="Wacute" horiz-adv-x="2600" unicode="Ẃ"/><glyph d="M1253 1339l-233 -211l-14 9l124 286q31 86 86.5 119t102.5 10q47 -18 30.5 -85t-96.5 -128zM1481 1006q166 0 159 -230q-4 -178 -92 -364.5t-235.5 -313.5t-304.5 -127q-113 0 -177.5 63.5t-66.5 190.5q-143 -254 -371 -254q-141 0 -207.5 104.5t-23.5 307.5l78 377 q20 94 -9.5 115.5t-142.5 -15.5l-14 39q133 106 288 107q203 0 148 -271l-84 -416q-41 -205 61 -204q78 0 155 114.5t126 250.5t76 268l43 217h270l-117 -646q-41 -205 62 -204q106 0 234 165.5t155 340.5q-143 143 -143 262q0 55 35 89t98 34z" glyph-name="wacute" horiz-adv-x="1685" unicode="ẃ"/><glyph d="M1362 1675q-45 0 -73.5 29t-28.5 74q0 63 53 115.5t117 52.5q45 0 74.5 -30t29.5 -73q0 -63 -54.5 -115.5t-117.5 -52.5zM1782 1675q-45 0 -74 29t-29 74q0 63 53.5 115.5t116.5 52.5q45 0 74 -30t29 -73q0 -63 -53.5 -115.5t-116.5 -52.5zM2310 1444h492l-11 -41 q-86 -20 -129 -59t-102 -140l-715 -1204h-315l-82 1147l-604 -1147h-312l-163 1188q-14 111 -37 149.5t-99 65.5l9 41h647l-10 -41q-154 -27 -196 -67t-28 -142l148 -1057l549 1057q53 92 28.5 136t-157.5 73l10 41h725l-8 -41q-145 -25 -183 -65t-32 -144l73 -1057 l621 1057q20 35 30.5 56.5t11.5 47t-15.5 43t-54.5 34t-101 28.5z" glyph-name="Wdieresis" horiz-adv-x="2600" unicode="Ẅ"/><glyph d="M840 1208q-45 0 -74 29t-29 74q0 63 53.5 115.5t116.5 52.5q45 0 75 -30t30 -73q0 -63 -54.5 -115.5t-117.5 -52.5zM1260 1208q-45 0 -74 29t-29 74q0 63 53.5 115.5t116.5 52.5q45 0 74 -30t29 -73q0 -63 -53.5 -115.5t-116.5 -52.5zM1481 1006q166 0 159 -230 q-4 -178 -92 -364.5t-235.5 -313.5t-304.5 -127q-113 0 -177.5 63.5t-66.5 190.5q-143 -254 -371 -254q-141 0 -207.5 104.5t-23.5 307.5l78 377q20 94 -9.5 115.5t-142.5 -15.5l-14 39q133 106 288 107q203 0 148 -271l-84 -416q-41 -205 61 -204q78 0 155 114.5t126 250.5 t76 268l43 217h270l-117 -646q-41 -205 62 -204q106 0 234 165.5t155 340.5q-143 143 -143 262q0 55 35 89t98 34z" glyph-name="wdieresis" horiz-adv-x="1685" unicode="ẅ"/><glyph d="M1630 1444l-18 -86l-463 -563q186 -33 284.5 -128.5t98.5 -248.5q0 -207 -149.5 -327t-381.5 -120q-166 0 -264 67.5t-98 156.5q0 61 39 102t94 41q141 0 152 -266h4q139 0 228 95t89 245q0 152 -109.5 230.5t-301.5 76.5l18 78l434 544h-514l-307 -1341h-473l10 41 q125 23 162 43t51 82l256 1112q14 59 -15.5 82.5t-140.5 42.5l11 41h1304z" glyph-name="uni1E9E" horiz-adv-x="1601" unicode="ẞ"/><glyph d="M1047 1595l-142 211q-53 66 -42 129.5t73 83.5q59 20 101 -12.5t34 -124.5l-10 -278zM1239 1444h487l-10 -41q-88 -20 -147.5 -61.5t-134.5 -127.5l-459 -526l-121 -522q-14 -59 14.5 -83t139.5 -42l-11 -41h-655l10 41q121 20 160 41.5t53 81.5l111 481l-232 561 q-37 90 -78.5 134t-117.5 63l8 41h709l-13 -41q-131 -20 -166.5 -68.5t2.5 -140.5l158 -414l328 394q59 70 76.5 113.5t-9 73.5t-112.5 42z" glyph-name="Ygrave" horiz-adv-x="1538" unicode="Ỳ"/><glyph d="M729 1128l-141 211q-53 66 -42 129.5t72 83.5q59 20 101.5 -12.5t34.5 -124.5l-11 -278zM907 1006q160 0 160 -181q0 -150 -99.5 -362.5t-251 -405t-351 -329t-379.5 -136.5q-162 0 -162 132q0 55 31.5 98t87 43t106.5 -44t86 -114q104 45 223 141q-57 471 -168 930 q-18 80 -39.5 110t-87.5 48l13 41h368q106 -532 140 -909q229 268 311 546q-125 145 -125 254q0 66 37 102t100 36z" glyph-name="ygrave" horiz-adv-x="1130" unicode="ỳ"/><glyph d="M164 537l24 96h1069l-22 -96h-1071z" glyph-name="endash" horiz-adv-x="1372" unicode="–"/><glyph d="M164 537l24 96h1516l-23 -96h-1517z" glyph-name="emdash" horiz-adv-x="1818" unicode="—"/><glyph d="M422 1249q37 0 59.5 -20.5t22.5 -57.5q0 -63 -46 -110t-110 -47q-53 0 -80.5 32.5t-27.5 83.5q0 145 109.5 270.5t258.5 151.5l2 -34q-184 -80 -225 -273q25 4 37 4z" glyph-name="quoteleft" horiz-adv-x="438" unicode="‘"/><glyph d="M457 1550q109 0 108 -116q0 -147 -109.5 -272.5t-258.5 -149.5l-2 35q182 76 227 272q-18 -6 -39 -6q-37 0 -59.5 21.5t-22.5 56.5q0 66 46.5 112.5t109.5 46.5z" glyph-name="quoteright" horiz-adv-x="438" unicode="’"/><glyph d="M135 240q115 0 115 -136q0 -170 -115 -303t-291 -163l-6 36q104 33 182 115t103 199q-29 -16 -68 -17q-41 0 -65.5 24.5t-24.5 65.5q0 72 51 125.5t119 53.5z" glyph-name="quotesinglbase" horiz-adv-x="407" unicode="‚"/><glyph d="M420 1241q37 0 59.5 -21.5t22.5 -56.5q0 -63 -46 -110t-110 -47q-109 0 -108 116q0 145 109.5 270.5t258.5 151.5l2 -35q-184 -80 -225 -272q25 4 37 4zM772 1241q37 0 59.5 -21.5t22.5 -56.5q0 -63 -46 -110t-110 -47q-109 0 -108 116q0 145 109.5 270.5t258.5 151.5 l3 -35q-186 -80 -228 -274q19 6 39 6z" glyph-name="quotedblleft" horiz-adv-x="790" unicode="“"/><glyph d="M457 1550q109 0 108 -116q0 -147 -109.5 -272.5t-258.5 -149.5l-2 35q182 76 227 272q-18 -6 -39 -6q-37 0 -59.5 21.5t-22.5 56.5q0 66 46.5 112.5t109.5 46.5zM809 1550q53 0 81 -32.5t28 -83.5q0 -147 -110 -272.5t-259 -149.5l-2 35q180 74 225 270q-25 -4 -37 -4 q-37 0 -59.5 21.5t-22.5 56.5q0 66 46.5 112.5t109.5 46.5z" glyph-name="quotedblright" horiz-adv-x="790" unicode="”"/><glyph d="M143 240q115 0 115 -136q0 -170 -114.5 -303t-290.5 -163l-7 36q104 33 182 115t103 199q-29 -16 -68 -17q-41 0 -65.5 24.5t-24.5 65.5q0 72 51 125.5t119 53.5zM496 240q117 0 116 -136q0 -168 -114.5 -302t-290.5 -164l-6 36q102 33 180 115t102 199q-29 -16 -65 -17 q-43 0 -67.5 24.5t-24.5 65.5q0 72 51 125.5t119 53.5z" glyph-name="quotedblbase" horiz-adv-x="768" unicode="„"/><glyph d="M979 1106l-21 -94h-317l-156 -690h-110l155 690h-313l21 94h315l76 338h110l-75 -338h315z" glyph-name="dagger" horiz-adv-x="933" unicode="†"/><glyph d="M967 1083h-308l-90 -403h320l-21 -94h-321l-60 -264h-112l59 264h-307l20 94h310l90 403h-322l19 95h325l60 266h112l-59 -266h305z" glyph-name="daggerdbl" horiz-adv-x="931" unicode="‡"/><glyph d="M332 494q-72 0 -118 46t-46 113q0 104 79 185.5t187 81.5q72 0 118 -47.5t46 -116.5q0 -100 -78.5 -181t-187.5 -81z" glyph-name="bullet" horiz-adv-x="690" unicode="•"/><glyph d="M133 -25q-49 0 -78.5 31t-29.5 76q0 70 52 123t124 53q47 0 78.5 -30.5t31.5 -75.5q0 -68 -53 -122.5t-125 -54.5zM494 -25q-49 0 -79 31t-30 76q0 70 52 123t124 53q47 0 79 -30.5t32 -75.5q0 -68 -53 -122.5t-125 -54.5zM918 -25q-49 0 -79 31t-30 76q0 70 52 123 t124 53q47 0 79 -30.5t32 -75.5q0 -68 -53 -122.5t-125 -54.5z" glyph-name="ellipsis" horiz-adv-x="1284" unicode="…"/><glyph d="M457 819q-131 0 -208 58.5t-77 171.5q0 182 125 303t311 121q131 0 208 -59.5t77 -172.5q0 -180 -125 -301t-311 -121zM25 0l1441 1444h164l-1442 -1444h-163zM477 907q72 0 131.5 113t59.5 246q0 119 -82 118q-70 0 -129.5 -113.5t-59.5 -244.5q0 -119 80 -119zM956 -29 q-131 0 -207.5 59.5t-76.5 172.5q0 180 125 302t311 122q131 0 208 -59.5t77 -172.5q0 -182 -125.5 -303t-311.5 -121zM1720 -29q-133 0 -209.5 59.5t-76.5 172.5q0 182 124.5 303t311.5 121q131 0 207.5 -59.5t76.5 -172.5q0 -180 -124 -302t-310 -122zM977 59 q72 0 131 114t59 245q0 121 -82 121q-70 0 -129 -114t-59 -245q0 -121 80 -121zM1741 59q70 0 130 114t60 245q0 121 -82 121q-70 0 -130 -113t-60 -246q0 -121 82 -121z" glyph-name="perthousand" horiz-adv-x="2308" unicode="‰"/><glyph d="M643 834l-313 -289l178 -295l-25 -27l-250 164q-90 59 -90 121q0 35 13.5 63.5t44 53t50 36t60.5 31.5l320 170z" glyph-name="guilsinglleft" horiz-adv-x="718" unicode="‹"/><glyph d="M510 696q92 -57 92 -121q0 -35 -13.5 -63.5t-45 -52t-50 -35.5t-59.5 -33l-319 -168l-13 27l316 291l-180 293l24 28z" glyph-name="guilsinglright" horiz-adv-x="720" unicode="›"/><glyph d="M-106 0l1441 1444h164l-1442 -1444h-163z" glyph-name="fraction" horiz-adv-x="1280" unicode="⁄"/><glyph d="M1505 1450h37l-131 -571h-55q33 244 -51 365.5t-234 121.5q-127 0 -246.5 -113.5t-199.5 -302.5h460l-26 -102h-473q-33 -98 -54 -223h474l-25 -103h-459q-2 -27 -2 -78q0 -346 287 -346q139 0 272 96.5t211 233.5l45 -12q-80 -178 -256 -311.5t-399 -133.5 q-211 0 -331 125t-120 357q0 47 2 69h-180l23 103h168q16 104 57 223h-168l27 102h184q111 233 298 378t396 145q133 0 277 -80q57 -39 101 -30t91 87z" glyph-name="Euro" horiz-adv-x="1425" unicode="€"/><glyph d="M1104 1059h-45q6 102 -4.5 167.5t-39 94.5t-57 38t-77.5 9h-2l-136 -590v2q-14 -59 15.5 -82.5t136.5 -42.5l-10 -41h-594l10 41q109 18 150 40t55 71l139 602h-2q-47 0 -80 -8t-76 -37t-82.5 -94.5t-82.5 -169.5h-43l88 385h825zM2193 1444h410l-10 -41 q-96 -23 -128 -45.5t-46 -79.5l-107 -465q-16 -72 12.5 -103.5t96.5 -54.5l-11 -41h-532l10 41q92 23 122 49.5t48 108.5l111 473l-453 -600h-80l-178 559l-92 -401q-20 -86 9.5 -126t109.5 -63l-10 -41h-412l10 41q49 14 73.5 23.5t54.5 29t47.5 52.5t29.5 84l100 434 q12 59 -8 82.5t-104 42.5l8 41h377l174 -514z" glyph-name="trademark" horiz-adv-x="2564" unicode="™"/><glyph d="M588 762l-8 -35h-478l9 35q76 8 99 21.5t28 39.5l112 496h-112l12 49l86 10q184 20 252 72h43l-144 -627q-4 -12 -3 -21t9.5 -15.5t31 -12.5t63.5 -12zM1456 1444h162l-1442 -1444h-162zM1296 731q295 0 295 -131q0 -66 -65.5 -111t-167.5 -61q190 -66 190 -195 q0 -119 -122.5 -184t-338.5 -65q-168 0 -244.5 44t-68.5 119q16 143 246 185q-121 66 -121 166q0 106 109.5 169.5t287.5 63.5zM1276 451q123 49 123 135q0 70 -115 69q-68 0 -115 -23.5t-47 -70.5q0 -35 35 -59t119 -51zM1114 57q94 0 151.5 30t57.5 77q0 37 -38 61.5 t-124 50.5q-31 8 -67 23q-131 -53 -131 -152q-1 -90 151 -90z" glyph-name="oneeighth" horiz-adv-x="1650" unicode="⅛"/><glyph d="M418 723q-131 0 -217 32.5t-86 94.5q0 43 31.5 72.5t70.5 29.5q100 0 115 -151q25 -6 57 -6q96 0 151.5 43t55.5 108q0 106 -186 107h-103l19 86h96q111 0 177.5 45t66.5 123q0 92 -117 92q-57 0 -90 -10q-18 -68 -61.5 -117t-108.5 -51q-63 0 -64 51q0 76 121 137 t291 61q285 0 285 -153q0 -172 -306 -213q233 -27 234 -164q0 -96 -114.5 -156.5t-317.5 -60.5zM1540 1444h162l-1442 -1444h-162zM1372 731q295 0 295 -131q0 -66 -65.5 -111t-167.5 -63q193 -63 192 -193q0 -117 -123 -183t-338 -66q-170 0 -246.5 44t-68.5 119 q16 143 246 185q-121 68 -121 166q0 106 109.5 169.5t287.5 63.5zM1352 451q123 49 123 135q0 70 -115 69q-68 0 -114 -23.5t-46 -70.5q0 -63 152 -110zM1190 57q94 0 151.5 30t57.5 77q0 37 -38 61.5t-124 50.5q-31 8 -68 23q-131 -55 -131 -152q0 -90 152 -90z" glyph-name="threeeighths" horiz-adv-x="1726" unicode="⅜"/><glyph d="M1522 1444h161l-1441 -1444h-162zM428 711q-133 0 -211 37.5t-78 99.5q0 41 27 68.5t65 27.5q96 0 105 -153q20 -6 55 -7q88 0 146.5 50.5t58.5 121.5q0 106 -121 107q-123 0 -194 -53l-58 18l101 416h587l-43 -176h-493l-45 -176q127 61 276 61q117 0 182.5 -46 t65.5 -132q0 -121 -119 -192.5t-307 -71.5zM1329 731q293 0 293 -131q0 -66 -65.5 -111t-167.5 -63q193 -63 192 -193q0 -119 -123 -184t-338 -65q-170 0 -245.5 44t-69.5 119q18 143 248 185q-121 68 -121 166q0 106 108.5 169.5t288.5 63.5zM1309 451q123 49 123 135 q0 70 -117 69q-68 0 -114 -23.5t-46 -70.5q0 -35 35 -59t119 -51zM1145 57q94 0 151.5 30t57.5 77q0 37 -38 61.5t-124 50.5q-25 6 -66 23q-133 -53 -133 -152q0 -90 152 -90z" glyph-name="fiveeighths" horiz-adv-x="1683" unicode="⅝"/><glyph d="M1417 1444h162l-1442 -1444h-164zM227 729l484 526h-510l43 189h647l-21 -92l-407 -623h-236zM1270 731q295 0 295 -131q0 -66 -65.5 -111t-168.5 -63q193 -63 193 -193q0 -117 -123 -183t-338 -66q-170 0 -247 44t-68 119q16 143 247 185q-121 66 -121 166 q0 106 109 169.5t287 63.5zM1251 451q123 49 123 135q0 70 -117 69q-68 0 -113.5 -23.5t-45.5 -70.5q0 -35 34.5 -59t118.5 -51zM1087 57q94 0 151.5 30t57.5 77q0 37 -37.5 61.5t-123.5 50.5q-18 4 -68 23q-131 -55 -131 -152q-1 -90 151 -90z" glyph-name="seveneighths" horiz-adv-x="1626" unicode="⅞"/><glyph d="M188 666l23 96h831l-22 -96h-832z" glyph-name="minus" horiz-adv-x="1124" unicode="−"/><glyph glyph-name="approxequal" horiz-adv-x="1130" unicode="≈"/><glyph d="M1085 868h-284l-252 -321h463l-23 -98h-518l-137 -177h-111l139 177h-223l23 98h278l252 321h-454l20 99h512l148 186h106l-145 -186h229z" glyph-name="notequal" horiz-adv-x="1142" unicode="≠"/><glyph d="M1149 1022l-811 -317l625 -308l-25 -96l-737 365l-8 84l913 358zM-8 121l22 92h936l-22 -92h-936z" glyph-name="lessequal" horiz-adv-x="1116" unicode="≤"/><glyph d="M131 375l-33 90l787 270l-629 269l23 98l749 -324l6 -84zM0 121l20 92h934l-18 -92h-936z" glyph-name="greaterequal" horiz-adv-x="1095" unicode="≥"/><glyph glyph-name="lozenge" horiz-adv-x="1130" unicode="◊"/><glyph d="M2179 1384q-16 2 -51 2h-12l145 -1130q14 -102 37.5 -146t97.5 -69l-10 -41h-645l8 41q156 25 196 74t25 166l-28 221h-631q-268 -385 -485.5 -542t-440.5 -157q-186 0 -306 121t-120 332q0 106 45 212.5t141.5 185.5t219.5 79q160 0 159 -133q0 -61 -49 -103t-139 -36 t-189 80q-90 -115 -90 -260q0 -135 81 -221.5t247 -86.5q225 0 438 162t484 547l268 408q70 102 118 161.5t115.5 115.5t146.5 81t181 25q156 0 249 -45.5t93 -129.5q0 -47 -27.5 -75.5t-76.5 -28.5q-76 0 -125.5 53t-69.5 137zM1929 602l-88 668q-68 -68 -153 -203 l-308 -465h549z" glyph-name="A.swash" horiz-adv-x="2502"/><glyph d="M2279 1806l-233 -211l-14 9l125 286q31 86 86 119t102 10q47 -18 30.5 -85t-96.5 -128zM2179 1384q-16 2 -51 2h-12l145 -1130q14 -102 37.5 -146t97.5 -69l-10 -41h-645l8 41q156 25 196 74t25 166l-28 221h-631q-268 -385 -485.5 -542t-440.5 -157q-186 0 -306 121 t-120 332q0 106 45 212.5t141.5 185.5t219.5 79q160 0 159 -133q0 -61 -49 -103t-139 -36t-189 80q-90 -115 -90 -260q0 -135 81 -221.5t247 -86.5q225 0 438 162t484 547l268 408q70 102 118 161.5t115.5 115.5t146.5 81t181 25q156 0 249 -45.5t93 -129.5 q0 -47 -27.5 -75.5t-76.5 -28.5q-76 0 -125.5 53t-69.5 137zM1929 602l-88 668q-68 -68 -153 -203l-308 -465h549z" glyph-name="Aacute.swash" horiz-adv-x="2502"/><glyph d="M2064.5 1620q-106.5 0 -146.5 87t-3 228h31q-12 -70 27.5 -122t125.5 -52q88 0 149.5 50.5t84.5 123.5h30q-29 -141 -110.5 -228t-188 -87zM2179 1384q-16 2 -51 2h-12l145 -1130q14 -102 37.5 -146t97.5 -69l-10 -41h-645l8 41q156 25 196 74t25 166l-28 221h-631 q-268 -385 -485.5 -542t-440.5 -157q-186 0 -306 121t-120 332q0 106 45 212.5t141.5 185.5t219.5 79q160 0 159 -133q0 -61 -49 -103t-139 -36t-189 80q-90 -115 -90 -260q0 -135 81 -221.5t247 -86.5q225 0 438 162t484 547l268 408q70 102 118 161.5t115.5 115.5 t146.5 81t181 25q156 0 249 -45.5t93 -129.5q0 -47 -27.5 -75.5t-76.5 -28.5q-76 0 -125.5 53t-69.5 137zM1929 602l-88 668q-68 -68 -153 -203l-308 -465h549z" glyph-name="Abreve.swash" horiz-adv-x="2502"/><glyph d="M2109 1812l-280 -196l-10 10l178 250q88 121 157.5 121t98.5 -121l63 -250l-16 -10zM2179 1384q-16 2 -51 2h-12l145 -1130q14 -102 37.5 -146t97.5 -69l-10 -41h-645l8 41q156 25 196 74t25 166l-28 221h-631q-268 -385 -485.5 -542t-440.5 -157q-186 0 -306 121 t-120 332q0 106 45 212.5t141.5 185.5t219.5 79q160 0 159 -133q0 -61 -49 -103t-139 -36t-189 80q-90 -115 -90 -260q0 -135 81 -221.5t247 -86.5q225 0 438 162t484 547l268 408q70 102 118 161.5t115.5 115.5t146.5 81t181 25q156 0 249 -45.5t93 -129.5 q0 -47 -27.5 -75.5t-76.5 -28.5q-76 0 -125.5 53t-69.5 137zM1929 602l-88 668q-68 -68 -153 -203l-308 -465h549z" glyph-name="Acircumflex.swash" horiz-adv-x="2502"/><glyph d="M1866 1675q-45 0 -74 29t-29 74q0 63 53.5 115.5t116.5 52.5q45 0 75 -30t30 -73q0 -63 -54.5 -115.5t-117.5 -52.5zM2286 1675q-45 0 -74 29t-29 74q0 63 53.5 115.5t116.5 52.5q45 0 74 -30t29 -73q0 -63 -53.5 -115.5t-116.5 -52.5zM2179 1384q-16 2 -51 2h-12 l145 -1130q14 -102 37.5 -146t97.5 -69l-10 -41h-645l8 41q156 25 196 74t25 166l-28 221h-631q-268 -385 -485.5 -542t-440.5 -157q-186 0 -306 121t-120 332q0 106 45 212.5t141.5 185.5t219.5 79q160 0 159 -133q0 -61 -49 -103t-139 -36t-189 80q-90 -115 -90 -260 q0 -135 81 -221.5t247 -86.5q225 0 438 162t484 547l268 408q70 102 118 161.5t115.5 115.5t146.5 81t181 25q156 0 249 -45.5t93 -129.5q0 -47 -27.5 -75.5t-76.5 -28.5q-76 0 -125.5 53t-69.5 137zM1929 602l-88 668q-68 -68 -153 -203l-308 -465h549z" glyph-name="Adieresis.swash" horiz-adv-x="2502"/><glyph d="M2095 1595l-141 211q-51 66 -36 127.5t75 85.5q57 23 96 -10t31 -119l-11 -286zM2179 1384q-16 2 -51 2h-12l145 -1130q14 -102 37.5 -146t97.5 -69l-10 -41h-645l8 41q156 25 196 74t25 166l-28 221h-631q-268 -385 -485.5 -542t-440.5 -157q-186 0 -306 121t-120 332 q0 106 45 212.5t141.5 185.5t219.5 79q160 0 159 -133q0 -61 -49 -103t-139 -36t-189 80q-90 -115 -90 -260q0 -135 81 -221.5t247 -86.5q225 0 438 162t484 547l268 408q70 102 118 161.5t115.5 115.5t146.5 81t181 25q156 0 249 -45.5t93 -129.5q0 -47 -27.5 -75.5 t-76.5 -28.5q-76 0 -125.5 53t-69.5 137zM1929 602l-88 668q-68 -68 -153 -203l-308 -465h549z" glyph-name="Agrave.swash" horiz-adv-x="2502"/><glyph d="M2419 1886l-23 -96h-579l22 96h580zM2179 1384q-16 2 -51 2h-12l145 -1130q14 -102 37.5 -146t97.5 -69l-10 -41h-645l8 41q156 25 196 74t25 166l-28 221h-631q-268 -385 -485.5 -542t-440.5 -157q-186 0 -306 121t-120 332q0 106 45 212.5t141.5 185.5t219.5 79 q160 0 159 -133q0 -61 -49 -103t-139 -36t-189 80q-90 -115 -90 -260q0 -135 81 -221.5t247 -86.5q225 0 438 162t484 547l268 408q70 102 118 161.5t115.5 115.5t146.5 81t181 25q156 0 249 -45.5t93 -129.5q0 -47 -27.5 -75.5t-76.5 -28.5q-76 0 -125.5 53t-69.5 137z M1929 602l-88 668q-68 -68 -153 -203l-308 -465h549z" glyph-name="Amacron.swash" horiz-adv-x="2502"/><glyph d="M2179 1384q-16 2 -51 2h-12l145 -1130q14 -102 37.5 -146t97.5 -69l-10 -39l2 -2q-160 -49 -238.5 -130t-78.5 -151q0 -59 67 -59q90 0 168 57l8 -12q-45 -63 -124 -107t-160 -44q-139 0 -140 120q0 104 107.5 194.5t277.5 131.5h-534l8 41q156 25 196 74t25 166l-28 221 h-631q-268 -385 -485.5 -542t-440.5 -157q-186 0 -306 121t-120 332q0 106 45 212.5t141.5 185.5t219.5 79q160 0 159 -133q0 -61 -49 -103t-139 -36t-189 80q-90 -115 -90 -260q0 -135 81 -221.5t247 -86.5q225 0 438 162t484 547l268 408q70 102 118 161.5t115.5 115.5 t146.5 81t181 25q156 0 249 -45.5t93 -129.5q0 -47 -27.5 -75.5t-76.5 -28.5q-76 0 -125.5 53t-69.5 137zM1929 602l-88 668q-68 -68 -153 -203l-308 -465h549z" glyph-name="Aogonek.swash" horiz-adv-x="2502"/><glyph d="M2056 1579q-76 0 -124 46t-48 120q0 113 84 200t193 87q78 0 125 -45t47 -121q0 -113 -84 -200t-193 -87zM2142 1952q-66 0 -117 -57.5t-51 -131.5q0 -49 29 -76.5t72 -27.5q66 0 117 57.5t51 130.5q0 49 -29 77t-72 28zM2179 1384q-16 2 -51 2h-12l145 -1130 q14 -102 37.5 -146t97.5 -69l-10 -41h-645l8 41q156 25 196 74t25 166l-28 221h-631q-268 -385 -485.5 -542t-440.5 -157q-186 0 -306 121t-120 332q0 106 45 212.5t141.5 185.5t219.5 79q160 0 159 -133q0 -61 -49 -103t-139 -36t-189 80q-90 -115 -90 -260 q0 -135 81 -221.5t247 -86.5q225 0 438 162t484 547l268 408q70 102 118 161.5t115.5 115.5t146.5 81t181 25q156 0 249 -45.5t93 -129.5q0 -47 -27.5 -75.5t-76.5 -28.5q-76 0 -125.5 53t-69.5 137zM1929 602l-88 668q-68 -68 -153 -203l-308 -465h549z" glyph-name="Aring.swash" horiz-adv-x="2502"/><glyph d="M1950 1780q-33 0 -65 -16.5t-49 -35t-48 -53.5l-27 8q49 115 118 181.5t146 66.5q59 0 126 -50t116 -50q78 0 166 102l25 -8q-49 -115 -120 -180.5t-145 -65.5q-63 0 -128.5 50.5t-114.5 50.5zM2179 1384q-16 2 -51 2h-12l145 -1130q14 -102 37.5 -146t97.5 -69l-10 -41 h-645l8 41q156 25 196 74t25 166l-28 221h-631q-268 -385 -485.5 -542t-440.5 -157q-186 0 -306 121t-120 332q0 106 45 212.5t141.5 185.5t219.5 79q160 0 159 -133q0 -61 -49 -103t-139 -36t-189 80q-90 -115 -90 -260q0 -135 81 -221.5t247 -86.5q225 0 438 162t484 547 l268 408q70 102 118 161.5t115.5 115.5t146.5 81t181 25q156 0 249 -45.5t93 -129.5q0 -47 -27.5 -75.5t-76.5 -28.5q-76 0 -125.5 53t-69.5 137zM1929 602l-88 668q-68 -68 -153 -203l-308 -465h549z" glyph-name="Atilde.swash" horiz-adv-x="2502"/><glyph d="M1649 752q332 -25 331 -281q0 -223 -178 -347t-489 -124h-723l8 41q111 18 154 38.5t57 67.5l274 1194h-4q-332 0 -555 -135t-225 -368q-2 -117 50 -193t153 -82q33 100 82 154.5t108 54.5q47 0 71.5 -27.5t24.5 -70.5q0 -96 -94 -146.5t-202 -50.5q-186 0 -293 95.5 t-107 254.5q0 158 86 281t229.5 193.5t312.5 106.5t355 36h604q203 0 293 -65.5t90 -207.5q0 -145 -113.5 -261.5t-299.5 -157.5zM1548 1341h-180l-127 -546h162q158 0 264.5 105.5t106.5 258.5q0 90 -51.5 136t-174.5 46zM1243 100q209 0 331 104.5t122 260.5 q0 229 -289 229h-188l-138 -594h162z" glyph-name="B.swash" horiz-adv-x="2072"/><glyph d="M1458 1192q4 -68 -27.5 -112t-89.5 -48q-92 -8 -139 81t-39 233q-63 23 -112 22q-256 0 -441.5 -284.5t-185.5 -690.5q0 -193 69.5 -304.5t198.5 -111.5q211 0 365 191q-45 98 -47 199q0 68 37.5 108.5t99.5 40.5q106 0 106 -121q0 -90 -50 -190.5t-133 -184t-205 -139 t-253 -55.5q-223 0 -355 151.5t-132 401.5q0 291 122 544t329.5 401.5t449.5 148.5q213 0 316.5 -87.5t115.5 -193.5z" glyph-name="C.swash" horiz-adv-x="1398"/><glyph d="M1282 1806l-233 -211l-15 9l125 286q31 86 86 119t103 10q47 -18 30.5 -85t-96.5 -128zM1458 1192q4 -68 -27.5 -112t-89.5 -48q-92 -8 -139 81t-39 233q-63 23 -112 22q-256 0 -441.5 -284.5t-185.5 -690.5q0 -193 69.5 -304.5t198.5 -111.5q211 0 365 191 q-45 98 -47 199q0 68 37.5 108.5t99.5 40.5q106 0 106 -121q0 -90 -50 -190.5t-133 -184t-205 -139t-253 -55.5q-223 0 -355 151.5t-132 401.5q0 291 122 544t329.5 401.5t449.5 148.5q213 0 316.5 -87.5t115.5 -193.5z" glyph-name="Cacute.swash" horiz-adv-x="1398"/><glyph d="M1069 1616q-39 0 -61.5 26.5t-38.5 92.5l-64 250l19 12l190 -199l281 199l10 -12l-180 -248q-82 -121 -156 -121zM1458 1192q4 -68 -27.5 -112t-89.5 -48q-92 -8 -139 81t-39 233q-63 23 -112 22q-256 0 -441.5 -284.5t-185.5 -690.5q0 -193 69.5 -304.5t198.5 -111.5 q211 0 365 191q-45 98 -47 199q0 68 37.5 108.5t99.5 40.5q106 0 106 -121q0 -90 -50 -190.5t-133 -184t-205 -139t-253 -55.5q-223 0 -355 151.5t-132 401.5q0 291 122 544t329.5 401.5t449.5 148.5q213 0 316.5 -87.5t115.5 -193.5z" glyph-name="Ccaron.swash" horiz-adv-x="1398"/><glyph d="M1458 1192q4 -68 -27.5 -112t-89.5 -48q-92 -8 -139 81t-39 233q-63 23 -112 22q-256 0 -441.5 -284.5t-185.5 -690.5q0 -193 69.5 -304.5t198.5 -111.5q211 0 365 191q-45 98 -47 199q0 68 37.5 108.5t99.5 40.5q106 0 106 -121q0 -90 -50 -190.5t-133 -184t-205 -139 t-253 -55.5h-14l-39 -68q207 12 207 -112q0 -88 -72.5 -147.5t-177.5 -59.5q-188 0 -235 170l16 18q66 -82 180 -82q51 0 84 22.5t33 59.5q0 63 -152 68l2 18l72 121q-182 33 -286.5 178.5t-104.5 366.5q0 291 122 544t329.5 401.5t449.5 148.5q213 0 316.5 -87.5 t115.5 -193.5z" glyph-name="Ccedilla.swash" horiz-adv-x="1398"/><glyph d="M1075 1653q-53 0 -87 33.5t-34 85.5q0 74 61.5 133t137.5 59q53 0 87 -33t34 -84q0 -72 -61.5 -133t-137.5 -61zM1458 1192q4 -68 -27.5 -112t-89.5 -48q-92 -8 -139 81t-39 233q-63 23 -112 22q-256 0 -441.5 -284.5t-185.5 -690.5q0 -193 69.5 -304.5t198.5 -111.5 q211 0 365 191q-45 98 -47 199q0 68 37.5 108.5t99.5 40.5q106 0 106 -121q0 -90 -50 -190.5t-133 -184t-205 -139t-253 -55.5q-223 0 -355 151.5t-132 401.5q0 291 122 544t329.5 401.5t449.5 148.5q213 0 316.5 -87.5t115.5 -193.5z" glyph-name="Cdotaccent.swash" horiz-adv-x="1398"/><glyph d="M1591 1444q662 0 662 -531q0 -403 -280.5 -658t-731.5 -255h-670l11 41q111 16 152.5 37.5t56.5 68.5l274 1194q-328 -4 -548 -140t-222 -365q-2 -117 50 -194t153 -81q31 98 81 153.5t109 55.5q47 0 71.5 -27.5t24.5 -70.5q0 -96 -99 -146.5t-226 -50.5 q-166 0 -268.5 96.5t-102.5 254t87 280.5t232.5 194.5t317.5 107.5t360 36h506zM1245 102q303 0 507 235.5t204 575.5q0 428 -424 428h-178l-285 -1239h176z" glyph-name="D.swash" horiz-adv-x="2275"/><glyph d="M1653 1616q-39 0 -61.5 26.5t-39.5 92.5l-63 250l18 12l191 -199l280 199l11 -12l-181 -248q-81 -121 -155 -121zM1591 1444q662 0 662 -531q0 -403 -280.5 -658t-731.5 -255h-670l11 41q111 16 152.5 37.5t56.5 68.5l274 1194q-328 -4 -548 -140t-222 -365 q-2 -117 50 -194t153 -81q31 98 81 153.5t109 55.5q47 0 71.5 -27.5t24.5 -70.5q0 -96 -99 -146.5t-226 -50.5q-166 0 -268.5 96.5t-102.5 254t87 280.5t232.5 194.5t317.5 107.5t360 36h506zM1245 102q303 0 507 235.5t204 575.5q0 428 -424 428h-178l-285 -1239h176z" glyph-name="Dcaron.swash" horiz-adv-x="2275"/><glyph d="M1286 1223q10 -61 -18.5 -103.5t-83.5 -42.5q-70 0 -115 66.5t-39 210.5q-49 12 -115 12q-164 0 -258 -98.5t-94 -249.5q0 -96 31 -164q141 33 256 33q199 0 199 -113q0 -70 -65.5 -101.5t-168.5 -31.5q-162 0 -293 59q-186 -139 -186 -350q0 -125 71.5 -193.5 t202.5 -68.5q188 0 320 98q-8 145 20 217q20 57 73.5 75t99.5 -13t46 -98q0 -51 -41 -117t-116.5 -129.5t-201.5 -106.5t-275 -43q-223 0 -362.5 93.5t-139.5 271.5q0 143 99 258t261 188q-125 113 -125 275q0 174 142.5 295t410.5 121q205 0 330 -70.5t135 -179.5zM915 768 q0 43 -84 43q-88 0 -180 -39q66 -55 170 -55q94 0 94 51z" glyph-name="E.swash" horiz-adv-x="1245"/><glyph d="M1106 1806l-234 -211l-14 9l125 286q31 86 86 119t102 10q47 -18 31 -85t-96 -128zM1286 1223q10 -61 -18.5 -103.5t-83.5 -42.5q-70 0 -115 66.5t-39 210.5q-49 12 -115 12q-164 0 -258 -98.5t-94 -249.5q0 -96 31 -164q141 33 256 33q199 0 199 -113 q0 -70 -65.5 -101.5t-168.5 -31.5q-162 0 -293 59q-186 -139 -186 -350q0 -125 71.5 -193.5t202.5 -68.5q188 0 320 98q-8 145 20 217q20 57 73.5 75t99.5 -13t46 -98q0 -51 -41 -117t-116.5 -129.5t-201.5 -106.5t-275 -43q-223 0 -362.5 93.5t-139.5 271.5q0 143 99 258 t261 188q-125 113 -125 275q0 174 142.5 295t410.5 121q205 0 330 -70.5t135 -179.5zM915 768q0 43 -84 43q-88 0 -180 -39q66 -55 170 -55q94 0 94 51z" glyph-name="Eacute.swash" horiz-adv-x="1245"/><glyph d="M893 1616q-39 0 -61.5 26.5t-38.5 92.5l-64 250l19 12l190 -199l281 199l10 -12l-180 -248q-82 -121 -156 -121zM1286 1223q10 -61 -18.5 -103.5t-83.5 -42.5q-70 0 -115 66.5t-39 210.5q-49 12 -115 12q-164 0 -258 -98.5t-94 -249.5q0 -96 31 -164q141 33 256 33 q199 0 199 -113q0 -70 -65.5 -101.5t-168.5 -31.5q-162 0 -293 59q-186 -139 -186 -350q0 -125 71.5 -193.5t202.5 -68.5q188 0 320 98q-8 145 20 217q20 57 73.5 75t99.5 -13t46 -98q0 -51 -41 -117t-116.5 -129.5t-201.5 -106.5t-275 -43q-223 0 -362.5 93.5t-139.5 271.5 q0 143 99 258t261 188q-125 113 -125 275q0 174 142.5 295t410.5 121q205 0 330 -70.5t135 -179.5zM915 768q0 43 -84 43q-88 0 -180 -39q66 -55 170 -55q94 0 94 51z" glyph-name="Ecaron.swash" horiz-adv-x="1245"/><glyph d="M938 1812l-281 -196l-10 10l178 250q88 121 158 121t98 -121l64 -250l-17 -10zM1286 1223q10 -61 -18.5 -103.5t-83.5 -42.5q-70 0 -115 66.5t-39 210.5q-49 12 -115 12q-164 0 -258 -98.5t-94 -249.5q0 -96 31 -164q141 33 256 33q199 0 199 -113q0 -70 -65.5 -101.5 t-168.5 -31.5q-162 0 -293 59q-186 -139 -186 -350q0 -125 71.5 -193.5t202.5 -68.5q188 0 320 98q-8 145 20 217q20 57 73.5 75t99.5 -13t46 -98q0 -51 -41 -117t-116.5 -129.5t-201.5 -106.5t-275 -43q-223 0 -362.5 93.5t-139.5 271.5q0 143 99 258t261 188 q-125 113 -125 275q0 174 142.5 295t410.5 121q205 0 330 -70.5t135 -179.5zM915 768q0 43 -84 43q-88 0 -180 -39q66 -55 170 -55q94 0 94 51z" glyph-name="Ecircumflex.swash" horiz-adv-x="1245"/><glyph d="M692 1675q-45 0 -73.5 29t-28.5 74q0 63 53 115.5t117 52.5q45 0 74.5 -30t29.5 -73q0 -63 -53 -115.5t-119 -52.5zM1112 1675q-45 0 -73.5 29t-28.5 74q0 63 53 115.5t117 52.5q45 0 73.5 -30t28.5 -73q0 -63 -53.5 -115.5t-116.5 -52.5zM1286 1223q10 -61 -18.5 -103.5 t-83.5 -42.5q-70 0 -115 66.5t-39 210.5q-49 12 -115 12q-164 0 -258 -98.5t-94 -249.5q0 -96 31 -164q141 33 256 33q199 0 199 -113q0 -70 -65.5 -101.5t-168.5 -31.5q-162 0 -293 59q-186 -139 -186 -350q0 -125 71.5 -193.5t202.5 -68.5q188 0 320 98q-8 145 20 217 q20 57 73.5 75t99.5 -13t46 -98q0 -51 -41 -117t-116.5 -129.5t-201.5 -106.5t-275 -43q-223 0 -362.5 93.5t-139.5 271.5q0 143 99 258t261 188q-125 113 -125 275q0 174 142.5 295t410.5 121q205 0 330 -70.5t135 -179.5zM915 768q0 43 -84 43q-88 0 -180 -39 q66 -55 170 -55q94 0 94 51z" glyph-name="Edieresis.swash" horiz-adv-x="1245"/><glyph d="M899 1653q-53 0 -87 33.5t-34 85.5q0 74 61.5 133t137.5 59q53 0 87 -33t34 -84q0 -72 -61.5 -133t-137.5 -61zM1286 1223q10 -61 -18.5 -103.5t-83.5 -42.5q-70 0 -115 66.5t-39 210.5q-49 12 -115 12q-164 0 -258 -98.5t-94 -249.5q0 -96 31 -164q141 33 256 33 q199 0 199 -113q0 -70 -65.5 -101.5t-168.5 -31.5q-162 0 -293 59q-186 -139 -186 -350q0 -125 71.5 -193.5t202.5 -68.5q188 0 320 98q-8 145 20 217q20 57 73.5 75t99.5 -13t46 -98q0 -51 -41 -117t-116.5 -129.5t-201.5 -106.5t-275 -43q-223 0 -362.5 93.5t-139.5 271.5 q0 143 99 258t261 188q-125 113 -125 275q0 174 142.5 295t410.5 121q205 0 330 -70.5t135 -179.5zM915 768q0 43 -84 43q-88 0 -180 -39q66 -55 170 -55q94 0 94 51z" glyph-name="Edotaccent.swash" horiz-adv-x="1245"/><glyph d="M922 1595l-142 211q-51 66 -35.5 127.5t74.5 85.5q57 23 96 -10t31 -119l-10 -286zM1286 1223q10 -61 -18.5 -103.5t-83.5 -42.5q-70 0 -115 66.5t-39 210.5q-49 12 -115 12q-164 0 -258 -98.5t-94 -249.5q0 -96 31 -164q141 33 256 33q199 0 199 -113 q0 -70 -65.5 -101.5t-168.5 -31.5q-162 0 -293 59q-186 -139 -186 -350q0 -125 71.5 -193.5t202.5 -68.5q188 0 320 98q-8 145 20 217q20 57 73.5 75t99.5 -13t46 -98q0 -51 -41 -117t-116.5 -129.5t-201.5 -106.5t-275 -43q-223 0 -362.5 93.5t-139.5 271.5q0 143 99 258 t261 188q-125 113 -125 275q0 174 142.5 295t410.5 121q205 0 330 -70.5t135 -179.5zM915 768q0 43 -84 43q-88 0 -180 -39q66 -55 170 -55q94 0 94 51z" glyph-name="Egrave.swash" horiz-adv-x="1245"/><glyph d="M1247 1886l-22 -96h-580l23 96h579zM1286 1223q10 -61 -18.5 -103.5t-83.5 -42.5q-70 0 -115 66.5t-39 210.5q-49 12 -115 12q-164 0 -258 -98.5t-94 -249.5q0 -96 31 -164q141 33 256 33q199 0 199 -113q0 -70 -65.5 -101.5t-168.5 -31.5q-162 0 -293 59 q-186 -139 -186 -350q0 -125 71.5 -193.5t202.5 -68.5q188 0 320 98q-8 145 20 217q20 57 73.5 75t99.5 -13t46 -98q0 -51 -41 -117t-116.5 -129.5t-201.5 -106.5t-275 -43q-223 0 -362.5 93.5t-139.5 271.5q0 143 99 258t261 188q-125 113 -125 275q0 174 142.5 295 t410.5 121q205 0 330 -70.5t135 -179.5zM915 768q0 43 -84 43q-88 0 -180 -39q66 -55 170 -55q94 0 94 51z" glyph-name="Emacron.swash" horiz-adv-x="1245"/><glyph d="M1286 1223q10 -61 -18.5 -103.5t-83.5 -42.5q-70 0 -115 66.5t-39 210.5q-49 12 -115 12q-164 0 -258 -98.5t-94 -249.5q0 -96 31 -164q141 33 256 33q199 0 199 -113q0 -70 -65.5 -101.5t-168.5 -31.5q-162 0 -293 59q-186 -139 -186 -350q0 -125 71.5 -193.5 t202.5 -68.5q188 0 320 98q-8 145 20 217q20 57 73.5 75t99.5 -13t46 -98q0 -92 -112.5 -207t-302.5 -162q-145 -51 -218 -128t-73 -144q0 -59 67 -60q90 0 168 58l9 -13q-45 -63 -124 -107t-161 -44q-139 0 -139 121q0 86 73.5 163.5t198.5 126.5h-20q-223 0 -362.5 93.5 t-139.5 271.5q0 143 99 258t261 188q-125 113 -125 275q0 174 142.5 295t410.5 121q205 0 330 -70.5t135 -179.5zM915 768q0 43 -84 43q-88 0 -180 -39q66 -55 170 -55q94 0 94 51z" glyph-name="Eogonek.swash" horiz-adv-x="1245"/><glyph d="M1554 1151q-154 0 -368 41l-133 -578h176q53 0 85 8.5t71.5 38t74.5 94t74 171.5h45l-168 -729h-45q20 199 -17.5 257t-144.5 58h-176l-47 -209q-143 -612 -664 -612q-174 0 -255.5 71.5t-81.5 163.5q0 74 43 121t108 47q76 0 113 -85t32 -224q66 2 117 18.5t105.5 58.5 t97.5 127t74 214l239 1038q-123 14 -219 14q-203 0 -317.5 -72.5t-114.5 -224.5q0 -20 2 -30q111 -8 178.5 -52.5t67.5 -115.5q0 -55 -33 -86t-84 -31q-98 0 -174 92t-76 248q0 131 52.5 229.5t141.5 152.5t191.5 81t218.5 27q211 0 392.5 -48.5t321.5 -96.5t251 -48 q23 121 83 193.5t144 72.5q49 0 81 -26.5t32 -75.5q0 -137 -141.5 -215t-352.5 -78z" glyph-name="F.swash" horiz-adv-x="1802"/><glyph d="M891 729h655l-10 -41q-104 -18 -138 -39.5t-48 -85.5l-125 -514q-66 -270 -223.5 -399t-368.5 -129q-160 0 -250 66.5t-90 156.5q0 53 32.5 87t88.5 34q160 0 221 -248q219 33 303 377l47 196q-186 -168 -424 -167q-213 0 -335 133t-122 376q0 254 118 471.5t313.5 343.5 t416.5 126q68 0 134.5 -14.5t95 -26t100.5 -41.5q66 -29 102.5 -18t79.5 77h41l-129 -563h-53q18 233 -73 356t-259 123q-154 0 -290 -112.5t-215.5 -298t-79.5 -390.5q0 -186 64.5 -295.5t188.5 -109.5q109 0 206.5 63.5t168.5 171.5l41 168q14 59 -24.5 84t-169.5 41z" glyph-name="G.swash" horiz-adv-x="1540"/><glyph d="M1021.5 1620q-106.5 0 -146 87t-3.5 228h31q-12 -70 28 -122t126 -52q88 0 149.5 50.5t83.5 123.5h31q-29 -141 -111 -228t-188.5 -87zM891 729h655l-10 -41q-104 -18 -138 -39.5t-48 -85.5l-125 -514q-66 -270 -223.5 -399t-368.5 -129q-160 0 -250 66.5t-90 156.5 q0 53 32.5 87t88.5 34q160 0 221 -248q219 33 303 377l47 196q-186 -168 -424 -167q-213 0 -335 133t-122 376q0 254 118 471.5t313.5 343.5t416.5 126q68 0 134.5 -14.5t95 -26t100.5 -41.5q66 -29 102.5 -18t79.5 77h41l-129 -563h-53q18 233 -73 356t-259 123 q-154 0 -290 -112.5t-215.5 -298t-79.5 -390.5q0 -186 64.5 -295.5t188.5 -109.5q109 0 206.5 63.5t168.5 171.5l41 168q14 59 -24.5 84t-169.5 41z" glyph-name="Gbreve.swash" horiz-adv-x="1540"/><glyph d="M1028 1653q-53 0 -87 33.5t-34 85.5q0 74 61.5 133t137.5 59q53 0 87 -33t34 -84q0 -72 -61.5 -133t-137.5 -61zM891 729h655l-10 -41q-104 -18 -138 -39.5t-48 -85.5l-125 -514q-66 -270 -223.5 -399t-368.5 -129q-160 0 -250 66.5t-90 156.5q0 53 32.5 87t88.5 34 q160 0 221 -248q219 33 303 377l47 196q-186 -168 -424 -167q-213 0 -335 133t-122 376q0 254 118 471.5t313.5 343.5t416.5 126q68 0 134.5 -14.5t95 -26t100.5 -41.5q66 -29 102.5 -18t79.5 77h41l-129 -563h-53q18 233 -73 356t-259 123q-154 0 -290 -112.5t-215.5 -298 t-79.5 -390.5q0 -186 64.5 -295.5t188.5 -109.5q109 0 206.5 63.5t168.5 171.5l41 168q14 59 -24.5 84t-169.5 41z" glyph-name="Gdotaccent.swash" horiz-adv-x="1540"/><glyph d="M2597 1804q141 0 141 -108q0 -86 -106.5 -119t-227.5 20q-72 -100 -129 -352l-250 -1079q-12 -57 13.5 -82t142.5 -43l-10 -41h-658l11 41q127 18 163.5 43t51.5 82l125 549h-627l-127 -549q-12 -57 13.5 -82t142.5 -43l-11 -41h-657l10 41q123 20 161 41.5t52 83.5 l273 1175h-84q-303 0 -504 -129t-203 -354q-2 -117 48 -192.5t147 -81.5q31 98 80 152.5t108 54.5q47 0 71.5 -27t24.5 -68q0 -98 -93 -148t-204 -50q-182 0 -284.5 94t-102.5 256q0 154 77 271.5t208 186t286.5 103.5t327.5 35h408l-143 -625h624l47 205q78 340 274.5 560 t389.5 220z" glyph-name="H.swash" horiz-adv-x="2359"/><glyph d="M-8 0l10 41q123 20 161 41.5t52 83.5l258 1112q14 59 -16.5 82.5t-141.5 42.5l11 41h655l-8 -41q-129 -18 -165 -43t-48 -82l-256 -1112q-14 -61 13.5 -84t141.5 -41l-12 -41h-655z" glyph-name="I.swash" horiz-adv-x="866"/><glyph d="M674 1595l-15 9l125 286q31 86 86.5 119t102.5 10q47 -18 30.5 -84.5t-96.5 -128.5zM-8 0l10 41q123 20 161 41.5t52 83.5l258 1112q14 59 -16.5 82.5t-141.5 42.5l11 41h655l-8 -41q-129 -18 -165 -43t-48 -82l-256 -1112q-14 -61 13.5 -84t141.5 -41l-12 -41h-655z" glyph-name="Iacute.swash" horiz-adv-x="866"/><glyph d="M737 1812l-280 -196l-11 10l179 250q88 121 157.5 121t98.5 -121l63 -250l-16 -10zM326 1444h655l-8 -41q-129 -18 -165 -43t-48 -82l-256 -1112q-14 -61 13.5 -84t141.5 -41l-12 -41h-655l10 41q123 20 161 41.5t52 83.5l258 1112q14 59 -16.5 82.5t-141.5 42.5z" glyph-name="Icircumflex.swash" horiz-adv-x="866"/><glyph d="M492 1675q-45 0 -74 29t-29 74q0 63 53.5 115.5t116.5 52.5q45 0 75 -30t30 -73q0 -63 -53 -115.5t-119 -52.5zM911 1675q-45 0 -73.5 29t-28.5 74q0 63 53 115.5t117 52.5q45 0 73.5 -30t28.5 -73q0 -63 -53.5 -115.5t-116.5 -52.5zM-8 0l10 41q123 20 161 41.5t52 83.5 l258 1112q14 59 -16.5 82.5t-141.5 42.5l11 41h655l-8 -41q-129 -18 -165 -43t-48 -82l-256 -1112q-14 -61 13.5 -84t141.5 -41l-12 -41h-655z" glyph-name="Idieresis.swash" horiz-adv-x="866"/><glyph d="M698 1653q-53 0 -86.5 33.5t-33.5 85.5q0 74 61 133t137 59q53 0 87 -33t34 -84q0 -72 -61.5 -133t-137.5 -61zM-8 0l10 41q123 20 161 41.5t52 83.5l258 1112q14 59 -16.5 82.5t-141.5 42.5l11 41h655l-8 -41q-129 -18 -165 -43t-48 -82l-256 -1112q-14 -61 13.5 -84 t141.5 -41l-12 -41h-655z" glyph-name="Idotaccent.aalt" horiz-adv-x="866"/><glyph d="M721 1595l-141 211q-51 66 -36 127.5t74 85.5q57 23 96.5 -10t30.5 -119l-10 -286zM-8 0l10 41q123 20 161 41.5t52 83.5l258 1112q14 59 -16.5 82.5t-141.5 42.5l11 41h655l-8 -41q-129 -18 -165 -43t-48 -82l-256 -1112q-14 -61 13.5 -84t141.5 -41l-12 -41h-655z" glyph-name="Igrave.swash" horiz-adv-x="866"/><glyph d="M444 1790l23 96h580l-23 -96h-580zM-8 0l10 41q123 20 161 41.5t52 83.5l258 1112q14 59 -16.5 82.5t-141.5 42.5l11 41h655l-8 -41q-129 -18 -165 -43t-48 -82l-256 -1112q-14 -61 13.5 -84t141.5 -41l-12 -41h-655z" glyph-name="Imacron.swash" horiz-adv-x="866"/><glyph d="M326 1444h655l-8 -41q-129 -18 -165 -43t-48 -82l-256 -1112q-14 -61 13.5 -84t141.5 -41l-12 -39l2 -2q-160 -49 -238.5 -130t-78.5 -151q0 -59 67 -59q90 0 168 57l8 -12q-45 -63 -123.5 -107t-160.5 -44q-139 0 -139 120q0 104 107.5 194.5t277.5 131.5h-545l10 41 q123 20 161 41.5t52 83.5l258 1112q14 59 -16.5 82.5t-141.5 42.5z" glyph-name="Iogonek.swash" horiz-adv-x="866"/><glyph d="M1409 1444q96 0 96 -105q0 -82 -63.5 -131t-181.5 -41q-43 -106 -107 -374l-113 -490q-137 -612 -684 -612q-201 0 -315.5 90t-114.5 205q0 68 39 113.5t101 45.5q184 0 223 -360q160 0 275.5 102.5t174.5 356.5l78 336q74 326 283 608q-8 2 -80 15.5t-97.5 16.5t-85 11 t-109.5 11t-105 3q-141 0 -221 -52t-80 -155v-6q188 -35 188 -168q0 -53 -36 -83.5t-87 -28.5q-78 4 -132 99t-54 220q0 199 124 300.5t293 101.5q66 0 128.5 -12.5t128 -43.5t99.5 -48t103.5 -60t77.5 -49q158 184 254 184z" glyph-name="J.swash" horiz-adv-x="1380"/><glyph d="M2404 -190q41 0 69 -29t28 -74q0 -74 -67 -116t-161 -42q-453 0 -733 644l-211 469l-199 -179l-71 -317q-14 -61 11.5 -84t133.5 -41l-10 -41h-647l10 41q125 23 162 43t51 82l272 1180h-100q-274 0 -442 -110t-170 -312q-2 -94 42 -164t130 -78q63 186 174 186 q47 0 71.5 -27.5t24.5 -70.5q0 -84 -91 -130t-200 -46q-158 0 -256 92t-98 238q0 133 67.5 236.5t182.5 163.5t254 90t295 30h610l-10 -41q-123 -20 -161 -43t-52 -82l-146 -641l609 555q41 39 61.5 60.5t37.5 49t8 44t-41 32t-93 25.5l10 41h588l-8 -41q-223 -39 -443 -238 l-344 -305l340 -762q150 -328 273 -430q118 142 239 142z" glyph-name="K.swash" horiz-adv-x="2213"/><glyph d="M2404 -190q41 0 69 -29t28 -74q0 -74 -67 -116t-161 -42q-453 0 -733 644l-211 469l-199 -179l-71 -317q-14 -61 11.5 -84t133.5 -41l-10 -41h-647l10 41q125 23 162 43t51 82l272 1180h-100q-274 0 -442 -110t-170 -312q-2 -94 42 -164t130 -78q63 186 174 186 q47 0 71.5 -27.5t24.5 -70.5q0 -84 -91 -130t-200 -46q-158 0 -256 92t-98 238q0 133 67.5 236.5t182.5 163.5t254 90t295 30h610l-10 -41q-123 -20 -161 -43t-52 -82l-146 -641l609 555q41 39 61.5 60.5t37.5 49t8 44t-41 32t-93 25.5l10 41h588l-8 -41q-223 -39 -443 -238 l-344 -305l340 -762q150 -328 273 -430q118 142 239 142zM1329 -129q100 0 101 -107q0 -131 -101.5 -232t-241.5 -112v31q176 43 228 205q-25 -12 -51 -12q-37 0 -58.5 20.5t-21.5 54.5q0 61 44 106.5t101 45.5z" glyph-name="Kcommaaccent.swash" horiz-adv-x="2213"/><glyph d="M1366 -203q45 0 72.5 -30.5t29.5 -71.5q-2 -78 -71.5 -128t-179.5 -50q-131 0 -255 48t-223.5 122.5t-183.5 150.5t-167 147.5t-142 98.5q-135 -127 -262 -127q-90 0 -97 86q-4 68 78 112t248 48q25 61 33 139q12 119 -5.5 360.5t-0.5 362.5q23 188 155.5 298t366.5 110 q188 0 313 -83t125 -206q0 -51 -35 -82t-90 -31q-78 0 -124 66.5t-42 210.5q-43 14 -102 14q-119 0 -183.5 -68.5t-84.5 -212.5q-10 -84 -23.5 -260t-26.5 -256q-35 -209 -147 -370q131 -20 254 -100.5t202 -167.5t174 -178t171 -124q117 172 223 172z" glyph-name="L.swash" horiz-adv-x="987"/><glyph d="M1012 1806l-234 -211l-14 9l125 286q31 86 86 119t102 10q47 -18 31 -85t-96 -128zM1366 -203q45 0 72.5 -30.5t29.5 -71.5q-2 -78 -71.5 -128t-179.5 -50q-131 0 -255 48t-223.5 122.5t-183.5 150.5t-167 147.5t-142 98.5q-135 -127 -262 -127q-90 0 -97 86 q-4 68 78 112t248 48q25 61 33 139q12 119 -5.5 360.5t-0.5 362.5q23 188 155.5 298t366.5 110q188 0 313 -83t125 -206q0 -51 -35 -82t-90 -31q-78 0 -124 66.5t-42 210.5q-43 14 -102 14q-119 0 -183.5 -68.5t-84.5 -212.5q-10 -84 -23.5 -260t-26.5 -256 q-35 -209 -147 -370q131 -20 254 -100.5t202 -167.5t174 -178t171 -124q117 172 223 172z" glyph-name="Lacute.swash" horiz-adv-x="987"/><glyph d="M1366 -203q45 0 72.5 -30.5t29.5 -71.5q-2 -78 -71.5 -128t-179.5 -50q-131 0 -255 48t-223.5 122.5t-183.5 150.5t-167 147.5t-142 98.5q-135 -127 -262 -127q-90 0 -97 86q-4 68 78 112t248 48q25 61 33 139q12 119 -5.5 360.5t-0.5 362.5q23 188 155.5 298t366.5 110 q188 0 313 -83t125 -206q0 -51 -35 -82t-90 -31q-78 0 -124 66.5t-42 210.5q-43 14 -102 14q-119 0 -183.5 -68.5t-84.5 -212.5q-10 -84 -23.5 -260t-26.5 -256q-35 -209 -147 -370q131 -20 254 -100.5t202 -167.5t174 -178t171 -124q117 172 223 172zM1487 1473 q45 0 58.5 -33t-3 -85t-55.5 -112l-199 -336l-18 2l71 373q14 92 53.5 141.5t92.5 49.5z" glyph-name="Lcaron.swash" horiz-adv-x="987"/><glyph d="M1366 -203q45 0 72.5 -30.5t29.5 -71.5q-2 -78 -71.5 -128t-179.5 -50q-131 0 -255 48t-223.5 122.5t-183.5 150.5t-167 147.5t-142 98.5q-135 -127 -262 -127q-90 0 -97 86q-4 68 78 112t248 48q25 61 33 139q12 119 -5.5 360.5t-0.5 362.5q23 188 155.5 298t366.5 110 q188 0 313 -83t125 -206q0 -51 -35 -82t-90 -31q-78 0 -124 66.5t-42 210.5q-43 14 -102 14q-119 0 -183.5 -68.5t-84.5 -212.5q-10 -84 -23.5 -260t-26.5 -256q-35 -209 -147 -370q131 -20 254 -100.5t202 -167.5t174 -178t171 -124q117 172 223 172zM289 -164 q100 0 100 -106q0 -131 -101.5 -232.5t-240.5 -111.5v30q176 43 227 205q-25 -12 -51 -12q-37 0 -58.5 20.5t-21.5 55.5q0 61 44.5 106t101.5 45z" glyph-name="Lcommaaccent.swash" horiz-adv-x="987"/><glyph d="M2656 1444h494l-8 -41q-123 -20 -162 -42t-53 -83l-242 -1040q-20 -92 12.5 -134.5t128.5 -62.5l-8 -41h-664l11 41q125 18 167 57t66 140l232 1001l-840 -1102h-107l-337 1069l-185 -649q-229 -807 -782 -807q-180 0 -303 116t-123 310q0 160 103.5 289t277.5 139 q156 10 164 -115q4 -63 -42 -106t-135.5 -41t-193.5 68q-70 -90 -70 -207q0 -131 87 -206t243 -75q227 0 402.5 172t291.5 592l181 657h-86q-262 0 -427 -95t-167 -273q-2 -72 32.5 -131.5t100.5 -71.5q31 96 83 152.5t111 56.5q43 0 66.5 -26.5t23.5 -67.5 q0 -86 -89 -139.5t-197 -53.5q-141 0 -228.5 80t-87.5 201t65.5 215t177.5 147.5t244 80t281 26.5h441l305 -995z" glyph-name="M.swash" horiz-adv-x="3035"/><glyph d="M2761 1604q66 0 102.5 -31t36.5 -88q0 -70 -50 -108t-136 -27.5t-177 73.5q-338 -238 -542 -1175l84 -199q121 -281 280 -391q127 152 240 152q49 0 78.5 -29t29.5 -72q0 -82 -70.5 -127t-166.5 -45q-240 0 -441.5 168t-367.5 563l-377 901q-262 -1419 -944 -1419 q-168 0 -289 113.5t-121 304.5q0 156 94.5 280.5t262.5 135.5q150 10 155 -109q6 -100 -97 -132t-249 46q-59 -82 -59 -192q0 -127 83 -201t220 -74q627 0 856 1421h-190q-248 0 -404 -93t-160 -267q-2 -70 32 -130t101 -73q31 98 83.5 154.5t111.5 56.5q43 0 66.5 -27.5 t23.5 -68.5q0 -86 -88 -139.5t-197 -53.5q-141 0 -229 80t-88 201q0 158 110.5 265.5t270.5 151.5t354 44h492l430 -1010q63 262 150 470t174.5 336t184.5 213t179 118t158 33z" glyph-name="N.swash" horiz-adv-x="2537"/><glyph d="M2157 1806l-234 -211l-14 9l125 286q31 86 86 119t102 10q47 -18 31 -85t-96 -128zM2761 1604q66 0 102.5 -31t36.5 -88q0 -70 -50 -108t-136 -27.5t-177 73.5q-338 -238 -542 -1175l84 -199q121 -281 280 -391q127 152 240 152q49 0 78.5 -29t29.5 -72q0 -82 -70.5 -127 t-166.5 -45q-240 0 -441.5 168t-367.5 563l-377 901q-262 -1419 -944 -1419q-168 0 -289 113.5t-121 304.5q0 156 94.5 280.5t262.5 135.5q150 10 155 -109q6 -100 -97 -132t-249 46q-59 -82 -59 -192q0 -127 83 -201t220 -74q627 0 856 1421h-190q-248 0 -404 -93 t-160 -267q-2 -70 32 -130t101 -73q31 98 83.5 154.5t111.5 56.5q43 0 66.5 -27.5t23.5 -68.5q0 -86 -88 -139.5t-197 -53.5q-141 0 -229 80t-88 201q0 158 110.5 265.5t270.5 151.5t354 44h492l430 -1010q63 262 150 470t174.5 336t184.5 213t179 118t158 33z" glyph-name="Nacute.swash" horiz-adv-x="2537"/><glyph d="M1942 1616q-39 0 -61.5 26.5t-39.5 92.5l-63 250l18 12l191 -199l280 199l10 -12l-180 -248q-81 -121 -155 -121zM2761 1604q66 0 102.5 -31t36.5 -88q0 -70 -50 -108t-136 -27.5t-177 73.5q-338 -238 -542 -1175l84 -199q121 -281 280 -391q127 152 240 152 q49 0 78.5 -29t29.5 -72q0 -82 -70.5 -127t-166.5 -45q-240 0 -441.5 168t-367.5 563l-377 901q-262 -1419 -944 -1419q-168 0 -289 113.5t-121 304.5q0 156 94.5 280.5t262.5 135.5q150 10 155 -109q6 -100 -97 -132t-249 46q-59 -82 -59 -192q0 -127 83 -201t220 -74 q627 0 856 1421h-190q-248 0 -404 -93t-160 -267q-2 -70 32 -130t101 -73q31 98 83.5 154.5t111.5 56.5q43 0 66.5 -27.5t23.5 -68.5q0 -86 -88 -139.5t-197 -53.5q-141 0 -229 80t-88 201q0 158 110.5 265.5t270.5 151.5t354 44h492l430 -1010q63 262 150 470t174.5 336 t184.5 213t179 118t158 33z" glyph-name="Ncaron.swash" horiz-adv-x="2537"/><glyph d="M2761 1604q66 0 102.5 -31t36.5 -88q0 -70 -50 -108t-136 -27.5t-177 73.5q-338 -238 -542 -1175l84 -199q121 -281 280 -391q127 152 240 152q49 0 78.5 -29t29.5 -72q0 -82 -70.5 -127t-166.5 -45q-240 0 -441.5 168t-367.5 563l-377 901q-262 -1419 -944 -1419 q-168 0 -289 113.5t-121 304.5q0 156 94.5 280.5t262.5 135.5q150 10 155 -109q6 -100 -97 -132t-249 46q-59 -82 -59 -192q0 -127 83 -201t220 -74q627 0 856 1421h-190q-248 0 -404 -93t-160 -267q-2 -70 32 -130t101 -73q31 98 83.5 154.5t111.5 56.5q43 0 66.5 -27.5 t23.5 -68.5q0 -86 -88 -139.5t-197 -53.5q-141 0 -229 80t-88 201q0 158 110.5 265.5t270.5 151.5t354 44h492l430 -1010q63 262 150 470t174.5 336t184.5 213t179 118t158 33zM1386 -129q100 0 101 -107q0 -131 -101.5 -232t-240.5 -112v31q176 43 227 205q-25 -12 -51 -12 q-37 0 -58.5 20.5t-21.5 54.5q0 61 44 106.5t101 45.5z" glyph-name="Ncommaaccent.swash" horiz-adv-x="2537"/><glyph d="M1827 1780q-33 0 -64.5 -16.5t-49 -35t-48.5 -53.5l-27 8q49 115 118 181.5t147 66.5q59 0 125.5 -50t115.5 -50q78 0 166 102l25 -8q-49 -115 -120 -180.5t-144 -65.5q-63 0 -129 50.5t-115 50.5zM2761 1604q66 0 102.5 -31t36.5 -88q0 -70 -50 -108t-136 -27.5 t-177 73.5q-338 -238 -542 -1175l84 -199q121 -281 280 -391q127 152 240 152q49 0 78.5 -29t29.5 -72q0 -82 -70.5 -127t-166.5 -45q-240 0 -441.5 168t-367.5 563l-377 901q-262 -1419 -944 -1419q-168 0 -289 113.5t-121 304.5q0 156 94.5 280.5t262.5 135.5 q150 10 155 -109q6 -100 -97 -132t-249 46q-59 -82 -59 -192q0 -127 83 -201t220 -74q627 0 856 1421h-190q-248 0 -404 -93t-160 -267q-2 -70 32 -130t101 -73q31 98 83.5 154.5t111.5 56.5q43 0 66.5 -27.5t23.5 -68.5q0 -86 -88 -139.5t-197 -53.5q-141 0 -229 80 t-88 201q0 158 110.5 265.5t270.5 151.5t354 44h492l430 -1010q63 262 150 470t174.5 336t184.5 213t179 118t158 33z" glyph-name="Ntilde.swash" horiz-adv-x="2537"/><glyph d="M698 -29q-256 0 -411.5 147.5t-155.5 418.5q0 385 274.5 660.5t675.5 275.5q262 0 414 -146.5t152 -419.5q0 -250 -120 -463t-340.5 -343t-488.5 -130zM723 80q168 0 314.5 123t231.5 321.5t85 413.5q0 426 -297 426q-254 0 -442.5 -261t-188.5 -597q0 -201 77 -313.5 t220 -112.5z" glyph-name="O.swash" horiz-adv-x="1671"/><glyph d="M1075 1595l-14 9l125 286q31 86 86 119t102 10q47 -18 31 -84.5t-96 -128.5zM698 -29q-256 0 -411.5 147.5t-155.5 418.5q0 385 274.5 660.5t675.5 275.5q262 0 414 -146.5t152 -419.5q0 -250 -120 -463t-340.5 -343t-488.5 -130zM723 80q168 0 314.5 123t231.5 321.5 t85 413.5q0 426 -297 426q-254 0 -442.5 -261t-188.5 -597q0 -201 77 -313.5t220 -112.5z" glyph-name="Oacute.swash" horiz-adv-x="1671"/><glyph d="M1141 1812l-281 -196l-10 10l178 250q88 121 157.5 121t98.5 -121l64 -250l-17 -10zM1081 1473q262 0 414 -146.5t152 -419.5q0 -250 -120 -463t-340 -343t-489 -130q-256 0 -411.5 147.5t-155.5 418.5q0 385 274.5 660.5t675.5 275.5zM723 80q168 0 314.5 123 t231.5 321.5t85 413.5q0 426 -297 426q-254 0 -442.5 -261t-188.5 -597q0 -201 77 -313.5t220 -112.5z" glyph-name="Ocircumflex.swash" horiz-adv-x="1671"/><glyph d="M895 1675q-45 0 -73.5 29t-28.5 74q0 63 53 115.5t117 52.5q45 0 74.5 -30t29.5 -73q0 -63 -54.5 -115.5t-117.5 -52.5zM1315 1675q-45 0 -74 29t-29 74q0 63 53.5 115.5t116.5 52.5q45 0 74 -30t29 -73q0 -63 -53.5 -115.5t-116.5 -52.5zM698 -29q-256 0 -411.5 147.5 t-155.5 418.5q0 385 274.5 660.5t675.5 275.5q262 0 414 -146.5t152 -419.5q0 -250 -120 -463t-340.5 -343t-488.5 -130zM723 80q168 0 314.5 123t231.5 321.5t85 413.5q0 426 -297 426q-254 0 -442.5 -261t-188.5 -597q0 -201 77 -313.5t220 -112.5z" glyph-name="Odieresis.swash" horiz-adv-x="1671"/><glyph d="M1124 1595l-141 211q-51 66 -35.5 127.5t74.5 85.5q57 23 96 -10t31 -119l-10 -286zM698 -29q-256 0 -411.5 147.5t-155.5 418.5q0 385 274.5 660.5t675.5 275.5q262 0 414 -146.5t152 -419.5q0 -250 -120 -463t-340.5 -343t-488.5 -130zM723 80q168 0 314.5 123 t231.5 321.5t85 413.5q0 426 -297 426q-254 0 -442.5 -261t-188.5 -597q0 -201 77 -313.5t220 -112.5z" glyph-name="Ograve.swash" horiz-adv-x="1671"/><glyph d="M940 1597l-16 5l45 256q10 104 52 148t99 40q39 -2 52.5 -30.5t-6 -80t-70.5 -112.5zM1188 1595l-14 11l163 264q51 84 107.5 107.5t89.5 -7.5q39 -27 10.5 -89t-117.5 -116zM698 -29q-256 0 -411.5 147.5t-155.5 418.5q0 385 274.5 660.5t675.5 275.5q262 0 414 -146.5 t152 -419.5q0 -250 -120 -463t-340.5 -343t-488.5 -130zM723 80q168 0 314.5 123t231.5 321.5t85 413.5q0 426 -297 426q-254 0 -442.5 -261t-188.5 -597q0 -201 77 -313.5t220 -112.5z" glyph-name="Ohungarumlaut.swash" horiz-adv-x="1671"/><glyph d="M848 1790l22 96h580l-23 -96h-579zM698 -29q-256 0 -411.5 147.5t-155.5 418.5q0 385 274.5 660.5t675.5 275.5q262 0 414 -146.5t152 -419.5q0 -250 -120 -463t-340.5 -343t-488.5 -130zM723 80q168 0 314.5 123t231.5 321.5t85 413.5q0 426 -297 426 q-254 0 -442.5 -261t-188.5 -597q0 -201 77 -313.5t220 -112.5z" glyph-name="Omacron.swash" horiz-adv-x="1671"/><glyph d="M817 1675l-26 8q49 115 117.5 181.5t146.5 66.5q59 0 125.5 -50t115.5 -50q78 0 166 102l25 -8q-49 -115 -120 -180.5t-144 -65.5q-63 0 -129 50.5t-115 50.5q-33 0 -64.5 -16.5t-49 -35t-48.5 -53.5zM698 -29q-256 0 -411.5 147.5t-155.5 418.5q0 385 274.5 660.5 t675.5 275.5q262 0 414 -146.5t152 -419.5q0 -250 -120 -463t-340.5 -343t-488.5 -130zM723 80q168 0 314.5 123t231.5 321.5t85 413.5q0 426 -297 426q-254 0 -442.5 -261t-188.5 -597q0 -201 77 -313.5t220 -112.5z" glyph-name="Otilde.swash" horiz-adv-x="1671"/><glyph d="M1737 1444q217 0 319.5 -78t102.5 -242q0 -240 -178.5 -386t-475.5 -146h-239l-95 -406q-14 -76 27 -101.5t193 -43.5l-11 -41h-721l11 41q121 18 161.5 44t55.5 95l266 1161h-86q-303 0 -489.5 -115.5t-188.5 -326.5q-2 -104 49 -176t152 -78q63 186 180 186 q49 0 73.5 -27.5t24.5 -70.5q0 -84 -91 -129t-208 -45q-168 0 -269 92t-101 246q0 182 127 310t313 182.5t412 54.5h686zM1430 694q203 0 323.5 117t120.5 297q0 119 -66.5 176t-210.5 57h-159l-150 -647h142z" glyph-name="P.swash" horiz-adv-x="2058"/><glyph d="M1606 -158q45 0 76.5 -27.5t31.5 -78.5q0 -80 -77.5 -125t-198.5 -45q-211 0 -387.5 89t-331.5 300l-29 37q-92 -18 -192 -19q-154 0 -232 60.5t-78 156.5q0 78 59.5 134.5t178.5 56.5q233 0 438 -193q168 121 269.5 331t101.5 456q0 387 -277 387q-201 0 -332.5 -152.5 t-131.5 -353.5q0 -127 50 -204t152 -77q41 0 72 9q-2 139 55.5 224t145.5 85q100 0 100 -113q0 -117 -125 -208t-301 -91q-188 0 -310 95.5t-122 285.5q0 231 215 421t563 190q246 0 393.5 -140.5t147.5 -384.5q0 -270 -154.5 -505.5t-410.5 -360.5l14 -19q23 -29 84 -105.5 t83.5 -103t65.5 -73.5t77 -71.5t71 -43.5q49 82 114.5 129t131.5 47zM496 68q66 0 122 12q-86 106 -136 146t-101 40q-37 0 -58.5 -19.5t-21.5 -53.5q0 -51 50.5 -88t144.5 -37z" glyph-name="Q.swash" horiz-adv-x="1550"/><glyph d="M2378 -195q43 -2 67.5 -32.5t20.5 -77.5q-2 -70 -61.5 -105.5t-149.5 -35.5q-106 0 -206.5 39.5t-197 123.5t-180.5 229.5t-143 338.5q-88 274 -136.5 344.5t-170.5 70.5h-39l-119 -514q-14 -74 15.5 -100.5t148.5 -44.5l-10 -41h-666l10 41q117 18 160 46t57 95 l266 1159h-124q-225 0 -369.5 -95t-147.5 -267q-2 -88 38 -149.5t122 -71.5q59 174 170 174q47 0 71.5 -27.5t24.5 -70.5q0 -78 -87 -121t-195 -43q-152 0 -243 85t-91 222q0 156 105.5 264.5t257 155.5t329.5 47h740q383 0 383 -266q0 -190 -165 -314.5t-431 -130.5 q162 -29 246.5 -132t172.5 -351q158 -436 291 -569q130 132 236 124zM1204 797h90q205 0 326 102t121 266q0 82 -57.5 129t-174.5 47h-180z" glyph-name="R.swash" horiz-adv-x="2097"/><glyph d="M1788 1806l-234 -211l-14 9l125 286q31 86 86 119t102 10q47 -18 31 -85t-96 -128zM2378 -195q43 -2 67.5 -32.5t20.5 -77.5q-2 -70 -61.5 -105.5t-149.5 -35.5q-106 0 -206.5 39.5t-197 123.5t-180.5 229.5t-143 338.5q-88 274 -136.5 344.5t-170.5 70.5h-39l-119 -514 q-14 -74 15.5 -100.5t148.5 -44.5l-10 -41h-666l10 41q117 18 160 46t57 95l266 1159h-124q-225 0 -369.5 -95t-147.5 -267q-2 -88 38 -149.5t122 -71.5q59 174 170 174q47 0 71.5 -27.5t24.5 -70.5q0 -78 -87 -121t-195 -43q-152 0 -243 85t-91 222q0 156 105.5 264.5 t257 155.5t329.5 47h740q383 0 383 -266q0 -190 -165 -314.5t-431 -130.5q162 -29 246.5 -132t172.5 -351q158 -436 291 -569q130 132 236 124zM1204 797h90q205 0 326 102t121 266q0 82 -57.5 129t-174.5 47h-180z" glyph-name="Racute.swash" horiz-adv-x="2097"/><glyph d="M1573 1616q-39 0 -61.5 26.5t-38.5 92.5l-64 250l18 12l191 -199l280 199l11 -12l-180 -248q-82 -121 -156 -121zM2378 -195q43 -2 67.5 -32.5t20.5 -77.5q-2 -70 -61.5 -105.5t-149.5 -35.5q-106 0 -206.5 39.5t-197 123.5t-180.5 229.5t-143 338.5 q-88 274 -136.5 344.5t-170.5 70.5h-39l-119 -514q-14 -74 15.5 -100.5t148.5 -44.5l-10 -41h-666l10 41q117 18 160 46t57 95l266 1159h-124q-225 0 -369.5 -95t-147.5 -267q-2 -88 38 -149.5t122 -71.5q59 174 170 174q47 0 71.5 -27.5t24.5 -70.5q0 -78 -87 -121 t-195 -43q-152 0 -243 85t-91 222q0 156 105.5 264.5t257 155.5t329.5 47h740q383 0 383 -266q0 -190 -165 -314.5t-431 -130.5q162 -29 246.5 -132t172.5 -351q158 -436 291 -569q130 132 236 124zM1204 797h90q205 0 326 102t121 266q0 82 -57.5 129t-174.5 47h-180z" glyph-name="Rcaron.swash" horiz-adv-x="2097"/><glyph d="M2378 -195q43 -2 67.5 -32.5t20.5 -77.5q-2 -70 -61.5 -105.5t-149.5 -35.5q-106 0 -206.5 39.5t-197 123.5t-180.5 229.5t-143 338.5q-88 274 -136.5 344.5t-170.5 70.5h-39l-119 -514q-14 -74 15.5 -100.5t148.5 -44.5l-10 -41h-666l10 41q117 18 160 46t57 95 l266 1159h-124q-225 0 -369.5 -95t-147.5 -267q-2 -88 38 -149.5t122 -71.5q59 174 170 174q47 0 71.5 -27.5t24.5 -70.5q0 -78 -87 -121t-195 -43q-152 0 -243 85t-91 222q0 156 105.5 264.5t257 155.5t329.5 47h740q383 0 383 -266q0 -190 -165 -314.5t-431 -130.5 q162 -29 246.5 -132t172.5 -351q158 -436 291 -569q130 132 236 124zM1204 797h90q205 0 326 102t121 266q0 82 -57.5 129t-174.5 47h-180zM1167 -129q100 0 101 -107q0 -131 -101.5 -232t-240.5 -112v31q176 43 227 205q-25 -12 -51 -12q-37 0 -58.5 20.5t-21.5 54.5 q0 61 44 106.5t101 45.5z" glyph-name="Rcommaaccent.swash" horiz-adv-x="2097"/><glyph d="M1126 1047q-84 0 -129 77.5t-36 227.5q-59 12 -134 12q-123 0 -190.5 -51t-67.5 -148q0 -86 59.5 -163.5t176.5 -170.5q178 -147 268 -275t90 -300q0 -233 -191.5 -362.5t-453.5 -124.5q-219 4 -365.5 120.5t-146.5 303.5q0 156 91 267t231 111q70 0 105.5 -32.5 t35.5 -87.5q0 -82 -87 -126t-241 -20q-12 -47 -12 -108q0 -129 104.5 -220.5t284.5 -91.5q166 0 274.5 78t108.5 225q0 106 -63.5 193.5t-202.5 204.5q-86 72 -133 118t-98.5 110.5t-73 132t-21.5 147.5q0 168 126 273.5t358 105.5q195 0 327.5 -83t132.5 -210 q0 -59 -33 -96t-94 -37zM1104 1292l4 -2q-2 0 -2 1t-2 1z" glyph-name="S.swash" horiz-adv-x="1300"/><glyph d="M1161 1806l-233 -211l-15 9l125 286q31 86 86.5 119t102.5 10q47 -18 30.5 -85t-96.5 -128zM793 1473q195 0 327.5 -83t132.5 -210q0 -59 -32.5 -96t-94.5 -37q-84 0 -129 77.5t-36 227.5q-59 12 -134 12q-123 0 -190.5 -51t-67.5 -148q0 -86 59.5 -163.5t176.5 -170.5 q178 -147 268 -275t90 -300q0 -233 -191.5 -362.5t-453.5 -124.5q-219 4 -365.5 120.5t-146.5 303.5q0 156 91 267t231 111q70 0 105.5 -32.5t35.5 -87.5q0 -82 -87 -126t-241 -20q-12 -47 -12 -108q0 -129 104.5 -220.5t284.5 -91.5q166 0 274.5 78t108.5 225 q0 106 -63.5 193.5t-202.5 204.5q-86 72 -133 118t-98.5 110.5t-73 132t-21.5 147.5q0 168 126.5 273.5t357.5 105.5zM1104 1292l4 -2q-2 0 -2 1t-2 1z" glyph-name="Sacute.swash" horiz-adv-x="1300"/><glyph d="M946 1616q-39 0 -61.5 26.5t-38.5 92.5l-64 250l19 12l190 -199l281 199l10 -12l-180 -248q-82 -121 -156 -121zM793 1473q195 0 327.5 -83t132.5 -210q0 -59 -32.5 -96t-94.5 -37q-84 0 -129 77.5t-36 227.5q-59 12 -134 12q-123 0 -190.5 -51t-67.5 -148 q0 -86 59.5 -163.5t176.5 -170.5q178 -147 268 -275t90 -300q0 -233 -191.5 -362.5t-453.5 -124.5q-219 4 -365.5 120.5t-146.5 303.5q0 156 91 267t231 111q70 0 105.5 -32.5t35.5 -87.5q0 -82 -87 -126t-241 -20q-12 -47 -12 -108q0 -129 104.5 -220.5t284.5 -91.5 q166 0 274.5 78t108.5 225q0 106 -63.5 193.5t-202.5 204.5q-86 72 -133 118t-98.5 110.5t-73 132t-21.5 147.5q0 168 126.5 273.5t357.5 105.5zM1104 1292l4 -2q-2 0 -2 1t-2 1z" glyph-name="Scaron.swash" horiz-adv-x="1300"/><glyph d="M1126 1047q-84 0 -129 77.5t-36 227.5q-59 12 -134 12q-123 0 -190.5 -51t-67.5 -148q0 -86 59.5 -163.5t176.5 -170.5q178 -147 268 -275t90 -300q0 -229 -184 -358t-442 -129l-43 -72q207 12 206 -113q0 -88 -72.5 -147.5t-176.5 -59.5q-188 0 -236 170l16 19 q66 -82 181 -82q51 0 83.5 22.5t32.5 59.5q0 63 -151 67l2 19l72 121q-195 23 -320 136.5t-125 283.5q0 156 91 267t231 111q70 0 105.5 -32.5t35.5 -87.5q0 -82 -87 -126t-241 -20q-12 -47 -12 -108q0 -129 104.5 -220.5t284.5 -91.5q166 0 274.5 78t108.5 225 q0 106 -63.5 193.5t-202.5 204.5q-86 72 -133 118t-98.5 110.5t-73 132t-21.5 147.5q0 168 126 273.5t358 105.5q195 0 327.5 -83t132.5 -210q0 -59 -33 -96t-94 -37zM1104 1292l4 -2q-2 0 -2 1t-2 1z" glyph-name="Scedilla.swash" horiz-adv-x="1300"/><glyph d="M1126 1047q-84 0 -129 77.5t-36 227.5q-59 12 -134 12q-123 0 -190.5 -51t-67.5 -148q0 -86 59.5 -163.5t176.5 -170.5q178 -147 268 -275t90 -300q0 -233 -191.5 -362.5t-453.5 -124.5q-219 4 -365.5 120.5t-146.5 303.5q0 156 91 267t231 111q70 0 105.5 -32.5 t35.5 -87.5q0 -82 -87 -126t-241 -20q-12 -47 -12 -108q0 -129 104.5 -220.5t284.5 -91.5q166 0 274.5 78t108.5 225q0 106 -63.5 193.5t-202.5 204.5q-86 72 -133 118t-98.5 110.5t-73 132t-21.5 147.5q0 168 126 273.5t358 105.5q195 0 327.5 -83t132.5 -210 q0 -59 -33 -96t-94 -37zM1104 1292l4 -2q-2 0 -2 1t-2 1zM489 -313q100 0 101 -107q0 -131 -101.5 -232.5t-240.5 -111.5v31q176 43 227 205q-25 -12 -51 -13q-37 0 -58.5 20.5t-21.5 55.5q0 61 44 106.5t101 45.5z" glyph-name="Scommaaccent.swash" horiz-adv-x="1300"/><glyph d="M1454 1661q76 0 125 -63.5t49 -157.5q0 -154 -105.5 -234t-256.5 -80q-104 0 -234 29l-229 -983q-14 -63 18.5 -88t155.5 -43l-10 -41h-684l8 41q129 20 169 41.5t54 87.5l248 1061q-156 41 -260 41q-182 0 -219 -113q172 -53 172 -168q0 -43 -31 -70.5t-76 -27.5 q-74 0 -121 69.5t-47 174.5q0 164 105.5 250t267.5 86q154 0 304.5 -39t276.5 -78t216 -39q129 0 168 67q-166 55 -166 170q0 49 28.5 78t73.5 29z" glyph-name="T.swash" horiz-adv-x="1441"/><glyph d="M997 1616q-39 0 -61.5 26.5t-38.5 92.5l-63 250l18 12l190 -199l281 199l10 -12l-180 -248q-82 -121 -156 -121zM1454 1661q76 0 125 -63.5t49 -157.5q0 -154 -105.5 -234t-256.5 -80q-104 0 -234 29l-229 -983q-14 -63 18.5 -88t155.5 -43l-10 -41h-684l8 41 q129 20 169 41.5t54 87.5l248 1061q-156 41 -260 41q-182 0 -219 -113q172 -53 172 -168q0 -43 -31 -70.5t-76 -27.5q-74 0 -121 69.5t-47 174.5q0 164 105.5 250t267.5 86q154 0 304.5 -39t276.5 -78t216 -39q129 0 168 67q-166 55 -166 170q0 49 28.5 78t73.5 29z" glyph-name="Tcaron.swash" horiz-adv-x="1441"/><glyph d="M1454 1661q76 0 125 -63.5t49 -157.5q0 -154 -105.5 -234t-256.5 -80q-104 0 -234 29l-229 -983q-14 -63 18.5 -88t155.5 -43l-10 -41h-301l-70 -119q207 12 207 -112q0 -88 -73 -147.5t-177 -59.5q-188 0 -236 170l17 18q66 -82 180 -82q51 0 84 22.5t33 59.5 q0 63 -152 68l2 18l97 164h-295l8 41q129 20 169 41.5t54 87.5l248 1061q-156 41 -260 41q-182 0 -219 -113q172 -53 172 -168q0 -43 -31 -70.5t-76 -27.5q-74 0 -121 69.5t-47 174.5q0 164 105.5 250t267.5 86q154 0 304.5 -39t276.5 -78t216 -39q129 0 168 67 q-166 55 -166 170q0 49 28.5 78t73.5 29z" glyph-name="Tcommaaccent.swash" horiz-adv-x="1441"/><glyph d="M1454 1661q76 0 125 -63.5t49 -157.5q0 -154 -105.5 -234t-256.5 -80q-104 0 -234 29l-229 -983q-14 -63 18.5 -88t155.5 -43l-10 -41h-684l8 41q129 20 169 41.5t54 87.5l248 1061q-156 41 -260 41q-182 0 -219 -113q172 -53 172 -168q0 -43 -31 -70.5t-76 -27.5 q-74 0 -121 69.5t-47 174.5q0 164 105.5 250t267.5 86q154 0 304.5 -39t276.5 -78t216 -39q129 0 168 67q-166 55 -166 170q0 49 28.5 78t73.5 29zM592 -129q100 0 100 -107q0 -131 -101.5 -232t-240.5 -112v31q176 43 228 205q-25 -12 -52 -12q-37 0 -58.5 20.5t-21.5 54.5 q0 61 44.5 106.5t101.5 45.5z" glyph-name="uni021A.swash" horiz-adv-x="1441"/><glyph d="M1798 1444h643l-10 -41q-109 -20 -145.5 -42t-51.5 -83l-139 -604q-49 -211 -127 -353.5t-182.5 -216t-216 -103.5t-254.5 -30q-287 0 -416 179.5t-49 523.5l154 667h-132q-231 0 -372.5 -88t-143.5 -260q-2 -82 36 -146.5t112 -76.5q61 174 172 174q47 0 71.5 -27.5 t24.5 -70.5q0 -78 -87 -122t-189 -44q-152 0 -242 88t-90 223q0 119 57.5 209t155.5 141.5t217 77t254 25.5h481l-196 -854q-115 -510 206 -510q164 0 269.5 123t163.5 387l159 688q14 61 -14.5 84.5t-130.5 40.5z" glyph-name="U.swash" horiz-adv-x="2281"/><glyph d="M1905 1806l-234 -211l-14 9l125 286q31 86 86 119t102 10q47 -18 31 -85t-96 -128zM1798 1444h643l-10 -41q-109 -20 -145.5 -42t-51.5 -83l-139 -604q-49 -211 -127 -353.5t-182.5 -216t-216 -103.5t-254.5 -30q-287 0 -416 179.5t-49 523.5l154 667h-132 q-231 0 -372.5 -88t-143.5 -260q-2 -82 36 -146.5t112 -76.5q61 174 172 174q47 0 71.5 -27.5t24.5 -70.5q0 -78 -87 -122t-189 -44q-152 0 -242 88t-90 223q0 119 57.5 209t155.5 141.5t217 77t254 25.5h481l-196 -854q-115 -510 206 -510q164 0 269.5 123t163.5 387 l159 688q14 61 -14.5 84.5t-130.5 40.5z" glyph-name="Uacute.swash" horiz-adv-x="2281"/><glyph d="M1735 1812l-281 -196l-10 10l178 250q88 121 157.5 121t98.5 -121l64 -250l-17 -10zM1798 1444h643l-10 -41q-109 -20 -145.5 -42t-51.5 -83l-139 -604q-49 -211 -127 -353.5t-182.5 -216t-216 -103.5t-254.5 -30q-287 0 -416 179.5t-49 523.5l154 667h-132 q-231 0 -372.5 -88t-143.5 -260q-2 -82 36 -146.5t112 -76.5q61 174 172 174q47 0 71.5 -27.5t24.5 -70.5q0 -78 -87 -122t-189 -44q-152 0 -242 88t-90 223q0 119 57.5 209t155.5 141.5t217 77t254 25.5h481l-196 -854q-115 -510 206 -510q164 0 269.5 123t163.5 387 l159 688q14 61 -14.5 84.5t-130.5 40.5z" glyph-name="Ucircumflex.swash" horiz-adv-x="2281"/><glyph d="M1489 1675q-45 0 -74 29t-29 74q0 63 53.5 115.5t116.5 52.5q45 0 75 -30t30 -73q0 -63 -54.5 -115.5t-117.5 -52.5zM1909 1675q-45 0 -74 29t-29 74q0 63 53.5 115.5t116.5 52.5q45 0 74 -30t29 -73q0 -63 -53.5 -115.5t-116.5 -52.5zM1798 1444h643l-10 -41 q-109 -20 -145.5 -42t-51.5 -83l-139 -604q-49 -211 -127 -353.5t-182.5 -216t-216 -103.5t-254.5 -30q-287 0 -416 179.5t-49 523.5l154 667h-132q-231 0 -372.5 -88t-143.5 -260q-2 -82 36 -146.5t112 -76.5q61 174 172 174q47 0 71.5 -27.5t24.5 -70.5q0 -78 -87 -122 t-189 -44q-152 0 -242 88t-90 223q0 119 57.5 209t155.5 141.5t217 77t254 25.5h481l-196 -854q-115 -510 206 -510q164 0 269.5 123t163.5 387l159 688q14 61 -14.5 84.5t-130.5 40.5z" glyph-name="Udieresis.swash" horiz-adv-x="2281"/><glyph d="M1718 1595l-141 211q-51 66 -36 127.5t75 85.5q57 23 96 -10t31 -119l-10 -286zM1798 1444h643l-10 -41q-109 -20 -145.5 -42t-51.5 -83l-139 -604q-49 -211 -127 -353.5t-182.5 -216t-216 -103.5t-254.5 -30q-287 0 -416 179.5t-49 523.5l154 667h-132 q-231 0 -372.5 -88t-143.5 -260q-2 -82 36 -146.5t112 -76.5q61 174 172 174q47 0 71.5 -27.5t24.5 -70.5q0 -78 -87 -122t-189 -44q-152 0 -242 88t-90 223q0 119 57.5 209t155.5 141.5t217 77t254 25.5h481l-196 -854q-115 -510 206 -510q164 0 269.5 123t163.5 387 l159 688q14 61 -14.5 84.5t-130.5 40.5z" glyph-name="Ugrave.swash" horiz-adv-x="2281"/><glyph d="M1690 1823l-156 -226l-16 5l45 256q10 104 52 148t99 40q39 -2 52.5 -30.5t-6 -80t-70.5 -112.5zM1782 1595l-15 11l164 264q51 84 107.5 107.5t89.5 -7.5q39 -27 10 -89t-117 -116zM1798 1444h643l-10 -41q-109 -20 -145.5 -42t-51.5 -83l-139 -604 q-49 -211 -127 -353.5t-182.5 -216t-216 -103.5t-254.5 -30q-287 0 -416 179.5t-49 523.5l154 667h-132q-231 0 -372.5 -88t-143.5 -260q-2 -82 36 -146.5t112 -76.5q61 174 172 174q47 0 71.5 -27.5t24.5 -70.5q0 -78 -87 -122t-189 -44q-152 0 -242 88t-90 223 q0 119 57.5 209t155.5 141.5t217 77t254 25.5h481l-196 -854q-115 -510 206 -510q164 0 269.5 123t163.5 387l159 688q14 61 -14.5 84.5t-130.5 40.5z" glyph-name="Uhungarumlaut.swash" horiz-adv-x="2281"/><glyph d="M2044 1886l-23 -96h-579l22 96h580zM1798 1444h643l-10 -41q-109 -20 -145.5 -42t-51.5 -83l-139 -604q-49 -211 -127 -353.5t-182.5 -216t-216 -103.5t-254.5 -30q-287 0 -416 179.5t-49 523.5l154 667h-132q-231 0 -372.5 -88t-143.5 -260q-2 -82 36 -146.5t112 -76.5 q61 174 172 174q47 0 71.5 -27.5t24.5 -70.5q0 -78 -87 -122t-189 -44q-152 0 -242 88t-90 223q0 119 57.5 209t155.5 141.5t217 77t254 25.5h481l-196 -854q-115 -510 206 -510q164 0 269.5 123t163.5 387l159 688q14 61 -14.5 84.5t-130.5 40.5z" glyph-name="Umacron.swash" horiz-adv-x="2281"/><glyph d="M1798 1444h643l-10 -41q-109 -20 -145.5 -42t-51.5 -83l-139 -604q-76 -328 -218 -485.5t-351 -198.5q-154 -49 -229.5 -129t-75.5 -148q0 -59 67 -59q90 0 168 57l8 -12q-45 -63 -123.5 -107.5t-160.5 -44.5q-139 0 -140 121q0 92 84 174t224 129h-33q-287 0 -416 179.5 t-49 523.5l154 667h-132q-231 0 -372.5 -88t-143.5 -260q-2 -82 36 -146.5t112 -76.5q61 174 172 174q47 0 71.5 -27.5t24.5 -70.5q0 -78 -87 -122t-189 -44q-152 0 -242 88t-90 223q0 119 57.5 209t155.5 141.5t217 77t254 25.5h481l-196 -854q-115 -510 206 -510 q164 0 269.5 123t163.5 387l159 688q14 61 -14.5 84.5t-130.5 40.5z" glyph-name="Uogonek.swash" horiz-adv-x="2281"/><glyph d="M1681 1579q-76 0 -124 46t-48 120q0 113 84 200t193 87q78 0 125 -45t47 -121q0 -113 -84 -200t-193 -87zM1767 1952q-66 0 -117 -57.5t-51 -131.5q0 -49 29 -76.5t72 -27.5q66 0 117 57.5t51 130.5q0 49 -29 77t-72 28zM1798 1444h643l-10 -41q-109 -20 -145.5 -42 t-51.5 -83l-139 -604q-49 -211 -127 -353.5t-182.5 -216t-216 -103.5t-254.5 -30q-287 0 -416 179.5t-49 523.5l154 667h-132q-231 0 -372.5 -88t-143.5 -260q-2 -82 36 -146.5t112 -76.5q61 174 172 174q47 0 71.5 -27.5t24.5 -70.5q0 -78 -87 -122t-189 -44 q-152 0 -242 88t-90 223q0 119 57.5 209t155.5 141.5t217 77t254 25.5h481l-196 -854q-115 -510 206 -510q164 0 269.5 123t163.5 387l159 688q14 61 -14.5 84.5t-130.5 40.5z" glyph-name="Uring.swash" horiz-adv-x="2281"/><glyph d="M1589 1473q129 0 187.5 -137.5t58.5 -344.5q0 -446 -219 -733t-551 -287q-211 0 -352.5 113t-141.5 344q0 395 314 829q-43 -18 -109 -18q-84 0 -187.5 27.5t-158.5 27.5q-113 0 -137 -80q86 -18 128 -67t42 -113q-2 -43 -31 -69.5t-72 -26.5q-68 0 -112.5 68.5 t-44.5 171.5q0 141 87 218t232 77q86 0 216 -27t200 -27q100 0 186 45l43 -22q-158 -346 -221 -576.5t-63 -427.5q0 -338 239 -338q233 0 409.5 249t176.5 671q0 45 -2 74q-240 94 -240 252q0 53 32 90t91 37z" glyph-name="V.swash" horiz-adv-x="1884"/><glyph d="M2159 1473q129 0 187 -137.5t58 -344.5q0 -446 -199.5 -733t-502.5 -287q-190 0 -326 154q-211 -154 -413 -154q-193 0 -308.5 107.5t-115.5 331.5q0 395 333 850q-55 -20 -116 -21q-84 0 -185.5 24.5t-156.5 24.5q-111 0 -135 -74q84 -18 125.5 -68t41.5 -112 q-2 -43 -30.5 -69.5t-71.5 -26.5q-68 0 -112 68.5t-44 171.5q0 141 85 218t227 77q88 0 218 -27t195 -27q117 0 197 45l43 -22q-166 -367 -235.5 -595.5t-69.5 -426.5q0 -319 186 -320q127 0 279 115q-100 178 -101 442q0 293 126 482.5t315 189.5q223 0 223 -280 q0 -184 -87 -387t-233 -369q63 -193 213 -193q195 0 351.5 251t156.5 669q0 43 -2 70q-119 43 -179 111.5t-60 144.5q0 53 32 90t91 37zM1675 1223q-76 0 -124 -126t-48 -349q0 -188 21 -312q225 307 231 611q2 176 -80 176z" glyph-name="W.swash" horiz-adv-x="2457"/><glyph d="M1917 1806l-234 -211l-14 9l125 286q31 86 86 119t102 10q47 -18 31 -85t-96 -128zM2159 1473q129 0 187 -137.5t58 -344.5q0 -446 -199.5 -733t-502.5 -287q-190 0 -326 154q-211 -154 -413 -154q-193 0 -308.5 107.5t-115.5 331.5q0 395 333 850q-55 -20 -116 -21 q-84 0 -185.5 24.5t-156.5 24.5q-111 0 -135 -74q84 -18 125.5 -68t41.5 -112q-2 -43 -30.5 -69.5t-71.5 -26.5q-68 0 -112 68.5t-44 171.5q0 141 85 218t227 77q88 0 218 -27t195 -27q117 0 197 45l43 -22q-166 -367 -235.5 -595.5t-69.5 -426.5q0 -319 186 -320 q127 0 279 115q-100 178 -101 442q0 293 126 482.5t315 189.5q223 0 223 -280q0 -184 -87 -387t-233 -369q63 -193 213 -193q195 0 351.5 251t156.5 669q0 43 -2 70q-119 43 -179 111.5t-60 144.5q0 53 32 90t91 37zM1675 1223q-76 0 -124 -126t-48 -349q0 -188 21 -312 q225 307 231 611q2 176 -80 176z" glyph-name="Wacute.swash" horiz-adv-x="2457"/><glyph d="M1747 1812l-281 -196l-10 10l178 250q88 121 158 121t98 -121l64 -250l-17 -10zM2159 1473q129 0 187 -137.5t58 -344.5q0 -446 -199.5 -733t-502.5 -287q-190 0 -326 154q-211 -154 -413 -154q-193 0 -308.5 107.5t-115.5 331.5q0 395 333 850q-55 -20 -116 -21 q-84 0 -185.5 24.5t-156.5 24.5q-111 0 -135 -74q84 -18 125.5 -68t41.5 -112q-2 -43 -30.5 -69.5t-71.5 -26.5q-68 0 -112 68.5t-44 171.5q0 141 85 218t227 77q88 0 218 -27t195 -27q117 0 197 45l43 -22q-166 -367 -235.5 -595.5t-69.5 -426.5q0 -319 186 -320 q127 0 279 115q-100 178 -101 442q0 293 126 482.5t315 189.5q223 0 223 -280q0 -184 -87 -387t-233 -369q63 -193 213 -193q195 0 351.5 251t156.5 669q0 43 -2 70q-119 43 -179 111.5t-60 144.5q0 53 32 90t91 37zM1675 1223q-76 0 -124 -126t-48 -349q0 -188 21 -312 q225 307 231 611q2 176 -80 176z" glyph-name="Wcircumflex.swash" horiz-adv-x="2457"/><glyph d="M1503 1675q-45 0 -73.5 29t-28.5 74q0 63 53 115.5t117 52.5q45 0 74.5 -30t29.5 -73q0 -63 -53 -115.5t-119 -52.5zM1923 1675q-45 0 -73.5 29t-28.5 74q0 63 53 115.5t117 52.5q45 0 73.5 -30t28.5 -73q0 -63 -53.5 -115.5t-116.5 -52.5zM2159 1473q129 0 187 -137.5 t58 -344.5q0 -446 -199.5 -733t-502.5 -287q-190 0 -326 154q-211 -154 -413 -154q-193 0 -308.5 107.5t-115.5 331.5q0 395 333 850q-55 -20 -116 -21q-84 0 -185.5 24.5t-156.5 24.5q-111 0 -135 -74q84 -18 125.5 -68t41.5 -112q-2 -43 -30.5 -69.5t-71.5 -26.5 q-68 0 -112 68.5t-44 171.5q0 141 85 218t227 77q88 0 218 -27t195 -27q117 0 197 45l43 -22q-166 -367 -235.5 -595.5t-69.5 -426.5q0 -319 186 -320q127 0 279 115q-100 178 -101 442q0 293 126 482.5t315 189.5q223 0 223 -280q0 -184 -87 -387t-233 -369 q63 -193 213 -193q195 0 351.5 251t156.5 669q0 43 -2 70q-119 43 -179 111.5t-60 144.5q0 53 32 90t91 37zM1675 1223q-76 0 -124 -126t-48 -349q0 -188 21 -312q225 307 231 611q2 176 -80 176z" glyph-name="Wdieresis.swash" horiz-adv-x="2457"/><glyph d="M1733 1595l-142 211q-51 66 -35.5 127.5t74.5 85.5q57 23 96 -10t31 -119l-10 -286zM2159 1473q129 0 187 -137.5t58 -344.5q0 -446 -199.5 -733t-502.5 -287q-190 0 -326 154q-211 -154 -413 -154q-193 0 -308.5 107.5t-115.5 331.5q0 395 333 850q-55 -20 -116 -21 q-84 0 -185.5 24.5t-156.5 24.5q-111 0 -135 -74q84 -18 125.5 -68t41.5 -112q-2 -43 -30.5 -69.5t-71.5 -26.5q-68 0 -112 68.5t-44 171.5q0 141 85 218t227 77q88 0 218 -27t195 -27q117 0 197 45l43 -22q-166 -367 -235.5 -595.5t-69.5 -426.5q0 -319 186 -320 q127 0 279 115q-100 178 -101 442q0 293 126 482.5t315 189.5q223 0 223 -280q0 -184 -87 -387t-233 -369q63 -193 213 -193q195 0 351.5 251t156.5 669q0 43 -2 70q-119 43 -179 111.5t-60 144.5q0 53 32 90t91 37zM1675 1223q-76 0 -124 -126t-48 -349q0 -188 21 -312 q225 307 231 611q2 176 -80 176z" glyph-name="Wgrave.swash" horiz-adv-x="2457"/><glyph d="M2296 1473q139 0 139 -119q0 -57 -37 -95t-90 -38q-92 0 -176 77q-195 -133 -455 -507l228 -543q41 -96 104 -96q82 0 164 114l35 -20q-53 -131 -147.5 -202t-188.5 -71q-104 0 -173 58.5t-128 206.5l-152 383q-348 -428 -560 -590t-437 -162q-182 0 -303 118.5 t-121 327.5q0 172 114.5 324t301.5 152q76 0 117.5 -35t41.5 -99q0 -61 -51 -103t-142 -36t-183 78q-84 -113 -84 -262q0 -127 77.5 -211t231.5 -84q223 0 437 157.5t507 526.5l-184 446q-27 68 -54.5 92.5t-64.5 24.5q-78 0 -158 -108l-33 20q51 135 145.5 205t196.5 70 q96 0 162 -54.5t121 -195.5l127 -328q215 307 373 442.5t299 135.5z" glyph-name="X.swash" horiz-adv-x="2234"/><glyph d="M1556 1473q84 0 132.5 -38t48.5 -102q0 -61 -32 -95t-81 -34q-117 0 -197 123q-158 -84 -301 -335t-211 -556l-61 -260q-16 -63 15.5 -90t146.5 -45l-10 -41h-664l10 41q121 20 160 42.5t53 86.5l62 268q45 205 47 400.5t-48.5 327.5t-148.5 132q-129 0 -207 -200l-34 12 q78 362 352 363q379 0 307 -760q109 328 290 544t371 216z" glyph-name="Y.swash" horiz-adv-x="1552"/><glyph d="M1294 1806l-233 -211l-14 9l124 286q31 86 86.5 119t102.5 10q47 -18 30.5 -85t-96.5 -128zM1556 1473q84 0 132.5 -38t48.5 -102q0 -61 -32 -95t-81 -34q-117 0 -197 123q-158 -84 -301 -335t-211 -556l-61 -260q-16 -63 15.5 -90t146.5 -45l-10 -41h-664l10 41 q121 20 160 42.5t53 86.5l62 268q45 205 47 400.5t-48.5 327.5t-148.5 132q-129 0 -207 -200l-34 12q78 362 352 363q379 0 307 -760q109 328 290 544t371 216z" glyph-name="Yacute.swash" horiz-adv-x="1552"/><glyph d="M1124 1812l-280 -196l-10 10l178 250q88 121 157.5 121t98.5 -121l63 -250l-16 -10zM1556 1473q84 0 132.5 -38t48.5 -102q0 -61 -32 -95t-81 -34q-117 0 -197 123q-158 -84 -301 -335t-211 -556l-61 -260q-16 -63 15.5 -90t146.5 -45l-10 -41h-664l10 41 q121 20 160 42.5t53 86.5l62 268q45 205 47 400.5t-48.5 327.5t-148.5 132q-129 0 -207 -200l-34 12q78 362 352 363q379 0 307 -760q109 328 290 544t371 216z" glyph-name="Ycircumflex.swash" horiz-adv-x="1552"/><glyph d="M879 1675q-45 0 -74 29t-29 74q0 63 53.5 115.5t116.5 52.5q45 0 75 -30t30 -73q0 -63 -54.5 -115.5t-117.5 -52.5zM1298 1675q-45 0 -73.5 29t-28.5 74q0 63 53.5 115.5t116.5 52.5q45 0 73.5 -30t28.5 -73q0 -63 -53.5 -115.5t-116.5 -52.5zM1556 1473q84 0 132.5 -38 t48.5 -102q0 -61 -32 -95t-81 -34q-117 0 -197 123q-158 -84 -301 -335t-211 -556l-61 -260q-16 -63 15.5 -90t146.5 -45l-10 -41h-664l10 41q121 20 160 42.5t53 86.5l62 268q45 205 47 400.5t-48.5 327.5t-148.5 132q-129 0 -207 -200l-34 12q78 362 352 363 q379 0 307 -760q109 328 290 544t371 216z" glyph-name="Ydieresis.swash" horiz-adv-x="1552"/><glyph d="M1108 1595l-141 211q-51 66 -36 127.5t75 85.5q57 23 96 -10t31 -119l-11 -286zM1556 1473q84 0 132.5 -38t48.5 -102q0 -61 -32 -95t-81 -34q-117 0 -197 123q-158 -84 -301 -335t-211 -556l-61 -260q-16 -63 15.5 -90t146.5 -45l-10 -41h-664l10 41q121 20 160 42.5 t53 86.5l62 268q45 205 47 400.5t-48.5 327.5t-148.5 132q-129 0 -207 -200l-34 12q78 362 352 363q379 0 307 -760q109 328 290 544t371 216z" glyph-name="Ygrave.swash" horiz-adv-x="1552"/><glyph d="M1112 592q72 0 107.5 -64.5t35.5 -169.5q0 -43 -8 -88t-34.5 -100t-67.5 -98t-112.5 -72t-164.5 -29q-131 0 -255 37t-219 75t-154 38q-63 0 -113 -70l-53 -76l-103 82l1108 1104q-55 -20 -131 -20q-94 0 -239.5 35.5t-216.5 35.5q-117 0 -158 -75q66 -29 103.5 -73 t37.5 -93q0 -43 -29.5 -75t-80.5 -32q-72 0 -108 60.5t-36 160.5q0 47 8.5 94.5t35 101.5t66.5 95t111.5 69t163.5 28q123 0 240 -38t206 -75t142 -37q68 0 106 59l66 93l113 -56l-1131 -1140q57 25 127 24q102 0 265 -36t233 -36q123 0 166 76q-63 29 -101.5 75t-38.5 95 q0 47 29 81t84 34z" glyph-name="Z.swash" horiz-adv-x="1355"/><glyph d="M1159 1806l-233 -211l-15 9l125 286q31 86 86.5 119t102.5 10q47 -18 30.5 -85t-96.5 -128zM1112 592q72 0 107.5 -64.5t35.5 -169.5q0 -43 -8 -88t-34.5 -100t-67.5 -98t-112.5 -72t-164.5 -29q-131 0 -255 37t-219 75t-154 38q-63 0 -113 -70l-53 -76l-103 82 l1108 1104q-55 -20 -131 -20q-94 0 -239.5 35.5t-216.5 35.5q-117 0 -158 -75q66 -29 103.5 -73t37.5 -93q0 -43 -29.5 -75t-80.5 -32q-72 0 -108 60.5t-36 160.5q0 47 8.5 94.5t35 101.5t66.5 95t111.5 69t163.5 28q123 0 240 -38t206 -75t142 -37q68 0 106 59l66 93 l113 -56l-1131 -1140q57 25 127 24q102 0 265 -36t233 -36q123 0 166 76q-63 29 -101.5 75t-38.5 95q0 47 29 81t84 34z" glyph-name="Zacute.swash" horiz-adv-x="1355"/><glyph d="M944 1616q-39 0 -61.5 26.5t-38.5 92.5l-64 250l19 12l190 -199l281 199l10 -12l-180 -248q-82 -121 -156 -121zM1112 592q72 0 107.5 -64.5t35.5 -169.5q0 -43 -8 -88t-34.5 -100t-67.5 -98t-112.5 -72t-164.5 -29q-131 0 -255 37t-219 75t-154 38q-63 0 -113 -70 l-53 -76l-103 82l1108 1104q-55 -20 -131 -20q-94 0 -239.5 35.5t-216.5 35.5q-117 0 -158 -75q66 -29 103.5 -73t37.5 -93q0 -43 -29.5 -75t-80.5 -32q-72 0 -108 60.5t-36 160.5q0 47 8.5 94.5t35 101.5t66.5 95t111.5 69t163.5 28q123 0 240 -38t206 -75t142 -37 q68 0 106 59l66 93l113 -56l-1131 -1140q57 25 127 24q102 0 265 -36t233 -36q123 0 166 76q-63 29 -101.5 75t-38.5 95q0 47 29 81t84 34z" glyph-name="Zcaron.swash" horiz-adv-x="1355"/><glyph d="M950 1653q-53 0 -87 33.5t-34 85.5q0 74 61.5 133t137.5 59q53 0 87 -33t34 -84q0 -72 -61.5 -133t-137.5 -61zM1112 592q72 0 107.5 -64.5t35.5 -169.5q0 -43 -8 -88t-34.5 -100t-67.5 -98t-112.5 -72t-164.5 -29q-131 0 -255 37t-219 75t-154 38q-63 0 -113 -70 l-53 -76l-103 82l1108 1104q-55 -20 -131 -20q-94 0 -239.5 35.5t-216.5 35.5q-117 0 -158 -75q66 -29 103.5 -73t37.5 -93q0 -43 -29.5 -75t-80.5 -32q-72 0 -108 60.5t-36 160.5q0 47 8.5 94.5t35 101.5t66.5 95t111.5 69t163.5 28q123 0 240 -38t206 -75t142 -37 q68 0 106 59l66 93l113 -56l-1131 -1140q57 25 127 24q102 0 265 -36t233 -36q123 0 166 76q-63 29 -101.5 75t-38.5 95q0 47 29 81t84 34z" glyph-name="Zdotaccent.swash" horiz-adv-x="1355"/><glyph d="M492 1186q-53 0 -87 33.5t-34 85.5q0 74 61.5 133t136.5 59q53 0 87 -32.5t34 -84.5q0 -72 -61 -133t-137 -61zM283 -29q-225 0 -156 324l106 459q12 53 -2 71.5t-96 36.5l10 41l410 92l-180 -786q-18 -88 13.5 -114.5t146.5 3.5l12 -39q-102 -88 -264 -88z" glyph-name="i.locl" horiz-adv-x="636"/><glyph d="M1042 977h66l-193 -852q-123 -532 -618 -533q-166 0 -246 50.5t-80 124.5q0 55 32 93t83 38q113 0 184 -217q121 6 220.5 99t146.5 279l27 111q-131 -199 -347 -199q-129 0 -198.5 92.5t-69.5 253.5q0 285 177 487t431 202q166 0 234 -142zM418 98q94 0 186 125t141 318 l43 180q-12 190 -112 190q-135 0 -243.5 -194.5t-108.5 -431.5q0 -187 94 -187z" glyph-name="g.salt" horiz-adv-x="1175"/><glyph d="M731 1153q-106 0 -146 85t-3 230h30q-12 -70 27 -122t119 -52q86 0 153.5 51.5t87.5 122.5h31q-31 -150 -110.5 -232.5t-188.5 -82.5zM1042 977h66l-193 -852q-123 -532 -618 -533q-166 0 -246 50.5t-80 124.5q0 55 32 93t83 38q113 0 184 -217q121 6 220.5 99t146.5 279 l27 111q-131 -199 -347 -199q-129 0 -198.5 92.5t-69.5 253.5q0 285 177 487t431 202q166 0 234 -142zM418 98q94 0 186 125t141 318l43 180q-12 190 -112 190q-135 0 -243.5 -194.5t-108.5 -431.5q0 -187 94 -187z" glyph-name="gbreve.salt" horiz-adv-x="1175"/><glyph d="M741 1176q-51 0 -76.5 30.5t-25.5 75.5q0 131 102.5 233.5t241.5 112.5v-33q-176 -43 -227 -202q27 10 51 10q37 0 58.5 -19.5t21.5 -54.5q0 -61 -44.5 -107t-101.5 -46zM1042 977h66l-193 -852q-123 -532 -618 -533q-166 0 -246 50.5t-80 124.5q0 55 32 93t83 38 q113 0 184 -217q121 6 220.5 99t146.5 279l27 111q-131 -199 -347 -199q-129 0 -198.5 92.5t-69.5 253.5q0 285 177 487t431 202q166 0 234 -142zM418 98q94 0 186 125t141 318l43 180q-12 190 -112 190q-135 0 -243.5 -194.5t-108.5 -431.5q0 -187 94 -187z" glyph-name="gcommaaccent.salt" horiz-adv-x="1175"/><glyph d="M739 1186q-53 0 -87 33.5t-34 85.5q0 74 61.5 133t137.5 59q53 0 87 -32.5t34 -84.5q0 -72 -61.5 -133t-137.5 -61zM1042 977h66l-193 -852q-123 -532 -618 -533q-166 0 -246 50.5t-80 124.5q0 55 32 93t83 38q113 0 184 -217q121 6 220.5 99t146.5 279l27 111 q-131 -199 -347 -199q-129 0 -198.5 92.5t-69.5 253.5q0 285 177 487t431 202q166 0 234 -142zM418 98q94 0 186 125t141 318l43 180q-12 190 -112 190q-135 0 -243.5 -194.5t-108.5 -431.5q0 -187 94 -187z" glyph-name="gdotaccent.salt" horiz-adv-x="1175"/><glyph d="M897 977h268l-192 -838q-37 -160 -106.5 -272.5t-160 -169.5t-179.5 -81t-189 -24q-162 0 -242 51.5t-80 125.5q0 57 32 93t81 36q106 0 190 -211q283 14 375 389l41 172q-158 -276 -413 -277q-55 0 -98.5 16.5t-79 58.5t-41 112.5t15.5 177.5l114 485q10 53 -14 75 t-102 40l10 41h412l-148 -631q-53 -229 62 -229q102 0 209.5 154.5t175.5 447.5z" glyph-name="y.salt" horiz-adv-x="1241"/><glyph d="M956 1339l-233 -211l-14 9l125 286q31 86 86 119t102 10q47 -18 30.5 -85t-96.5 -128zM897 977h268l-192 -838q-37 -160 -106.5 -272.5t-160 -169.5t-179.5 -81t-189 -24q-162 0 -242 51.5t-80 125.5q0 57 32 93t81 36q106 0 190 -211q283 14 375 389l41 172 q-158 -276 -413 -277q-55 0 -98.5 16.5t-79 58.5t-41 112.5t15.5 177.5l114 485q10 53 -14 75t-102 40l10 41h412l-148 -631q-53 -229 62 -229q102 0 209.5 154.5t175.5 447.5z" glyph-name="yacute.salt" horiz-adv-x="1241"/><glyph d="M784 1348l-258 -170l-12 12l166 227q45 61 78 87t73 26q37 0 58.5 -26.5t38.5 -90.5l65 -254l-16 -10zM897 977h268l-192 -838q-37 -160 -106.5 -272.5t-160 -169.5t-179.5 -81t-189 -24q-162 0 -242 51.5t-80 125.5q0 57 32 93t81 36q106 0 190 -211q283 14 375 389 l41 172q-158 -276 -413 -277q-55 0 -98.5 16.5t-79 58.5t-41 112.5t15.5 177.5l114 485q10 53 -14 75t-102 40l10 41h412l-148 -631q-53 -229 62 -229q102 0 209.5 154.5t175.5 447.5z" glyph-name="ycircumflex.salt" horiz-adv-x="1241"/><glyph d="M543 1208q-45 0 -74 29t-29 74q0 63 53.5 115.5t116.5 52.5q45 0 75 -30t30 -73q0 -63 -54.5 -115.5t-117.5 -52.5zM963 1208q-45 0 -74 29t-29 74q0 63 53.5 115.5t116.5 52.5q45 0 74 -30t29 -73q0 -63 -53.5 -115.5t-116.5 -52.5zM897 977h268l-192 -838 q-37 -160 -106.5 -272.5t-160 -169.5t-179.5 -81t-189 -24q-162 0 -242 51.5t-80 125.5q0 57 32 93t81 36q106 0 190 -211q283 14 375 389l41 172q-158 -276 -413 -277q-55 0 -98.5 16.5t-79 58.5t-41 112.5t15.5 177.5l114 485q10 53 -14 75t-102 40l10 41h412l-148 -631 q-53 -229 62 -229q102 0 209.5 154.5t175.5 447.5z" glyph-name="ydieresis.salt" horiz-adv-x="1241"/><glyph d="M758 1128l-142 211q-53 66 -41.5 129.5t72.5 83.5q59 20 101.5 -12.5t33.5 -124.5l-10 -278zM897 977h268l-192 -838q-37 -160 -106.5 -272.5t-160 -169.5t-179.5 -81t-189 -24q-162 0 -242 51.5t-80 125.5q0 57 32 93t81 36q106 0 190 -211q283 14 375 389l41 172 q-158 -276 -413 -277q-55 0 -98.5 16.5t-79 58.5t-41 112.5t15.5 177.5l114 485q10 53 -14 75t-102 40l10 41h412l-148 -631q-53 -229 62 -229q102 0 209.5 154.5t175.5 447.5z" glyph-name="ygrave.salt" horiz-adv-x="1241"/></font>
</defs>
</svg>
