<?xml version="1.0" standalone="no"?>
<!DOCTYPE svg PUBLIC "-//W3C//DTD SVG 1.1//EN" "http://www.w3.org/Graphics/SVG/1.1/DTD/svg11.dtd">
<svg xmlns="http://www.w3.org/2000/svg"><metadata>This SVG WebFont was generated by YouWorkForThem.
Copyright Â© 2018 by Emil Bertell All rights reserved.</metadata><defs><font horiz-adv-x="0" id="ywftsvg"><font-face ascent="1638" bbox="-772 -567 2683 2099.4" cap-height="1440" descent="-410" font-family="" font-stretch="normal" font-weight="300" panose-1="0 0 4 0 0 0 0 0 0 0" underline-position="0" underline-thickness="0" unicode-range="U+0020-FB02" units-per-em="2048" x-height="973"/><missing-glyph horiz-adv-x="987"/><glyph d="M1182 154q0 -61 33.5 -84t142.5 -41v-29h-537v29q111 18 144.5 40.5t33.5 84.5v745h-557v-745q0 -61 40 -84t175 -41v-29h-577v29q113 18 147.5 41.5t34.5 83.5v745h-199v74h199v166q0 203 93.5 304t308.5 101q197 0 321.5 -74.5t124.5 -173.5q0 -39 -24.5 -61.5 t-69.5 -22.5q-70 0 -104.5 65.5t-32.5 158.5q-88 29 -195 28q-121 0 -181.5 -62.5t-60.5 -203.5v-225h740v-819z" glyph-name="uniFB01" horiz-adv-x="1441" unicode="fi"/><glyph d="M1188 154q0 -59 32.5 -83t141.5 -42v-29h-533v29q109 18 143 40.5t34 84.5v1206q-150 104 -330 104q-113 0 -173.5 -54t-60.5 -183v-254h334v-74h-334v-745q0 -59 42 -83t178 -42v-29h-582v29q113 18 147.5 41.5t34.5 83.5v745h-199v74h199v190q0 193 93.5 287t287.5 94 q205 0 399 -84l146 80v-1386z" glyph-name="uniFB02" horiz-adv-x="1431" unicode="fl"/><glyph d="M1477 1001q186 0 319 -132t133 -371q0 -244 -138 -383.5t-341 -139.5q-221 0 -334 168l-119 -143h-41v1354q-154 113 -309 112q-205 0 -205 -227v-266h287v-74h-287v-745q0 -61 42 -84t180 -41v-29h-584v29q113 18 147.5 41.5t34.5 83.5v745h-199v74h199v198 q0 373 365 373q186 0 364 -80l146 78v-713q125 172 340 172zM1423 59q143 0 225.5 120t82.5 319q0 195 -76 306t-211 111q-213 0 -307 -198v-473q83 -185 286 -185z" glyph-name="f_b.liga" horiz-adv-x="2027" unicode="fb"/><glyph d="M1319 1544q145 0 249.5 -65.5t104.5 -153.5q0 -39 -24.5 -62.5t-65.5 -23.5q-63 0 -98 63.5t-25 151.5q-41 12 -117 12q-180 0 -180 -233v-260h287v-74h-287v-745q0 -61 43 -84t185 -41v-29h-588v29q111 18 145.5 41.5t34.5 83.5v745h-541v-745q0 -59 41 -83t176 -42v-29 h-579v29q113 18 147.5 41.5t34.5 83.5v745h-199v74h199v215q0 356 322 356q129 0 229 -65.5t100 -151.5q0 -39 -23.5 -61.5t-62.5 -22.5q-61 0 -93 60.5t-27 152.5q-35 10 -101 10q-164 0 -164 -215v-278h541v194q0 377 336 377z" glyph-name="f_f.liga" horiz-adv-x="1501" unicode="ff"/><glyph d="M1927 154q0 -61 33 -84t141 -41v-29h-534v29q111 18 144.5 41.5t33.5 83.5v745h-559v-745q0 -59 41 -83t174 -42v-29h-576v29q111 18 146 41.5t35 83.5v745h-564v-745q0 -61 43 -84t185 -41v-29h-590v29q113 18 147.5 41.5t34.5 83.5v745h-199v74h199v194q0 377 336 377 q135 0 236.5 -64.5t101.5 -150.5q0 -37 -25.5 -60.5t-64.5 -23.5q-59 -2 -92 60.5t-23 148.5q-41 12 -108 12q-180 0 -181 -233v-260h564v166q0 205 94 305t309 100q197 0 320.5 -74.5t123.5 -173.5q0 -39 -24.5 -61.5t-69.5 -22.5q-70 0 -104.5 65.5t-32.5 158.5 q-86 29 -195 28q-121 0 -181 -62.5t-60 -203.5v-225h741v-819z" glyph-name="f_f_i.liga" horiz-adv-x="2185" unicode="ffi"/><glyph d="M1939 154q0 -61 34 -84t143 -41v-29h-535v29q109 18 142.5 40.5t33.5 84.5v1208q-154 102 -330 102q-113 0 -173 -54t-60 -183v-254h334v-74h-334v-745q0 -59 42 -83t177 -42v-29h-579v29q111 18 145.5 41.5t34.5 83.5v745h-572v-745q0 -59 42 -83t178 -42v-29h-582v29 q113 18 147.5 41.5t34.5 83.5v745h-199v74h199v194q0 377 336 377q141 0 240.5 -63.5t99.5 -149.5q0 -35 -24.5 -58.5t-63.5 -23.5q-63 0 -96 62.5t-23 144.5q-39 10 -108 10q-180 0 -181 -233v-260h572v190q0 193 93 287t290 94q203 0 397 -84l145 80v-1386z" glyph-name="f_f_l.liga" horiz-adv-x="2183" unicode="ffl"/><glyph d="M1894 154q0 -61 33 -84t144 -41v-29h-531v29q104 18 137 41.5t33 83.5v475q0 264 -199 264q-229 0 -323 -287v-452q0 -59 32.5 -83t137.5 -42v-29h-529v29q109 18 143 40.5t34 84.5v1222q-154 88 -324 88q-240 0 -240 -239v-252h287v-74h-287v-745q0 -61 42 -84t180 -41 v-29h-584v29q113 18 147.5 41.5t34.5 83.5v745h-199v74h199v186q0 385 391 385q205 0 389 -80l146 78v-831q55 143 152.5 215.5t220.5 72.5q334 0 333 -354v-491z" glyph-name="f_h.liga" horiz-adv-x="2125" unicode="fh"/><glyph d="M442 973h699v-854q0 -268 -113 -394t-291 -126q-80 0 -127 31.5t-47 80.5q0 35 23.5 58.5t60.5 23.5q86 0 178 -125q133 76 133 355v876h-516v-745q0 -61 40 -84t175 -41v-29h-577v29q113 18 147.5 41.5t34.5 83.5v745h-199v74h199v194q0 184 84 280.5t277 94.5 q178 0 290.5 -66.5t112.5 -156.5q0 -41 -23.5 -62.5t-60.5 -21.5q-131 0 -151 217q-59 14 -136 14q-109 0 -161 -57t-52 -180v-256z" glyph-name="f_j.liga" horiz-adv-x="1306" unicode="fj"/><glyph d="M1810 209q53 -90 99.5 -124t134.5 -56v-29h-535v29q111 20 133.5 54t-30.5 124l-209 332l-209 -166v-219q0 -59 33 -83t137 -42v-29h-528v29q109 18 142.5 40.5t33.5 84.5v1222q-147 88 -334 88q-236 0 -236 -247v-244h287v-74h-287v-745q0 -61 43 -84t185 -41v-29h-590 v29q113 18 147.5 41.5t34.5 83.5v745h-199v74h199v178q0 184 91 288.5t286 104.5q219 0 410 -82l145 80v-1081l434 344q131 104 -86 139v29h475v-29q-154 -39 -303 -158l-172 -137z" glyph-name="f_k.liga" horiz-adv-x="2064" unicode="fk"/><glyph d="M1382.5 1235q-49.5 0 -84 34t-34.5 85q0 49 34.5 84t84 35t85 -35t35.5 -84t-35.5 -84t-85 -35zM977 948q-82 -6 -160 90q-51 -29 -100 -77q201 -84 201 -299q0 -119 -66 -199t-148.5 -108.5t-175.5 -30.5q-233 0 -233 -84q0 -68 276 -88q244 -18 354.5 -78t110.5 -191 q0 -285 -518 -284q-494 0 -493 217q0 86 85 142t238 71q-178 45 -178 166q0 119 180 157q-223 78 -223 310q0 119 66.5 199.5t151.5 109t177 28.5q68 0 140 -18q117 154 262 158q55 2 91 -22.5t40 -65.5q4 -43 -18.5 -71t-59.5 -32zM1139 879v28l352 82v-870 q0 -260 -106.5 -381t-262.5 -139l-10 41q197 63 197 370v760q0 55 -27.5 73t-142.5 36zM522 401q102 0 167 64.5t65 196t-64.5 197t-167.5 65.5q-104 0 -167.5 -65.5t-63.5 -197t63.5 -196t167.5 -64.5zM883 -150q0 72 -71 102t-265 46q-6 2 -20.5 2t-22.5 2 q-309 -29 -309 -180q0 -145 329 -146q147 0 253 43t106 131z" glyph-name="g_j.liga" horiz-adv-x="1671" unicode="gj"/><glyph glyph-name=".notdef" horiz-adv-x="987"/><glyph glyph-name="glyph1"/><glyph glyph-name="glyph2" horiz-adv-x="681"/><glyph glyph-name="space" horiz-adv-x="415" unicode=" "/><glyph d="M293 1466q115 0 96 -186l-78 -872h-35l-75 872q-23 186 92 186zM293 -25q-47 0 -80 33t-33 82q0 45 33 78t80 33t81 -33t34 -78q0 -49 -34 -82t-81 -33z" glyph-name="exclam" horiz-adv-x="587" unicode="!"/><glyph d="M221 1544q53 0 73.5 -48t2.5 -138l-57 -311h-31l-59 311q-18 90 1 138t70 48zM532 1544q53 0 75 -48t3 -138l-59 -311h-31l-57 311q-18 90 0 138t69 48z" glyph-name="quotedbl" horiz-adv-x="759" unicode="&quot;"/><glyph d="M1522 969h-222l-92 -473h213v-74h-225l-82 -422h-170l82 422h-520l-82 -422h-166l82 422h-201v74h213l92 473h-204v73h219l76 398h165l-75 -398h520l76 398h170l-76 -398h207v-73zM1038 496l92 473h-520l-92 -473h520z" glyph-name="numbersign" horiz-adv-x="1660" unicode="#"/><glyph d="M633 821q219 -55 326.5 -143t107.5 -250t-110.5 -251t-270.5 -89q-37 0 -53 2v-194l-90 2v202q-84 16 -215 80q-57 29 -92 29t-53.5 -20.5t-39.5 -71.5h-24v516h33q20 -207 129.5 -316.5t261.5 -136.5v490q-209 45 -320.5 135t-111.5 254q0 137 102 223t260 86 q29 0 70 -4v180h90v-196q25 -6 145 -56q88 -37 120 -28.5t52 77.5h25v-475h-33q-39 336 -309 402v-447zM262 1085q0 -94 66.5 -147t214.5 -94v438h-33q-121 0 -184.5 -53.5t-63.5 -143.5zM633 174q135 0 210 57.5t72 161.5q-2 98 -70.5 159.5t-211.5 98.5v-477z" glyph-name="dollar" horiz-adv-x="1163" unicode="$"/><glyph d="M374.5 831q-145.5 0 -236.5 82t-91 236t91 235.5t236.5 81.5t236.5 -81.5t91 -235.5t-91 -236t-236.5 -82zM1233 1440h117l-1106 -1440h-117zM375 895q78 0 120 66.5t42 187.5t-42 187.5t-120 66.5t-120 -66.5t-42 -187.5t42 -187.5t120 -66.5zM1091.5 -25 q-145.5 0 -236.5 82t-91 235.5t91 235.5t236.5 82t236.5 -82t91 -235.5t-91 -235.5t-236.5 -82zM1091.5 39q77.5 0 119.5 66.5t42 187.5t-42 187.5t-119.5 66.5t-119.5 -66.5t-42 -187.5t42 -187.5t119.5 -66.5z" glyph-name="percent" horiz-adv-x="1466" unicode="%"/><glyph d="M1692 309l32 -6q-16 -121 -96 -214t-229 -93q-180 0 -375 119q-219 -141 -494 -142q-233 0 -356 96.5t-123 262.5q0 311 416 430q-88 197 -88 348q0 162 112.5 259t315.5 97q176 0 276.5 -77.5t100.5 -206.5q0 -88 -45 -160t-127 -122t-164 -82t-189 -60 q76 -143 190 -274.5t243 -223.5q145 127 215 293q68 160 -162 188v29h485v-29q-98 -18 -147 -56t-90 -128q-96 -205 -238 -338q160 -98 299 -98q183 0 238 188zM805 1384q-119 0 -188.5 -63.5t-69.5 -192.5q0 -139 84 -317q391 135 395 371q2 102 -59.5 152t-161.5 50z M578 66q199 0 374 96q-139 100 -259 244.5t-199 300.5q-256 -123 -256 -359q0 -127 92 -204.5t248 -77.5z" glyph-name="ampersand" horiz-adv-x="1755" unicode="&amp;"/><glyph d="M221 1544q53 0 73.5 -48t2.5 -138l-57 -311h-31l-59 311q-18 90 1 138t70 48z" glyph-name="quotesingle" horiz-adv-x="448" unicode="'"/><glyph d="M266 721q0 354 168 597t434 337l11 -35q-180 -72 -306.5 -331t-126.5 -568t126 -568t307 -331l-11 -35q-266 94 -434 337t-168 597z" glyph-name="parenleft" horiz-adv-x="1056" unicode="("/><glyph d="M788 721q0 -354 -166.5 -597t-433.5 -337l-10 35q180 72 305 331t125 568t-125 568t-305 331l10 35q266 -94 433 -337t167 -597z" glyph-name="parenright" horiz-adv-x="1056" unicode=")"/><glyph d="M547 1112q41 -16 53 -42t-2 -44q-35 -51 -98 10l-127 119l30 -166q8 -43 -5 -65.5t-40 -22.5q-61 0 -43 88l31 166l-127 -119q-61 -61 -98 -10q-31 53 53 86l160 70l-162 69q-82 33 -49 86q31 49 98 -12l125 -117l-31 170q-8 43 4.5 65.5t39 22.5t40 -22.5t4.5 -65.5 l-30 -170l127 117q63 61 98 12q14 -18 2 -43.5t-53 -42.5l-160 -71z" glyph-name="asterisk" horiz-adv-x="718" unicode="*"/><glyph d="M985 754v-78h-375v-381h-84v381h-374v78h374v374h84v-374h375z" glyph-name="plus" horiz-adv-x="1136" unicode="+"/><glyph d="M221 193q127 0 127 -187q0 -145 -84 -245.5t-229 -129.5l-12 31q117 41 175 118t60 202q-16 -8 -43 -9q-47 0 -75.5 31t-28.5 80q0 47 30.5 78t79.5 31z" glyph-name="comma" horiz-adv-x="450" unicode=","/><glyph d="M147 625h801v-78h-801v78z" glyph-name="hyphen" horiz-adv-x="1097" unicode="-"/><glyph d="M242 -25q-47 0 -81 33t-34 82q0 45 34 78t81 33t80.5 -33t33.5 -78q0 -49 -33.5 -82t-80.5 -33z" glyph-name="period" horiz-adv-x="483" unicode="."/><glyph d="M1044 1659h105l-999 -1892h-105z" glyph-name="slash" horiz-adv-x="1193" unicode="/"/><glyph d="M755.5 -27q-270.5 0 -447.5 197t-177 543q0 348 178 550.5t446.5 202.5t447.5 -202.5t179 -550.5q0 -346 -178 -543t-448.5 -197zM756 59q197 0 306 165t109 489q0 319 -110.5 493t-304.5 174q-193 0 -303.5 -174t-110.5 -493q0 -324 109.5 -489t304.5 -165z" glyph-name="zero" horiz-adv-x="1513" unicode="0"/><glyph d="M510 1446v-1292q0 -59 37 -83t155 -42v-29h-585v29q119 18 155.5 41.5t36.5 83.5l-2 1146h-190v37l159 31q147 27 201 78h33z" glyph-name="one" horiz-adv-x="811" unicode="1"/><glyph d="M1102 514h33v-514h-1018v80q317 193 513.5 444.5t196.5 524.5q0 170 -78.5 252.5t-207.5 82.5q-127 0 -213 -53q6 -131 -32 -222t-124 -95q-51 -2 -75.5 28.5t-24.5 73.5q0 117 138 233.5t361 116.5q219 0 343 -109.5t124 -312.5q0 -453 -694 -905h408q168 0 231.5 69.5 t118.5 305.5z" glyph-name="two" horiz-adv-x="1280" unicode="2"/><glyph d="M707 731q207 -20 317.5 -115.5t110.5 -246.5q0 -193 -146.5 -294.5t-394.5 -101.5q-211 0 -357.5 80t-148.5 207q-2 47 24.5 77t67.5 30q57 0 109.5 -77t83.5 -196q88 -39 184 -39q186 0 279.5 87t93.5 231q0 158 -104.5 232.5t-354.5 74.5h-135v90h135q215 0 321.5 95.5 t106.5 244.5q0 127 -74.5 199.5t-206.5 72.5q-156 0 -256 -59q-4 -133 -46 -213t-109 -80q-86 0 -86 105q0 127 151.5 229t380.5 102q90 0 166 -16t142.5 -54t104.5 -108.5t38 -167.5q0 -141 -102 -244.5t-295 -144.5z" glyph-name="three" horiz-adv-x="1280" unicode="3"/><glyph d="M1245 328h-223v-174q0 -59 34 -83t142 -42v-29h-545v29q109 18 142.5 41.5t33.5 83.5v174h-790v63l772 1049h211v-1024h223v-88zM166 416h663v895z" glyph-name="four" horiz-adv-x="1296" unicode="4"/><glyph d="M641 846q197 0 320.5 -102.5t123.5 -309.5q0 -223 -151.5 -342t-401.5 -119q-182 0 -319 87t-137 216q0 41 24.5 68t65.5 27q61 0 110.5 -77t75.5 -204q74 -35 166 -35q164 0 260 104.5t96 272.5q0 164 -78.5 246t-201.5 82q-133 0 -223 -43t-127 -105l-72 17l2 811h713 q41 0 61.5 12t40.5 49h33v-235h-752l-2 -539q137 119 373 119z" glyph-name="five" horiz-adv-x="1218" unicode="5"/><glyph d="M799 823q180 0 300 -96t120 -301q0 -201 -147.5 -327t-373.5 -126q-279 0 -423 191.5t-144 544.5q0 322 174 539.5t471 217.5q178 0 296 -79.5t118 -182.5q0 -37 -25.5 -61.5t-66.5 -24.5q-82 0 -140.5 72t-87.5 188q-41 4 -69 4q-223 6 -341 -179t-118 -501 q0 -59 4 -149q59 119 174 194.5t279 75.5zM698 59q143 0 229.5 98.5t86.5 264.5q0 158 -70 237.5t-194 79.5q-127 0 -230.5 -78.5t-161.5 -218.5q31 -201 116 -292t224 -91z" glyph-name="six" horiz-adv-x="1345" unicode="6"/><glyph d="M145 1440h838v-68l-510 -1372h-209l606 1282h-850v219h33q10 -37 28.5 -49t63.5 -12z" glyph-name="seven" horiz-adv-x="1048" unicode="7"/><glyph d="M801 811q205 -86 300 -190.5t95 -268.5q0 -188 -152.5 -283.5t-406.5 -95.5q-266 0 -391 98.5t-125 250.5q2 145 107.5 248.5t293.5 156.5q-332 156 -332 403q0 156 135.5 246t352.5 90q213 0 332.5 -86t117.5 -225q-2 -119 -88.5 -208t-238.5 -136zM362 1155 q0 -94 80 -165.5t279 -145.5h2q238 115 238 313q0 106 -75 165.5t-208 59.5q-137 0 -226.5 -58t-89.5 -169zM637 57q170 0 277.5 74t107.5 205q0 115 -86 191.5t-293 150.5q-8 2 -20.5 7t-20.5 7q-311 -123 -311 -362q0 -119 86 -196t260 -77z" glyph-name="eight" horiz-adv-x="1316" unicode="8"/><glyph d="M606 1466q268 0 431 -192.5t163 -536.5q0 -350 -170 -557t-473 -207q-190 0 -327.5 82t-139.5 213q-4 41 19.5 67.5t66.5 26.5q66 0 117 -73.5t82 -194.5q76 -37 174 -37q229 0 333.5 166t104.5 514q0 68 -2 99q-68 -106 -183.5 -177t-273.5 -71q-90 0 -168.5 22.5 t-144 70.5t-103.5 131t-38 194q0 205 150.5 332.5t381.5 127.5zM578 674q127 0 234.5 76.5t160.5 201.5q-61 428 -369 428q-154 0 -246 -99t-92 -269q0 -164 83.5 -251t228.5 -87z" glyph-name="nine" horiz-adv-x="1329" unicode="9"/><glyph d="M266 655q-47 0 -80.5 33t-33.5 82q0 45 33.5 78t80.5 33t81 -33t34 -78q0 -49 -34 -82t-81 -33zM266 -25q-47 0 -80.5 33t-33.5 82q0 45 33.5 78t80.5 33t81 -33t34 -78q0 -49 -34 -82t-81 -33z" glyph-name="colon" horiz-adv-x="532" unicode=":"/><glyph d="M283 672q-47 0 -80 32.5t-33 81.5q0 45 33 78t80 33t80.5 -33t33.5 -78q0 -49 -33.5 -81.5t-80.5 -32.5zM283 193q127 0 127 -187q0 -145 -84 -245.5t-230 -129.5l-12 31q117 41 175 118t60 202q-16 -8 -43 -9q-47 0 -75.5 31t-28.5 80q0 47 31 78t80 31z" glyph-name="semicolon" horiz-adv-x="536" unicode=";"/><glyph d="M1073 1018l-754 -328l752 -328l-29 -77l-849 370v70l849 371z" glyph-name="less" horiz-adv-x="1222" unicode="&lt;"/><glyph d="M152 872v78h856v-78h-856zM152 453v79h856v-79h-856z" glyph-name="equal" horiz-adv-x="1159" unicode="="/><glyph d="M164 1096l850 -371v-70l-850 -370l-29 77l752 328l-754 328z" glyph-name="greater" horiz-adv-x="1163" unicode=">"/><glyph d="M637 1466q211 0 325.5 -93t114.5 -257q0 -102 -40 -185t-116.5 -144.5t-160.5 -104.5t-197 -84v-205h-98v238q223 111 314 231.5t91 257.5q0 133 -73.5 198.5t-202.5 65.5q-135 0 -244 -65q20 -289 -135 -289q-39 0 -58.5 27.5t-19.5 68.5q0 133 147.5 236.5t352.5 103.5 zM514 201q47 0 81 -33t34 -78q0 -49 -34 -82t-81 -33t-81 33t-34 82q0 45 34 78t81 33z" glyph-name="question" horiz-adv-x="1243" unicode="?"/><glyph d="M1036 1411q365 0 590 -220t225 -550q0 -246 -102 -364.5t-252 -118.5q-125 0 -196.5 66.5t-88.5 160.5q-37 -100 -113.5 -151.5t-166.5 -51.5q-158 0 -251 112t-93 292q0 184 95 295.5t259 111.5q182 0 262 -159l119 149h35v-496q0 -254 170 -254q231 0 231 400 q0 139 -44 264t-129 225.5t-227 159.5t-323 59q-348 0 -559 -210.5t-211 -555.5q0 -180 60.5 -318t164 -220t232.5 -123t276 -41q268 4 449 123l16 -21q-86 -84 -219 -128t-272 -44q-377 0 -587 217.5t-210 554.5q0 360 230.5 598t629.5 238zM979 266q78 0 132 57.5 t77 153.5v232q-41 205 -205 204q-102 0 -159.5 -86t-57.5 -241q0 -320 213 -320z" glyph-name="at" horiz-adv-x="2009" unicode="@"/><glyph d="M1434 246q51 -121 90 -158t131 -59v-29h-651v29q176 23 223 61.5t0 151.5l-111 268h-684l-106 -262q-41 -100 9 -148.5t220 -70.5v-29h-545v29q86 18 132 65t91 156l486 1190h225zM465 586h620l-311 760z" glyph-name="A" horiz-adv-x="1665" unicode="A"/><glyph d="M1063 750q422 -37 422 -344q0 -406 -606 -406h-748v29q137 18 180 41.5t43 83.5v1132q0 59 -43 83t-180 42v29h793q248 0 362.5 -83t114.5 -249q0 -125 -84 -224t-254 -134zM868 1360h-321v-576h323q174 0 254 93.5t80 220.5q0 121 -74 191.5t-262 70.5zM842 78 q129 0 221 28.5t138 80t65.5 105.5t19.5 120q0 125 -92 209t-313 84h-334v-627h295z" glyph-name="B" horiz-adv-x="1605" unicode="B"/><glyph d="M803 -27q-295 0 -491.5 209t-196.5 541t210 537.5t506 205.5q166 0 351 -92q82 -39 117.5 -26.5t74.5 94.5h27v-613h-37q-25 293 -162 423t-342 130q-252 0 -394 -188t-142 -471q0 -276 140 -461.5t384 -185.5q217 0 366.5 110.5t208.5 272.5l39 -10q-41 -184 -222 -330 t-437 -146z" glyph-name="C" horiz-adv-x="1560" unicode="C"/><glyph d="M827 1440q406 0 636.5 -181.5t230.5 -535.5q0 -356 -231.5 -539.5t-635.5 -183.5h-696v29q137 18 180 41.5t43 83.5v1132q0 59 -43 83t-180 42v29h696zM819 80q328 0 495 169t167 474q0 303 -167 470t-495 167h-266v-1280h266z" glyph-name="D" horiz-adv-x="1806" unicode="D"/><glyph d="M1401 496h33l-45 -496h-1258v29q137 18 180 41.5t43 83.5v1132q0 59 -43 83t-180 42v29h1237v-494h-33q-33 248 -109.5 331t-267.5 83h-405v-574h248q133 0 187 64.5t75 257.5h33v-729h-33q-20 195 -74.5 260.5t-187.5 65.5h-248v-627h418q195 0 291 96.5t139 321.5z" glyph-name="E" horiz-adv-x="1542" unicode="E"/><glyph d="M1368 1440v-527h-33q-33 266 -109.5 356.5t-267.5 90.5h-405v-574h248q133 0 187 64.5t75 257.5h33v-729h-33q-20 195 -74.5 260.5t-187.5 65.5h-248v-535q0 -72 63.5 -97.5t274.5 -43.5v-29h-760v29q137 18 180 41.5t43 83.5v1132q0 59 -43 83t-180 42v29h1237z" glyph-name="F" horiz-adv-x="1425" unicode="F"/><glyph d="M1647 729v-29q-115 -16 -149 -39.5t-34 -85.5v-575h-39q-29 78 -49 104.5t-57 26.5q-33 0 -107.5 -39t-185.5 -79t-233 -40q-293 0 -485.5 209t-192.5 541t210 537.5t506 205.5q156 0 365 -86q72 -33 108.5 -22.5t67.5 84.5h31v-531h-37q-70 471 -504 471 q-252 0 -394 -188t-142 -471q0 -274 138 -460.5t374 -186.5q244 0 436 160v339q0 59 -50 83t-212 42v29h635z" glyph-name="G" horiz-adv-x="1722" unicode="G"/><glyph d="M1802 1411q-137 -16 -179 -39.5t-42 -85.5v-1132q0 -61 42 -84t179 -41v-29h-643v29q137 18 180 41.5t43 83.5v577h-829v-577q0 -61 42 -84t179 -41v-29h-643v29q137 18 180 41.5t43 83.5v1132q0 59 -43 83t-180 42v29h643v-29q-137 -18 -179 -40.5t-42 -84.5v-475h829 v475q0 59 -43 83t-180 42v29h643v-29z" glyph-name="H" horiz-adv-x="1933" unicode="H"/><glyph d="M774 1411q-137 -16 -179 -39.5t-42 -85.5v-1132q0 -61 42 -84t179 -41v-29h-643v29q137 18 180 41.5t43 83.5v1132q0 59 -43 83t-180 42v29h643v-29z" glyph-name="I" horiz-adv-x="905" unicode="I"/><glyph d="M496 1440h663v-29q-127 -16 -164 -44t-37 -105v-676q0 -319 -150.5 -466t-395.5 -147q-201 0 -304.5 89.5t-103.5 183.5q0 51 29.5 82.5t81.5 31.5q76 0 132 -86t72 -221q14 -2 48 -2q391 0 391 471v740q0 78 -49.5 104.5t-212.5 44.5v29z" glyph-name="J" horiz-adv-x="1239" unicode="J"/><glyph d="M1479 207q55 -80 108 -119t154 -59v-29h-656v29q96 12 140.5 30.5t53.5 54.5t-36 91l-422 588l-268 -236v-403q0 -61 41 -84t176 -41v-29h-639v29q137 18 180 41.5t43 83.5v1132q0 59 -43 83t-180 42v29h643v-29q-137 -18 -179 -40.5t-42 -84.5v-624l621 552 q94 82 74.5 130.5t-156.5 66.5v29h596v-29q-195 -29 -398 -205l-321 -282z" glyph-name="K" horiz-adv-x="1796" unicode="K"/><glyph d="M1368 528h33l-45 -528h-1225v29q137 18 180 41.5t43 83.5v1132q0 59 -43 83t-180 42v29h741v-29q-201 -16 -260 -42t-59 -99v-1192h385q190 0 281.5 102t148.5 348z" glyph-name="L" horiz-adv-x="1456" unicode="L"/><glyph d="M2316 1411q-137 -18 -179 -41.5t-42 -83.5v-1061q0 -96 55.5 -135t165.5 -61v-29h-645v29q141 18 182 54t41 142v1086l-682 -1180h-88l-692 1143v-1020q0 -113 67.5 -158t198.5 -67v-29h-587v29q55 10 87.5 21t68.5 36t52.5 66t16.5 102v1032q0 61 -42 84t-179 41v29h444 l668 -1098l633 1098h456v-29z" glyph-name="M" horiz-adv-x="2447" unicode="M"/><glyph d="M1204 1440h584v-29q-113 -23 -170 -65.5t-57 -153.5v-1192h-185l-946 1266v-1018q0 -111 66.5 -154t197.5 -65v-29h-583v29q113 23 170 65.5t57 153.5v1038q0 59 -43 83t-180 42v29h428l925 -1237v989q0 111 -66.5 154t-197.5 65v29z" glyph-name="N" horiz-adv-x="1880" unicode="N"/><glyph d="M868 -27q-317 0 -535 202t-218 546t218 544.5t535 200.5q315 0 534.5 -200.5t219.5 -544.5t-219.5 -546t-534.5 -202zM868 59q242 0 391.5 184.5t149.5 477.5t-148.5 476t-392 183t-393 -183t-149.5 -476t149 -477.5t393 -184.5z" glyph-name="O" horiz-adv-x="1734" unicode="O"/><glyph d="M893 1440q522 0 522 -408q0 -209 -135 -320.5t-395 -111.5h-338v-426q0 -76 54 -101.5t233 -43.5v-29h-703v29q137 18 180 41.5t43 83.5v1132q0 59 -43 83t-180 42v29h762zM834 682q205 0 296 97.5t91 248.5q0 332 -387 332h-287v-678h287z" glyph-name="P" horiz-adv-x="1454" unicode="P"/><glyph d="M1184 -270q197 0 309 161l35 -14q-125 -299 -371 -299q-141 0 -335.5 89t-301.5 89q-96 0 -188 -35l-27 52l363 223q-246 59 -399.5 248.5t-153.5 476.5q0 344 218 544.5t535 200.5q315 0 534.5 -200.5t219.5 -544.5t-219 -546t-535 -202q-49 0 -98 7l-213 -132 q125 10 330 -54t297 -64zM326 721q0 -293 149.5 -477.5t392.5 -184.5q242 0 391.5 184.5t149.5 477.5t-148.5 476t-392 183t-393 -183t-149.5 -476z" glyph-name="Q" horiz-adv-x="1742" unicode="Q"/><glyph d="M1583 242l27 -13q-31 -127 -101.5 -191.5t-167.5 -64.5q-115 0 -180 79t-100 280q-18 104 -57 179t-79 113t-99.5 58t-98.5 23.5t-98 3.5h-82v-535q0 -76 42 -101.5t183 -43.5v-29h-641v29q137 18 180 41.5t43 83.5v1132q0 59 -43 83t-180 42v29h766q469 0 469 -346 q0 -168 -137 -264.5t-387 -100.5q156 -20 257 -95t142 -249q39 -182 72 -243.5t96 -61.5q100 0 174 162zM547 784h229q195 0 295 88.5t100 217.5q0 123 -78.5 196.5t-254.5 73.5h-291v-576z" glyph-name="R" horiz-adv-x="1609" unicode="R"/><glyph d="M1061 328q-2 129 -100.5 198.5t-321.5 118.5q-238 55 -361.5 156.5t-123.5 298.5q0 164 118.5 265t307.5 101q178 0 362 -92q76 -41 113 -27.5t61 95.5h25v-555h-33q-45 494 -496 493q-147 0 -221 -68.5t-74 -178.5q0 -127 90.5 -193t286.5 -111q268 -61 398.5 -162.5 t130.5 -293.5q0 -188 -136.5 -294t-343.5 -106q-86 0 -160.5 15.5t-111.5 31t-102 48.5q-57 27 -89 25.5t-48.5 -21t-38.5 -72.5h-27v555h33q14 -141 61 -241.5t118 -154t148.5 -77t169.5 -23.5q174 0 270.5 73t94.5 196z" glyph-name="S" horiz-adv-x="1347" unicode="S"/><glyph d="M1325 1440v-506h-33q-23 180 -62.5 271t-102 123t-179.5 32h-153v-1206q0 -59 49 -83t209 -42v-29h-717v29q160 18 209 41.5t49 83.5v1206h-154q-117 0 -179 -32t-102 -123t-63 -271h-33v506h1262z" glyph-name="T" horiz-adv-x="1388" unicode="T"/><glyph d="M283 666v620q0 59 -40 83t-163 42v29h618v-29q-135 -18 -175 -40.5t-40 -84.5v-655q0 -293 100.5 -432.5t307.5 -139.5t307 139.5t100 432.5v655q0 61 -43 85t-180 40v29h623v-29q-123 -16 -162 -39.5t-39 -85.5v-620q0 -352 -161.5 -522.5t-444.5 -170.5t-445.5 170.5 t-162.5 522.5z" glyph-name="U" horiz-adv-x="1777" unicode="U"/><glyph d="M1128 1440h537v-29q-90 -18 -133 -62t-84 -147l-492 -1202h-221l-491 1196q-49 121 -87 158t-130 57v29h643v-29q-174 -20 -221.5 -60t-2.5 -153l455 -1102l451 1102q41 98 -9.5 144.5t-214.5 68.5v29z" glyph-name="V" horiz-adv-x="1691" unicode="V"/><glyph d="M2146 1440h537v-29q-90 -18 -132 -61t-85 -148l-492 -1202h-221l-399 1206l-398 -1206h-221l-491 1196q-49 121 -87 158t-130 57v29h643v-29q-174 -20 -221.5 -60t-2.5 -153l453 -1096l356 1096q33 102 -14 147.5t-209 65.5v29h735v-29q-160 -20 -201.5 -59t-4.5 -154 l360 -1096l449 1096q41 98 -9.5 144.5t-214.5 68.5v29z" glyph-name="W" horiz-adv-x="2709" unicode="W"/><glyph d="M1284 238q82 -109 134 -150t138 -59v-29h-673v29q168 18 205.5 66t-37.5 151l-332 440l-326 -457q-66 -88 -28 -135t200 -65v-29h-545v29q86 18 142.5 61t124.5 137l372 521l-350 454q-84 111 -138 152t-142 57v29h676v-29q-166 -18 -203 -63t41 -150l305 -397l315 405 q135 176 -164 205v29h545v-29q-88 -18 -142 -60t-128 -141l-367 -471z" glyph-name="X" horiz-adv-x="1576" unicode="X"/><glyph d="M1022 1440h518v-29q-84 -18 -141.5 -62t-130.5 -145l-379 -520v-530q0 -61 41 -84t178 -41v-29h-641v29q137 18 179 41.5t42 83.5v514l-379 534q-78 109 -134 151t-146 58v29h659v-29q-145 -18 -180 -67.5t33 -145.5l305 -442l311 432q74 109 41 158t-176 65v29z" glyph-name="Y" horiz-adv-x="1564" unicode="Y"/><glyph d="M135 0v68l838 1292h-477q-127 0 -195 -33t-108.5 -126t-61.5 -277h-33v516h1112v-54l-845 -1306h499q188 0 263 84t106 350h33v-514h-1131z" glyph-name="Z" horiz-adv-x="1382" unicode="Z"/><glyph d="M459 -121h268v-80h-444v1841h444v-79h-268v-1682z" glyph-name="bracketleft" horiz-adv-x="876" unicode="["/><glyph d="M150 1659l999 -1892h-105l-999 1892h105z" glyph-name="backslash" horiz-adv-x="1193" unicode="\"/><glyph d="M418 -121v1682h-268v79h444v-1841h-444v80h268z" glyph-name="bracketright" horiz-adv-x="876" unicode="]"/><glyph glyph-name="asciicircum" horiz-adv-x="1228" unicode="^"/><glyph d="M139 -100h891v-78h-891v78z" glyph-name="underscore" horiz-adv-x="1171" unicode="_"/><glyph d="M1130 150l31 -17q-49 -152 -209 -151q-184 0 -184 229q-68 -109 -175.5 -174.5t-225.5 -65.5q-131 0 -190.5 65.5t-59.5 166.5q0 139 147.5 237.5t495.5 151.5v37q0 164 -54.5 226.5t-175.5 62.5q-117 0 -211 -50q39 -125 10.5 -185t-100.5 -60q-86 0 -86 96 q0 119 134.5 199.5t295.5 80.5q174 0 271.5 -78.5t97.5 -285.5v-473q0 -102 70 -103q67 1 118 91zM432 84q86 0 175 57.5t153 161.5v227q-256 -53 -357.5 -130.5t-101.5 -174.5q0 -141 131 -141z" glyph-name="a" horiz-adv-x="1173" unicode="a"/><glyph d="M721 1001q184 0 318.5 -137t134.5 -378.5t-140.5 -376t-339.5 -134.5q-221 0 -332 166l-116 -141h-45v1315q0 59 -28 77.5t-138 34.5v29l348 86v-708q123 167 338 167zM668 59q143 0 225 115t82 311q0 199 -76 316t-211 117q-213 0 -305 -199v-483q84 -177 285 -177z" glyph-name="b" horiz-adv-x="1271" unicode="b"/><glyph d="M631 57q213 0 321 144l45 -41q-147 -186 -405 -187q-225 0 -359.5 138.5t-134.5 380.5q0 238 143.5 372.5t360.5 134.5q174 0 285.5 -84t111.5 -194q0 -39 -22.5 -66.5t-65.5 -27.5q-154 0 -145 272q-61 23 -152 23q-154 0 -235.5 -117t-81.5 -313q0 -435 334 -435z" glyph-name="c" horiz-adv-x="1095" unicode="c"/><glyph d="M1081 154q0 -59 35 -83t152 -42v-29h-363v141q-121 -168 -325 -168q-195 0 -334.5 139.5t-139.5 381t140.5 373.5t345.5 132q197 0 307 -147v453q0 63 -28.5 82.5t-147.5 35.5v29l358 82v-1380zM608 53q199 0 291 201v469q-82 197 -283 197q-147 0 -229 -113t-82 -313.5 t81 -320.5t222 -120z" glyph-name="d" horiz-adv-x="1312" unicode="d"/><glyph d="M583.5 999q202.5 0 331.5 -129t121 -401h-739q10 -410 338 -410q223 0 336 140l43 -41q-152 -184 -414 -185q-223 0 -362.5 137.5t-139.5 385.5q0 240 141.5 371.5t344 131.5zM582 920q-127 0 -201 -99.5t-82 -279.5h541q-4 180 -70.5 279.5t-187.5 99.5z" glyph-name="e" horiz-adv-x="1122" unicode="e"/><glyph d="M598 1544q143 0 248.5 -66.5t105.5 -152.5q0 -41 -23.5 -63.5t-60.5 -22.5q-66 0 -103.5 65.5t-31.5 151.5q-39 10 -110 10q-180 0 -181 -233v-260h287v-74h-287v-745q0 -61 43 -84t185 -41v-29h-590v29q113 18 147.5 41.5t34.5 83.5v745h-199v74h199v194q0 377 336 377z " glyph-name="f" horiz-adv-x="780" unicode="f"/><glyph d="M571 152q244 -18 354.5 -78t110.5 -191q0 -285 -518 -284q-494 0 -493 217q0 86 85 142t238 71q-178 45 -178 166q0 119 180 157q-223 78 -223 310q0 119 66.5 199.5t151.5 109t177 28.5q68 0 140 -18q117 154 262 158q55 2 91 -22.5t40 -65.5q4 -43 -18.5 -71t-59.5 -32 q-82 -6 -160 90q-51 -29 -100 -77q201 -84 201 -299q0 -119 -66 -199t-148.5 -108.5t-175.5 -30.5q-233 0 -233 -84q0 -68 276 -88zM522 924q-104 0 -167.5 -65.5t-63.5 -197t63.5 -196t167.5 -64.5q102 0 167 64.5t65 196t-65 197t-167 65.5zM524 -324q147 0 253 43 t106 131q0 72 -71 102t-265 46q-6 2 -20.5 2t-22.5 2q-309 -29 -309 -180q-1 -146 329 -146z" glyph-name="g" horiz-adv-x="1069" unicode="g"/><glyph d="M1126 154q0 -61 34 -84t145 -41v-29h-533v29q104 18 137 41.5t33 83.5v475q0 264 -199 264q-96 0 -183 -65.5t-140 -223.5v-450q0 -59 32.5 -83t137.5 -42v-29h-529v29q111 18 145 41.5t34 83.5v1149q0 55 -27 72.5t-137 35.5v29l344 82v-811q55 143 152.5 215.5 t220.5 72.5q334 0 333 -354v-491z" glyph-name="h" horiz-adv-x="1359" unicode="h"/><glyph d="M366.5 1235q-49.5 0 -85 35t-35.5 84t35.5 84t85 35t84 -35t34.5 -84q0 -51 -34.5 -85t-84 -34zM471 154q0 -59 33 -83t141 -42v-29h-534v29q111 18 144.5 41.5t33.5 83.5v612q0 55 -26.5 72.5t-137.5 35.5v29l346 86v-835z" glyph-name="i" horiz-adv-x="729" unicode="i"/><glyph d="M313 1235q-49 0 -83.5 34t-34.5 85q0 49 34.5 84t83.5 35t85 -35t36 -84t-36 -84t-85 -35zM70 879v28l352 82v-870q0 -268 -108.5 -394t-280.5 -126q-84 0 -131 30.5t-47 81.5q0 35 22.5 58.5t59.5 23.5q86 0 178 -125q125 78 125 355v747q0 55 -27.5 73t-142.5 36z" glyph-name="j" horiz-adv-x="602" unicode="j"/><glyph d="M1036 209q55 -90 100.5 -124t133.5 -56v-29h-535v29q111 20 133.5 54t-28.5 124l-211 332l-209 -166v-219q0 -59 32.5 -83t137.5 -42v-29h-529v29q111 18 145 41.5t34 83.5v1167q0 55 -28 73.5t-136 35.5v28l344 84v-1081l434 344q131 104 -86 139v29h475v-29 q-154 -39 -303 -158l-172 -137z" glyph-name="k" horiz-adv-x="1292" unicode="k"/><glyph d="M422 154q0 -61 32.5 -84t141.5 -41v-29h-535v29q111 18 145 41.5t34 83.5v1167q0 55 -28 73.5t-138 35.5v28l348 82v-1386z" glyph-name="l" horiz-adv-x="663" unicode="l"/><glyph d="M1870 154q0 -61 33.5 -84t144.5 -41v-29h-532v29q104 18 137 41.5t33 83.5v475q0 266 -191 266q-219 0 -319 -258v-483q0 -59 32.5 -83t137.5 -42v-29h-523v29q104 18 136 41.5t32 83.5v475q0 266 -192 266q-233 0 -328 -289v-452q0 -59 33 -83t137 -42v-29h-530v29 q111 18 144.5 41.5t33.5 83.5v616q0 55 -28 72.5t-138 36.5v28l348 82v-270q115 283 379 282q281 0 319 -272q57 135 154.5 203.5t218.5 68.5q137 0 232.5 -79.5t95.5 -276.5v-491z" glyph-name="m" horiz-adv-x="2103" unicode="m"/><glyph d="M1176 154q0 -61 33.5 -84t144.5 -41v-29h-531v29q104 18 136 41.5t32 83.5v469q0 150 -51 210t-141 60q-100 0 -187.5 -72.5t-140.5 -222.5v-444q0 -59 33 -83t137 -42v-29h-530v29q111 18 144.5 41.5t33.5 83.5v614q0 55 -29 73.5t-143 37.5v28l354 82v-264 q57 129 155.5 201.5t223.5 72.5q137 0 231.5 -80.5t94.5 -279.5v-485z" glyph-name="n" horiz-adv-x="1409" unicode="n"/><glyph d="M618.5 -25q-223.5 0 -372 132.5t-148.5 375.5q0 248 148.5 382t372 134t372 -134t148.5 -382q0 -244 -148.5 -376t-372 -132zM618.5 55q155.5 0 238.5 112t83 316q0 209 -84 323t-237.5 114t-237.5 -114t-84 -323q0 -205 83 -316.5t238.5 -111.5z" glyph-name="o" horiz-adv-x="1236" unicode="o"/><glyph d="M721 1001q186 0 319.5 -136t133.5 -377.5t-139.5 -377t-338.5 -135.5q-201 0 -313 144v-340q0 -59 43 -83t180 -42v-29h-586v29q113 18 147 40.5t34 84.5v991q0 55 -29 73.5t-139 35.5v28l350 82v-155q123 167 338 167zM672 55q141 0 222 117t81 315.5t-77 316.5 t-210 118q-209 0 -305 -203v-473q80 -191 289 -191z" glyph-name="p" horiz-adv-x="1271" unicode="p"/><glyph d="M1071 -221q0 -61 34 -84t144 -41v-29h-585v29q139 18 181 40.5t42 84.5v352q-121 -158 -315.5 -158t-335 139.5t-140.5 381t141.5 373.5t348.5 132q221 0 334 -190l114 164h37v-1194zM598 53q201 0 289 201v475q-82 190 -275 191q-152 0 -234.5 -113t-82.5 -313.5 t82 -320.5t221 -120z" glyph-name="q" horiz-adv-x="1261" unicode="q"/><glyph d="M782 999q74 0 111 -30.5t37 -83.5q0 -47 -25.5 -74t-64.5 -27q-82 0 -152 111q-145 -74 -217 -367v-374q0 -59 46 -83t194 -42v-29h-600v29q111 18 144.5 41.5t33.5 83.5v616q0 55 -28 72.5t-144 36.5v28l354 82v-276q47 139 128 212.5t183 73.5z" glyph-name="r" horiz-adv-x="931" unicode="r"/><glyph d="M520 582q199 -47 276.5 -124t77.5 -204q0 -141 -99 -211t-247 -70q-201 0 -321 121l-53 -94h-45v395h53q10 -152 94 -246t248 -94q92 0 156.5 42t64.5 122q0 74 -56.5 118t-203.5 79q-190 43 -270 125t-80 202q0 115 83 185.5t246 70.5q184 0 306 -112l36 86h45v-369h-53 q-16 168 -96 242t-227 74q-92 0 -141.5 -39t-49.5 -107q0 -70 55.5 -113.5t200.5 -78.5z" glyph-name="s" horiz-adv-x="1001" unicode="s"/><glyph d="M805 207l37 -31q-123 -203 -350 -203q-147 0 -213 81t-66 249v596h-158v74h162l131 274h47v-274h375v-74h-375v-643q0 -195 154 -195q145 1 256 146z" glyph-name="t" horiz-adv-x="858" unicode="t"/><glyph d="M1120 154q0 -61 34 -84t146 -41v-29h-362v231q-111 -258 -367 -258q-338 0 -338 365v481q0 59 -33.5 83t-144.5 42v29h363v-617q0 -276 194 -276q231 0 326 278v461q0 61 -36 84t-157 41v29h375v-819z" glyph-name="u" horiz-adv-x="1382" unicode="u"/><glyph d="M813 973h440v-29q-78 -20 -115.5 -51t-78.5 -121l-344 -772h-178l-344 770q-41 90 -80 123t-115 51v29h534v-29q-43 -8 -70.5 -15t-52 -21.5t-33.5 -34t-6 -50t21 -71.5l283 -646l287 668q33 78 -3 114t-145 56v29z" glyph-name="v" horiz-adv-x="1251" unicode="v"/><glyph d="M1507 973h426v-29q-76 -20 -110.5 -50t-67.5 -122l-307 -772h-170l-313 780l-314 -780h-168l-307 772q-35 90 -70.5 121t-107.5 51v29h516v-29q-115 -20 -148.5 -53t1.5 -125l245 -633l334 840h127l334 -842l248 641q29 80 -6 117t-142 55v29z" glyph-name="w" horiz-adv-x="1929" unicode="w"/><glyph d="M940 209q119 -150 244 -180v-29h-572v29q139 31 159 68.5t-48 117.5l-186 231l-234 -278q-84 -113 133 -139v-29h-420v29q61 16 107.5 56t126.5 136l237 287l-211 260q-113 143 -241 176v29h567v-29q-137 -27 -157.5 -63.5t49.5 -118.5l178 -221l186 227q51 61 48 97 t-36.5 50.5t-111.5 28.5v29h403v-29q-82 -29 -211 -184l-229 -279z" glyph-name="x" horiz-adv-x="1198" unicode="x"/><glyph d="M815 973h436v-29q-80 -18 -116.5 -49t-77.5 -123l-283 -641q-229 -532 -549 -532q-82 0 -137 31.5t-55 99.5q0 39 24.5 65.5t65.5 26.5q106 0 190 -144q141 45 262 242l-385 852q-43 94 -79.5 124t-112.5 48v29h530v-29q-104 -18 -141 -57t-4 -115l291 -666q2 6 7 17.5 t7 17.5l260 594q25 55 27 92t-19.5 60.5t-53.5 35t-87 21.5v29z" glyph-name="y" horiz-adv-x="1249" unicode="y"/><glyph d="M344 74h285q143 0 190 57t80 240h53v-371h-829v55l592 844h-295q-49 0 -83 -5t-59.5 -25.5t-40 -36t-27.5 -59.5t-19.5 -71.5t-20.5 -95.5h-51v367h813v-53z" glyph-name="z" horiz-adv-x="1062" unicode="z"/><glyph d="M307 737q113 -20 180.5 -95t67.5 -185q0 -90 -22.5 -211t-22.5 -183q0 -135 67.5 -188t225.5 -33l4 -32q-209 -63 -341 -1t-132 252q0 76 24.5 208t24.5 204q0 227 -203 227h-117v78h115q113 0 161 51.5t48 155.5q0 70 -24.5 198t-24.5 214q0 182 132 253.5t347 14.5 l-6 -33q-297 37 -297 -221q0 -74 22.5 -194.5t22.5 -198.5q0 -121 -66.5 -193t-185.5 -88z" glyph-name="braceleft" horiz-adv-x="901" unicode="{"/><glyph d="M317 -281v1895h93v-1895h-93z" glyph-name="bar" horiz-adv-x="727" unicode="|"/><glyph d="M596 737q-119 16 -186.5 88t-67.5 193q0 78 22.5 198.5t22.5 194.5q0 127 -69.5 183.5t-227.5 37.5l-6 33q215 57 347 -14.5t132 -253.5q0 -86 -23.5 -214t-23.5 -198q0 -104 48 -155.5t159 -51.5h115v-78h-117q-201 0 -201 -227q0 -72 23.5 -204t23.5 -208 q0 -190 -131 -252.5t-342 1.5l6 32q156 -20 223.5 33t67.5 188q0 61 -22.5 182.5t-22.5 211.5q0 111 67.5 185.5t182.5 94.5z" glyph-name="braceright" horiz-adv-x="901" unicode="}"/><glyph glyph-name="asciitilde" horiz-adv-x="1228" unicode="~"/><glyph d="M293 1004q47 0 81 -34t34 -81t-34 -80t-81 -33t-80 34t-33 79q0 47 33 81t80 34zM293 -487q-115 0 -92 184l75 874h35l78 -874q19 -184 -96 -184z" glyph-name="exclamdown" horiz-adv-x="587" unicode="¡"/><glyph d="M647 319q199 6 303 140l45 -41q-131 -160 -348 -178v-240h-92v240q-201 10 -318.5 139t-117.5 354q0 217 123 341t313 136v230h92v-230q162 -12 259.5 -93t97.5 -183q0 -39 -24 -65.5t-71 -26.5q-150 0 -141 272q-59 20 -121 23v-818zM317 733q0 -354 238 -405v802 q-117 -23 -177.5 -126t-60.5 -271z" glyph-name="cent" horiz-adv-x="1099" unicode="¢"/><glyph d="M1362 553q18 -250 -78 -415t-287 -165q-184 0 -346 158q-115 -131 -315 -131q-121 0 -184.5 61.5t-63.5 155.5q0 92 65.5 153.5t176.5 61.5q113 0 256 -94v6q0 45 -8.5 87t-31 92t-33.5 71.5t-50 84t-45 75.5h-275v77h230q-76 147 -76 291q0 166 119 255t305 89 q248 0 368.5 -97t120.5 -204q0 -47 -24.5 -73.5t-67.5 -26.5q-80 0 -123 72.5t-34 205.5q-76 37 -203 37q-262 0 -262 -241q0 -111 100 -308h414v-77h-375q109 -213 108 -379q0 -63 -22 -131q147 -94 280.5 -94t218.5 99t95 304h47zM338 82q72 0 133 35t92 104 q-129 129 -233 129q-70 0 -111 -34.5t-41 -100.5q0 -59 43 -96t117 -37z" glyph-name="sterling" horiz-adv-x="1486" unicode="£"/><glyph glyph-name="currency" horiz-adv-x="1228" unicode="¤"/><glyph d="M944 1440h498v-29q-82 -18 -137.5 -62t-130.5 -145l-312 -413h381v-80h-409v-279h409v-80h-409v-198q0 -61 42 -84t179 -41v-29h-643v29q137 18 180 41.5t43 83.5v198h-410v80h410v279h-410v80h369l-299 411q-78 106 -133.5 149.5t-143.5 59.5v29h639v-29 q-129 -18 -159.5 -67.5t30.5 -145.5l263 -375l270 365q66 109 37 157t-154 66v29z" glyph-name="yen" horiz-adv-x="1460" unicode="¥"/><glyph d="M317 774v840h93v-840h-93zM410 557v-838h-93v838h93z" glyph-name="brokenbar" horiz-adv-x="727" unicode="¦"/><glyph d="M1227 639q0 -127 -101.5 -207t-265.5 -104q123 -47 188.5 -119t65.5 -189q0 -121 -89 -196.5t-237 -75.5q-162 0 -327 72q-84 33 -115 22.5t-55 -67.5h-27v415h33q16 -190 135 -273t299 -83q225 0 225 164q0 94 -76.5 138t-279.5 95q-229 55 -339.5 139.5t-110.5 221.5 q0 125 97 199.5t261 97.5q-246 98 -246 315q0 121 88 191.5t246 70.5q141 0 311 -69q86 -35 117 -25t57 70h25v-418h-33q-4 100 -43 173t-103.5 111t-136 55t-153.5 17q-219 0 -219 -155q0 -98 82 -149.5t278 -90.5q229 -47 339 -127t110 -219zM721 371q158 0 256 62.5 t96 166.5q-2 84 -81 139.5t-269 89.5q-27 4 -76 17q-158 -4 -251 -58.5t-91 -156.5q0 -84 80 -142.5t270 -101.5q10 -2 33 -7t33 -9z" glyph-name="section" horiz-adv-x="1388" unicode="§"/><glyph d="M874 -27q-328 0 -542.5 217.5t-214.5 530.5t215 529t542 216q330 0 545 -216t215 -529q0 -315 -215 -531.5t-545 -216.5zM874.5 1409q-288.5 0 -489.5 -193.5t-201 -494.5t201 -494.5t489.5 -193.5t490.5 193.5t202 494.5t-202 494.5t-490.5 193.5zM950 383q98 0 168 52 t103 138l18 -4q-23 -111 -109 -187.5t-223 -76.5q-170 0 -284.5 106.5t-114.5 319.5q0 203 111.5 314.5t254.5 111.5q92 0 207 -49q47 -23 74 -13.5t45 60.5h21v-362h-27q-25 156 -92.5 225t-177.5 69q-113 0 -182.5 -95t-69.5 -265q0 -166 75.5 -255t202.5 -89z" glyph-name="copyright" horiz-adv-x="1751" unicode="©"/><glyph d="M891 834l-252 -289l252 -289l-14 -23l-267 177q-57 39 -80.5 67.5t-23.5 67.5t22.5 63.5t85.5 67.5l263 180zM553 831l-254 -288l254 -291l-16 -23l-265 179q-59 39 -82.5 67.5t-23.5 67.5q0 37 22.5 61.5t87.5 69.5l261 180z" glyph-name="guillemotleft" horiz-adv-x="1081" unicode="«"/><glyph glyph-name="logicalnot" horiz-adv-x="1228" unicode="¬"/><glyph d="M563.5 1462q196.5 0 328.5 -121.5t132 -314t-132 -314.5t-328.5 -122t-330 120.5t-133.5 313.5t133.5 315.5t330 122.5zM563 641q162 0 280 102.5t118 282.5q0 178 -118 280.5t-280 102.5t-279.5 -102.5t-117.5 -282.5q0 -178 117.5 -280.5t279.5 -102.5zM848 889l10 -4 q-20 -96 -106 -97q-45 0 -66.5 27t-34.5 92q-12 57 -35.5 77t-68.5 20h-49v-142q0 -25 16 -33t66 -14v-20h-248v20q45 6 59.5 13.5t14.5 27.5v336q0 20 -14.5 27.5t-59.5 13.5v20h248q186 0 186 -110q0 -47 -40 -80t-105 -43q96 -12 118 -105q10 -47 20.5 -64t31.5 -17 q32 0 57 55zM498 1206v-157h45q131 0 131 90q0 39 -31 53t-100 14h-45z" glyph-name="registered" horiz-adv-x="1126" unicode="®"/><glyph d="M518 764q-152 0 -256 97t-104 253q0 154 104.5 253t255.5 99q154 0 257.5 -98t103.5 -254t-103.5 -253t-257.5 -97zM518.5 850q106.5 0 183 69.5t76.5 194.5t-76.5 195.5t-183 70.5t-182.5 -70.5t-76 -195.5t76 -194.5t182.5 -69.5z" glyph-name="degree" horiz-adv-x="1036" unicode="°"/><glyph d="M610 899h375v-80h-375v-293h-84v293h-374v80h374v287h84v-287zM152 248v78h833v-78h-833z" glyph-name="plusminus" horiz-adv-x="1136" unicode="±"/><glyph d="M1485 1440v-29q-127 -18 -166 -41.5t-39 -83.5v-1409h-111v1483h-245v-1483h-111v610h-141q-272 0 -424 121t-152 358.5t150.5 355.5t425.5 118h813zM813 567v793h-100q-430 0 -430 -397q0 -395 430 -396h100z" glyph-name="paragraph" horiz-adv-x="1564" unicode="¶"/><glyph d="M242 545q-47 0 -81 32.5t-34 81.5q0 45 34 78t81 33t80.5 -32.5t33.5 -78.5q0 -49 -33.5 -81.5t-80.5 -32.5z" glyph-name="periodcentered" horiz-adv-x="483" unicode="·"/><glyph d="M575 545q0 -39 -23.5 -67.5t-82.5 -67.5l-264 -177l-15 23l252 289l-252 289l15 22l260 -180q66 -43 88 -67.5t22 -63.5zM805 674q63 -45 85.5 -69.5t22.5 -61.5q0 -39 -23.5 -68t-80.5 -67l-266 -179l-15 23l252 291l-252 288l15 23z" glyph-name="guillemotright" horiz-adv-x="1081" unicode="»"/><glyph d="M479 750v-25h-409v25q74 8 95 20t21 41v537h-116v32l94 15q127 14 168 55h28v-639q0 -18 4.5 -26.5t31 -18.5t83.5 -16zM1239 1440h115l-1106 -1440h-115zM1497 162h-137v-76q0 -20 4 -28.5t28.5 -17.5t80.5 -15v-25h-394v25q70 8 90.5 20t20.5 41v76h-477v41l467 510 h180v-490h137v-61zM817 223h373v406z" glyph-name="onequarter" horiz-adv-x="1513" unicode="¼"/><glyph d="M479 750v-25h-409v25q74 8 95 20t21 41v537h-116v32l94 15q127 14 168 55h28v-639q0 -18 4.5 -26.5t31 -18.5t83.5 -16zM1219 1440h116l-1106 -1440h-116zM1550 281h27v-281h-668v63q195 94 311.5 214t116.5 245q0 78 -45 116t-118 38q-63 0 -115 -19q4 -176 -113 -178 q-33 -2 -50 16.5t-17 47.5q0 68 90 128t237.5 60t228.5 -55t81 -160q0 -215 -398 -405h205q104 0 149 33t78 137z" glyph-name="onehalf" horiz-adv-x="1658" unicode="½"/><glyph d="M715 920q0 -98 -94.5 -148.5t-262.5 -50.5q-141 0 -232 39t-93 106q-2 27 17.5 47.5t49.5 20.5q80 0 131 -141q45 -16 97 -17q104 0 156.5 40t52.5 106q0 78 -68 108.5t-190 30.5h-95v65h95q121 0 181 44t60 110q0 125 -158 127q-76 0 -131 -16q-2 -68 -29.5 -114 t-84.5 -48q-35 -2 -51.5 16.5t-16.5 44.5q0 61 98.5 117.5t251.5 56.5q297 0 297 -176q0 -150 -241 -190q260 -26 260 -178zM1352 1440h116l-1106 -1440h-116zM1595 162h-137v-76q0 -20 4 -28.5t29 -17.5t80 -15v-25h-393v25q70 8 90 20t20 41v76h-475v41l465 510h180v-490 h137v-61zM915 223h373v404z" glyph-name="threequarters" horiz-adv-x="1613" unicode="¾"/><glyph d="M700.5 774q-47.5 0 -81 33t-33.5 78q0 49 33.5 81.5t81 32.5t81 -32.5t33.5 -81.5q0 -45 -33.5 -78t-81 -33zM999 -57q39 0 58.5 -27t19.5 -68q0 -133 -147.5 -236.5t-354.5 -103.5q-209 0 -323.5 93.5t-114.5 257.5q0 102 40 185t117 144.5t161 104.5t196 84v205h99 v-238q-223 -111 -314.5 -231.5t-91.5 -257.5q0 -133 74 -199t203 -66q135 0 243 66q-21 287 135 287z" glyph-name="questiondown" horiz-adv-x="1177" unicode="¿"/><glyph d="M864 1604l-198 247q-47 49 -48.5 99.5t37.5 64.5q39 16 74 -8.5t51 -89.5l97 -305zM1434 246q51 -121 90 -158t131 -59v-29h-651v29q176 23 223 61.5t0 151.5l-111 268h-684l-106 -262q-41 -100 9 -148.5t220 -70.5v-29h-545v29q86 18 132 65t91 156l486 1190h225z M465 586h620l-311 760z" glyph-name="Agrave" horiz-adv-x="1665" unicode="À"/><glyph d="M1010 1851l-199 -247l-12 8l96 305q16 66 51 90.5t74 7.5q39 -14 38 -64.5t-48 -99.5zM1434 246q51 -121 90 -158t131 -59v-29h-651v29q176 23 223 61.5t0 151.5l-111 268h-684l-106 -262q-41 -100 9 -148.5t220 -70.5v-29h-545v29q86 18 132 65t91 156l486 1190h225z M465 586h620l-311 760z" glyph-name="Aacute" horiz-adv-x="1665" unicode="Á"/><glyph d="M827 1837l-239 -211l-13 8l140 250q53 98 112 98q57 0 111 -98l141 -250l-12 -8zM1434 246q51 -121 90 -158t131 -59v-29h-651v29q176 23 223 61.5t0 151.5l-111 268h-684l-106 -262q-41 -100 9 -148.5t220 -70.5v-29h-545v29q86 18 132 65t91 156l486 1190h225zM465 586 h620l-311 760z" glyph-name="Acircumflex" horiz-adv-x="1665" unicode="Â"/><glyph d="M668 1808q-55 0 -88 -26.5t-70 -83.5l-21 6q25 98 78.5 155.5t128.5 57.5q70 0 156 -52.5t135 -52.5q55 0 89 27t71 82l20 -6q-25 -92 -80 -151.5t-128.5 -59.5t-157.5 52t-133 52zM1434 246q51 -121 90 -158t131 -59v-29h-651v29q176 23 223 61.5t0 151.5l-111 268h-684 l-106 -262q-41 -100 9 -148.5t220 -70.5v-29h-545v29q86 18 132 65t91 156l486 1190h225zM465 586h620l-311 760z" glyph-name="Atilde" horiz-adv-x="1665" unicode="Ã"/><glyph d="M616.5 1712q-45.5 0 -77 32t-31.5 77t31.5 76.5t77 31.5t77 -31.5t31.5 -76.5t-31.5 -77t-77 -32zM1038 1712q-45 0 -76.5 32t-31.5 77t31.5 76.5t76.5 31.5t78 -31.5t33 -76.5t-32 -77t-79 -32zM1434 246q51 -121 90 -158t131 -59v-29h-651v29q176 23 223 61.5t0 151.5 l-111 268h-684l-106 -262q-41 -100 9 -148.5t220 -70.5v-29h-545v29q86 18 132 65t91 156l486 1190h225zM465 586h620l-311 760z" glyph-name="Adieresis" horiz-adv-x="1665" unicode="Ä"/><glyph d="M827 1587q-96 0 -160.5 60.5t-64.5 157t64.5 157.5t160.5 61q94 0 159 -61t65 -157.5t-65 -157t-159 -60.5zM827 1958q-59 0 -104 -41t-45 -113q0 -70 45 -110.5t104 -40.5q61 0 105.5 41t44.5 110q0 72 -44.5 113t-105.5 41zM1434 246q51 -121 90 -158t131 -59v-29h-651 v29q176 23 223 61.5t0 151.5l-111 268h-684l-106 -262q-41 -100 9 -148.5t220 -70.5v-29h-545v29q86 18 132 65t91 156l486 1190h225zM465 586h620l-311 760z" glyph-name="Aring" horiz-adv-x="1665" unicode="Å"/><glyph d="M1974 496h33l-45 -496h-1112v29q147 20 184 60t27 153l-27 268h-563l-149 -268q-57 -92 -30 -139.5t169 -73.5v-29h-455v29q74 18 119 65t106 156l658 1190h1050v-494h-32q-33 248 -110 331t-267 83h-377l53 -574h168q133 0 187.5 64.5t74.5 257.5h33v-729h-33 q-20 195 -74.5 260.5t-187.5 65.5h-160l58 -627h270q197 0 293 95.5t139 322.5zM514 586h514l-78 786z" glyph-name="AE" horiz-adv-x="2113" unicode="Æ"/><glyph d="M803 -27h-2l-19 -100q264 18 265 -145q0 -72 -55.5 -115t-153.5 -43q-188 0 -285 151l14 19q88 -84 224 -84q123 0 122 74q0 84 -213 84l-2 18l27 145q-266 29 -438 233t-172 513q0 332 210 537.5t506 205.5q166 0 351 -92q82 -39 117.5 -26.5t74.5 94.5h27v-613h-37 q-25 293 -162 423t-342 130q-252 0 -394 -188t-142 -471q0 -276 140 -461.5t384 -185.5q217 0 366.5 110.5t208.5 272.5l39 -10q-41 -184 -222 -330t-437 -146z" glyph-name="Ccedilla" horiz-adv-x="1560" unicode="Ç"/><glyph d="M809 1604l-199 247q-47 49 -48 99.5t38 64.5q39 16 74 -8.5t51 -89.5l96 -305zM1401 496h33l-45 -496h-1258v29q137 18 180 41.5t43 83.5v1132q0 59 -43 83t-180 42v29h1237v-494h-33q-33 248 -109.5 331t-267.5 83h-405v-574h248q133 0 187 64.5t75 257.5h33v-729h-33 q-20 195 -74.5 260.5t-187.5 65.5h-248v-627h418q195 0 291 96.5t139 321.5z" glyph-name="Egrave" horiz-adv-x="1542" unicode="È"/><glyph d="M954 1851l-198 -247l-13 8l97 305q16 66 51 90.5t74 7.5q39 -14 37.5 -64.5t-48.5 -99.5zM1401 496h33l-45 -496h-1258v29q137 18 180 41.5t43 83.5v1132q0 59 -43 83t-180 42v29h1237v-494h-33q-33 248 -109.5 331t-267.5 83h-405v-574h248q133 0 187 64.5t75 257.5h33 v-729h-33q-20 195 -74.5 260.5t-187.5 65.5h-248v-627h418q195 0 291 96.5t139 321.5z" glyph-name="Eacute" horiz-adv-x="1542" unicode="É"/><glyph d="M772 1837l-240 -211l-12 8l139 250q53 98 112.5 98t111.5 -98l141 -250l-12 -8zM1401 496h33l-45 -496h-1258v29q137 18 180 41.5t43 83.5v1132q0 59 -43 83t-180 42v29h1237v-494h-33q-33 248 -109.5 331t-267.5 83h-405v-574h248q133 0 187 64.5t75 257.5h33v-729h-33 q-20 195 -74.5 260.5t-187.5 65.5h-248v-627h418q195 0 291 96.5t139 321.5z" glyph-name="Ecircumflex" horiz-adv-x="1542" unicode="Ê"/><glyph d="M561 1712q-45 0 -76.5 32t-31.5 77t31.5 76.5t76.5 31.5t77 -31.5t32 -76.5t-32 -77t-77 -32zM983 1712q-45 0 -77 32t-32 77t32 76.5t77 31.5t78 -31.5t33 -76.5t-32 -77t-79 -32zM1401 496h33l-45 -496h-1258v29q137 18 180 41.5t43 83.5v1132q0 59 -43 83t-180 42v29 h1237v-494h-33q-33 248 -109.5 331t-267.5 83h-405v-574h248q133 0 187 64.5t75 257.5h33v-729h-33q-20 195 -74.5 260.5t-187.5 65.5h-248v-627h418q195 0 291 96.5t139 321.5z" glyph-name="Edieresis" horiz-adv-x="1542" unicode="Ë"/><glyph d="M281 2015q39 16 73.5 -8.5t51.5 -89.5l96 -305l-13 -8l-198 247q-47 49 -48 99.5t38 64.5zM774 1411q-137 -16 -179 -39.5t-42 -85.5v-1132q0 -61 42 -84t179 -41v-29h-643v29q137 18 180 41.5t43 83.5v1132q0 59 -43 83t-180 42v29h643v-29z" glyph-name="Igrave" horiz-adv-x="905" unicode="Ì"/><glyph d="M647 2015q39 -14 38 -64t-48 -100l-199 -247l-12 8l96 305q16 66 51 90t74 8zM774 1411q-137 -16 -179 -39.5t-42 -85.5v-1132q0 -61 42 -84t179 -41v-29h-643v29q137 18 180 41.5t43 83.5v1132q0 59 -43 83t-180 42v29h643v-29z" glyph-name="Iacute" horiz-adv-x="905" unicode="Í"/><glyph d="M453 1837l-240 -211l-12 8l139 250q53 98 113 98q57 0 110 -98l142 -250l-13 -8zM774 1411q-137 -16 -179 -39.5t-42 -85.5v-1132q0 -61 42 -84t179 -41v-29h-643v29q137 18 180 41.5t43 83.5v1132q0 59 -43 83t-180 42v29h643v-29z" glyph-name="Icircumflex" horiz-adv-x="905" unicode="Î"/><glyph d="M242 1712q-45 0 -77 32t-32 77t32 76.5t77 31.5t76.5 -31.5t31.5 -76.5t-31.5 -77t-76.5 -32zM664 1712q-45 0 -77 32t-32 77t31.5 76.5t77 31.5t78 -31.5t32.5 -76.5t-31.5 -77t-78.5 -32zM774 1411q-137 -16 -179 -39.5t-42 -85.5v-1132q0 -61 42 -84t179 -41v-29h-643 v29q137 18 180 41.5t43 83.5v1132q0 59 -43 83t-180 42v29h643v-29z" glyph-name="Idieresis" horiz-adv-x="905" unicode="Ï"/><glyph d="M827 1440q406 0 636.5 -181.5t230.5 -535.5q0 -356 -231.5 -539.5t-635.5 -183.5h-696v29q137 18 180 41.5t43 83.5v553h-217v77h217v502q0 59 -43 83t-180 42v29h696zM819 80q328 0 495 169t167 474q0 303 -167 470t-495 167h-266v-576h385v-77h-385v-627h266z" glyph-name="Eth" horiz-adv-x="1806" unicode="Ð"/><glyph d="M780 1808q-55 0 -88 -26.5t-69 -83.5l-21 6q25 98 78 155.5t129 57.5q68 0 154 -52.5t137 -52.5q55 0 89 27t71 82l20 -6q-25 -92 -80 -151.5t-129 -59.5t-158 52t-133 52zM1204 1440h584v-29q-113 -23 -170 -65.5t-57 -153.5v-1192h-185l-946 1266v-1018 q0 -111 66.5 -154t197.5 -65v-29h-583v29q113 23 170 65.5t57 153.5v1038q0 59 -43 83t-180 42v29h428l925 -1237v989q0 111 -66.5 154t-197.5 65v29z" glyph-name="Ntilde" horiz-adv-x="1880" unicode="Ñ"/><glyph d="M696 2015q39 16 74 -8.5t51 -89.5l97 -305l-13 -8l-198 247q-47 49 -48.5 99.5t37.5 64.5zM868 -27q-317 0 -535 202t-218 546t218 544.5t535 200.5q315 0 534.5 -200.5t219.5 -544.5t-219.5 -546t-534.5 -202zM868 59q242 0 391.5 184.5t149.5 477.5t-148.5 476 t-392 183t-393 -183t-149.5 -476t149 -477.5t393 -184.5z" glyph-name="Ograve" horiz-adv-x="1734" unicode="Ò"/><glyph d="M1061 2015q39 -14 38 -64t-48 -100l-199 -247l-12 8l96 305q16 66 51 90t74 8zM868 -27q-317 0 -535 202t-218 546t218 544.5t535 200.5q315 0 534.5 -200.5t219.5 -544.5t-219.5 -546t-534.5 -202zM868 59q242 0 391.5 184.5t149.5 477.5t-148.5 476t-392 183t-393 -183 t-149.5 -476t149 -477.5t393 -184.5z" glyph-name="Oacute" horiz-adv-x="1734" unicode="Ó"/><glyph d="M868 1837l-239 -211l-13 8l140 250q53 98 112 98q57 0 111 -98l141 -250l-12 -8zM868 1466q315 0 534.5 -200.5t219.5 -544.5t-219 -546t-535 -202q-317 0 -535 202t-218 546t218 544.5t535 200.5zM868 59q242 0 391.5 184.5t149.5 477.5t-148.5 476t-392 183t-393 -183 t-149.5 -476t149 -477.5t393 -184.5z" glyph-name="Ocircumflex" horiz-adv-x="1734" unicode="Ô"/><glyph d="M549 1698l-21 6q25 98 78 155.5t129 57.5q70 0 156 -52.5t135 -52.5q55 0 89 27t71 82l20 -6q-25 -92 -80 -151.5t-128.5 -59.5t-157.5 52t-133 52q-55 0 -88 -26.5t-70 -83.5zM868 -27q-317 0 -535 202t-218 546t218 544.5t535 200.5q315 0 534.5 -200.5t219.5 -544.5 t-219.5 -546t-534.5 -202zM868 59q242 0 391.5 184.5t149.5 477.5t-148.5 476t-392 183t-393 -183t-149.5 -476t149 -477.5t393 -184.5z" glyph-name="Otilde" horiz-adv-x="1734" unicode="Õ"/><glyph d="M657 1712q-45 0 -76.5 32t-31.5 77t31.5 76.5t76.5 31.5t77 -31.5t32 -76.5t-32 -77t-77 -32zM1079 1712q-45 0 -76.5 32t-31.5 77t31.5 76.5t76.5 31.5t78 -31.5t33 -76.5t-32 -77t-79 -32zM868 -27q-317 0 -535 202t-218 546t218 544.5t535 200.5q315 0 534.5 -200.5 t219.5 -544.5t-219.5 -546t-534.5 -202zM868 59q242 0 391.5 184.5t149.5 477.5t-148.5 476t-392 183t-393 -183t-149.5 -476t149 -477.5t393 -184.5z" glyph-name="Odieresis" horiz-adv-x="1734" unicode="Ö"/><glyph d="M846 985l-271 -268l271 -266l-55 -56l-269 269l-270 -269l-53 56l268 266l-268 268l53 53l270 -266l269 266z" glyph-name="multiply" horiz-adv-x="1042" unicode="×"/><glyph d="M1470 1194q152 -195 152 -473q0 -344 -219 -546t-535 -202q-324 0 -534 201l-139 -123l-62 70l137 123q-156 195 -155 477q0 344 218 544.5t535 200.5q324 0 539 -204l137 122l62 -69zM326 721q0 -203 75 -361l889 797q-152 223 -422 223q-244 0 -393 -183t-149 -476z M868 59q242 0 391.5 184.5t149.5 477.5q0 201 -72 354l-888 -796q153 -220 419 -220z" glyph-name="Oslash" horiz-adv-x="1742" unicode="Ø"/><glyph d="M717 2015q39 16 73.5 -8.5t51.5 -89.5l96 -305l-12 -8l-199 247q-47 49 -48 99.5t38 64.5zM283 666v620q0 59 -40 83t-163 42v29h618v-29q-135 -18 -175 -40.5t-40 -84.5v-655q0 -293 100.5 -432.5t307.5 -139.5t307 139.5t100 432.5v655q0 61 -43 85t-180 40v29h623v-29 q-123 -16 -162 -39.5t-39 -85.5v-620q0 -352 -161.5 -522.5t-444.5 -170.5t-445.5 170.5t-162.5 522.5z" glyph-name="Ugrave" horiz-adv-x="1777" unicode="Ù"/><glyph d="M1083 2015q39 -14 38 -64t-48 -100l-199 -247l-12 8l96 305q16 66 51 90t74 8zM283 666v620q0 59 -40 83t-163 42v29h618v-29q-135 -18 -175 -40.5t-40 -84.5v-655q0 -293 100.5 -432.5t307.5 -139.5t307 139.5t100 432.5v655q0 61 -43 85t-180 40v29h623v-29 q-123 -16 -162 -39.5t-39 -85.5v-620q0 -352 -161.5 -522.5t-444.5 -170.5t-445.5 170.5t-162.5 522.5z" glyph-name="Uacute" horiz-adv-x="1777" unicode="Ú"/><glyph d="M889 1837l-240 -211l-12 8l139 250q53 98 113 98q57 0 110 -98l142 -250l-13 -8zM1075 1440h623v-29q-123 -16 -162 -39.5t-39 -85.5v-620q0 -352 -161.5 -522.5t-444.5 -170.5t-445.5 170t-162.5 523v620q0 59 -40 83t-163 42v29h618v-29q-135 -18 -175 -40.5t-40 -84.5 v-655q0 -293 100.5 -432.5t307.5 -139.5t307 139.5t100 432.5v655q0 61 -43 85t-180 40v29z" glyph-name="Ucircumflex" horiz-adv-x="1777" unicode="Û"/><glyph d="M678 1712q-45 0 -77 32t-32 77t32 76.5t77 31.5t76.5 -31.5t31.5 -76.5t-31.5 -77t-76.5 -32zM1100 1712q-45 0 -77 32t-32 77t32 76.5t77 31.5t77.5 -31.5t32.5 -76.5t-31.5 -77t-78.5 -32zM283 666v620q0 59 -40 83t-163 42v29h618v-29q-135 -18 -175 -40.5t-40 -84.5 v-655q0 -293 100.5 -432.5t307.5 -139.5t307 139.5t100 432.5v655q0 61 -43 85t-180 40v29h623v-29q-123 -16 -162 -39.5t-39 -85.5v-620q0 -352 -161.5 -522.5t-444.5 -170.5t-445.5 170.5t-162.5 522.5z" glyph-name="Udieresis" horiz-adv-x="1777" unicode="Ü"/><glyph d="M1028 1851l-199 -247l-12 8l96 305q16 66 51 90.5t74 7.5q39 -14 38 -64.5t-48 -99.5zM1022 1440h518v-29q-84 -18 -141.5 -62t-130.5 -145l-379 -520v-530q0 -61 41 -84t178 -41v-29h-641v29q137 18 179 41.5t42 83.5v514l-379 534q-78 109 -134 151t-146 58v29h659v-29 q-145 -18 -180 -67.5t33 -145.5l305 -442l311 432q74 109 41 158t-176 65v29z" glyph-name="Yacute" horiz-adv-x="1564" unicode="Ý"/><glyph d="M862 1151q539 0 539 -391q0 -416 -549 -416h-305v-170q0 -76 54 -101.5t233 -43.5v-29h-703v29q137 18 180 41.5t43 83.5v1132q0 59 -43 83t-180 42v29h637v-29q-137 -18 -179 -41.5t-42 -83.5v-135h315zM803 426q217 0 309 92t92 238q0 315 -401 315h-256v-645h256z" glyph-name="Thorn" horiz-adv-x="1454" unicode="Þ"/><glyph d="M1010 649q152 -70 226.5 -150.5t74.5 -213.5q0 -150 -102.5 -231t-254.5 -81q-145 0 -247.5 52.5t-102.5 144.5q0 49 26.5 77.5t65.5 28.5q55 0 101.5 -63t70.5 -154q33 -4 56 -4q113 0 173 61.5t60 145.5q0 72 -43 125t-153 105q-176 80 -248 145t-72 172q0 221 344 272 q12 188 -56.5 284.5t-209.5 96.5q-143 0 -218 -77.5t-75 -280.5v-1104h-363v29q121 25 151 45t30 92v733h-199v74h199v106q0 465 479 465q96 0 169 -20.5t138.5 -71.5t97 -154.5t25.5 -255.5q-373 -37 -373 -194q0 -61 49.5 -99.5t180.5 -99.5z" glyph-name="germandbls" horiz-adv-x="1339" unicode="ß"/><glyph d="M586 1137l-199 247q-47 49 -48 99.5t38 64.5q39 16 73.5 -8t51.5 -90l96 -305zM1130 150l31 -17q-49 -152 -209 -151q-184 0 -184 229q-68 -109 -175.5 -174.5t-225.5 -65.5q-131 0 -190.5 65.5t-59.5 166.5q0 139 147.5 237.5t495.5 151.5v37q0 164 -54.5 226.5 t-175.5 62.5q-117 0 -211 -50q39 -125 10.5 -185t-100.5 -60q-86 0 -86 96q0 119 134.5 199.5t295.5 80.5q174 0 271.5 -78.5t97.5 -285.5v-473q0 -102 70 -103q67 1 118 91zM432 84q86 0 175 57.5t153 161.5v227q-256 -53 -357.5 -130.5t-101.5 -174.5q0 -141 131 -141z " glyph-name="agrave" horiz-adv-x="1173" unicode="à"/><glyph d="M731 1384l-199 -247l-12 8l96 305q16 66 51 90.5t74 7.5q39 -14 38 -64.5t-48 -99.5zM1130 150l31 -17q-49 -152 -209 -151q-184 0 -184 229q-68 -109 -175.5 -174.5t-225.5 -65.5q-131 0 -190.5 65.5t-59.5 166.5q0 139 147.5 237.5t495.5 151.5v37q0 164 -54.5 226.5 t-175.5 62.5q-117 0 -211 -50q39 -125 10.5 -185t-100.5 -60q-86 0 -86 96q0 119 134.5 199.5t295.5 80.5q174 0 271.5 -78.5t97.5 -285.5v-473q0 -102 70 -103q67 1 118 91zM432 84q86 0 175 57.5t153 161.5v227q-256 -53 -357.5 -130.5t-101.5 -174.5q0 -141 131 -141z " glyph-name="aacute" horiz-adv-x="1173" unicode="á"/><glyph d="M547 1370l-240 -211l-12 8l139 250q53 98 112.5 98.5t110.5 -98.5l142 -250l-13 -8zM1130 150l31 -17q-49 -152 -209 -151q-184 0 -184 229q-68 -109 -175.5 -174.5t-225.5 -65.5q-131 0 -190.5 65.5t-59.5 166.5q0 139 147.5 237.5t495.5 151.5v37q0 164 -54.5 226.5 t-175.5 62.5q-117 0 -211 -50q39 -125 10.5 -185t-100.5 -60q-86 0 -86 96q0 119 134.5 199.5t295.5 80.5q174 0 271.5 -78.5t97.5 -285.5v-473q0 -102 70 -103q67 1 118 91zM432 84q86 0 175 57.5t153 161.5v227q-256 -53 -357.5 -130.5t-101.5 -174.5q0 -141 131 -141z " glyph-name="acircumflex" horiz-adv-x="1173" unicode="â"/><glyph d="M387 1341q-55 0 -88 -26.5t-70 -83.5l-20 6q25 98 78 155.5t129 57.5q70 0 154.5 -52t136.5 -52q55 0 88.5 26.5t70.5 81.5l21 -6q-25 -92 -80 -151.5t-129 -59.5t-158 52t-133 52zM1130 150l31 -17q-49 -152 -209 -151q-184 0 -184 229q-68 -109 -175.5 -174.5 t-225.5 -65.5q-131 0 -190.5 65.5t-59.5 166.5q0 139 147.5 237.5t495.5 151.5v37q0 164 -54.5 226.5t-175.5 62.5q-117 0 -211 -50q39 -125 10.5 -185t-100.5 -60q-86 0 -86 96q0 119 134.5 199.5t295.5 80.5q174 0 271.5 -78.5t97.5 -285.5v-473q0 -102 70 -103 q67 1 118 91zM432 84q86 0 175 57.5t153 161.5v227q-256 -53 -357.5 -130.5t-101.5 -174.5q0 -141 131 -141z" glyph-name="atilde" horiz-adv-x="1173" unicode="ã"/><glyph d="M336 1245q-45 0 -77 32t-32 77t32 76.5t77 31.5t76.5 -31.5t31.5 -76.5t-31.5 -77t-76.5 -32zM758 1245q-45 0 -77 32t-32 77t32 76.5t77 31.5t77.5 -31.5t32.5 -76.5t-31.5 -77t-78.5 -32zM1130 150l31 -17q-49 -152 -209 -151q-184 0 -184 229q-68 -109 -175.5 -174.5 t-225.5 -65.5q-131 0 -190.5 65.5t-59.5 166.5q0 139 147.5 237.5t495.5 151.5v37q0 164 -54.5 226.5t-175.5 62.5q-117 0 -211 -50q39 -125 10.5 -185t-100.5 -60q-86 0 -86 96q0 119 134.5 199.5t295.5 80.5q174 0 271.5 -78.5t97.5 -285.5v-473q0 -102 70 -103 q67 1 118 91zM432 84q86 0 175 57.5t153 161.5v227q-256 -53 -357.5 -130.5t-101.5 -174.5q0 -141 131 -141z" glyph-name="adieresis" horiz-adv-x="1173" unicode="ä"/><glyph d="M547 1120q-96 0 -160.5 60.5t-64.5 157t64.5 157.5t160.5 61q94 0 158.5 -61t64.5 -157.5t-64.5 -157t-158.5 -60.5zM547 1491q-59 0 -104.5 -41t-45.5 -113q0 -70 45 -110.5t105 -40.5q61 0 105 41t44 110q0 72 -44 113t-105 41zM1130 150l31 -17q-49 -152 -209 -151 q-184 0 -184 229q-68 -109 -175.5 -174.5t-225.5 -65.5q-131 0 -190.5 65.5t-59.5 166.5q0 139 147.5 237.5t495.5 151.5v37q0 164 -54.5 226.5t-175.5 62.5q-117 0 -211 -50q39 -125 10.5 -185t-100.5 -60q-86 0 -86 96q0 119 134.5 199.5t295.5 80.5q174 0 271.5 -78.5 t97.5 -285.5v-473q0 -102 70 -103q67 1 118 91zM432 84q86 0 175 57.5t153 161.5v227q-256 -53 -357.5 -130.5t-101.5 -174.5q0 -141 131 -141z" glyph-name="aring" horiz-adv-x="1173" unicode="å"/><glyph d="M1212 999q195 0 319 -129t116 -401h-703q10 -410 318 -410q207 0 319 140l43 -41q-150 -184 -403 -185q-145 0 -257 68t-167 195q-59 -119 -177 -192t-253 -73q-131 0 -190.5 65.5t-59.5 166.5q0 289 626 389v37q0 164 -50 226.5t-163 62.5q-117 0 -211 -50 q39 -125 10.5 -185t-100.5 -60q-86 0 -86 96q0 119 134.5 199.5t295.5 80.5q227 0 304 -137q130 137 335 137zM1212 920q-119 0 -188.5 -99.5t-79.5 -279.5h506q-4 180 -65.5 279.5t-172.5 99.5zM432 84q84 0 167 51t144 146v245q-442 -96 -442 -301q0 -141 131 -141z" glyph-name="ae" horiz-adv-x="1734" unicode="æ"/><glyph d="M631 57q213 0 321 144l45 -41q-137 -172 -364 -185l-19 -102q264 18 265 -145q0 -72 -55.5 -115t-153.5 -43q-188 0 -285 151l14 19q88 -84 224 -84q123 0 122 74q0 84 -213 84l-2 18l27 141q-211 12 -335 148.5t-124 370.5q0 238 143.5 372.5t360.5 134.5 q174 0 285.5 -84t111.5 -194q0 -39 -22.5 -66.5t-65.5 -27.5q-154 0 -145 272q-61 23 -152 23q-154 0 -235.5 -117t-81.5 -313q0 -435 334 -435z" glyph-name="ccedilla" horiz-adv-x="1095" unicode="ç"/><glyph d="M623 1137l-199 247q-47 49 -48 99.5t38 64.5q39 16 73.5 -8t51.5 -90l96 -305zM583.5 999q202.5 0 331.5 -129t121 -401h-739q10 -410 338 -410q223 0 336 140l43 -41q-152 -184 -414 -185q-223 0 -362.5 137.5t-139.5 385.5q0 240 141.5 371.5t344 131.5zM582 920 q-127 0 -201 -99.5t-82 -279.5h541q-4 180 -70.5 279.5t-187.5 99.5z" glyph-name="egrave" horiz-adv-x="1122" unicode="è"/><glyph d="M768 1384l-199 -247l-12 8l96 305q16 66 51 90.5t74 7.5q39 -14 38 -64.5t-48 -99.5zM583.5 999q202.5 0 331.5 -129t121 -401h-739q10 -410 338 -410q223 0 336 140l43 -41q-152 -184 -414 -185q-223 0 -362.5 137.5t-139.5 385.5q0 240 141.5 371.5t344 131.5zM582 920 q-127 0 -201 -99.5t-82 -279.5h541q-4 180 -70.5 279.5t-187.5 99.5z" glyph-name="eacute" horiz-adv-x="1122" unicode="é"/><glyph d="M584 1370l-240 -211l-12 8l139 250q53 98 112.5 98.5t110.5 -98.5l142 -250l-13 -8zM583.5 999q202.5 0 331.5 -129t121 -401h-739q10 -410 338 -410q223 0 336 140l43 -41q-152 -184 -414 -185q-223 0 -362.5 137.5t-139.5 385.5q0 240 141.5 371.5t344 131.5zM582 920 q-127 0 -201 -99.5t-82 -279.5h541q-4 180 -70.5 279.5t-187.5 99.5z" glyph-name="ecircumflex" horiz-adv-x="1122" unicode="ê"/><glyph d="M373 1245q-45 0 -77 32t-32 77t32 76.5t77 31.5t76.5 -31.5t31.5 -76.5t-31.5 -77t-76.5 -32zM795 1245q-45 0 -77 32t-32 77t32 76.5t77 31.5t77.5 -31.5t32.5 -76.5t-31.5 -77t-78.5 -32zM583.5 999q202.5 0 331.5 -129t121 -401h-739q10 -410 338 -410q223 0 336 140 l43 -41q-152 -184 -414 -185q-223 0 -362.5 137.5t-139.5 385.5q0 240 141.5 371.5t344 131.5zM582 920q-127 0 -201 -99.5t-82 -279.5h541q-4 180 -70.5 279.5t-187.5 99.5z" glyph-name="edieresis" horiz-adv-x="1122" unicode="ë"/><glyph d="M403 1137l-198 247q-47 49 -48 99.5t38 64.5q39 16 73.5 -8t50.5 -90l97 -305zM471 154q0 -59 33 -83t141 -42v-29h-534v29q111 18 144.5 41.5t33.5 83.5v612q0 55 -26.5 72.5t-137.5 35.5v29l346 86v-835z" glyph-name="igrave" horiz-adv-x="729" unicode="ì"/><glyph d="M549 1384l-199 -247l-12 8l96 305q16 66 51 90.5t74 7.5q39 -14 38 -64.5t-48 -99.5zM471 154q0 -59 33 -83t141 -42v-29h-534v29q111 18 144.5 41.5t33.5 83.5v612q0 55 -26.5 72.5t-137.5 35.5v29l346 86v-835z" glyph-name="iacute" horiz-adv-x="729" unicode="í"/><glyph d="M365 1370l-240 -211l-12 8l139 250q53 98 113 99q57 0 110 -99l141 -250l-12 -8zM471 154q0 -59 33 -83t141 -42v-29h-534v29q111 18 144.5 41.5t33.5 83.5v612q0 55 -26.5 72.5t-137.5 35.5v29l346 86v-835z" glyph-name="icircumflex" horiz-adv-x="729" unicode="î"/><glyph d="M262 1354q0 -45 -31.5 -77t-76.5 -32t-77 32t-32 77t32 76.5t77 31.5t76.5 -31.5t31.5 -76.5zM575.5 1462q45.5 0 78 -31.5t32.5 -76.5t-31.5 -77t-79.5 -32q-45 0 -76.5 32t-31.5 77t31.5 76.5t77 31.5zM471 154q0 -59 33 -83t141 -42v-29h-534v29q111 18 144.5 41.5 t33.5 83.5v612q0 55 -26.5 72.5t-137.5 35.5v29l346 86v-835z" glyph-name="idieresis" horiz-adv-x="729" unicode="ï"/><glyph d="M1272 1276l-213 -86q113 -195 112 -473q0 -346 -146 -545t-427 -199q-221 0 -355 122t-134 339q0 213 141 328t332 115q137 0 235 -62.5t148 -165.5q2 25 2 72q0 242 -72 403l-363 -145l-28 65l358 144q-115 193 -319 192q-190 0 -307 -116l-39 47q47 59 144 107t234 48 q281 0 443 -215l227 90zM602 59q299 0 352 435q-39 137 -129 214.5t-204 77.5q-141 0 -226.5 -94t-85.5 -260q0 -174 79 -273.5t214 -99.5z" glyph-name="eth" horiz-adv-x="1292" unicode="ð"/><glyph d="M547 1341q-55 0 -88 -26.5t-70 -83.5l-20 6q25 98 78 155.5t128 57.5q68 0 154 -52t137 -52q55 0 89 26.5t71 81.5l21 -6q-25 -92 -80.5 -151.5t-129 -59.5t-157.5 52t-133 52zM1176 154q0 -61 33.5 -84t144.5 -41v-29h-531v29q104 18 136 41.5t32 83.5v469 q0 150 -51 210t-141 60q-100 0 -187.5 -72.5t-140.5 -222.5v-444q0 -59 33 -83t137 -42v-29h-530v29q111 18 144.5 41.5t33.5 83.5v614q0 55 -29 73.5t-143 37.5v28l354 82v-264q57 129 155.5 201.5t223.5 72.5q137 0 231.5 -80.5t94.5 -279.5v-485z" glyph-name="ntilde" horiz-adv-x="1409" unicode="ñ"/><glyph d="M446 1548q39 16 74 -8t51 -90l97 -305l-13 -8l-198 247q-47 49 -48.5 99.5t37.5 64.5zM618.5 -25q-223.5 0 -372 132.5t-148.5 375.5q0 248 148.5 382t372 134t372 -134t148.5 -382q0 -244 -148.5 -376t-372 -132zM618.5 55q155.5 0 238.5 112t83 316q0 209 -84 323 t-237.5 114t-237.5 -114t-84 -323q0 -205 83 -316.5t238.5 -111.5z" glyph-name="ograve" horiz-adv-x="1236" unicode="ò"/><glyph d="M811 1548q39 -14 38 -64t-48 -100l-199 -247l-12 8l96 305q16 66 51 90t74 8zM618.5 -25q-223.5 0 -372 132.5t-148.5 375.5q0 248 148.5 382t372 134t372 -134t148.5 -382q0 -244 -148.5 -376t-372 -132zM618.5 55q155.5 0 238.5 112t83 316q0 209 -84 323t-237.5 114 t-237.5 -114t-84 -323q0 -205 83 -316.5t238.5 -111.5z" glyph-name="oacute" horiz-adv-x="1236" unicode="ó"/><glyph d="M618 1370l-239 -211l-12 8l139 250q53 98 112 99q57 0 111 -99l141 -250l-12 -8zM618.5 999q223.5 0 372 -134t148.5 -382q0 -244 -148.5 -376t-372 -132t-372 132.5t-148.5 375.5q0 248 148.5 382t372 134zM618.5 55q155.5 0 238.5 112t83 316q0 209 -84 323t-237.5 114 t-237.5 -114t-84 -323q0 -205 83 -316.5t238.5 -111.5z" glyph-name="ocircumflex" horiz-adv-x="1236" unicode="ô"/><glyph d="M299 1231l-20 6q25 98 78 155.5t128 57.5q68 0 154 -52t137 -52q55 0 89 26.5t71 81.5l20 -6q-25 -92 -80 -151.5t-128.5 -59.5t-157.5 52t-133 52q-55 0 -88 -26.5t-70 -83.5zM618.5 -25q-223.5 0 -372 132.5t-148.5 375.5q0 248 148.5 382t372 134t372 -134t148.5 -382 q0 -244 -148.5 -376t-372 -132zM618.5 55q155.5 0 238.5 112t83 316q0 209 -84 323t-237.5 114t-237.5 -114t-84 -323q0 -205 83 -316.5t238.5 -111.5z" glyph-name="otilde" horiz-adv-x="1236" unicode="õ"/><glyph d="M407.5 1245q-45.5 0 -77 32t-31.5 77t31.5 76.5t77 31.5t77 -31.5t31.5 -76.5t-31.5 -77t-77 -32zM829 1245q-45 0 -76.5 32t-31.5 77t31.5 76.5t76.5 31.5t78 -31.5t33 -76.5t-32 -77t-79 -32zM618.5 -25q-223.5 0 -372 132.5t-148.5 375.5q0 248 148.5 382t372 134 t372 -134t148.5 -382q0 -244 -148.5 -376t-372 -132zM618.5 55q155.5 0 238.5 112t83 316q0 209 -84 323t-237.5 114t-237.5 -114t-84 -323q0 -205 83 -316.5t238.5 -111.5z" glyph-name="odieresis" horiz-adv-x="1236" unicode="ö"/><glyph d="M565 905q-37 0 -65.5 29t-28.5 67q0 37 28.5 65t65.5 28q41 0 69 -27t28 -65.5t-28 -67.5t-69 -29zM152 676v78h835v-78h-835zM567 336q-39 0 -66.5 27.5t-27.5 66.5t27.5 65.5t66.5 26.5q41 0 70 -26.5t29 -65.5t-29 -66.5t-70 -27.5z" glyph-name="divide" horiz-adv-x="1138" unicode="÷"/><glyph d="M1157 936l-125 -117q106 -137 107 -336q0 -244 -148.5 -376t-372.5 -132q-215 0 -358 121l-129 -121l-63 68l129 121q-98 127 -99 319q0 248 148.5 382t371.5 134q209 0 349 -114l127 119zM297 483q0 -119 27 -200l542 508q-82 129 -248 129q-154 0 -237.5 -114 t-83.5 -323zM940 483q0 127 -31 219l-547 -509q84 -137 256 -138q156 0 239 111.5t83 316.5z" glyph-name="oslash" horiz-adv-x="1234" unicode="ø"/><glyph d="M733 1137l-198 247q-47 49 -48.5 99.5t37.5 64.5q39 16 74 -8t51 -90l96 -305zM1120 154q0 -61 34 -84t146 -41v-29h-362v231q-111 -258 -367 -258q-338 0 -338 365v481q0 59 -33.5 83t-144.5 42v29h363v-617q0 -276 194 -276q231 0 326 278v461q0 61 -36 84t-157 41v29 h375v-819z" glyph-name="ugrave" horiz-adv-x="1382" unicode="ù"/><glyph d="M879 1384l-199 -247l-12 8l96 305q16 66 51 90.5t74 7.5q39 -14 38 -64.5t-48 -99.5zM1120 154q0 -61 34 -84t146 -41v-29h-362v231q-111 -258 -367 -258q-338 0 -338 365v481q0 59 -33.5 83t-144.5 42v29h363v-617q0 -276 194 -276q231 0 326 278v461q0 61 -36 84 t-157 41v29h375v-819z" glyph-name="uacute" horiz-adv-x="1382" unicode="ú"/><glyph d="M696 1370l-239 -211l-13 8l140 250q53 98 112 99q57 0 111 -99l141 -250l-12 -8zM1120 154q0 -61 34 -84t146 -41v-29h-362v231q-111 -258 -367 -258q-338 0 -338 365v481q0 59 -33.5 83t-144.5 42v29h363v-617q0 -276 194 -276q231 0 326 278v461q0 61 -36 84t-157 41 v29h375v-819z" glyph-name="ucircumflex" horiz-adv-x="1382" unicode="û"/><glyph d="M485 1245q-45 0 -76.5 32t-31.5 77t31.5 76.5t76.5 31.5t77 -31.5t32 -76.5t-32 -77t-77 -32zM907 1245q-45 0 -76.5 32t-31.5 77t31.5 76.5t76.5 31.5t78 -31.5t33 -76.5t-32 -77t-79 -32zM1120 154q0 -61 34 -84t146 -41v-29h-362v231q-111 -258 -367 -258 q-338 0 -338 365v481q0 59 -33.5 83t-144.5 42v29h363v-617q0 -276 194 -276q231 0 326 278v461q0 61 -36 84t-157 41v29h375v-819z" glyph-name="udieresis" horiz-adv-x="1382" unicode="ü"/><glyph d="M856 1384l-199 -247l-12 8l96 305q16 66 51 90.5t74 7.5q39 -14 38 -64.5t-48 -99.5zM815 973h436v-29q-80 -18 -116.5 -49t-77.5 -123l-283 -641q-229 -532 -549 -532q-82 0 -137 31.5t-55 99.5q0 39 24.5 65.5t65.5 26.5q106 0 190 -144q141 45 262 242l-385 852 q-43 94 -79.5 124t-112.5 48v29h530v-29q-104 -18 -141 -57t-4 -115l291 -666q2 6 7 17.5t7 17.5l260 594q25 55 27 92t-19.5 60.5t-53.5 35t-87 21.5v29z" glyph-name="yacute" horiz-adv-x="1249" unicode="ý"/><glyph d="M721 1001q186 0 319.5 -136t133.5 -377.5t-139.5 -377t-338.5 -135.5q-201 0 -313 144v-340q0 -59 43 -83t180 -42v-29h-586v29q113 18 147 40.5t34 84.5v1528q0 55 -28 73.5t-138 34.5v29l348 82v-692q123 167 338 167zM672 55q141 0 222 117t81 315.5t-77 316.5 t-210 118q-209 0 -305 -203v-473q80 -191 289 -191z" glyph-name="thorn" horiz-adv-x="1271" unicode="þ"/><glyph d="M463 1245q-45 0 -77 32t-32 77t32 76.5t77 31.5t76.5 -31.5t31.5 -76.5t-31.5 -77t-76.5 -32zM885 1245q-45 0 -77 32t-32 77t32 76.5t77 31.5t77.5 -31.5t32.5 -76.5t-31.5 -77t-78.5 -32zM815 973h436v-29q-80 -18 -116.5 -49t-77.5 -123l-283 -641 q-229 -532 -549 -532q-82 0 -137 31.5t-55 99.5q0 39 24.5 65.5t65.5 26.5q106 0 190 -144q141 45 262 242l-385 852q-43 94 -79.5 124t-112.5 48v29h530v-29q-104 -18 -141 -57t-4 -115l291 -666q2 6 7 17.5t7 17.5l260 594q25 55 27 92t-19.5 60.5t-53.5 35t-87 21.5v29z " glyph-name="ydieresis" horiz-adv-x="1249" unicode="ÿ"/><glyph d="M1124 1878v-80h-594v80h594zM1434 246q51 -121 90 -158t131 -59v-29h-651v29q176 23 223 61.5t0 151.5l-111 268h-684l-106 -262q-41 -100 9 -148.5t220 -70.5v-29h-545v29q86 18 132 65t91 156l486 1190h225zM465 586h620l-311 760z" glyph-name="Amacron" horiz-adv-x="1665" unicode="Ā"/><glyph d="M846 1411v-80h-594v80h594zM1130 150l31 -17q-49 -152 -209 -151q-184 0 -184 229q-68 -109 -175.5 -174.5t-225.5 -65.5q-131 0 -190.5 65.5t-59.5 166.5q0 139 147.5 237.5t495.5 151.5v37q0 164 -54.5 226.5t-175.5 62.5q-117 0 -211 -50q39 -125 10.5 -185 t-100.5 -60q-86 0 -86 96q0 119 134.5 199.5t295.5 80.5q174 0 271.5 -78.5t97.5 -285.5v-473q0 -102 70 -103q67 1 118 91zM432 84q86 0 175 57.5t153 161.5v227q-256 -53 -357.5 -130.5t-101.5 -174.5q0 -141 131 -141z" glyph-name="amacron" horiz-adv-x="1173" unicode="ā"/><glyph d="M827.5 1632q-108.5 0 -168 80t-61.5 211h27q4 -76 58 -130t144.5 -54t144.5 54t58 130h25q-2 -131 -60.5 -211t-167 -80zM1434 246q51 -121 90 -158t131 -59v-29h-651v29q176 23 223 61.5t0 151.5l-111 268h-684l-106 -262q-41 -100 9 -148.5t220 -70.5v-29h-545v29 q86 18 132 65t91 156l486 1190h225zM465 586h620l-311 760z" glyph-name="Abreve" horiz-adv-x="1665" unicode="Ă"/><glyph d="M548.5 1165q-108.5 0 -167.5 80t-62 211h27q4 -76 58.5 -130t144.5 -54t144.5 54t58.5 130h24q-2 -131 -60.5 -211t-167 -80zM1130 150l31 -17q-49 -152 -209 -151q-184 0 -184 229q-68 -109 -175.5 -174.5t-225.5 -65.5q-131 0 -190.5 65.5t-59.5 166.5 q0 139 147.5 237.5t495.5 151.5v37q0 164 -54.5 226.5t-175.5 62.5q-117 0 -211 -50q39 -125 10.5 -185t-100.5 -60q-86 0 -86 96q0 119 134.5 199.5t295.5 80.5q174 0 271.5 -78.5t97.5 -285.5v-473q0 -102 70 -103q67 1 118 91zM432 84q86 0 175 57.5t153 161.5v227 q-256 -53 -357.5 -130.5t-101.5 -174.5q0 -141 131 -141z" glyph-name="abreve" horiz-adv-x="1173" unicode="ă"/><glyph d="M1649 0q-141 -55 -195.5 -128t-54.5 -138q0 -86 82 -86q100 0 164 73l10 -8q-72 -147 -238 -147q-68 0 -109.5 36t-41.5 107q0 94 79.5 172t202.5 119h-544v29q176 23 223 61.5t0 151.5l-111 268h-684l-106 -262q-41 -100 9 -148.5t220 -70.5v-29h-545v29q86 18 132 65 t91 156l486 1190h225l490 -1194q51 -121 90 -158t131 -59v-29h-6zM465 586h620l-311 760z" glyph-name="Aogonek" horiz-adv-x="1665" unicode="Ą"/><glyph d="M973 -18q-168 -90 -168 -228q0 -86 82 -86q100 0 164 74l10 -8q-72 -147 -238 -148q-68 0 -109.5 36t-41.5 108q0 80 57 148.5t152 113.5q-113 35 -113 219q-68 -109 -175.5 -174.5t-225.5 -65.5q-131 0 -190.5 65.5t-59.5 166.5q0 139 147.5 237.5t495.5 151.5v37 q0 164 -54.5 226.5t-175.5 62.5q-117 0 -211 -50q39 -125 10.5 -185t-100.5 -60q-86 0 -86 96q0 119 134.5 199.5t295.5 80.5q174 0 271.5 -78.5t97.5 -285.5v-473q0 -102 70 -103q68 0 118 91l31 -17q-45 -139 -188 -151zM432 84q86 0 175 57.5t153 161.5v227 q-256 -53 -357.5 -130.5t-101.5 -174.5q0 -141 131 -141z" glyph-name="aogonek" horiz-adv-x="1173" unicode="ą"/><glyph d="M1053 2015q39 -14 38 -64t-49 -100l-198 -247l-13 8l97 305q16 66 51 90t74 8zM803 -27q-295 0 -491.5 209t-196.5 541t210 537.5t506 205.5q166 0 351 -92q82 -39 117.5 -26.5t74.5 94.5h27v-613h-37q-25 293 -162 423t-342 130q-252 0 -394 -188t-142 -471 q0 -276 140 -461.5t384 -185.5q217 0 366.5 110.5t208.5 272.5l39 -10q-41 -184 -222 -330t-437 -146z" glyph-name="Cacute" horiz-adv-x="1560" unicode="Ć"/><glyph d="M731 1384l-199 -247l-12 8l96 305q16 66 51 90.5t74 7.5q39 -14 38 -64.5t-48 -99.5zM631 57q213 0 321 144l45 -41q-147 -186 -405 -187q-225 0 -359.5 138.5t-134.5 380.5q0 238 143.5 372.5t360.5 134.5q174 0 285.5 -84t111.5 -194q0 -39 -22.5 -66.5t-65.5 -27.5 q-154 0 -145 272q-61 23 -152 23q-154 0 -235.5 -117t-81.5 -313q0 -435 334 -435z" glyph-name="cacute" horiz-adv-x="1095" unicode="ć"/><glyph d="M860 1702q-49 0 -85 35t-36 84t36 83.5t85 34.5t84 -34.5t35 -83.5q0 -51 -35 -85t-84 -34zM803 -27q-295 0 -491.5 209t-196.5 541t210 537.5t506 205.5q166 0 351 -92q82 -39 117.5 -26.5t74.5 94.5h27v-613h-37q-25 293 -162 423t-342 130q-252 0 -394 -188t-142 -471 q0 -276 140 -461.5t384 -185.5q217 0 366.5 110.5t208.5 272.5l39 -10q-41 -184 -222 -330t-437 -146z" glyph-name="Cdotaccent" horiz-adv-x="1560" unicode="Ċ"/><glyph d="M549 1235q-49 0 -85 35t-36 84t36 84t85 35t84 -35t35 -84q0 -51 -35 -85t-84 -34zM631 57q213 0 321 144l45 -41q-147 -186 -405 -187q-225 0 -359.5 138.5t-134.5 380.5q0 238 143.5 372.5t360.5 134.5q174 0 285.5 -84t111.5 -194q0 -39 -22.5 -66.5t-65.5 -27.5 q-154 0 -145 272q-61 23 -152 23q-154 0 -235.5 -117t-81.5 -313q0 -435 334 -435z" glyph-name="cdotaccent" horiz-adv-x="1095" unicode="ċ"/><glyph d="M858.5 1626q-59.5 0 -113.5 98l-139 250l12 8l240 -210l240 210l12 -8l-141 -250q-51 -98 -110.5 -98zM1423 459l39 -10q-41 -184 -222 -330t-437 -146q-295 0 -491.5 209t-196.5 541t210 537.5t506 205.5q166 0 351 -92q82 -39 117.5 -26.5t74.5 94.5h27v-613h-37 q-25 293 -162 423t-342 130q-252 0 -394 -188t-142 -471q0 -276 140 -461.5t384 -185.5q217 0 366.5 110.5t208.5 272.5z" glyph-name="Ccaron" horiz-adv-x="1560" unicode="Č"/><glyph d="M546.5 1159q-59.5 0 -112.5 98l-139 250l12 9l240 -211l239 211l13 -9l-142 -250q-51 -98 -110.5 -98zM631 57q213 0 321 144l45 -41q-147 -186 -405 -187q-225 0 -359.5 138.5t-134.5 380.5q0 238 143.5 372.5t360.5 134.5q174 0 285.5 -84t111.5 -194 q0 -39 -22.5 -66.5t-65.5 -27.5q-154 0 -145 272q-61 23 -152 23q-154 0 -235.5 -117t-81.5 -313q0 -435 334 -435z" glyph-name="ccaron" horiz-adv-x="1095" unicode="č"/><glyph d="M905 1626q-59 0 -112 98l-140 250l13 8l239 -210l240 210l12 -8l-141 -250q-54 -98 -111 -98zM827 1440q406 0 636.5 -181.5t230.5 -535.5q0 -356 -231.5 -539.5t-635.5 -183.5h-696v29q137 18 180 41.5t43 83.5v1132q0 59 -43 83t-180 42v29h696zM819 80q328 0 495 169 t167 474q0 303 -167 470t-495 167h-266v-1280h266z" glyph-name="Dcaron" horiz-adv-x="1806" unicode="Ď"/><glyph d="M1389 1544q49 0 57 -55t-21 -135l-104 -361h-16l4 387q0 164 80 164zM1081 154q0 -59 35 -83t152 -42v-29h-363v141q-121 -168 -325 -168q-195 0 -334.5 139.5t-139.5 381t140.5 373.5t345.5 132q197 0 307 -147v453q0 63 -28.5 82.5t-147.5 35.5v29l358 82v-1380z M608 53q199 0 291 201v469q-82 197 -283 197q-147 0 -229 -113t-82 -313.5t81 -320.5t222 -120z" glyph-name="dcaron" horiz-adv-x="1312" unicode="ď"/><glyph d="M827 1440q406 0 636.5 -181.5t230.5 -535.5q0 -356 -231.5 -539.5t-635.5 -183.5h-696v29q137 18 180 41.5t43 83.5v553h-217v77h217v502q0 59 -43 83t-180 42v29h696zM819 80q328 0 495 169t167 474q0 303 -167 470t-495 167h-266v-576h385v-77h-385v-627h266z" glyph-name="Dcroat" horiz-adv-x="1806" unicode="Đ"/><glyph d="M1272 1163h-191v-1009q0 -59 35 -83t152 -42v-29h-363v141q-121 -168 -325 -168q-195 0 -334.5 139.5t-139.5 381t140.5 373.5t345.5 132q197 0 307 -147v311h-428v78h428v64q0 63 -28.5 82.5t-147.5 35.5v29l358 82v-293h191v-78zM608 53q199 0 291 201v469 q-82 197 -283 197q-147 0 -229 -113t-82 -313.5t81 -320.5t222 -120z" glyph-name="dcroat" horiz-adv-x="1304" unicode="đ"/><glyph d="M1069 1878v-80h-594v80h594zM1401 496h33l-45 -496h-1258v29q137 18 180 41.5t43 83.5v1132q0 59 -43 83t-180 42v29h1237v-494h-33q-33 248 -109.5 331t-267.5 83h-405v-574h248q133 0 187 64.5t75 257.5h33v-729h-33q-20 195 -74.5 260.5t-187.5 65.5h-248v-627h418 q195 0 291 96.5t139 321.5z" glyph-name="Emacron" horiz-adv-x="1542" unicode="Ē"/><glyph d="M883 1411v-80h-594v80h594zM583.5 999q202.5 0 331.5 -129t121 -401h-739q10 -410 338 -410q223 0 336 140l43 -41q-152 -184 -414 -185q-223 0 -362.5 137.5t-139.5 385.5q0 240 141.5 371.5t344 131.5zM582 920q-127 0 -201 -99.5t-82 -279.5h541q-4 180 -70.5 279.5 t-187.5 99.5z" glyph-name="emacron" horiz-adv-x="1122" unicode="ē"/><glyph d="M772 1702q-49 0 -85 35t-36 84t36 83.5t85 34.5t84 -34.5t35 -83.5q0 -51 -35 -85t-84 -34zM1401 496h33l-45 -496h-1258v29q137 18 180 41.5t43 83.5v1132q0 59 -43 83t-180 42v29h1237v-494h-33q-33 248 -109.5 331t-267.5 83h-405v-574h248q133 0 187 64.5t75 257.5 h33v-729h-33q-20 195 -74.5 260.5t-187.5 65.5h-248v-627h418q195 0 291 96.5t139 321.5z" glyph-name="Edotaccent" horiz-adv-x="1542" unicode="Ė"/><glyph d="M586 1235q-49 0 -85 35t-36 84t36 84t85 35t84 -35t35 -84q0 -51 -35 -85t-84 -34zM583.5 999q202.5 0 331.5 -129t121 -401h-739q10 -410 338 -410q223 0 336 140l43 -41q-152 -184 -414 -185q-223 0 -362.5 137.5t-139.5 385.5q0 240 141.5 371.5t344 131.5zM582 920 q-127 0 -201 -99.5t-82 -279.5h541q-4 180 -70.5 279.5t-187.5 99.5z" glyph-name="edotaccent" horiz-adv-x="1122" unicode="ė"/><glyph d="M1225 -336q100 0 164 74l10 -8q-72 -147 -238 -148q-68 0 -109.5 36t-41.5 108q0 86 66.5 158.5t170.5 115.5h-1116v29q137 18 180 41.5t43 83.5v1132q0 59 -43 83t-180 42v29h1237v-494h-33q-33 248 -109.5 331t-267.5 83h-405v-574h248q133 0 187 64.5t75 257.5h33 v-729h-33q-20 195 -74.5 260.5t-187.5 65.5h-248v-627h418q195 0 291 96t139 322h33l-43 -478l2 -2q-2 0 -2 -2l-2 -14h-35q-211 -94 -211 -250q0 -86 82 -86z" glyph-name="Eogonek" horiz-adv-x="1542" unicode="Ę"/><glyph d="M583.5 999q202.5 0 331.5 -129t121 -401h-739q10 -410 338 -410q223 0 336 140l43 -41q-88 -109 -223 -156q-203 -94 -203 -246q0 -86 82 -86q100 0 164 74l10 -8q-72 -147 -238 -148q-68 0 -109.5 36t-41.5 108q0 143 172 241h-27q-223 0 -362.5 137.5t-139.5 385.5 q0 240 141.5 371.5t344 131.5zM582 920q-127 0 -201 -99.5t-82 -279.5h541q-4 180 -70.5 279.5t-187.5 99.5z" glyph-name="eogonek" horiz-adv-x="1122" unicode="ę"/><glyph d="M772 1626q-59 0 -113 98l-139 250l12 8l240 -210l240 210l12 -8l-141 -250q-52 -98 -111 -98zM1401 496h33l-45 -496h-1258v29q137 18 180 41.5t43 83.5v1132q0 59 -43 83t-180 42v29h1237v-494h-33q-33 248 -109.5 331t-267.5 83h-405v-574h248q133 0 187 64.5t75 257.5 h33v-729h-33q-20 195 -74.5 260.5t-187.5 65.5h-248v-627h418q195 0 291 96.5t139 321.5z" glyph-name="Ecaron" horiz-adv-x="1542" unicode="Ě"/><glyph d="M583.5 1159q-59.5 0 -112.5 98l-139 250l12 9l240 -211l239 211l13 -9l-142 -250q-51 -98 -110.5 -98zM583.5 999q202.5 0 331.5 -129t121 -401h-739q10 -410 338 -410q223 0 336 140l43 -41q-152 -184 -414 -185q-223 0 -362.5 137.5t-139.5 385.5q0 240 141.5 371.5 t344 131.5zM582 920q-127 0 -201 -99.5t-82 -279.5h541q-4 180 -70.5 279.5t-187.5 99.5z" glyph-name="ecaron" horiz-adv-x="1122" unicode="ě"/><glyph d="M864.5 1632q-108.5 0 -168 80t-61.5 211h27q4 -76 58 -130t144 -54t144.5 54t58.5 130h25q-2 -131 -60.5 -211t-167 -80zM1647 729v-29q-115 -16 -149 -39.5t-34 -85.5v-575h-39q-29 78 -49 104.5t-57 26.5q-33 0 -107.5 -39t-185.5 -79t-233 -40q-293 0 -485.5 209 t-192.5 541t210 537.5t506 205.5q156 0 365 -86q72 -33 108.5 -22.5t67.5 84.5h31v-531h-37q-70 471 -504 471q-252 0 -394 -188t-142 -471q0 -274 138 -460.5t374 -186.5q244 0 436 160v339q0 59 -50 83t-212 42v29h635z" glyph-name="Gbreve" horiz-adv-x="1722" unicode="Ğ"/><glyph d="M548.5 1165q-108.5 0 -167.5 80t-62 211h27q4 -76 58.5 -130t144.5 -54t144.5 54t58.5 130h24q-2 -131 -60.5 -211t-167 -80zM571 152q244 -18 354.5 -78t110.5 -191q0 -285 -518 -284q-494 0 -493 217q0 86 85 142t238 71q-178 45 -178 166q0 119 180 157 q-223 78 -223 310q0 119 66.5 199.5t151.5 109t177 28.5q68 0 140 -18q117 154 262 158q55 2 91 -22.5t40 -65.5q4 -43 -18.5 -71t-59.5 -32q-82 -6 -160 90q-51 -29 -100 -77q201 -84 201 -299q0 -119 -66 -199t-148.5 -108.5t-175.5 -30.5q-233 0 -233 -84q0 -68 276 -88z M522 924q-104 0 -167.5 -65.5t-63.5 -197t63.5 -196t167.5 -64.5q102 0 167 64.5t65 196t-65 197t-167 65.5zM524 -324q147 0 253 43t106 131q0 72 -71 102t-265 46q-6 2 -20.5 2t-22.5 2q-309 -29 -309 -180q-1 -146 329 -146z" glyph-name="gbreve" horiz-adv-x="1069" unicode="ğ"/><glyph d="M864 1702q-49 0 -85 35t-36 84t36 83.5t85 34.5t84 -34.5t35 -83.5q0 -51 -35 -85t-84 -34zM1647 729v-29q-115 -16 -149 -39.5t-34 -85.5v-575h-39q-29 78 -49 104.5t-57 26.5q-33 0 -107.5 -39t-185.5 -79t-233 -40q-293 0 -485.5 209t-192.5 541t210 537.5t506 205.5 q156 0 365 -86q72 -33 108.5 -22.5t67.5 84.5h31v-531h-37q-70 471 -504 471q-252 0 -394 -188t-142 -471q0 -274 138 -460.5t374 -186.5q244 0 436 160v339q0 59 -50 83t-212 42v29h635z" glyph-name="Gdotaccent" horiz-adv-x="1722" unicode="Ġ"/><glyph d="M543 1233q-49 0 -84 33.5t-35 85.5q0 47 35 80.5t84 33.5q47 0 81.5 -33.5t34.5 -80.5q0 -49 -34.5 -84t-81.5 -35zM571 152q244 -18 354.5 -78t110.5 -191q0 -285 -518 -284q-494 0 -493 217q0 86 85 142t238 71q-178 45 -178 166q0 119 180 157q-223 78 -223 310 q0 119 66.5 199.5t151.5 109t177 28.5q68 0 140 -18q117 154 262 158q55 2 91 -22.5t40 -65.5q4 -43 -18.5 -71t-59.5 -32q-82 -6 -160 90q-51 -29 -100 -77q201 -84 201 -299q0 -119 -66 -199t-148.5 -108.5t-175.5 -30.5q-233 0 -233 -84q0 -68 276 -88zM522 924 q-104 0 -167.5 -65.5t-63.5 -197t63.5 -196t167.5 -64.5q102 0 167 64.5t65 196t-65 197t-167 65.5zM524 -324q147 0 253 43t106 131q0 72 -71 102t-265 46q-6 2 -20.5 2t-22.5 2q-309 -29 -309 -180q-1 -146 329 -146z" glyph-name="gdotaccent" horiz-adv-x="1069" unicode="ġ"/><glyph d="M1647 729v-29q-115 -16 -149 -39.5t-34 -85.5v-575h-39q-29 78 -49 104.5t-57 26.5q-33 0 -107.5 -39t-185.5 -79t-233 -40q-293 0 -485.5 209t-192.5 541t210 537.5t506 205.5q156 0 365 -86q72 -33 108.5 -22.5t67.5 84.5h31v-531h-37q-70 471 -504 471 q-252 0 -394 -188t-142 -471q0 -274 138 -460.5t374 -186.5q244 0 436 160v339q0 59 -50 83t-212 42v29h635zM864 -111q119 0 119 -151q0 -117 -71.5 -192.5t-194.5 -92.5l-8 29q174 53 188 211q-25 -8 -41 -8q-45 0 -70.5 28.5t-25.5 73.5q0 43 29.5 72.5t74.5 29.5z" glyph-name="Gcommaaccent" horiz-adv-x="1722" unicode="Ģ"/><glyph d="M530 1167q-119 0 -118 152q0 117 71.5 192.5t194.5 92.5l8 -29q-174 -53 -188 -213q25 8 41 8q45 0 70.5 -27.5t25.5 -72.5q0 -43 -30 -73t-75 -30zM571 152q244 -18 354.5 -78t110.5 -191q0 -285 -518 -284q-494 0 -493 217q0 86 85 142t238 71q-178 45 -178 166 q0 119 180 157q-223 78 -223 310q0 119 66.5 199.5t151.5 109t177 28.5q68 0 140 -18q117 154 262 158q55 2 91 -22.5t40 -65.5q4 -43 -18.5 -71t-59.5 -32q-82 -6 -160 90q-51 -29 -100 -77q201 -84 201 -299q0 -119 -66 -199t-148.5 -108.5t-175.5 -30.5q-233 0 -233 -84 q0 -68 276 -88zM522 924q-104 0 -167.5 -65.5t-63.5 -197t63.5 -196t167.5 -64.5q102 0 167 64.5t65 196t-65 197t-167 65.5zM524 -324q147 0 253 43t106 131q0 72 -71 102t-265 46q-6 2 -20.5 2t-22.5 2q-309 -29 -309 -180q-1 -146 329 -146z" glyph-name="gcommaaccent" horiz-adv-x="1069" unicode="ģ"/><glyph d="M1802 1411q-137 -16 -179 -39.5t-42 -85.5v-225h195v-82h-195v-825q0 -61 42 -84t179 -41v-29h-643v29q137 18 180 41.5t43 83.5v424h-829v-424q0 -61 42 -84t179 -41v-29h-643v29q137 18 180 41.5t43 83.5v825h-194v82h194v225q0 59 -43 83t-180 42v29h643v-29 q-137 -18 -179 -40.5t-42 -84.5v-225h829v225q0 59 -43 83t-180 42v29h643v-29zM1382 657v322h-829v-322h829z" glyph-name="Hbar" horiz-adv-x="1933" unicode="Ħ"/><glyph d="M1126 154q0 -61 34 -84t145 -41v-29h-533v29q104 18 137 41.5t33 83.5v475q0 264 -199 264q-96 0 -183 -65.5t-140 -223.5v-450q0 -59 32.5 -83t137.5 -42v-29h-529v29q111 18 145 41.5t34 83.5v995h-148v80h148v74q0 55 -27 72.5t-137 35.5v29l344 82v-293h508v-80h-508 v-438q55 143 152.5 215.5t220.5 72.5q334 0 333 -354v-491z" glyph-name="hbar" horiz-adv-x="1359" unicode="ħ"/><glyph d="M158 1878h594v-80h-594v80zM774 1411q-137 -16 -179 -39.5t-42 -85.5v-1132q0 -61 42 -84t179 -41v-29h-643v29q137 18 180 41.5t43 83.5v1132q0 59 -43 83t-180 42v29h643v-29z" glyph-name="Imacron" horiz-adv-x="905" unicode="Ī"/><glyph d="M70 1411h594v-80h-594v80zM471 154q0 -59 33 -83t141 -42v-29h-534v29q111 18 144.5 41.5t33.5 83.5v612q0 55 -26.5 72.5t-137.5 35.5v29l346 86v-835z" glyph-name="imacron" horiz-adv-x="729" unicode="ī"/><glyph d="M809 -258l10 -8q-72 -147 -237 -148q-68 0 -110 36t-42 108q0 84 62.5 154.5t164.5 115.5h-526v29q137 18 180 41.5t43 83.5v1132q0 59 -43 83t-180 42v29h643v-29q-137 -16 -179 -39.5t-42 -85.5v-1132q0 -57 38 -81t161 -40q6 2 20 5t21 3l20 -21q-4 -2 -18.5 -7 t-20.5 -9v-4h-10q-201 -94 -201 -246q0 -86 82 -86q101 0 164 74z" glyph-name="Iogonek" horiz-adv-x="905" unicode="Į"/><glyph d="M366.5 1235q-49.5 0 -85 35t-35.5 84t35.5 84t85 35t84 -35t34.5 -84q0 -51 -34.5 -85t-84 -34zM651 -258l11 -8q-72 -147 -238 -148q-68 0 -110 36t-42 108q0 84 62.5 154.5t165.5 115.5h-389v29q111 18 144.5 41.5t33.5 83.5v612q0 55 -26.5 72.5t-137.5 35.5v29 l346 86v-835q0 -55 26.5 -79t110.5 -40l27 6l20 -21l-10 -4v-16h-39q-201 -94 -200 -246q0 -86 81 -86q101 0 164 74z" glyph-name="iogonek" horiz-adv-x="729" unicode="į"/><glyph d="M455 1702q-49 0 -85 35t-36 84t36 83.5t85 34.5t83.5 -34.5t34.5 -83.5q0 -51 -34.5 -85t-83.5 -34zM774 1411q-137 -16 -179 -39.5t-42 -85.5v-1132q0 -61 42 -84t179 -41v-29h-643v29q137 18 180 41.5t43 83.5v1132q0 59 -43 83t-180 42v29h643v-29z" glyph-name="Idotaccent" horiz-adv-x="905" unicode="İ"/><glyph d="M471 154q0 -59 33 -83t141 -42v-29h-534v29q111 18 144.5 41.5t33.5 83.5v612q0 55 -26.5 72.5t-137.5 35.5v29l346 86v-835z" glyph-name="dotlessi" horiz-adv-x="729" unicode="ı"/><glyph d="M1479 207q55 -80 108 -119t154 -59v-29h-656v29q96 12 140.5 30.5t53.5 54.5t-36 91l-422 588l-268 -236v-403q0 -61 41 -84t176 -41v-29h-639v29q137 18 180 41.5t43 83.5v1132q0 59 -43 83t-180 42v29h643v-29q-137 -18 -179 -40.5t-42 -84.5v-624l621 552 q94 82 74.5 130.5t-156.5 66.5v29h596v-29q-195 -29 -398 -205l-321 -282zM899 -111q119 0 119 -151q0 -117 -72 -192.5t-194 -92.5l-9 29q174 53 189 211q-25 -8 -41 -8q-45 0 -70.5 28.5t-25.5 73.5q0 43 29.5 72.5t74.5 29.5z" glyph-name="Kcommaaccent" horiz-adv-x="1796" unicode="Ķ"/><glyph d="M1036 209q55 -90 100.5 -124t133.5 -56v-29h-535v29q111 20 133.5 54t-28.5 124l-211 332l-209 -166v-219q0 -59 32.5 -83t137.5 -42v-29h-529v29q111 18 145 41.5t34 83.5v1167q0 55 -28 73.5t-136 35.5v28l344 84v-1081l434 344q131 104 -86 139v29h475v-29 q-154 -39 -303 -158l-172 -137zM647 -111q119 0 119 -151q0 -117 -71.5 -192.5t-194.5 -92.5l-8 29q174 53 188 211q-25 -8 -41 -8q-45 0 -70.5 28.5t-25.5 73.5q0 43 29.5 72.5t74.5 29.5z" glyph-name="kcommaaccent" horiz-adv-x="1292" unicode="ķ"/><glyph d="M651 1851l-198 -247l-13 8l97 305q16 66 51 90.5t74 7.5q39 -14 37.5 -64.5t-48.5 -99.5zM1368 528h33l-45 -528h-1225v29q137 18 180 41.5t43 83.5v1132q0 59 -43 83t-180 42v29h741v-29q-201 -16 -260 -42t-59 -99v-1192h385q190 0 281.5 102t148.5 348z" glyph-name="Lacute" horiz-adv-x="1456" unicode="Ĺ"/><glyph d="M514 1929l-199 -248l-12 9l96 305q16 66 51 90t74 8q39 -14 38 -64.5t-48 -99.5zM422 154q0 -61 32.5 -84t141.5 -41v-29h-535v29q111 18 145 41.5t34 83.5v1167q0 55 -28 73.5t-138 35.5v28l348 82v-1386z" glyph-name="lacute" horiz-adv-x="663" unicode="ĺ"/><glyph d="M1368 528h33l-45 -528h-1225v29q137 18 180 41.5t43 83.5v1132q0 59 -43 83t-180 42v29h741v-29q-201 -16 -260 -42t-59 -99v-1192h385q190 0 281.5 102t148.5 348zM745 -111q119 0 119 -151q0 -117 -71.5 -192.5t-194.5 -92.5l-8 29q174 53 188 211q-25 -8 -41 -8 q-45 0 -70.5 28.5t-25.5 73.5q0 43 29.5 72.5t74.5 29.5z" glyph-name="Lcommaaccent" horiz-adv-x="1456" unicode="Ļ"/><glyph d="M422 154q0 -61 32.5 -84t141.5 -41v-29h-535v29q111 18 145 41.5t34 83.5v1167q0 55 -28 73.5t-138 35.5v28l348 82v-1386zM332 -111q119 0 119 -151q0 -117 -72 -192.5t-195 -92.5l-8 29q174 53 189 211q-25 -8 -41 -8q-45 0 -71 28.5t-26 73.5q0 43 30 72.5t75 29.5z " glyph-name="lcommaaccent" horiz-adv-x="663" unicode="ļ"/><glyph d="M1245 1276l-104 -361h-17l4 388q0 164 80 163q49 0 57.5 -55t-20.5 -135zM1368 528h33l-45 -528h-1225v29q137 18 180 41.5t43 83.5v1132q0 59 -43 83t-180 42v29h741v-29q-201 -16 -260 -42t-59 -99v-1192h385q190 0 281.5 102t148.5 348z" glyph-name="Lcaron" horiz-adv-x="1456" unicode="Ľ"/><glyph d="M739 1544q49 0 57.5 -55t-20.5 -135l-104 -361h-17l4 387q0 164 80 164zM422 154q0 -61 32.5 -84t141.5 -41v-29h-535v29q111 18 145 41.5t34 83.5v1167q0 55 -28 73.5t-138 35.5v28l348 82v-1386z" glyph-name="lcaron" horiz-adv-x="663" unicode="ľ"/><glyph d="M1368 528h33l-45 -528h-1225v29q137 18 180 41.5t43 83.5v508l-237 -64l-19 68l256 67v553q0 59 -43 83t-180 42v29h741v-29q-201 -16 -260 -42t-59 -99v-484l461 123l18 -67l-479 -127v-637h385q190 0 281.5 102t148.5 348z" glyph-name="Lslash" horiz-adv-x="1488" unicode="Ł"/><glyph d="M489 154q0 -59 33 -83t142 -42v-29h-533v29q109 18 142.5 40.5t33.5 84.5v628l-262 -100l-27 74l289 110v455q0 55 -27.5 73.5t-138.5 35.5v28l348 82v-604l277 104l29 -73l-306 -117v-696z" glyph-name="lslash" horiz-adv-x="800" unicode="ł"/><glyph d="M1122 1851l-198 -247l-13 8l97 305q16 66 51 90.5t74 7.5q39 -14 37.5 -64.5t-48.5 -99.5zM1204 1440h584v-29q-113 -23 -170 -65.5t-57 -153.5v-1192h-185l-946 1266v-1018q0 -111 66.5 -154t197.5 -65v-29h-583v29q113 23 170 65.5t57 153.5v1038q0 59 -43 83t-180 42 v29h428l925 -1237v989q0 111 -66.5 154t-197.5 65v29z" glyph-name="Nacute" horiz-adv-x="1880" unicode="Ń"/><glyph d="M891 1384l-199 -247l-12 8l96 305q16 66 51 90.5t74 7.5q39 -14 38 -64.5t-48 -99.5zM1176 154q0 -61 33.5 -84t144.5 -41v-29h-531v29q104 18 136 41.5t32 83.5v469q0 150 -51 210t-141 60q-100 0 -187.5 -72.5t-140.5 -222.5v-444q0 -59 33 -83t137 -42v-29h-530v29 q111 18 144.5 41.5t33.5 83.5v614q0 55 -29 73.5t-143 37.5v28l354 82v-264q57 129 155.5 201.5t223.5 72.5q137 0 231.5 -80.5t94.5 -279.5v-485z" glyph-name="nacute" horiz-adv-x="1409" unicode="ń"/><glyph d="M1204 1440h584v-29q-113 -23 -170 -65.5t-57 -153.5v-1192h-185l-946 1266v-1018q0 -111 66.5 -154t197.5 -65v-29h-583v29q113 23 170 65.5t57 153.5v1038q0 59 -43 83t-180 42v29h428l925 -1237v989q0 111 -66.5 154t-197.5 65v29zM940 -111q119 0 119 -151 q0 -117 -72 -192.5t-194 -92.5l-9 29q174 53 189 211q-25 -8 -41 -8q-45 0 -70.5 28.5t-25.5 73.5q0 43 29.5 72.5t74.5 29.5z" glyph-name="Ncommaaccent" horiz-adv-x="1880" unicode="Ņ"/><glyph d="M1176 154q0 -61 33.5 -84t144.5 -41v-29h-531v29q104 18 136 41.5t32 83.5v469q0 150 -51 210t-141 60q-100 0 -187.5 -72.5t-140.5 -222.5v-444q0 -59 33 -83t137 -42v-29h-530v29q111 18 144.5 41.5t33.5 83.5v614q0 55 -29 73.5t-143 37.5v28l354 82v-264 q57 129 155.5 201.5t223.5 72.5q137 0 231.5 -80.5t94.5 -279.5v-485zM729 -111q119 0 119 -151q0 -117 -71.5 -192.5t-194.5 -92.5l-9 29q174 53 189 211q-25 -8 -41 -8q-45 0 -70.5 28.5t-25.5 73.5q0 43 29.5 72.5t74.5 29.5z" glyph-name="ncommaaccent" horiz-adv-x="1409" unicode="ņ"/><glyph d="M940 1626q-59 0 -113 98l-139 250l12 8l240 -210l240 210l12 -8l-141 -250q-52 -98 -111 -98zM1204 1440h584v-29q-113 -23 -170 -65.5t-57 -153.5v-1192h-185l-946 1266v-1018q0 -111 66.5 -154t197.5 -65v-29h-583v29q113 23 170 65.5t57 153.5v1038q0 59 -43 83 t-180 42v29h428l925 -1237v989q0 111 -66.5 154t-197.5 65v29z" glyph-name="Ncaron" horiz-adv-x="1880" unicode="Ň"/><glyph d="M706.5 1159q-59.5 0 -112.5 98l-139 250l12 9l240 -211l239 211l12 -9l-141 -250q-51 -98 -110.5 -98zM1176 154q0 -61 33.5 -84t144.5 -41v-29h-531v29q104 18 136 41.5t32 83.5v469q0 150 -51 210t-141 60q-100 0 -187.5 -72.5t-140.5 -222.5v-444q0 -59 33 -83 t137 -42v-29h-530v29q111 18 144.5 41.5t33.5 83.5v614q0 55 -29 73.5t-143 37.5v28l354 82v-264q57 129 155.5 201.5t223.5 72.5q137 0 231.5 -80.5t94.5 -279.5v-485z" glyph-name="ncaron" horiz-adv-x="1409" unicode="ň"/><glyph d="M1196 1440h584v-29q-113 -23 -170.5 -65.5t-57.5 -153.5v-1073q0 -268 -103 -394t-263 -126q-96 0 -153.5 42t-57.5 103q0 43 22.5 70.5t65.5 27.5q104 0 199 -161q150 53 188 243l-1020 1344v-1020q0 -111 66.5 -154t197.5 -65v-29h-583v29q113 23 170 65.5t57 153.5 v1038q0 59 -43 83t-180 42v29h428l917 -1207v959q0 111 -66.5 154t-197.5 65v29z" glyph-name="Eng" horiz-adv-x="1880" unicode="Ŋ"/><glyph d="M850 999q137 0 231.5 -80.5t94.5 -279.5v-520q0 -266 -106.5 -393t-270.5 -127q-88 0 -136.5 29.5t-48.5 78.5q0 37 22.5 59.5t59.5 22.5q84 0 170 -119q125 76 125 353v600q0 270 -190 270q-102 0 -189.5 -72.5t-140.5 -222.5v-444q0 -59 33 -83t137 -42v-29h-530v29 q111 18 144.5 41.5t33.5 83.5v614q0 55 -29 73.5t-143 37.5v28l354 82v-274q55 135 153.5 209.5t225.5 74.5z" glyph-name="eng" horiz-adv-x="1409" unicode="ŋ"/><glyph d="M571 1878h594v-80h-594v80zM868 -27q-317 0 -535 202t-218 546t218 544.5t535 200.5q315 0 534.5 -200.5t219.5 -544.5t-219.5 -546t-534.5 -202zM868 59q242 0 391.5 184.5t149.5 477.5t-148.5 476t-392 183t-393 -183t-149.5 -476t149 -477.5t393 -184.5z" glyph-name="Omacron" horiz-adv-x="1734" unicode="Ō"/><glyph d="M322 1411h593v-80h-593v80zM618.5 -25q-223.5 0 -372 132.5t-148.5 375.5q0 248 148.5 382t372 134t372 -134t148.5 -382q0 -244 -148.5 -376t-372 -132zM618.5 55q155.5 0 238.5 112t83 316q0 209 -84 323t-237.5 114t-237.5 -114t-84 -323q0 -205 83 -316.5 t238.5 -111.5z" glyph-name="omacron" horiz-adv-x="1236" unicode="ō"/><glyph d="M754 1606l-15 2l4 290q-6 143 86 140q45 -2 57.5 -48t-22.5 -116zM991 1606l-12 8l129 274q55 125 133 80q39 -18 30 -66.5t-63 -93.5zM868 -27q-317 0 -535 202t-218 546t218 544.5t535 200.5q315 0 534.5 -200.5t219.5 -544.5t-219.5 -546t-534.5 -202zM868 59 q242 0 391.5 184.5t149.5 477.5t-148.5 476t-392 183t-393 -183t-149.5 -476t149 -477.5t393 -184.5z" glyph-name="Ohungarumlaut" horiz-adv-x="1734" unicode="Ő"/><glyph d="M504 1139l-15 2l5 291q-6 143 86 139q45 -2 57 -48t-23 -116zM741 1139l-12 8l129 274q55 125 133 80q39 -18 30 -66.5t-63 -93.5zM618.5 -25q-223.5 0 -372 132.5t-148.5 375.5q0 248 148.5 382t372 134t372 -134t148.5 -382q0 -244 -148.5 -376t-372 -132zM618.5 55 q155.5 0 238.5 112t83 316q0 209 -84 323t-237.5 114t-237.5 -114t-84 -323q0 -205 83 -316.5t238.5 -111.5z" glyph-name="ohungarumlaut" horiz-adv-x="1236" unicode="ő"/><glyph d="M2187 496h33l-45 -496h-1286q-330 0 -552 193.5t-222 527.5t221 526.5t553 192.5h1263v-494h-32q-33 248 -110 331t-267 83h-387v-574h231q133 0 187.5 64.5t74.5 257.5h33v-729h-33q-20 195 -74.5 260.5t-187.5 65.5h-231v-627h401q195 0 291 96.5t139 321.5zM932 78 h223v1282h-223q-287 0 -446.5 -175t-159.5 -464t159.5 -466t446.5 -177z" glyph-name="OE" horiz-adv-x="2328" unicode="Œ"/><glyph d="M1427 999q201 0 331 -130t120 -400h-737q10 -410 336 -410q223 0 335 140l46 -41q-152 -184 -414 -185q-268 0 -406 189q-141 -186 -420 -187q-223 0 -371.5 132.5t-148.5 375.5q0 248 148.5 382t371.5 134q274 0 418 -186q135 186 391 186zM618.5 55q155.5 0 238.5 112 t83 316q0 209 -84 323t-237.5 114t-237.5 -114t-84 -323q0 -205 83 -316.5t238.5 -111.5zM1425 920q-127 0 -200.5 -99.5t-81.5 -279.5h540q-4 180 -70.5 279.5t-187.5 99.5z" glyph-name="oe" horiz-adv-x="1966" unicode="œ"/><glyph d="M971 1851l-199 -247l-12 8l96 305q16 66 51 90.5t74 7.5q39 -14 38 -64.5t-48 -99.5zM1583 242l27 -13q-31 -127 -101.5 -191.5t-167.5 -64.5q-115 0 -180 79t-100 280q-18 104 -57 179t-79 113t-99.5 58t-98.5 23.5t-98 3.5h-82v-535q0 -76 42 -101.5t183 -43.5v-29 h-641v29q137 18 180 41.5t43 83.5v1132q0 59 -43 83t-180 42v29h766q469 0 469 -346q0 -168 -137 -264.5t-387 -100.5q156 -20 257 -95t142 -249q39 -182 72 -243.5t96 -61.5q100 0 174 162zM547 784h229q195 0 295 88.5t100 217.5q0 123 -78.5 196.5t-254.5 73.5h-291v-576 z" glyph-name="Racute" horiz-adv-x="1609" unicode="Ŕ"/><glyph d="M688 1384l-199 -247l-12 8l96 305q16 66 51 90.5t74 7.5q39 -14 38 -64.5t-48 -99.5zM782 999q74 0 111 -30.5t37 -83.5q0 -47 -25.5 -74t-64.5 -27q-82 0 -152 111q-145 -74 -217 -367v-374q0 -59 46 -83t194 -42v-29h-600v29q111 18 144.5 41.5t33.5 83.5v616 q0 55 -28 72.5t-144 36.5v28l354 82v-276q47 139 128 212.5t183 73.5z" glyph-name="racute" horiz-adv-x="931" unicode="ŕ"/><glyph d="M1583 242l27 -13q-31 -127 -101.5 -191.5t-167.5 -64.5q-115 0 -180 79t-100 280q-18 104 -57 179t-79 113t-99.5 58t-98.5 23.5t-98 3.5h-82v-535q0 -76 42 -101.5t183 -43.5v-29h-641v29q137 18 180 41.5t43 83.5v1132q0 59 -43 83t-180 42v29h766q469 0 469 -346 q0 -168 -137 -264.5t-387 -100.5q156 -20 257 -95t142 -249q39 -182 72 -243.5t96 -61.5q100 0 174 162zM547 784h229q195 0 295 88.5t100 217.5q0 123 -78.5 196.5t-254.5 73.5h-291v-576zM788 -111q119 0 119 -151q0 -117 -71.5 -192.5t-194.5 -92.5l-8 29q174 53 188 211 q-25 -8 -41 -8q-45 0 -70.5 28.5t-25.5 73.5q0 43 29.5 72.5t74.5 29.5z" glyph-name="Rcommaaccent" horiz-adv-x="1609" unicode="Ŗ"/><glyph d="M782 999q74 0 111 -30.5t37 -83.5q0 -47 -25.5 -74t-64.5 -27q-82 0 -152 111q-145 -74 -217 -367v-374q0 -59 46 -83t194 -42v-29h-600v29q111 18 144.5 41.5t33.5 83.5v616q0 55 -28 72.5t-144 36.5v28l354 82v-276q47 139 128 212.5t183 73.5zM412 -111 q119 0 118 -151q0 -117 -71.5 -192.5t-194.5 -92.5l-8 29q174 53 188 211q-25 -8 -41 -8q-45 0 -70.5 28.5t-25.5 73.5q0 43 30 72.5t75 29.5z" glyph-name="rcommaaccent" horiz-adv-x="931" unicode="ŗ"/><glyph d="M788.5 1626q-59.5 0 -112.5 98l-139 250l12 8l239 -210l240 210l12 -8l-141 -250q-51 -98 -110.5 -98zM1583 242l27 -13q-31 -127 -101.5 -191.5t-167.5 -64.5q-115 0 -180 79t-100 280q-18 104 -57 179t-79 113t-99.5 58t-98.5 23.5t-98 3.5h-82v-535q0 -76 42 -101.5 t183 -43.5v-29h-641v29q137 18 180 41.5t43 83.5v1132q0 59 -43 83t-180 42v29h766q469 0 469 -346q0 -168 -137 -264.5t-387 -100.5q156 -20 257 -95t142 -249q39 -182 72 -243.5t96 -61.5q100 0 174 162zM547 784h229q195 0 295 88.5t100 217.5q0 123 -78.5 196.5 t-254.5 73.5h-291v-576z" glyph-name="Rcaron" horiz-adv-x="1609" unicode="Ř"/><glyph d="M505.5 1159q-59.5 0 -112.5 98l-139 250l12 9l240 -211l239 211l13 -9l-142 -250q-51 -98 -110.5 -98zM782 999q74 0 111 -30.5t37 -83.5q0 -47 -25.5 -74t-64.5 -27q-82 0 -152 111q-145 -74 -217 -367v-374q0 -59 46 -83t194 -42v-29h-600v29q111 18 144.5 41.5 t33.5 83.5v616q0 55 -28 72.5t-144 36.5v28l354 82v-276q47 139 128 212.5t183 73.5z" glyph-name="rcaron" horiz-adv-x="931" unicode="ř"/><glyph d="M866 2015q39 -14 38 -64t-48 -100l-199 -247l-12 8l96 305q16 66 51 90t74 8zM1061 328q-2 129 -100.5 198.5t-321.5 118.5q-238 55 -361.5 156.5t-123.5 298.5q0 164 118.5 265t307.5 101q178 0 362 -92q76 -41 113 -27.5t61 95.5h25v-555h-33q-45 494 -496 493 q-147 0 -221 -68.5t-74 -178.5q0 -127 90.5 -193t286.5 -111q268 -61 398.5 -162.5t130.5 -293.5q0 -188 -136.5 -294t-343.5 -106q-86 0 -160.5 15.5t-111.5 31t-102 48.5q-57 27 -89 25.5t-48.5 -21t-38.5 -72.5h-27v555h33q14 -141 61 -241.5t118 -154t148.5 -77 t169.5 -23.5q174 0 270.5 73t94.5 196z" glyph-name="Sacute" horiz-adv-x="1347" unicode="Ś"/><glyph d="M684 1384l-199 -247l-12 8l96 305q16 66 51 90.5t74 7.5q39 -14 38 -64.5t-48 -99.5zM520 582q199 -47 276.5 -124t77.5 -204q0 -141 -99 -211t-247 -70q-201 0 -321 121l-53 -94h-45v395h53q10 -152 94 -246t248 -94q92 0 156.5 42t64.5 122q0 74 -56.5 118t-203.5 79 q-190 43 -270 125t-80 202q0 115 83 185.5t246 70.5q184 0 306 -112l36 86h45v-369h-53q-16 168 -96 242t-227 74q-92 0 -141.5 -39t-49.5 -107q0 -70 55.5 -113.5t200.5 -78.5z" glyph-name="sacute" horiz-adv-x="1001" unicode="ś"/><glyph d="M743 -27h-38l-19 -100q264 18 264 -145q0 -72 -55 -115t-154 -43q-188 0 -284 151l14 19q88 -84 223 -84q123 0 123 74q0 84 -213 84l-2 18l27 148q-119 16 -260 88q-57 27 -89 25.5t-48.5 -21t-38.5 -72.5h-27v555h33q14 -141 61 -241.5t118 -154t148.5 -77t169.5 -23.5 q174 0 270.5 73t94.5 196q-2 129 -100.5 198.5t-321.5 118.5q-238 55 -361.5 156.5t-123.5 298.5q0 164 118.5 265t307.5 101q178 0 362 -92q76 -41 113 -27.5t61 95.5h25v-555h-33q-45 494 -496 493q-147 0 -221 -68.5t-74 -178.5q0 -127 90.5 -193t286.5 -111 q268 -61 398.5 -162.5t130.5 -293.5q0 -188 -136.5 -294t-343.5 -106z" glyph-name="Scedilla" horiz-adv-x="1347" unicode="Ş"/><glyph d="M874 254q0 -141 -98 -210t-244 -71l-18 -100q264 18 264 -145q0 -72 -55 -115t-154 -43q-188 0 -284 151l14 19q88 -84 223 -84q123 0 123 74q0 84 -213 84l-2 18l27 145q-156 23 -250 117l-53 -94h-45v395h53q10 -152 94 -246t248 -94q92 0 156.5 42t64.5 122 q0 74 -56.5 118t-203.5 79q-190 43 -270 125t-80 202q0 115 83 185.5t246 70.5q184 0 306 -112l36 86h45v-369h-53q-16 168 -96 242t-227 74q-92 0 -141.5 -39t-49.5 -107q0 -70 55.5 -114t200.5 -78q199 -47 276.5 -124t77.5 -204z" glyph-name="scedilla" horiz-adv-x="1001" unicode="ş"/><glyph d="M673.5 1626q-59.5 0 -112.5 98l-139 250l12 8l240 -210l239 210l13 -8l-142 -250q-51 -98 -110.5 -98zM694 829q268 -61 398.5 -162.5t130.5 -293.5q0 -188 -136.5 -294t-343.5 -106q-86 0 -160.5 15.5t-111.5 31t-102 48.5q-57 27 -89 25.5t-48.5 -21t-38.5 -72.5h-27 v555h33q14 -141 61 -241.5t118 -154t148.5 -77t169.5 -23.5q174 0 270.5 73t94.5 196q-2 129 -100.5 198.5t-321.5 118.5q-238 55 -361.5 156.5t-123.5 298.5q0 164 118.5 265t307.5 101q178 0 362 -92q76 -41 113 -27.5t61 95.5h25v-555h-33q-45 494 -496 493 q-147 0 -221 -68.5t-74 -178.5q0 -127 90 -193t287 -111z" glyph-name="Scaron" horiz-adv-x="1347" unicode="Š"/><glyph d="M501.5 1159q-59.5 0 -112.5 98l-139 250l12 9l240 -211l239 211l13 -9l-142 -250q-51 -98 -110.5 -98zM520 582q199 -47 276.5 -124t77.5 -204q0 -141 -99 -211t-247 -70q-201 0 -321 121l-53 -94h-45v395h53q10 -152 94 -246t248 -94q92 0 156.5 42t64.5 122 q0 74 -56.5 118t-203.5 79q-190 43 -270 125t-80 202q0 115 83 185.5t246 70.5q184 0 306 -112l36 86h45v-369h-53q-16 168 -96 242t-227 74q-92 0 -141.5 -39t-49.5 -107q0 -70 55.5 -113.5t200.5 -78.5z" glyph-name="scaron" horiz-adv-x="1001" unicode="š"/><glyph d="M1325 1440v-506h-33q-23 180 -62.5 271t-102 123t-179.5 32h-153v-1206q0 -59 49 -83t209 -42v-29h-324l-22 -127q264 18 264 -145q0 -72 -55.5 -115t-153.5 -43q-188 0 -285 151l15 19q88 -84 223 -84q123 0 123 74q0 84 -213 84l-2 18l30 168h-317v29q160 18 209 41.5 t49 83.5v1206h-154q-117 0 -179 -32t-102 -123t-63 -271h-33v506h1262z" glyph-name="Tcommaaccent" horiz-adv-x="1388" unicode="Ţ"/><glyph d="M535 -127q264 18 264 -145q0 -72 -55.5 -115t-153.5 -43q-188 0 -285 151l14 19q88 -84 224 -84q123 0 123 74q0 84 -213 84l-2 18l26 141q-141 4 -202.5 86t-61.5 244v596h-158v74h162l131 274h47v-274h375v-74h-375v-643q0 -195 154 -195q145 0 256 146l37 -31 q-106 -176 -289 -199z" glyph-name="tcommaaccent" horiz-adv-x="858" unicode="ţ"/><glyph d="M694.5 1626q-59.5 0 -112.5 98l-140 250l13 8l239 -210l240 210l12 -8l-141 -250q-51 -98 -110.5 -98zM1325 1440v-506h-33q-23 180 -62.5 271t-102 123t-179.5 32h-153v-1206q0 -59 49 -83t209 -42v-29h-717v29q160 18 209 41.5t49 83.5v1206h-154q-117 0 -179 -32 t-102 -123t-63 -271h-33v506h1262z" glyph-name="Tcaron" horiz-adv-x="1388" unicode="Ť"/><glyph d="M705 1397l-115 -318l-19 2l17 342q2 164 84 164q33 0 48 -26.5t11.5 -69.5t-26.5 -94zM805 207l37 -31q-123 -203 -350 -203q-147 0 -213 81t-66 249v596h-158v74h162l131 274h47v-274h375v-74h-375v-643q0 -195 154 -195q145 1 256 146z" glyph-name="tcaron" horiz-adv-x="858" unicode="ť"/><glyph d="M1325 1440v-506h-33q-23 180 -62.5 271t-102 123t-179.5 32h-153v-729h426v-78h-426v-399q0 -59 49 -83t209 -42v-29h-717v29q160 18 209 41.5t49 83.5v399h-397v78h397v729h-154q-117 0 -179 -32t-102 -123t-63 -271h-33v506h1262z" glyph-name="Tbar" horiz-adv-x="1388" unicode="Ŧ"/><glyph d="M805 207l37 -31q-123 -203 -350 -203q-147 0 -213 81t-66 249v182h-154v72h154v342h-158v74h162l131 274h47v-274h375v-74h-375v-342h359v-72h-359v-229q0 -195 154 -195q145 1 256 146z" glyph-name="tbar" horiz-adv-x="860" unicode="ŧ"/><glyph d="M594 1878h594v-80h-594v80zM283 666v620q0 59 -40 83t-163 42v29h618v-29q-135 -18 -175 -40.5t-40 -84.5v-655q0 -293 100.5 -432.5t307.5 -139.5t307 139.5t100 432.5v655q0 61 -43 85t-180 40v29h623v-29q-123 -16 -162 -39.5t-39 -85.5v-620q0 -352 -161.5 -522.5 t-444.5 -170.5t-445.5 170.5t-162.5 522.5z" glyph-name="Umacron" horiz-adv-x="1777" unicode="Ū"/><glyph d="M993 1411v-80h-594v80h594zM1120 154q0 -61 34 -84t146 -41v-29h-362v231q-111 -258 -367 -258q-338 0 -338 365v481q0 59 -33.5 83t-144.5 42v29h363v-617q0 -276 194 -276q231 0 326 278v461q0 61 -36 84t-157 41v29h375v-819z" glyph-name="umacron" horiz-adv-x="1382" unicode="ū"/><glyph d="M889 1587q-96 0 -160.5 60.5t-64.5 157t64.5 157.5t160.5 61q94 0 158.5 -61t64.5 -157.5t-64.5 -157t-158.5 -60.5zM889 1653q61 0 105 41t44 110q0 72 -44 113t-105 41q-59 0 -104.5 -41t-45.5 -113q0 -70 45.5 -110.5t104.5 -40.5zM283 666v620q0 59 -40 83t-163 42 v29h618v-29q-135 -18 -175 -40.5t-40 -84.5v-655q0 -293 100.5 -432.5t307.5 -139.5t307 139.5t100 432.5v655q0 61 -43 85t-180 40v29h623v-29q-123 -16 -162 -39.5t-39 -85.5v-620q0 -352 -161.5 -522.5t-444.5 -170.5t-445.5 170.5t-162.5 522.5z" glyph-name="Uring" horiz-adv-x="1777" unicode="Ů"/><glyph d="M696 1120q-96 0 -160.5 60.5t-64.5 157t64.5 157.5t160.5 61q94 0 159 -61t65 -157.5t-65 -157t-159 -60.5zM696 1491q-59 0 -104 -41t-45 -113q0 -70 45 -110.5t104 -40.5q61 0 105.5 41t44.5 110q0 72 -44.5 113t-105.5 41zM1120 154q0 -61 34 -84t146 -41v-29h-362 v231q-111 -258 -367 -258q-338 0 -338 365v481q0 59 -33.5 83t-144.5 42v29h363v-617q0 -276 194 -276q231 0 326 278v461q0 61 -36 84t-157 41v29h375v-819z" glyph-name="uring" horiz-adv-x="1382" unicode="ů"/><glyph d="M776 1606l-14 2l4 290q-6 143 86 140q45 -2 57.5 -48t-22.5 -116zM1014 1606l-13 8l129 274q55 125 134 80q39 -18 29.5 -66.5t-62.5 -93.5zM283 666v620q0 59 -40 83t-163 42v29h618v-29q-135 -18 -175 -40.5t-40 -84.5v-655q0 -293 100.5 -432.5t307.5 -139.5 t307 139.5t100 432.5v655q0 61 -43 85t-180 40v29h623v-29q-123 -16 -162 -39.5t-39 -85.5v-620q0 -352 -161.5 -522.5t-444.5 -170.5t-445.5 170.5t-162.5 522.5z" glyph-name="Uhungarumlaut" horiz-adv-x="1777" unicode="Ű"/><glyph d="M584 1139l-15 2l4 291q-6 143 86 139q45 -2 57.5 -48t-22.5 -116zM1038 1341l-217 -202l-12 8l129 274q55 125 133 80q39 -18 29.5 -66.5t-62.5 -93.5zM1120 154q0 -61 34 -84t146 -41v-29h-362v231q-111 -258 -367 -258q-338 0 -338 365v481q0 59 -33.5 83t-144.5 42v29 h363v-617q0 -276 194 -276q231 0 326 278v461q0 61 -36 84t-157 41v29h375v-819z" glyph-name="uhungarumlaut" horiz-adv-x="1382" unicode="ű"/><glyph d="M1075 1440h623v-29q-123 -16 -162 -39.5t-39 -85.5v-620q0 -573 -430 -674q-141 -55 -195.5 -128t-54.5 -138q0 -86 82 -86q100 0 164 73l10 -8q-72 -147 -237 -147q-68 0 -110 35.5t-42 107.5q0 84 65.5 156.5t168.5 115.5h-27q-283 0 -445.5 170t-162.5 523v620 q0 59 -40 83t-163 42v29h618v-29q-135 -18 -175 -40.5t-40 -84.5v-655q0 -293 100.5 -432.5t307.5 -139.5t307 139.5t100 432.5v655q0 61 -43 85t-180 40v29z" glyph-name="Uogonek" horiz-adv-x="1777" unicode="Ų"/><glyph d="M1294 -279l11 -8q-72 -147 -238 -147q-68 0 -110 36t-42 107q0 94 80 172t203 119h-260v231q-111 -258 -367 -258q-338 0 -338 365v481q0 59 -33.5 83t-144.5 42v29h363v-617q0 -276 194 -276q231 0 326 278v461q0 61 -36 84t-157 41v29h375v-819q0 -61 34 -84t146 -41 v-29h-2q-141 -55 -195 -128t-54 -138q0 -86 81 -86q101 -1 164 73z" glyph-name="uogonek" horiz-adv-x="1382" unicode="ų"/><glyph d="M1356 1837l-240 -211l-12 8l139 250q53 98 112.5 98t110.5 -98l142 -250l-13 -8zM2146 1440h537v-29q-90 -18 -132 -61t-85 -148l-492 -1202h-221l-399 1206l-398 -1206h-221l-491 1196q-49 121 -87 158t-130 57v29h643v-29q-174 -20 -221.5 -60t-2.5 -153l453 -1096 l356 1096q33 102 -14 147.5t-209 65.5v29h735v-29q-160 -20 -201.5 -59t-4.5 -154l360 -1096l449 1096q41 98 -9.5 144.5t-214.5 68.5v29z" glyph-name="Wcircumflex" horiz-adv-x="2709" unicode="Ŵ"/><glyph d="M1010 1370l-240 -211l-12 8l139 250q53 98 112.5 98.5t110.5 -98.5l142 -250l-13 -8zM1507 973h426v-29q-76 -20 -110.5 -50t-67.5 -122l-307 -772h-170l-313 780l-314 -780h-168l-307 772q-35 90 -70.5 121t-107.5 51v29h516v-29q-115 -20 -148.5 -53t1.5 -125l245 -633 l334 840h127l334 -842l248 641q29 80 -6 117t-142 55v29z" glyph-name="wcircumflex" horiz-adv-x="1929" unicode="ŵ"/><glyph d="M846 1837l-240 -211l-12 8l139 250q53 98 112.5 98t110.5 -98l142 -250l-13 -8zM1022 1440h518v-29q-84 -18 -141.5 -62t-130.5 -145l-379 -520v-530q0 -61 41 -84t178 -41v-29h-641v29q137 18 179 41.5t42 83.5v514l-379 534q-78 109 -134 151t-146 58v29h659v-29 q-145 -18 -180 -67.5t33 -145.5l305 -442l311 432q74 109 41 158t-176 65v29z" glyph-name="Ycircumflex" horiz-adv-x="1564" unicode="Ŷ"/><glyph d="M674 1370l-240 -211l-12 8l139 250q53 98 112.5 98.5t110.5 -98.5l142 -250l-13 -8zM815 973h436v-29q-80 -18 -116.5 -49t-77.5 -123l-283 -641q-229 -532 -549 -532q-82 0 -137 31.5t-55 99.5q0 39 24.5 65.5t65.5 26.5q106 0 190 -144q141 45 262 242l-385 852 q-43 94 -79.5 124t-112.5 48v29h530v-29q-104 -18 -141 -57t-4 -115l291 -666q2 6 7 17.5t7 17.5l260 594q25 55 27 92t-19.5 60.5t-53.5 35t-87 21.5v29z" glyph-name="ycircumflex" horiz-adv-x="1249" unicode="ŷ"/><glyph d="M635 1712q-45 0 -77 32t-32 77t32 76.5t77 31.5t76.5 -31.5t31.5 -76.5t-31.5 -77t-76.5 -32zM1057 1712q-45 0 -77 32t-32 77t32 76.5t77 31.5t77.5 -31.5t32.5 -76.5t-31.5 -77t-78.5 -32zM1022 1440h518v-29q-84 -18 -141.5 -62t-130.5 -145l-379 -520v-530 q0 -61 41 -84t178 -41v-29h-641v29q137 18 179 41.5t42 83.5v514l-379 534q-78 109 -134 151t-146 58v29h659v-29q-145 -18 -180 -67.5t33 -145.5l305 -442l311 432q74 109 41 158t-176 65v29z" glyph-name="Ydieresis" horiz-adv-x="1564" unicode="Ÿ"/><glyph d="M883 2015q39 -14 38 -64t-49 -100l-198 -247l-12 8l96 305q16 66 51 90t74 8zM135 0v68l838 1292h-477q-127 0 -195 -33t-108.5 -126t-61.5 -277h-33v516h1112v-54l-845 -1306h499q188 0 263 84t106 350h33v-514h-1131z" glyph-name="Zacute" horiz-adv-x="1382" unicode="Ź"/><glyph d="M725 1548q39 -14 38 -64t-48 -100l-199 -247l-12 8l96 305q16 66 51 90t74 8zM344 74h285q143 0 190 57t80 240h53v-371h-829v55l592 844h-295q-49 0 -83 -5t-59.5 -25.5t-40 -36t-27.5 -59.5t-19.5 -71.5t-20.5 -95.5h-51v367h813v-53z" glyph-name="zacute" horiz-adv-x="1062" unicode="ź"/><glyph d="M690 1702q-49 0 -85 35t-36 84t36 83.5t85 34.5t84 -34.5t35 -83.5q0 -51 -35 -85t-84 -34zM135 0v68l838 1292h-477q-127 0 -195 -33t-108.5 -126t-61.5 -277h-33v516h1112v-54l-845 -1306h499q188 0 263 84t106 350h33v-514h-1131z" glyph-name="Zdotaccent" horiz-adv-x="1382" unicode="Ż"/><glyph d="M532.5 1235q-49.5 0 -85 35t-35.5 84t35.5 84t85 35t84 -35t34.5 -84q0 -51 -34.5 -85t-84 -34zM344 74h285q143 0 190 57t80 240h53v-371h-829v55l592 844h-295q-49 0 -83 -5t-59.5 -25.5t-40 -36t-27.5 -59.5t-19.5 -71.5t-20.5 -95.5h-51v367h813v-53z" glyph-name="zdotaccent" horiz-adv-x="1062" unicode="ż"/><glyph d="M688 1626q-59 0 -113 98l-139 250l13 8l239 -210l240 210l12 -8l-141 -250q-54 -98 -111 -98zM1233 514h33v-514h-1131v68l838 1292h-477q-127 0 -195 -33t-108.5 -126t-61.5 -277h-33v516h1112v-54l-845 -1306h499q188 0 263 84t106 350z" glyph-name="Zcaron" horiz-adv-x="1382" unicode="Ž"/><glyph d="M532 1159q-59 0 -112 98l-139 250l12 9l239 -211l240 211l12 -9l-141 -250q-54 -98 -111 -98zM899 371h53v-371h-829v55l592 844h-295q-49 0 -83 -5t-59.5 -25.5t-40 -36t-27.5 -59.5t-19.5 -71.5t-20.5 -95.5h-51v367h813v-53l-588 -846h285q143 0 190 57.5t80 239.5z " glyph-name="zcaron" horiz-adv-x="1062" unicode="ž"/><glyph d="M694 829q268 -61 398.5 -162.5t130.5 -293.5q0 -188 -136.5 -294t-343.5 -106q-86 0 -160.5 15.5t-111.5 31t-102 48.5q-57 27 -89 25.5t-48.5 -21t-38.5 -72.5h-27v555h33q14 -141 61 -241.5t118 -154t148.5 -77t169.5 -23.5q174 0 270.5 73t94.5 196 q-2 129 -100.5 198.5t-321.5 118.5q-238 55 -361.5 156.5t-123.5 298.5q0 164 118.5 265t307.5 101q178 0 362 -92q76 -41 113 -27.5t61 95.5h25v-555h-33q-45 494 -496 493q-147 0 -221 -68.5t-74 -178.5q0 -127 90 -193t287 -111zM674 -111q119 0 119 -151 q0 -117 -72 -192.5t-195 -92.5l-8 29q174 53 189 211q-25 -8 -41 -8q-45 0 -71 28.5t-26 73.5q0 43 30 72.5t75 29.5z" glyph-name="Scommaaccent" horiz-adv-x="1347" unicode="Ș"/><glyph d="M520 582q199 -47 276.5 -124t77.5 -204q0 -141 -99 -211t-247 -70q-201 0 -321 121l-53 -94h-45v395h53q10 -152 94 -246t248 -94q92 0 156.5 42t64.5 122q0 74 -56.5 118t-203.5 79q-190 43 -270 125t-80 202q0 115 83 185.5t246 70.5q184 0 306 -112l36 86h45v-369h-53 q-16 168 -96 242t-227 74q-92 0 -141.5 -39t-49.5 -107q0 -70 55.5 -113.5t200.5 -78.5zM502 -111q119 0 119 -151q0 -117 -72 -192.5t-195 -92.5l-8 29q174 53 189 211q-25 -8 -41 -8q-45 0 -71 28.5t-26 73.5q0 43 30 72.5t75 29.5z" glyph-name="scommaaccent" horiz-adv-x="1001" unicode="ș"/><glyph d="M1325 1440v-506h-33q-23 180 -62.5 271t-102 123t-179.5 32h-153v-1206q0 -59 49 -83t209 -42v-29h-717v29q160 18 209 41.5t49 83.5v1206h-154q-117 0 -179 -32t-102 -123t-63 -271h-33v506h1262zM694 -111q119 0 119 -151q0 -117 -71.5 -192.5t-194.5 -92.5l-8 29 q174 53 188 211q-25 -8 -41 -8q-45 0 -70.5 28.5t-25.5 73.5q0 43 29.5 72.5t74.5 29.5z" glyph-name="uni021A" horiz-adv-x="1388" unicode="Ț"/><glyph d="M805 207l37 -31q-123 -203 -350 -203q-147 0 -213 81t-66 249v596h-158v74h162l131 274h47v-274h375v-74h-375v-643q0 -195 154 -195q145 1 256 146zM522 -111q119 0 119 -151q0 -117 -71.5 -192.5t-194.5 -92.5l-8 29q174 53 188 211q-25 -8 -41 -8q-45 0 -70.5 28.5 t-25.5 73.5q0 43 29.5 72.5t74.5 29.5z" glyph-name="uni021B" horiz-adv-x="858" unicode="ț"/><glyph d="M-324 1548q39 16 74 -8t51 -90l97 -305l-13 -8l-198 247q-47 49 -48.5 99.5t37.5 64.5z" glyph-name="gravecomb" unicode="̀"/><glyph d="M-96 1548q39 -14 38 -64t-48 -100l-199 -247l-12 8l96 305q16 66 51 90t74 8z" glyph-name="acutecomb" unicode="́"/><glyph d="M-94 1167l-12 -8l-240 211l-240 -211l-12 8l139 250q53 98 112.5 98.5t110.5 -98.5z" glyph-name="uni0302" unicode="̂"/><glyph d="M-752 1231l-20 6q25 98 78 155.5t129 57.5q70 0 155.5 -52t135.5 -52q55 0 88.5 26.5t70.5 81.5l21 -6q-25 -92 -80 -151.5t-129 -59.5t-158 52t-133 52q-55 0 -88 -26.5t-70 -83.5z" glyph-name="tildecomb" unicode="̃"/><glyph d="M-688 1411h594v-80h-594v80z" glyph-name="uni0304" unicode="̄"/><glyph d="M-510 1456q4 -76 58.5 -130t144.5 -54t144 54t59 130h24q-2 -131 -60.5 -211t-167 -80t-168 80t-61.5 211h27z" glyph-name="uni0306" unicode="̆"/><glyph d="M-221 1235q-49 0 -85 35t-36 84t36 84t85 35t84 -35t35 -84q0 -51 -35 -85t-84 -34z" glyph-name="uni0307" unicode="̇"/><glyph d="M-653 1245q-45 0 -77 32t-32 77t32 76.5t77 31.5t76.5 -31.5t31.5 -76.5t-31.5 -77t-76.5 -32zM-231 1245q-45 0 -77 32t-32 77t32 76.5t77 31.5t77.5 -31.5t32.5 -76.5t-31.5 -77t-78.5 -32z" glyph-name="uni0308" unicode="̈"/><glyph d="M-338 1120q-96 0 -160.5 60.5t-64.5 157t64.5 157.5t160.5 61q94 0 158.5 -61t64.5 -157.5t-64.5 -157t-158.5 -60.5zM-338 1186q61 0 105.5 41t44.5 110q0 72 -44 113t-106 41q-59 0 -104 -41t-45 -113q0 -70 45 -110.5t104 -40.5z" glyph-name="uni030A" unicode="̊"/><glyph d="M-575 1139l-15 2l4 291q-6 143 86 139q45 -2 57.5 -48t-22.5 -116zM-338 1139l-12 8l129 274q55 125 133 80q39 -18 29.5 -66.5t-62.5 -93.5z" glyph-name="uni030B" unicode="̋"/><glyph d="M-106 1516l12 -9l-142 -250q-51 -98 -110.5 -98t-112.5 98l-139 250l12 9l240 -211z" glyph-name="uni030C" unicode="̌"/><glyph d="M-225 1370q45 0 70.5 -27.5t25.5 -72.5q0 -43 -29.5 -73t-74.5 -30q-119 0 -119 152q0 117 71.5 192.5t194.5 92.5l8 -29q-174 -53 -188 -213q25 8 41 8z" glyph-name="uni0312" unicode="̒"/><glyph d="M-229 -111q119 0 118 -151q0 -117 -71.5 -192.5t-194.5 -92.5l-8 29q174 53 188 211q-25 -8 -41 -8q-45 0 -70.5 28.5t-25.5 73.5q0 43 30 72.5t75 29.5z" glyph-name="uni0326" unicode="̦"/><glyph d="M-338 -127q264 18 264 -145q0 -72 -55 -115t-154 -43q-188 0 -284 151l14 19q88 -84 223 -84q123 0 123 74q0 84 -213 84l-2 18l33 178h76z" glyph-name="uni0327" unicode="̧"/><glyph d="M-305 -430q-68 0 -110 36t-42 107q0 111 106.5 198t256.5 114l20 -21q-141 -55 -195.5 -128t-54.5 -138q0 -86 82 -86q100 0 164 74l10 -9q-71 -147 -237 -147z" glyph-name="uni0328" unicode="̨"/><glyph d="M1393 1604l-199 247q-47 49 -48 99.5t38 64.5q39 16 73.5 -8.5t51.5 -89.5l96 -305zM2146 1440h537v-29q-90 -18 -132 -61t-85 -148l-492 -1202h-221l-399 1206l-398 -1206h-221l-491 1196q-49 121 -87 158t-130 57v29h643v-29q-174 -20 -221.5 -60t-2.5 -153l453 -1096 l356 1096q33 102 -14 147.5t-209 65.5v29h735v-29q-160 -20 -201.5 -59t-4.5 -154l360 -1096l449 1096q41 98 -9.5 144.5t-214.5 68.5v29z" glyph-name="Wgrave" horiz-adv-x="2709" unicode="Ẁ"/><glyph d="M1049 1137l-199 247q-47 49 -48 99.5t38 64.5q39 16 73.5 -8t51.5 -90l96 -305zM1507 973h426v-29q-76 -20 -110.5 -50t-67.5 -122l-307 -772h-170l-313 780l-314 -780h-168l-307 772q-35 90 -70.5 121t-107.5 51v29h516v-29q-115 -20 -148.5 -53t1.5 -125l245 -633 l334 840h127l334 -842l248 641q29 80 -6 117t-142 55v29z" glyph-name="wgrave" horiz-adv-x="1929" unicode="ẁ"/><glyph d="M1538 1851l-199 -247l-12 8l96 305q16 66 51 90.5t74 7.5q39 -14 38 -64.5t-48 -99.5zM2146 1440h537v-29q-90 -18 -132 -61t-85 -148l-492 -1202h-221l-399 1206l-398 -1206h-221l-491 1196q-49 121 -87 158t-130 57v29h643v-29q-174 -20 -221.5 -60t-2.5 -153 l453 -1096l356 1096q33 102 -14 147.5t-209 65.5v29h735v-29q-160 -20 -201.5 -59t-4.5 -154l360 -1096l449 1096q41 98 -9.5 144.5t-214.5 68.5v29z" glyph-name="Wacute" horiz-adv-x="2709" unicode="Ẃ"/><glyph d="M1194 1384l-199 -247l-12 8l96 305q16 66 51 90.5t74 7.5q39 -14 38 -64.5t-48 -99.5zM1507 973h426v-29q-76 -20 -110.5 -50t-67.5 -122l-307 -772h-170l-313 780l-314 -780h-168l-307 772q-35 90 -70.5 121t-107.5 51v29h516v-29q-115 -20 -148.5 -53t1.5 -125 l245 -633l334 840h127l334 -842l248 641q29 80 -6 117t-142 55v29z" glyph-name="wacute" horiz-adv-x="1929" unicode="ẃ"/><glyph d="M1145 1712q-45 0 -77 32t-32 77t32 76.5t77 31.5t76.5 -31.5t31.5 -76.5t-31.5 -77t-76.5 -32zM1567 1712q-45 0 -77 32t-32 77t32 76.5t77 31.5t77.5 -31.5t32.5 -76.5t-31.5 -77t-78.5 -32zM2146 1440h537v-29q-90 -18 -132 -61t-85 -148l-492 -1202h-221l-399 1206 l-398 -1206h-221l-491 1196q-49 121 -87 158t-130 57v29h643v-29q-174 -20 -221.5 -60t-2.5 -153l453 -1096l356 1096q33 102 -14 147.5t-209 65.5v29h735v-29q-160 -20 -201.5 -59t-4.5 -154l360 -1096l449 1096q41 98 -9.5 144.5t-214.5 68.5v29z" glyph-name="Wdieresis" horiz-adv-x="2709" unicode="Ẅ"/><glyph d="M799 1245q-45 0 -77 32t-32 77t32 76.5t77 31.5t76.5 -31.5t31.5 -76.5t-31.5 -77t-76.5 -32zM1221 1245q-45 0 -77 32t-32 77t32 76.5t77 31.5t77.5 -31.5t32.5 -76.5t-31.5 -77t-78.5 -32zM1507 973h426v-29q-76 -20 -110.5 -50t-67.5 -122l-307 -772h-170l-313 780 l-314 -780h-168l-307 772q-35 90 -70.5 121t-107.5 51v29h516v-29q-115 -20 -148.5 -53t1.5 -125l245 -633l334 840h127l334 -842l248 641q29 80 -6 117t-142 55v29z" glyph-name="wdieresis" horiz-adv-x="1929" unicode="ẅ"/><glyph d="M1051 801q549 -45 548 -432q0 -199 -128 -297.5t-328 -98.5q-176 0 -287 73t-111 169q0 47 27 75.5t72 28.5q121 0 205 -260q41 -4 65 -4q125 0 204 81t79 224q0 373 -535 369v59l387 572h-696v-1360h-422v29q137 18 180 41.5t43 83.5v1132q0 59 -43 83t-180 42v29h1313 v-68z" glyph-name="uni1E9E" horiz-adv-x="1685" unicode="ẞ"/><glyph d="M883 1604l-199 247q-47 49 -48 99.5t38 64.5q39 16 73.5 -8.5t51.5 -89.5l96 -305zM1022 1440h518v-29q-84 -18 -141.5 -62t-130.5 -145l-379 -520v-530q0 -61 41 -84t178 -41v-29h-641v29q137 18 179 41.5t42 83.5v514l-379 534q-78 109 -134 151t-146 58v29h659v-29 q-145 -18 -180 -67.5t33 -145.5l305 -442l311 432q74 109 41 158t-176 65v29z" glyph-name="Ygrave" horiz-adv-x="1564" unicode="Ỳ"/><glyph d="M711 1137l-199 247q-47 49 -48 99.5t38 64.5q39 16 73.5 -8t51.5 -90l96 -305zM815 973h436v-29q-80 -18 -116.5 -49t-77.5 -123l-283 -641q-229 -532 -549 -532q-82 0 -137 31.5t-55 99.5q0 39 24.5 65.5t65.5 26.5q106 0 190 -144q141 45 262 242l-385 852 q-43 94 -79.5 124t-112.5 48v29h530v-29q-104 -18 -141 -57t-4 -115l291 -666q2 6 7 17.5t7 17.5l260 594q25 55 27 92t-19.5 60.5t-53.5 35t-87 21.5v29z" glyph-name="ygrave" horiz-adv-x="1249" unicode="ỳ"/><glyph d="M147 625h1125v-78h-1125v78z" glyph-name="endash" horiz-adv-x="1419" unicode="–"/><glyph d="M147 625h1588v-78h-1588v78z" glyph-name="emdash" horiz-adv-x="1882" unicode="—"/><glyph d="M248 1231q43 0 66.5 -26.5t23.5 -69.5q0 -45 -28.5 -74t-76.5 -29q-123 0 -122 168q0 127 72.5 221.5t187.5 118.5l12 -31q-168 -80 -174 -284q19 6 39 6z" glyph-name="quoteleft" horiz-adv-x="460" unicode="‘"/><glyph d="M225 1544q66 0 95.5 -48t29.5 -120q0 -129 -73.5 -222t-186.5 -118l-12 31q166 82 174 285q-18 -6 -39 -6q-43 0 -67.5 26.5t-24.5 67.5q0 47 28.5 75.5t75.5 28.5z" glyph-name="quoteright" horiz-adv-x="460" unicode="’"/><glyph d="M221 193q127 0 127 -187q0 -145 -84 -245.5t-229 -129.5l-12 31q117 41 175 118t60 202q-16 -8 -43 -9q-47 0 -75.5 31t-28.5 80q0 47 30.5 78t79.5 31z" glyph-name="quotesinglbase" horiz-adv-x="450" unicode="‚"/><glyph d="M383 1507q-168 -80 -174 -284q18 6 39 6q43 0 66.5 -26.5t23.5 -69.5q0 -45 -28.5 -74t-76.5 -29q-123 0 -122 168q0 129 72.5 222t187.5 118zM551 1229q45 0 68.5 -26.5t23.5 -69.5q0 -45 -28.5 -74t-75.5 -29q-123 0 -123 168q0 129 72.5 222t185.5 118l12 -31 q-166 -82 -174 -284q19 6 39 6z" glyph-name="quotedblleft" horiz-adv-x="763" unicode="“"/><glyph d="M225 1544q66 0 95.5 -48t29.5 -120q0 -129 -73.5 -222t-186.5 -118l-12 31q166 82 174 285q-18 -6 -39 -6q-43 0 -67.5 26.5t-24.5 67.5q0 47 28.5 75.5t75.5 28.5zM530 1544q63 0 93 -48t30 -120q0 -129 -72.5 -222t-185.5 -118l-12 31q166 82 174 285q-18 -6 -39 -6 q-45 0 -68.5 26.5t-23.5 67.5q0 47 28.5 75.5t75.5 28.5z" glyph-name="quotedblright" horiz-adv-x="763" unicode="”"/><glyph d="M221 193q127 0 127 -187q0 -145 -84 -245.5t-229 -129.5l-12 31q117 41 175 118t60 202q-16 -8 -43 -9q-47 0 -75.5 31t-28.5 80q0 47 30.5 78t79.5 31zM559 193q127 0 127 -187q0 -143 -84 -244.5t-229 -130.5l-13 31q117 41 175.5 118t60.5 202q-16 -8 -43 -9 q-47 0 -77 31t-30 80q0 47 32 78t81 31z" glyph-name="quotedblbase" horiz-adv-x="788" unicode="„"/><glyph d="M891 1100v-78h-340v-680h-94v680h-340v78h340v340h94v-340h340z" glyph-name="dagger" horiz-adv-x="1007" unicode="†"/><glyph d="M891 1094h-340v-406h340v-80h-340v-266h-94v266h-340v80h340v406h-340v77h340v269h94v-269h340v-77z" glyph-name="daggerdbl" horiz-adv-x="1007" unicode="‡"/><glyph d="M330 522q-70 0 -120 50.5t-50 121.5q0 70 50 118t120 48q72 0 122 -48t50 -118q0 -72 -50 -122t-122 -50z" glyph-name="bullet" horiz-adv-x="661" unicode="•"/><glyph d="M242 -25q-47 0 -81 33t-34 82q0 45 34 78t81 33t80.5 -33t33.5 -78q0 -49 -33.5 -82t-80.5 -33zM596 -25q-47 0 -81 33t-34 82q0 45 34 78t81 33t81 -33t34 -78q0 -49 -34 -82t-81 -33zM950 -25q-47 0 -80.5 33t-33.5 82q0 45 33.5 78t80.5 33t81 -33t34 -78 q0 -49 -34 -82t-81 -33z" glyph-name="ellipsis" horiz-adv-x="1191" unicode="…"/><glyph d="M374.5 831q-145.5 0 -236.5 82t-91 236t91 235.5t236.5 81.5t236.5 -81.5t91 -235.5t-91 -236t-236.5 -82zM1233 1440h117l-1106 -1440h-117zM375 895q78 0 120 66.5t42 187.5t-42 187.5t-120 66.5t-120 -66.5t-42 -187.5t42 -187.5t120 -66.5zM1091.5 -25 q-145.5 0 -236.5 82t-91 235.5t91 235.5t236.5 82t236.5 -82t91 -235.5t-91 -235.5t-236.5 -82zM1824.5 -25q-145.5 0 -235.5 82t-90 235.5t90 235.5t235.5 82t236.5 -82t91 -235.5t-91 -235.5t-236.5 -82zM1091.5 39q77.5 0 119.5 66.5t42 187.5t-42 187.5t-119.5 66.5 t-119.5 -66.5t-42 -187.5t42 -187.5t119.5 -66.5zM1825 39q78 0 120 66.5t42 187.5t-42 187.5t-120 66.5q-76 0 -118 -66.5t-42 -187.5t42 -187.5t118 -66.5z" glyph-name="perthousand" horiz-adv-x="2199" unicode="‰"/><glyph d="M596 831l-285 -288l285 -291l-14 -23l-306 179q-111 61 -110 135q0 39 24.5 65.5t90.5 65.5l301 180z" glyph-name="guilsinglleft" horiz-adv-x="786" unicode="‹"/><glyph d="M506 674q66 -39 90.5 -65.5t24.5 -65.5q0 -74 -111 -135l-305 -179l-15 23l285 291l-285 288l15 23z" glyph-name="guilsinglright" horiz-adv-x="786" unicode="›"/><glyph d="M1122 1440h117l-1106 -1440h-117z" glyph-name="fraction" horiz-adv-x="1255" unicode="⁄"/><glyph d="M1366 406l41 -13q-41 -164 -192.5 -292t-374.5 -128q-231 0 -390 144.5t-202 408.5h-195v80h185q-4 70 -5 111q0 53 9 143h-189v80h203q55 248 219 387t373 139q59 0 119.5 -14t88 -25.5t91.5 -37.5q76 -39 119 -32t71 85h29v-563h-37q-23 258 -149.5 380.5t-302.5 122.5 q-164 0 -271.5 -116.5t-144.5 -325.5h577v-80h-589q-6 -68 -7 -139q0 -41 4 -115h594v-80h-583q35 -215 149.5 -334.5t300.5 -119.5q162 0 286 97.5t173 236.5z" glyph-name="Euro" horiz-adv-x="1495" unicode="€"/><glyph d="M938 1440v-367h-33q-31 184 -83 243.5t-158 59.5h-52v-596q0 -59 38 -82.5t159 -42.5v-28h-551v28q121 18 159 42t38 83v596h-49q-106 0 -159.5 -59.5t-82.5 -243.5h-33v367h807zM2382 1411q-96 -18 -127 -41.5t-31 -83.5v-495q0 -41 23.5 -69t52.5 -40t82 -27v-28h-469 v28q90 20 117.5 44t27.5 92v546l-370 -635h-52l-366 574v-467q0 -70 41 -101.5t123 -52.5v-28h-412v28q59 14 91 26.5t57.5 44.5t25.5 83v477q0 59 -28.5 83t-125.5 42v29h297l373 -568l328 568h342v-29z" glyph-name="trademark" horiz-adv-x="2592" unicode="™"/><glyph d="M479 750v-25h-409v25q74 8 95 20t21 41v537h-116v32l94 15q127 14 168 55h28v-639q0 -18 4.5 -26.5t31 -18.5t83.5 -16zM1204 1440h117l-1106 -1440h-117zM1282 414q236 -70 236 -221q0 -207 -373 -207q-172 0 -254 48t-82 128q0 137 219 182q-176 76 -176 195 q0 90 88 140t233.5 50t224.5 -43t79 -115q0 -120 -195 -157zM1001 575q0 -49 44.5 -80.5t168.5 -62.5q123 43 123 137q0 47 -43 74t-118.5 27t-125 -25t-49.5 -70zM1147 43q98 0 159.5 31.5t61.5 89.5q0 51 -50 83t-169 58q-8 2 -26.5 7t-28.5 7q-147 -51 -148 -157 q0 -53 50.5 -86t150.5 -33z" glyph-name="oneeighth" horiz-adv-x="1581" unicode="⅛"/><glyph d="M715 920q0 -98 -94.5 -148.5t-262.5 -50.5q-141 0 -232 39t-93 106q-2 27 17.5 47.5t49.5 20.5q80 0 131 -141q45 -16 97 -17q104 0 156.5 40t52.5 106q0 78 -68 108.5t-190 30.5h-95v65h95q121 0 181 44t60 110q0 125 -158 127q-76 0 -131 -16q-2 -68 -29.5 -114 t-84.5 -48q-35 -2 -51.5 16.5t-16.5 44.5q0 61 98.5 117.5t251.5 56.5q297 0 297 -176q0 -150 -241 -190q260 -26 260 -178zM1307 1440h116l-1106 -1440h-116zM1382 414q236 -70 236 -221q0 -207 -373 -207q-172 0 -254 48t-82 128q0 137 219 182q-176 72 -176 195 q0 90 88 140t233.5 50t224.5 -43t79 -115q0 -120 -195 -157zM1100 575q0 -49 44 -80.5t171 -62.5q123 43 123 137q0 47 -43 74t-119 27t-126 -25t-50 -70zM1247 43q98 0 158.5 31.5t60.5 89.5q0 51 -49 83t-170 58q-10 2 -28.5 7t-24.5 7q-147 -51 -147 -157q0 -53 50 -86 t150 -33z" glyph-name="threeeighths" horiz-adv-x="1681" unicode="⅜"/><glyph d="M1307 1440h116l-1106 -1440h-116zM715 936q0 -113 -96.5 -170t-256.5 -57q-129 0 -216 44t-87 111q0 25 17.5 43.5t46.5 18.5q86 0 125 -146q37 -12 88 -12q90 0 144.5 44t54.5 120q0 74 -47.5 110.5t-122.5 36.5q-70 0 -126.5 -19.5t-78.5 -41.5l-49 12l2 408h555v-133 h-484l-2 -218q98 55 248 56q127 0 206 -53.5t79 -153.5zM1360 414q233 -70 233 -221q0 -207 -370 -207q-172 0 -255 48t-83 128q0 135 219 182q-176 72 -176 195q0 90 89 140t234.5 50t223 -43t77.5 -115q1 -120 -192 -157zM1077 575q0 -49 44 -80.5t169 -62.5 q125 43 125 137q0 47 -44 74t-118 27q-78 0 -127 -25t-49 -70zM1223 43q98 0 159.5 31.5t61.5 89.5q0 51 -50.5 83t-168.5 58q-8 2 -26.5 7t-29.5 7q-145 -51 -145 -157q0 -53 49.5 -86t149.5 -33z" glyph-name="fiveeighths" horiz-adv-x="1656" unicode="⅝"/><glyph d="M168 727l371 580h-523v133h623v-62l-299 -651h-172zM1161 1440h117l-1106 -1440h-117zM1260 414q236 -70 235 -221q0 -207 -373 -207q-172 0 -254 48t-82 128q0 137 220 182q-176 76 -177 195q0 90 88.5 140t233.5 50t224 -43t79 -115q1 -120 -194 -157zM979 575 q0 -49 44 -80.5t169 -62.5q123 43 123 137q0 47 -43 74t-119 27t-125 -25t-49 -70zM1124 43q98 0 160 31.5t62 89.5q0 51 -50.5 83t-169.5 58q-10 2 -28.5 7t-26.5 7q-147 -51 -147 -157q0 -53 50 -86t150 -33z" glyph-name="seveneighths" horiz-adv-x="1558" unicode="⅞"/><glyph d="M152 676v78h833v-78h-833z" glyph-name="minus" horiz-adv-x="1136" unicode="−"/><glyph glyph-name="approxequal" horiz-adv-x="1228" unicode="≈"/><glyph d="M1020 872h-293l-203 -340h496v-77h-543l-104 -176h-92l106 176h-235v77h280l205 340h-485v80h532l115 191h90l-115 -191h246v-80z" glyph-name="notequal" horiz-adv-x="1171" unicode="≠"/><glyph d="M1026 444l-29 -77l-850 329v70l850 330l31 -78l-747 -287zM84 199h993v-80h-993v80z" glyph-name="lessequal" horiz-adv-x="1163" unicode="≤"/><glyph d="M137 444l746 287l-748 287l31 78l850 -330v-70l-850 -329zM84 199h995v-80h-995v80z" glyph-name="greaterequal" horiz-adv-x="1163" unicode="≥"/><glyph glyph-name="lozenge" horiz-adv-x="1228" unicode="◊"/><glyph d="M1976 1440h447v-29q-86 -18 -128 -61t-91 -148l-535 -1202h-196l-238 506l-231 -506h-222l-553 1196q-57 123 -92 160t-123 55v29h564v-29q-123 -20 -155 -66.5t11 -146.5l516 -1108l236 518l-277 588q-55 117 -97 156t-130 59v29h547v-29q-117 -14 -141.5 -56t26.5 -157 l174 -367l166 365q47 100 23.5 150.5t-123.5 64.5v29h436v-29q-92 -20 -143.5 -67.5t-98.5 -149.5l-213 -465l291 -612l479 1073q80 186 -129 221v29z" glyph-name="W.salt" horiz-adv-x="2435"/><glyph d="M2177 154q0 -61 34 -84t142 -41v-29h-530v29q104 18 137 41.5t33 83.5v475q0 264 -199 264q-96 0 -183 -65.5t-141 -223.5v-450q0 -59 33 -83t137 -42v-29h-528v29q109 18 142.5 40.5t33.5 84.5v974q0 152 -64.5 234t-183.5 82q-133 0 -204.5 -75t-71.5 -212 q0 -82 29 -190q96 -37 151 -104.5t55 -143.5q0 -41 -21.5 -66.5t-62.5 -25.5q-129 0 -161 276q-61 18 -140 19q-154 0 -235.5 -117t-81.5 -313q0 -434 334 -435q213 0 321 144l45 -41q-147 -186 -405 -187q-225 0 -359.5 138.5t-134.5 380.5q0 238 143.5 372.5t360.5 134.5 q61 0 129 -14q-27 92 -26 178q0 160 91 249t246 89q168 0 263 -98l165 119v-811q55 143 152.5 215.5t220.5 72.5q334 0 334 -354v-491z" glyph-name="c_h.dlig" horiz-adv-x="2410"/><glyph d="M2089 209q55 -90 100 -124t133 -56v-29h-534v29q111 20 133.5 54t-29.5 124l-211 332l-208 -166v-219q0 -59 32.5 -83t136.5 -42v-29h-528v29q111 18 144.5 41.5t33.5 83.5v976q0 150 -65.5 232t-184.5 82q-135 0 -207.5 -73t-72.5 -195q0 -104 31 -209 q96 -37 151 -104.5t55 -143.5q0 -39 -22.5 -65.5t-63.5 -26.5q-133 0 -163 276q-61 18 -136 19q-154 0 -235.5 -117t-81.5 -313q0 -434 334 -435q213 0 321 144l45 -41q-147 -186 -405 -187q-225 0 -359.5 138.5t-134.5 380.5q0 238 143.5 372.5t360.5 134.5q61 0 129 -14 q-29 102 -29 191q0 152 92.5 238.5t247.5 86.5q168 0 263 -98l168 139v-1081l434 344q131 104 -86 139v29h475v-29q-150 -37 -303 -158l-172 -137z" glyph-name="c_k.dlig" horiz-adv-x="2344"/><glyph d="M1470 154q0 -61 34 -84t143 -41v-29h-535v29q111 18 144.5 41.5t33.5 83.5v976q0 150 -64.5 232t-185.5 82q-131 0 -203.5 -75t-72.5 -193q0 -100 29 -209q96 -37 151 -103.5t55 -142.5q0 -39 -21.5 -66.5t-59.5 -27.5q-76 0 -118 80.5t-50 197.5q-66 16 -136 17 q-154 0 -235.5 -117t-81.5 -313q0 -434 334 -435q213 0 321 144l45 -41q-147 -186 -405 -187q-225 0 -359.5 138.5t-134.5 380.5q0 238 143.5 372.5t360.5 134.5q61 0 129 -14q-27 92 -26 191q0 145 93 235t244 90q166 0 261 -98l167 137v-1386z" glyph-name="c_l.dlig" horiz-adv-x="1714"/><glyph d="M1810 1001q186 0 320.5 -136t134.5 -377.5t-140 -377t-337 -135.5q-201 0 -313 144v-367q8 -43 53 -61.5t168 -36.5v-29h-584v29q113 18 146.5 40.5t33.5 84.5v991q0 55 -28.5 73.5t-139.5 35.5v28q276 53 277 252q0 117 -75 186.5t-198 69.5q-178 0 -272 -119.5 t-78 -324.5q102 -35 161.5 -103.5t59.5 -146.5q0 -41 -22.5 -67.5t-65.5 -26.5q-78 0 -124 82t-58 202q-53 12 -111 13q-156 0 -238.5 -117t-82.5 -315q0 -434 334 -435q213 0 321 144l45 -41q-147 -186 -405 -187q-225 0 -359.5 138.5t-134.5 380.5q0 238 143.5 372.5 t360.5 134.5q66 0 121 -12q-16 225 97.5 354t307.5 129q174 0 260.5 -95t86.5 -255v-286q122 167 335 167zM1761 55q141 0 223 117t82 315.5t-76.5 316.5t-209.5 118q-209 0 -305 -199v-477q79 -191 286 -191z" glyph-name="c_p.dlig" horiz-adv-x="2363"/><glyph d="M1901 207l36 -31q-127 -203 -350 -203q-150 0 -216 82t-62 248l8 596h-166v74h100q115 0 173.5 66.5t58.5 150.5q0 219 -260 219q-180 0 -303 -117.5t-123 -326.5q94 -37 148 -103.5t54 -140.5q0 -39 -22.5 -66.5t-65.5 -27.5q-82 0 -125 83t-45 197q-55 14 -127 15 q-154 0 -235.5 -117t-81.5 -313q0 -434 334 -435q213 0 321 144l45 -41q-147 -186 -405 -187q-225 0 -359.5 138.5t-134.5 380.5q0 238 143.5 372.5t360.5 134.5q70 0 139 -16q2 231 142.5 359t339.5 128q176 0 256 -81.5t80 -200.5q0 -133 -103 -215h410v-74h-375v-643 q0 -104 39 -149.5t115 -45.5q145 1 256 146z" glyph-name="c_t.dlig" horiz-adv-x="1951"/><glyph d="M2109 154q0 -61 34 -84t145 -41v-29h-531v29q104 18 137 41.5t33 83.5v475q0 264 -201 264q-96 0 -184 -66.5t-139 -228.5v-444q0 -59 32.5 -83t137.5 -42v-29h-529v29q111 18 145 41.5t34 83.5v976q0 313 -275 314q-133 0 -213 -80t-80 -201q0 -96 29 -200 q166 -70 166 -211q0 -37 -19.5 -60.5t-54.5 -23.5q-113 0 -131 231q-72 25 -164 25q-217 0 -217 -150q0 -68 55.5 -114t200.5 -78q199 -47 276.5 -124t77.5 -204q0 -141 -99 -211t-247 -70q-201 0 -321 121l-53 -94h-45v395h53q10 -152 94 -246t248 -94q92 0 156.5 42 t64.5 122q0 74 -56.5 118t-203.5 79q-190 43 -270 125t-80 202q0 117 88 186.5t274 69.5q76 0 146 -16q-27 88 -27 180q0 150 99.5 244t252.5 94q193 0 287 -98l168 137v-833q53 145 152.5 218.5t222.5 73.5q332 0 331 -354v-491z" glyph-name="s_h.dlig" horiz-adv-x="2342"/><glyph d="M2015 209q55 -90 100.5 -124t133.5 -56v-29h-533v29q111 20 133.5 54t-30.5 124l-209 332l-211 -168v-217q0 -59 32.5 -83t137.5 -42v-29h-529v29q111 18 145 41.5t34 83.5v979q0 150 -70 230.5t-203 80.5t-212 -79t-79 -200q0 -98 29 -202q166 -70 166 -211 q0 -37 -19.5 -60.5t-54.5 -23.5q-113 0 -131 231q-72 25 -164 25q-217 0 -217 -150q0 -68 55.5 -114t200.5 -78q199 -47 276.5 -124t77.5 -204q0 -141 -99 -211t-247 -70q-201 0 -321 121l-53 -94h-45v395h53q10 -152 94 -246t248 -94q92 0 156.5 42t64.5 122 q0 74 -56.5 118t-203.5 79q-190 43 -270 125t-80 202q0 117 88 186.5t274 69.5q76 0 146 -16q-27 88 -27 182q0 150 98.5 243t253.5 93q184 0 283 -98l168 139v-1083l436 346q127 104 -88 139v29h475v-29q-150 -37 -303 -158l-172 -137z" glyph-name="s_k.dlig" horiz-adv-x="2271"/><glyph d="M1399 154q0 -61 33.5 -84t142.5 -41v-29h-535v29q111 18 145 41.5t34 83.5v979q0 150 -69 230.5t-202 80.5q-135 0 -214 -79t-79 -200q0 -98 29 -202q166 -70 166 -211q0 -37 -19.5 -60.5t-54.5 -23.5q-109 0 -131 231q-72 25 -164 25q-217 0 -217 -150q0 -68 55.5 -114 t200.5 -78q199 -47 276.5 -124t77.5 -204q0 -141 -99 -211t-247 -70q-201 0 -321 121l-53 -94h-45v395h53q10 -152 94 -246t248 -94q92 0 156.5 42t64.5 122q0 74 -56.5 118t-203.5 79q-190 43 -270 125t-80 202q0 117 88 186.5t274 69.5q76 0 146 -16q-27 88 -27 182 q0 150 98.5 243t253.5 93q184 0 283 -98l168 137v-1386z" glyph-name="s_l.dlig" horiz-adv-x="1642"/><glyph d="M1729 1001q184 0 318 -137t134 -377q0 -242 -140 -377t-337 -135q-201 0 -313 144v-340q0 -59 43 -83t180 -42v-29h-586v29q113 18 146.5 40.5t33.5 84.5v991q0 55 -28.5 73.5t-139.5 35.5v28q143 10 210 79t67 169q0 123 -71.5 191.5t-192.5 68.5q-182 0 -276.5 -124 t-76.5 -337q150 -68 150 -200q0 -35 -20.5 -60.5t-59.5 -25.5q-57 0 -89 65.5t-34 163.5q-68 27 -166 27q-217 0 -217 -150q0 -70 55.5 -114t200.5 -78q199 -47 276.5 -124t77.5 -204q0 -141 -99 -211t-247 -70q-201 0 -321 121l-53 -94h-45v395h53q10 -152 94 -246t248 -94 q92 0 156.5 42t64.5 122q0 74 -56.5 118t-203.5 79q-190 43 -270 125t-80 202q0 117 87 186.5t269 69.5q94 0 172 -22q-14 231 98.5 362t311.5 131q172 0 255 -93t83 -253v-290q123 167 338 167zM1677 55q141 0 223 117t82 315.5t-75.5 316.5t-208.5 118q-215 0 -307 -203 v-473q79 -191 286 -191z" glyph-name="s_p.dlig" horiz-adv-x="2279"/><glyph d="M1806 207l37 -31q-127 -203 -350 -203q-150 0 -215.5 81t-65.5 249v596h-157v74h102q119 0 175.5 66.5t56.5 152.5q0 213 -250 213q-184 0 -306 -120t-126 -333q143 -70 143 -198q0 -35 -20.5 -60.5t-59.5 -25.5q-63 0 -93 64.5t-30 166.5q-74 23 -166 23 q-217 0 -217 -148q0 -70 55.5 -114t200.5 -78q199 -47 276.5 -124t77.5 -204q0 -141 -99 -211t-247 -70q-201 0 -321 121l-53 -94h-45v395h53q10 -152 94 -246t248 -94q92 0 156.5 42t64.5 122q0 74 -56.5 118t-203.5 79q-190 43 -270 125t-80 202q0 117 88 186.5t270 69.5 q102 0 176 -24q10 236 149.5 363.5t340.5 127.5q168 0 246.5 -79.5t78.5 -194.5q0 -135 -106 -219h414v-74h-377v-643q0 -195 155 -195q145 1 256 146z" glyph-name="s_t.dlig" horiz-adv-x="1857"/><glyph d="M1147 190q37 -90 66.5 -117.5t103.5 -43.5v-29h-539v29q139 18 173 50t-1 107l-78 189h-512l-71 -178q-29 -74 6 -110t174 -58v-29h-455v29q72 16 108 53t68 117l367 897h217zM391 453h449l-230 551z" glyph-name="A.aalt" horiz-adv-x="1331"/><glyph d="M848 1507l-199 -247l-12 8l96 305q16 66 51 90.5t74 7.5q39 -14 38 -64.5t-48 -99.5zM1147 190q37 -90 66.5 -117.5t103.5 -43.5v-29h-539v29q139 18 173 50t-1 107l-78 189h-512l-71 -178q-29 -74 6 -110t174 -58v-29h-455v29q72 16 108 53t68 117l367 897h217zM391 453 h449l-230 551z" glyph-name="Aacute.aalt" horiz-adv-x="1331"/><glyph d="M665.5 1288q-108.5 0 -168 80t-61.5 211h27q4 -76 58 -130t144.5 -54t144.5 54t58 130h25q-2 -131 -60.5 -211t-167 -80zM1147 190q37 -90 66.5 -117.5t103.5 -43.5v-29h-539v29q139 18 173 50t-1 107l-78 189h-512l-71 -178q-29 -74 6 -110t174 -58v-29h-455v29 q72 16 108 53t68 117l367 897h217zM391 453h449l-230 551z" glyph-name="Abreve.aalt" horiz-adv-x="1331"/><glyph d="M666 1493l-240 -211l-12 8l139 250q53 98 112.5 98t110.5 -98l142 -250l-13 -8zM1147 190q37 -90 66.5 -117.5t103.5 -43.5v-29h-539v29q139 18 173 50t-1 107l-78 189h-512l-71 -178q-29 -74 6 -110t174 -58v-29h-455v29q72 16 108 53t68 117l367 897h217zM391 453h449 l-230 551z" glyph-name="Acircumflex.aalt" horiz-adv-x="1331"/><glyph d="M453 1368q-45 0 -77 32t-32 77t32 76.5t77 31.5t76.5 -31.5t31.5 -76.5t-31.5 -77t-76.5 -32zM874 1368q-45 0 -76.5 32t-31.5 77t31.5 76.5t77 31.5t78 -31.5t32.5 -76.5t-32 -77t-79 -32zM1147 190q37 -90 66.5 -117.5t103.5 -43.5v-29h-539v29q139 18 173 50t-1 107 l-78 189h-512l-71 -178q-29 -74 6 -110t174 -58v-29h-455v29q72 16 108 53t68 117l367 897h217zM391 453h449l-230 551z" glyph-name="Adieresis.aalt" horiz-adv-x="1331"/><glyph d="M702 1260l-198 247q-47 49 -48 99.5t38 64.5q39 16 73.5 -8.5t50.5 -89.5l97 -305zM1147 190q37 -90 66.5 -117.5t103.5 -43.5v-29h-539v29q139 18 173 50t-1 107l-78 189h-512l-71 -178q-29 -74 6 -110t174 -58v-29h-455v29q72 16 108 53t68 117l367 897h217zM391 453 h449l-230 551z" glyph-name="Agrave.aalt" horiz-adv-x="1331"/><glyph d="M963 1534v-80h-594v80h594zM1147 190q37 -90 66.5 -117.5t103.5 -43.5v-29h-539v29q139 18 173 50t-1 107l-78 189h-512l-71 -178q-29 -74 6 -110t174 -58v-29h-455v29q72 16 108 53t68 117l367 897h217zM391 453h449l-230 551z" glyph-name="Amacron.aalt" horiz-adv-x="1331"/><glyph d="M1313 -279l10 -8q-72 -147 -238 -147q-68 0 -109.5 36t-41.5 107q0 94 80 172t203 119h-439v29q139 18 173 50t-1 107l-78 189h-512l-71 -178q-29 -74 6 -110t174 -58v-29h-455v29q72 16 108 53t68 117l367 897h217l373 -906q37 -90 66.5 -117.5t103.5 -43.5v-29 q-141 -55 -195.5 -128t-54.5 -138q0 -86 82 -86q101 -1 164 73zM391 453h449l-230 551z" glyph-name="Aogonek.aalt" horiz-adv-x="1331"/><glyph d="M666 1243q-96 0 -161 60.5t-65 156.5t64.5 157.5t161.5 61.5q94 0 158.5 -61.5t64.5 -157.5t-64.5 -156.5t-158.5 -60.5zM666 1614q-59 0 -104.5 -41t-45.5 -113q0 -70 45 -110.5t105 -40.5q61 0 105 41t44 110q0 72 -44 113t-105 41zM1147 190q37 -90 66.5 -117.5 t103.5 -43.5v-29h-539v29q139 18 173 50t-1 107l-78 189h-512l-71 -178q-29 -74 6 -110t174 -58v-29h-455v29q72 16 108 53t68 117l367 897h217zM391 453h449l-230 551z" glyph-name="Aring.aalt" horiz-adv-x="1331"/><glyph d="M504 1464q-55 0 -88 -26.5t-70 -83.5l-20 6q25 98 78 155.5t128 57.5q70 0 156 -52.5t135 -52.5q55 0 89 27t71 82l21 -6q-25 -92 -80.5 -151.5t-129 -59.5t-157.5 52t-133 52zM1147 190q37 -90 66.5 -117.5t103.5 -43.5v-29h-539v29q139 18 173 50t-1 107l-78 189h-512 l-71 -178q-29 -74 6 -110t174 -58v-29h-455v29q72 16 108 53t68 117l367 897h217zM391 453h449l-230 551z" glyph-name="Atilde.aalt" horiz-adv-x="1331"/><glyph d="M1755 391h31l-39 -391h-971v29q113 14 146.5 38.5t25.5 102.5l-18 207h-475l-121 -180q-51 -63 -22.5 -105.5t165.5 -62.5v-29h-463v29q72 16 120 55t97 115l598 897h904v-387h-31q-31 193 -95.5 250t-213.5 57h-326l37 -410h170q104 0 147 46t64 190h31v-553h-31 q-20 156 -66.5 196.5t-144.5 40.5h-162l41 -448h242q156 0 239.5 72.5t120.5 240.5zM504 453h418l-52 548z" glyph-name="AE.aalt" horiz-adv-x="1875"/><glyph d="M881 571q358 -27 358 -264q0 -307 -494 -307h-622v29q109 14 141.5 31.5t32.5 62.5v850q0 47 -33 63.5t-141 30.5v29h668q377 0 376 -250q0 -96 -69.5 -171t-216.5 -104zM715 1016h-230v-412h238q131 0 194.5 65.5t63.5 159.5q0 187 -266 187zM702 80q186 0 265.5 66.5 t79.5 168.5q0 90 -74 149.5t-244 59.5h-244v-444h217z" glyph-name="B.aalt" horiz-adv-x="1312"/><glyph d="M717 74q166 0 283.5 82t164.5 198l35 -8q-33 -143 -178 -256t-358 -113q-244 0 -405 157t-161 415q0 256 169 414.5t401 158.5q162 0 305 -69q66 -31 96.5 -23t60.5 70h25v-475h-35q-23 217 -132 314t-267 97q-197 0 -306.5 -137t-109.5 -348q0 -205 109.5 -341 t302.5 -136z" glyph-name="C.aalt" horiz-adv-x="1269"/><glyph d="M885 1671q39 -14 38 -64.5t-49 -99.5l-198 -247l-12 8l96 305q16 66 51 90t74 8zM717 74q166 0 283.5 82t164.5 198l35 -8q-33 -143 -178 -256t-358 -113q-244 0 -405 157t-161 415q0 256 169 414.5t401 158.5q162 0 305 -69q66 -31 96.5 -23t60.5 70h25v-475h-35 q-23 217 -132 314t-267 97q-197 0 -306.5 -137t-109.5 -348q0 -205 109.5 -341t302.5 -136z" glyph-name="Cacute.aalt" horiz-adv-x="1269"/><glyph d="M692.5 1282q-59.5 0 -112.5 98l-140 250l13 8l239 -211l240 211l12 -8l-141 -250q-51 -98 -110.5 -98zM1165 354l35 -8q-33 -143 -178 -256t-358 -113q-244 0 -405 157t-161 415q0 256 169 414.5t401 158.5q162 0 305 -69q66 -31 96.5 -23t60.5 70h25v-475h-35 q-23 217 -132 314t-267 97q-197 0 -306.5 -137t-109.5 -348q0 -205 109.5 -341t302.5 -136q166 0 283.5 81.5t164.5 198.5z" glyph-name="Ccaron.aalt" horiz-adv-x="1269"/><glyph d="M1200 346q-31 -133 -156.5 -240.5t-314.5 -123.5l-18 -109q264 18 264 -145q0 -72 -55.5 -115t-153.5 -43q-188 0 -285 151l15 19q88 -84 223 -84q123 0 123 74q0 84 -213 84l-2 18l26 145q-242 4 -398.5 160t-156.5 412t169 414.5t401 158.5q162 0 305 -69 q66 -31 96.5 -23t60.5 70h25v-475h-35q-23 217 -132 314t-267 97q-197 0 -306.5 -137t-109.5 -348q0 -205 109.5 -341t302.5 -136q166 0 283.5 82t164.5 198z" glyph-name="Ccedilla.aalt" horiz-adv-x="1269"/><glyph d="M694 1358q-49 0 -85 34.5t-36 84t36 84t85 34.5t84 -34.5t35 -83.5q0 -51 -35 -85t-84 -34zM717 74q166 0 283.5 82t164.5 198l35 -8q-33 -143 -178 -256t-358 -113q-244 0 -405 157t-161 415q0 256 169 414.5t401 158.5q162 0 305 -69q66 -31 96.5 -23t60.5 70h25v-475 h-35q-23 217 -132 314t-267 97q-197 0 -306.5 -137t-109.5 -348q0 -205 109.5 -341t302.5 -136z" glyph-name="Cdotaccent.aalt" horiz-adv-x="1269"/><glyph d="M680 1096q332 0 520.5 -135.5t188.5 -407.5q0 -279 -190.5 -416t-518.5 -137h-557v29q109 14 141.5 31.5t32.5 62.5v850q0 47 -33 63.5t-141 30.5v29h557zM670 80q254 0 383 122t129 351q0 225 -130 344t-382 119h-176v-936h176z" glyph-name="D.aalt" horiz-adv-x="1486"/><glyph d="M680 1096q332 0 520.5 -135.5t188.5 -407.5q0 -279 -190.5 -416t-518.5 -137h-557v29q109 14 141.5 31.5t32.5 62.5v409h-180v80h180v361q0 47 -33 63.5t-141 30.5v29h557zM670 80q254 0 383 122t129 351q0 225 -130 344t-382 119h-176v-404h424v-80h-424v-452h176z" glyph-name="Eth.aalt" horiz-adv-x="1486"/><glyph d="M758 1282q-59 0 -113 98l-139 250l12 8l240 -211l239 211l13 -8l-142 -250q-53 -98 -110 -98zM680 1096q332 0 520.5 -135.5t188.5 -407.5q0 -279 -190.5 -416t-518.5 -137h-557v29q109 14 141.5 31.5t32.5 62.5v850q0 47 -33 63.5t-141 30.5v29h557zM670 80 q254 0 383 122t129 351q0 225 -130 344t-382 119h-176v-936h176z" glyph-name="Dcaron.aalt" horiz-adv-x="1486"/><glyph d="M680 1096q332 0 520.5 -135.5t188.5 -407.5q0 -279 -190.5 -416t-518.5 -137h-557v29q109 14 141.5 31.5t32.5 62.5v409h-180v80h180v361q0 47 -33 63.5t-141 30.5v29h557zM670 80q254 0 383 122t129 351q0 225 -130 344t-382 119h-176v-404h424v-80h-424v-452h176z" glyph-name="Dcroat.aalt" horiz-adv-x="1486"/><glyph d="M1157 391h31l-39 -391h-1026v29q109 14 141.5 31.5t32.5 62.5v850q0 45 -33 62.5t-141 31.5v29h1014v-387h-31q-33 193 -97.5 250t-213.5 57h-301v-410h178q102 0 146 47t65 189h28v-553h-28q-20 154 -67.5 195.5t-143.5 41.5h-178v-448h303q156 0 240.5 72.5 t119.5 240.5z" glyph-name="E.aalt" horiz-adv-x="1277"/><glyph d="M831 1507l-198 -247l-12 8l96 305q16 66 51 90.5t74 7.5q39 -14 37.5 -64.5t-48.5 -99.5zM1157 391h31l-39 -391h-1026v29q109 14 141.5 31.5t32.5 62.5v850q0 45 -33 62.5t-141 31.5v29h1014v-387h-31q-33 193 -97.5 250t-213.5 57h-301v-410h178q102 0 146 47t65 189 h28v-553h-28q-20 154 -67.5 195.5t-143.5 41.5h-178v-448h303q156 0 240.5 72.5t119.5 240.5z" glyph-name="Eacute.aalt" horiz-adv-x="1277"/><glyph d="M649.5 1282q-59.5 0 -112.5 98l-140 250l13 8l239 -211l240 211l12 -8l-141 -250q-51 -98 -110.5 -98zM1157 391h31l-39 -391h-1026v29q109 14 141.5 31.5t32.5 62.5v850q0 45 -33 62.5t-141 31.5v29h1014v-387h-31q-33 193 -97.5 250t-213.5 57h-301v-410h178 q102 0 146 47t65 189h28v-553h-28q-20 154 -67.5 195.5t-143.5 41.5h-178v-448h303q156 0 240.5 72.5t119.5 240.5z" glyph-name="Ecaron.aalt" horiz-adv-x="1277"/><glyph d="M649 1493l-239 -211l-13 8l140 250q53 98 112.5 98t110.5 -98l141 -250l-12 -8zM1157 391h31l-39 -391h-1026v29q109 14 141.5 31.5t32.5 62.5v850q0 45 -33 62.5t-141 31.5v29h1014v-387h-31q-33 193 -97.5 250t-213.5 57h-301v-410h178q102 0 146 47t65 189h28v-553 h-28q-20 154 -67.5 195.5t-143.5 41.5h-178v-448h303q156 0 240.5 72.5t119.5 240.5z" glyph-name="Ecircumflex.aalt" horiz-adv-x="1277"/><glyph d="M438 1368q-45 0 -76.5 32t-31.5 77t31.5 76.5t76.5 31.5t77 -31.5t32 -76.5t-32 -77t-77 -32zM860 1368q-45 0 -76.5 32t-31.5 77t31.5 76.5t76.5 31.5t78 -31.5t33 -76.5t-32 -77t-79 -32zM1157 391h31l-39 -391h-1026v29q109 14 141.5 31.5t32.5 62.5v850 q0 45 -33 62.5t-141 31.5v29h1014v-387h-31q-33 193 -97.5 250t-213.5 57h-301v-410h178q102 0 146 47t65 189h28v-553h-28q-20 154 -67.5 195.5t-143.5 41.5h-178v-448h303q156 0 240.5 72.5t119.5 240.5z" glyph-name="Edieresis.aalt" horiz-adv-x="1277"/><glyph d="M649 1358q-49 0 -85 34.5t-36 84t36 84t85 34.5t84 -34.5t35 -83.5q0 -51 -35 -85t-84 -34zM1157 391h31l-39 -391h-1026v29q109 14 141.5 31.5t32.5 62.5v850q0 45 -33 62.5t-141 31.5v29h1014v-387h-31q-33 193 -97.5 250t-213.5 57h-301v-410h178q102 0 146 47t65 189 h28v-553h-28q-20 154 -67.5 195.5t-143.5 41.5h-178v-448h303q156 0 240.5 72.5t119.5 240.5z" glyph-name="Edotaccent.aalt" horiz-adv-x="1277"/><glyph d="M686 1260l-199 247q-47 49 -48 99.5t38 64.5q39 16 74 -8.5t51 -89.5l96 -305zM1157 391h31l-39 -391h-1026v29q109 14 141.5 31.5t32.5 62.5v850q0 45 -33 62.5t-141 31.5v29h1014v-387h-31q-33 193 -97.5 250t-213.5 57h-301v-410h178q102 0 146 47t65 189h28v-553h-28 q-20 154 -67.5 195.5t-143.5 41.5h-178v-448h303q156 0 240.5 72.5t119.5 240.5z" glyph-name="Egrave.aalt" horiz-adv-x="1277"/><glyph d="M946 1534v-80h-594v80h594zM1157 391h31l-39 -391h-1026v29q109 14 141.5 31.5t32.5 62.5v850q0 45 -33 62.5t-141 31.5v29h1014v-387h-31q-33 193 -97.5 250t-213.5 57h-301v-410h178q102 0 146 47t65 189h28v-553h-28q-20 154 -67.5 195.5t-143.5 41.5h-178v-448h303 q156 0 240.5 72.5t119.5 240.5z" glyph-name="Emacron.aalt" horiz-adv-x="1277"/><glyph d="M981 -352q100 0 164 73l10 -8q-72 -147 -237 -147q-68 0 -110 36t-42 107q0 94 80 172t203 119h-926v29q109 14 141.5 31.5t32.5 62.5v850q0 45 -33 62.5t-141 31.5v29h1014v-387h-31q-33 193 -97.5 250t-213.5 57h-301v-410h178q102 0 146 47t65 189h28v-553h-28 q-20 154 -67.5 195.5t-143.5 41.5h-178v-448h303q156 0 240.5 72.5t119.5 240.5h31l-39 -391q-141 -55 -195.5 -128t-54.5 -138q0 -86 82 -86z" glyph-name="Eogonek.aalt" horiz-adv-x="1277"/><glyph d="M1137 1096v-406h-31q-33 205 -98.5 265.5t-212.5 60.5h-301v-410h178q102 0 146 47t65 189h28v-553h-28q-20 154 -67.5 195.5t-143.5 41.5h-178v-393q0 -53 49 -71.5t211 -32.5v-29h-631v29q109 14 141.5 31.5t32.5 62.5v850q0 45 -33 62.5t-141 31.5v29h1014z" glyph-name="F.aalt" horiz-adv-x="1181"/><glyph d="M1354 555v-29q-92 -14 -119 -31.5t-27 -62.5v-432h-39q-20 49 -38.5 66.5t-49.5 17.5q-29 0 -89 -27.5t-150 -55.5t-193 -28q-238 0 -394.5 158t-156.5 418q0 258 173 415.5t413 157.5q127 0 301 -69q61 -27 91 -18t54 65h29v-418h-37q-29 182 -135 269t-264 87 q-197 0 -307.5 -140t-110.5 -349q0 -201 106.5 -338t288.5 -137q176 0 322 104v254q0 45 -40 62.5t-167 31.5v29h539z" glyph-name="G.aalt" horiz-adv-x="1415"/><glyph d="M714.5 1288q-108.5 0 -168 80t-61.5 211h27q4 -76 58.5 -130t144.5 -54t144 54t59 130h24q-2 -131 -60.5 -211t-167 -80zM1354 555v-29q-92 -14 -119 -31.5t-27 -62.5v-432h-39q-20 49 -38.5 66.5t-49.5 17.5q-29 0 -89 -27.5t-150 -55.5t-193 -28q-238 0 -394.5 158 t-156.5 418q0 258 173 415.5t413 157.5q127 0 301 -69q61 -27 91 -18t54 65h29v-418h-37q-29 182 -135 269t-264 87q-197 0 -307.5 -140t-110.5 -349q0 -201 106.5 -338t288.5 -137q176 0 322 104v254q0 45 -40 62.5t-167 31.5v29h539z" glyph-name="Gbreve.aalt" horiz-adv-x="1415"/><glyph d="M1354 555v-29q-92 -14 -119 -31.5t-27 -62.5v-432h-39q-20 49 -38.5 66.5t-49.5 17.5q-29 0 -89 -27.5t-150 -55.5t-193 -28q-238 0 -394.5 158t-156.5 418q0 258 173 415.5t413 157.5q127 0 301 -69q61 -27 91 -18t54 65h29v-418h-37q-29 182 -135 269t-264 87 q-197 0 -307.5 -140t-110.5 -349q0 -201 106.5 -338t288.5 -137q176 0 322 104v254q0 45 -40 62.5t-167 31.5v29h539zM715 -111q119 0 119 -151q0 -117 -72 -192.5t-195 -92.5l-8 29q174 53 189 211q-25 -8 -41 -8q-45 0 -71 28.5t-26 73.5q0 43 30 72.5t75 29.5z" glyph-name="Gcommaaccent.aalt" horiz-adv-x="1415"/><glyph d="M715 1358q-49 0 -85 34.5t-36 84t36 84t85 34.5t84 -34.5t35 -83.5q0 -51 -35 -85t-84 -34zM1354 555v-29q-92 -14 -119 -31.5t-27 -62.5v-432h-39q-20 49 -38.5 66.5t-49.5 17.5q-29 0 -89 -27.5t-150 -55.5t-193 -28q-238 0 -394.5 158t-156.5 418q0 258 173 415.5 t413 157.5q127 0 301 -69q61 -27 91 -18t54 65h29v-418h-37q-29 182 -135 269t-264 87q-197 0 -307.5 -140t-110.5 -349q0 -201 106.5 -338t288.5 -137q176 0 322 104v254q0 45 -40 62.5t-167 31.5v29h539z" glyph-name="Gdotaccent.aalt" horiz-adv-x="1415"/><glyph d="M1489 1067q-106 -12 -139 -30.5t-33 -63.5v-850q0 -43 29.5 -61.5t142.5 -32.5v-29h-543v29q111 14 141.5 31.5t30.5 62.5v418h-624v-418q0 -45 29.5 -62.5t142.5 -31.5v-29h-543v29q109 14 141.5 31.5t32.5 62.5v850q0 43 -29.5 62.5t-144.5 31.5v29h543v-29 q-109 -14 -140.5 -31.5t-31.5 -62.5v-352h624v352q0 45 -29.5 62.5t-142.5 31.5v29h543v-29z" glyph-name="H.aalt" horiz-adv-x="1611"/><glyph d="M1489 1067q-106 -12 -139 -30.5t-33 -63.5v-209h117v-72h-117v-569q0 -43 29.5 -61.5t142.5 -32.5v-29h-543v29q111 14 141.5 31.5t30.5 62.5v262h-624v-262q0 -45 29.5 -62.5t142.5 -31.5v-29h-543v29q109 14 141.5 31.5t32.5 62.5v569h-119v72h119v209q0 43 -29.5 62.5 t-144.5 31.5v29h543v-29q-109 -14 -140.5 -31.5t-31.5 -62.5v-209h624v209q0 45 -29.5 62.5t-142.5 31.5v29h543v-29zM1118 459v233h-624v-233h624z" glyph-name="Hbar.aalt" horiz-adv-x="1611"/><glyph d="M666 1067q-109 -12 -140.5 -30.5t-31.5 -63.5v-850q0 -45 32.5 -62.5t139.5 -31.5v-29h-543v29q109 14 141.5 31.5t32.5 62.5v850q0 43 -29.5 62.5t-144.5 31.5v29h543v-29z" glyph-name="I.aalt" horiz-adv-x="790"/><glyph d="M588 1671q39 -14 38 -64.5t-48 -99.5l-199 -247l-12 8l96 305q16 66 51 90t74 8zM666 1067q-109 -12 -140.5 -30.5t-31.5 -63.5v-850q0 -45 32.5 -62.5t139.5 -31.5v-29h-543v29q109 14 141.5 31.5t32.5 62.5v850q0 43 -29.5 62.5t-144.5 31.5v29h543v-29z" glyph-name="Iacute.aalt" horiz-adv-x="790"/><glyph d="M395 1493l-239 -211l-13 8l140 250q53 98 112.5 98t110.5 -98l141 -250l-12 -8zM666 1067q-109 -12 -140.5 -30.5t-31.5 -63.5v-850q0 -45 32.5 -62.5t139.5 -31.5v-29h-543v29q109 14 141.5 31.5t32.5 62.5v850q0 43 -29.5 62.5t-144.5 31.5v29h543v-29z" glyph-name="Icircumflex.aalt" horiz-adv-x="790"/><glyph d="M184 1368q-45 0 -76.5 32t-31.5 77t31.5 76.5t76.5 31.5t77 -31.5t32 -76.5t-32 -77t-77 -32zM606 1368q-45 0 -76.5 32t-31.5 77t31.5 76.5t76.5 31.5t78 -31.5t33 -76.5t-32 -77t-79 -32zM666 1067q-109 -12 -140.5 -30.5t-31.5 -63.5v-850q0 -45 32.5 -62.5 t139.5 -31.5v-29h-543v29q109 14 141.5 31.5t32.5 62.5v850q0 43 -29.5 62.5t-144.5 31.5v29h543v-29z" glyph-name="Idieresis.aalt" horiz-adv-x="790"/><glyph d="M223 1671q39 16 74 -8.5t51 -89.5l96 -305l-12 -8l-199 247q-47 49 -48 99.5t38 64.5zM666 1067q-109 -12 -140.5 -30.5t-31.5 -63.5v-850q0 -45 32.5 -62.5t139.5 -31.5v-29h-543v29q109 14 141.5 31.5t32.5 62.5v850q0 43 -29.5 62.5t-144.5 31.5v29h543v-29z" glyph-name="Igrave.aalt" horiz-adv-x="790"/><glyph d="M98 1534h594v-80h-594v80zM666 1067q-109 -12 -140.5 -30.5t-31.5 -63.5v-850q0 -45 32.5 -62.5t139.5 -31.5v-29h-543v29q109 14 141.5 31.5t32.5 62.5v850q0 43 -29.5 62.5t-144.5 31.5v29h543v-29z" glyph-name="Imacron.aalt" horiz-adv-x="790"/><glyph d="M686 -262l10 -8q-72 -147 -237 -148q-68 0 -110 36t-42 108q0 86 66.5 158.5t171.5 115.5h-422v29q109 14 141.5 31.5t32.5 62.5v850q0 43 -29.5 62.5t-144.5 31.5v29h543v-29q-109 -12 -140.5 -30.5t-31.5 -63.5v-850q0 -43 28.5 -60.5t120.5 -31.5l27 6l20 -21 q-4 -2 -12 -5t-12 -5v-6h-15q-211 -94 -211 -250q0 -86 82 -86q101 0 164 74z" glyph-name="Iogonek.aalt" horiz-adv-x="790"/><glyph d="M381 1096h561v-29q-100 -12 -129 -32.5t-29 -84.5v-506q0 -246 -124.5 -358.5t-325.5 -112.5q-166 0 -251 70t-85 147q0 43 26.5 69t67.5 26q63 0 109.5 -66.5t60.5 -171.5h4q150 0 236 73t86 257v573q0 59 -36 81t-171 36v29z" glyph-name="J.aalt" horiz-adv-x="1001"/><glyph d="M1231 164q45 -61 85 -90t120 -45v-29h-549v29q111 14 134 44.5t-22 86.5l-307 426l-198 -166v-297q0 -45 28.5 -62.5t134.5 -31.5v-29h-534v29q109 14 141.5 31.5t32.5 62.5v850q0 43 -30.5 62.5t-143.5 31.5v29h543v-29q-109 -14 -140.5 -31.5t-31.5 -62.5v-457l448 379 q172 143 -51 172v29h506v-29q-150 -20 -330 -170l-223 -186z" glyph-name="K.aalt" horiz-adv-x="1478"/><glyph d="M1231 164q45 -61 85 -90t120 -45v-29h-549v29q111 14 134 44.5t-22 86.5l-307 426l-198 -166v-297q0 -45 28.5 -62.5t134.5 -31.5v-29h-534v29q109 14 141.5 31.5t32.5 62.5v850q0 43 -30.5 62.5t-143.5 31.5v29h543v-29q-109 -14 -140.5 -31.5t-31.5 -62.5v-457l448 379 q172 143 -51 172v29h506v-29q-150 -20 -330 -170l-223 -186zM758 -111q119 0 119 -151q0 -117 -72 -192.5t-195 -92.5l-8 29q174 53 189 211q-25 -8 -41 -8q-45 0 -71 28.5t-26 73.5q0 43 30 72.5t75 29.5z" glyph-name="Kcommaaccent.aalt" horiz-adv-x="1478"/><glyph d="M1143 412h33l-48 -412h-1005v29q109 14 141.5 31.5t32.5 62.5v850q0 43 -29.5 62.5t-144.5 31.5v29h620v-29q-158 -12 -203.5 -30.5t-45.5 -71.5v-885h280q150 0 236 75t133 257z" glyph-name="L.aalt" horiz-adv-x="1232"/><glyph d="M592 1507l-199 -247l-12 8l96 305q16 66 51 90.5t74 7.5q39 -14 38 -64.5t-48 -99.5zM1143 412h33l-48 -412h-1005v29q109 14 141.5 31.5t32.5 62.5v850q0 43 -29.5 62.5t-144.5 31.5v29h620v-29q-158 -12 -203.5 -30.5t-45.5 -71.5v-885h280q150 0 236 75t133 257z" glyph-name="Lacute.aalt" horiz-adv-x="1232"/><glyph d="M1069 1026l-104 -360h-17l4 387q0 164 80 164q49 0 57.5 -55.5t-20.5 -135.5zM1143 412h33l-48 -412h-1005v29q109 14 141.5 31.5t32.5 62.5v850q0 43 -29.5 62.5t-144.5 31.5v29h620v-29q-158 -12 -203.5 -30.5t-45.5 -71.5v-885h280q150 0 236 75t133 257z" glyph-name="Lcaron.aalt" horiz-adv-x="1232"/><glyph d="M1143 412h33l-48 -412h-1005v29q109 14 141.5 31.5t32.5 62.5v850q0 43 -29.5 62.5t-144.5 31.5v29h620v-29q-158 -12 -203.5 -30.5t-45.5 -71.5v-885h280q150 0 236 75t133 257zM629 -111q119 0 119 -151q0 -117 -72 -192.5t-195 -92.5l-8 29q174 53 189 211 q-25 -8 -41 -8q-45 0 -71 28.5t-26 73.5q0 43 30 72.5t75 29.5z" glyph-name="Lcommaaccent.aalt" horiz-adv-x="1232"/><glyph d="M1143 412h33l-48 -412h-1005v29q109 14 141.5 31.5t32.5 62.5v340l-240 -70l-22 76l262 78v426q0 43 -29.5 62.5t-144.5 31.5v29h620v-29q-158 -12 -203.5 -30.5t-45.5 -71.5v-361l342 101l22 -76l-364 -107v-442h280q150 0 236 75t133 257z" glyph-name="Lslash.aalt" horiz-adv-x="1232"/><glyph d="M1919 1067q-113 -14 -143.5 -31.5t-30.5 -62.5v-795q0 -72 44 -102.5t130 -46.5v-29h-547v29q115 14 145.5 41.5t30.5 107.5v797l-534 -885h-82l-535 842v-727q0 -86 51.5 -123t159.5 -53v-29h-485v29q94 18 137 53t43 123v768q0 45 -30.5 62.5t-143.5 31.5v29h389 l512 -793l479 793h410v-29z" glyph-name="M.aalt" horiz-adv-x="2041"/><glyph d="M1006 1096h481v-29q-92 -14 -136 -50t-44 -116v-901h-183l-729 920v-725q0 -82 53.5 -116t155.5 -50v-29h-481v29q88 16 134 50t46 116v778q0 45 -30.5 62.5t-143.5 31.5v29h377l708 -899v704q0 84 -52 117t-156 49v29z" glyph-name="N.aalt" horiz-adv-x="1585"/><glyph d="M1018 1507l-199 -247l-12 8l96 305q16 66 51 90.5t74 7.5q39 -14 38 -64.5t-48 -99.5zM1006 1096h481v-29q-92 -14 -136 -50t-44 -116v-901h-183l-729 920v-725q0 -82 53.5 -116t155.5 -50v-29h-481v29q88 16 134 50t46 116v778q0 45 -30.5 62.5t-143.5 31.5v29h377 l708 -899v704q0 84 -52 117t-156 49v29z" glyph-name="Nacute.aalt" horiz-adv-x="1585"/><glyph d="M836 1282q-59 0 -113 98l-139 250l12 8l240 -211l239 211l12 -8l-141 -250q-53 -98 -110 -98zM1006 1096h481v-29q-92 -14 -136 -50t-44 -116v-901h-183l-729 920v-725q0 -82 53.5 -116t155.5 -50v-29h-481v29q88 16 134 50t46 116v778q0 45 -30.5 62.5t-143.5 31.5v29 h377l708 -899v704q0 84 -52 117t-156 49v29z" glyph-name="Ncaron.aalt" horiz-adv-x="1585"/><glyph d="M1006 1096h481v-29q-92 -14 -136 -50t-44 -116v-901h-183l-729 920v-725q0 -82 53.5 -116t155.5 -50v-29h-481v29q88 16 134 50t46 116v778q0 45 -30.5 62.5t-143.5 31.5v29h377l708 -899v704q0 84 -52 117t-156 49v29zM815 -111q119 0 119 -151q0 -117 -71.5 -192.5 t-194.5 -92.5l-9 29q174 53 189 211q-25 -8 -41 -8q-45 0 -70.5 28.5t-25.5 73.5q0 43 29.5 72.5t74.5 29.5z" glyph-name="Ncommaaccent.aalt" horiz-adv-x="1585"/><glyph d="M1016 1096h471v-29q-92 -14 -136 -50t-44 -116v-786q0 -262 -107.5 -389t-269.5 -127q-84 0 -131 29.5t-47 78.5q0 35 22.5 58.5t59.5 23.5q88 0 182 -123q143 53 190 232l-819 1032v-735q0 -82 53.5 -116t155.5 -50v-29h-473v29q88 16 134 50t46 116v778 q0 45 -30.5 62.5t-143.5 31.5v29h377l719 -912v717q0 84 -52.5 117t-156.5 49v29z" glyph-name="Eng.aalt" horiz-adv-x="1585"/><glyph d="M676 1464q-55 0 -88 -26.5t-70 -83.5l-20 6q25 98 78 155.5t129 57.5q70 0 154.5 -52.5t135.5 -52.5q55 0 89 27t71 82l21 -6q-25 -92 -80.5 -151.5t-129 -59.5t-157.5 52t-133 52zM1006 1096h481v-29q-92 -14 -136 -50t-44 -116v-901h-183l-729 920v-725 q0 -82 53.5 -116t155.5 -50v-29h-481v29q88 16 134 50t46 116v778q0 45 -30.5 62.5t-143.5 31.5v29h377l708 -899v704q0 84 -52 117t-156 49v29z" glyph-name="Ntilde.aalt" horiz-adv-x="1585"/><glyph d="M723 -23q-264 0 -444.5 154t-180.5 418t180.5 416.5t444.5 152.5q262 0 442.5 -152.5t180.5 -416.5t-180.5 -418t-442.5 -154zM723 61q186 0 301 136.5t115 351.5t-115 350t-301 135q-188 0 -303 -135t-115 -350q0 -213 116 -350.5t302 -137.5z" glyph-name="O.aalt" horiz-adv-x="1443"/><glyph d="M915 1671q39 -14 38 -64.5t-48 -99.5l-198 -247l-13 8l97 305q16 66 50.5 90t73.5 8zM723 -23q-264 0 -444.5 154t-180.5 418t180.5 416.5t444.5 152.5q262 0 442.5 -152.5t180.5 -416.5t-180.5 -418t-442.5 -154zM723 61q186 0 301 136.5t115 351.5t-115 350t-301 135 q-188 0 -303 -135t-115 -350q0 -213 116 -350.5t302 -137.5z" glyph-name="Oacute.aalt" horiz-adv-x="1443"/><glyph d="M721 1493l-240 -211l-12 8l139 250q53 98 113 98q57 0 110 -98l142 -250l-12 -8zM723 1118q262 0 442.5 -152.5t180.5 -416.5t-180.5 -418t-442.5 -154q-264 0 -444.5 154t-180.5 418t180.5 416.5t444.5 152.5zM723 61q186 0 301 136.5t115 351.5t-115 350t-301 135 q-188 0 -303 -135t-115 -350q0 -213 116 -350.5t302 -137.5z" glyph-name="Ocircumflex.aalt" horiz-adv-x="1443"/><glyph d="M510 1368q-45 0 -77 32t-32 77t32 76.5t77 31.5t76.5 -31.5t31.5 -76.5t-31.5 -77t-76.5 -32zM932 1368q-45 0 -77 32t-32 77t32 76.5t77 31.5t77.5 -31.5t32.5 -76.5t-31.5 -77t-78.5 -32zM723 -23q-264 0 -444.5 154t-180.5 418t180.5 416.5t444.5 152.5 q262 0 442.5 -152.5t180.5 -416.5t-180.5 -418t-442.5 -154zM723 61q186 0 301 136.5t115 351.5t-115 350t-301 135q-188 0 -303 -135t-115 -350q0 -213 116 -350.5t302 -137.5z" glyph-name="Odieresis.aalt" horiz-adv-x="1443"/><glyph d="M551 1671q39 16 73.5 -8.5t51.5 -89.5l96 -305l-12 -8l-199 247q-47 49 -48 99.5t38 64.5zM723 -23q-264 0 -444.5 154t-180.5 418t180.5 416.5t444.5 152.5q262 0 442.5 -152.5t180.5 -416.5t-180.5 -418t-442.5 -154zM723 61q186 0 301 136.5t115 351.5t-115 350 t-301 135q-188 0 -303 -135t-115 -350q0 -213 116 -350.5t302 -137.5z" glyph-name="Ograve.aalt" horiz-adv-x="1443"/><glyph d="M608 1262l-14 2l4 290q-6 143 86 140q45 -2 57.5 -48.5t-22.5 -115.5zM846 1262l-12 8l129 274q55 125 133 80q39 -18 29.5 -66.5t-62.5 -93.5zM723 -23q-264 0 -444.5 154t-180.5 418t180.5 416.5t444.5 152.5q262 0 442.5 -152.5t180.5 -416.5t-180.5 -418t-442.5 -154 zM723 61q186 0 301 136.5t115 351.5t-115 350t-301 135q-188 0 -303 -135t-115 -350q0 -213 116 -350.5t302 -137.5z" glyph-name="Ohungarumlaut.aalt" horiz-adv-x="1443"/><glyph d="M426 1534h594v-80h-594v80zM723 -23q-264 0 -444.5 154t-180.5 418t180.5 416.5t444.5 152.5q262 0 442.5 -152.5t180.5 -416.5t-180.5 -418t-442.5 -154zM723 61q186 0 301 136.5t115 351.5t-115 350t-301 135q-188 0 -303 -135t-115 -350q0 -213 116 -350.5t302 -137.5 z" glyph-name="Omacron.aalt" horiz-adv-x="1443"/><glyph d="M1202 930q143 -150 144 -381q0 -264 -180.5 -418t-442.5 -154q-233 0 -401 121l-156 -147l-64 69l148 140q-152 152 -152 389q0 264 180.5 416.5t444.5 152.5q242 0 410 -127l133 125l63 -67zM305 549q0 -158 66 -277l659 621q-115 141 -307 141q-188 0 -303 -135 t-115 -350zM723 61q186 0 301 136.5t115 351.5q0 150 -58 264l-657 -618q113 -134 299 -134z" glyph-name="Oslash.aalt" horiz-adv-x="1443"/><glyph d="M403 1354l-20 6q25 98 78 155.5t129 57.5q70 0 155.5 -52.5t135.5 -52.5q55 0 89 27t70 82l21 -6q-25 -92 -80 -151.5t-129 -59.5t-158 52t-133 52q-55 0 -88 -26.5t-70 -83.5zM723 -23q-264 0 -444.5 154t-180.5 418t180.5 416.5t444.5 152.5q262 0 442.5 -152.5 t180.5 -416.5t-180.5 -418t-442.5 -154zM723 61q186 0 301 136.5t115 351.5t-115 350t-301 135q-188 0 -303 -135t-115 -350q0 -213 116 -350.5t302 -137.5z" glyph-name="Otilde.aalt" horiz-adv-x="1443"/><glyph d="M1839 391h31l-39 -391h-1065q-295 0 -481.5 144.5t-186.5 404.5q0 258 186.5 402.5t481.5 144.5h1051v-387h-31q-31 193 -96.5 250t-214.5 57h-301v-410h178q104 0 147 47t64 189h30v-553h-30q-20 154 -67.5 195.5t-143.5 41.5h-178v-448h305q156 0 239.5 72.5 t120.5 240.5zM766 78h211v938h-211q-217 0 -339 -129t-122 -338q0 -211 122 -341t339 -130z" glyph-name="OE.aalt" horiz-adv-x="1959"/><glyph d="M762 1096q424 0 424 -312q0 -160 -111.5 -245.5t-326.5 -85.5h-259v-314q0 -57 43 -76.5t187 -33.5v-29h-596v29q109 14 141.5 31.5t32.5 62.5v850q0 47 -33 63.5t-141 30.5v29h639zM690 532q158 0 229.5 68t71.5 178q0 238 -301 238h-201v-484h201z" glyph-name="P.aalt" horiz-adv-x="1216"/><glyph d="M760 879q426 0 426 -310q0 -156 -108.5 -240.5t-319.5 -84.5h-269v-105q0 -57 43 -76.5t187 -33.5v-29h-596v29q109 14 141.5 31.5t32.5 62.5v850q0 47 -33 63.5t-141 30.5v29h539v-29q-106 -14 -139.5 -30.5t-33.5 -63.5v-94h271zM690 324q158 0 230.5 68.5t72.5 176.5 q0 229 -303 230h-201v-475h201z" glyph-name="Thorn.aalt" horiz-adv-x="1216"/><glyph d="M979 -242q164 0 250 121l33 -12q-88 -248 -304 -248q-121 0 -277.5 69.5t-242.5 69.5q-76 0 -151 -28l-27 47l293 219q-203 47 -329 191.5t-126 361.5q0 264 180.5 416.5t444.5 152.5q262 0 442.5 -152.5t180.5 -416.5t-180.5 -418t-442.5 -154q-29 0 -82 5l-192 -146 q115 14 287.5 -32t242.5 -46zM305 549q0 -213 116 -350.5t302 -137.5t301 136.5t115 351.5t-115 350t-301 135q-188 0 -303 -135t-115 -350z" glyph-name="Q.aalt" horiz-adv-x="1423"/><glyph d="M1317 203l24 -13q-25 -104 -85 -158.5t-146 -54.5q-98 0 -150.5 61.5t-80.5 217.5q-14 78 -45 133t-62 83t-78 42t-74.5 16t-74.5 2h-60v-393q0 -57 35 -76.5t146 -33.5v-29h-543v29q109 14 141.5 31.5t32.5 62.5v850q0 47 -33 63.5t-141 30.5v29h653q377 0 377 -265 q0 -121 -103.5 -198.5t-283.5 -79.5q115 -18 188.5 -77.5t102.5 -182.5q31 -131 53.5 -173t71.5 -42q78 0 135 125zM485 608h162q154 0 234 62.5t80 156.5q0 188 -267 189h-209v-408z" glyph-name="R.aalt" horiz-adv-x="1329"/><glyph d="M854 1507l-199 -247l-12 8l96 305q16 66 51 90.5t74 7.5q39 -14 38 -64.5t-48 -99.5zM1317 203l24 -13q-25 -104 -85 -158.5t-146 -54.5q-98 0 -150.5 61.5t-80.5 217.5q-14 78 -45 133t-62 83t-78 42t-74.5 16t-74.5 2h-60v-393q0 -57 35 -76.5t146 -33.5v-29h-543v29 q109 14 141.5 31.5t32.5 62.5v850q0 47 -33 63.5t-141 30.5v29h653q377 0 377 -265q0 -121 -103.5 -198.5t-283.5 -79.5q115 -18 188.5 -77.5t102.5 -182.5q31 -131 53.5 -173t71.5 -42q78 0 135 125zM485 608h162q154 0 234 62.5t80 156.5q0 188 -267 189h-209v-408z" glyph-name="Racute.aalt" horiz-adv-x="1329"/><glyph d="M672 1282q-59 0 -113 98l-139 250l12 8l240 -211l239 211l13 -8l-142 -250q-53 -98 -110 -98zM1317 203l24 -13q-25 -104 -85 -158.5t-146 -54.5q-98 0 -150.5 61.5t-80.5 217.5q-14 78 -45 133t-62 83t-78 42t-74.5 16t-74.5 2h-60v-393q0 -57 35 -76.5t146 -33.5v-29 h-543v29q109 14 141.5 31.5t32.5 62.5v850q0 47 -33 63.5t-141 30.5v29h653q377 0 377 -265q0 -121 -103.5 -198.5t-283.5 -79.5q115 -18 188.5 -77.5t102.5 -182.5q31 -131 53.5 -173t71.5 -42q78 0 135 125zM485 608h162q154 0 234 62.5t80 156.5q0 188 -267 189h-209 v-408z" glyph-name="Rcaron.aalt" horiz-adv-x="1329"/><glyph d="M1317 203l24 -13q-25 -104 -85 -158.5t-146 -54.5q-98 0 -150.5 61.5t-80.5 217.5q-14 78 -45 133t-62 83t-78 42t-74.5 16t-74.5 2h-60v-393q0 -57 35 -76.5t146 -33.5v-29h-543v29q109 14 141.5 31.5t32.5 62.5v850q0 47 -33 63.5t-141 30.5v29h653q377 0 377 -265 q0 -121 -103.5 -198.5t-283.5 -79.5q115 -18 188.5 -77.5t102.5 -182.5q31 -131 53.5 -173t71.5 -42q78 0 135 125zM485 608h162q154 0 234 62.5t80 156.5q0 188 -267 189h-209v-408zM672 -111q119 0 119 -151q0 -117 -72 -192.5t-195 -92.5l-8 29q174 53 189 211 q-25 -8 -41 -8q-45 0 -71 28.5t-26 73.5q0 43 30 72.5t75 29.5z" glyph-name="Rcommaaccent.aalt" horiz-adv-x="1329"/><glyph d="M838 246q0 92 -76 143t-250 84q-188 37 -286.5 121t-98.5 240q0 129 95 208.5t247 79.5q150 0 293 -71q70 -31 95.5 -23t45.5 70h25v-418h-31q-23 190 -132.5 276t-266.5 86q-104 0 -158.5 -49t-54.5 -125q0 -94 68.5 -143t211.5 -78q215 -39 321.5 -120t106.5 -234 q0 -150 -110.5 -235t-266.5 -85q-76 0 -139 12.5t-100 27t-90 42.5q-66 25 -87.5 13.5t-47.5 -68.5h-25v420h31q23 -188 138.5 -275.5t260.5 -87.5q135 0 208 50.5t73 138.5z" glyph-name="S.aalt" horiz-adv-x="1122"/><glyph d="M739 1671q39 -14 38 -64.5t-48 -99.5l-199 -247l-12 8l96 305q16 66 51 90t74 8zM838 246q0 92 -76 143t-250 84q-188 37 -286.5 121t-98.5 240q0 129 95 208.5t247 79.5q150 0 293 -71q70 -31 95.5 -23t45.5 70h25v-418h-31q-23 190 -132.5 276t-266.5 86 q-104 0 -158.5 -49t-54.5 -125q0 -94 68.5 -143t211.5 -78q215 -39 321.5 -120t106.5 -234q0 -150 -110.5 -235t-266.5 -85q-76 0 -139 12.5t-100 27t-90 42.5q-66 25 -87.5 13.5t-47.5 -68.5h-25v420h31q23 -188 138.5 -275.5t260.5 -87.5q135 0 208 50.5t73 138.5z" glyph-name="Sacute.aalt" horiz-adv-x="1122"/><glyph d="M546.5 1282q-59.5 0 -112.5 98l-139 250l12 8l240 -211l239 211l13 -8l-142 -250q-51 -98 -110.5 -98zM565 647q215 -39 321.5 -120t106.5 -234q0 -150 -110.5 -235t-266.5 -85q-76 0 -139 12.5t-100 27t-90 42.5q-66 25 -87.5 13.5t-47.5 -68.5h-25v420h31 q23 -188 138.5 -275.5t260.5 -87.5q135 0 208 50.5t73 138.5q0 92 -76 143t-250 84q-188 37 -286.5 121t-98.5 240q0 129 95 208.5t247 79.5q150 0 293 -71q70 -31 95.5 -23t45.5 70h25v-418h-31q-23 190 -132.5 276t-266.5 86q-104 0 -158.5 -49t-54.5 -125 q0 -94 68.5 -143t211.5 -78z" glyph-name="Scaron.aalt" horiz-adv-x="1122"/><glyph d="M616 -27h-38l-19 -100q264 18 264 -145q0 -72 -55 -115t-154 -43q-188 0 -284 151l14 19q88 -84 223 -84q123 0 123 74q0 84 -213 84l-2 18l27 150q-98 14 -215 73q-66 25 -87.5 13.5t-47.5 -68.5h-25v420h31q23 -188 138.5 -275.5t260.5 -87.5q135 0 208 50.5t73 138.5 q0 92 -76 143t-250 84q-188 37 -286.5 121t-98.5 240q0 129 95 208.5t247 79.5q150 0 293 -71q70 -31 95.5 -23t45.5 70h25v-418h-31q-23 190 -132.5 276t-266.5 86q-104 0 -158.5 -49t-54.5 -125q0 -94 68.5 -143t211.5 -78q215 -39 321.5 -120t106.5 -234 q0 -150 -110.5 -235t-266.5 -85z" glyph-name="Scedilla.c2sc" horiz-adv-x="1122"/><glyph d="M565 647q215 -39 321.5 -120t106.5 -234q0 -150 -110.5 -235t-266.5 -85q-76 0 -139 12.5t-100 27t-90 42.5q-66 25 -87.5 13.5t-47.5 -68.5h-25v420h31q23 -188 138.5 -275.5t260.5 -87.5q135 0 208 50.5t73 138.5q0 92 -76 143t-250 84q-188 37 -286.5 121t-98.5 240 q0 129 95 208.5t247 79.5q150 0 293 -71q70 -31 95.5 -23t45.5 70h25v-418h-31q-23 190 -132.5 276t-266.5 86q-104 0 -158.5 -49t-54.5 -125q0 -94 68.5 -143t211.5 -78zM547 -111q119 0 119 -151q0 -117 -72 -192.5t-195 -92.5l-8 29q174 53 189 211q-25 -8 -41 -8 q-45 0 -71 28.5t-26 73.5q0 43 30 72.5t75 29.5z" glyph-name="Scommaaccent.aalt" horiz-adv-x="1122"/><glyph d="M907 606q434 -37 434 -325q0 -154 -105.5 -229t-272.5 -75q-152 0 -242 48.5t-90 121.5q0 37 22.5 61.5t59.5 24.5q53 0 93 -46t77 -134q12 -2 37 -2q104 0 165.5 59.5t61.5 165.5q0 139 -105.5 202t-314.5 65v55l295 418h-530v-1016h-369v29q109 14 141.5 31.5 t32.5 62.5v850q0 45 -29.5 62.5t-144.5 31.5v29h1094v-64z" glyph-name="uni1E9E.aalt" horiz-adv-x="1404"/><glyph d="M1098 1096v-404h-31q-14 109 -37.5 174.5t-62.5 98t-79 42t-108 9.5h-104v-893q0 -45 38 -62.5t163 -31.5v-29h-601v29q125 14 163 30.5t38 63.5v893h-104q-135 0 -195.5 -59.5t-91.5 -264.5h-31v404h1043z" glyph-name="T.aalt" horiz-adv-x="1153"/><glyph d="M1098 1096v-404h-31q-14 109 -37.5 174.5t-62.5 98t-79 42t-108 9.5h-104v-510h301v-78h-301v-305q0 -45 38 -62.5t163 -31.5v-29h-601v29q125 14 163 30.5t38 63.5v305h-301v78h301v510h-104q-135 0 -195.5 -59.5t-91.5 -264.5h-31v404h1043z" glyph-name="Tbar.aalt" horiz-adv-x="1153"/><glyph d="M575.5 1282q-59.5 0 -112.5 98l-139 250l12 8l239 -211l240 211l12 -8l-141 -250q-51 -98 -110.5 -98zM1098 1096v-404h-31q-14 109 -37.5 174.5t-62.5 98t-79 42t-108 9.5h-104v-893q0 -45 38 -62.5t163 -31.5v-29h-601v29q125 14 163 30.5t38 63.5v893h-104 q-135 0 -195.5 -59.5t-91.5 -264.5h-31v404h1043z" glyph-name="Tcaron.aalt" horiz-adv-x="1153"/><glyph d="M1098 1096v-404h-31q-14 109 -37.5 174.5t-62.5 98t-79 42t-108 9.5h-104v-893q0 -45 38 -62.5t163 -31.5v-29h-265l-22 -127q264 18 264 -145q0 -72 -55.5 -115t-153.5 -43q-188 0 -285 151l15 19q88 -84 223 -84q123 0 123 74q0 84 -213 84l-2 18l31 168h-261v29 q125 14 163 30.5t38 63.5v893h-104q-135 0 -195.5 -59.5t-91.5 -264.5h-31v404h1043z" glyph-name="Tcommaaccent.c2sc" horiz-adv-x="1153"/><glyph d="M1098 1096v-404h-31q-14 109 -37.5 174.5t-62.5 98t-79 42t-108 9.5h-104v-893q0 -45 38 -62.5t163 -31.5v-29h-601v29q125 14 163 30.5t38 63.5v893h-104q-135 0 -195.5 -59.5t-91.5 -264.5h-31v404h1043zM578 -111q119 0 118 -151q0 -117 -71.5 -192.5t-194.5 -92.5 l-8 29q174 53 188 211q-25 -8 -41 -8q-45 0 -70.5 28.5t-25.5 73.5q0 43 30 72.5t75 29.5z" glyph-name="uni021A.aalt" horiz-adv-x="1153"/><glyph d="M217 510v463q0 45 -29.5 62.5t-128.5 31.5v29h508v-29q-106 -14 -135 -32.5t-29 -61.5v-514q0 -401 316 -402q313 0 313 402v514q0 45 -30.5 63.5t-141.5 30.5v29h516v-29q-102 -14 -130.5 -31.5t-28.5 -62.5v-463q0 -274 -133.5 -405.5t-365 -131.5t-366.5 131.5 t-135 405.5z" glyph-name="U.aalt" horiz-adv-x="1435"/><glyph d="M909 1671q39 -14 38 -64.5t-48 -99.5l-199 -247l-12 8l96 305q16 66 51 90t74 8zM217 510v463q0 45 -29.5 62.5t-128.5 31.5v29h508v-29q-106 -14 -135 -32.5t-29 -61.5v-514q0 -401 316 -402q313 0 313 402v514q0 45 -30.5 63.5t-141.5 30.5v29h516v-29 q-102 -14 -130.5 -31.5t-28.5 -62.5v-463q0 -274 -133.5 -405.5t-365 -131.5t-366.5 131.5t-135 405.5z" glyph-name="Uacute.aalt" horiz-adv-x="1435"/><glyph d="M717 1493l-240 -211l-12 8l139 250q53 98 113 98q57 0 110 -98l142 -250l-13 -8zM860 1096h516v-29q-102 -14 -130.5 -31.5t-28.5 -62.5v-463q0 -274 -133.5 -405.5t-365 -131.5t-366.5 131.5t-135 405.5v463q0 45 -29.5 62.5t-128.5 31.5v29h508v-29 q-106 -14 -135 -32.5t-29 -61.5v-514q0 -401 316 -402q313 0 313 402v514q0 45 -30.5 63.5t-141.5 30.5v29z" glyph-name="Ucircumflex.aalt" horiz-adv-x="1435"/><glyph d="M506 1368q-45 0 -77 32t-32 77t32 76.5t77 31.5t76.5 -31.5t31.5 -76.5t-31.5 -77t-76.5 -32zM928 1368q-45 0 -77 32t-32 77t32 76.5t77 31.5t77.5 -31.5t32.5 -76.5t-31.5 -77t-78.5 -32zM217 510v463q0 45 -29.5 62.5t-128.5 31.5v29h508v-29q-106 -14 -135 -32.5 t-29 -61.5v-514q0 -401 316 -402q313 0 313 402v514q0 45 -30.5 63.5t-141.5 30.5v29h516v-29q-102 -14 -130.5 -31.5t-28.5 -62.5v-463q0 -274 -133.5 -405.5t-365 -131.5t-366.5 131.5t-135 405.5z" glyph-name="Udieresis.aalt" horiz-adv-x="1435"/><glyph d="M545 1671q39 16 73.5 -8.5t51.5 -89.5l96 -305l-12 -8l-199 247q-47 49 -48 99.5t38 64.5zM217 510v463q0 45 -29.5 62.5t-128.5 31.5v29h508v-29q-106 -14 -135 -32.5t-29 -61.5v-514q0 -401 316 -402q313 0 313 402v514q0 45 -30.5 63.5t-141.5 30.5v29h516v-29 q-102 -14 -130.5 -31.5t-28.5 -62.5v-463q0 -274 -133.5 -405.5t-365 -131.5t-366.5 131.5t-135 405.5z" glyph-name="Ugrave.aalt" horiz-adv-x="1435"/><glyph d="M604 1262l-14 2l4 290q-6 143 86 140q45 -2 57.5 -48.5t-22.5 -115.5zM842 1262l-13 8l129 274q55 125 134 80q39 -18 29.5 -66.5t-62.5 -93.5zM217 510v463q0 45 -29.5 62.5t-128.5 31.5v29h508v-29q-106 -14 -135 -32.5t-29 -61.5v-514q0 -401 316 -402q313 0 313 402 v514q0 45 -30.5 63.5t-141.5 30.5v29h516v-29q-102 -14 -130.5 -31.5t-28.5 -62.5v-463q0 -274 -133.5 -405.5t-365 -131.5t-366.5 131.5t-135 405.5z" glyph-name="Uhungarumlaut.aalt" horiz-adv-x="1435"/><glyph d="M420 1534h594v-80h-594v80zM217 510v463q0 45 -29.5 62.5t-128.5 31.5v29h508v-29q-106 -14 -135 -32.5t-29 -61.5v-514q0 -401 316 -402q313 0 313 402v514q0 45 -30.5 63.5t-141.5 30.5v29h516v-29q-102 -14 -130.5 -31.5t-28.5 -62.5v-463q0 -274 -133.5 -405.5 t-365 -131.5t-366.5 131.5t-135 405.5z" glyph-name="Umacron.aalt" horiz-adv-x="1435"/><glyph d="M860 1096h516v-29q-102 -14 -130.5 -31.5t-28.5 -62.5v-463q0 -455 -371 -526q-231 -94 -232 -258q0 -86 82 -86q100 0 164 73l10 -8q-72 -147 -237 -147q-68 0 -110 35.5t-42 107.5q0 84 64.5 156.5t169.5 115.5q-231 2 -364.5 132.5t-133.5 404.5v463q0 45 -29.5 62.5 t-128.5 31.5v29h508v-29q-106 -14 -135 -32.5t-29 -61.5v-514q0 -401 316 -402q313 0 313 402v514q0 45 -30.5 63.5t-141.5 30.5v29z" glyph-name="Uogonek.aalt" horiz-adv-x="1435"/><glyph d="M717 1243q-96 0 -160.5 60.5t-64.5 156.5t64.5 157.5t160.5 61.5q94 0 158.5 -61.5t64.5 -157.5t-64.5 -156.5t-158.5 -60.5zM717 1309q61 0 105 41t44 110q0 72 -44 113t-105 41q-59 0 -104.5 -41t-45.5 -113q0 -70 45.5 -110.5t104.5 -40.5zM217 510v463 q0 45 -29.5 62.5t-128.5 31.5v29h508v-29q-106 -14 -135 -32.5t-29 -61.5v-514q0 -401 316 -402q313 0 313 402v514q0 45 -30.5 63.5t-141.5 30.5v29h516v-29q-102 -14 -130.5 -31.5t-28.5 -62.5v-463q0 -274 -133.5 -405.5t-365 -131.5t-366.5 131.5t-135 405.5z" glyph-name="Uring.aalt" horiz-adv-x="1435"/><glyph d="M922 1096h444v-29q-74 -14 -105.5 -45t-66.5 -107l-393 -915h-217l-394 905q-37 84 -65.5 115t-104.5 47v29h539v-29q-139 -18 -173 -50t3 -108l359 -819l333 791q39 92 5.5 130t-164.5 56v29z" glyph-name="V.aalt" horiz-adv-x="1386"/><glyph d="M1655 1096h442v-29q-76 -16 -108.5 -48t-63.5 -104l-393 -915h-158l-319 897l-312 -897h-159l-394 905q-37 84 -65.5 115t-104.5 47v29h539v-29q-139 -18 -173 -50t3 -108l324 -735l252 735q25 74 -4 107t-160 51v29h610v-29q-131 -18 -160.5 -51t0.5 -107l260 -737 l306 715q41 84 8 122t-170 58v29z" glyph-name="w.aalt" horiz-adv-x="2117"/><glyph d="M1241 1507l-199 -247l-12 8l96 305q16 66 51 90.5t74 7.5q39 -14 38 -64.5t-48 -99.5zM1655 1096h442v-29q-76 -16 -108.5 -48t-63.5 -104l-393 -915h-158l-319 897l-312 -897h-159l-394 905q-37 84 -65.5 115t-104.5 47v29h539v-29q-139 -18 -173 -50t3 -108l324 -735 l252 735q25 74 -4 107t-160 51v29h610v-29q-131 -18 -160.5 -51t0.5 -107l260 -737l306 715q41 84 8 122t-170 58v29z" glyph-name="Wacute.aalt" horiz-adv-x="2117"/><glyph d="M1059 1493l-240 -211l-12 8l139 250q53 98 112.5 98t110.5 -98l142 -250l-13 -8zM1655 1096h442v-29q-76 -16 -108.5 -48t-63.5 -104l-393 -915h-158l-319 897l-312 -897h-159l-394 905q-37 84 -65.5 115t-104.5 47v29h539v-29q-139 -18 -173 -50t3 -108l324 -735 l252 735q25 74 -4 107t-160 51v29h610v-29q-131 -18 -160.5 -51t0.5 -107l260 -737l306 715q41 84 8 122t-170 58v29z" glyph-name="Wcircumflex.aalt" horiz-adv-x="2117"/><glyph d="M848 1368q-45 0 -77 32t-32 77t32 76.5t77 31.5t76.5 -31.5t31.5 -76.5t-31.5 -77t-76.5 -32zM1270 1368q-45 0 -77 32t-32 77t32 76.5t77 31.5t77.5 -31.5t32.5 -76.5t-31.5 -77t-78.5 -32zM1655 1096h442v-29q-76 -16 -108.5 -48t-63.5 -104l-393 -915h-158l-319 897 l-312 -897h-159l-394 905q-37 84 -65.5 115t-104.5 47v29h539v-29q-139 -18 -173 -50t3 -108l324 -735l252 735q25 74 -4 107t-160 51v29h610v-29q-131 -18 -160.5 -51t0.5 -107l260 -737l306 715q41 84 8 122t-170 58v29z" glyph-name="Wdieresis.aalt" horiz-adv-x="2117"/><glyph d="M1096 1260l-199 247q-47 49 -48 99.5t38 64.5q39 16 73.5 -8.5t51.5 -89.5l96 -305zM1655 1096h442v-29q-76 -16 -108.5 -48t-63.5 -104l-393 -915h-158l-319 897l-312 -897h-159l-394 905q-37 84 -65.5 115t-104.5 47v29h539v-29q-139 -18 -173 -50t3 -108l324 -735 l252 735q25 74 -4 107t-160 51v29h610v-29q-131 -18 -160.5 -51t0.5 -107l260 -737l306 715q41 84 8 122t-170 58v29z" glyph-name="Wgrave.aalt" horiz-adv-x="2117"/><glyph d="M1075 180q59 -76 102.5 -106.5t108.5 -44.5v-29h-575v29q139 14 164.5 55t-35.5 109l-254 317l-246 -326q-25 -33 -32 -56.5t3.5 -44t50 -34.5t111.5 -20v-29h-455v29q70 14 117 47t101 104l292 387l-280 348q-63 80 -108.5 111t-114.5 41v29h577v-29 q-133 -14 -157.5 -52t36.5 -106l230 -282l231 280q59 70 32.5 110t-151.5 50v29h453v-29q-72 -12 -118 -46t-103 -106l-283 -346z" glyph-name="X.aalt" horiz-adv-x="1306"/><glyph d="M844 1096h432v-29q-70 -14 -116 -45t-99 -102l-305 -408v-389q0 -45 30.5 -62.5t143.5 -31.5v-29h-543v29q111 14 141.5 31.5t30.5 62.5v375l-311 417q-57 74 -100.5 107t-120.5 45v29h567v-29q-121 -14 -143.5 -53t30.5 -105l236 -323l227 311q61 78 39 118t-139 52v29z " glyph-name="Y.aalt" horiz-adv-x="1302"/><glyph d="M881 1507l-199 -247l-12 8l96 305q16 66 51 90.5t74 7.5q39 -14 38 -64.5t-48 -99.5zM844 1096h432v-29q-70 -14 -116 -45t-99 -102l-305 -408v-389q0 -45 30.5 -62.5t143.5 -31.5v-29h-543v29q111 14 141.5 31.5t30.5 62.5v375l-311 417q-57 74 -100.5 107t-120.5 45v29 h567v-29q-121 -14 -143.5 -53t30.5 -105l236 -323l227 311q61 78 39 118t-139 52v29z" glyph-name="Yacute.aalt" horiz-adv-x="1302"/><glyph d="M698 1493l-239 -211l-13 8l140 250q53 98 112.5 98t110.5 -98l141 -250l-12 -8zM844 1096h432v-29q-70 -14 -116 -45t-99 -102l-305 -408v-389q0 -45 30.5 -62.5t143.5 -31.5v-29h-543v29q111 14 141.5 31.5t30.5 62.5v375l-311 417q-57 74 -100.5 107t-120.5 45v29h567 v-29q-121 -14 -143.5 -53t30.5 -105l236 -323l227 311q61 78 39 118t-139 52v29z" glyph-name="Ycircumflex.aalt" horiz-adv-x="1302"/><glyph d="M487 1368q-45 0 -76.5 32t-31.5 77t31.5 76.5t76.5 31.5t77 -31.5t32 -76.5t-32 -77t-77 -32zM909 1368q-45 0 -76.5 32t-31.5 77t31.5 76.5t76.5 31.5t78 -31.5t33 -76.5t-32 -77t-79 -32zM844 1096h432v-29q-70 -14 -116 -45t-99 -102l-305 -408v-389q0 -45 30.5 -62.5 t143.5 -31.5v-29h-543v29q111 14 141.5 31.5t30.5 62.5v375l-311 417q-57 74 -100.5 107t-120.5 45v29h567v-29q-121 -14 -143.5 -53t30.5 -105l236 -323l227 311q61 78 39 118t-139 52v29z" glyph-name="ydieresis.aalt" horiz-adv-x="1302"/><glyph d="M735 1260l-198 247q-47 49 -48.5 99.5t37.5 64.5q39 16 74 -8.5t51 -89.5l97 -305zM844 1096h432v-29q-70 -14 -116 -45t-99 -102l-305 -408v-389q0 -45 30.5 -62.5t143.5 -31.5v-29h-543v29q111 14 141.5 31.5t30.5 62.5v375l-311 417q-57 74 -100.5 107t-120.5 45v29 h567v-29q-121 -14 -143.5 -53t30.5 -105l236 -323l227 311q61 78 39 118t-139 52v29z" glyph-name="Ygrave.aalt" horiz-adv-x="1302"/><glyph d="M102 0v57l654 961h-346q-147 0 -212 -63.5t-92 -264.5h-30v406h917v-47l-657 -967h356q74 0 119 10t86 42t65.5 97.5t38.5 171.5h33v-403h-932z" glyph-name="Z.aalt" horiz-adv-x="1116"/><glyph d="M752 1671q39 -14 37.5 -64.5t-48.5 -99.5l-198 -247l-13 8l97 305q16 66 51 90t74 8zM102 0v57l654 961h-346q-147 0 -212 -63.5t-92 -264.5h-30v406h917v-47l-657 -967h356q74 0 119 10t86 42t65.5 97.5t38.5 171.5h33v-403h-932z" glyph-name="Zacute.aalt" horiz-adv-x="1116"/><glyph d="M557 1282q-59 0 -113 98l-139 250l12 8l240 -211l240 211l12 -8l-141 -250q-54 -98 -111 -98zM1001 403h33v-403h-932v57l654 961h-346q-147 0 -212 -63.5t-92 -264.5h-30v406h917v-47l-657 -967h356q74 0 119 10t86 42t65.5 97.5t38.5 171.5z" glyph-name="Zcaron.aalt" horiz-adv-x="1116"/><glyph d="M559 1358q-49 0 -85 34.5t-36 84t36 84t85 34.5t84 -34.5t35 -83.5q0 -51 -35 -85t-84 -34zM102 0v57l654 961h-346q-147 0 -212 -63.5t-92 -264.5h-30v406h917v-47l-657 -967h356q74 0 119 10t86 42t65.5 97.5t38.5 171.5h33v-403h-932z" glyph-name="Zdotaccent.aalt" horiz-adv-x="1116"/><glyph d="M622.5 -23q-233.5 0 -387 153t-153.5 421q0 264 154.5 417.5t386 153.5t386 -154.5t154.5 -416.5q0 -268 -153.5 -421t-387 -153zM622.5 57q157.5 0 246.5 125t89 369q0 236 -89 362.5t-246.5 126.5t-246.5 -127t-89 -362q0 -244 89 -369t246.5 -125z" glyph-name="zero.oldstyle" horiz-adv-x="1245"/><glyph d="M449 1114v-989q0 -43 32.5 -62.5t153.5 -33.5v-29h-567v29q117 16 151.5 33.5t34.5 62.5l-4 860h-150v37l125 22q143 23 191 70h33z" glyph-name="one.oldstyle" horiz-adv-x="710"/><glyph d="M965 406h28v-406h-919v74q289 143 449.5 325.5t160.5 388.5q0 133 -71.5 194.5t-190.5 61.5q-92 0 -160 -30q4 -115 -32.5 -192t-116.5 -81q-43 -2 -63.5 24t-20.5 64q0 98 117.5 195.5t314.5 97.5q199 0 313.5 -88t114.5 -256q0 -188 -167 -353t-423 -290h369 q139 0 195.5 50.5t101.5 220.5z" glyph-name="two.oldstyle" horiz-adv-x="1073"/><glyph d="M643 410q186 -20 289.5 -113.5t103.5 -235.5q0 -182 -144 -278t-364 -96q-182 0 -324.5 70.5t-142.5 179.5q0 47 25 73.5t66 26.5q59 0 115.5 -69.5t84.5 -176.5q68 -23 146 -22q150 0 240.5 81.5t90.5 212.5q0 293 -403 293h-131v90h131q188 0 281.5 96.5t93.5 241.5 q0 119 -65.5 186.5t-180.5 67.5q-147 0 -233 -53q6 -123 -32 -191.5t-112 -68.5q-90 0 -84 96q10 111 152.5 206t349.5 95q176 0 290.5 -77.5t114.5 -251.5q0 -133 -96 -238.5t-262 -144.5z" glyph-name="three.oldstyle" horiz-adv-x="1167"/><glyph d="M1180 88v-88h-230v-297h-186v297h-729v63l723 1031h192v-1006h230zM156 88h608v864z" glyph-name="four.oldstyle" horiz-adv-x="1224"/><glyph d="M635 522q199 0 321.5 -99t122.5 -290q0 -219 -149.5 -332.5t-376.5 -113.5q-184 0 -326.5 72.5t-142.5 181.5q0 43 24.5 68.5t65.5 25.5q57 0 113.5 -72t87.5 -172q68 -23 149 -22q162 0 255 95t93 265q0 147 -76.5 226t-199.5 79q-135 0 -222 -52t-128 -122l-74 16 l18 820h664q41 0 61.5 15t38.5 56h35v-245h-710l-17 -545q135 145 373 145z" glyph-name="five.oldstyle" horiz-adv-x="1183"/><glyph d="M784 823q174 0 289 -95t115 -298t-139.5 -330t-354.5 -127q-281 0 -422 190.5t-141 545.5q0 317 176 537t465 220q178 0 295 -78.5t117 -177.5q0 -43 -28 -69.5t-75 -26.5q-158 0 -196 262q-53 8 -97 8q-207 6 -327.5 -184t-120.5 -498q0 -53 4 -143q59 117 170.5 190.5 t269.5 73.5zM694 57q131 0 211 99.5t80 265.5q0 317 -254 317q-117 0 -217 -77.5t-158 -212.5q53 -392 338 -392z" glyph-name="six.oldstyle" horiz-adv-x="1304"/><glyph d="M188 1096h779v-68l-398 -1323h-211l502 1233h-794v219h30q12 -37 30.5 -49t61.5 -12z" glyph-name="seven.oldstyle" horiz-adv-x="1048"/><glyph d="M778 811q195 -86 287 -190.5t92 -262.5q0 -193 -146.5 -289t-392.5 -96q-256 0 -375.5 98.5t-119.5 250.5q0 145 102.5 247.5t280.5 157.5q-319 154 -320 403q0 156 131.5 246t341.5 90q207 0 323 -86t116 -225q-2 -121 -87.5 -209t-232.5 -135zM354 1155 q0 -94 78 -165.5t270 -145.5q225 113 226 313q0 109 -72 168t-197 59q-131 0 -218 -59t-87 -170zM618.5 55q161.5 0 265 76t103.5 211q0 111 -83 186.5t-279 149.5l-39 14q-293 -123 -293 -362q0 -119 82 -197t243.5 -78z" glyph-name="eight.oldstyle" horiz-adv-x="1280"/><glyph d="M606 1122q244 0 390.5 -171t146.5 -492q0 -340 -161 -555t-445 -215q-170 0 -309.5 64.5t-139.5 164.5q0 47 24.5 73.5t65.5 26.5q59 0 116.5 -59t86.5 -168q57 -18 133 -18q420 0 420 678v57q-135 -221 -412 -221q-180 0 -301 100t-121 281q0 203 140.5 328.5 t365.5 125.5zM578 373q115 0 207 68.5t139 193.5q-45 406 -322 405q-143 0 -226 -99t-83 -265q0 -147 75 -225t210 -78z" glyph-name="nine.oldstyle" horiz-adv-x="1288"/><glyph d="M492 -16q-186 0 -309.5 100t-123.5 274q0 172 124 272.5t308.5 100.5t307.5 -100.5t123 -272.5q0 -174 -123 -274t-307 -100zM491.5 45q116.5 0 183 80t66.5 233q0 152 -66.5 232t-183 80t-183 -81t-66.5 -231q0 -154 66.5 -233.5t183 -79.5z" glyph-name="zero.dnom" horiz-adv-x="980"/><glyph d="M360 725v-639q0 -18 4.5 -26.5t31 -18.5t83.5 -16v-25h-409v25q74 8 95 20t21 41v537h-116v32l94 15q127 14 168 55h28z" glyph-name="one.dnom" horiz-adv-x="532"/><glyph d="M713 281h26v-281h-669v63q195 92 311.5 212t116.5 247q0 78 -44 116t-120 38q-70 0 -113 -19q4 -176 -112 -178q-33 -2 -51.5 16.5t-18.5 47.5q0 68 91 128t238.5 60t228.5 -55t81 -160q0 -215 -397 -405h202q106 0 151.5 33t78.5 137z" glyph-name="two.dnom" horiz-adv-x="821"/><glyph d="M455 362q260 -27 260 -178q0 -98 -94.5 -148t-262.5 -50q-141 0 -232 38.5t-93 106.5q-2 27 17.5 47.5t49.5 20.5q80 0 131 -142q45 -16 97 -16q104 0 156.5 40t52.5 105q0 78 -68 109t-190 31h-95v65h95q121 0 181 44t60 110q0 125 -158 127q-76 0 -131 -17 q-2 -68 -29.5 -113.5t-84.5 -47.5q-35 -2 -51.5 16t-16.5 45q0 61 98.5 117.5t251.5 56.5q297 0 297 -176q1 -150 -241 -191z" glyph-name="three.dnom" horiz-adv-x="788"/><glyph d="M805 162h-139v-76q0 -29 17 -40t95 -21v-25h-391v25q70 8 90.5 20t20.5 41v76h-478v41l467 510h179v-490h139v-61zM125 223h373v406z" glyph-name="four.dnom" horiz-adv-x="821"/><glyph d="M430 418q127 0 206 -53.5t79 -153.5q0 -113 -96.5 -170t-256.5 -57q-129 0 -216 44t-87 111q0 25 17.5 43.5t46.5 18.5q86 0 125 -146q37 -12 88 -12q90 0 144.5 44t54.5 120q0 74 -47.5 110.5t-122.5 36.5q-70 0 -126.5 -19.5t-78.5 -41.5l-49 12l2 408h555v-133h-484 l-2 -218q98 56 248 56z" glyph-name="five.dnom" horiz-adv-x="784"/><glyph d="M514 420q115 0 191.5 -49t76.5 -154q0 -106 -98 -170.5t-252 -64.5q-182 0 -277.5 96t-95.5 272q0 162 114 271.5t314 109.5q121 0 194 -41t73 -96q0 -31 -21.5 -48.5t-52.5 -17.5q-98 0 -139 140q-14 2 -45 2q-123 2 -189.5 -85t-66.5 -237v-41q92 113 274 113zM434 41 q78 0 126 47t48 121q0 72 -39 109.5t-106 37.5q-145 0 -215 -120q28 -195 186 -195z" glyph-name="six.dnom" horiz-adv-x="854"/><glyph d="M16 713h623v-62l-299 -651h-172l371 580h-523v133z" glyph-name="seven.dnom" horiz-adv-x="681"/><glyph d="M537 414q236 -72 235 -221q0 -207 -373 -207q-170 0 -253 48t-83 128q0 135 220 182q-176 72 -177 195q0 90 88.5 140t233.5 50t224 -43t79 -115q1 -120 -194 -157zM256 575q0 -49 44 -80.5t169 -62.5q123 43 123 137q0 47 -43 74t-119 27t-125 -25t-49 -70zM401 43 q98 0 160 31.5t62 89.5q0 51 -50.5 83t-169.5 58q-8 2 -26.5 7t-28.5 7q-147 -51 -147 -157q0 -53 50 -86t150 -33z" glyph-name="eight.dnom" horiz-adv-x="835"/><glyph d="M408 729q170 0 272 -95t102 -269q0 -176 -106.5 -278.5t-298.5 -102.5q-121 0 -213 39.5t-92 105.5q0 29 17 49.5t50 20.5q80 0 135 -142q41 -12 93 -12q123 0 178 80t55 240v36q-88 -115 -260 -114q-115 0 -193.5 52t-78.5 159q0 104 95 167.5t245 63.5zM393 350 q68 0 119 37t80 92q-33 188 -180 189q-82 0 -130.5 -45t-48.5 -119t43 -114t117 -40z" glyph-name="nine.dnom" horiz-adv-x="841"/><glyph d="M492 725q-186 0 -309.5 100.5t-123.5 274.5q0 172 124 272.5t308.5 100.5t307.5 -100.5t123 -272.5q0 -174 -123 -274.5t-307 -100.5zM491.5 786q116.5 0 183 80t66.5 234q0 152 -66.5 231.5t-183 79.5t-183 -81t-66.5 -230q0 -154 66.5 -234t183 -80z" glyph-name="zero.frac" horiz-adv-x="980"/><glyph d="M360 1450v-639q0 -18 4.5 -26.5t31 -18.5t83.5 -16v-25h-409v25q74 8 95 20t21 41v537h-116v32l94 15q127 14 168 55h28z" glyph-name="one.frac" horiz-adv-x="532"/><glyph d="M713 1018h26v-281h-669v64q195 92 311.5 212t116.5 247q0 78 -44 115.5t-120 37.5q-70 0 -113 -18q4 -176 -112 -178q-33 -2 -51.5 16t-18.5 47q0 68 91 128t238.5 60t228.5 -55t81 -160q0 -215 -397 -405h202q106 0 151.5 33t78.5 137z" glyph-name="two.frac" horiz-adv-x="821"/><glyph d="M455 1098q260 -27 260 -178q0 -98 -94.5 -148.5t-262.5 -50.5q-141 0 -232 39t-93 106q-2 27 17.5 47.5t49.5 20.5q80 0 131 -141q45 -16 97 -17q104 0 156.5 40t52.5 106q0 78 -68 108.5t-190 30.5h-95v65h95q121 0 181 44t60 110q0 125 -158 127q-76 0 -131 -16 q-2 -68 -29.5 -114t-84.5 -48q-35 -2 -51.5 16.5t-16.5 44.5q0 61 98.5 117.5t251.5 56.5q297 0 297 -176q1 -149 -241 -190z" glyph-name="three.frac" horiz-adv-x="788"/><glyph d="M805 889h-139v-76q0 -29 17 -40t95 -21v-25h-391v25q70 8 90.5 20t20.5 41v76h-478v41l467 510h179v-490h139v-61zM125 950h373v406z" glyph-name="four.frac" horiz-adv-x="821"/><glyph d="M430 1143q127 0 206 -53.5t79 -153.5q0 -113 -96.5 -170t-256.5 -57q-129 0 -216 44t-87 111q0 25 17.5 43.5t46.5 18.5q86 0 125 -146q37 -12 88 -12q90 0 144.5 44t54.5 120q0 74 -47.5 110.5t-122.5 36.5q-70 0 -126.5 -19.5t-78.5 -41.5l-49 12l2 408h555v-133h-484 l-2 -218q98 56 248 56z" glyph-name="five.frac" horiz-adv-x="784"/><glyph d="M514 1161q115 0 191.5 -49t76.5 -154q0 -106 -98 -170.5t-252 -64.5q-182 0 -277.5 96t-95.5 273q0 162 114 271.5t314 109.5q121 0 194 -41t73 -97q0 -31 -21.5 -48t-52.5 -17q-98 0 -139 139q-14 2 -45 2q-123 2 -189.5 -85t-66.5 -236v-41q92 112 274 112zM434 782 q78 0 126 47.5t48 120.5q0 72 -39 110t-106 38q-143 0 -215 -121q28 -195 186 -195z" glyph-name="six.frac" horiz-adv-x="854"/><glyph d="M16 1440h623v-62l-299 -651h-172l371 580h-523v133z" glyph-name="seven.frac" horiz-adv-x="681"/><glyph d="M537 1163q236 -72 235 -221q0 -207 -373 -207q-170 0 -253 48t-83 128q0 135 220 183q-176 72 -177 194q0 90 88.5 140.5t233.5 50.5t224 -43t79 -115q1 -121 -194 -158zM256 1325q0 -49 44 -81t169 -62q123 43 123 137q0 47 -43 73.5t-119 26.5t-125 -24.5t-49 -69.5z M401 793q98 0 160 31.5t62 88.5q0 51 -50.5 83t-169.5 59q-8 2 -26.5 7t-28.5 7q-147 -51 -147 -158q0 -53 50 -85.5t150 -32.5z" glyph-name="eight.frac" horiz-adv-x="835"/><glyph d="M408 1464q170 0 272 -95t102 -269q0 -176 -106.5 -278.5t-298.5 -102.5q-121 0 -213 40t-92 105q0 29 17 49.5t50 20.5q80 0 135 -141q41 -12 93 -13q123 0 178 80t55 240v37q-88 -115 -260 -115q-115 0 -193.5 52t-78.5 159q0 104 95 167.5t245 63.5zM393 1085 q68 0 119 37t80 92q-33 188 -180 189q-82 0 -130.5 -45t-48.5 -119t43 -114t117 -40z" glyph-name="nine.frac" horiz-adv-x="841"/><glyph d="M626.5 -23q-233.5 0 -387 153t-153.5 421q0 264 154.5 417.5t386 153.5t386 -154.5t154.5 -416.5q0 -268 -153.5 -421t-387 -153zM626.5 53q159.5 0 248 126t88.5 372q0 238 -89.5 367t-247 129t-246.5 -129.5t-89 -366.5q0 -246 88 -372t247.5 -126z" glyph-name="zero.c2sc" horiz-adv-x="1253"/><glyph d="M446 1114v-989q0 -43 27 -62.5t127 -33.5v-29h-502v29q96 16 125 33.5t29 62.5l-2 860h-152v37l125 22q141 23 193 70h30z" glyph-name="one.c2sc" horiz-adv-x="675"/><glyph d="M913 406h31v-406h-842v74q254 147 408 336.5t154 392.5q0 127 -59.5 187.5t-160.5 60.5q-92 0 -161 -35q8 -244 -136 -252q-45 0 -65.5 25.5t-20.5 62.5q0 92 114 181t304 89q180 0 283.5 -86t103.5 -241q0 -334 -536 -660h286q141 0 197.5 50.5t99.5 220.5z" glyph-name="two.c2sc" horiz-adv-x="1064"/><glyph d="M569 557q172 -18 259 -89t87 -185q0 -150 -120.5 -228t-327.5 -78q-176 0 -294 59.5t-124 158.5q-2 41 21.5 66.5t62.5 25.5q51 0 97 -61.5t71 -151.5q61 -25 129 -25q143 0 214 65.5t71 172.5q0 121 -85 172t-265 51h-115v82h115q164 0 245.5 70.5t81.5 179.5 q0 203 -211 205q-113 2 -192 -37q0 -231 -133 -238q-45 -2 -64.5 22.5t-19.5 63.5q0 90 123.5 176t324.5 86q166 0 268.5 -62.5t102.5 -205.5q0 -109 -80 -186.5t-242 -108.5z" glyph-name="three.c2sc" horiz-adv-x="1028"/><glyph d="M1049 250h-181v-127q0 -43 26 -61.5t118 -32.5v-29h-473v29q88 14 114.5 31.5t26.5 62.5v127h-633v53l619 793h202v-770h181v-76zM164 326h516v655z" glyph-name="four.c2sc" horiz-adv-x="1081"/><glyph d="M543 649q164 0 264 -81t100 -240q0 -172 -126 -263.5t-332 -91.5q-156 0 -267.5 68t-111.5 168q0 37 21.5 60.5t58.5 23.5q55 0 95 -62.5t58 -156.5q57 -23 127 -23q127 0 201 75t74 200q0 121 -61.5 181t-160.5 60q-94 0 -168.5 -31.5t-103.5 -72.5l-61 14l2 619h571 q43 0 61.5 12t34.5 51h33v-227h-614l-2 -369q125 86 307 86z" glyph-name="five.c2sc" horiz-adv-x="1011"/><glyph d="M651 637q147 0 245.5 -75t98.5 -234q0 -158 -122.5 -256.5t-315.5 -98.5q-231 0 -351 147.5t-120 418.5q0 248 143.5 415.5t395.5 167.5q158 0 251 -61.5t93 -140.5q0 -41 -25.5 -65t-66.5 -24q-135 0 -187 207q-33 4 -55 4q-166 4 -255 -135t-89 -372q0 -59 2 -89 q116 191 358 191zM557 49q111 0 177.5 75t66.5 198q0 115 -54.5 175t-150.5 60q-94 0 -172 -55.5t-123 -151.5q23 -158 86.5 -229.5t169.5 -71.5z" glyph-name="six.c2sc" horiz-adv-x="1089"/><glyph d="M125 1096h686v-70l-399 -1026h-197l487 942h-686v217h31q10 -39 27.5 -51t50.5 -12z" glyph-name="seven.c2sc" horiz-adv-x="864"/><glyph d="M643 627q164 -66 241 -148t77 -205q0 -150 -126 -223.5t-339 -73.5q-217 0 -321.5 76t-104.5 191q0 109 83 184.5t232 114.5q-260 119 -260 311q0 123 111.5 193.5t293.5 70.5q178 0 278.5 -65.5t98.5 -173.5q-2 -86 -72.5 -151.5t-191.5 -100.5zM293 883 q0 -70 60.5 -121t219.5 -109q174 80 175 226q0 78 -57.5 120.5t-160.5 42.5q-100 0 -168.5 -41.5t-68.5 -117.5zM496 53q131 0 214 52.5t83 146.5q0 80 -68 135t-225 111q-8 2 -23.5 8t-21.5 8q-225 -94 -226 -262q0 -88 67 -143.5t200 -55.5z" glyph-name="eight.c2sc" horiz-adv-x="1030"/><glyph d="M498 1118q219 0 353 -146.5t134 -410.5q0 -268 -138 -426t-386 -158q-162 0 -272.5 61.5t-116.5 160.5q-2 39 19.5 63.5t60.5 24.5q57 0 102 -60.5t70 -150.5q57 -23 127 -23q174 0 250.5 125t76.5 383v47q-127 -162 -354 -162q-154 0 -260.5 78t-106.5 240 q0 160 122 257t319 97zM481 524q90 0 168 49.5t121 128.5q-39 340 -268 340q-119 0 -186.5 -72.5t-67.5 -199.5q0 -119 61 -182.5t172 -63.5z" glyph-name="nine.c2sc" horiz-adv-x="1071"/><glyph d="M-121 1544q49 0 57.5 -55t-20.5 -135l-104 -361h-17l4 387q0 164 80 164z" glyph-name="glyph509"/><glyph d="M-653 1245q-45 0 -77 32t-32 77t32 76.5t77 31.5t76.5 -31.5t31.5 -76.5t-31.5 -77t-76.5 -32zM-231 1245q-45 0 -77 32t-32 77t32 76.5t77 31.5t77.5 -31.5t32.5 -76.5t-31.5 -77t-78.5 -32z" glyph-name="uni0308.aalt"/><glyph d="M-221 1235q-49 0 -85 35t-36 84t36 84t85 35t84 -35t35 -84q0 -51 -35 -85t-84 -34z" glyph-name="uni0307.aalt"/><glyph d="M-324 1548q39 16 74 -8t51 -90l97 -305l-13 -8l-198 247q-47 49 -48.5 99.5t37.5 64.5z" glyph-name="gravecomb.aalt"/><glyph d="M-96 1548q39 -14 38 -64t-48 -100l-199 -247l-12 8l96 305q16 66 51 90t74 8z" glyph-name="acutecomb.aalt"/><glyph d="M-399 1552q41 -10 45 -56t-35 -99l-129 -258l-14 4l28 299q10 68 39 94t66 16zM-188 1520q43 -10 42 -59.5t-51 -106.5l-198 -215l-13 6l105 266q29 138 115 109z" glyph-name="uni030B.aalt"/><glyph d="M-121 1544q49 0 57.5 -55t-20.5 -135l-104 -361h-17l4 387q0 164 80 164z" glyph-name="glyph515"/><glyph d="M-94 1167l-12 -8l-240 211l-240 -211l-12 8l139 250q53 98 112.5 98.5t110.5 -98.5z" glyph-name="uni0302.aalt"/><glyph d="M-106 1516l12 -9l-142 -250q-51 -98 -110.5 -98t-112.5 98l-139 250l12 9l240 -211z" glyph-name="uni030C.aalt"/><glyph d="M-510 1456q4 -76 58.5 -130t144.5 -54t144 54t59 130h24q-2 -131 -60.5 -211t-167 -80t-168 80t-61.5 211h27z" glyph-name="uni0306.aalt"/><glyph d="M-338 1124q-94 0 -157.5 59.5t-63.5 154t63.5 154.5t157.5 60t156.5 -59t62.5 -156q0 -94 -62.5 -153.5t-156.5 -59.5zM-337.5 1184q61.5 0 106.5 42t45 111q0 72 -45 113t-106.5 41t-105.5 -41t-44 -113q0 -70 44 -111.5t105.5 -41.5z" glyph-name="uni030A.aalt"/><glyph d="M-752 1231l-20 6q25 98 78 155.5t129 57.5q70 0 155.5 -52t135.5 -52q55 0 88.5 26.5t70.5 81.5l21 -6q-25 -92 -80 -151.5t-129 -59.5t-158 52t-133 52q-55 0 -88 -26.5t-70 -83.5z" glyph-name="tildecomb.aalt"/><glyph d="M-688 1411h594v-80h-594v80z" glyph-name="uni0304.aalt"/><glyph d="M-225 1370q45 0 70.5 -27.5t25.5 -72.5q0 -43 -29.5 -73t-74.5 -30q-119 0 -119 152q0 117 71.5 192.5t194.5 92.5l8 -29q-174 -53 -188 -213q25 8 41 8z" glyph-name="uni0312.aalt"/><glyph d="M-229 -133q63 0 90.5 -44t27.5 -106q0 -117 -71.5 -192.5t-194.5 -91.5l-8 28q174 53 188 211q-25 -8 -41 -8q-45 0 -70.5 27.5t-25.5 75.5q0 43 30 71.5t75 28.5z" glyph-name="uni0326.aalt"/><glyph d="M-348 -121q256 6 256 -145q0 -72 -55.5 -115t-151.5 -43q-188 0 -281 152l15 18q82 -82 219 -82q121 0 121 74q0 84 -205 88l-2 18l61 166h72z" glyph-name="uni0327.aalt"/><glyph d="M-211 16l21 -12q-160 -47 -222.5 -123t-62.5 -143q0 -84 90 -84q100 0 162 72l10 -9q-29 -63 -91.5 -105t-144.5 -42q-162 0 -161 149q0 109 108.5 190.5t290.5 106.5z" glyph-name="uni0328.aalt"/></font>
</defs>
</svg>
