<?xml version="1.0" standalone="no"?>
<!DOCTYPE svg PUBLIC "-//W3C//DTD SVG 1.1//EN" "http://www.w3.org/Graphics/SVG/1.1/DTD/svg11.dtd">
<svg xmlns="http://www.w3.org/2000/svg"><metadata>This SVG WebFont was generated by YouWorkForThem.
Copyright Â© 2018 by Emil Bertell All rights reserved.</metadata><defs><font horiz-adv-x="0" id="ywftsvg"><font-face ascent="1638" bbox="-1143 -602.19 2951 2121.3" cap-height="1450" descent="-410" font-family="" font-stretch="normal" font-weight="900" panose-1="0 0 10 0 0 0 0 0 0 0" underline-position="0" underline-thickness="0" unicode-range="U+0020-FB02" units-per-em="2048" x-height="983"/><missing-glyph/><glyph d="M1327 186q0 -59 21.5 -82.5t93.5 -42.5v-61h-649v61q74 18 96 42t22 83v672h-333v-672q0 -59 24.5 -82.5t104.5 -42.5v-61h-672v61q82 18 106.5 42t24.5 83v672h-131v125h131v55q0 264 115.5 393.5t410.5 129.5q229 0 360.5 -82t131.5 -187q0 -61 -39 -96t-107 -35 q-94 0 -146 74t-67 190q-16 2 -51 2q-197 0 -196 -243v-201h749v-797z" glyph-name="uniFB01" horiz-adv-x="1497" unicode="fi"/><glyph d="M1335 186q0 -59 21.5 -82.5t93.5 -42.5v-61h-641v61q72 18 93.5 42t21.5 83v1151q-109 82 -209 82q-137 0 -137 -149v-287h213v-125h-213v-672q0 -61 27.5 -83.5t121.5 -41.5v-61h-692v61q82 18 106.5 42t24.5 83v672h-131v125h131v117q0 225 98 343t340 118 q244 0 445 -101l286 92v-1366z" glyph-name="uniFB02" horiz-adv-x="1476" unicode="fl"/><glyph d="M1606 1016q182 0 306 -138.5t124 -392.5q0 -252 -128 -385t-331 -133q-244 0 -338 158l-248 -125h-78v1370q-106 59 -215 60q-121 0 -120 -152v-295h213v-125h-213v-672q0 -61 31.5 -83.5t133.5 -41.5v-61h-708v61q82 18 106.5 42t24.5 83v672h-131v125h131v117 q0 219 101.5 340t348.5 121q244 0 435 -78l274 76v-674q95 131 281 131zM1440 115q164 0 164 370q0 182 -36 279.5t-100 97.5q-47 0 -84.5 -45t-58.5 -123v-510q41 -69 115 -69z" glyph-name="f_b.liga" horiz-adv-x="2082" unicode="fb"/><glyph d="M1358 1561q180 0 301 -71t121 -165q0 -66 -40 -99.5t-102 -33.5q-86 0 -131 73.5t-55 170.5q-102 -12 -102 -166v-287h213v-125h-213v-672q0 -61 35.5 -83.5t154.5 -41.5v-61h-733v61q82 18 106.5 42t24.5 83v672h-360v-672q0 -59 27.5 -82.5t109.5 -42.5v-61h-680v61 q82 18 106.5 42t24.5 83v672h-131v125h131v117q0 461 420 461q135 0 241.5 -63.5t106.5 -160.5q0 -55 -36 -92t-89 -37q-137 0 -172 222q-59 -27 -59 -160v-287h360v117q0 461 420 461z" glyph-name="f_f.liga" horiz-adv-x="1568" unicode="ff"/><glyph d="M2124 186q0 -59 21.5 -82.5t92.5 -42.5v-61h-649v61q74 18 96.5 42t22.5 83v672h-334v-672q0 -59 24.5 -82.5t104.5 -42.5v-61h-672v61q82 18 107 42t25 83v672h-385v-672q0 -61 35.5 -83.5t154.5 -41.5v-61h-733v61q82 18 106.5 42t24.5 83v672h-131v125h131v117 q0 461 420 461q154 0 265.5 -64.5t111.5 -146.5q0 -66 -40 -99.5t-102 -33.5q-66 -2 -104.5 65.5t-40.5 153.5q-98 -14 -98 -166v-287h385v55q0 264 115.5 393.5t410.5 129.5q229 0 360 -82t131 -187q0 -61 -38.5 -96t-106.5 -35q-94 0 -146.5 74t-66.5 190q-16 2 -51 2 q-197 0 -197 -243v-201h750v-797z" glyph-name="f_f_i.liga" horiz-adv-x="2293" unicode="ffi"/><glyph d="M2132 186q0 -59 21.5 -82.5t93.5 -42.5v-61h-641v61q72 18 93 42t21 83v1151q-109 82 -209 82q-137 0 -137 -149v-287h213v-125h-213v-672q0 -61 28 -83.5t122 -41.5v-61h-693v61q82 18 107 42t25 83v672h-385v-672q0 -59 28.5 -82.5t124.5 -42.5v-61h-696v61 q82 18 106.5 42t24.5 83v672h-131v125h131v117q0 461 420 461q156 0 255 -58.5t99 -142.5q0 -55 -36 -85t-93 -30q-70 0 -113 53.5t-55 126.5q-66 -33 -65 -155v-287h385v117q0 225 98 343t340 118q244 0 444 -101l287 92v-1366z" glyph-name="f_f_l.liga" horiz-adv-x="2273" unicode="ffl"/><glyph d="M1999 186q0 -61 23.5 -83.5t99.5 -41.5v-61h-625v61q49 20 67.5 44t18.5 81v490q0 119 -84 119q-102 0 -164 -170v-439q0 -57 18.5 -80.5t67.5 -44.5v-61h-612v61q72 18 93.5 42t21.5 83v1151q-117 82 -213 82q-133 0 -133 -149v-287h213v-125h-213v-672 q0 -61 30.5 -83.5t130.5 -41.5v-61h-704v61q82 18 106.5 42t24.5 83v672h-131v125h131v117q0 219 101.5 340t346.5 121q233 0 447 -97l274 90v-772q115 233 348 234q315 0 316 -354v-476z" glyph-name="f_h.liga" horiz-adv-x="2146" unicode="fh"/><glyph d="M578 983h692v-801q0 -600 -463 -600q-127 0 -204 43t-77 119q0 53 32 89t85 36q102 0 188 -164q27 51 27 227v926h-280v-672q0 -59 24.5 -82.5t106.5 -42.5v-61h-674v61q82 18 106.5 42t24.5 83v672h-131v125h131v117q0 219 103.5 340t357.5 121q229 0 367.5 -78 t138.5 -178q0 -66 -40 -100t-102 -34q-90 0 -151.5 79t-75.5 188q-186 -8 -186 -189v-266z" glyph-name="f_j.liga" horiz-adv-x="1335" unicode="fj"/><glyph d="M2009 242q45 -80 85 -119t95 -62v-61h-680v61q61 20 75.5 52t-17.5 94l-133 242l-66 -52v-211q0 -57 18.5 -80.5t67.5 -44.5v-61h-612v61q72 18 93 42t21 83v1131q-125 104 -249 104q-129 0 -129 -151v-287h213v-125h-213v-672q0 -61 35.5 -83.5t154.5 -41.5v-61h-733v61 q82 18 106.5 42t24.5 83v672h-131v125h131v117q0 219 99.5 340t336.5 121q246 0 465 -93l301 88v-1030l293 230q66 51 50.5 101t-103.5 65v61h538v-61q-160 -37 -352 -189l-41 -33z" glyph-name="f_k.liga" horiz-adv-x="2185" unicode="fk"/><glyph d="M1409 1100q-92 0 -158.5 65.5t-66.5 159.5q0 92 66.5 156.5t158.5 64.5t158.5 -64.5t66.5 -156.5q0 -94 -66.5 -159.5t-158.5 -65.5zM641 219q231 -14 345 -80.5t114 -218.5q0 -338 -568 -338q-274 0 -409 42t-135 151q0 145 278 157q-170 61 -170 211q0 164 197 209 q-217 92 -217 310q0 125 77.5 208.5t176 114.5t207.5 31q63 0 112 -10q154 197 320 219q63 8 108 -21.5t51 -87.5q8 -66 -28.5 -115t-93.5 -49q-86 0 -172 103q-47 -31 -86 -74q250 -88 249 -319q0 -96 -44 -169t-115.5 -111t-147.5 -56.5t-153 -18.5h-2q-195 0 -195 -39 q0 -31 301 -49zM1098 924l549 82v-824q0 -588 -482 -600l-26 70q51 27 73.5 72t22.5 147v883q0 55 -22.5 72.5t-114.5 35.5v62zM536.5 891q-100.5 0 -100.5 -229q0 -227 100.5 -227.5t100.5 227.5q0 229 -100.5 229zM561 -287q104 0 171 24.5t67 65.5q0 37 -47 54.5 t-191 25.5q-66 4 -94 8q-160 -16 -160 -86q0 -92 254 -92z" glyph-name="g_j.liga" horiz-adv-x="1712" unicode="gj"/><glyph glyph-name=".notdef"/><glyph glyph-name="glyph1"/><glyph glyph-name="glyph2" horiz-adv-x="681"/><glyph glyph-name="space" horiz-adv-x="415" unicode=" "/><glyph d="M305 1483q129 0 176 -89t15 -237l-152 -684h-78l-151 684q-33 145 15 235.5t175 90.5zM303 -25q-80 0 -137 56.5t-57 138.5q0 80 57 135t137 55t138.5 -55t58.5 -135t-58.5 -137.5t-138.5 -57.5z" glyph-name="exclam" horiz-adv-x="610" unicode="!"/><glyph d="M270 1561q80 0 120 -54.5t3 -171.5l-98 -305h-47l-94 305q-35 115 1.5 170.5t114.5 55.5zM643 1561q80 0 120 -54.5t3 -171.5l-98 -305h-47l-95 305q-35 115 2 170.5t115 55.5z" glyph-name="quotedbl" horiz-adv-x="919" unicode="&quot;"/><glyph d="M1683 952h-225l-80 -422h205v-124h-229l-78 -406h-363l78 406h-293l-77 -406h-363l78 406h-197v124h221l80 422h-200v125h225l72 373h362l-72 -373h293l72 373h362l-71 -373h200v-125zM1016 530l80 422h-293l-80 -422h293z" glyph-name="numbersign" horiz-adv-x="1822" unicode="#"/><glyph d="M707 915q233 -57 347.5 -166.5t114.5 -295.5q0 -203 -122.5 -303.5t-301.5 -100.5h-40v-174l-142 2v193q-76 18 -246 104q-43 27 -75.5 14.5t-48 -33t-33.5 -63.5h-54v508h66q29 -168 139.5 -268.5t251.5 -126.5v364q-238 51 -355.5 166t-117.5 314q0 150 103.5 251 t283.5 101q47 0 86 -6v184h142v-219l129 -47q78 -18 103.5 -6t53.5 61h53v-463h-65q-23 141 -97.5 225t-176.5 111v-326h2zM424 1124q0 -66 31.5 -102.5t107.5 -65.5v295q-139 -16 -139 -127zM705 201q137 23 137 155q0 125 -137 176v-331z" glyph-name="dollar" horiz-adv-x="1259" unicode="$"/><glyph d="M456.5 799q-202.5 0 -322.5 87t-120 255t120 255t322.5 87t322.5 -87t120 -255t-120 -255t-322.5 -87zM1303 1450h231l-1114 -1450h-232zM457 928q92 0 92 213t-92 213t-92 -213t92 -213zM1257.5 -33q-202.5 0 -322.5 87t-120 255t120 255t322.5 87t322.5 -87t120 -255 t-120 -255t-322.5 -87zM1257.5 96q92.5 0 92.5 213t-92.5 213t-92.5 -213t92.5 -213z" glyph-name="percent" horiz-adv-x="1714" unicode="%"/><glyph d="M1692 406l77 -19q-35 -391 -372 -391q-156 0 -340 98q-211 -127 -492 -127q-539 0 -538 371q0 287 401 405q-104 199 -104 357q0 188 131 285.5t383 97.5q223 0 342.5 -84t119.5 -221q0 -281 -448 -383q158 -219 367 -373q37 57 67 131q33 84 -13 122t-149 50v61h529v-61 q-104 -20 -151.5 -51t-80.5 -117q-43 -115 -102 -201q127 -72 213 -71q125 0 160 121zM829.5 1341q-65.5 0 -103.5 -43t-38 -120q0 -123 98 -283q180 127 181 279q0 80 -36 123.5t-101.5 43.5zM723 152q106 0 192 30q-238 172 -405 424q-68 -90 -68 -204.5t73 -182 t208 -67.5z" glyph-name="ampersand" horiz-adv-x="1820" unicode="&amp;"/><glyph d="M270 1561q80 0 120 -54.5t3 -171.5l-98 -305h-47l-94 305q-35 115 1.5 170.5t114.5 55.5z" glyph-name="quotesingle" horiz-adv-x="546" unicode="'"/><glyph d="M152 721q0 379 198.5 627.5t554.5 343.5l23 -72q-158 -66 -267.5 -328t-109.5 -571t109.5 -571.5t267.5 -327.5l-23 -72q-356 94 -554.5 343t-198.5 628z" glyph-name="parenleft" horiz-adv-x="1044" unicode="("/><glyph d="M893 721q0 -379 -198.5 -628t-555.5 -343l-22 72q158 66 267.5 328t109.5 571t-110 571t-267 328l22 72q356 -94 555 -343t199 -628z" glyph-name="parenright" horiz-adv-x="1044" unicode=")"/><glyph d="M543 1153q61 -14 85.5 -53t2.5 -78q-20 -39 -67.5 -39t-88.5 49l-88 105l43 -123q20 -63 0 -102.5t-71.5 -39.5t-70 39t2.5 103l39 114l-82 -96q-41 -49 -88 -50t-68 40q-25 41 0 79t88 52l115 25l-111 22q-61 12 -84.5 53t-3.5 82q18 41 66.5 38t89.5 -52l76 -90 l-37 110q-20 63 -2 102.5t69 39.5q53 0 73 -39t-1 -103l-41 -116l82 96q43 49 89 52t67 -38q23 -41 -2 -81t-86 -54l-111 -22z" glyph-name="asterisk" horiz-adv-x="722" unicode="*"/><glyph d="M1155 778v-131h-420v-432l-143 2v430h-420v131h422v420h141v-420h420z" glyph-name="plus" horiz-adv-x="1327" unicode="+"/><glyph d="M205 319q117 0 169 -88t52 -213q0 -164 -100.5 -267t-278.5 -132l-12 47q111 27 180.5 118t60.5 212q-41 -29 -100 -29q-68 0 -110.5 45t-42.5 125q0 82 50 132t132 50z" glyph-name="comma" horiz-adv-x="450" unicode=","/><glyph d="M184 645h860v-125h-860v125z" glyph-name="hyphen" horiz-adv-x="1228" unicode="-"/><glyph d="M305 -25q-80 0 -137 56.5t-57 138.5q0 80 57 135t137 55t138.5 -55t58.5 -135t-58.5 -137.5t-138.5 -57.5z" glyph-name="period" horiz-adv-x="612" unicode="."/><glyph d="M1053 1692h190l-1040 -1971h-191z" glyph-name="slash" horiz-adv-x="1255" unicode="/"/><glyph d="M827 -33q-313 0 -519 202t-206 552q0 354 206 558t519 204q311 0 518 -204t207 -558q0 -350 -207 -552t-518 -202zM827 117q125 0 195 153.5t70 450.5q0 299 -70 456.5t-195 157.5t-194.5 -157.5t-69.5 -456.5q0 -297 69.5 -450.5t194.5 -153.5z" glyph-name="zero" horiz-adv-x="1654" unicode="0"/><glyph d="M676 1450v-1264q0 -59 33.5 -82.5t142.5 -42.5v-61h-799v61q109 18 142.5 42t33.5 83v1018h-176v88l127 21q328 49 416 137h80z" glyph-name="one" horiz-adv-x="882" unicode="1"/><glyph d="M1161 580h66v-580h-1149v162q281 178 440.5 412.5t159.5 500.5q0 274 -191 275q-76 0 -137 -33q20 -397 -215 -397q-70 0 -103.5 42t-33.5 109q0 154 153.5 283t430.5 129q256 0 402 -114t146 -325q0 -385 -610 -741h193q219 0 307 54.5t141 222.5z" glyph-name="two" horiz-adv-x="1300" unicode="2"/><glyph d="M831 741q176 -35 270.5 -127t94.5 -237q0 -205 -168 -307.5t-455 -102.5q-250 0 -392 71t-163 204q-10 70 26 124t126 54q207 0 281 -316q29 -4 43 -4q129 0 189 80t60 213q0 131 -65.5 192.5t-218.5 61.5h-152v156h152q133 0 198.5 87t65.5 208q0 115 -52.5 183.5 t-158.5 68.5q-66 0 -125 -25q12 -150 -40 -255t-175 -105q-131 0 -131 151q0 141 158.5 254t435.5 113q541 0 541 -377q0 -119 -89.5 -217.5t-255.5 -147.5z" glyph-name="three" horiz-adv-x="1249" unicode="3"/><glyph d="M1425 328h-206v-142q0 -59 33.5 -82.5t142.5 -42.5v-61h-799v61q109 18 142.5 42t33.5 83v142h-733v100l723 1022h457v-971h206v-151zM264 479h508v707z" glyph-name="four" horiz-adv-x="1474" unicode="4"/><glyph d="M700 858q496 0 496 -434q0 -236 -169 -346.5t-466 -110.5q-258 0 -395 91.5t-137 232.5q0 68 37.5 113t113.5 45t129 -57.5t73.5 -128t25.5 -148.5q35 -14 86 -15q250 0 249 314q0 143 -63.5 218t-169.5 75q-160 0 -262 -113l-103 35l9 821h759q84 0 121 61h70v-413h-795 l-4 -330q147 90 395 90z" glyph-name="five" horiz-adv-x="1255" unicode="5"/><glyph d="M961 864q88 0 165.5 -22.5t142 -69.5t102.5 -131t38 -195q0 -215 -181 -347t-464 -132q-326 0 -494 192.5t-168 549.5q0 334 198 554t572 220q199 0 336.5 -87t137.5 -206q0 -61 -42 -105.5t-118 -44.5q-109 0 -190 82t-115 211q-186 -27 -253 -180.5t-67 -443.5 q136 155 400 155zM764 117q94 0 149.5 84t55.5 223q0 295 -166 295q-150 0 -238 -180q23 -422 199 -422z" glyph-name="six" horiz-adv-x="1470" unicode="6"/><glyph d="M211 1450h891v-166l-416 -1284h-418l611 1094h-859v417h70q14 -37 41 -49t80 -12z" glyph-name="seven" horiz-adv-x="1153" unicode="7"/><glyph d="M909 868q195 -90 289 -204.5t94 -276.5q0 -420 -661 -420q-287 0 -430.5 100.5t-143.5 249.5q2 256 349 359q-281 170 -281 428q0 180 156.5 279.5t410.5 99.5q252 0 392.5 -86t140.5 -234q-2 -98 -86.5 -175t-229.5 -120zM692 1341q-76 0 -129 -44t-53 -115 q0 -82 59.5 -140.5t202.5 -115.5q119 100 119 227q0 92 -53.5 140t-145.5 48zM633 106q119 0 193.5 53.5t74.5 147.5q0 86 -65.5 143.5t-208.5 118.5q-51 20 -88 39q-147 -119 -148 -270q0 -102 60.5 -167t181.5 -65z" glyph-name="eight" horiz-adv-x="1349" unicode="8"/><glyph d="M692 1483q324 0 497 -193.5t173 -552.5q0 -356 -205 -563t-579 -207q-229 0 -366.5 72t-158.5 203q-10 72 28 127t128 55q197 0 274 -309q29 -4 45 -4q209 0 290 144t83 470q-123 -137 -377 -137q-205 0 -337 101.5t-132 316.5q0 213 179 345t458 132zM657 741 q166 0 240 158q-14 233 -67.5 333.5t-145.5 100.5q-86 0 -137 -87t-51 -234q-1 -271 161 -271z" glyph-name="nine" horiz-adv-x="1464" unicode="9"/><glyph d="M330 631q-80 0 -137.5 56t-57.5 138q0 80 57.5 135.5t137.5 55.5t138 -55.5t58 -135.5t-58 -137t-138 -57zM330 -25q-80 0 -137.5 56.5t-57.5 138.5q0 80 57.5 135t137.5 55t138 -55t58 -135t-58 -137.5t-138 -57.5z" glyph-name="colon" horiz-adv-x="661" unicode=":"/><glyph d="M295 631q-80 0 -137.5 56t-57.5 138q0 80 57.5 135.5t137.5 55.5t138.5 -55.5t58.5 -135.5t-58.5 -137t-138.5 -57zM266 319q117 0 169 -88t52 -213q0 -164 -100 -267t-278 -132l-13 47q111 27 180.5 118t61.5 212q-41 -29 -100 -29q-68 0 -111 45t-43 125q0 82 50 132 t132 50z" glyph-name="semicolon" horiz-adv-x="557" unicode=";"/><glyph d="M1110 1006l-788 -316l788 -315l-47 -123l-916 371v135l916 370z" glyph-name="less" horiz-adv-x="1226" unicode="&lt;"/><glyph d="M172 852v131h922v-131h-922zM172 430v131h922v-131h-922z" glyph-name="equal" horiz-adv-x="1267" unicode="="/><glyph d="M164 1128l915 -370v-135l-915 -371l-47 123l788 315l-788 316z" glyph-name="greater" horiz-adv-x="1226" unicode=">"/><glyph d="M657 1483q262 0 398.5 -102.5t136.5 -278.5q0 -184 -137 -286.5t-410 -172.5v-135h-180v182q162 113 218 209t56 221q0 106 -51 166t-149 60q-61 0 -117 -21q18 -158 -25 -253t-155 -95q-70 0 -104 42t-34 109q0 135 151.5 245t401.5 110zM553 360q80 0 138.5 -55 t58.5 -135t-58.5 -137.5t-138.5 -57.5t-137.5 56.5t-57.5 138.5q0 80 57.5 135t137.5 55z" glyph-name="question" horiz-adv-x="1300" unicode="?"/><glyph d="M1036 1423q371 0 599.5 -220t228.5 -548q0 -516 -400 -516q-143 0 -227 72t-96 182q-66 -213 -264 -213q-162 0 -251 108.5t-89 311.5q0 209 88 316.5t252 107.5q184 0 256 -154l256 144h67v-512q0 -135 26.5 -191.5t92.5 -56.5q86 0 135 106.5t49 286.5q0 135 -44 257 t-129 220.5t-227 155.5t-323 57q-348 0 -559 -205.5t-211 -541.5q0 -180 60.5 -319.5t166 -222.5t237.5 -124t286 -39q246 2 428 99l16 -29q-86 -72 -219 -111t-268 -39q-383 0 -596 220.5t-213 564.5q0 360 233 596.5t639 236.5zM995 317q57 0 88 136v354q-20 90 -67 90 q-88 0 -88 -297q-1 -283 67 -283z" glyph-name="at" horiz-adv-x="2009" unicode="@"/><glyph d="M1614 274q45 -109 80 -145.5t118 -67.5v-61h-813v61q131 31 161 73t-9 128l-86 223h-596l-72 -196q-41 -96 -6 -143.5t193 -84.5v-61h-564v61q133 33 209 234l433 1155h501zM522 627h490l-250 651z" glyph-name="A" horiz-adv-x="1832" unicode="A"/><glyph d="M1075 752q250 -16 350.5 -107.5t100.5 -243.5q0 -401 -617 -401h-835v61q109 18 142.5 42t33.5 83v1078q0 59 -34 82.5t-142 42.5v61h846q510 0 510 -330q0 -131 -83.5 -231t-271.5 -137zM715 1309h-19v-496q299 2 299 262q1 234 -280 234zM713 141q203 0 285.5 73 t82.5 210q0 121 -76.5 186.5t-256.5 65.5h-52v-535h17z" glyph-name="B" horiz-adv-x="1601" unicode="B"/><glyph d="M799 -33q-154 0 -289 48t-240.5 139.5t-166 238t-60.5 330.5q0 178 66.5 326.5t176 240.5t245 142.5t280.5 50.5q90 0 171 -16.5t117 -30t95 -41.5q82 -41 124 -27t77 94h57v-665h-86q-27 262 -147.5 401t-298.5 139q-201 0 -308.5 -174t-107.5 -440q0 -256 110.5 -414.5 t325.5 -158.5q176 0 305 99t182 243l70 -15q-43 -205 -221 -357.5t-477 -152.5z" glyph-name="C" horiz-adv-x="1597" unicode="C"/><glyph d="M838 1450q915 0 915 -721q0 -729 -915 -729h-764v61q109 18 142.5 42t33.5 83v1078q0 59 -34 82.5t-142 42.5v61h764zM799 141q494 0 493 588q0 287 -118.5 433.5t-374.5 146.5h-103v-1168h103z" glyph-name="D" horiz-adv-x="1794" unicode="D"/><glyph d="M1380 578h66l-62 -578h-1310v61q109 18 142.5 42t33.5 83v1078q0 61 -34 83.5t-142 41.5v61h1315v-559h-66q-57 252 -139 335t-271 83h-217v-494h84q109 0 161 59.5t85 233.5h66v-729h-66q-33 176 -85 236.5t-161 60.5h-84v-537h168q412 1 516 439z" glyph-name="E" horiz-adv-x="1511" unicode="E"/><glyph d="M1389 1450v-559h-66q-57 252 -139 335t-271 83h-217v-494h84q109 0 161 59.5t85 233.5h66v-729h-66q-33 176 -85 236.5t-161 60.5h-84v-490q0 -59 49.5 -82.5t208.5 -42.5v-61h-880v61q109 18 142.5 42t33.5 83v1078q0 61 -34 83.5t-142 41.5v61h1315z" glyph-name="F" horiz-adv-x="1439" unicode="F"/><glyph d="M1675 729v-61q-96 -18 -125.5 -42t-29.5 -83v-543h-101q-29 57 -56.5 86t-66.5 29q-43 0 -117.5 -37t-189.5 -74t-252 -37q-301 0 -497.5 195.5t-196.5 560.5q0 178 66.5 326.5t175 240.5t241.5 142.5t273 50.5q98 0 181 -14.5t121 -29t99 -42.5q94 -37 126 -24t63 89h63 v-583h-86q-27 221 -147.5 339.5t-298.5 118.5q-201 0 -308.5 -174t-107.5 -440q0 -250 101.5 -411.5t275.5 -161.5q123 0 211 49v344q0 59 -42 82.5t-176 42.5v61h801z" glyph-name="G" horiz-adv-x="1722" unicode="G"/><glyph d="M1829 1389q-109 -18 -142.5 -42t-33.5 -83v-1078q0 -59 33.5 -82.5t142.5 -42.5v-61h-799v61q109 18 142.5 42t33.5 83v504h-510v-504q0 -59 34 -82.5t142 -42.5v-61h-798v61q109 18 142.5 42t33.5 83v1078q0 61 -34 83.5t-142 41.5v61h798v-61q-109 -18 -142.5 -42 t-33.5 -83v-433h510v433q0 59 -33.5 82.5t-142.5 42.5v61h799v-61z" glyph-name="H" horiz-adv-x="1902" unicode="H"/><glyph d="M872 1389q-109 -18 -142.5 -42t-33.5 -83v-1078q0 -59 34 -82.5t142 -42.5v-61h-798v61q109 18 142.5 42t33.5 83v1078q0 61 -34 83.5t-142 41.5v61h798v-61z" glyph-name="I" horiz-adv-x="946" unicode="I"/><glyph d="M434 1450h826v-61q-100 -18 -131 -48t-31 -118v-641q0 -614 -590 -615q-240 0 -351.5 88t-111.5 205q0 76 43 120t115 44q94 0 163.5 -90t100.5 -234q184 51 184 318v805q0 90 -40 118.5t-177 47.5v61z" glyph-name="J" horiz-adv-x="1304" unicode="J"/><glyph d="M1593 244q55 -90 91 -120t120 -63v-61h-823v61q106 20 127.5 56.5t-27.5 111.5l-278 449l-107 -96v-396q0 -61 29 -83.5t129 -41.5v-61h-780v61q109 18 142.5 42t33.5 83v1078q0 59 -34 82.5t-142 42.5v61h798v-61q-109 -18 -142.5 -42t-33.5 -83v-514l441 401 q215 195 -80 238v61h678v-61q-180 -35 -467 -293l-131 -119z" glyph-name="K" horiz-adv-x="1841" unicode="K"/><glyph d="M1380 578h66l-62 -578h-1310v61q109 18 142.5 42t33.5 83v1078q0 61 -34 83.5t-142 41.5v61h880v-61q-162 -18 -210 -41t-48 -84v-1125h168q407 1 516 439z" glyph-name="L" horiz-adv-x="1488" unicode="L"/><glyph d="M2318 1389q-109 -18 -143.5 -42t-34.5 -83v-1006q0 -96 44 -135t134 -62v-61h-811v61q119 18 153 52t34 145v889l-557 -1000h-154l-573 963v-797q0 -129 60 -179t177 -73v-61h-594v61q68 16 101.5 32t63.5 70t30 150v951q0 59 -33 82.5t-141 42.5v61h657l492 -827 l463 827h632v-61z" glyph-name="M" horiz-adv-x="2392" unicode="M"/><glyph d="M1188 1450h579v-61q-96 -23 -145 -66t-49 -154v-1169h-367l-803 1042v-761q0 -111 58.5 -154t173.5 -66v-61h-582v61q98 23 147.5 66t49.5 154v983q0 59 -34 82.5t-142 42.5v61h577l768 -995v714q0 111 -58 154t-173 66v61z" glyph-name="N" horiz-adv-x="1818" unicode="N"/><glyph d="M891 -33q-365 0 -606.5 202t-241.5 552q0 354 241.5 558t606.5 204q236 0 426 -87t306 -263.5t116 -411.5q0 -233 -116 -407.5t-306 -260.5t-426 -86zM891 117q178 0 282.5 168t104.5 436q0 274 -104.5 444t-282.5 170t-282.5 -170t-104.5 -444q0 -268 104.5 -436 t282.5 -168z" glyph-name="O" horiz-adv-x="1779" unicode="O"/><glyph d="M940 578h-244v-371q0 -74 49.5 -100.5t208.5 -45.5v-61h-880v61q109 18 142.5 42t33.5 83v1078q0 59 -34 82.5t-142 42.5v61h911q258 0 391 -109.5t133 -306.5q0 -221 -150.5 -338.5t-418.5 -117.5zM760 1309h-64v-590h64q166 0 240.5 72.5t74.5 222t-74.5 222.5 t-240.5 73z" glyph-name="P" horiz-adv-x="1560" unicode="P"/><glyph d="M1255 -180q109 0 176.5 32.5t143.5 120.5l61 -18q-61 -250 -161.5 -351.5t-272.5 -101.5q-117 0 -218 30t-161.5 65.5t-140.5 65.5t-158 30q-80 0 -184 -47l-49 100l373 244q-279 57 -450 248.5t-171 482.5q0 354 241.5 558t606.5 204q236 0 426 -87t306 -263.5 t116 -411.5q0 -233 -116 -407.5t-306.5 -260.5t-425.5 -86q-41 0 -62 2l-165 -104q119 4 298.5 -20.5t292.5 -24.5zM891 1335q-178 0 -282.5 -170t-104.5 -444q0 -268 104.5 -436t282.5 -168t282.5 168t104.5 436q0 274 -104.5 444t-282.5 170z" glyph-name="Q" horiz-adv-x="1820" unicode="Q"/><glyph d="M1651 317l47 -18q-37 -156 -131 -244t-232 -88q-158 0 -237.5 83t-112.5 290q-23 139 -68 217t-95 101.5t-126 27.5v-479q0 -74 37 -100.5t160 -45.5v-61h-819v61q109 18 142.5 42t33.5 83v1078q0 59 -34 82.5t-142 42.5v61h927q270 0 389 -88t119 -252 q0 -168 -146 -270.5t-402 -108.5q186 -20 285.5 -96t139.5 -246q25 -111 51.5 -152.5t75.5 -41.5q75 -1 138 122zM696 821h27q352 0 352 266q0 221 -299 222h-80v-488z" glyph-name="R" horiz-adv-x="1691" unicode="R"/><glyph d="M905 295q0 94 -64.5 144t-226.5 91q-272 63 -400 191.5t-128 341.5q0 195 127 307.5t340 112.5q35 0 65.5 -2t63.5 -9.5t53.5 -11.5t54 -16t45 -16.5t48.5 -19.5t43 -17q123 -49 164 63h53v-536h-66q-29 209 -148.5 313t-266.5 104q-207 0 -207 -166q0 -88 66.5 -135 t221.5 -84q274 -66 399.5 -185.5t125.5 -346.5q0 -223 -152.5 -337t-400.5 -114q-176 0 -357 76q-61 27 -98 27t-53.5 -16.5t-34.5 -53.5h-53v539h65q23 -127 77 -216.5t126 -131t137.5 -59t132.5 -17.5q248 0 248 180z" glyph-name="S" horiz-adv-x="1361" unicode="S"/><glyph d="M1499 1450v-621h-65q-57 291 -139.5 387.5t-270.5 96.5h-8v-1127q0 -59 38 -82.5t158 -42.5v-61h-839v61q121 18 158.5 42t37.5 83v1127h-8q-188 0 -270 -96.5t-139 -387.5h-66v621h1413z" glyph-name="T" horiz-adv-x="1585" unicode="T"/><glyph d="M207 690v574q0 57 -36 80.5t-126 44.5v61h758v-61q-94 -18 -122 -41t-28 -84v-748q0 -401 273 -401q268 0 268 401v748q0 61 -34 84.5t-138 40.5v61h780v-61q-92 -18 -127 -43t-35 -82v-574q0 -197 -53 -340t-152.5 -225t-224.5 -120t-284 -38q-332 0 -525.5 170 t-193.5 553z" glyph-name="U" horiz-adv-x="1847" unicode="U"/><glyph d="M1260 1450h522v-61q-88 -25 -121 -58t-68 -123l-452 -1208h-482l-460 1176q-35 106 -68 143t-111 70v61h773v-61q-131 -31 -161 -73t9 -128l397 -1012l377 1012q33 90 3.5 127t-158.5 74v61z" glyph-name="V" horiz-adv-x="1802" unicode="V"/><glyph d="M2429 1450h522v-61q-88 -25 -120.5 -58t-67.5 -123l-453 -1208h-481l-352 1061l-336 -1061h-482l-460 1176q-35 106 -68 143t-111 70v61h773v-61q-131 -31 -161 -73t9 -128l393 -1002l309 1002q29 90 0.5 127t-155.5 74v61h846v-61q-129 -29 -158 -73t6 -128l328 -1004 l375 1004q33 90 3 127t-159 74v61z" glyph-name="W" horiz-adv-x="2971" unicode="W"/><glyph d="M1536 238q57 -84 101 -119t112 -58v-61h-887v61q135 18 160 75t-39 140l-248 369l-239 -369q-63 -94 -36 -147t158 -68v-61h-569v61q80 23 141.5 65t126.5 142l316 477l-336 467q-70 94 -120 126t-128 51v61h889v-61q-117 -18 -139.5 -66.5t43.5 -136.5l215 -301l188 266 q47 66 60.5 112t-6 71.5t-51 37.5t-83.5 17v61h564v-61q-86 -20 -148.5 -63.5t-140.5 -151.5l-281 -388z" glyph-name="X" horiz-adv-x="1798" unicode="X"/><glyph d="M1204 1450h545v-61q-170 -39 -246 -156l-358 -547v-500q0 -59 33.5 -82.5t142.5 -42.5v-61h-799v61q109 18 142.5 42t33.5 83v428l-401 598q-57 86 -113.5 122t-134.5 55v61h895v-61q-117 -18 -139.5 -63.5t37.5 -139.5l233 -367l203 332q55 90 56 141t-30.5 68.5 t-99.5 28.5v61z" glyph-name="Y" horiz-adv-x="1777" unicode="Y"/><glyph d="M92 0v100l684 1209h-209q-201 0 -292 -95.5t-138 -355.5h-65v592h1224v-86l-694 -1223h207q211 0 302 90.5t149 348.5h65v-580h-1233z" glyph-name="Z" horiz-adv-x="1392" unicode="Z"/><glyph d="M655 -86h217v-131h-622v1890h622v-131h-217v-1628z" glyph-name="bracketleft" horiz-adv-x="946" unicode="["/><glyph d="M203 1692l1040 -1971h-190l-1041 1971h191z" glyph-name="backslash" horiz-adv-x="1255" unicode="\"/><glyph d="M291 -86v1628h-217v131h622v-1890h-622v131h217z" glyph-name="bracketright" horiz-adv-x="946" unicode="]"/><glyph glyph-name="asciicircum" horiz-adv-x="1228" unicode="^"/><glyph d="M184 -66h891v-124h-891v124z" glyph-name="underscore" horiz-adv-x="1259" unicode="_"/><glyph d="M1159 193l55 -23q-72 -195 -305 -195q-197 0 -243 168q-127 -176 -349 -176q-129 0 -191.5 63.5t-62.5 162.5q0 68 23 120t80 103t172 91t285 66v119q0 102 -29 142t-94 40q-37 0 -88 -14q16 -90 9 -147.5t-41 -90t-69 -45t-73 -12.5q-68 0 -100 35t-32 92 q0 123 153 223.5t374 100.5q188 0 294.5 -86t106.5 -316v-426q0 -70 45 -69.5t80 74.5zM522 188q51 0 101 43v238q-176 -61 -177 -186q0 -43 20.5 -69t55.5 -26z" glyph-name="a" horiz-adv-x="1202" unicode="a"/><glyph d="M827 1016q182 0 306 -138.5t124 -392.5q0 -252 -128 -385t-330 -133q-244 0 -338 158l-248 -125h-78v1266q0 72 -19.5 92t-97.5 37v61l529 103v-674q94 131 280 131zM662 115q164 0 163 370q0 184 -35.5 281.5t-99.5 97.5q-47 0 -85 -45t-58 -123v-512q41 -69 115 -69z " glyph-name="b" horiz-adv-x="1304" unicode="b"/><glyph d="M694 106q137 0 246 132l74 -66q-154 -205 -443 -205q-242 0 -383 138.5t-141 390.5t153.5 386t405.5 134q199 0 313.5 -90t114.5 -205q0 -59 -35.5 -99t-107.5 -40q-197 0 -197 307q-10 2 -28 2q-186 0 -187 -395q0 -197 45 -293.5t170 -96.5z" glyph-name="c" horiz-adv-x="1069" unicode="c"/><glyph d="M1176 186q0 -61 31.5 -83.5t138.5 -41.5v-61h-553v143q-94 -176 -312 -176q-182 0 -306 135.5t-124 384.5q0 258 127 393.5t326 135.5q164 0 258 -88v344q0 63 -28.5 82.5t-147.5 36.5v61l590 82v-1348zM621 98q98 0 141 174v490q-37 127 -129 127q-72 0 -111 -103.5 t-39 -298.5q0 -186 37.5 -287.5t100.5 -101.5z" glyph-name="d" horiz-adv-x="1325" unicode="d"/><glyph d="M606 1016q113 0 203 -26.5t168 -87t114.5 -176.5t24.5 -277h-637q6 -166 60.5 -248t175.5 -82q180 0 309 133l63 -66q-88 -111 -196.5 -165t-276.5 -54q-262 0 -414.5 138.5t-152.5 390.5q0 246 166 383t393 137zM602 887q-49 0 -83 -85t-40 -249h228q-7 334 -105 334z " glyph-name="e" horiz-adv-x="1159" unicode="e"/><glyph d="M586 1561q172 0 297 -71t125 -165q0 -66 -40 -99.5t-102 -33.5q-88 0 -139 74.5t-51 169.5q-98 -14 -98 -166v-287h213v-125h-213v-672q0 -61 35.5 -83.5t154.5 -41.5v-61h-733v61q82 18 106.5 42t24.5 83v672h-131v125h131v117q0 461 420 461z" glyph-name="f" horiz-adv-x="796" unicode="f"/><glyph d="M641 219q231 -14 345 -80.5t114 -218.5q0 -338 -568 -338q-274 0 -409 42t-135 151q0 145 278 157q-170 61 -170 211q0 164 197 209q-217 92 -217 310q0 125 77.5 208.5t176 114.5t207.5 31q63 0 112 -10q154 197 320 219q63 8 108 -21.5t51 -87.5q8 -66 -28.5 -115 t-93.5 -49q-86 0 -172 103q-47 -31 -86 -74q250 -88 249 -319q0 -96 -44 -169t-115.5 -111t-147.5 -56.5t-153 -18.5h-2q-195 0 -195 -39q0 -31 301 -49zM536.5 891q-100.5 0 -100.5 -229q0 -227 100.5 -227.5t100.5 227.5q0 229 -100.5 229zM561 -287q104 0 171 24.5 t67 65.5q0 37 -47 54.5t-191 25.5q-66 4 -94 8q-160 -16 -160 -86q0 -92 254 -92z" glyph-name="g" horiz-adv-x="1110" unicode="g"/><glyph d="M1235 186q0 -61 23.5 -83.5t99.5 -41.5v-61h-625v61q49 20 67.5 44t18.5 81v490q0 119 -84 119q-102 0 -164 -170v-439q0 -57 18.5 -80.5t67.5 -44.5v-61h-612v61q72 18 93.5 42t21.5 83v1106q0 55 -16.5 72.5t-84.5 36.5v61l512 82v-762q115 233 349 234q315 0 315 -354 v-476z" glyph-name="h" horiz-adv-x="1382" unicode="h"/><glyph d="M381 1100q-92 0 -158.5 65.5t-66.5 159.5q0 92 66.5 156.5t158.5 64.5t158.5 -64.5t66.5 -156.5q0 -94 -66.5 -159.5t-158.5 -65.5zM602 186q0 -59 21.5 -82.5t93.5 -42.5v-61h-645v61q72 18 93 42t21 83v547q0 55 -16 72.5t-84 36.5v61l516 103v-820z" glyph-name="i" horiz-adv-x="772" unicode="i"/><glyph d="M299 1100q-92 0 -158.5 65.5t-66.5 159.5q0 92 66.5 156.5t158.5 64.5t158.5 -64.5t66.5 -156.5q0 -94 -66.5 -159.5t-158.5 -65.5zM-12 924l549 82v-824q0 -600 -482 -600q-299 0 -299 162q0 53 32 89t85 36q104 0 193 -178q59 53 59 241v822q0 55 -22.5 72.5 t-114.5 35.5v62z" glyph-name="j" horiz-adv-x="602" unicode="j"/><glyph d="M1212 242q45 -80 85 -119t96 -62v-61h-680v61q61 20 75.5 52t-18.5 94l-133 242l-66 -52v-211q0 -57 18.5 -80.5t67.5 -44.5v-61h-612v61q72 18 93.5 42t21.5 83v1110q0 51 -18.5 70.5t-84.5 34.5v61l514 94v-1030l293 230q66 51 50.5 101t-103.5 65v61h539v-61 q-160 -37 -353 -189l-41 -33z" glyph-name="k" horiz-adv-x="1388" unicode="k"/><glyph d="M575 186q0 -59 21.5 -82.5t93.5 -42.5v-61h-641v61q72 18 93.5 42t21.5 83v1114q0 55 -20.5 74t-98.5 35v61l530 82v-1366z" glyph-name="l" horiz-adv-x="716" unicode="l"/><glyph d="M1921 186q0 -61 23.5 -83.5t99.5 -41.5v-61h-625v61q49 20 67.5 44t18.5 81v490q0 119 -82 119q-102 0 -161 -158v-451q0 -57 18 -80.5t68 -44.5v-61h-588v61q49 20 67.5 44t18.5 81v490q0 119 -84 119q-100 0 -160 -158v-451q0 -57 18.5 -80.5t67.5 -44.5v-61h-616v61 q72 18 93 42t21 83v570q0 55 -18 72.5t-96 35.5v62l530 82v-203q57 104 148.5 157.5t195.5 53.5q254 0 303 -234q57 117 151.5 175.5t205.5 58.5q315 0 315 -354v-476z" glyph-name="m" horiz-adv-x="2068" unicode="m"/><glyph d="M1262 186q0 -61 23.5 -83.5t98.5 -41.5v-61h-624v61q49 20 67.5 44t18.5 81v490q0 119 -84 119q-100 0 -160 -158v-451q0 -57 18.5 -80.5t67.5 -44.5v-61h-616v61q72 18 93 42t21 83v559q0 55 -20.5 77t-93.5 44v62l530 82v-219q115 225 344 225q315 0 316 -354v-476z " glyph-name="n" horiz-adv-x="1409" unicode="n"/><glyph d="M633 -27q-260 0 -423 131.5t-163 378.5q0 258 163 395.5t423 137.5t423 -137.5t163 -395.5q0 -248 -163 -379t-423 -131zM633 102q78 0 115.5 88.5t37.5 292.5q0 403 -153.5 403.5t-153.5 -403.5q0 -205 38 -293t116 -88z" glyph-name="o" horiz-adv-x="1265" unicode="o"/><glyph d="M846 1016q182 0 306 -135.5t124 -386.5q0 -260 -127 -394.5t-326 -134.5q-164 0 -258 82v-246q0 -59 38 -82.5t153 -42.5v-61h-733v61q86 18 108.5 41t22.5 84v953q0 53 -25 72.5t-100 33.5v62l536 84v-121q95 131 281 131zM694 92q150 0 150 402q0 186 -37 288.5 t-100 102.5q-98 0 -142 -180v-490q37 -123 129 -123z" glyph-name="p" horiz-adv-x="1323" unicode="p"/><glyph d="M1171 -199q0 -59 25 -82.5t104 -42.5v-61h-733v61q119 18 155 41t36 84v297q-96 -131 -283 -131q-182 0 -306 135.5t-124 384.5q0 258 127 393.5t326 135.5q229 0 325 -162l273 129h75v-1182zM612 98q102 0 146 185v473q-37 133 -125 133q-156 0 -156 -402 q0 -186 36 -287.5t99 -101.5z" glyph-name="q" horiz-adv-x="1294" unicode="q"/><glyph d="M893 1016q172 0 172 -154q0 -74 -42 -119t-103 -45q-102 0 -187 107q-86 -113 -131 -332v-287q0 -57 44 -80.5t163 -44.5v-61h-737v61q72 18 93 42t21 83v570q0 55 -18 72.5t-96 35.5v62l530 82v-248q92 256 291 256z" glyph-name="r" horiz-adv-x="1056" unicode="r"/><glyph d="M608 666q199 -45 280 -134.5t81 -232.5q0 -172 -109.5 -252t-290.5 -80q-188 0 -327 109l-70 -76h-78v395h86q16 -117 96 -204t224 -87q154 0 153 99q0 43 -28.5 65.5t-106.5 36.5q-254 51 -347 155.5t-93 246.5q0 145 97 227t296 82q170 0 301 -103l45 70h78v-346h-86 q-14 115 -100 182.5t-191 67.5q-125 0 -125 -84q0 -43 43 -74.5t172 -62.5z" glyph-name="s" horiz-adv-x="1048" unicode="s"/><glyph d="M809 254l70 -53q-33 -66 -74 -111t-131 -84t-215 -39q-340 0 -340 389v502h-125v125h168l293 313h80v-313h292v-125h-292v-590q0 -152 96 -151q106 0 178 137z" glyph-name="t" horiz-adv-x="886" unicode="t"/><glyph d="M1217 186q0 -59 24.5 -82.5t104.5 -42.5v-61h-547v168q-102 -201 -340 -201q-322 0 -322 365v465q0 59 -26.5 81.5t-102.5 43.5v61h547v-655q0 -141 84 -142q113 0 160 222v389q0 61 -25.5 83.5t-111.5 41.5v61h555v-797z" glyph-name="u" horiz-adv-x="1390" unicode="u"/><glyph d="M909 983h412v-61q-100 -35 -145 -140l-332 -782h-363l-329 766q-31 72 -65 106.5t-85 49.5v61h729v-61q-172 -29 -96 -217l178 -447l182 455q39 104 18.5 147t-104.5 62v61z" glyph-name="v" horiz-adv-x="1323" unicode="v"/><glyph d="M1565 983h424v-61q-88 -35 -129 -140l-308 -782h-319l-238 598l-239 -598h-316l-307 782q-25 63 -52.5 92t-76.5 48v61h707v-61q-94 -18 -124 -51t-7 -95l163 -450l258 657h281l258 -655l143 379q37 98 9.5 147t-127.5 68v61z" glyph-name="w" horiz-adv-x="1992" unicode="w"/><glyph d="M1104 238q106 -143 209 -177v-61h-799v61q61 14 93 36t33 48.5t-7 47t-31 51.5l-127 180l-119 -188q-29 -47 -37 -77t6.5 -49.5t34 -28.5t58.5 -20v-61h-404v61q55 18 102.5 60.5t104.5 132.5l178 274l-161 230q-96 129 -207 164v61h786v-61q-96 -27 -114.5 -67 t34.5 -103l119 -166l92 153q51 82 39 122t-94 61v61h391v-61q-92 -41 -166 -154l-186 -289z" glyph-name="x" horiz-adv-x="1327" unicode="x"/><glyph d="M895 983h420v-61q-63 -12 -93 -44t-57 -96l-270 -653q-227 -547 -643 -547q-219 0 -219 168q0 63 43 108.5t108 45.5q111 0 226 -191q80 37 153 113l-426 956q-33 72 -58.5 98.5t-74.5 41.5v61h705v-61q-68 -12 -90.5 -66.5t12.5 -150.5l178 -449l180 449 q35 74 23.5 119.5t-38 65t-79.5 32.5v61z" glyph-name="y" horiz-adv-x="1318" unicode="y"/><glyph d="M553 123h70q86 0 135 12t82.5 55t51 92.5t42.5 153.5h86v-436h-969v84l473 776h-116q-139 0 -191 -76q-27 -41 -76 -217h-86v416h957v-84z" glyph-name="z" horiz-adv-x="1079" unicode="z"/><glyph d="M381 737q152 -20 234.5 -97t82.5 -200q0 -68 -12 -184.5t-12 -192.5q0 -209 274 -196l13 -74q-193 -37 -343.5 -22.5t-241.5 106.5t-91 250q0 74 13 185.5t13 193.5q0 162 -129 162h-86v143h84q135 0 135 158q0 82 -13 193.5t-13 185.5q0 158 91 250t241.5 106t343.5 -23 l-13 -73q-274 12 -274 -197q0 -76 12 -192.5t12 -184.5q0 -123 -83.5 -200t-237.5 -97z" glyph-name="braceleft" horiz-adv-x="1069" unicode="{"/><glyph d="M393 -293v1927h154v-1927h-154z" glyph-name="bar" horiz-adv-x="940" unicode="|"/><glyph d="M688 737q-154 20 -237.5 97t-83.5 200q0 68 12 184.5t12 192.5q0 209 -274 197l-13 73q193 37 343.5 23t241.5 -106.5t91 -249.5q0 -74 -13 -185.5t-13 -193.5q0 -158 135 -158h84v-143h-86q-129 0 -129 -162q0 -82 13 -193.5t13 -185.5q0 -158 -91 -250t-241.5 -106.5 t-342.5 22.5l12 74q274 -12 274 196q0 76 -12 193t-12 184q0 123 82.5 200t234.5 97z" glyph-name="braceright" horiz-adv-x="1069" unicode="}"/><glyph glyph-name="asciitilde" horiz-adv-x="1228" unicode="~"/><glyph d="M303 1016q80 0 138.5 -57.5t58.5 -137.5t-58.5 -135t-138.5 -55t-137 55t-57 135q0 82 57 138.5t137 56.5zM305 -492q-127 0 -175 90.5t-15 235.5l151 684h78l152 -684q33 -147 -14.5 -236.5t-176.5 -89.5z" glyph-name="exclamdown" horiz-adv-x="610" unicode="¡"/><glyph d="M713 383q154 0 262 129l74 -66q-125 -166 -357 -196v-252l-141 2v242q-221 6 -353 134t-132 353q0 219 135 343t350 134v244h141v-248q174 -20 267.5 -103t93.5 -186q0 -59 -36 -99t-108 -40q-111 0 -156.5 89t-41.5 218q-8 2 -27 2q-186 0 -186 -354q0 -172 46 -259 t169 -87z" glyph-name="cent" horiz-adv-x="1093" unicode="¢"/><glyph d="M1407 618q37 -309 -71.5 -479t-331.5 -170q-186 0 -353 148q-139 -117 -338 -117q-131 0 -193.5 65.5t-62.5 167.5q0 98 74 165t201 67q68 0 164 -19q-14 43 -36 83t-64 104.5t-52 83.5h-274v141h202q-41 109 -41 229q0 111 40 191t111 124t153.5 63.5t183.5 19.5 q152 0 267.5 -32t178 -84t93 -108.5t30.5 -111.5q0 -61 -38 -101t-109 -40q-207 0 -195 309q-45 10 -86 10q-195 0 -194 -190q0 -47 13 -101.5t23.5 -81t38.5 -96.5h365v-141h-311q33 -121 32 -236q0 -61 -14 -112q102 -23 207 -23q141 0 222 62.5t99 209.5h66zM317 139 q57 0 109.5 30t75.5 85q-90 70 -176 70q-51 0 -81 -25t-30 -68t26.5 -67.5t75.5 -24.5z" glyph-name="sterling" horiz-adv-x="1480" unicode="£"/><glyph glyph-name="currency" horiz-adv-x="1228" unicode="¤"/><glyph d="M1606 1389q-141 -35 -226 -156l-280 -397h338v-142h-375v-221h375v-141h-375v-146q0 -59 33.5 -82.5t142.5 -42.5v-61h-799v61q109 18 142.5 42t33.5 83v146h-374v141h374v221h-374v142h286l-272 376q-63 86 -111.5 123t-115.5 54v61h874v-61q-117 -18 -141.5 -65.5 t39.5 -137.5l194 -277l160 242q57 86 58 138t-31.5 70.5t-100.5 29.5v61h525v-61z" glyph-name="yen" horiz-adv-x="1634" unicode="¥"/><glyph d="M393 750v884h154v-884h-154zM547 592v-885h-154v885h154z" glyph-name="brokenbar" horiz-adv-x="940" unicode="¦"/><glyph d="M1288 676q0 -125 -89 -203t-243 -104q111 -51 162 -124t51 -190q0 -150 -109.5 -247t-291.5 -97q-170 0 -336 74q-66 29 -91.5 19.5t-51.5 -64.5h-53v412h65q23 -150 115 -221.5t235 -71.5q180 0 180 106q0 57 -60 93t-216 77q-223 61 -332.5 152.5t-109.5 240.5 q0 125 91 202t259 99q-244 123 -244 342q0 139 94.5 225.5t264.5 86.5q27 0 53 -1t51 -5t43 -6.5t40.5 -9.5t35 -10t34 -11t28.5 -10.5t28.5 -11.5t23.5 -9q82 -29 110 -19.5t54 64.5h54v-412h-66q-18 147 -119.5 220t-245.5 73q-147 0 -147 -100q0 -63 66.5 -99t224.5 -77 q231 -59 336.5 -142t105.5 -241zM754 440q96 0 154.5 35t58.5 94.5t-50.5 90t-199.5 75.5l-62 19q-102 4 -161.5 -28t-59.5 -93q0 -63 56.5 -100t193.5 -74z" glyph-name="section" horiz-adv-x="1402" unicode="§"/><glyph d="M837.5 -33q-333.5 0 -551.5 219.5t-218 538.5t218 538.5t551.5 219.5t552 -219.5t218.5 -538.5t-218.5 -538.5t-552 -219.5zM837.5 1397q-282.5 0 -478 -188.5t-195.5 -483.5t195.5 -483.5t478 -188.5t478 188.5t195.5 483.5t-195.5 483.5t-478 188.5zM950 436 q166 0 234 158l41 -8q-25 -127 -117 -212t-262 -85q-180 0 -303 105.5t-123 336.5q0 117 38 207t97 139t121.5 74t124.5 25q27 0 50 -1t45 -5.5t37 -7.5t34.5 -9t29 -9t28.5 -10.5t26 -9.5q47 -18 72.5 -11t43.5 50h58v-368h-74q-27 125 -82 189.5t-125 64.5q-94 0 -143 -79 t-49 -229q-1 -305 198 -305z" glyph-name="copyright" horiz-adv-x="1675" unicode="©"/><glyph d="M975 852l-213 -295l213 -295l-27 -39l-274 142q-86 43 -125 86t-39 106q0 61 37 97t131 89l270 148zM584 838l-213 -295l213 -295l-27 -39l-274 141q-86 43 -125 86t-39 107q0 61 37 97t131 89l270 148z" glyph-name="guillemotleft" horiz-adv-x="1128" unicode="«"/><glyph glyph-name="logicalnot" horiz-adv-x="1228" unicode="¬"/><glyph d="M612.5 1483q204.5 0 344 -131t139.5 -340t-139.5 -341t-344 -132t-344 131t-139.5 340t139.5 341t344 132zM612.5 612q163.5 0 281.5 106.5t118 293.5q0 184 -118 290.5t-282 106.5q-162 0 -280.5 -106.5t-118.5 -292.5q0 -184 118 -291t281.5 -107zM913 899l25 -6 q-27 -109 -141 -109q-109 0 -127 123q-12 55 -30.5 71.5t-57.5 16.5v-121q0 -25 12 -32.5t53 -14.5v-32h-303v32q35 6 46 13.5t11 27.5v312q0 20 -11 27t-46 14v32h338q178 0 178 -106q0 -51 -42 -86t-113 -45q109 -12 129 -94q14 -61 38 -62q23 0 41 39zM582 1053h12 q92 0 92 77q0 63 -92 64h-12v-141z" glyph-name="registered" horiz-adv-x="1228" unicode="®"/><glyph d="M502 754q-158 0 -266.5 101t-108.5 263q0 160 108.5 262.5t266.5 102.5q160 0 267.5 -101.5t107.5 -263.5t-107.5 -263t-267.5 -101zM502 889q90 0 156.5 61.5t66.5 167.5q0 109 -66.5 169.5t-156.5 60.5t-155.5 -61.5t-65.5 -168t65.5 -168t155.5 -61.5z" glyph-name="degree" horiz-adv-x="1003" unicode="°"/><glyph d="M735 922h420v-131h-420v-320l-143 2v318h-420v131h422v307h141v-307zM172 182v131h983v-131h-983z" glyph-name="plusminus" horiz-adv-x="1327" unicode="±"/><glyph d="M1618 1450v-61q-109 -18 -142.5 -42t-33.5 -83v-1387h-242v1432h-133v-1432h-242v578h-108q-305 0 -465 132t-160 386q0 248 157 362.5t468 114.5h901zM526 952q0 -346 299 -356v713q-299 -11 -299 -357z" glyph-name="paragraph" horiz-adv-x="1744" unicode="¶"/><glyph d="M305 455q-80 0 -137 56t-57 138q0 80 57 135.5t137 55.5t138.5 -55.5t58.5 -135.5t-58.5 -137t-138.5 -57z" glyph-name="periodcentered" horiz-adv-x="612" unicode="·"/><glyph d="M618 557q0 -63 -38.5 -106t-124.5 -86l-275 -142l-26 39l213 295l-213 295l26 39l271 -148q94 -53 130.5 -89t36.5 -97zM842 729q94 -53 131 -89t37 -97q0 -63 -39 -106.5t-125 -86.5l-275 -141l-26 39l213 295l-213 295l26 39z" glyph-name="guillemotright" horiz-adv-x="1128" unicode="»"/><glyph d="M584 776v-49h-576v49q51 6 74.5 17.5t28 19.5t4.5 27v432h-107v74l70 6q260 25 334 98h65v-610q0 -20 4 -28.5t28 -19t75 -16.5zM1251 1450h232l-1114 -1450h-232zM1608 162h-127v-51q0 -27 19.5 -39.5t92.5 -22.5v-49h-587v49q53 8 77.5 17.5t28.5 17.5t4 27v51h-383v69 l379 486h369v-445h127v-110zM909 272h207v258z" glyph-name="onequarter" horiz-adv-x="1650" unicode="¼"/><glyph d="M584 776v-49h-576v49q51 6 74.5 17.5t28 19.5t4.5 27v432h-107v74l70 6q260 25 334 98h65v-610q0 -20 4 -28.5t28 -19t75 -16.5zM1235 1450h231l-1114 -1450h-231zM1626 346h51v-346h-770v127q166 82 255 184.5t89 215t-96 112.5q-20 0 -31 -2q-4 -233 -157 -234 q-49 0 -74 29t-25 74q0 90 103.5 162.5t271.5 72.5q375 0 375 -227q0 -98 -72.5 -170t-222.5 -129h45q115 0 171 25.5t87 105.5z" glyph-name="onehalf" horiz-adv-x="1695" unicode="½"/><glyph d="M784 932q0 -113 -99 -160t-320 -47q-348 0 -349 164q0 41 26 69.5t79 28.5q119 0 174 -170h6q115 0 115 115q0 109 -140 108h-120v117h120q63 0 97.5 38t34.5 87q0 102 -111 102h-2q-10 -70 -53 -124t-121 -54q-90 0 -90 82t103.5 136.5t266.5 54.5q375 0 375 -187 q0 -143 -196 -182q115 -20 159.5 -65t44.5 -113zM1343 1450h232l-1114 -1450h-232zM1700 162h-127v-51q0 -27 19.5 -39.5t93.5 -22.5v-49h-588v49q53 8 77.5 17.5t28.5 17.5t4 27v51h-383v69l379 486h369v-445h127v-110zM1001 272h207v258z" glyph-name="threequarters" horiz-adv-x="1742" unicode="¾"/><glyph d="M743.5 631q-79.5 0 -138 55t-58.5 135t58.5 137.5t138 57.5t137 -56.5t57.5 -138.5q0 -80 -57.5 -135t-137 -55zM1055 14q70 0 103.5 -42t33.5 -109q0 -135 -151.5 -245t-401.5 -110q-262 0 -398.5 102.5t-136.5 278.5q0 184 137.5 287t409.5 172v135h180v-182 q-162 -113 -218 -209t-56 -221q0 -106 51 -165.5t150 -59.5q61 0 116 20q-18 158 25 253t156 95z" glyph-name="questiondown" horiz-adv-x="1218" unicode="¿"/><glyph d="M713 1731q-102 76 -102.5 169t75.5 128q80 37 151.5 -10.5t82.5 -172.5l20 -254l-22 -12zM1614 274q45 -109 80 -145.5t118 -67.5v-61h-813v61q131 31 161 73t-9 128l-86 223h-596l-72 -196q-41 -96 -6 -143.5t193 -84.5v-61h-564v61q133 33 209 234l433 1155h501z M522 627h490l-250 651z" glyph-name="Agrave" horiz-adv-x="1832" unicode="À"/><glyph d="M1075 1731l-205 -152l-22 12l20 254q10 125 82 172t152 11q76 -35 75.5 -128t-102.5 -169zM1614 274q45 -109 80 -145.5t118 -67.5v-61h-813v61q131 31 161 73t-9 128l-86 223h-596l-72 -196q-41 -96 -6 -143.5t193 -84.5v-61h-564v61q133 33 209 234l433 1155h501z M522 627h490l-250 651z" glyph-name="Aacute" horiz-adv-x="1832" unicode="Á"/><glyph d="M887 1769l-275 -172l-20 17l123 250q43 86 82 120.5t90 34.5t90 -34.5t82 -120.5l123 -250l-21 -17zM1614 274q45 -109 80 -145.5t118 -67.5v-61h-813v61q131 31 161 73t-9 128l-86 223h-596l-72 -196q-41 -96 -6 -143.5t193 -84.5v-61h-564v61q133 33 209 234l433 1155 h501zM522 627h490l-250 651z" glyph-name="Acircumflex" horiz-adv-x="1832" unicode="Â"/><glyph d="M717 1729q-35 0 -64.5 -16.5t-44 -31t-39.5 -47.5l-41 13q23 147 87.5 228t154.5 81q61 0 144 -47t141 -47q35 0 64.5 16t44 30.5t38.5 47.5l41 -12q-23 -147 -87 -228.5t-155 -81.5q-61 0 -144 47.5t-140 47.5zM1614 274q45 -109 80 -145.5t118 -67.5v-61h-813v61 q131 31 161 73t-9 128l-86 223h-596l-72 -196q-41 -96 -6 -143.5t193 -84.5v-61h-564v61q133 33 209 234l433 1155h501zM522 627h490l-250 651z" glyph-name="Atilde" horiz-adv-x="1832" unicode="Ã"/><glyph d="M639 1606q-78 0 -132 54t-54 132q0 76 54 129t132 53t132 -53t54 -129q0 -78 -54 -132t-132 -54zM1132.5 1606q-77.5 0 -132 54t-54.5 132q0 76 54.5 129t132 53t132 -53t54.5 -129q0 -78 -54.5 -132t-132 -54zM1614 274q45 -109 80 -145.5t118 -67.5v-61h-813v61 q131 31 161 73t-9 128l-86 223h-596l-72 -196q-41 -96 -6 -143.5t193 -84.5v-61h-564v61q133 33 209 234l433 1155h501zM522 627h490l-250 651z" glyph-name="Adieresis" horiz-adv-x="1832" unicode="Ä"/><glyph d="M887 1540q-117 0 -196 74t-79 190.5t79 191.5t196 75t194.5 -74t77.5 -193q0 -117 -78.5 -190.5t-193.5 -73.5zM887 1931q-49 0 -86 -33.5t-37 -93t37 -93.5t86 -34t86 34t37 93.5t-37 93t-86 33.5zM1614 274q45 -109 80 -145.5t118 -67.5v-61h-813v61q131 31 161 73 t-9 128l-86 223h-596l-72 -196q-41 -96 -6 -143.5t193 -84.5v-61h-564v61q133 33 209 234l433 1155h501zM522 627h490l-250 651z" glyph-name="Aring" horiz-adv-x="1832" unicode="Å"/><glyph d="M2087 578h65l-61 -578h-1210v61q123 29 154.5 70t21.5 131l-19 223h-516l-114 -223q-43 -74 -11.5 -116t178.5 -85v-61h-563v61q86 25 133.5 73t106.5 165l594 1151h1249v-559h-65q-57 252 -139.5 335t-270.5 83h-205l41 -494h31q109 0 161 59.5t85 233.5h65v-729h-65 q-33 176 -85.5 236.5t-160.5 60.5h-19l45 -537h58q412 1 516 439zM594 627h432l-61 723z" glyph-name="AE" horiz-adv-x="2217" unicode="Æ"/><glyph d="M1497 477q-41 -199 -209 -348t-450 -162l-17 -82q141 12 208 -34t67 -123q0 -92 -71 -141.5t-183 -49.5q-236 0 -342 201l14 18q104 -80 227 -80q113 0 113 58q0 61 -170 69l-2 19l33 149q-293 27 -482.5 220.5t-189.5 531.5q0 178 66.5 326.5t176 240.5t245 142.5 t280.5 50.5q90 0 171 -16.5t117 -30t95 -41.5q82 -41 124 -27t77 94h57v-665h-86q-27 262 -147.5 401t-298.5 139q-201 0 -308.5 -174t-107.5 -440q0 -256 110.5 -414.5t325.5 -158.5q176 0 305 99t182 243z" glyph-name="Ccedilla" horiz-adv-x="1597" unicode="Ç"/><glyph d="M582 1731q-102 76 -102.5 169t75.5 128q80 37 151.5 -10.5t81.5 -172.5l21 -254l-23 -12zM1380 578h66l-62 -578h-1310v61q109 18 142.5 42t33.5 83v1078q0 61 -34 83.5t-142 41.5v61h1315v-559h-66q-57 252 -139 335t-271 83h-217v-494h84q109 0 161 59.5t85 233.5h66 v-729h-66q-33 176 -85 236.5t-161 60.5h-84v-537h168q412 1 516 439z" glyph-name="Egrave" horiz-adv-x="1511" unicode="È"/><glyph d="M944 1731l-205 -152l-22 12l20 254q10 125 82 172t152 11q76 -35 75.5 -128t-102.5 -169zM1380 578h66l-62 -578h-1310v61q109 18 142.5 42t33.5 83v1078q0 61 -34 83.5t-142 41.5v61h1315v-559h-66q-57 252 -139 335t-271 83h-217v-494h84q109 0 161 59.5t85 233.5h66 v-729h-66q-33 176 -85 236.5t-161 60.5h-84v-537h168q412 1 516 439z" glyph-name="Eacute" horiz-adv-x="1511" unicode="É"/><glyph d="M756 1769l-275 -172l-20 17l123 250q43 86 82 120.5t90 34.5t90 -34.5t82 -120.5l123 -250l-21 -17zM1380 578h66l-62 -578h-1310v61q109 18 142.5 42t33.5 83v1078q0 61 -34 83.5t-142 41.5v61h1315v-559h-66q-57 252 -139 335t-271 83h-217v-494h84q109 0 161 59.5 t85 233.5h66v-729h-66q-33 176 -85 236.5t-161 60.5h-84v-537h168q412 1 516 439z" glyph-name="Ecircumflex" horiz-adv-x="1511" unicode="Ê"/><glyph d="M508 1606q-78 0 -132 54t-54 132q0 76 54 129t132 53t132 -53t54 -129q0 -78 -54 -132t-132 -54zM1001.5 1606q-77.5 0 -132 54t-54.5 132q0 76 54.5 129t132 53t132 -53t54.5 -129q0 -78 -54.5 -132t-132 -54zM1380 578h66l-62 -578h-1310v61q109 18 142.5 42t33.5 83 v1078q0 61 -34 83.5t-142 41.5v61h1315v-559h-66q-57 252 -139 335t-271 83h-217v-494h84q109 0 161 59.5t85 233.5h66v-729h-66q-33 176 -85 236.5t-161 60.5h-84v-537h168q412 1 516 439z" glyph-name="Edieresis" horiz-adv-x="1511" unicode="Ë"/><glyph d="M272 2028q80 37 152 -10.5t82 -172.5l20 -254l-22 -12l-205 152q-102 76 -102.5 169t75.5 128zM872 1389q-109 -18 -142.5 -42t-33.5 -83v-1078q0 -59 34 -82.5t142 -42.5v-61h-798v61q109 18 142.5 42t33.5 83v1078q0 61 -34 83.5t-142 41.5v61h798v-61z" glyph-name="Igrave" horiz-adv-x="946" unicode="Ì"/><glyph d="M688 2028q76 -35 76 -128.5t-102 -168.5l-205 -152l-23 12l21 254q10 125 81.5 172.5t151.5 10.5zM872 1389q-109 -18 -142.5 -42t-33.5 -83v-1078q0 -59 34 -82.5t142 -42.5v-61h-798v61q109 18 142.5 42t33.5 83v1078q0 61 -34 83.5t-142 41.5v61h798v-61z" glyph-name="Iacute" horiz-adv-x="946" unicode="Í"/><glyph d="M473 1769l-274 -172l-21 17l123 250q43 86 82 120.5t90 34.5t90 -34.5t82 -120.5l123 -250l-20 -17zM872 1389q-109 -18 -142.5 -42t-33.5 -83v-1078q0 -59 34 -82.5t142 -42.5v-61h-798v61q109 18 142.5 42t33.5 83v1078q0 61 -34 83.5t-142 41.5v61h798v-61z" glyph-name="Icircumflex" horiz-adv-x="946" unicode="Î"/><glyph d="M225 1606q-78 0 -132 54t-54 132q0 76 54 129t132 53t132.5 -53t54.5 -129q0 -78 -54.5 -132t-132.5 -54zM719 1606q-78 0 -132.5 54t-54.5 132q0 76 54.5 129t132.5 53t132 -53t54 -129q0 -78 -54 -132t-132 -54zM872 1389q-109 -18 -142.5 -42t-33.5 -83v-1078 q0 -59 34 -82.5t142 -42.5v-61h-798v61q109 18 142.5 42t33.5 83v1078q0 61 -34 83.5t-142 41.5v61h798v-61z" glyph-name="Idieresis" horiz-adv-x="946" unicode="Ï"/><glyph d="M838 1450q915 0 915 -721q0 -729 -915 -729h-764v61q109 18 142.5 42t33.5 83v494h-160v125h160v459q0 59 -34 82.5t-142 42.5v61h764zM799 141q494 0 493 588q0 287 -118.5 433.5t-374.5 146.5h-103v-504h254v-125h-254v-539h103z" glyph-name="Eth" horiz-adv-x="1794" unicode="Ð"/><glyph d="M739 1729q-35 0 -64.5 -16.5t-44 -31t-38.5 -47.5l-41 13q23 147 87 228t155 81q61 0 144 -47t140 -47q35 0 64.5 16t44 30.5t39.5 47.5l41 -12q-23 -147 -87.5 -228.5t-154.5 -81.5q-61 0 -144.5 47.5t-140.5 47.5zM1188 1450h579v-61q-96 -23 -145 -66t-49 -154v-1169 h-367l-803 1042v-761q0 -111 58.5 -154t173.5 -66v-61h-582v61q98 23 147.5 66t49.5 154v983q0 59 -34 82.5t-142 42.5v61h577l768 -995v714q0 111 -58 154t-173 66v61z" glyph-name="Ntilde" horiz-adv-x="1818" unicode="Ñ"/><glyph d="M690 2028q80 37 151.5 -10.5t82.5 -172.5l20 -254l-22 -12l-205 152q-102 76 -102.5 169t75.5 128zM891 -33q-365 0 -606.5 202t-241.5 552q0 354 241.5 558t606.5 204q236 0 426 -87t306 -263.5t116 -411.5q0 -233 -116 -407.5t-306 -260.5t-426 -86zM891 117 q178 0 282.5 168t104.5 436q0 274 -104.5 444t-282.5 170t-282.5 -170t-104.5 -444q0 -268 104.5 -436t282.5 -168z" glyph-name="Ograve" horiz-adv-x="1779" unicode="Ò"/><glyph d="M1106 2028q76 -35 76 -128.5t-103 -168.5l-205 -152l-22 12l20 254q10 125 82 172.5t152 10.5zM891 -33q-365 0 -606.5 202t-241.5 552q0 354 241.5 558t606.5 204q236 0 426 -87t306 -263.5t116 -411.5q0 -233 -116 -407.5t-306 -260.5t-426 -86zM891 117 q178 0 282.5 168t104.5 436q0 274 -104.5 444t-282.5 170t-282.5 -170t-104.5 -444q0 -268 104.5 -436t282.5 -168z" glyph-name="Oacute" horiz-adv-x="1779" unicode="Ó"/><glyph d="M891 1769l-275 -172l-20 17l123 250q43 86 82 120.5t90 34.5t90 -34.5t82 -120.5l123 -250l-21 -17zM891 1483q236 0 426 -87t306 -263.5t116 -411.5q0 -233 -116 -407.5t-306.5 -260.5t-425.5 -86q-365 0 -606.5 202t-241.5 552q0 354 241.5 558t606.5 204zM891 117 q178 0 282.5 168t104.5 436q0 274 -104.5 444t-282.5 170t-282.5 -170t-104.5 -444q0 -268 104.5 -436t282.5 -168z" glyph-name="Ocircumflex" horiz-adv-x="1779" unicode="Ô"/><glyph d="M573 1634l-41 13q23 147 87.5 228t154.5 81q61 0 144 -47t141 -47q35 0 64.5 16t44 30.5t38.5 47.5l41 -12q-23 -147 -87 -228.5t-154 -81.5q-61 0 -144.5 47.5t-140.5 47.5q-35 0 -64.5 -16.5t-44 -31t-39.5 -47.5zM891 -33q-365 0 -606.5 202t-241.5 552 q0 354 241.5 558t606.5 204q236 0 426 -87t306 -263.5t116 -411.5q0 -233 -116 -407.5t-306 -260.5t-426 -86zM891 117q178 0 282.5 168t104.5 436q0 274 -104.5 444t-282.5 170t-282.5 -170t-104.5 -444q0 -268 104.5 -436t282.5 -168z" glyph-name="Otilde" horiz-adv-x="1779" unicode="Õ"/><glyph d="M643 1606q-78 0 -132 54t-54 132q0 76 54 129t132 53t132 -53t54 -129q0 -78 -54 -132t-132 -54zM1136.5 1606q-77.5 0 -132 54t-54.5 132q0 76 54.5 129t132 53t132 -53t54.5 -129q0 -78 -54.5 -132t-132 -54zM891 -33q-365 0 -606.5 202t-241.5 552q0 354 241.5 558 t606.5 204q236 0 426 -87t306 -263.5t116 -411.5q0 -233 -116 -407.5t-306 -260.5t-426 -86zM891 117q178 0 282.5 168t104.5 436q0 274 -104.5 444t-282.5 170t-282.5 -170t-104.5 -444q0 -268 104.5 -436t282.5 -168z" glyph-name="Odieresis" horiz-adv-x="1779" unicode="Ö"/><glyph d="M975 1024l-301 -301l301 -299l-92 -92l-301 301l-301 -301l-93 92l301 299l-301 301l91 92l303 -301l303 301z" glyph-name="multiply" horiz-adv-x="1163" unicode="×"/><glyph d="M1573 1202q166 -195 166 -481q0 -233 -116 -407.5t-306.5 -260.5t-425.5 -86q-311 0 -535 148l-114 -103l-103 115l99 88q-195 199 -195 506q0 354 241.5 558t606.5 204q340 0 569 -174l115 102l102 -115zM504 721q0 -123 26 -244l682 610q-49 119 -131 183.5t-190 64.5 q-178 0 -282.5 -170t-104.5 -444zM891 117q178 0 282.5 168t104.5 436q0 104 -16 203l-674 -602q104 -205 303 -205z" glyph-name="Oslash" horiz-adv-x="1820" unicode="Ø"/><glyph d="M725 2028q80 37 151.5 -10.5t81.5 -172.5l21 -254l-23 -12l-204 152q-102 76 -102.5 169t75.5 128zM207 690v574q0 57 -36 80.5t-126 44.5v61h758v-61q-94 -18 -122 -41t-28 -84v-748q0 -401 273 -401q268 0 268 401v748q0 61 -34 84.5t-138 40.5v61h780v-61 q-92 -18 -127 -43t-35 -82v-574q0 -197 -53 -340t-152.5 -225t-224.5 -120t-284 -38q-332 0 -525.5 170t-193.5 553z" glyph-name="Ugrave" horiz-adv-x="1847" unicode="Ù"/><glyph d="M1141 2028q76 -35 76 -128.5t-103 -168.5l-205 -152l-22 12l20 254q10 125 82 172.5t152 10.5zM207 690v574q0 57 -36 80.5t-126 44.5v61h758v-61q-94 -18 -122 -41t-28 -84v-748q0 -401 273 -401q268 0 268 401v748q0 61 -34 84.5t-138 40.5v61h780v-61 q-92 -18 -127 -43t-35 -82v-574q0 -197 -53 -340t-152.5 -225t-224.5 -120t-284 -38q-332 0 -525.5 170t-193.5 553z" glyph-name="Uacute" horiz-adv-x="1847" unicode="Ú"/><glyph d="M926 1769l-275 -172l-20 17l123 250q43 86 81.5 120.5t90 34.5t90.5 -34.5t82 -120.5l123 -250l-21 -17zM1022 1450h780v-61q-92 -18 -127 -43t-35 -82v-574q0 -197 -53 -340t-152.5 -225t-224.5 -120t-284 -38q-332 0 -525.5 170t-193.5 553v574q0 57 -36 80.5 t-126 44.5v61h758v-61q-94 -18 -122 -41t-28 -84v-748q0 -401 273 -401q268 0 268 401v748q0 61 -34 84.5t-138 40.5v61z" glyph-name="Ucircumflex" horiz-adv-x="1847" unicode="Û"/><glyph d="M678 1606q-78 0 -132 54t-54 132q0 76 54 129t132 53t132 -53t54 -129q0 -78 -54 -132t-132 -54zM1171.5 1606q-77.5 0 -132 54t-54.5 132q0 76 54.5 129t132 53t132 -53t54.5 -129q0 -78 -54.5 -132t-132 -54zM207 690v574q0 57 -36 80.5t-126 44.5v61h758v-61 q-94 -18 -122 -41t-28 -84v-748q0 -401 273 -401q268 0 268 401v748q0 61 -34 84.5t-138 40.5v61h780v-61q-92 -18 -127 -43t-35 -82v-574q0 -197 -53 -340t-152.5 -225t-224.5 -120t-284 -38q-332 0 -525.5 170t-193.5 553z" glyph-name="Udieresis" horiz-adv-x="1847" unicode="Ü"/><glyph d="M1225 1731l-205 -152l-23 12l21 254q10 125 81.5 172t151.5 11q76 -35 76 -128t-102 -169zM1204 1450h545v-61q-170 -39 -246 -156l-358 -547v-500q0 -59 33.5 -82.5t142.5 -42.5v-61h-799v61q109 18 142.5 42t33.5 83v428l-401 598q-57 86 -113.5 122t-134.5 55v61h895 v-61q-117 -18 -139.5 -63.5t37.5 -139.5l233 -367l203 332q55 90 56 141t-30.5 68.5t-99.5 28.5v61z" glyph-name="Yacute" horiz-adv-x="1777" unicode="Ý"/><glyph d="M940 313h-244v-106q0 -74 49.5 -100.5t208.5 -45.5v-61h-880v61q109 18 142.5 42t33.5 83v1078q0 59 -34 82.5t-142 42.5v61h798v-61q-109 -18 -142.5 -42t-33.5 -83v-78h289q258 0 391 -109.5t133 -306.5q0 -221 -150.5 -339t-418.5 -118zM760 1044h-64v-589h64 q166 0 240.5 72.5t74.5 222t-74.5 222t-240.5 72.5z" glyph-name="Thorn" horiz-adv-x="1560" unicode="Þ"/><glyph d="M1133 752q160 -80 233.5 -176.5t73.5 -243.5q0 -186 -120 -275.5t-294 -89.5q-168 0 -275.5 52.5t-107.5 154.5q0 66 39 112t100 46q66 0 123.5 -68.5t83.5 -171.5q78 4 117 41t39 92q0 51 -36 88t-136 93q-158 80 -231.5 164.5t-73.5 193.5q0 211 241 276 q10 199 -28.5 294.5t-137.5 95.5q-86 0 -127 -53.5t-41 -174.5v-1202h-542v61q82 18 106.5 42t24.5 83v672h-131v125h131v96q0 231 135 356.5t455 125.5q129 0 220 -22.5t168 -79t112.5 -169t27.5 -278.5q-326 -29 -326 -119q0 -35 31 -58.5t146 -82.5z" glyph-name="germandbls" horiz-adv-x="1460" unicode="ß"/><glyph d="M428 1264q-102 76 -102 169t75 128q80 37 152 -10.5t82 -172.5l20 -254l-22 -12zM1159 193l55 -23q-72 -195 -305 -195q-197 0 -243 168q-127 -176 -349 -176q-129 0 -191.5 63.5t-62.5 162.5q0 68 23 120t80 103t172 91t285 66v119q0 102 -29 142t-94 40q-37 0 -88 -14 q16 -90 9 -147.5t-41 -90t-69 -45t-73 -12.5q-68 0 -100 35t-32 92q0 123 153 223.5t374 100.5q188 0 294.5 -86t106.5 -316v-426q0 -70 45 -69.5t80 74.5zM522 188q51 0 101 43v238q-176 -61 -177 -186q0 -43 20.5 -69t55.5 -26z" glyph-name="agrave" horiz-adv-x="1202" unicode="à"/><glyph d="M791 1264l-205 -152l-23 12l21 254q10 125 81.5 172t151.5 11q76 -35 76 -128t-102 -169zM1159 193l55 -23q-72 -195 -305 -195q-197 0 -243 168q-127 -176 -349 -176q-129 0 -191.5 63.5t-62.5 162.5q0 68 23 120t80 103t172 91t285 66v119q0 102 -29 142t-94 40 q-37 0 -88 -14q16 -90 9 -147.5t-41 -90t-69 -45t-73 -12.5q-68 0 -100 35t-32 92q0 123 153 223.5t374 100.5q188 0 294.5 -86t106.5 -316v-426q0 -70 45 -69.5t80 74.5zM522 188q51 0 101 43v238q-176 -61 -177 -186q0 -43 20.5 -69t55.5 -26z" glyph-name="aacute" horiz-adv-x="1202" unicode="á"/><glyph d="M602 1303l-274 -173l-21 17l123 250q43 86 82 120.5t90 34.5t90 -34.5t82 -120.5l123 -250l-20 -17zM1159 193l55 -23q-72 -195 -305 -195q-197 0 -243 168q-127 -176 -349 -176q-129 0 -191.5 63.5t-62.5 162.5q0 68 23 120t80 103t172 91t285 66v119q0 102 -29 142 t-94 40q-37 0 -88 -14q16 -90 9 -147.5t-41 -90t-69 -45t-73 -12.5q-68 0 -100 35t-32 92q0 123 153 223.5t374 100.5q188 0 294.5 -86t106.5 -316v-426q0 -70 45 -69.5t80 74.5zM522 188q51 0 101 43v238q-176 -61 -177 -186q0 -43 20.5 -69t55.5 -26z" glyph-name="acircumflex" horiz-adv-x="1202" unicode="â"/><glyph d="M432 1262q-35 0 -64.5 -16.5t-44 -31t-38.5 -47.5l-41 13q23 147 87 228t154 81q61 0 144.5 -47t140.5 -47q35 0 64.5 16t44 30.5t39.5 47.5l40 -12q-23 -147 -87 -228.5t-154 -81.5q-61 0 -144.5 47.5t-140.5 47.5zM1159 193l55 -23q-72 -195 -305 -195q-197 0 -243 168 q-127 -176 -349 -176q-129 0 -191.5 63.5t-62.5 162.5q0 68 23 120t80 103t172 91t285 66v119q0 102 -29 142t-94 40q-37 0 -88 -14q16 -90 9 -147.5t-41 -90t-69 -45t-73 -12.5q-68 0 -100 35t-32 92q0 123 153 223.5t374 100.5q188 0 294.5 -86t106.5 -316v-426 q0 -70 45 -69.5t80 74.5zM522 188q51 0 101 43v238q-176 -61 -177 -186q0 -43 20.5 -69t55.5 -26z" glyph-name="atilde" horiz-adv-x="1202" unicode="ã"/><glyph d="M354 1139q-78 0 -132 54t-54 132q0 76 54 129t132 53t132.5 -53t54.5 -129q0 -78 -54.5 -132t-132.5 -54zM848 1139q-78 0 -132 54t-54 132q0 76 54 129t132 53t132 -53t54 -129q0 -78 -54 -132t-132 -54zM1159 193l55 -23q-72 -195 -305 -195q-197 0 -243 168 q-127 -176 -349 -176q-129 0 -191.5 63.5t-62.5 162.5q0 68 23 120t80 103t172 91t285 66v119q0 102 -29 142t-94 40q-37 0 -88 -14q16 -90 9 -147.5t-41 -90t-69 -45t-73 -12.5q-68 0 -100 35t-32 92q0 123 153 223.5t374 100.5q188 0 294.5 -86t106.5 -316v-426 q0 -70 45 -69.5t80 74.5zM522 188q51 0 101 43v238q-176 -61 -177 -186q0 -43 20.5 -69t55.5 -26z" glyph-name="adieresis" horiz-adv-x="1202" unicode="ä"/><glyph d="M602 1073q-117 0 -195.5 74t-78.5 190.5t78.5 191.5t195.5 75t194.5 -74t77.5 -193q0 -117 -78.5 -190.5t-193.5 -73.5zM602 1464q-49 0 -86 -33.5t-37 -93t37 -93.5t86 -34t86 34t37 93.5t-37 93t-86 33.5zM1159 193l55 -23q-72 -195 -305 -195q-197 0 -243 168 q-127 -176 -349 -176q-129 0 -191.5 63.5t-62.5 162.5q0 68 23 120t80 103t172 91t285 66v119q0 102 -29 142t-94 40q-37 0 -88 -14q16 -90 9 -147.5t-41 -90t-69 -45t-73 -12.5q-68 0 -100 35t-32 92q0 123 153 223.5t374 100.5q188 0 294.5 -86t106.5 -316v-426 q0 -70 45 -69.5t80 74.5zM522 188q51 0 101 43v238q-176 -61 -177 -186q0 -43 20.5 -69t55.5 -26z" glyph-name="aring" horiz-adv-x="1202" unicode="å"/><glyph d="M1171 1016q113 0 202 -26.5t164 -87t110.5 -176.5t23.5 -277h-616q6 -166 55 -248t160 -82q180 0 309 133l63 -66q-176 -219 -501 -219q-293 0 -428 195q-135 -195 -396 -195q-131 0 -192.5 63.5t-61.5 166.5q0 63 23 113t80 101.5t172 92.5t285 69v119q0 102 -29 142 t-94 40q-37 0 -88 -14q16 -90 9 -147.5t-41 -90t-69 -45t-73 -12.5q-68 0 -100 35t-32 92q0 123 153 223.5t374 100.5q174 0 264 -64q124 64 274 64zM1167 887q-104 0 -112 -334h207q-5 334 -95 334zM446 283q0 -43 20.5 -69t55.5 -26q51 0 101 43v238q-177 -61 -177 -186z " glyph-name="ae" horiz-adv-x="1716" unicode="æ"/><glyph d="M694 106q137 0 246 132l74 -66q-127 -168 -348 -199l-19 -88q141 12 208 -34t67 -123q0 -92 -71 -141.5t-183 -49.5q-236 0 -342 201l14 18q104 -80 227 -80q113 0 113 58q0 61 -170 69l-2 19l33 145q-229 10 -361.5 147.5t-132.5 381.5q0 252 153.5 386t405.5 134 q199 0 313.5 -90t114.5 -205q0 -59 -35.5 -99t-107.5 -40q-197 0 -197 307q-10 2 -28 2q-186 0 -187 -395q0 -197 45 -293.5t170 -96.5z" glyph-name="ccedilla" horiz-adv-x="1069" unicode="ç"/><glyph d="M440 1264q-102 76 -102 169t76 128q80 37 151.5 -10.5t81.5 -172.5l21 -254l-23 -12zM606 1016q113 0 203 -26.5t168 -87t114.5 -176.5t24.5 -277h-637q6 -166 60.5 -248t175.5 -82q180 0 309 133l63 -66q-88 -111 -196.5 -165t-276.5 -54q-262 0 -414.5 138.5 t-152.5 390.5q0 246 166 383t393 137zM602 887q-49 0 -83 -85t-40 -249h228q-7 334 -105 334z" glyph-name="egrave" horiz-adv-x="1159" unicode="è"/><glyph d="M803 1264l-205 -152l-23 12l21 254q10 125 82 172t151 11q76 -35 76 -128t-102 -169zM606 1016q113 0 203 -26.5t168 -87t114.5 -176.5t24.5 -277h-637q6 -166 60.5 -248t175.5 -82q180 0 309 133l63 -66q-88 -111 -196.5 -165t-276.5 -54q-262 0 -414.5 138.5 t-152.5 390.5q0 246 166 383t393 137zM602 887q-49 0 -83 -85t-40 -249h228q-7 334 -105 334z" glyph-name="eacute" horiz-adv-x="1159" unicode="é"/><glyph d="M614 1303l-274 -173l-21 17l123 250q43 86 82 120.5t90.5 34.5t90 -34.5t81.5 -120.5l123 -250l-20 -17zM606 1016q113 0 203 -26.5t168 -87t114.5 -176.5t24.5 -277h-637q6 -166 60.5 -248t175.5 -82q180 0 309 133l63 -66q-88 -111 -196.5 -165t-276.5 -54 q-262 0 -414.5 138.5t-152.5 390.5q0 246 166 383t393 137zM602 887q-49 0 -83 -85t-40 -249h228q-7 334 -105 334z" glyph-name="ecircumflex" horiz-adv-x="1159" unicode="ê"/><glyph d="M366.5 1139q-77.5 0 -132 54t-54.5 132q0 76 54.5 129t132 53t132 -53t54.5 -129q0 -78 -54.5 -132t-132 -54zM860 1139q-78 0 -132 54t-54 132q0 76 54 129t132 53t132.5 -53t54.5 -129q0 -78 -54.5 -132t-132.5 -54zM606 1016q113 0 203 -26.5t168 -87t114.5 -176.5 t24.5 -277h-637q6 -166 60.5 -248t175.5 -82q180 0 309 133l63 -66q-88 -111 -196.5 -165t-276.5 -54q-262 0 -414.5 138.5t-152.5 390.5q0 246 166 383t393 137zM602 887q-49 0 -83 -85t-40 -249h228q-7 334 -105 334z" glyph-name="edieresis" horiz-adv-x="1159" unicode="ë"/><glyph d="M213 1264q-102 76 -102 169t75 128q80 37 152 -10.5t82 -172.5l20 -254l-22 -12zM602 186q0 -59 21.5 -82.5t93.5 -42.5v-61h-645v61q72 18 93 42t21 83v547q0 55 -16 72.5t-84 36.5v61l516 103v-820z" glyph-name="igrave" horiz-adv-x="772" unicode="ì"/><glyph d="M575 1264l-204 -152l-23 12l21 254q10 125 81.5 172t151.5 11q76 -35 75.5 -128t-102.5 -169zM602 186q0 -59 21.5 -82.5t93.5 -42.5v-61h-645v61q72 18 93 42t21 83v547q0 55 -16 72.5t-84 36.5v61l516 103v-820z" glyph-name="iacute" horiz-adv-x="772" unicode="í"/><glyph d="M387 1303l-274 -173l-21 17l123 250q43 86 82 120.5t90 34.5t90 -34.5t82 -120.5l123 -250l-20 -17zM602 186q0 -59 21.5 -82.5t93.5 -42.5v-61h-645v61q72 18 93 42t21 83v547q0 55 -16 72.5t-84 36.5v61l516 103v-820z" glyph-name="icircumflex" horiz-adv-x="772" unicode="î"/><glyph d="M326 1325q0 -78 -54.5 -132t-132.5 -54t-132 54t-54 132q0 76 54 129t132 53t132.5 -53t54.5 -129zM633 1507q78 0 132 -53t54 -129q0 -78 -54 -132t-132 -54t-132.5 54t-54.5 132q0 76 54.5 129t132.5 53zM602 186q0 -59 21.5 -82.5t93.5 -42.5v-61h-645v61q72 18 93 42 t21 83v547q0 55 -16 72.5t-84 36.5v61l516 103v-820z" glyph-name="idieresis" horiz-adv-x="772" unicode="ï"/><glyph d="M1317 1288l-154 -61q127 -199 127 -506q0 -354 -166 -554t-503 -200q-272 0 -423 121t-151 350q0 219 145.5 331t352.5 112t317 -121q-6 193 -51 321l-274 -110l-45 116l264 109q-82 127 -224 127q-147 0 -268 -102l-71 75q55 76 173.5 131.5t290.5 55.5q262 0 422 -156 l191 78zM645 117q90 0 146.5 96t68.5 338q-23 86 -76 127t-118 41q-92 0 -140.5 -75t-48.5 -208q0 -319 168 -319z" glyph-name="eth" horiz-adv-x="1355" unicode="ð"/><glyph d="M551 1262q-35 0 -64.5 -16.5t-44 -31t-39.5 -47.5l-41 13q23 147 87.5 228t154.5 81q61 0 144 -47t141 -47q35 0 64.5 16t44 30.5t38.5 47.5l41 -12q-23 -147 -87 -228.5t-154 -81.5q-61 0 -144.5 47.5t-140.5 47.5zM1262 186q0 -61 23.5 -83.5t98.5 -41.5v-61h-624v61 q49 20 67.5 44t18.5 81v490q0 119 -84 119q-100 0 -160 -158v-451q0 -57 18.5 -80.5t67.5 -44.5v-61h-616v61q72 18 93 42t21 83v559q0 55 -20.5 77t-93.5 44v62l530 82v-219q115 225 344 225q315 0 316 -354v-476z" glyph-name="ntilde" horiz-adv-x="1409" unicode="ñ"/><glyph d="M432 1561q80 37 151.5 -10.5t82.5 -172.5l20 -254l-22 -12l-205 152q-102 76 -102.5 169t75.5 128zM633 -27q-260 0 -423 131.5t-163 378.5q0 258 163 395.5t423 137.5t423 -137.5t163 -395.5q0 -248 -163 -379t-423 -131zM633 102q78 0 115.5 88.5t37.5 292.5 q0 403 -153.5 403.5t-153.5 -403.5q0 -205 38 -293t116 -88z" glyph-name="ograve" horiz-adv-x="1265" unicode="ò"/><glyph d="M848 1561q76 -35 76 -128.5t-103 -168.5l-205 -152l-22 12l20 254q10 125 82 172.5t152 10.5zM633 -27q-260 0 -423 131.5t-163 378.5q0 258 163 395.5t423 137.5t423 -137.5t163 -395.5q0 -248 -163 -379t-423 -131zM633 102q78 0 115.5 88.5t37.5 292.5 q0 403 -153.5 403.5t-153.5 -403.5q0 -205 38 -293t116 -88z" glyph-name="oacute" horiz-adv-x="1265" unicode="ó"/><glyph d="M633 1303l-275 -173l-20 17l123 250q43 86 82 120.5t90 34.5t90 -34.5t82 -120.5l123 -250l-21 -17zM633 1016q260 0 423 -137.5t163 -395.5q0 -248 -163 -379t-423 -131t-423 131.5t-163 378.5q0 258 163 395.5t423 137.5zM633 102q78 0 115.5 88.5t37.5 292.5 q0 403 -153.5 403.5t-153.5 -403.5q0 -205 38 -293t116 -88z" glyph-name="ocircumflex" horiz-adv-x="1265" unicode="ô"/><glyph d="M315 1167l-41 13q23 147 87.5 228t154.5 81q61 0 144 -47t141 -47q35 0 64.5 16t44 30.5t38.5 47.5l41 -12q-23 -147 -87 -228.5t-154 -81.5q-61 0 -144.5 47.5t-140.5 47.5q-35 0 -64.5 -16.5t-44 -31t-39.5 -47.5zM633 -27q-260 0 -423 131.5t-163 378.5 q0 258 163 395.5t423 137.5t423 -137.5t163 -395.5q0 -248 -163 -379t-423 -131zM633 102q78 0 115.5 88.5t37.5 292.5q0 403 -153.5 403.5t-153.5 -403.5q0 -205 38 -293t116 -88z" glyph-name="otilde" horiz-adv-x="1265" unicode="õ"/><glyph d="M385 1139q-78 0 -132 54t-54 132q0 76 54 129t132 53t132 -53t54 -129q0 -78 -54 -132t-132 -54zM878.5 1139q-77.5 0 -132 54t-54.5 132q0 76 54.5 129t132 53t132 -53t54.5 -129q0 -78 -54.5 -132t-132 -54zM633 -27q-260 0 -423 131.5t-163 378.5q0 258 163 395.5 t423 137.5t423 -137.5t163 -395.5q0 -248 -163 -379t-423 -131zM633 102q78 0 115.5 88.5t37.5 292.5q0 403 -153.5 403.5t-153.5 -403.5q0 -205 38 -293t116 -88z" glyph-name="odieresis" horiz-adv-x="1265" unicode="ö"/><glyph d="M657.5 872q-67.5 0 -115.5 49.5t-48 116.5q0 66 49 113t114 47q68 0 117 -47t49 -113q0 -70 -49 -118t-116.5 -48zM172 647v131h983v-131h-983zM661.5 227q-67.5 0 -115.5 47.5t-48 116.5q0 68 48 114t115.5 46t116.5 -46t49 -113.5t-49 -116t-116.5 -48.5z" glyph-name="divide" horiz-adv-x="1327" unicode="÷"/><glyph d="M1100 834q119 -135 119 -351q0 -248 -163 -379t-423 -131q-215 0 -361 88l-116 -110l-105 110l105 99q-109 125 -109 323q0 258 163 395.5t423 137.5q205 0 346 -84l115 108l106 -112zM479 483v-20l285 268q-37 156 -131 156q-154 -1 -154 -404zM633 102q78 0 115.5 88.5 t37.5 292.5v58l-290 -273q31 -166 137 -166z" glyph-name="oslash" horiz-adv-x="1261" unicode="ø"/><glyph d="M522 1264q-102 76 -102 169t76 128q80 37 151.5 -10.5t81.5 -172.5l21 -254l-23 -12zM1217 186q0 -59 24.5 -82.5t104.5 -42.5v-61h-547v168q-102 -201 -340 -201q-322 0 -322 365v465q0 59 -26.5 81.5t-102.5 43.5v61h547v-655q0 -141 84 -142q113 0 160 222v389 q0 61 -25.5 83.5t-111.5 41.5v61h555v-797z" glyph-name="ugrave" horiz-adv-x="1390" unicode="ù"/><glyph d="M885 1264l-205 -152l-23 12l21 254q10 125 81.5 172t151.5 11q76 -35 76 -128t-102 -169zM1217 186q0 -59 24.5 -82.5t104.5 -42.5v-61h-547v168q-102 -201 -340 -201q-322 0 -322 365v465q0 59 -26.5 81.5t-102.5 43.5v61h547v-655q0 -141 84 -142q113 0 160 222v389 q0 61 -25.5 83.5t-111.5 41.5v61h555v-797z" glyph-name="uacute" horiz-adv-x="1390" unicode="ú"/><glyph d="M696 1303l-274 -173l-21 17l123 250q43 86 82 120.5t90.5 34.5t90 -34.5t81.5 -120.5l123 -250l-20 -17zM1217 186q0 -59 24.5 -82.5t104.5 -42.5v-61h-547v168q-102 -201 -340 -201q-322 0 -322 365v465q0 59 -26.5 81.5t-102.5 43.5v61h547v-655q0 -141 84 -142 q113 0 160 222v389q0 61 -25.5 83.5t-111.5 41.5v61h555v-797z" glyph-name="ucircumflex" horiz-adv-x="1390" unicode="û"/><glyph d="M448.5 1139q-77.5 0 -132 54t-54.5 132q0 76 54.5 129t132 53t132 -53t54.5 -129q0 -78 -54.5 -132t-132 -54zM942 1139q-78 0 -132 54t-54 132q0 76 54 129t132 53t132 -53t54 -129q0 -78 -54 -132t-132 -54zM1217 186q0 -59 24.5 -82.5t104.5 -42.5v-61h-547v168 q-102 -201 -340 -201q-322 0 -322 365v465q0 59 -26.5 81.5t-102.5 43.5v61h547v-655q0 -141 84 -142q113 0 160 222v389q0 61 -25.5 83.5t-111.5 41.5v61h555v-797z" glyph-name="udieresis" horiz-adv-x="1390" unicode="ü"/><glyph d="M981 1264l-205 -152l-22 12l20 254q10 125 82 172t152 11q76 -35 75.5 -128t-102.5 -169zM895 983h420v-61q-63 -12 -93 -44t-57 -96l-270 -653q-227 -547 -643 -547q-219 0 -219 168q0 63 43 108.5t108 45.5q111 0 226 -191q80 37 153 113l-426 956q-33 72 -58.5 98.5 t-74.5 41.5v61h705v-61q-68 -12 -90.5 -66.5t12.5 -150.5l178 -449l180 449q35 74 23.5 119.5t-38 65t-79.5 32.5v61z" glyph-name="yacute" horiz-adv-x="1318" unicode="ý"/><glyph d="M846 1016q182 0 306 -135.5t124 -386.5q0 -260 -127 -394.5t-326 -134.5q-164 0 -258 82v-246q0 -59 38 -82.5t153 -42.5v-61h-733v61q86 18 108.5 41t22.5 84v1489q0 55 -24 74.5t-97 34.5v61l532 82v-657q95 131 281 131zM694 92q150 0 150 402q0 186 -37 288.5 t-100 102.5q-98 0 -142 -180v-490q37 -123 129 -123z" glyph-name="thorn" horiz-adv-x="1320" unicode="þ"/><glyph d="M545 1139q-78 0 -132.5 54t-54.5 132q0 76 54.5 129t132.5 53t132 -53t54 -129q0 -78 -54 -132t-132 -54zM1038.5 1139q-77.5 0 -132 54t-54.5 132q0 76 54.5 129t132 53t132 -53t54.5 -129q0 -78 -54.5 -132t-132 -54zM895 983h420v-61q-63 -12 -93 -44t-57 -96 l-270 -653q-227 -547 -643 -547q-219 0 -219 168q0 63 43 108.5t108 45.5q111 0 226 -191q80 37 153 113l-426 956q-33 72 -58.5 98.5t-74.5 41.5v61h705v-61q-68 -12 -90.5 -66.5t12.5 -150.5l178 -449l180 449q35 74 23.5 119.5t-38 65t-79.5 32.5v61z" glyph-name="ydieresis" horiz-adv-x="1318" unicode="ÿ"/><glyph d="M1223 1901v-125h-672v125h672zM1614 274q45 -109 80 -145.5t118 -67.5v-61h-813v61q131 31 161 73t-9 128l-86 223h-596l-72 -196q-41 -96 -6 -143.5t193 -84.5v-61h-564v61q133 33 209 234l433 1155h501zM522 627h490l-250 651z" glyph-name="Amacron" horiz-adv-x="1832" unicode="Ā"/><glyph d="M938 1434v-125h-672v125h672zM1159 193l55 -23q-72 -195 -305 -195q-197 0 -243 168q-127 -176 -349 -176q-129 0 -191.5 63.5t-62.5 162.5q0 68 23 120t80 103t172 91t285 66v119q0 102 -29 142t-94 40q-37 0 -88 -14q16 -90 9 -147.5t-41 -90t-69 -45t-73 -12.5 q-68 0 -100 35t-32 92q0 123 153 223.5t374 100.5q188 0 294.5 -86t106.5 -316v-426q0 -70 45 -69.5t80 74.5zM522 188q51 0 101 43v238q-176 -61 -177 -186q0 -43 20.5 -69t55.5 -26z" glyph-name="amacron" horiz-adv-x="1202" unicode="ā"/><glyph d="M887 1599q-127 0 -200 100.5t-62 256.5h43q4 -63 60 -107.5t159 -44.5q104 0 159.5 44t59.5 108h41q10 -156 -61.5 -256.5t-198.5 -100.5zM1614 274q45 -109 80 -145.5t118 -67.5v-61h-813v61q131 31 161 73t-9 128l-86 223h-596l-72 -196q-41 -96 -6 -143.5t193 -84.5 v-61h-564v61q133 33 209 234l433 1155h501zM522 627h490l-250 651z" glyph-name="Abreve" horiz-adv-x="1832" unicode="Ă"/><glyph d="M602 1133q-127 0 -199.5 100t-62.5 256h43q4 -63 60.5 -107.5t158.5 -44.5q104 0 159.5 44t59.5 108h41q10 -156 -61.5 -256t-198.5 -100zM1159 193l55 -23q-72 -195 -305 -195q-197 0 -243 168q-127 -176 -349 -176q-129 0 -191.5 63.5t-62.5 162.5q0 68 23 120t80 103 t172 91t285 66v119q0 102 -29 142t-94 40q-37 0 -88 -14q16 -90 9 -147.5t-41 -90t-69 -45t-73 -12.5q-68 0 -100 35t-32 92q0 123 153 223.5t374 100.5q188 0 294.5 -86t106.5 -316v-426q0 -70 45 -69.5t80 74.5zM522 188q51 0 101 43v238q-176 -61 -177 -186 q0 -43 20.5 -69t55.5 -26z" glyph-name="abreve" horiz-adv-x="1202" unicode="ă"/><glyph d="M1614 274q45 -109 80 -145.5t118 -67.5v-61h-28q-137 -47 -189.5 -115.5t-52.5 -130.5q0 -78 76 -78q86 0 141 56l15 -19q-35 -80 -108 -130t-177 -50q-197 0 -197 174q0 100 89 177t247 116h-629v61q131 31 161 73t-9 128l-86 223h-596l-72 -196q-41 -96 -6 -143.5 t193 -84.5v-61h-564v61q133 33 209 234l433 1155h501zM522 627h490l-250 651z" glyph-name="Aogonek" horiz-adv-x="1832" unicode="Ą"/><glyph d="M995 -18q-154 -82 -153 -207q0 -78 76 -78q86 0 141 55l14 -18q-35 -80 -107.5 -130t-177.5 -50q-197 0 -196 174q0 168 227 258q-119 33 -153 157q-127 -176 -349 -176q-129 0 -191.5 63.5t-62.5 162.5q0 68 23 120t80 103t172 91t285 66v119q0 102 -29 142t-94 40 q-37 0 -88 -14q16 -90 9 -147.5t-41 -90t-69 -45t-73 -12.5q-68 0 -100 35t-32 92q0 123 153 223.5t374 100.5q188 0 294.5 -86t106.5 -316v-426q0 -70 45 -69.5t80 74.5l55 -23q-59 -161 -219 -188zM522 188q51 0 101 43v238q-176 -61 -177 -186q0 -43 20.5 -69t55.5 -26z " glyph-name="aogonek" horiz-adv-x="1202" unicode="ą"/><glyph d="M1069 2028q76 -35 76 -128.5t-103 -168.5l-204 -152l-23 12l21 254q10 125 81.5 172.5t151.5 10.5zM799 -33q-154 0 -289 48t-240.5 139.5t-166 238t-60.5 330.5q0 178 66.5 326.5t176 240.5t245 142.5t280.5 50.5q90 0 171 -16.5t117 -30t95 -41.5q82 -41 124 -27t77 94 h57v-665h-86q-27 262 -147.5 401t-298.5 139q-201 0 -308.5 -174t-107.5 -440q0 -256 110.5 -414.5t325.5 -158.5q176 0 305 99t182 243l70 -15q-43 -205 -221 -357.5t-477 -152.5z" glyph-name="Cacute" horiz-adv-x="1597" unicode="Ć"/><glyph d="M725 1264l-205 -152l-22 12l20 254q10 125 82 172t152 11q76 -35 75.5 -128t-102.5 -169zM694 106q137 0 246 132l74 -66q-154 -205 -443 -205q-242 0 -383 138.5t-141 390.5t153.5 386t405.5 134q199 0 313.5 -90t114.5 -205q0 -59 -35.5 -99t-107.5 -40 q-197 0 -197 307q-10 2 -28 2q-186 0 -187 -395q0 -197 45 -293.5t170 -96.5z" glyph-name="cacute" horiz-adv-x="1069" unicode="ć"/><glyph d="M854 1567q-92 0 -158.5 65.5t-66.5 159.5q0 92 66.5 156.5t158.5 64.5t158.5 -64.5t66.5 -156.5q0 -94 -66.5 -159.5t-158.5 -65.5zM799 -33q-154 0 -289 48t-240.5 139.5t-166 238t-60.5 330.5q0 178 66.5 326.5t176 240.5t245 142.5t280.5 50.5q90 0 171 -16.5t117 -30 t95 -41.5q82 -41 124 -27t77 94h57v-665h-86q-27 262 -147.5 401t-298.5 139q-201 0 -308.5 -174t-107.5 -440q0 -256 110.5 -414.5t325.5 -158.5q176 0 305 99t182 243l70 -15q-43 -205 -221 -357.5t-477 -152.5z" glyph-name="Cdotaccent" horiz-adv-x="1597" unicode="Ċ"/><glyph d="M536.5 1100q-92.5 0 -159 65.5t-66.5 159.5q0 92 66.5 156.5t159 64.5t159 -64.5t66.5 -156.5q0 -94 -66.5 -159.5t-159 -65.5zM694 106q137 0 246 132l74 -66q-154 -205 -443 -205q-242 0 -383 138.5t-141 390.5t153.5 386t405.5 134q199 0 313.5 -90t114.5 -205 q0 -59 -35.5 -99t-107.5 -40q-197 0 -197 307q-10 2 -28 2q-186 0 -187 -395q0 -197 45 -293.5t170 -96.5z" glyph-name="cdotaccent" horiz-adv-x="1069" unicode="ċ"/><glyph d="M854 1597q-51 0 -90 35t-82 121l-123 250l21 16l274 -172l274 172l21 -16l-123 -250q-43 -86 -82 -121t-90 -35zM1427 492l70 -15q-43 -205 -221 -357.5t-477 -152.5q-154 0 -289 48t-240.5 139.5t-166 238t-60.5 330.5q0 178 66.5 326.5t176 240.5t245 142.5t280.5 50.5 q90 0 171 -16.5t117 -30t95 -41.5q82 -41 124 -27t77 94h57v-665h-86q-27 262 -147.5 401t-298.5 139q-201 0 -308.5 -174t-107.5 -440q0 -256 110.5 -414.5t325.5 -158.5q176 0 305 99.5t182 242.5z" glyph-name="Ccaron" horiz-adv-x="1597" unicode="Č"/><glyph d="M536.5 1130q-51.5 0 -90 35t-81.5 121l-123 250l20 16l275 -172l274 172l20 -16l-122 -250q-43 -86 -82 -121t-90.5 -35zM694 106q137 0 246 132l74 -66q-154 -205 -443 -205q-242 0 -383 138.5t-141 390.5t153.5 386t405.5 134q199 0 313.5 -90t114.5 -205 q0 -59 -35.5 -99t-107.5 -40q-197 0 -197 307q-10 2 -28 2q-186 0 -187 -395q0 -197 45 -293.5t170 -96.5z" glyph-name="ccaron" horiz-adv-x="1069" unicode="č"/><glyph d="M907 1597q-51 0 -90 35t-82 121l-123 250l21 16l274 -172l275 172l20 -16l-123 -250q-43 -86 -82 -121t-90 -35zM838 1450q915 0 915 -721q0 -729 -915 -729h-764v61q109 18 142.5 42t33.5 83v1078q0 59 -34 82.5t-142 42.5v61h764zM799 141q494 0 493 588 q0 287 -118.5 433.5t-374.5 146.5h-103v-1168h103z" glyph-name="Dcaron" horiz-adv-x="1794" unicode="Ď"/><glyph d="M1442 1561q100 0 125.5 -88.5t-39.5 -204.5l-166 -295l-25 4l-41 344q-14 125 27 182.5t119 57.5zM1176 186q0 -61 31.5 -83.5t138.5 -41.5v-61h-553v143q-94 -176 -312 -176q-182 0 -306 135.5t-124 384.5q0 258 127 393.5t326 135.5q164 0 258 -88v344q0 63 -28.5 82.5 t-147.5 36.5v61l590 82v-1348zM621 98q98 0 141 174v490q-37 127 -129 127q-72 0 -111 -103.5t-39 -298.5q0 -186 37.5 -287.5t100.5 -101.5z" glyph-name="dcaron" horiz-adv-x="1325" unicode="ď"/><glyph d="M838 1450q915 0 915 -721q0 -729 -915 -729h-764v61q109 18 142.5 42t33.5 83v494h-160v125h160v459q0 59 -34 82.5t-142 42.5v61h764zM799 141q494 0 493 588q0 287 -118.5 433.5t-374.5 146.5h-103v-504h254v-125h-254v-539h103z" glyph-name="Dcroat" horiz-adv-x="1794" unicode="Đ"/><glyph d="M1176 186q0 -61 31.5 -83.5t138.5 -41.5v-61h-553v143q-94 -176 -312 -176q-182 0 -306 135.5t-124 384.5q0 258 127 393.5t326 135.5q164 0 258 -88v209h-318v125h318v10q0 63 -28.5 82.5t-147.5 36.5v61l590 82v-272h129v-125h-129v-951zM621 98q98 0 141 174v490 q-37 127 -129 127q-72 0 -111 -103.5t-39 -298.5q0 -186 37.5 -287.5t100.5 -101.5z" glyph-name="dcroat" horiz-adv-x="1318" unicode="đ"/><glyph d="M1092 1901v-125h-672v125h672zM1380 578h66l-62 -578h-1310v61q109 18 142.5 42t33.5 83v1078q0 61 -34 83.5t-142 41.5v61h1315v-559h-66q-57 252 -139 335t-271 83h-217v-494h84q109 0 161 59.5t85 233.5h66v-729h-66q-33 176 -85 236.5t-161 60.5h-84v-537h168 q412 1 516 439z" glyph-name="Emacron" horiz-adv-x="1511" unicode="Ē"/><glyph d="M950 1434v-125h-671v125h671zM606 1016q113 0 203 -26.5t168 -87t114.5 -176.5t24.5 -277h-637q6 -166 60.5 -248t175.5 -82q180 0 309 133l63 -66q-88 -111 -196.5 -165t-276.5 -54q-262 0 -414.5 138.5t-152.5 390.5q0 246 166 383t393 137zM602 887q-49 0 -83 -85 t-40 -249h228q-7 334 -105 334z" glyph-name="emacron" horiz-adv-x="1159" unicode="ē"/><glyph d="M756 1567q-92 0 -159 65.5t-67 159.5q0 92 67 156.5t159 64.5t158.5 -64.5t66.5 -156.5q0 -94 -66.5 -159.5t-158.5 -65.5zM1380 578h66l-62 -578h-1310v61q109 18 142.5 42t33.5 83v1078q0 61 -34 83.5t-142 41.5v61h1315v-559h-66q-57 252 -139 335t-271 83h-217v-494 h84q109 0 161 59.5t85 233.5h66v-729h-66q-33 176 -85 236.5t-161 60.5h-84v-537h168q412 1 516 439z" glyph-name="Edotaccent" horiz-adv-x="1511" unicode="Ė"/><glyph d="M614.5 1100q-92.5 0 -159 65.5t-66.5 159.5q0 92 66.5 156.5t159 64.5t159 -64.5t66.5 -156.5q0 -94 -66.5 -159.5t-159 -65.5zM606 1016q113 0 203 -26.5t168 -87t114.5 -176.5t24.5 -277h-637q6 -166 60.5 -248t175.5 -82q180 0 309 133l63 -66q-88 -111 -196.5 -165 t-276.5 -54q-262 0 -414.5 138.5t-152.5 390.5q0 246 166 383t393 137zM602 887q-49 0 -83 -85t-40 -249h228q-7 334 -105 334z" glyph-name="edotaccent" horiz-adv-x="1159" unicode="ė"/><glyph d="M1386 0q-137 -47 -189 -115.5t-52 -130.5q0 -78 76 -78q86 0 141 56l14 -19q-35 -80 -107.5 -130t-176.5 -50q-197 0 -197 174q0 100 89 177t247 116h-1157v61q109 18 142.5 42t33.5 83v1078q0 61 -34 83.5t-142 41.5v61h1315v-559h-66q-57 252 -139 335t-271 83h-217 v-494h84q109 0 161 59.5t85 233.5h66v-729h-66q-33 176 -85 236.5t-161 60.5h-84v-537h168q412 0 516 439h66l-62 -578h2z" glyph-name="Eogonek" horiz-adv-x="1511" unicode="Ę"/><glyph d="M606 1016q113 0 203 -26.5t168 -87t114.5 -176.5t24.5 -277h-637q6 -166 60.5 -248t175.5 -82q180 0 309 133l63 -66q-92 -115 -202 -168l-2 -2h-4q-31 -14 -43 -16q-193 -84 -193 -227q0 -78 76 -78q86 0 141 55l14 -18q-35 -80 -107.5 -130.5t-176.5 -50.5 q-197 0 -197 175q0 152 189 241q-248 10 -391.5 146.5t-143.5 382t166 383t393 137.5zM602 887q-49 0 -83 -85t-40 -249h228q-7 334 -105 334z" glyph-name="eogonek" horiz-adv-x="1159" unicode="ę"/><glyph d="M756 1597q-51 0 -90 35t-82 121l-123 250l20 16l275 -172l274 172l21 -16l-123 -250q-43 -86 -82 -121t-90 -35zM1380 578h66l-62 -578h-1310v61q109 18 142.5 42t33.5 83v1078q0 61 -34 83.5t-142 41.5v61h1315v-559h-66q-57 252 -139 335t-271 83h-217v-494h84 q109 0 161 59.5t85 233.5h66v-729h-66q-33 176 -85 236.5t-161 60.5h-84v-537h168q412 1 516 439z" glyph-name="Ecaron" horiz-adv-x="1511" unicode="Ě"/><glyph d="M614.5 1130q-51.5 0 -90.5 35t-82 121l-123 250l21 16l274 -172l275 172l20 -16l-123 -250q-43 -86 -81.5 -121t-90 -35zM606 1016q113 0 203 -26.5t168 -87t114.5 -176.5t24.5 -277h-637q6 -166 60.5 -248t175.5 -82q180 0 309 133l63 -66q-88 -111 -196.5 -165 t-276.5 -54q-262 0 -414.5 138.5t-152.5 390.5q0 246 166 383t393 137zM602 887q-49 0 -83 -85t-40 -249h228q-7 334 -105 334z" glyph-name="ecaron" horiz-adv-x="1159" unicode="ě"/><glyph d="M852 1599q-127 0 -199.5 100.5t-62.5 256.5h43q4 -63 60.5 -107.5t158.5 -44.5q104 0 159.5 44t59.5 108h41q10 -156 -61.5 -256.5t-198.5 -100.5zM1675 729v-61q-96 -18 -125.5 -42t-29.5 -83v-543h-101q-29 57 -56.5 86t-66.5 29q-43 0 -117.5 -37t-189.5 -74t-252 -37 q-301 0 -497.5 195.5t-196.5 560.5q0 178 66.5 326.5t175 240.5t241.5 142.5t273 50.5q98 0 181 -14.5t121 -29t99 -42.5q94 -37 126 -24t63 89h63v-583h-86q-27 221 -147.5 339.5t-298.5 118.5q-201 0 -308.5 -174t-107.5 -440q0 -250 101.5 -411.5t275.5 -161.5 q123 0 211 49v344q0 59 -42 82.5t-176 42.5v61h801z" glyph-name="Gbreve" horiz-adv-x="1722" unicode="Ğ"/><glyph d="M555 1133q-127 0 -199.5 100t-62.5 256h43q4 -63 60.5 -107.5t158.5 -44.5q104 0 159.5 44t59.5 108h41q10 -156 -61.5 -256t-198.5 -100zM641 219q231 -14 345 -80.5t114 -218.5q0 -338 -568 -338q-274 0 -409 42t-135 151q0 145 278 157q-170 61 -170 211 q0 164 197 209q-217 92 -217 310q0 125 77.5 208.5t176 114.5t207.5 31q63 0 112 -10q154 197 320 219q63 8 108 -21.5t51 -87.5q8 -66 -28.5 -115t-93.5 -49q-86 0 -172 103q-47 -31 -86 -74q250 -88 249 -319q0 -96 -44 -169t-115.5 -111t-147.5 -56.5t-153 -18.5h-2 q-195 0 -195 -39q0 -31 301 -49zM536.5 891q-100.5 0 -100.5 -229q0 -227 100.5 -227.5t100.5 227.5q0 229 -100.5 229zM561 -287q104 0 171 24.5t67 65.5q0 37 -47 54.5t-191 25.5q-66 4 -94 8q-160 -16 -160 -86q0 -92 254 -92z" glyph-name="gbreve" horiz-adv-x="1110" unicode="ğ"/><glyph d="M852 1567q-92 0 -158.5 65.5t-66.5 159.5q0 92 66.5 156.5t158.5 64.5t158.5 -64.5t66.5 -156.5q0 -94 -66.5 -159.5t-158.5 -65.5zM1675 729v-61q-96 -18 -125.5 -42t-29.5 -83v-543h-101q-29 57 -56.5 86t-66.5 29q-43 0 -117.5 -37t-189.5 -74t-252 -37 q-301 0 -497.5 195.5t-196.5 560.5q0 178 66.5 326.5t175 240.5t241.5 142.5t273 50.5q98 0 181 -14.5t121 -29t99 -42.5q94 -37 126 -24t63 89h63v-583h-86q-27 221 -147.5 339.5t-298.5 118.5q-201 0 -308.5 -174t-107.5 -440q0 -250 101.5 -411.5t275.5 -161.5 q123 0 211 49v344q0 59 -42 82.5t-176 42.5v61h801z" glyph-name="Gdotaccent" horiz-adv-x="1722" unicode="Ġ"/><glyph d="M514 1104q-86 0 -146.5 59.5t-60.5 145.5t60.5 145t146.5 59t146.5 -59t60.5 -145t-60.5 -145.5t-146.5 -59.5zM641 219q231 -14 345 -80.5t114 -218.5q0 -338 -568 -338q-274 0 -409 42t-135 151q0 145 278 157q-170 61 -170 211q0 164 197 209q-217 92 -217 310 q0 125 77.5 208.5t176 114.5t207.5 31q63 0 112 -10q154 197 320 219q63 8 108 -21.5t51 -87.5q8 -66 -28.5 -115t-93.5 -49q-86 0 -172 103q-47 -31 -86 -74q250 -88 249 -319q0 -96 -44 -169t-115.5 -111t-147.5 -56.5t-153 -18.5h-2q-195 0 -195 -39q0 -31 301 -49z M536.5 891q-100.5 0 -100.5 -229q0 -227 100.5 -227.5t100.5 227.5q0 229 -100.5 229zM561 -287q104 0 171 24.5t67 65.5q0 37 -47 54.5t-191 25.5q-66 4 -94 8q-160 -16 -160 -86q0 -92 254 -92z" glyph-name="gdotaccent" horiz-adv-x="1110" unicode="ġ"/><glyph d="M1675 729v-61q-96 -18 -125.5 -42t-29.5 -83v-543h-101q-29 57 -56.5 86t-66.5 29q-43 0 -117.5 -37t-189.5 -74t-252 -37q-301 0 -497.5 195.5t-196.5 560.5q0 178 66.5 326.5t175 240.5t241.5 142.5t273 50.5q98 0 181 -14.5t121 -29t99 -42.5q94 -37 126 -24t63 89h63 v-583h-86q-27 221 -147.5 339.5t-298.5 118.5q-201 0 -308.5 -174t-107.5 -440q0 -250 101.5 -411.5t275.5 -161.5q123 0 211 49v344q0 59 -42 82.5t-176 42.5v61h801zM842 -90q86 0 131 -57.5t45 -139.5q0 -127 -90 -206.5t-234 -75.5l-8 37q94 12 146.5 65t58.5 123 q-29 -16 -70 -16q-57 0 -91 33.5t-34 97.5q0 59 41.5 99t104.5 40z" glyph-name="Gcommaaccent" horiz-adv-x="1722" unicode="Ģ"/><glyph d="M565 1120q-86 0 -131 57.5t-45 139.5q0 127 90 207t234 75l8 -36q-94 -12 -146.5 -65.5t-58.5 -123.5q29 16 70 17q57 0 91 -34t34 -97q0 -59 -41.5 -99.5t-104.5 -40.5zM641 219q231 -14 345 -80.5t114 -218.5q0 -338 -568 -338q-274 0 -409 42t-135 151q0 145 278 157 q-170 61 -170 211q0 164 197 209q-217 92 -217 310q0 125 77.5 208.5t176 114.5t207.5 31q63 0 112 -10q154 197 320 219q63 8 108 -21.5t51 -87.5q8 -66 -28.5 -115t-93.5 -49q-86 0 -172 103q-47 -31 -86 -74q250 -88 249 -319q0 -96 -44 -169t-115.5 -111t-147.5 -56.5 t-153 -18.5h-2q-195 0 -195 -39q0 -31 301 -49zM536.5 891q-100.5 0 -100.5 -229q0 -227 100.5 -227.5t100.5 227.5q0 229 -100.5 229zM561 -287q104 0 171 24.5t67 65.5q0 37 -47 54.5t-191 25.5q-66 4 -94 8q-160 -16 -160 -86q0 -92 254 -92z" glyph-name="gcommaaccent" horiz-adv-x="1110" unicode="ģ"/><glyph d="M1829 1389q-109 -18 -142.5 -42t-33.5 -83v-181h170v-141h-170v-756q0 -59 33.5 -82.5t142.5 -42.5v-61h-799v61q109 18 142.5 42t33.5 83v357h-510v-357q0 -59 34 -82.5t142 -42.5v-61h-798v61q109 18 142.5 42t33.5 83v756h-170v141h170v181q0 61 -34 83.5t-142 41.5 v61h798v-61q-109 -18 -142.5 -42t-33.5 -83v-181h510v181q0 59 -33.5 82.5t-142.5 42.5v61h799v-61zM1206 684v258h-510v-258h510z" glyph-name="Hbar" horiz-adv-x="1902" unicode="Ħ"/><glyph d="M1235 186q0 -61 23.5 -83.5t99.5 -41.5v-61h-625v61q49 20 67.5 44t18.5 81v490q0 119 -84 119q-102 0 -164 -170v-439q0 -57 18.5 -80.5t67.5 -44.5v-61h-612v61q72 18 93.5 42t21.5 83v940h-86v125h86v41q0 55 -16.5 72.5t-84.5 36.5v61l512 82v-293h320v-125h-320 v-344q115 233 349 234q315 0 315 -354v-476z" glyph-name="hbar" horiz-adv-x="1382" unicode="ħ"/><glyph d="M137 1901h672v-125h-672v125zM872 1389q-109 -18 -142.5 -42t-33.5 -83v-1078q0 -59 34 -82.5t142 -42.5v-61h-798v61q109 18 142.5 42t33.5 83v1078q0 61 -34 83.5t-142 41.5v61h798v-61z" glyph-name="Imacron" horiz-adv-x="946" unicode="Ī"/><glyph d="M51 1434h672v-125h-672v125zM602 186q0 -59 21.5 -82.5t93.5 -42.5v-61h-645v61q72 18 93 42t21 83v547q0 55 -16 72.5t-84 36.5v61l516 103v-820z" glyph-name="imacron" horiz-adv-x="772" unicode="ī"/><glyph d="M872 1389q-109 -18 -142.5 -42t-33.5 -83v-1078q0 -59 34 -82.5t142 -42.5v-61h-71q-188 -84 -189 -225q0 -78 76 -78q86 0 141 55l15 -18q-35 -80 -107.5 -130t-177.5 -50q-197 0 -197 174q0 88 69 158.5t196 113.5h-553v61q109 18 142.5 42t33.5 83v1078q0 61 -34 83.5 t-142 41.5v61h798v-61z" glyph-name="Iogonek" horiz-adv-x="946" unicode="Į"/><glyph d="M387 1100q-92 0 -158.5 65.5t-66.5 159.5q0 92 66.5 156.5t158.5 64.5t158.5 -64.5t66.5 -156.5q0 -94 -66.5 -159.5t-158.5 -65.5zM643 0q-188 -84 -188 -225q0 -78 75 -78q86 0 142 55l14 -18q-35 -80 -107.5 -130t-177.5 -50q-197 0 -196 174q0 88 68.5 158.5 t195.5 113.5h-397v61q72 18 93 42t21 83v547q0 55 -16 72.5t-84 36.5v61l516 103v-820q0 -59 21.5 -82.5t93.5 -42.5v-61h-74z" glyph-name="iogonek" horiz-adv-x="772" unicode="į"/><glyph d="M473 1567q-92 0 -158.5 65.5t-66.5 159.5q0 92 66.5 156.5t158.5 64.5t158.5 -64.5t66.5 -156.5q0 -94 -66.5 -159.5t-158.5 -65.5zM872 1389q-109 -18 -142.5 -42t-33.5 -83v-1078q0 -59 34 -82.5t142 -42.5v-61h-798v61q109 18 142.5 42t33.5 83v1078q0 61 -34 83.5 t-142 41.5v61h798v-61z" glyph-name="Idotaccent" horiz-adv-x="946" unicode="İ"/><glyph d="M602 186q0 -59 21.5 -82.5t93.5 -42.5v-61h-645v61q72 18 93 42t21 83v547q0 55 -16 72.5t-84 36.5v61l516 103v-820z" glyph-name="dotlessi" horiz-adv-x="772" unicode="ı"/><glyph d="M1593 244q55 -90 91 -120t120 -63v-61h-823v61q106 20 127.5 56.5t-27.5 111.5l-278 449l-107 -96v-396q0 -61 29 -83.5t129 -41.5v-61h-780v61q109 18 142.5 42t33.5 83v1078q0 59 -34 82.5t-142 42.5v61h798v-61q-109 -18 -142.5 -42t-33.5 -83v-514l441 401 q215 195 -80 238v61h678v-61q-180 -35 -467 -293l-131 -119zM911 -90q86 0 131 -57.5t45 -139.5q0 -127 -90 -206.5t-233 -75.5l-8 37q94 12 146 65t59 123q-29 -16 -70 -16q-57 0 -91 33.5t-34 97.5q0 59 41 99t104 40z" glyph-name="Kcommaaccent" horiz-adv-x="1841" unicode="Ķ"/><glyph d="M1212 242q45 -80 85 -119t96 -62v-61h-680v61q61 20 75.5 52t-18.5 94l-133 242l-66 -52v-211q0 -57 18.5 -80.5t67.5 -44.5v-61h-612v61q72 18 93.5 42t21.5 83v1110q0 51 -18.5 70.5t-84.5 34.5v61l514 94v-1030l293 230q66 51 50.5 101t-103.5 65v61h539v-61 q-160 -37 -353 -189l-41 -33zM684 -90q86 0 131 -57.5t45 -139.5q0 -127 -90 -206.5t-233 -75.5l-9 37q94 12 146.5 65t58.5 123q-29 -16 -69 -16q-57 0 -91 33.5t-34 97.5q0 59 41 99t104 40z" glyph-name="kcommaaccent" horiz-adv-x="1388" unicode="ķ"/><glyph d="M682 1731l-205 -152l-22 12l20 254q10 125 82 172t152 11q76 -35 75.5 -128t-102.5 -169zM1380 578h66l-62 -578h-1310v61q109 18 142.5 42t33.5 83v1078q0 61 -34 83.5t-142 41.5v61h880v-61q-162 -18 -210 -41t-48 -84v-1125h168q407 1 516 439z" glyph-name="Lacute" horiz-adv-x="1488" unicode="Ĺ"/><glyph d="M547 1808l-205 -151l-23 12l21 254q10 125 82 172t151 10q76 -35 76 -128t-102 -169zM575 186q0 -59 21.5 -82.5t93.5 -42.5v-61h-641v61q72 18 93.5 42t21.5 83v1114q0 55 -20.5 74t-98.5 35v61l530 82v-1366z" glyph-name="lacute" horiz-adv-x="716" unicode="ĺ"/><glyph d="M1380 578h66l-62 -578h-1310v61q109 18 142.5 42t33.5 83v1078q0 61 -34 83.5t-142 41.5v61h880v-61q-162 -18 -210 -41t-48 -84v-1125h168q407 1 516 439zM735 -90q86 0 131 -57.5t45 -139.5q0 -127 -90 -206.5t-233 -75.5l-8 37q94 12 146 65t58 123q-29 -16 -69 -16 q-57 0 -91 33.5t-34 97.5q0 59 41 99t104 40z" glyph-name="Lcommaaccent" horiz-adv-x="1488" unicode="Ļ"/><glyph d="M575 186q0 -59 21.5 -82.5t93.5 -42.5v-61h-641v61q72 18 93.5 42t21.5 83v1114q0 55 -20.5 74t-98.5 35v61l530 82v-1366zM348 -90q86 0 131 -57.5t45 -139.5q0 -127 -90 -206.5t-233 -75.5l-8 37q94 12 146 65t58 123q-29 -16 -69 -16q-57 0 -91 33.5t-34 97.5 q0 59 41 99t104 40z" glyph-name="lcommaaccent" horiz-adv-x="716" unicode="ļ"/><glyph d="M1141 899l-41 344q-14 125 26.5 182.5t118.5 57.5q100 0 126 -88t-40 -205l-166 -295zM1380 578h66l-62 -578h-1310v61q109 18 142.5 42t33.5 83v1078q0 61 -34 83.5t-142 41.5v61h880v-61q-162 -18 -210 -41t-48 -84v-1125h168q407 1 516 439z" glyph-name="Lcaron" horiz-adv-x="1488" unicode="Ľ"/><glyph d="M834 1561q100 0 125.5 -88.5t-39.5 -204.5l-166 -295l-25 4l-41 344q-14 125 27 182.5t119 57.5zM575 186q0 -59 21.5 -82.5t93.5 -42.5v-61h-641v61q72 18 93.5 42t21.5 83v1114q0 55 -20.5 74t-98.5 35v61l530 82v-1366z" glyph-name="lcaron" horiz-adv-x="716" unicode="ľ"/><glyph d="M1380 578h66l-62 -578h-1310v61q109 18 142.5 42t33.5 83v443l-156 -41l-26 106l182 49v521q0 61 -34 83.5t-142 41.5v61h880v-61q-162 -18 -210 -41t-48 -84v-404l353 94l28 -106l-381 -100v-609h168q407 1 516 439z" glyph-name="Lslash" horiz-adv-x="1488" unicode="Ł"/><glyph d="M637 186q0 -59 21.5 -82.5t93.5 -42.5v-61h-641v61q72 18 93 42t21 83v527l-170 -66l-43 117l213 82v454q0 55 -20.5 74t-98.5 35v61l531 82v-548l178 67l45 -117l-223 -86v-682z" glyph-name="lslash" horiz-adv-x="860" unicode="ł"/><glyph d="M1098 1731l-205 -152l-23 12l21 254q10 125 81.5 172t151.5 11q76 -35 76 -128t-102 -169zM1188 1450h579v-61q-96 -23 -145 -66t-49 -154v-1169h-367l-803 1042v-761q0 -111 58.5 -154t173.5 -66v-61h-582v61q98 23 147.5 66t49.5 154v983q0 59 -34 82.5t-142 42.5v61 h577l768 -995v714q0 111 -58 154t-173 66v61z" glyph-name="Nacute" horiz-adv-x="1818" unicode="Ń"/><glyph d="M909 1264l-204 -152l-23 12l20 254q10 125 82 172t152 11q76 -35 75.5 -128t-102.5 -169zM1262 186q0 -61 23.5 -83.5t98.5 -41.5v-61h-624v61q49 20 67.5 44t18.5 81v490q0 119 -84 119q-100 0 -160 -158v-451q0 -57 18.5 -80.5t67.5 -44.5v-61h-616v61q72 18 93 42 t21 83v559q0 55 -20.5 77t-93.5 44v62l530 82v-219q115 225 344 225q315 0 316 -354v-476z" glyph-name="nacute" horiz-adv-x="1409" unicode="ń"/><glyph d="M1188 1450h579v-61q-96 -23 -145 -66t-49 -154v-1169h-367l-803 1042v-761q0 -111 58.5 -154t173.5 -66v-61h-582v61q98 23 147.5 66t49.5 154v983q0 59 -34 82.5t-142 42.5v61h577l768 -995v714q0 111 -58 154t-173 66v61zM899 -90q86 0 131 -57.5t45 -139.5 q0 -127 -90 -206.5t-233 -75.5l-9 37q94 12 146.5 65t58.5 123q-29 -16 -69 -16q-57 0 -91 33.5t-34 97.5q0 59 41 99t104 40z" glyph-name="Ncommaaccent" horiz-adv-x="1818" unicode="Ņ"/><glyph d="M1262 186q0 -61 23.5 -83.5t98.5 -41.5v-61h-624v61q49 20 67.5 44t18.5 81v490q0 119 -84 119q-100 0 -160 -158v-451q0 -57 18.5 -80.5t67.5 -44.5v-61h-616v61q72 18 93 42t21 83v559q0 55 -20.5 77t-93.5 44v62l530 82v-219q115 225 344 225q315 0 316 -354v-476z M717 -90q86 0 131 -57.5t45 -139.5q0 -127 -90 -206.5t-234 -75.5l-8 37q94 12 146.5 65t58.5 123q-29 -16 -70 -16q-57 0 -91 33.5t-34 97.5q0 59 41.5 99t104.5 40z" glyph-name="ncommaaccent" horiz-adv-x="1409" unicode="ņ"/><glyph d="M909.5 1597q-51.5 0 -90.5 35t-82 121l-123 250l21 16l274 -172l275 172l20 -16l-123 -250q-43 -86 -81.5 -121t-90 -35zM1188 1450h579v-61q-96 -23 -145 -66t-49 -154v-1169h-367l-803 1042v-761q0 -111 58.5 -154t173.5 -66v-61h-582v61q98 23 147.5 66t49.5 154v983 q0 59 -34 82.5t-142 42.5v61h577l768 -995v714q0 111 -58 154t-173 66v61z" glyph-name="Ncaron" horiz-adv-x="1818" unicode="Ň"/><glyph d="M721 1130q-51 0 -90 35t-82 121l-123 250l20 16l275 -172l274 172l21 -16l-123 -250q-43 -86 -82 -121t-90 -35zM1262 186q0 -61 23.5 -83.5t98.5 -41.5v-61h-624v61q49 20 67.5 44t18.5 81v490q0 119 -84 119q-100 0 -160 -158v-451q0 -57 18.5 -80.5t67.5 -44.5v-61 h-616v61q72 18 93 42t21 83v559q0 55 -20.5 77t-93.5 44v62l530 82v-219q115 225 344 225q315 0 316 -354v-476z" glyph-name="ncaron" horiz-adv-x="1409" unicode="ň"/><glyph d="M1147 1450h579v-61q-96 -23 -145 -66t-49 -154v-987q0 -600 -453 -600q-272 0 -272 182q0 57 32.5 101.5t90.5 44.5q125 0 227 -209q154 35 201 209l-955 1141v-770q0 -111 58.5 -154t173.5 -66v-61h-582v61q98 23 147.5 66t49.5 154v983q0 59 -34 82.5t-142 42.5v61h577 l727 -854v573q0 111 -58 154t-173 66v61z" glyph-name="Eng" horiz-adv-x="1818" unicode="Ŋ"/><glyph d="M946 1016q315 0 316 -354v-480q0 -600 -482 -600q-279 0 -278 142q0 53 31.5 88.5t84.5 35.5q100 0 170 -157q57 57 58 241v744q0 119 -84 119q-100 0 -160 -158v-451q0 -57 18.5 -80.5t67.5 -44.5v-61h-616v61q72 18 93 42t21 83v559q0 55 -20.5 77t-93.5 44v62l530 82 v-219q115 225 344 225z" glyph-name="eng" horiz-adv-x="1409" unicode="ŋ"/><glyph d="M555 1901h672v-125h-672v125zM891 -33q-365 0 -606.5 202t-241.5 552q0 354 241.5 558t606.5 204q236 0 426 -87t306 -263.5t116 -411.5q0 -233 -116 -407.5t-306 -260.5t-426 -86zM891 117q178 0 282.5 168t104.5 436q0 274 -104.5 444t-282.5 170t-282.5 -170 t-104.5 -444q0 -268 104.5 -436t282.5 -168z" glyph-name="Omacron" horiz-adv-x="1779" unicode="Ō"/><glyph d="M297 1434h672v-125h-672v125zM633 -27q-260 0 -423 131.5t-163 378.5q0 258 163 395.5t423 137.5t423 -137.5t163 -395.5q0 -248 -163 -379t-423 -131zM633 102q78 0 115.5 88.5t37.5 292.5q0 403 -153.5 403.5t-153.5 -403.5q0 -205 38 -293t116 -88z" glyph-name="omacron" horiz-adv-x="1265" unicode="ō"/><glyph d="M676 1581l-25 6l-33 199q-27 156 19.5 222.5t134.5 57.5q59 -6 88 -48t14.5 -115.5t-79.5 -161.5zM963 1577l-21 16l86 242q29 82 75 124t90 39t87 -30q41 -31 48 -79t-29.5 -104t-116.5 -97zM891 -33q-365 0 -606.5 202t-241.5 552q0 354 241.5 558t606.5 204 q236 0 426 -87t306 -263.5t116 -411.5q0 -233 -116 -407.5t-306 -260.5t-426 -86zM891 117q178 0 282.5 168t104.5 436q0 274 -104.5 444t-282.5 170t-282.5 -170t-104.5 -444q0 -268 104.5 -436t282.5 -168z" glyph-name="Ohungarumlaut" horiz-adv-x="1779" unicode="Ő"/><glyph d="M418 1114l-25 6l-33 199q-27 156 19.5 222.5t134.5 57.5q59 -6 88 -48t14.5 -115.5t-79.5 -161.5zM705 1110l-21 16l86 242q29 82 75 124t90 39t87 -30q41 -31 48 -79t-29.5 -104t-116.5 -97zM633 -27q-260 0 -423 131.5t-163 378.5q0 258 163 395.5t423 137.5 t423 -137.5t163 -395.5q0 -248 -163 -379t-423 -131zM633 102q78 0 115.5 88.5t37.5 292.5q0 403 -153.5 403.5t-153.5 -403.5q0 -205 38 -293t116 -88z" glyph-name="ohungarumlaut" horiz-adv-x="1265" unicode="ő"/><glyph d="M2214 578h65l-61 -578h-1307q-379 0 -623.5 192.5t-244.5 528.5q0 340 243.5 534.5t622.5 194.5h1313v-559h-65q-57 252 -139.5 335t-270.5 83h-217v-494h84q109 0 161 59.5t85 233.5h65v-729h-65q-33 176 -85.5 236.5t-160.5 60.5h-84v-537h168q412 1 516 439zM965 139 h118v1170h-118q-225 0 -343 -159t-118 -429q0 -266 118 -424t343 -158z" glyph-name="OE" horiz-adv-x="2344" unicode="Œ"/><glyph d="M1348 1016q113 0 202.5 -26.5t167.5 -87t115 -176.5t25 -277h-637q6 -166 60 -248t175 -82q180 0 309 133l64 -66q-88 -111 -196.5 -165t-276.5 -54q-215 0 -361 94q-145 -88 -362 -88q-260 0 -423 131.5t-163 378.5q0 258 163 395.5t423 137.5q223 0 371 -98 q151 98 344 98zM633 102q78 0 115.5 88.5t37.5 292.5q0 403 -153.5 403.5t-153.5 -403.5q0 -205 38 -293t116 -88zM1343 887q-49 0 -82.5 -85t-39.5 -249h227q-7 334 -105 334z" glyph-name="oe" horiz-adv-x="1900" unicode="œ"/><glyph d="M1026 1731l-205 -152l-22 12l20 254q10 125 82 172t152 11q76 -35 75.5 -128t-102.5 -169zM1651 317l47 -18q-37 -156 -131 -244t-232 -88q-158 0 -237.5 83t-112.5 290q-23 139 -68 217t-95 101.5t-126 27.5v-479q0 -74 37 -100.5t160 -45.5v-61h-819v61 q109 18 142.5 42t33.5 83v1078q0 59 -34 82.5t-142 42.5v61h927q270 0 389 -88t119 -252q0 -168 -146 -270.5t-402 -108.5q186 -20 285.5 -96t139.5 -246q25 -111 51.5 -152.5t75.5 -41.5q75 -1 138 122zM696 821h27q352 0 352 266q0 221 -299 222h-80v-488z" glyph-name="Racute" horiz-adv-x="1691" unicode="Ŕ"/><glyph d="M760 1264l-205 -152l-23 12l21 254q10 125 82 172t151 11q76 -35 76 -128t-102 -169zM893 1016q172 0 172 -154q0 -74 -42 -119t-103 -45q-102 0 -187 107q-86 -113 -131 -332v-287q0 -57 44 -80.5t163 -44.5v-61h-737v61q72 18 93 42t21 83v570q0 55 -18 72.5t-96 35.5 v62l530 82v-248q92 256 291 256z" glyph-name="racute" horiz-adv-x="1056" unicode="ŕ"/><glyph d="M1651 317l47 -18q-37 -156 -131 -244t-232 -88q-158 0 -237.5 83t-112.5 290q-23 139 -68 217t-95 101.5t-126 27.5v-479q0 -74 37 -100.5t160 -45.5v-61h-819v61q109 18 142.5 42t33.5 83v1078q0 59 -34 82.5t-142 42.5v61h927q270 0 389 -88t119 -252 q0 -168 -146 -270.5t-402 -108.5q186 -20 285.5 -96t139.5 -246q25 -111 51.5 -152.5t75.5 -41.5q75 -1 138 122zM696 821h27q352 0 352 266q0 221 -299 222h-80v-488zM827 -90q86 0 131.5 -57.5t45.5 -139.5q0 -127 -90.5 -206.5t-233.5 -75.5l-8 37q94 12 146 65t59 123 q-29 -16 -70 -16q-57 0 -91 33.5t-34 97.5q0 59 41 99t104 40z" glyph-name="Rcommaaccent" horiz-adv-x="1691" unicode="Ŗ"/><glyph d="M893 1016q172 0 172 -154q0 -74 -42 -119t-103 -45q-102 0 -187 107q-86 -113 -131 -332v-287q0 -57 44 -80.5t163 -44.5v-61h-737v61q72 18 93 42t21 83v570q0 55 -18 72.5t-96 35.5v62l530 82v-248q92 256 291 256zM469 -90q86 0 131 -57.5t45 -139.5 q0 -127 -90 -206.5t-233 -75.5l-9 37q94 12 146.5 65t58.5 123q-29 -16 -69 -16q-57 0 -91 33.5t-34 97.5q0 59 41 99t104 40z" glyph-name="rcommaaccent" horiz-adv-x="1056" unicode="ŗ"/><glyph d="M837.5 1597q-51.5 0 -90 35t-81.5 121l-123 250l20 16l275 -172l274 172l21 -16l-123 -250q-43 -86 -82 -121t-90.5 -35zM1651 317l47 -18q-37 -156 -131 -244t-232 -88q-158 0 -237.5 83t-112.5 290q-23 139 -68 217t-95 101.5t-126 27.5v-479q0 -74 37 -100.5 t160 -45.5v-61h-819v61q109 18 142.5 42t33.5 83v1078q0 59 -34 82.5t-142 42.5v61h927q270 0 389 -88t119 -252q0 -168 -146 -270.5t-402 -108.5q186 -20 285.5 -96t139.5 -246q25 -111 51.5 -152.5t75.5 -41.5q75 -1 138 122zM696 821h27q352 0 352 266q0 221 -299 222 h-80v-488z" glyph-name="Rcaron" horiz-adv-x="1691" unicode="Ř"/><glyph d="M571.5 1130q-51.5 0 -90.5 35t-82 121l-123 250l21 16l274 -172l275 172l20 -16l-123 -250q-43 -86 -81.5 -121t-90 -35zM893 1016q172 0 172 -154q0 -74 -42 -119t-103 -45q-102 0 -187 107q-86 -113 -131 -332v-287q0 -57 44 -80.5t163 -44.5v-61h-737v61q72 18 93 42 t21 83v570q0 55 -18 72.5t-96 35.5v62l530 82v-248q92 256 291 256z" glyph-name="rcaron" horiz-adv-x="1056" unicode="ř"/><glyph d="M897 2028q76 -35 76 -128.5t-103 -168.5l-204 -152l-23 12l21 254q10 125 81.5 172.5t151.5 10.5zM905 295q0 94 -64.5 144t-226.5 91q-272 63 -400 191.5t-128 341.5q0 195 127 307.5t340 112.5q35 0 65.5 -2t63.5 -9.5t53.5 -11.5t54 -16t45 -16.5t48.5 -19.5t43 -17 q123 -49 164 63h53v-536h-66q-29 209 -148.5 313t-266.5 104q-207 0 -207 -166q0 -88 66.5 -135t221.5 -84q274 -66 399.5 -185.5t125.5 -346.5q0 -223 -152.5 -337t-400.5 -114q-176 0 -357 76q-61 27 -98 27t-53.5 -16.5t-34.5 -53.5h-53v539h65q23 -127 77 -216.5 t126 -131t137.5 -59t132.5 -17.5q248 0 248 180z" glyph-name="Sacute" horiz-adv-x="1361" unicode="Ś"/><glyph d="M713 1264l-205 -152l-23 12l21 254q10 125 81.5 172t151.5 11q76 -35 76 -128t-102 -169zM608 666q199 -45 280 -134.5t81 -232.5q0 -172 -109.5 -252t-290.5 -80q-188 0 -327 109l-70 -76h-78v395h86q16 -117 96 -204t224 -87q154 0 153 99q0 43 -28.5 65.5t-106.5 36.5 q-254 51 -347 155.5t-93 246.5q0 145 97 227t296 82q170 0 301 -103l45 70h78v-346h-86q-14 115 -100 182.5t-191 67.5q-125 0 -125 -84q0 -43 43 -74.5t172 -62.5z" glyph-name="sacute" horiz-adv-x="1048" unicode="ś"/><glyph d="M1268 418q0 -219 -148.5 -333t-388.5 -118l-16 -82q141 12 207.5 -34t66.5 -123q0 -92 -70.5 -141.5t-183.5 -49.5q-236 0 -342 201l15 18q104 -80 227 -80q113 0 113 58q0 61 -170 69l-3 19l33 151q-123 16 -250 70q-61 27 -98 27t-53.5 -16.5t-34.5 -53.5h-53v539h65 q23 -127 77 -216.5t126 -131t137.5 -59t132.5 -17.5q248 0 248 180q0 94 -64.5 144t-226.5 91q-272 63 -400 191.5t-128 341.5q0 195 127 307.5t340 112.5q35 0 65.5 -2t63.5 -9.5t53.5 -11.5t54 -16t45 -16.5t48.5 -19.5t43 -17q123 -49 164 63h53v-536h-66 q-29 209 -148.5 313t-266.5 104q-207 0 -207 -166q0 -88 66.5 -135t221.5 -84q274 -66 399.5 -185.5t125.5 -346.5z" glyph-name="Scedilla" horiz-adv-x="1361" unicode="Ş"/><glyph d="M969 299q0 -170 -108.5 -250t-287.5 -82l-16 -82q141 12 207.5 -34t66.5 -123q0 -92 -70.5 -141.5t-182.5 -49.5q-236 0 -342 201l14 18q104 -80 227 -80q113 0 113 58q0 61 -170 69l-2 19l35 158q-123 27 -211 96l-70 -76h-78v395h86q16 -117 96 -204t224 -87 q154 0 153 99q0 43 -28.5 65.5t-106.5 36.5q-254 51 -347 155.5t-93 246.5q0 145 97 227t296 82q170 0 301 -103l45 70h78v-346h-86q-14 115 -100 182.5t-191 67.5q-125 0 -125 -84q0 -43 43 -75t172 -62q199 -45 280 -134.5t81 -232.5z" glyph-name="scedilla" horiz-adv-x="1048" unicode="ş"/><glyph d="M682 1597q-51 0 -90 35t-82 121l-123 250l21 16l274 -172l274 172l21 -16l-123 -250q-43 -86 -82 -121t-90 -35zM743 950q274 -66 399.5 -185.5t125.5 -346.5q0 -223 -152.5 -337t-400.5 -114q-176 0 -357 76q-61 27 -98 27t-53.5 -16.5t-34.5 -53.5h-53v539h65 q23 -127 77 -216.5t126 -131t137.5 -59t132.5 -17.5q248 0 248 180q0 94 -64.5 144t-226.5 91q-272 63 -400 191.5t-128 341.5q0 195 127 307.5t340 112.5q35 0 65.5 -2t63.5 -9.5t53.5 -11.5t54 -16t45 -16.5t48.5 -19.5t43 -17q123 -49 164 63h53v-536h-66 q-29 209 -148.5 313t-266.5 104q-207 0 -207 -166q0 -88 66 -135t222 -84z" glyph-name="Scaron" horiz-adv-x="1361" unicode="Š"/><glyph d="M524 1130q-51 0 -90 35t-82 121l-123 250l21 16l274 -172l275 172l20 -16l-123 -250q-43 -86 -82 -121t-90 -35zM608 666q199 -45 280 -134.5t81 -232.5q0 -172 -109.5 -252t-290.5 -80q-188 0 -327 109l-70 -76h-78v395h86q16 -117 96 -204t224 -87q154 0 153 99 q0 43 -28.5 65.5t-106.5 36.5q-254 51 -347 155.5t-93 246.5q0 145 97 227t296 82q170 0 301 -103l45 70h78v-346h-86q-14 115 -100 182.5t-191 67.5q-125 0 -125 -84q0 -43 43 -74.5t172 -62.5z" glyph-name="scaron" horiz-adv-x="1048" unicode="š"/><glyph d="M1499 1450v-621h-65q-57 291 -139.5 387.5t-270.5 96.5h-8v-1127q0 -59 38 -82.5t158 -42.5v-61h-362l-25 -115q141 12 208 -34t67 -123q0 -92 -71 -141.5t-183 -49.5q-236 0 -342 201l14 18q104 -80 227 -80q113 0 113 58q0 61 -170 69l-2 19l39 178h-352v61 q121 18 158.5 42t37.5 83v1127h-8q-188 0 -270 -96.5t-139 -387.5h-66v621h1413z" glyph-name="Tcommaaccent" horiz-adv-x="1585" unicode="Ţ"/><glyph d="M524 -115q141 12 208 -34t67 -123q0 -92 -71 -141.5t-183 -49.5q-236 0 -342 201l14 18q104 -80 227 -80q113 0 113 58q0 61 -170 69l-2 19l33 147q-299 23 -299 387v502h-125v125h168l293 313h80v-313h292v-125h-292v-590q0 -152 96 -151q106 0 178 137l70 -53 q-102 -201 -336 -230z" glyph-name="tcommaaccent" horiz-adv-x="886" unicode="ţ"/><glyph d="M792.5 1597q-51.5 0 -90 35t-81.5 121l-123 250l20 16l275 -172l274 172l20 -16l-122 -250q-43 -86 -82 -121t-90.5 -35zM1499 1450v-621h-65q-57 291 -139.5 387.5t-270.5 96.5h-8v-1127q0 -59 38 -82.5t158 -42.5v-61h-839v61q121 18 158.5 42t37.5 83v1127h-8 q-188 0 -270 -96.5t-139 -387.5h-66v621h1413z" glyph-name="Tcaron" horiz-adv-x="1585" unicode="Ť"/><glyph d="M678 1085l-41 285q-16 123 26 180.5t119 57.5q102 0 131 -91.5t-45 -199.5l-166 -236zM631 117q106 0 178 137l70 -53q-33 -66 -74 -111t-131 -84t-215 -39q-340 0 -340 389v502h-125v125h168l293 313h80v-313h292v-125h-292v-590q0 -151 96 -151z" glyph-name="tcaron" horiz-adv-x="886" unicode="ť"/><glyph d="M1499 1450v-621h-65q-57 291 -139.5 387.5t-270.5 96.5h-8v-662h325v-125h-325v-340q0 -59 38 -82.5t158 -42.5v-61h-839v61q121 18 158.5 42t37.5 83v340h-327v125h327v662h-8q-188 0 -270 -96.5t-139 -387.5h-66v621h1413z" glyph-name="Tbar" horiz-adv-x="1585" unicode="Ŧ"/><glyph d="M809 254l70 -53q-33 -66 -74 -111t-131 -84t-215 -39q-340 0 -340 389v119h-123v115h123v268h-125v125h168l293 313h80v-313h292v-125h-292v-268h268v-115h-268v-207q0 -152 96 -151q106 0 178 137z" glyph-name="tbar" horiz-adv-x="886" unicode="ŧ"/><glyph d="M590 1901h672v-125h-672v125zM207 690v574q0 57 -36 80.5t-126 44.5v61h758v-61q-94 -18 -122 -41t-28 -84v-748q0 -401 273 -401q268 0 268 401v748q0 61 -34 84.5t-138 40.5v61h780v-61q-92 -18 -127 -43t-35 -82v-574q0 -197 -53 -340t-152.5 -225t-224.5 -120 t-284 -38q-332 0 -525.5 170t-193.5 553z" glyph-name="Umacron" horiz-adv-x="1847" unicode="Ū"/><glyph d="M1032 1434v-125h-672v125h672zM1217 186q0 -59 24.5 -82.5t104.5 -42.5v-61h-547v168q-102 -201 -340 -201q-322 0 -322 365v465q0 59 -26.5 81.5t-102.5 43.5v61h547v-655q0 -141 84 -142q113 0 160 222v389q0 61 -25.5 83.5t-111.5 41.5v61h555v-797z" glyph-name="umacron" horiz-adv-x="1390" unicode="ū"/><glyph d="M926 1540q-117 0 -196 74t-79 190.5t79 191.5t195.5 75t194.5 -74t78 -193q0 -117 -78.5 -190.5t-193.5 -73.5zM926 1677q49 0 86 34t37 93.5t-37 93t-86 33.5t-86 -33.5t-37 -93t37 -93.5t86 -34zM207 690v574q0 57 -36 80.5t-126 44.5v61h758v-61q-94 -18 -122 -41 t-28 -84v-748q0 -401 273 -401q268 0 268 401v748q0 61 -34 84.5t-138 40.5v61h780v-61q-92 -18 -127 -43t-35 -82v-574q0 -197 -53 -340t-152.5 -225t-224.5 -120t-284 -38q-332 0 -525.5 170t-193.5 553z" glyph-name="Uring" horiz-adv-x="1847" unicode="Ů"/><glyph d="M696 1073q-117 0 -195.5 74t-78.5 190.5t79 191.5t195.5 75t194.5 -74t78 -193q0 -117 -79 -190.5t-194 -73.5zM696 1464q-49 0 -86 -33.5t-37 -93t37 -93.5t86 -34t86 34t37 93.5t-37 93t-86 33.5zM1217 186q0 -59 24.5 -82.5t104.5 -42.5v-61h-547v168 q-102 -201 -340 -201q-322 0 -322 365v465q0 59 -26.5 81.5t-102.5 43.5v61h547v-655q0 -141 84 -142q113 0 160 222v389q0 61 -25.5 83.5t-111.5 41.5v61h555v-797z" glyph-name="uring" horiz-adv-x="1390" unicode="ů"/><glyph d="M711 1581l-25 6l-33 199q-27 156 19.5 222.5t134.5 57.5q59 -6 88 -48t14.5 -115.5t-80.5 -161.5zM997 1577l-20 16l86 242q29 82 75 124t90 39t87 -30q41 -31 48 -79t-30 -104t-116 -97zM207 690v574q0 57 -36 80.5t-126 44.5v61h758v-61q-94 -18 -122 -41t-28 -84v-748 q0 -401 273 -401q268 0 268 401v748q0 61 -34 84.5t-138 40.5v61h780v-61q-92 -18 -127 -43t-35 -82v-574q0 -197 -53 -340t-152.5 -225t-224.5 -120t-284 -38q-332 0 -525.5 170t-193.5 553z" glyph-name="Uhungarumlaut" horiz-adv-x="1847" unicode="Ű"/><glyph d="M457 1120l-33 199q-27 156 19 222.5t135 57.5q59 -6 87.5 -48t14.5 -115.5t-80 -161.5l-119 -160zM987 1221l-219 -111l-20 16l86 242q29 82 74.5 124t89.5 39t87 -30q41 -31 48.5 -79t-29.5 -104t-117 -97zM1217 186q0 -59 24.5 -82.5t104.5 -42.5v-61h-547v168 q-102 -201 -340 -201q-322 0 -322 365v465q0 59 -26.5 81.5t-102.5 43.5v61h547v-655q0 -141 84 -142q113 0 160 222v389q0 61 -25.5 83.5t-111.5 41.5v61h555v-797z" glyph-name="uhungarumlaut" horiz-adv-x="1390" unicode="ű"/><glyph d="M1022 1450h780v-61q-92 -18 -127 -43t-35 -82v-574q0 -612 -516 -706q-133 -47 -182 -114t-49 -128q0 -78 76 -78q86 0 141 55l14 -18q-35 -80 -107.5 -130t-176.5 -50q-197 0 -197 174q0 88 69.5 159.5t194.5 112.5q-324 4 -512 175t-188 548v574q0 57 -36 80.5 t-126 44.5v61h758v-61q-94 -18 -122 -41t-28 -84v-748q0 -401 273 -401q268 0 268 401v748q0 61 -34 84.5t-138 40.5v61z" glyph-name="Uogonek" horiz-adv-x="1847" unicode="Ų"/><glyph d="M1182 -324q86 0 141 56l14 -19q-35 -80 -107.5 -130t-176.5 -50q-197 0 -197 174q0 100 89 177t247 116h-393v168q-102 -201 -340 -201q-322 0 -322 365v465q0 59 -26.5 81.5t-102.5 43.5v61h547v-655q0 -141 84 -142q113 0 160 222v389q0 61 -25.5 83.5t-111.5 41.5v61 h555v-797q0 -59 24.5 -82.5t104.5 -42.5v-59l2 -2q-137 -47 -189.5 -115.5t-52.5 -130.5q0 -78 76 -78z" glyph-name="uogonek" horiz-adv-x="1390" unicode="ų"/><glyph d="M1487 1769l-275 -172l-20 17l123 250q43 86 82 120.5t90 34.5t90 -34.5t82 -120.5l123 -250l-21 -17zM2429 1450h522v-61q-88 -25 -120.5 -58t-67.5 -123l-453 -1208h-481l-352 1061l-336 -1061h-482l-460 1176q-35 106 -68 143t-111 70v61h773v-61q-131 -31 -161 -73 t9 -128l393 -1002l309 1002q29 90 0.5 127t-155.5 74v61h846v-61q-129 -29 -158 -73t6 -128l328 -1004l375 1004q33 90 3 127t-159 74v61z" glyph-name="Wcircumflex" horiz-adv-x="2971" unicode="Ŵ"/><glyph d="M1124 1303l-274 -173l-21 17l123 250q43 86 82 120.5t90.5 34.5t90 -34.5t81.5 -120.5l123 -250l-20 -17zM1565 983h424v-61q-88 -35 -129 -140l-308 -782h-319l-238 598l-239 -598h-316l-307 782q-25 63 -52.5 92t-76.5 48v61h707v-61q-94 -18 -124 -51t-7 -95l163 -450 l258 657h281l258 -655l143 379q37 98 9.5 147t-127.5 68v61z" glyph-name="wcircumflex" horiz-adv-x="1992" unicode="ŵ"/><glyph d="M1036 1769l-274 -172l-21 17l123 250q43 86 82 120.5t90 34.5t90 -34.5t82 -120.5l123 -250l-20 -17zM1204 1450h545v-61q-170 -39 -246 -156l-358 -547v-500q0 -59 33.5 -82.5t142.5 -42.5v-61h-799v61q109 18 142.5 42t33.5 83v428l-401 598q-57 86 -113.5 122 t-134.5 55v61h895v-61q-117 -18 -139.5 -63.5t37.5 -139.5l233 -367l203 332q55 90 56 141t-30.5 68.5t-99.5 28.5v61z" glyph-name="Ycircumflex" horiz-adv-x="1777" unicode="Ŷ"/><glyph d="M793 1303l-275 -173l-20 17l123 250q43 86 81.5 120.5t90 34.5t90.5 -34.5t82 -120.5l122 -250l-20 -17zM895 983h420v-61q-63 -12 -93 -44t-57 -96l-270 -653q-227 -547 -643 -547q-219 0 -219 168q0 63 43 108.5t108 45.5q111 0 226 -191q80 37 153 113l-426 956 q-33 72 -58.5 98.5t-74.5 41.5v61h705v-61q-68 -12 -90.5 -66.5t12.5 -150.5l178 -449l180 449q35 74 23.5 119.5t-38 65t-79.5 32.5v61z" glyph-name="ycircumflex" horiz-adv-x="1318" unicode="ŷ"/><glyph d="M788.5 1606q-77.5 0 -132 54t-54.5 132q0 76 54.5 129t132 53t132 -53t54.5 -129q0 -78 -54.5 -132t-132 -54zM1282 1606q-78 0 -132 54t-54 132q0 76 54 129t132 53t132 -53t54 -129q0 -78 -54 -132t-132 -54zM1204 1450h545v-61q-170 -39 -246 -156l-358 -547v-500 q0 -59 33.5 -82.5t142.5 -42.5v-61h-799v61q109 18 142.5 42t33.5 83v428l-401 598q-57 86 -113.5 122t-134.5 55v61h895v-61q-117 -18 -139.5 -63.5t37.5 -139.5l233 -367l203 332q55 90 56 141t-30.5 68.5t-99.5 28.5v61z" glyph-name="Ydieresis" horiz-adv-x="1777" unicode="Ÿ"/><glyph d="M901 2028q76 -35 76 -128.5t-103 -168.5l-204 -152l-23 12l21 254q10 125 81.5 172.5t151.5 10.5zM92 0v100l684 1209h-209q-201 0 -292 -95.5t-138 -355.5h-65v592h1224v-86l-694 -1223h207q211 0 302 90.5t149 348.5h65v-580h-1233z" glyph-name="Zacute" horiz-adv-x="1392" unicode="Ź"/><glyph d="M756 1561q76 -35 75.5 -128.5t-102.5 -168.5l-205 -152l-22 12l20 254q10 125 82 172.5t152 10.5zM553 123h70q86 0 135 12t82.5 55t51 92.5t42.5 153.5h86v-436h-969v84l473 776h-116q-139 0 -191 -76q-27 -41 -76 -217h-86v416h957v-84z" glyph-name="zacute" horiz-adv-x="1079" unicode="ź"/><glyph d="M686 1567q-92 0 -158.5 65.5t-66.5 159.5q0 92 66.5 156.5t158.5 64.5t158.5 -64.5t66.5 -156.5q0 -94 -66.5 -159.5t-158.5 -65.5zM92 0v100l684 1209h-209q-201 0 -292 -95.5t-138 -355.5h-65v592h1224v-86l-694 -1223h207q211 0 302 90.5t149 348.5h65v-580h-1233z " glyph-name="Zdotaccent" horiz-adv-x="1392" unicode="Ż"/><glyph d="M541 1100q-92 0 -159 65.5t-67 159.5q0 92 67 156.5t159 64.5t158.5 -64.5t66.5 -156.5q0 -94 -66.5 -159.5t-158.5 -65.5zM553 123h70q86 0 135 12t82.5 55t51 92.5t42.5 153.5h86v-436h-969v84l473 776h-116q-139 0 -191 -76q-27 -41 -76 -217h-86v416h957v-84z" glyph-name="zdotaccent" horiz-adv-x="1079" unicode="ż"/><glyph d="M686 1597q-51 0 -90 35t-82 121l-123 250l21 16l274 -172l275 172l20 -16l-123 -250q-43 -86 -82 -121t-90 -35zM1260 580h65v-580h-1233v100l684 1209h-209q-201 0 -292 -95.5t-138 -355.5h-65v592h1224v-86l-694 -1223h207q211 0 302.5 90.5t148.5 348.5z" glyph-name="Zcaron" horiz-adv-x="1392" unicode="Ž"/><glyph d="M540.5 1130q-51.5 0 -90 35t-81.5 121l-123 250l20 16l275 -172l274 172l21 -16l-123 -250q-43 -86 -82 -121t-90.5 -35zM934 436h86v-436h-969v84l473 776h-116q-129 0 -173.5 -53t-87.5 -213l-6 -27h-86v416h957v-84l-459 -776h70q86 0 135 12t82.5 55t51 92.5 t42.5 153.5z" glyph-name="zcaron" horiz-adv-x="1079" unicode="ž"/><glyph d="M743 950q274 -66 399.5 -185.5t125.5 -346.5q0 -223 -152.5 -337t-400.5 -114q-176 0 -357 76q-61 27 -98 27t-53.5 -16.5t-34.5 -53.5h-53v539h65q23 -127 77 -216.5t126 -131t137.5 -59t132.5 -17.5q248 0 248 180q0 94 -64.5 144t-226.5 91q-272 63 -400 191.5 t-128 341.5q0 195 127 307.5t340 112.5q35 0 65.5 -2t63.5 -9.5t53.5 -11.5t54 -16t45 -16.5t48.5 -19.5t43 -17q123 -49 164 63h53v-536h-66q-29 209 -148.5 313t-266.5 104q-207 0 -207 -166q0 -88 66 -135t222 -84zM672 -90q86 0 131 -57.5t45 -139.5q0 -127 -90 -206.5 t-234 -75.5l-8 37q94 12 146.5 65t58.5 123q-29 -16 -70 -16q-57 0 -91 33.5t-34 97.5q0 59 41.5 99t104.5 40z" glyph-name="Scommaaccent" horiz-adv-x="1361" unicode="Ș"/><glyph d="M608 666q199 -45 280 -134.5t81 -232.5q0 -172 -109.5 -252t-290.5 -80q-188 0 -327 109l-70 -76h-78v395h86q16 -117 96 -204t224 -87q154 0 153 99q0 43 -28.5 65.5t-106.5 36.5q-254 51 -347 155.5t-93 246.5q0 145 97 227t296 82q170 0 301 -103l45 70h78v-346h-86 q-14 115 -100 182.5t-191 67.5q-125 0 -125 -84q0 -43 43 -74.5t172 -62.5zM514 -90q86 0 131 -57.5t45 -139.5q0 -127 -90 -206.5t-233 -75.5l-9 37q94 12 146.5 65t58.5 123q-29 -16 -69 -16q-57 0 -91 33.5t-34 97.5q0 59 41 99t104 40z" glyph-name="scommaaccent" horiz-adv-x="1048" unicode="ș"/><glyph d="M1499 1450v-621h-65q-57 291 -139.5 387.5t-270.5 96.5h-8v-1127q0 -59 38 -82.5t158 -42.5v-61h-839v61q121 18 158.5 42t37.5 83v1127h-8q-188 0 -270 -96.5t-139 -387.5h-66v621h1413zM782 -90q86 0 131 -57.5t45 -139.5q0 -127 -90 -206.5t-233 -75.5l-8 37 q94 12 146 65t58 123q-29 -16 -69 -16q-57 0 -91 33.5t-34 97.5q0 59 41 99t104 40z" glyph-name="uni021A" horiz-adv-x="1585" unicode="Ț"/><glyph d="M809 254l70 -53q-33 -66 -74 -111t-131 -84t-215 -39q-340 0 -340 389v502h-125v125h168l293 313h80v-313h292v-125h-292v-590q0 -152 96 -151q106 0 178 137zM481 -90q86 0 131 -57.5t45 -139.5q0 -127 -90 -206.5t-233 -75.5l-8 37q94 12 146 65t58 123 q-29 -16 -69 -16q-57 0 -91 33.5t-34 97.5q0 59 41 99t104 40z" glyph-name="uni021B" horiz-adv-x="886" unicode="ț"/><glyph d="M-356 1561q80 37 151.5 -10.5t81.5 -172.5l21 -254l-23 -12l-205 152q-102 76 -102 169t76 128z" glyph-name="gravecomb" unicode="̀"/><glyph d="M-82 1561q76 -35 76 -128.5t-103 -168.5l-204 -152l-23 12l21 254q10 125 81.5 172.5t151.5 10.5z" glyph-name="acutecomb" unicode="́"/><glyph d="M-61 1147l-21 -17l-274 173l-275 -173l-20 17l123 250q43 86 81.5 120.5t90 34.5t90.5 -34.5t82 -120.5z" glyph-name="uni0302" unicode="̂"/><glyph d="M-735 1167l-41 13q23 147 87 228t154 81q61 0 144.5 -47t140.5 -47q35 0 64.5 16t44 30.5t39.5 47.5l41 -12q-23 -147 -87.5 -228.5t-154.5 -81.5q-61 0 -144 47.5t-141 47.5q-35 0 -64.5 -16.5t-43.5 -31t-39 -47.5z" glyph-name="tildecomb" unicode="̃"/><glyph d="M-733 1434h672v-125h-672v125z" glyph-name="uni0304" unicode="̄"/><glyph d="M-526 1489q4 -63 60 -107.5t159 -44.5q104 0 159.5 44t59.5 108h41q10 -156 -61.5 -256t-198.5 -100t-200 100t-62 256h43z" glyph-name="uni0306" unicode="̆"/><glyph d="M-328 1100q-92 0 -158.5 65.5t-66.5 159.5q0 92 66.5 156.5t158.5 64.5t159 -64.5t67 -156.5q0 -94 -67 -159.5t-159 -65.5z" glyph-name="uni0307" unicode="̇"/><glyph d="M-782.5 1139q-77.5 0 -132 54t-54.5 132q0 76 54.5 129t132 53t132 -53t54.5 -129q0 -78 -54.5 -132t-132 -54zM-289 1139q-78 0 -132 54t-54 132q0 76 54 129t132 53t132.5 -53t54.5 -129q0 -78 -54.5 -132t-132.5 -54z" glyph-name="uni0308" unicode="̈"/><glyph d="M-356 1073q-117 0 -196 74t-79 190.5t79 191.5t195.5 75t194.5 -74t78 -193q0 -117 -78.5 -190.5t-193.5 -73.5zM-356.5 1210q49.5 0 86.5 34t37 93.5t-37 93t-86.5 33.5t-86 -33.5t-36.5 -93t36.5 -93.5t86 -34z" glyph-name="uni030A" unicode="̊"/><glyph d="M-694 1114l-25 6l-33 199q-27 156 19.5 222.5t134.5 57.5q59 -6 88 -48t14.5 -115.5t-79.5 -161.5zM-408 1110l-20 16l86 242q29 82 75 124t90 39t87 -30q41 -31 48 -79t-30 -104t-116 -97z" glyph-name="uni030B" unicode="̋"/><glyph d="M-82 1552l21 -16l-123 -250q-43 -86 -82 -121t-90.5 -35t-90 35t-81.5 121l-123 250l20 16l275 -172z" glyph-name="uni030C" unicode="̌"/><glyph d="M-201 1391q57 0 91 -34t34 -97q0 -59 -41 -99.5t-104 -40.5q-86 0 -131 57.5t-45 139.5q0 127 90 207t233 75l8 -36q-94 -12 -146 -65.5t-58 -123.5q28 17 69 17z" glyph-name="uni0312" unicode="̒"/><glyph d="M-242 -90q86 0 131 -57.5t45 -139.5q0 -127 -90 -206.5t-233 -75.5l-8 37q94 12 146 65t58 123q-29 -16 -69 -16q-57 0 -91 33.5t-34 97.5q0 59 41 99t104 40z" glyph-name="uni0326" unicode="̦"/><glyph d="M-336 -115q141 12 208 -34t67 -123q0 -92 -71 -141.5t-183 -49.5q-236 0 -342 201l14 18q104 -80 227 -80q113 0 113 58q0 61 -170 69l-2 19l41 188h125z" glyph-name="uni0327" unicode="̧"/><glyph d="M-336 -463q-197 0 -196 174q0 117 120.5 202t329.5 112l41 -21q-137 -47 -189.5 -115.5t-52.5 -130.5q0 -78 76 -77q86 0 141 55l15 -19q-35 -80 -108 -130t-177 -50z" glyph-name="uni0328" unicode="̨"/><glyph d="M1313 1731q-102 76 -102.5 169t75.5 128q80 37 151.5 -10.5t82.5 -172.5l20 -254l-22 -12zM2429 1450h522v-61q-88 -25 -120.5 -58t-67.5 -123l-453 -1208h-481l-352 1061l-336 -1061h-482l-460 1176q-35 106 -68 143t-111 70v61h773v-61q-131 -31 -161 -73t9 -128 l393 -1002l309 1002q29 90 0.5 127t-155.5 74v61h846v-61q-129 -29 -158 -73t6 -128l328 -1004l375 1004q33 90 3 127t-159 74v61z" glyph-name="Wgrave" horiz-adv-x="2971" unicode="Ẁ"/><glyph d="M950 1264q-102 76 -102 169t76 128q80 37 151.5 -10.5t81.5 -172.5l21 -254l-23 -12zM1565 983h424v-61q-88 -35 -129 -140l-308 -782h-319l-238 598l-239 -598h-316l-307 782q-25 63 -52.5 92t-76.5 48v61h707v-61q-94 -18 -124 -51t-7 -95l163 -450l258 657h281 l258 -655l143 379q37 98 9.5 147t-127.5 68v61z" glyph-name="wgrave" horiz-adv-x="1992" unicode="ẁ"/><glyph d="M1675 1731l-205 -152l-22 12l20 254q10 125 82 172t152 11q76 -35 75.5 -128t-102.5 -169zM2429 1450h522v-61q-88 -25 -120.5 -58t-67.5 -123l-453 -1208h-481l-352 1061l-336 -1061h-482l-460 1176q-35 106 -68 143t-111 70v61h773v-61q-131 -31 -161 -73t9 -128 l393 -1002l309 1002q29 90 0.5 127t-155.5 74v61h846v-61q-129 -29 -158 -73t6 -128l328 -1004l375 1004q33 90 3 127t-159 74v61z" glyph-name="Wacute" horiz-adv-x="2971" unicode="Ẃ"/><glyph d="M1313 1264l-205 -152l-23 12l21 254q10 125 82 172t151 11q76 -35 76 -128t-102 -169zM1565 983h424v-61q-88 -35 -129 -140l-308 -782h-319l-238 598l-239 -598h-316l-307 782q-25 63 -52.5 92t-76.5 48v61h707v-61q-94 -18 -124 -51t-7 -95l163 -450l258 657h281 l258 -655l143 379q37 98 9.5 147t-127.5 68v61z" glyph-name="wacute" horiz-adv-x="1992" unicode="ẃ"/><glyph d="M1239 1606q-78 0 -132 54t-54 132q0 76 54 129t132 53t132 -53t54 -129q0 -78 -54 -132t-132 -54zM1732.5 1606q-77.5 0 -132 54t-54.5 132q0 76 54.5 129t132 53t132 -53t54.5 -129q0 -78 -54.5 -132t-132 -54zM2429 1450h522v-61q-88 -25 -120.5 -58t-67.5 -123 l-453 -1208h-481l-352 1061l-336 -1061h-482l-460 1176q-35 106 -68 143t-111 70v61h773v-61q-131 -31 -161 -73t9 -128l393 -1002l309 1002q29 90 0.5 127t-155.5 74v61h846v-61q-129 -29 -158 -73t6 -128l328 -1004l375 1004q33 90 3 127t-159 74v61z" glyph-name="Wdieresis" horiz-adv-x="2971" unicode="Ẅ"/><glyph d="M876.5 1139q-77.5 0 -132 54t-54.5 132q0 76 54.5 129t132 53t132 -53t54.5 -129q0 -78 -54.5 -132t-132 -54zM1370 1139q-78 0 -132 54t-54 132q0 76 54 129t132 53t132 -53t54 -129q0 -78 -54 -132t-132 -54zM1565 983h424v-61q-88 -35 -129 -140l-308 -782h-319 l-238 598l-239 -598h-316l-307 782q-25 63 -52.5 92t-76.5 48v61h707v-61q-94 -18 -124 -51t-7 -95l163 -450l258 657h281l258 -655l143 379q37 98 9.5 147t-127.5 68v61z" glyph-name="wdieresis" horiz-adv-x="1992" unicode="ẅ"/><glyph d="M1303 793q227 -39 328.5 -142.5t101.5 -279.5q0 -201 -151.5 -302.5t-367.5 -101.5q-205 0 -310 72t-105 182q0 61 39 105.5t102 44.5q84 0 137 -74t70 -195q72 10 111.5 77t39.5 177q0 186 -98 265t-334 79v113l248 496h-418v-1309h-622v61q109 18 142.5 42t33.5 83 v1078q0 59 -34 82.5t-142 42.5v61h1517v-115z" glyph-name="uni1E9E" horiz-adv-x="1744" unicode="ẞ"/><glyph d="M862 1731q-102 76 -102 169t76 128q80 37 151.5 -10.5t81.5 -172.5l21 -254l-23 -12zM1204 1450h545v-61q-170 -39 -246 -156l-358 -547v-500q0 -59 33.5 -82.5t142.5 -42.5v-61h-799v61q109 18 142.5 42t33.5 83v428l-401 598q-57 86 -113.5 122t-134.5 55v61h895v-61 q-117 -18 -139.5 -63.5t37.5 -139.5l233 -367l203 332q55 90 56 141t-30.5 68.5t-99.5 28.5v61z" glyph-name="Ygrave" horiz-adv-x="1777" unicode="Ỳ"/><glyph d="M618 1264q-102 76 -102 169t76 128q80 37 151.5 -10.5t81.5 -172.5l21 -254l-23 -12zM895 983h420v-61q-63 -12 -93 -44t-57 -96l-270 -653q-227 -547 -643 -547q-219 0 -219 168q0 63 43 108.5t108 45.5q111 0 226 -191q80 37 153 113l-426 956q-33 72 -58.5 98.5 t-74.5 41.5v61h705v-61q-68 -12 -90.5 -66.5t12.5 -150.5l178 -449l180 449q35 74 23.5 119.5t-38 65t-79.5 32.5v61z" glyph-name="ygrave" horiz-adv-x="1318" unicode="ỳ"/><glyph d="M184 645h1211v-125h-1211v125z" glyph-name="endash" horiz-adv-x="1579" unicode="–"/><glyph d="M184 645h1721v-125h-1721v125z" glyph-name="emdash" horiz-adv-x="2088" unicode="—"/><glyph d="M293 1268q61 0 100 -40t39 -108q0 -72 -45 -114.5t-117 -42.5q-98 0 -149 66.5t-51 174.5q0 137 91 237.5t263 119.5l12 -48q-82 -25 -136 -97.5t-50 -151.5q29 4 43 4z" glyph-name="quoteleft" horiz-adv-x="499" unicode="‘"/><glyph d="M229 1561q98 0 149.5 -67t51.5 -175q0 -137 -91 -237.5t-263 -118.5l-13 47q82 25 136.5 97.5t50.5 152.5q-29 -4 -43 -5q-61 0 -100 40t-39 108q0 72 44.5 115t116.5 43z" glyph-name="quoteright" horiz-adv-x="499" unicode="’"/><glyph d="M205 319q117 0 169 -88t52 -213q0 -164 -100.5 -267t-278.5 -132l-12 47q111 27 180.5 118t60.5 212q-41 -29 -100 -29q-68 0 -110.5 45t-42.5 125q0 82 50 132t132 50z" glyph-name="quotesinglbase" horiz-adv-x="450" unicode="‚"/><glyph d="M436 1513q-82 -25 -136 -97.5t-50 -151.5q29 4 43 4q61 0 100 -40t39 -108q0 -72 -45 -114.5t-117 -42.5q-98 0 -149 66.5t-51 174.5q0 137 91 237.5t263 119.5zM694 1268q61 0 100.5 -40t39.5 -108q0 -72 -45.5 -114.5t-116.5 -42.5q-98 0 -149.5 66.5t-51.5 174.5 q0 137 91 237.5t263 119.5l13 -48q-82 -25 -136.5 -97.5t-50.5 -151.5q29 4 43 4z" glyph-name="quotedblleft" horiz-adv-x="901" unicode="“"/><glyph d="M229 1561q98 0 149.5 -67t51.5 -175q0 -137 -91 -237.5t-263 -118.5l-13 47q82 25 136.5 97.5t50.5 152.5q-29 -4 -43 -5q-61 0 -100 40t-39 108q0 72 44.5 115t116.5 43zM631 1561q98 0 149 -67t51 -175q0 -137 -91 -237.5t-263 -118.5l-12 47q82 25 136 97.5t50 152.5 q-29 -4 -43 -5q-61 0 -100 40t-39 108q0 72 45 115t117 43z" glyph-name="quotedblright" horiz-adv-x="901" unicode="”"/><glyph d="M205 319q117 0 169 -88t52 -213q0 -164 -100.5 -267t-278.5 -132l-12 47q111 27 180.5 118t60.5 212q-41 -29 -100 -29q-68 0 -110.5 45t-42.5 125q0 82 50 132t132 50zM666 319q117 0 169 -88t52 -213q0 -164 -100.5 -267t-278.5 -132l-12 47q111 27 180 118t61 212 q-41 -29 -100 -29q-68 0 -111 45t-43 125q0 82 50.5 132t132.5 50z" glyph-name="quotedblbase" horiz-adv-x="911" unicode="„"/><glyph d="M915 1124v-131h-327v-663h-154v663h-328v131h328v326h154v-326h327z" glyph-name="dagger" horiz-adv-x="1021" unicode="†"/><glyph d="M915 1061h-327v-342h327v-131h-327v-258h-154v258h-328v131h328v342h-328v131h328v258h154v-258h327v-131z" glyph-name="daggerdbl" horiz-adv-x="1021" unicode="‡"/><glyph d="M426 440q-121 0 -206 85t-85 206q0 119 85 203t206 84t208 -84t87 -203q0 -121 -87 -206t-208 -85z" glyph-name="bullet" horiz-adv-x="856" unicode="•"/><glyph d="M305 -25q-80 0 -137 56.5t-57 138.5q0 80 57 135t137 55t138.5 -55t58.5 -135t-58.5 -137.5t-138.5 -57.5zM743.5 -25q-79.5 0 -137 56.5t-57.5 138.5q0 80 57.5 135t137 55t138 -55t58.5 -135t-58.5 -137.5t-138 -57.5zM1182 -25q-80 0 -137.5 56.5t-57.5 138.5 q0 80 57.5 135t137.5 55t138 -55t58 -135t-58 -137.5t-138 -57.5z" glyph-name="ellipsis" horiz-adv-x="1488" unicode="…"/><glyph d="M456.5 799q-202.5 0 -322.5 87t-120 255t120 255t322.5 87t322.5 -87t120 -255t-120 -255t-322.5 -87zM1303 1450h231l-1114 -1450h-232zM457 928q92 0 92 213t-92 213t-92 -213t92 -213zM1257.5 -33q-202.5 0 -322.5 87t-120 255t120 255t322.5 87t322.5 -87t120 -255 t-120 -255t-322.5 -87zM2179 -33q-203 0 -322.5 87t-119.5 255t119.5 255t322.5 87t322.5 -87t119.5 -255t-119.5 -255t-322.5 -87zM1257.5 96q92.5 0 92.5 213t-92.5 213t-92.5 -213t92.5 -213zM2179 96q92 0 92 213t-92 213t-92 -213t92 -213z" glyph-name="perthousand" horiz-adv-x="2635" unicode="‰"/><glyph d="M625 838l-242 -295l242 -295l-27 -39l-315 141q-86 41 -125 85t-39 108q0 61 38 100t130 86l311 148z" glyph-name="guilsinglleft" horiz-adv-x="778" unicode="‹"/><glyph d="M492 729q92 -47 129.5 -86t37.5 -100q0 -63 -38.5 -107.5t-124.5 -85.5l-316 -141l-26 39l241 295l-241 295l26 39z" glyph-name="guilsinglright" horiz-adv-x="778" unicode="›"/><glyph d="M1100 1450h231l-1114 -1450h-231z" glyph-name="fraction" horiz-adv-x="1316" unicode="⁄"/><glyph d="M1470 471l70 -14q-18 -90 -66.5 -174t-124 -157t-192.5 -116t-256 -43q-262 0 -437 135.5t-226 395.5h-193v141h176q-2 23 -2 68q0 51 8 141h-182v141h213q72 236 252 365t403 129q162 0 344 -82q53 -25 86 -29t63 16.5t52 73.5h58v-583h-86q-27 219 -141.5 338.5 t-264.5 119.5q-266 0 -332 -348h389v-141h-407q-4 -78 -4 -123q0 -59 2 -86h413v-141h-399q31 -178 120 -263t243 -85q145 0 259.5 94t161.5 227z" glyph-name="Euro" horiz-adv-x="1613" unicode="€"/><glyph d="M1192 1450v-416h-66q-35 162 -96 233.5t-158 84.5v-572q0 -59 38 -82.5t159 -42.5v-61h-758v61q121 18 159 42t38 83v572q-96 -12 -157.5 -84t-96.5 -234h-66v416h1004zM2830 1389q-96 -18 -126.5 -42t-30.5 -83v-412q0 -96 40 -135t117 -62v-61h-708v61q88 18 116.5 53 t28.5 144v362l-301 -557h-133l-297 543v-293q0 -129 49 -179t148 -73v-61h-492v61q61 16 91 31.5t56.5 70t26.5 150.5v357q0 59 -28.5 82.5t-124.5 42.5v61h542l242 -410l215 410h569v-61z" glyph-name="trademark" horiz-adv-x="3014" unicode="™"/><glyph d="M584 776v-49h-576v49q51 6 74.5 17.5t28 19.5t4.5 27v432h-107v74l70 6q260 25 334 98h65v-610q0 -20 4 -28.5t28 -19t75 -16.5zM1276 1450h231l-1114 -1450h-231zM1532 440q209 -70 209 -219q0 -131 -116 -185t-337 -54q-381 0 -381 184q0 119 170 145q-127 76 -127 203 q0 109 104.5 165t278.5 56q365 0 365 -160q0 -51 -42 -89t-124 -46zM1341 635q-78 0 -77 -53q0 -59 122 -101q45 35 46 82q-1 72 -91 72zM1294 80q127 0 127 59q0 49 -127 86q-57 16 -82 27q-39 -45 -38 -94q-1 -78 120 -78z" glyph-name="oneeighth" horiz-adv-x="1755" unicode="⅛"/><glyph d="M784 932q0 -113 -99 -160t-320 -47q-348 0 -349 164q0 41 26 69.5t79 28.5q119 0 174 -170h6q115 0 115 115q0 109 -140 108h-120v117h120q63 0 97.5 38t34.5 87q0 102 -111 102h-2q-10 -70 -53 -124t-121 -54q-90 0 -90 82t103.5 136.5t266.5 54.5q375 0 375 -187 q0 -143 -196 -182q115 -20 159.5 -65t44.5 -113zM1333 1450h232l-1114 -1450h-232zM1573 440q209 -70 209 -219q0 -131 -116 -185t-337 -54q-381 0 -381 184q0 119 170 145q-127 76 -127 203q0 109 104.5 165t278.5 56q365 0 365 -160q0 -51 -42 -89t-124 -46zM1382 635 q-78 0 -77 -53q0 -59 122 -101q45 35 46 82q-1 72 -91 72zM1335 80q127 0 127 59q0 49 -127 86q-57 16 -82 27q-39 -45 -39 -94q0 -78 121 -78z" glyph-name="threeeighths" horiz-adv-x="1796" unicode="⅜"/><glyph d="M786 938q0 -221 -391 -221q-356 0 -356 170q0 35 22.5 60.5t67.5 25.5q117 0 156 -164h14q57 0 90 30.5t33 84t-35 83t-96 29.5q-74 0 -135 -39l-78 27l8 428h633v-242h-516l-2 -120q102 49 291 49q294 0 294 -201zM1288 1450h232l-1114 -1450h-232zM1497 440 q209 -70 209 -219q0 -131 -115.5 -185t-337.5 -54q-381 0 -381 184q0 119 170 145q-127 76 -127 203q0 109 104.5 165t278.5 56q365 0 365 -160q0 -51 -42 -89t-124 -46zM1307 635q-78 0 -78 -53q0 -59 123 -101q45 35 45 82q0 72 -90 72zM1260 80q127 0 126 59 q0 49 -126 86q-57 16 -82 27q-39 -45 -39 -94q0 -78 121 -78z" glyph-name="fiveeighths" horiz-adv-x="1720" unicode="⅝"/><glyph d="M170 733l344 449h-483v268h682v-137l-209 -580h-334zM1241 1450h232l-1115 -1450h-231zM1501 440q209 -70 209 -219q0 -131 -115.5 -185t-337.5 -54q-381 0 -380 184q0 119 170 145q-127 76 -127 203q0 109 104 165t279 56q365 0 364 -160q0 -51 -42 -89t-124 -46z M1311 635q-78 0 -78 -53q0 -59 123 -101q45 35 45 82q0 72 -90 72zM1264 80q127 0 127 59q0 49 -127 86q-57 16 -82 27q-39 -45 -39 -94q0 -78 121 -78z" glyph-name="seveneighths" horiz-adv-x="1724" unicode="⅞"/><glyph d="M172 647v131h983v-131h-983z" glyph-name="minus" horiz-adv-x="1327" unicode="−"/><glyph glyph-name="approxequal" horiz-adv-x="1228" unicode="≈"/><glyph d="M1155 860h-332l-172 -291h504v-131h-584l-104 -176h-152l107 176h-250v131h328l174 291h-502v131h580l108 180h150l-109 -180h254v-131z" glyph-name="notequal" horiz-adv-x="1327" unicode="≠"/><glyph d="M1100 457l-47 -123l-916 330v135l916 329l47 -122l-774 -275zM90 238h1043v-132h-1043v132z" glyph-name="lessequal" horiz-adv-x="1226" unicode="≤"/><glyph d="M174 334l-47 123l774 274l-774 275l47 122l916 -329v-135zM94 238h1043v-132h-1043v132z" glyph-name="greaterequal" horiz-adv-x="1226" unicode="≥"/><glyph glyph-name="lozenge" horiz-adv-x="1228" unicode="◊"/><glyph d="M2097 1450h481v-61q-78 -27 -116.5 -65t-71.5 -116l-514 -1208h-358l-164 340l-162 -340h-481l-523 1176q-49 113 -77.5 148.5t-100.5 64.5v61h711v-61q-90 -31 -108.5 -73t18.5 -128l461 -1028l176 362l-314 654q-55 117 -78.5 150.5t-78.5 62.5v61h1179v-61 q-90 -27 -134 -71t-95 -153l-168 -352l250 -516l364 850q45 121 22.5 167t-118.5 75v61zM1397 1188l96 -199l90 187q45 90 18.5 148t-110.5 65q-86 -6 -110.5 -62.5t16.5 -138.5z" glyph-name="W.salt" horiz-adv-x="2588"/><glyph d="M2259 186q0 -61 23.5 -83.5t99.5 -41.5v-61h-625v61q49 20 67.5 44t18.5 81v490q0 119 -84 119q-102 0 -164 -170v-439q0 -57 18.5 -80.5t67.5 -44.5v-61h-612v61q72 18 93.5 42t21.5 83v906q0 174 -50.5 257t-168.5 83q-109 0 -181.5 -69t-72.5 -198q0 -80 26 -161 q141 -29 219 -111t78 -178q0 -57 -34.5 -95t-94.5 -38q-96 0 -146 80.5t-79 228.5h-14q-186 0 -187 -395q0 -197 45 -293.5t170 -96.5q137 0 246 132l74 -66q-154 -205 -443 -205q-242 0 -383 138.5t-141 390.5t153.5 386t405.5 134h37q-25 78 -25 149q0 174 104.5 265.5 t248.5 91.5q199 0 307 -103l317 125v-762q115 233 349 234q315 0 315 -354v-476z" glyph-name="c_h.dlig" horiz-adv-x="2406"/><glyph d="M2249 242q45 -80 85 -119t95 -62v-61h-680v61q61 20 75.5 52t-18.5 94l-133 242l-65 -52v-211q0 -57 18.5 -80.5t67.5 -44.5v-61h-613v61q72 18 93.5 42t21.5 83v922q0 164 -52 244t-173 80q-115 0 -189.5 -66t-74.5 -190q0 -86 26 -172q141 -29 221 -111t80 -178 q0 -55 -33.5 -94t-93.5 -39q-184 0 -237 309h-4q-186 0 -187 -395q0 -197 45 -293.5t170 -96.5q137 0 246 132l74 -66q-154 -205 -443 -205q-242 0 -383 138.5t-141 390.5t153.5 386t405.5 134h31q-23 84 -23 160q0 170 105.5 258t257.5 88q201 0 307 -103l324 135v-1028 l293 230q66 51 50 101t-104 65v61h539v-61q-160 -37 -352 -189l-41 -33z" glyph-name="c_k.dlig" horiz-adv-x="2424"/><glyph d="M1599 186q0 -59 21.5 -82.5t93.5 -42.5v-61h-641v61q72 18 93.5 42t21.5 83v922q0 164 -51.5 244t-171.5 80q-106 0 -180 -67t-74 -189q0 -86 26 -172q141 -29 219 -109t78 -174q0 -59 -33.5 -99t-93.5 -40q-96 0 -152.5 88t-76.5 221h-12q-186 0 -187 -395 q0 -197 45 -293.5t170 -96.5q137 0 246 132l74 -66q-154 -205 -443 -205q-242 0 -383 138.5t-141 390.5t153.5 386t405.5 134h37q-25 78 -25 160q0 168 104.5 257t248.5 89q201 0 307 -103l321 133v-1366z" glyph-name="c_l.dlig" horiz-adv-x="1740"/><glyph d="M1890 1016q182 0 306 -135.5t124 -386.5q0 -260 -127 -394.5t-325 -134.5q-162 0 -256 82v-272q8 -43 47 -61.5t141 -37.5v-61h-733v61q86 18 108.5 41t22.5 84v953q0 53 -24.5 72.5t-100.5 33.5v62q408 37 408 270q0 123 -81 191.5t-239 68.5q-82 0 -157.5 -27.5 t-136 -81t-90 -143.5t-11.5 -203q127 -35 197.5 -111.5t70.5 -164.5q0 -66 -35.5 -102.5t-99.5 -36.5q-88 0 -147.5 79.5t-67.5 229.5h-18q-186 0 -187 -395q0 -197 45 -293.5t170 -96.5q137 0 246 132l74 -66q-154 -205 -443 -205q-242 0 -383 138.5t-141 390.5t153.5 386 t405.5 134q23 0 68 -4q-14 131 24.5 235.5t112.5 167t164 95t186 32.5q246 0 348.5 -124t102.5 -365v-166q94 129 278 129zM1739 92q150 0 149 402q0 186 -36.5 288.5t-100.5 102.5q-96 0 -139 -172v-504q37 -117 127 -117z" glyph-name="c_p.dlig" horiz-adv-x="2367"/><glyph d="M1878 254l70 -53q-33 -66 -74 -111t-131 -84t-215 -39q-340 0 -340 389v502h-125v125h149q260 0 261 209q0 121 -79 190.5t-225 69.5q-197 0 -327.5 -116.5t-96.5 -334.5q137 -29 213 -108.5t76 -171.5q0 -59 -35.5 -99t-107.5 -40q-98 0 -157.5 95t-65.5 214h-2 q-186 0 -187 -395q0 -197 45 -293.5t170 -96.5q137 0 246 132l74 -66q-154 -205 -443 -205q-242 0 -383 138.5t-141 390.5t153.5 386t405.5 134q33 0 47 -2q-27 254 130 391t386 137q225 0 330 -106.5t105 -259.5q0 -106 -48 -193h340v-125h-292v-590q0 -152 96 -151 q106 0 178 137z" glyph-name="c_t.dlig" horiz-adv-x="1955"/><glyph d="M2263 186q0 -61 23.5 -83.5t99.5 -41.5v-61h-625v61q49 20 67.5 44t18.5 81v490q0 119 -84 119q-102 0 -164 -170v-439q0 -57 18.5 -80.5t68.5 -44.5v-61h-613v61q72 18 93.5 42t21.5 83v922q0 164 -53.5 244t-182.5 80q-115 0 -198.5 -67t-83.5 -189q0 -102 28 -181 q106 -29 168 -90t62 -141q0 -39 -27 -66.5t-76 -27.5q-125 0 -182 217q-47 10 -94 10q-156 0 -156 -86q0 -49 43 -82t172 -63q199 -47 280 -135.5t81 -231.5q0 -172 -109.5 -252t-290.5 -80q-188 0 -327 109l-70 -76h-78v395h86q16 -117 96 -204t224 -87q154 0 153 99 q0 43 -28.5 65.5t-106.5 36.5q-254 51 -347 155.5t-93 246.5q0 309 448 309q29 0 74 -4q-23 78 -22 164q0 168 113.5 257t260.5 89q211 0 324 -103l323 133v-770q115 233 349 234q315 0 315 -354v-476z" glyph-name="s_h.dlig" horiz-adv-x="2410"/><glyph d="M2220 242q45 -80 85 -119t95 -62v-61h-680v61q61 20 75.5 52t-17.5 94l-133 242l-66 -52v-211q0 -57 18.5 -80.5t67.5 -44.5v-61h-612v61q72 18 93 42t21 83v926q0 319 -237 320q-111 0 -185.5 -66t-74.5 -188q0 -102 28 -183q109 -29 169.5 -89t60.5 -142 q0 -41 -27 -67.5t-76 -26.5q-125 0 -182 217q-47 10 -94 10q-156 0 -156 -86q0 -49 43 -82t172 -63q199 -47 280 -135.5t81 -231.5q0 -172 -109.5 -252t-290.5 -80q-188 0 -327 109l-70 -76h-78v395h86q16 -117 96 -204t224 -87q154 0 153 99q0 43 -28.5 65.5t-106.5 36.5 q-254 51 -347 155.5t-93 246.5q0 309 448 309q29 0 74 -4q-23 78 -22 166q0 168 106.5 256t253.5 88q203 0 315 -103l326 137v-1030l293 230q66 51 50.5 101t-103.5 65v61h538v-61q-160 -37 -352 -189l-41 -33z" glyph-name="s_k.dlig" horiz-adv-x="2396"/><glyph d="M1579 186q0 -59 21.5 -82.5t93.5 -42.5v-61h-641v61q72 18 93 42t21 83v926q0 160 -54 240t-175 80q-117 0 -192.5 -66t-75.5 -188q0 -102 28 -183q106 -29 168 -90t62 -141q0 -39 -27 -66.5t-76 -27.5q-125 0 -182 217q-47 10 -94 10q-156 0 -156 -86q0 -49 43 -82 t172 -63q199 -47 280 -135.5t81 -231.5q0 -172 -109.5 -252t-290.5 -80q-188 0 -327 109l-70 -76h-78v395h86q16 -117 96 -204t224 -87q154 0 153 99q0 43 -28.5 65.5t-106.5 36.5q-254 51 -347 155.5t-93 246.5q0 309 448 309q29 0 74 -4q-23 78 -22 166q0 168 106.5 256 t253.5 88q205 0 315 -105l326 135v-1366z" glyph-name="s_l.dlig" horiz-adv-x="1720"/><glyph d="M1841 1016q182 0 306 -135.5t124 -386.5q0 -260 -127 -394.5t-325 -134.5q-166 0 -256 82l-2 -260q4 -51 42.5 -71.5t147.5 -39.5v-61h-733v61q86 18 108.5 41t22.5 84v953q0 53 -24.5 72.5t-100.5 33.5v62q412 37 412 270q0 123 -73 191.5t-210 68.5q-188 0 -318 -123 t-98 -348q94 -33 142.5 -89t48.5 -118q0 -43 -24.5 -73.5t-78.5 -30.5q-55 0 -102 57t-64 156q-57 14 -110 14q-156 0 -156 -94q0 -43 43 -75t172 -62q199 -45 280 -134.5t81 -232.5q0 -172 -109.5 -252t-290.5 -80q-188 0 -327 109l-70 -76h-78v395h86q16 -117 96 -204 t224 -87q154 0 153 99q0 43 -28.5 65.5t-106.5 36.5q-254 51 -347 155.5t-93 246.5q0 309 422 309q78 0 143 -12q-14 174 61.5 301t193.5 182t255 55q223 0 317.5 -124t94.5 -365v-160q92 123 276 123zM1690 92q72 0 110.5 103.5t38.5 298.5q0 391 -123 391q-51 0 -90 -45 t-61 -127l-2 -502q37 -119 127 -119z" glyph-name="s_p.dlig" horiz-adv-x="2318"/><glyph d="M1858 254l69 -53q-33 -66 -74 -111t-131 -84t-215 -39q-340 0 -340 389v502h-125v125h150q137 0 198.5 66.5t61.5 152.5q0 203 -248 203q-209 0 -337 -108.5t-119 -317.5q88 -35 134 -90t46 -115q0 -43 -24.5 -73.5t-78.5 -30.5q-57 0 -105 54t-61 155q-43 8 -106 8 q-160 0 -160 -84q0 -43 43 -75t172 -62q199 -45 280 -134.5t81 -232.5q0 -172 -109.5 -252t-290.5 -80q-188 0 -327 109l-70 -76h-78v395h86q16 -117 96 -204t224 -87q154 0 153 99q0 43 -28.5 65.5t-106.5 36.5q-254 51 -347 155.5t-93 246.5q0 309 432 309q80 0 143 -12 q10 242 163 366.5t388 124.5q193 0 286 -88t93 -219q0 -104 -61 -205h354v-125h-293v-590q0 -152 96 -151q107 0 179 137z" glyph-name="s_t.dlig" horiz-adv-x="1935"/><glyph d="M1280 219q29 -76 54.5 -103.5t82.5 -56.5v-59h-665v59q94 27 112.5 62t-10.5 86l-59 151h-422l-35 -102q-27 -80 0 -117t129 -80v-59h-473v59q68 25 102.5 63t65.5 124l311 860h467zM418 492h325l-174 452z" glyph-name="A.aalt" horiz-adv-x="1411"/><glyph d="M893 1386l-205 -151l-22 12l20 254q10 125 82 172t152 10q76 -35 75.5 -128t-102.5 -169zM1280 219q29 -76 54.5 -103.5t82.5 -56.5v-59h-665v59q94 27 112.5 62t-10.5 86l-59 151h-422l-35 -102q-27 -80 0 -117t129 -80v-59h-473v59q68 25 102.5 63t65.5 124l311 860 h467zM418 492h325l-174 452z" glyph-name="Aacute.aalt" horiz-adv-x="1411"/><glyph d="M704.5 1255q-126.5 0 -199.5 100.5t-63 256.5h43q4 -63 60.5 -107.5t159.5 -44.5q104 0 159.5 44t59.5 108h41q10 -156 -62 -256.5t-198.5 -100.5zM1280 219q29 -76 54.5 -103.5t82.5 -56.5v-59h-665v59q94 27 112.5 62t-10.5 86l-59 151h-422l-35 -102q-27 -80 0 -117 t129 -80v-59h-473v59q68 25 102.5 63t65.5 124l311 860h467zM418 492h325l-174 452z" glyph-name="Abreve.aalt" horiz-adv-x="1411"/><glyph d="M705 1425l-275 -172l-20 17l122 250q43 86 82 120.5t90.5 34.5t90.5 -34.5t82 -120.5l122 -250l-20 -17zM1280 219q29 -76 54.5 -103.5t82.5 -56.5v-59h-665v59q94 27 112.5 62t-10.5 86l-59 151h-422l-35 -102q-27 -80 0 -117t129 -80v-59h-473v59q68 25 102.5 63 t65.5 124l311 860h467zM418 492h325l-174 452z" glyph-name="Acircumflex.aalt" horiz-adv-x="1411"/><glyph d="M457 1262q-78 0 -132.5 54t-54.5 132q0 76 54.5 129t132.5 53t132 -53t54 -129q0 -78 -54 -132t-132 -54zM950 1262q-78 0 -132 54t-54 132q0 76 54 129t132 53t132.5 -53t54.5 -129q0 -78 -54.5 -132t-132.5 -54zM1280 219q29 -76 54.5 -103.5t82.5 -56.5v-59h-665v59 q94 27 112.5 62t-10.5 86l-59 151h-422l-35 -102q-27 -80 0 -117t129 -80v-59h-473v59q68 25 102.5 63t65.5 124l311 860h467zM418 492h325l-174 452z" glyph-name="Adieresis.aalt" horiz-adv-x="1411"/><glyph d="M530 1386q-102 76 -102 169.5t76 127.5q80 37 151.5 -10t81.5 -172l21 -254l-23 -12zM1280 219q29 -76 54.5 -103.5t82.5 -56.5v-59h-665v59q94 27 112.5 62t-10.5 86l-59 151h-422l-35 -102q-27 -80 0 -117t129 -80v-59h-473v59q68 25 102.5 63t65.5 124l311 860h467z M418 492h325l-174 452z" glyph-name="Agrave.aalt" horiz-adv-x="1411"/><glyph d="M1040 1556v-124h-671v124h671zM1280 219q29 -76 54.5 -103.5t82.5 -56.5v-59h-665v59q94 27 112.5 62t-10.5 86l-59 151h-422l-35 -102q-27 -80 0 -117t129 -80v-59h-473v59q68 25 102.5 63t65.5 124l311 860h467zM418 492h325l-174 452z" glyph-name="Amacron.aalt" horiz-adv-x="1411"/><glyph d="M1253 -324q86 0 142 56l14 -19q-35 -80 -107.5 -130t-177.5 -50q-197 0 -196 174q0 100 89 177t247 116h-512v59q94 27 112.5 62t-10.5 86l-59 151h-422l-35 -102q-27 -80 0 -117t129 -80v-59h-473v59q68 25 102.5 63t65.5 124l311 860h467l340 -887q29 -76 54.5 -103.5 t82.5 -56.5v-57l2 -2q-137 -47 -189 -115.5t-52 -130.5q-1 -78 75 -78zM418 492h325l-174 452z" glyph-name="Aogonek.aalt" horiz-adv-x="1411"/><glyph d="M705 1196q-117 0 -196 73.5t-79 190.5t79 191.5t195.5 74.5t194.5 -73.5t78 -192.5q0 -117 -78.5 -190.5t-193.5 -73.5zM704.5 1587q-49.5 0 -86 -33.5t-36.5 -93t36.5 -93.5t86 -34t86 34t36.5 93.5t-36.5 93t-86 33.5zM1280 219q29 -76 54.5 -103.5t82.5 -56.5v-59 h-665v59q94 27 112.5 62t-10.5 86l-59 151h-422l-35 -102q-27 -80 0 -117t129 -80v-59h-473v59q68 25 102.5 63t65.5 124l311 860h467zM418 492h325l-174 452z" glyph-name="Aring.aalt" horiz-adv-x="1411"/><glyph d="M535 1384q-35 0 -65 -16t-44 -30.5t-39 -47.5l-41 13q23 147 87.5 228t154.5 81q61 0 144 -47t140 -47q35 0 65 16t44 30.5t39 47.5l41 -13q-23 -147 -87.5 -228t-154.5 -81q-61 0 -144 47t-140 47zM1280 219q29 -76 54.5 -103.5t82.5 -56.5v-59h-665v59q94 27 112.5 62 t-10.5 86l-59 151h-422l-35 -102q-27 -80 0 -117t129 -80v-59h-473v59q68 25 102.5 63t65.5 124l311 860h467zM418 492h325l-174 452z" glyph-name="Atilde.aalt" horiz-adv-x="1411"/><glyph d="M1858 471h63l-55 -471h-1086v59q94 14 124 38t24 89l-17 172h-446l-66 -102q-53 -82 -34.5 -123t122.5 -74v-59h-493v59q74 27 127 68t102 119l559 860h1096v-451h-63q-55 201 -125 260.5t-217 59.5h-183l31 -344h78q80 0 121 42t73 169h62v-553h-62q-33 137 -76.5 175 t-117.5 38h-66l35 -373h45q186 0 295 99.5t150 242.5zM551 492h348l-45 473z" glyph-name="AE.aalt" horiz-adv-x="2002"/><glyph d="M893 569q420 -12 420 -266q0 -303 -502 -303h-727v59q78 14 103.5 33t25.5 62v798q0 43 -25.5 61.5t-103.5 33.5v59h803q344 0 344 -236q0 -240 -338 -301zM827 809q0 160 -194 166v-354h2q90 0 141 48t51 140zM653 131q246 0 246 197q0 166 -246 166h-20v-363h20z" glyph-name="B.aalt" horiz-adv-x="1349"/><glyph d="M838 137q123 0 216 73t132 177l65 -12q-16 -76 -55 -144.5t-105.5 -130t-173 -97.5t-241.5 -36q-270 0 -442.5 145.5t-172.5 436.5q0 143 53.5 259t142.5 186.5t197.5 107.5t225.5 37q170 0 334 -72q63 -31 100 -19.5t64 70.5h55v-526h-84q-23 190 -114 302t-224 112 q-150 0 -225.5 -122t-75.5 -327q0 -195 81 -307.5t247 -112.5z" glyph-name="C.aalt" horiz-adv-x="1359"/><glyph d="M942 1683q76 -35 76 -128t-103 -169l-204 -151l-23 12l21 254q10 125 81.5 172t151.5 10zM838 137q123 0 216 73t132 177l65 -12q-16 -76 -55 -144.5t-105.5 -130t-173 -97.5t-241.5 -36q-270 0 -442.5 145.5t-172.5 436.5q0 143 53.5 259t142.5 186.5t197.5 107.5 t225.5 37q170 0 334 -72q63 -31 100 -19.5t64 70.5h55v-526h-84q-23 190 -114 302t-224 112q-150 0 -225.5 -122t-75.5 -327q0 -195 81 -307.5t247 -112.5z" glyph-name="Cacute.aalt" horiz-adv-x="1359"/><glyph d="M727 1253q-51 0 -90 35t-82 121l-123 250l21 16l274 -172l274 172l21 -16l-123 -250q-43 -86 -82 -121t-90 -35zM1186 387l65 -12q-16 -76 -55 -144.5t-105.5 -130t-173 -97.5t-241.5 -36q-270 0 -442.5 145.5t-172.5 436.5q0 143 53.5 259t142.5 186.5t197.5 107.5 t225.5 37q170 0 334 -72q63 -31 100 -19.5t64 70.5h55v-526h-84q-23 190 -114 302t-224 112q-150 0 -225.5 -122t-75.5 -327q0 -195 81 -307.5t247 -112.5q123 0 216 73t132 177z" glyph-name="Ccaron.aalt" horiz-adv-x="1359"/><glyph d="M1251 375q-33 -156 -157.5 -272.5t-350.5 -133.5l-18 -84q141 12 207.5 -34t66.5 -123q0 -92 -70.5 -141.5t-183.5 -49.5q-236 0 -342 201l15 18q104 -80 227 -80q113 0 113 58q0 61 -170 69l-2 19l32 147q-248 14 -402.5 159.5t-154.5 420.5q0 143 53.5 259t142.5 186.5 t197.5 107.5t225.5 37q170 0 334 -72q63 -31 100 -19.5t64 70.5h55v-526h-84q-23 190 -114 302t-224 112q-150 0 -225.5 -122t-75.5 -327q0 -195 81 -307.5t247 -112.5q123 0 216 73t132 177z" glyph-name="Ccedilla.aalt" horiz-adv-x="1359"/><glyph d="M727 1223q-92 0 -158.5 65.5t-66.5 159.5q0 92 66.5 156.5t158.5 64.5t158.5 -64.5t66.5 -156.5q0 -94 -66.5 -159.5t-158.5 -65.5zM838 137q123 0 216 73t132 177l65 -12q-16 -76 -55 -144.5t-105.5 -130t-173 -97.5t-241.5 -36q-270 0 -442.5 145.5t-172.5 436.5 q0 143 53.5 259t142.5 186.5t197.5 107.5t225.5 37q170 0 334 -72q63 -31 100 -19.5t64 70.5h55v-526h-84q-23 190 -114 302t-224 112q-150 0 -225.5 -122t-75.5 -327q0 -195 81 -307.5t247 -112.5z" glyph-name="Cdotaccent.aalt" horiz-adv-x="1359"/><glyph d="M723 1106q172 0 303 -25.5t236.5 -85t161 -167t55.5 -261.5q0 -133 -40 -233.5t-107.5 -162.5t-167 -101t-206 -54.5t-235.5 -15.5h-639v59q78 14 103.5 33t25.5 62v798q0 43 -25.5 61.5t-103.5 33.5v59h639zM682 131q176 0 262 102.5t86 333.5q0 219 -87 313.5 t-261 94.5h-33v-844h33z" glyph-name="D.aalt" horiz-adv-x="1540"/><glyph d="M723 1106q172 0 303 -25.5t236.5 -85t161 -167t55.5 -261.5q0 -133 -40 -233.5t-107.5 -162.5t-167 -101t-206 -54.5t-235.5 -15.5h-639v59q78 14 103.5 33t25.5 62v366h-109v125h109v307q0 43 -25.5 61.5t-103.5 33.5v59h639zM682 131q176 0 262 102.5t86 333.5 q0 219 -87 313.5t-261 94.5h-33v-330h166v-125h-166v-389h33z" glyph-name="Eth.aalt" horiz-adv-x="1540"/><glyph d="M776 1253q-51 0 -90 35t-82 121l-123 250l21 16l274 -172l275 172l20 -16l-123 -250q-43 -86 -82 -121t-90 -35zM723 1106q172 0 303 -25.5t236.5 -85t161 -167t55.5 -261.5q0 -133 -40 -233.5t-107.5 -162.5t-167 -101t-206 -54.5t-235.5 -15.5h-639v59q78 14 103.5 33 t25.5 62v798q0 43 -25.5 61.5t-103.5 33.5v59h639zM682 131q176 0 262 102.5t86 333.5q0 219 -87 313.5t-261 94.5h-33v-844h33z" glyph-name="Dcaron.aalt" horiz-adv-x="1540"/><glyph d="M723 1106q172 0 303 -25.5t236.5 -85t161 -167t55.5 -261.5q0 -133 -40 -233.5t-107.5 -162.5t-167 -101t-206 -54.5t-235.5 -15.5h-639v59q78 14 103.5 33t25.5 62v366h-109v125h109v307q0 43 -25.5 61.5t-103.5 33.5v59h639zM682 131q176 0 262 102.5t86 333.5 q0 219 -87 313.5t-261 94.5h-33v-330h166v-125h-166v-389h33z" glyph-name="Dcroat.aalt" horiz-adv-x="1540"/><glyph d="M1153 471h64l-56 -471h-1077v59q78 14 103.5 33t25.5 62v798q0 45 -24.5 62.5t-104.5 32.5v59h1090v-451h-64q-55 201 -125 260.5t-217 59.5h-119v-344h19q80 0 120.5 42t73.5 169h62v-553h-62q-33 137 -77 175t-117 38h-19v-373h60q186 0 294.5 99.5t149.5 242.5z" glyph-name="E.aalt" horiz-adv-x="1298"/><glyph d="M838 1386l-205 -151l-23 12l21 254q10 125 81.5 172t151.5 10q76 -35 76 -128t-102 -169zM1153 471h64l-56 -471h-1077v59q78 14 103.5 33t25.5 62v798q0 45 -24.5 62.5t-104.5 32.5v59h1090v-451h-64q-55 201 -125 260.5t-217 59.5h-119v-344h19q80 0 120.5 42t73.5 169 h62v-553h-62q-33 137 -77 175t-117 38h-19v-373h60q186 0 294.5 99.5t149.5 242.5z" glyph-name="Eacute.aalt" horiz-adv-x="1298"/><glyph d="M649 1253q-51 0 -90 35t-82 121l-123 250l21 16l274 -172l275 172l20 -16l-123 -250q-43 -86 -82 -121t-90 -35zM1153 471h64l-56 -471h-1077v59q78 14 103.5 33t25.5 62v798q0 45 -24.5 62.5t-104.5 32.5v59h1090v-451h-64q-55 201 -125 260.5t-217 59.5h-119v-344h19 q80 0 120.5 42t73.5 169h62v-553h-62q-33 137 -77 175t-117 38h-19v-373h60q186 0 294.5 99.5t149.5 242.5z" glyph-name="Ecaron.aalt" horiz-adv-x="1298"/><glyph d="M649 1425l-274 -172l-21 17l123 250q43 86 82 120.5t90 34.5t90 -34.5t82 -120.5l123 -250l-20 -17zM1153 471h64l-56 -471h-1077v59q78 14 103.5 33t25.5 62v798q0 45 -24.5 62.5t-104.5 32.5v59h1090v-451h-64q-55 201 -125 260.5t-217 59.5h-119v-344h19 q80 0 120.5 42t73.5 169h62v-553h-62q-33 137 -77 175t-117 38h-19v-373h60q186 0 294.5 99.5t149.5 242.5z" glyph-name="Ecircumflex.aalt" horiz-adv-x="1298"/><glyph d="M401.5 1262q-77.5 0 -132 54t-54.5 132q0 76 54.5 129t132 53t132 -53t54.5 -129q0 -78 -54.5 -132t-132 -54zM895 1262q-78 0 -132 54t-54 132q0 76 54 129t132 53t132 -53t54 -129q0 -78 -54 -132t-132 -54zM1153 471h64l-56 -471h-1077v59q78 14 103.5 33t25.5 62v798 q0 45 -24.5 62.5t-104.5 32.5v59h1090v-451h-64q-55 201 -125 260.5t-217 59.5h-119v-344h19q80 0 120.5 42t73.5 169h62v-553h-62q-33 137 -77 175t-117 38h-19v-373h60q186 0 294.5 99.5t149.5 242.5z" glyph-name="Edieresis.aalt" horiz-adv-x="1298"/><glyph d="M649 1223q-92 0 -158.5 65.5t-66.5 159.5q0 92 66.5 156.5t158.5 64.5t158.5 -64.5t66.5 -156.5q0 -94 -66.5 -159.5t-158.5 -65.5zM1153 471h64l-56 -471h-1077v59q78 14 103.5 33t25.5 62v798q0 45 -24.5 62.5t-104.5 32.5v59h1090v-451h-64q-55 201 -125 260.5 t-217 59.5h-119v-344h19q80 0 120.5 42t73.5 169h62v-553h-62q-33 137 -77 175t-117 38h-19v-373h60q186 0 294.5 99.5t149.5 242.5z" glyph-name="Edotaccent.aalt" horiz-adv-x="1298"/><glyph d="M475 1386q-102 76 -102 169.5t76 127.5q80 37 151.5 -10t81.5 -172l20 -254l-22 -12zM1153 471h64l-56 -471h-1077v59q78 14 103.5 33t25.5 62v798q0 45 -24.5 62.5t-104.5 32.5v59h1090v-451h-64q-55 201 -125 260.5t-217 59.5h-119v-344h19q80 0 120.5 42t73.5 169h62 v-553h-62q-33 137 -77 175t-117 38h-19v-373h60q186 0 294.5 99.5t149.5 242.5z" glyph-name="Egrave.aalt" horiz-adv-x="1298"/><glyph d="M985 1556v-124h-672v124h672zM1153 471h64l-56 -471h-1077v59q78 14 103.5 33t25.5 62v798q0 45 -24.5 62.5t-104.5 32.5v59h1090v-451h-64q-55 201 -125 260.5t-217 59.5h-119v-344h19q80 0 120.5 42t73.5 169h62v-553h-62q-33 137 -77 175t-117 38h-19v-373h60 q186 0 294.5 99.5t149.5 242.5z" glyph-name="Emacron.aalt" horiz-adv-x="1298"/><glyph d="M1163 0q-137 -47 -189 -115.5t-52 -130.5q0 -78 75 -78q86 0 142 56l14 -19q-35 -80 -107.5 -130t-177.5 -50q-197 0 -196 174q0 100 89 177t247 116h-924v59q78 14 103.5 33t25.5 62v798q0 45 -24.5 62.5t-104.5 32.5v59h1090v-451h-64q-55 201 -125 260.5t-217 59.5 h-119v-344h19q80 0 120.5 42t73.5 169h62v-553h-62q-33 137 -77 175t-117 38h-19v-373h60q186 0 294.5 99.5t149.5 242.5h64l-56 -471h2z" glyph-name="Eogonek.aalt" horiz-adv-x="1298"/><glyph d="M1174 1106v-438h-64q-55 193 -126 250t-216 57h-119v-344h19q80 0 120.5 42t73.5 169h62v-553h-62q-33 137 -77 175t-117 38h-19v-355q0 -39 37 -56t148 -32v-59h-750v59q78 14 103.5 33t25.5 62v798q0 45 -24.5 62.5t-104.5 32.5v59h1090z" glyph-name="F.aalt" horiz-adv-x="1212"/><glyph d="M1413 555v-61q-72 -14 -94.5 -32t-22.5 -63v-399h-100q-57 80 -104 80q-39 0 -99.5 -28.5t-154 -56.5t-209.5 -28q-248 0 -408 145.5t-160 436.5q0 143 56.5 259t146.5 186.5t198.5 107.5t221.5 37q78 0 140.5 -10.5t97 -22.5t100.5 -39q80 -27 105.5 -15.5t50.5 66.5h61 v-483h-84q-18 168 -111.5 269.5t-232.5 101.5q-147 0 -224 -129t-77 -328q0 -182 70.5 -297t193.5 -115q59 0 103 15v247q0 45 -31 62.5t-131 32.5v61h698z" glyph-name="G.aalt" horiz-adv-x="1441"/><glyph d="M735 1255q-127 0 -199.5 100.5t-62.5 256.5h43q4 -63 60.5 -107.5t158.5 -44.5q104 0 159.5 44t59.5 108h41q10 -156 -61.5 -256.5t-198.5 -100.5zM1413 555v-61q-72 -14 -94.5 -32t-22.5 -63v-399h-100q-57 80 -104 80q-39 0 -99.5 -28.5t-154 -56.5t-209.5 -28 q-248 0 -408 145.5t-160 436.5q0 143 56.5 259t146.5 186.5t198.5 107.5t221.5 37q78 0 140.5 -10.5t97 -22.5t100.5 -39q80 -27 105.5 -15.5t50.5 66.5h61v-483h-84q-18 168 -111.5 269.5t-232.5 101.5q-147 0 -224 -129t-77 -328q0 -182 70.5 -297t193.5 -115q59 0 103 15 v247q0 45 -31 62.5t-131 32.5v61h698z" glyph-name="Gbreve.aalt" horiz-adv-x="1441"/><glyph d="M1413 555v-61q-72 -14 -94.5 -32t-22.5 -63v-399h-100q-57 80 -104 80q-39 0 -99.5 -28.5t-154 -56.5t-209.5 -28q-248 0 -408 145.5t-160 436.5q0 143 56.5 259t146.5 186.5t198.5 107.5t221.5 37q78 0 140.5 -10.5t97 -22.5t100.5 -39q80 -27 105.5 -15.5t50.5 66.5h61 v-483h-84q-18 168 -111.5 269.5t-232.5 101.5q-147 0 -224 -129t-77 -328q0 -182 70.5 -297t193.5 -115q59 0 103 15v247q0 45 -31 62.5t-131 32.5v61h698zM725 -90q86 0 131 -57.5t45 -139.5q0 -127 -90 -206.5t-233 -75.5l-9 37q94 12 146.5 65t58.5 123q-29 -16 -69 -16 q-57 0 -91 33.5t-34 97.5q0 59 41 99t104 40z" glyph-name="Gcommaaccent.aalt" horiz-adv-x="1441"/><glyph d="M735 1223q-92 0 -158.5 65.5t-66.5 159.5q0 92 66.5 156.5t158.5 64.5t159 -64.5t67 -156.5q0 -94 -67 -159.5t-159 -65.5zM1413 555v-61q-72 -14 -94.5 -32t-22.5 -63v-399h-100q-57 80 -104 80q-39 0 -99.5 -28.5t-154 -56.5t-209.5 -28q-248 0 -408 145.5t-160 436.5 q0 143 56.5 259t146.5 186.5t198.5 107.5t221.5 37q78 0 140.5 -10.5t97 -22.5t100.5 -39q80 -27 105.5 -15.5t50.5 66.5h61v-483h-84q-18 168 -111.5 269.5t-232.5 101.5q-147 0 -224 -129t-77 -328q0 -182 70.5 -297t193.5 -115q59 0 103 15v247q0 45 -31 62.5t-131 32.5 v61h698z" glyph-name="Gdotaccent.aalt" horiz-adv-x="1441"/><glyph d="M1532 1047q-82 -16 -106.5 -33t-24.5 -62v-798q0 -43 23.5 -61.5t107.5 -33.5v-59h-694v59q78 14 102.5 32t24.5 63v354h-316v-354q0 -45 25.5 -62.5t103.5 -32.5v-59h-694v59q78 14 103.5 32t25.5 63v798q0 45 -24.5 62.5t-104.5 32.5v59h694v-59q-78 -14 -103.5 -33 t-25.5 -62v-313h316v313q0 45 -25 62.5t-102 32.5v59h694v-59z" glyph-name="H.aalt" horiz-adv-x="1615"/><glyph d="M1532 1047q-82 -16 -106.5 -33t-24.5 -62v-164h96v-131h-96v-503q0 -43 23.5 -61.5t107.5 -33.5v-59h-694v59q78 14 102.5 32t24.5 63v194h-316v-194q0 -45 25.5 -62.5t103.5 -32.5v-59h-694v59q78 14 103.5 32t25.5 63v503h-96v131h96v164q0 45 -24.5 62.5t-104.5 32.5 v59h694v-59q-78 -14 -103.5 -33t-25.5 -62v-164h316v164q0 45 -25 62.5t-102 32.5v59h694v-59zM965 479v178h-316v-178h316z" glyph-name="Hbar.aalt" horiz-adv-x="1615"/><glyph d="M778 1047q-84 -16 -106.5 -35t-22.5 -60v-798q0 -43 25.5 -61.5t103.5 -33.5v-59h-694v59q78 14 103.5 32t25.5 63v798q0 45 -24.5 62.5t-104.5 32.5v59h694v-59z" glyph-name="I.aalt" horiz-adv-x="862"/><glyph d="M645 1683q76 -35 76 -128t-103 -169l-204 -151l-23 12l21 254q10 125 81.5 172t151.5 10zM778 1047q-84 -16 -106.5 -35t-22.5 -60v-798q0 -43 25.5 -61.5t103.5 -33.5v-59h-694v59q78 14 103.5 32t25.5 63v798q0 45 -24.5 62.5t-104.5 32.5v59h694v-59z" glyph-name="Iacute.aalt" horiz-adv-x="862"/><glyph d="M430 1425l-274 -172l-21 17l123 250q43 86 82 120.5t90 34.5t90 -34.5t82 -120.5l123 -250l-20 -17zM778 1047q-84 -16 -106.5 -35t-22.5 -60v-798q0 -43 25.5 -61.5t103.5 -33.5v-59h-694v59q78 14 103.5 32t25.5 63v798q0 45 -24.5 62.5t-104.5 32.5v59h694v-59z" glyph-name="Icircumflex.aalt" horiz-adv-x="862"/><glyph d="M182 1262q-78 0 -132 54t-54 132q0 76 54 129t132 53t132.5 -53t54.5 -129q0 -78 -54.5 -132t-132.5 -54zM676 1262q-78 0 -132.5 54t-54.5 132q0 76 54.5 129t132.5 53t132 -53t54 -129q0 -78 -54 -132t-132 -54zM778 1047q-84 -16 -106.5 -35t-22.5 -60v-798 q0 -43 25.5 -61.5t103.5 -33.5v-59h-694v59q78 14 103.5 32t25.5 63v798q0 45 -24.5 62.5t-104.5 32.5v59h694v-59z" glyph-name="Idieresis.aalt" horiz-adv-x="862"/><glyph d="M229 1683q80 37 152 -10t82 -172l20 -254l-22 -12l-205 151q-102 76 -102.5 169t75.5 128zM778 1047q-84 -16 -106.5 -35t-22.5 -60v-798q0 -43 25.5 -61.5t103.5 -33.5v-59h-694v59q78 14 103.5 32t25.5 63v798q0 45 -24.5 62.5t-104.5 32.5v59h694v-59z" glyph-name="Igrave.aalt" horiz-adv-x="862"/><glyph d="M94 1556h672v-124h-672v124zM778 1047q-84 -16 -106.5 -35t-22.5 -60v-798q0 -43 25.5 -61.5t103.5 -33.5v-59h-694v59q78 14 103.5 32t25.5 63v798q0 45 -24.5 62.5t-104.5 32.5v59h694v-59z" glyph-name="Imacron.aalt" horiz-adv-x="862"/><glyph d="M778 1047q-84 -16 -106.5 -35t-22.5 -60v-798q0 -43 25.5 -61.5t103.5 -33.5v-59h-76q-199 -84 -198 -229q0 -78 76 -78q86 0 141 55l14 -18q-35 -80 -107.5 -130.5t-176.5 -50.5q-197 0 -197 175q0 90 71.5 162.5t204.5 113.5h-446v59q78 14 103.5 32t25.5 63v798 q0 45 -24.5 62.5t-104.5 32.5v59h694v-59z" glyph-name="Iogonek.aalt" horiz-adv-x="862"/><glyph d="M338 1106h717v-59q-78 -16 -98.5 -41t-20.5 -93v-473q0 -473 -492 -473q-207 0 -299 68.5t-92 167.5q0 68 39 105.5t103 37.5q72 0 126 -71.5t80 -182.5q98 35 99 184v637q0 72 -31 95.5t-131 38.5v59z" glyph-name="J.aalt" horiz-adv-x="1081"/><glyph d="M1327 199q47 -92 154 -140v-59h-697v59q51 16 59.5 48t-16.5 77l-125 291l-53 -47v-274q0 -31 3 -43.5t23.5 -26.5t63.5 -25v-59h-655v59q78 14 103.5 32t25.5 63v798q0 43 -25.5 61.5t-103.5 33.5v59h694v-59q-78 -14 -103.5 -33t-25.5 -62v-370l301 268q92 84 77 132 t-140 65v59h573v-59q-141 -31 -399 -256l-25 -21z" glyph-name="K.aalt" horiz-adv-x="1507"/><glyph d="M1327 199q47 -92 154 -140v-59h-697v59q51 16 59.5 48t-16.5 77l-125 291l-53 -47v-274q0 -31 3 -43.5t23.5 -26.5t63.5 -25v-59h-655v59q78 14 103.5 32t25.5 63v798q0 43 -25.5 61.5t-103.5 33.5v59h694v-59q-78 -14 -103.5 -33t-25.5 -62v-370l301 268q92 84 77 132 t-140 65v59h573v-59q-141 -31 -399 -256l-25 -21zM784 -90q86 0 131.5 -57.5t45.5 -139.5q0 -127 -90.5 -206.5t-233.5 -75.5l-8 37q94 12 146 65t59 123q-29 -16 -70 -16q-57 0 -91 33.5t-34 97.5q0 59 41 99t104 40z" glyph-name="Kcommaaccent.aalt" horiz-adv-x="1507"/><glyph d="M1163 459h64l-56 -459h-1087v59q78 14 103.5 33t25.5 62v798q0 45 -24.5 62.5t-104.5 32.5v59h756v-59q-125 -16 -158 -33t-33 -56v-829h70q186 0 295.5 95.5t148.5 234.5z" glyph-name="L.aalt" horiz-adv-x="1247"/><glyph d="M637 1386l-205 -151l-22 12l20 254q10 125 82 172t152 10q76 -35 75.5 -128t-102.5 -169zM1163 459h64l-56 -459h-1087v59q78 14 103.5 33t25.5 62v798q0 45 -24.5 62.5t-104.5 32.5v59h756v-59q-125 -16 -158 -33t-33 -56v-829h70q186 0 295.5 95.5t148.5 234.5z" glyph-name="Lacute.aalt" horiz-adv-x="1247"/><glyph d="M999 643l-41 344q-14 125 27 182.5t119 57.5q100 0 125.5 -88t-39.5 -205l-166 -295zM719 129q186 0 295.5 95t148.5 235h64l-56 -459h-1087v59q78 14 103.5 33t25.5 62v798q0 45 -24.5 62.5t-104.5 32.5v59h756v-59q-125 -16 -158 -33t-33 -56v-829h70z" glyph-name="Lcaron.aalt" horiz-adv-x="1247"/><glyph d="M1163 459h64l-56 -459h-1087v59q78 14 103.5 33t25.5 62v798q0 45 -24.5 62.5t-104.5 32.5v59h756v-59q-125 -16 -158 -33t-33 -56v-829h70q186 0 295.5 95.5t148.5 234.5zM635 -90q86 0 131 -57.5t45 -139.5q0 -127 -90 -206.5t-234 -75.5l-8 37q94 12 146.5 65 t58.5 123q-29 -16 -70 -16q-57 0 -91 33.5t-34 97.5q0 59 41.5 99t104.5 40z" glyph-name="Lcommaaccent.aalt" horiz-adv-x="1247"/><glyph d="M1163 459h64l-56 -459h-1087v59q78 14 103.5 33t25.5 62v270l-152 -45l-34 121l186 55v397q0 45 -24.5 62.5t-104.5 32.5v59h756v-59q-125 -16 -158 -33t-33 -56v-276l238 70l35 -121l-273 -80v-422h70q186 0 295.5 95.5t148.5 234.5z" glyph-name="Lslash.aalt" horiz-adv-x="1247"/><glyph d="M1937 1047q-80 -14 -105.5 -33t-25.5 -62v-743q0 -72 33 -102.5t98 -47.5v-59h-708v59q94 14 117.5 41t23.5 109v602l-414 -750h-145l-428 719v-518q0 -104 47 -145t137 -58v-59h-483v59q39 8 59.5 16.5t44 29t33.5 59.5t10 98v690q0 45 -23.5 62.5t-101.5 32.5v59h596 l347 -578l321 578h567v-59z" glyph-name="M.aalt" horiz-adv-x="2021"/><glyph d="M1016 1106h469v-59q-74 -16 -112 -50t-38 -116v-881h-393l-565 750v-525q0 -82 45 -115.5t133 -50.5v-59h-471v59q74 16 111.5 50t37.5 116v727q0 45 -24.5 62.5t-102.5 32.5v59h553l533 -711v486q0 80 -43 113.5t-133 52.5v59z" glyph-name="N.aalt" horiz-adv-x="1552"/><glyph d="M1026 1386l-205 -151l-22 12l20 254q10 125 82 172t152 10q76 -35 75.5 -128t-102.5 -169zM1016 1106h469v-59q-74 -16 -112 -50t-38 -116v-881h-393l-565 750v-525q0 -82 45 -115.5t133 -50.5v-59h-471v59q74 16 111.5 50t37.5 116v727q0 45 -24.5 62.5t-102.5 32.5v59 h553l533 -711v486q0 80 -43 113.5t-133 52.5v59z" glyph-name="Nacute.aalt" horiz-adv-x="1552"/><glyph d="M837.5 1253q-51.5 0 -90 35t-81.5 121l-123 250l20 16l275 -172l274 172l21 -16l-123 -250q-43 -86 -82 -121t-90.5 -35zM1016 1106h469v-59q-74 -16 -112 -50t-38 -116v-881h-393l-565 750v-525q0 -82 45 -115.5t133 -50.5v-59h-471v59q74 16 111.5 50t37.5 116v727 q0 45 -24.5 62.5t-102.5 32.5v59h553l533 -711v486q0 80 -43 113.5t-133 52.5v59z" glyph-name="Ncaron.aalt" horiz-adv-x="1552"/><glyph d="M1016 1106h469v-59q-74 -16 -112 -50t-38 -116v-881h-393l-565 750v-525q0 -82 45 -115.5t133 -50.5v-59h-471v59q74 16 111.5 50t37.5 116v727q0 45 -24.5 62.5t-102.5 32.5v59h553l533 -711v486q0 80 -43 113.5t-133 52.5v59zM774 -90q86 0 131 -57.5t45 -139.5 q0 -127 -90 -206.5t-233 -75.5l-9 37q94 12 146.5 65t58.5 123q-29 -16 -69 -16q-57 0 -91 33.5t-34 97.5q0 59 41 99t104 40z" glyph-name="Ncommaaccent.aalt" horiz-adv-x="1552"/><glyph d="M1016 1106h469v-59q-74 -16 -112 -50t-38 -116v-727q0 -158 -40 -272.5t-109.5 -178t-150.5 -92.5t-177 -29q-246 0 -246 142q0 53 32 88.5t85 35.5q119 0 209 -159q104 23 166 96l-727 965v-525q0 -82 45 -115.5t133 -50.5v-59h-471v59q74 16 111.5 50t37.5 116v727 q0 45 -24.5 62.5t-102.5 32.5v59h553l533 -711v486q0 80 -43 113.5t-133 52.5v59z" glyph-name="Eng.aalt" horiz-adv-x="1552"/><glyph d="M668 1384q-35 0 -65 -16t-44 -30.5t-39 -47.5l-41 13q23 147 87.5 228t154.5 81q61 0 144 -47t141 -47q35 0 64.5 16t43.5 30.5t39 47.5l41 -13q-23 -147 -87.5 -228t-154.5 -81q-61 0 -144 47t-140 47zM1016 1106h469v-59q-74 -16 -112 -50t-38 -116v-881h-393l-565 750 v-525q0 -82 45 -115.5t133 -50.5v-59h-471v59q74 16 111.5 50t37.5 116v727q0 45 -24.5 62.5t-102.5 32.5v59h553l533 -711v486q0 80 -43 113.5t-133 52.5v59z" glyph-name="Ntilde.aalt" horiz-adv-x="1552"/><glyph d="M776 -33q-311 0 -513 156t-202 426q0 274 203 432t512 158t512 -158t203 -432q0 -270 -203 -426t-512 -156zM776 104q125 0 195.5 122t70.5 323q0 205 -70.5 330t-195.5 125q-123 0 -194.5 -126t-71.5 -329q0 -199 71.5 -322t194.5 -123z" glyph-name="O.aalt" horiz-adv-x="1552"/><glyph d="M991 1683q76 -35 76 -128t-102 -169l-205 -151l-23 12l21 254q10 125 81.5 172t151.5 10zM776 -33q-311 0 -513 156t-202 426q0 274 203 432t512 158t512 -158t203 -432q0 -270 -203 -426t-512 -156zM776 104q125 0 195.5 122t70.5 323q0 205 -70.5 330t-195.5 125 q-123 0 -194.5 -126t-71.5 -329q0 -199 71.5 -322t194.5 -123z" glyph-name="Oacute.aalt" horiz-adv-x="1552"/><glyph d="M776 1425l-274 -172l-21 17l123 250q43 86 82 120.5t90 34.5t90 -34.5t82 -120.5l123 -250l-20 -17zM776 1139q309 0 512 -158t203 -432q0 -270 -203 -426t-512 -156q-311 0 -513 156t-202 426q0 274 203 432t512 158zM776 104q125 0 195.5 122t70.5 323q0 205 -70.5 330 t-195.5 125q-123 0 -194.5 -126t-71.5 -329q0 -199 71.5 -322t194.5 -123z" glyph-name="Ocircumflex.aalt" horiz-adv-x="1552"/><glyph d="M528.5 1262q-77.5 0 -132 54t-54.5 132q0 76 54.5 129t132 53t132 -53t54.5 -129q0 -78 -54.5 -132t-132 -54zM1022 1262q-78 0 -132 54t-54 132q0 76 54 129t132 53t132 -53t54 -129q0 -78 -54 -132t-132 -54zM776 -33q-311 0 -513 156t-202 426q0 274 203 432t512 158 t512 -158t203 -432q0 -270 -203 -426t-512 -156zM776 104q125 0 195.5 122t70.5 323q0 205 -70.5 330t-195.5 125q-123 0 -194.5 -126t-71.5 -329q0 -199 71.5 -322t194.5 -123z" glyph-name="Odieresis.aalt" horiz-adv-x="1552"/><glyph d="M575 1683q80 37 152 -10t82 -172l20 -254l-22 -12l-205 151q-102 76 -102.5 169t75.5 128zM776 -33q-311 0 -513 156t-202 426q0 274 203 432t512 158t512 -158t203 -432q0 -270 -203 -426t-512 -156zM776 104q125 0 195.5 122t70.5 323q0 205 -70.5 330t-195.5 125 q-123 0 -194.5 -126t-71.5 -329q0 -199 71.5 -322t194.5 -123z" glyph-name="Ograve.aalt" horiz-adv-x="1552"/><glyph d="M561 1237l-24 6l-33 199q-27 156 19 222.5t134 57.5q59 -6 88 -48t14.5 -115.5t-79.5 -161.5zM848 1233l-21 16l86 242q29 82 75 124t90 39t87 -30q41 -31 48.5 -79t-29.5 -104.5t-117 -97.5zM776 -33q-311 0 -513 156t-202 426q0 274 203 432t512 158t512 -158t203 -432 q0 -270 -203 -426t-512 -156zM776 104q125 0 195.5 122t70.5 323q0 205 -70.5 330t-195.5 125q-123 0 -194.5 -126t-71.5 -329q0 -199 71.5 -322t194.5 -123z" glyph-name="Ohungarumlaut.aalt" horiz-adv-x="1552"/><glyph d="M440 1556h672v-124h-672v124zM776 -33q-311 0 -513 156t-202 426q0 274 203 432t512 158t512 -158t203 -432q0 -270 -203 -426t-512 -156zM776 104q125 0 195.5 122t70.5 323q0 205 -70.5 330t-195.5 125q-123 0 -194.5 -126t-71.5 -329q0 -199 71.5 -322t194.5 -123z " glyph-name="Omacron.aalt" horiz-adv-x="1552"/><glyph d="M1315 958q176 -156 176 -409q0 -270 -203 -426t-512 -156q-244 0 -424 96l-170 -157l-104 110l147 140q-164 154 -164 393q0 274 203 432t512 158q233 0 408 -90l141 131l107 -113zM510 549q0 -72 8 -123l463 434q-72 143 -205 144q-123 0 -194.5 -126t-71.5 -329z M776 104q125 0 195.5 122t70.5 323q0 70 -10 145l-469 -434q74 -156 213 -156z" glyph-name="Oslash.aalt" horiz-adv-x="1552"/><glyph d="M459 1290l-41 13q23 147 87 228t154 81q61 0 144.5 -47t140.5 -47q35 0 64.5 16t44 30.5t39.5 47.5l41 -13q-23 -147 -87.5 -228t-154.5 -81q-61 0 -144 47t-141 47q-35 0 -64.5 -16t-43.5 -30.5t-39 -47.5zM776 -33q-311 0 -513 156t-202 426q0 274 203 432t512 158 t512 -158t203 -432q0 -270 -203 -426t-512 -156zM776 104q125 0 195.5 122t70.5 323q0 205 -70.5 330t-195.5 125q-123 0 -194.5 -126t-71.5 -329q0 -199 71.5 -322t194.5 -123z" glyph-name="Otilde.aalt" horiz-adv-x="1552"/><glyph d="M1864 471h63l-55 -471h-1034q-358 0 -567.5 137t-209.5 411.5t209 416t568 141.5h1046v-451h-63q-55 201 -125 260.5t-217 59.5h-119v-344h18q80 0 121 42t74 169h61v-553h-61q-33 137 -77 175t-118 38h-18v-373h59q186 0 295 99.5t150 242.5zM838 129h86v846h-86 q-166 0 -247 -115t-81 -311q0 -195 81 -307.5t247 -112.5z" glyph-name="OE.aalt" horiz-adv-x="2009"/><glyph d="M819 430h-168v-260q0 -55 38 -75.5t163 -35.5v-59h-768v59q78 14 103.5 33t25.5 62v798q0 43 -25.5 61.5t-103.5 33.5v59h784q207 0 315.5 -86t108.5 -234q0 -174 -127 -265t-346 -91zM856 764q0 117 -52 162t-153 49v-414q100 2 152.5 44t52.5 159z" glyph-name="P.aalt" horiz-adv-x="1337"/><glyph d="M864 889q215 0 321.5 -72t106.5 -235q0 -156 -110.5 -242t-317.5 -86h-213v-84q0 -55 38 -75.5t163 -35.5v-59h-768v59q78 14 103.5 33t25.5 62v798q0 43 -25.5 61.5t-103.5 33.5v59h696v-59q-78 -14 -103.5 -33t-25.5 -62v-63h213zM651 385q100 4 158.5 52t58.5 145 q0 172 -217 176v-373z" glyph-name="Thorn.aalt" horiz-adv-x="1337"/><glyph d="M776 -33q-53 0 -80 2l-172 -121q121 8 273.5 -5t218.5 -13q92 0 145 23.5t99 80.5l57 -16q-31 -199 -114 -286t-216 -87q-102 0 -188 24.5t-134.5 55.5t-112 55.5t-126.5 24.5q-59 0 -147 -41l-48 96l320 232q-223 49 -356.5 194.5t-133.5 362.5q0 274 203 432t512 158 t512 -158t203 -432q0 -270 -203 -426t-512 -156zM776 1004q-123 0 -194.5 -126t-71.5 -329q0 -199 71.5 -322t194.5 -123q125 0 195.5 122t70.5 323q0 205 -70.5 330t-195.5 125z" glyph-name="Q.aalt" horiz-adv-x="1497"/><glyph d="M1399 291l45 -17q-20 -150 -106.5 -228.5t-223.5 -78.5q-123 0 -184.5 66.5t-85.5 226.5q-29 158 -72 204t-133 48v-342q0 -55 28.5 -75.5t120.5 -35.5v-59h-704v59q78 14 103.5 33t25.5 62v798q0 43 -25.5 61.5t-103.5 33.5v59h846q203 0 291 -66.5t88 -195.5 q0 -113 -104.5 -196t-278.5 -97q143 -16 215.5 -73.5t95.5 -180.5q20 -123 66 -123q49 0 96 117zM639 975v-336q244 10 244 186q0 90 -60.5 120t-171.5 30h-12z" glyph-name="R.aalt" horiz-adv-x="1441"/><glyph d="M924 1386l-205 -151l-23 12l21 254q10 125 81.5 172t151.5 10q76 -35 76 -128t-102 -169zM1399 291l45 -17q-20 -150 -106.5 -228.5t-223.5 -78.5q-123 0 -184.5 66.5t-85.5 226.5q-29 158 -72 204t-133 48v-342q0 -55 28.5 -75.5t120.5 -35.5v-59h-704v59 q78 14 103.5 33t25.5 62v798q0 43 -25.5 61.5t-103.5 33.5v59h846q203 0 291 -66.5t88 -195.5q0 -113 -104.5 -196t-278.5 -97q143 -16 215.5 -73.5t95.5 -180.5q20 -123 66 -123q49 0 96 117zM639 975v-336q244 10 244 186q0 90 -60.5 120t-171.5 30h-12z" glyph-name="Racute.aalt" horiz-adv-x="1441"/><glyph d="M735 1253q-51 0 -90 35t-82 121l-123 250l21 16l274 -172l275 172l20 -16l-123 -250q-43 -86 -82 -121t-90 -35zM1399 291l45 -17q-20 -150 -106.5 -228.5t-223.5 -78.5q-123 0 -184.5 66.5t-85.5 226.5q-29 158 -72 204t-133 48v-342q0 -55 28.5 -75.5t120.5 -35.5v-59 h-704v59q78 14 103.5 33t25.5 62v798q0 43 -25.5 61.5t-103.5 33.5v59h846q203 0 291 -66.5t88 -195.5q0 -113 -104.5 -196t-278.5 -97q143 -16 215.5 -73.5t95.5 -180.5q20 -123 66 -123q49 0 96 117zM639 975v-336q244 10 244 186q0 90 -60.5 120t-171.5 30h-12z" glyph-name="Rcaron.aalt" horiz-adv-x="1441"/><glyph d="M1399 291l45 -17q-20 -150 -106.5 -228.5t-223.5 -78.5q-123 0 -184.5 66.5t-85.5 226.5q-29 158 -72 204t-133 48v-342q0 -55 28.5 -75.5t120.5 -35.5v-59h-704v59q78 14 103.5 33t25.5 62v798q0 43 -25.5 61.5t-103.5 33.5v59h846q203 0 291 -66.5t88 -195.5 q0 -113 -104.5 -196t-278.5 -97q143 -16 215.5 -73.5t95.5 -180.5q20 -123 66 -123q49 0 96 117zM639 975v-336q244 10 244 186q0 90 -60.5 120t-171.5 30h-12zM725 -90q86 0 131 -57.5t45 -139.5q0 -127 -90 -206.5t-233 -75.5l-9 37q94 12 146.5 65t58.5 123 q-29 -16 -69 -16q-57 0 -91 33.5t-34 97.5q0 59 41 99t104 40z" glyph-name="Rcommaaccent.aalt" horiz-adv-x="1441"/><glyph d="M731 223q0 57 -47 92t-166 62q-225 49 -326.5 154.5t-101.5 273.5q0 156 106.5 246t284.5 90q76 0 141.5 -14.5t90 -25.5t78.5 -38q66 -27 87 -17.5t44 64.5h51v-397h-64q-25 139 -125 216t-219 77q-68 0 -101.5 -29t-33.5 -74q0 -59 51 -95t160 -58 q227 -47 325.5 -141.5t98.5 -268.5q0 -184 -122 -278.5t-300 -94.5q-190 0 -358 84q-55 20 -79 7t-42 -58h-51v422h63q70 -319 377 -320q178 0 178 121z" glyph-name="S.aalt" horiz-adv-x="1153"/><glyph d="M795 1683q76 -35 75.5 -128t-102.5 -169l-205 -151l-22 12l20 254q10 125 82 172t152 10zM731 223q0 57 -47 92t-166 62q-225 49 -326.5 154.5t-101.5 273.5q0 156 106.5 246t284.5 90q76 0 141.5 -14.5t90 -25.5t78.5 -38q66 -27 87 -17.5t44 64.5h51v-397h-64 q-25 139 -125 216t-219 77q-68 0 -101.5 -29t-33.5 -74q0 -59 51 -95t160 -58q227 -47 325.5 -141.5t98.5 -268.5q0 -184 -122 -278.5t-300 -94.5q-190 0 -358 84q-55 20 -79 7t-42 -58h-51v422h63q70 -319 377 -320q178 0 178 121z" glyph-name="Sacute.aalt" horiz-adv-x="1153"/><glyph d="M579.5 1253q-51.5 0 -90 35t-81.5 121l-123 250l20 16l275 -172l274 172l20 -16l-122 -250q-43 -86 -82 -121t-90.5 -35zM641 750q227 -47 325.5 -141.5t98.5 -268.5q0 -184 -122 -278.5t-300 -94.5q-190 0 -358 84q-55 20 -79 7t-42 -58h-51v422h63q70 -319 377 -320 q178 0 178 121q0 57 -47 92t-166 62q-225 49 -326.5 154.5t-101.5 273.5q0 156 106.5 246t284.5 90q76 0 141.5 -14.5t90 -25.5t78.5 -38q66 -27 87 -17.5t44 64.5h51v-397h-64q-25 139 -125 216t-219 77q-68 0 -101.5 -29t-33.5 -74q0 -59 51 -94.5t160 -58.5z" glyph-name="Scaron.aalt" horiz-adv-x="1153"/><glyph d="M643 -33h-14l-17 -82q141 12 208 -34t67 -123q0 -92 -71 -141.5t-183 -49.5q-236 0 -342 201l14 18q104 -80 227 -80q113 0 113 58q0 61 -170 69l-2 19l33 153q-111 18 -221 76q-55 20 -79 7t-42 -58h-51v422h63q70 -319 377 -320q178 0 178 121q0 57 -47 92t-166 62 q-225 49 -326.5 154.5t-101.5 273.5q0 156 106.5 246t284.5 90q76 0 141.5 -14.5t90 -25.5t78.5 -38q66 -27 87 -17.5t44 64.5h51v-397h-64q-25 139 -125 216t-219 77q-68 0 -101.5 -29t-33.5 -74q0 -59 51 -95t160 -58q227 -47 325.5 -141.5t98.5 -268.5 q0 -184 -122 -278.5t-300 -94.5z" glyph-name="Scedilla.c2sc" horiz-adv-x="1153"/><glyph d="M641 750q227 -47 325.5 -141.5t98.5 -268.5q0 -184 -122 -278.5t-300 -94.5q-190 0 -358 84q-55 20 -79 7t-42 -58h-51v422h63q70 -319 377 -320q178 0 178 121q0 57 -47 92t-166 62q-225 49 -326.5 154.5t-101.5 273.5q0 156 106.5 246t284.5 90q76 0 141.5 -14.5 t90 -25.5t78.5 -38q66 -27 87 -17.5t44 64.5h51v-397h-64q-25 139 -125 216t-219 77q-68 0 -101.5 -29t-33.5 -74q0 -59 51 -94.5t160 -58.5zM569 -90q86 0 131 -57.5t45 -139.5q0 -127 -90 -206.5t-233 -75.5l-8 37q94 12 146 65t58 123q-29 -16 -69 -16q-57 0 -91 33.5 t-34 97.5q0 59 41 99t104 40z" glyph-name="Scommaaccent.aalt" horiz-adv-x="1153"/><glyph d="M1145 590q188 -29 268 -103.5t80 -203.5q0 -160 -119 -238t-315 -78q-184 0 -272.5 56.5t-88.5 146.5q0 51 27 87t80 36q74 0 118 -54.5t58 -132.5q102 29 102 183q0 119 -73.5 167t-261.5 50v90l213 377h-316v-973h-561v61q78 14 102.5 32t24.5 63v794q0 43 -21.5 61.5 t-105.5 32.5v62h1298v-127z" glyph-name="uni1E9E.aalt" horiz-adv-x="1499"/><glyph d="M1266 1106v-516h-62q-51 219 -115.5 300t-199.5 89v-825q0 -43 27.5 -61.5t113.5 -33.5v-59h-717v59q84 14 112 30.5t28 64.5v825q-127 -6 -193.5 -82t-120.5 -307h-63v516h1190z" glyph-name="T.aalt" horiz-adv-x="1341"/><glyph d="M1266 1106v-516h-62q-51 219 -115.5 300t-199.5 89v-477h213v-125h-213v-223q0 -43 27.5 -61.5t113.5 -33.5v-59h-717v59q84 14 112 30.5t28 64.5v223h-211v125h211v477q-127 -6 -193.5 -82t-120.5 -307h-63v516h1190z" glyph-name="Tbar.aalt" horiz-adv-x="1341"/><glyph d="M672 1253q-51 0 -90 35t-82 121l-123 250l20 16l275 -172l274 172l21 -16l-123 -250q-43 -86 -82 -121t-90 -35zM1266 1106v-516h-62q-51 219 -115.5 300t-199.5 89v-825q0 -43 27.5 -61.5t113.5 -33.5v-59h-717v59q84 14 112 30.5t28 64.5v825q-127 -6 -193.5 -82 t-120.5 -307h-63v516h1190z" glyph-name="Tcaron.aalt" horiz-adv-x="1341"/><glyph d="M1266 1106v-516h-62q-51 219 -115.5 300t-199.5 89v-825q0 -43 27.5 -61.5t113.5 -33.5v-59h-301l-24 -115q141 12 207.5 -34t66.5 -123q0 -92 -70.5 -141.5t-183.5 -49.5q-236 0 -342 201l14 18q104 -80 228 -80q113 0 112 58q0 61 -170 69l-2 19l39 178h-291v59 q84 14 112 30.5t28 64.5v825q-127 -6 -193.5 -82t-120.5 -307h-63v516h1190z" glyph-name="Tcommaaccent.c2sc" horiz-adv-x="1341"/><glyph d="M1266 1106v-516h-62q-51 219 -115.5 300t-199.5 89v-825q0 -43 27.5 -61.5t113.5 -33.5v-59h-717v59q84 14 112 30.5t28 64.5v825q-127 -6 -193.5 -82t-120.5 -307h-63v516h1190zM662 -90q86 0 131 -57.5t45 -139.5q0 -127 -90.5 -206.5t-233.5 -75.5l-8 37 q94 12 146.5 65t58.5 123q-29 -16 -70 -16q-57 0 -91 33.5t-34 97.5q0 59 41.5 99t104.5 40z" glyph-name="uni021A.aalt" horiz-adv-x="1341"/><glyph d="M145 535v417q0 41 -27.5 59.5t-90.5 35.5v59h612v-59q-66 -14 -83 -33t-17 -62v-606q0 -131 53 -187.5t133 -56.5q186 0 186 244v606q0 45 -25.5 64.5t-99.5 30.5v59h637v-59q-70 -14 -94 -35t-24 -60v-417q0 -567 -580 -567t-580 567z" glyph-name="U.aalt" horiz-adv-x="1449"/><glyph d="M940 1683q76 -35 76 -128t-103 -169l-204 -151l-23 12l21 254q10 125 81.5 172t151.5 10zM145 535v417q0 41 -27.5 59.5t-90.5 35.5v59h612v-59q-66 -14 -83 -33t-17 -62v-606q0 -131 53 -187.5t133 -56.5q186 0 186 244v606q0 45 -25.5 64.5t-99.5 30.5v59h637v-59 q-70 -14 -94 -35t-24 -60v-417q0 -567 -580 -567t-580 567z" glyph-name="Uacute.aalt" horiz-adv-x="1449"/><glyph d="M725 1425l-274 -172l-21 17l123 250q43 86 82 120.5t90 34.5t90 -34.5t82 -120.5l123 -250l-21 -17zM786 1106h637v-59q-70 -14 -94 -35t-24 -60v-417q0 -567 -580 -567.5t-580 567.5v417q0 41 -27.5 59.5t-90.5 35.5v59h612v-59q-66 -14 -83 -33t-17 -62v-606 q0 -131 53 -187.5t133 -56.5q186 0 186 244v606q0 45 -25.5 64.5t-99.5 30.5v59z" glyph-name="Ucircumflex.aalt" horiz-adv-x="1449"/><glyph d="M477 1262q-78 0 -132 54t-54 132q0 76 54 129t132 53t132.5 -53t54.5 -129q0 -78 -54.5 -132t-132.5 -54zM971 1262q-78 0 -132.5 54t-54.5 132q0 76 54.5 129t132.5 53t132 -53t54 -129q0 -78 -54 -132t-132 -54zM145 535v417q0 41 -27.5 59.5t-90.5 35.5v59h612v-59 q-66 -14 -83 -33t-17 -62v-606q0 -131 53 -187.5t133 -56.5q186 0 186 244v606q0 45 -25.5 64.5t-99.5 30.5v59h637v-59q-70 -14 -94 -35t-24 -60v-417q0 -567 -580 -567t-580 567z" glyph-name="Udieresis.aalt" horiz-adv-x="1449"/><glyph d="M524 1683q80 37 152 -10t82 -172l20 -254l-22 -12l-205 151q-102 76 -102.5 169t75.5 128zM145 535v417q0 41 -27.5 59.5t-90.5 35.5v59h612v-59q-66 -14 -83 -33t-17 -62v-606q0 -131 53 -187.5t133 -56.5q186 0 186 244v606q0 45 -25.5 64.5t-99.5 30.5v59h637v-59 q-70 -14 -94 -35t-24 -60v-417q0 -567 -580 -567t-580 567z" glyph-name="Ugrave.aalt" horiz-adv-x="1449"/><glyph d="M510 1237l-25 6l-32 199q-27 156 19 222.5t134 57.5q59 -6 88 -48t14.5 -115.5t-79.5 -161.5zM797 1233l-21 16l86 242q29 82 75 124t90 39t87 -30q41 -31 48 -79t-29.5 -104.5t-116.5 -97.5zM145 535v417q0 41 -27.5 59.5t-90.5 35.5v59h612v-59q-66 -14 -83 -33 t-17 -62v-606q0 -131 53 -187.5t133 -56.5q186 0 186 244v606q0 45 -25.5 64.5t-99.5 30.5v59h637v-59q-70 -14 -94 -35t-24 -60v-417q0 -567 -580 -567t-580 567z" glyph-name="Uhungarumlaut.aalt" horiz-adv-x="1449"/><glyph d="M389 1556h672v-124h-672v124zM145 535v417q0 41 -27.5 59.5t-90.5 35.5v59h612v-59q-66 -14 -83 -33t-17 -62v-606q0 -131 53 -187.5t133 -56.5q186 0 186 244v606q0 45 -25.5 64.5t-99.5 30.5v59h637v-59q-70 -14 -94 -35t-24 -60v-417q0 -567 -580 -567t-580 567z" glyph-name="Umacron.aalt" horiz-adv-x="1449"/><glyph d="M786 1106h637v-59q-70 -14 -94 -35t-24 -60v-417q0 -483 -422 -555q-125 -47 -172 -113t-47 -125q0 -78 75 -78q86 0 142 55l14 -18q-35 -80 -107.5 -130t-177.5 -50q-197 0 -196 174q0 88 69.5 159.5t196.5 112.5q-535 23 -535 568v417q0 41 -27.5 59.5t-90.5 35.5v59 h612v-59q-66 -14 -83 -33t-17 -62v-606q0 -131 53 -187.5t133 -56.5q186 0 186 244v606q0 45 -25.5 64.5t-99.5 30.5v59z" glyph-name="Uogonek.aalt" horiz-adv-x="1449"/><glyph d="M725 1196q-117 0 -195.5 73.5t-78.5 190.5t78.5 191.5t195.5 74.5t194.5 -73.5t77.5 -192.5q0 -117 -78.5 -190.5t-193.5 -73.5zM725 1333q49 0 86 34t37 93.5t-37 93t-86 33.5t-86 -33.5t-37 -93t37 -93.5t86 -34zM145 535v417q0 41 -27.5 59.5t-90.5 35.5v59h612v-59 q-66 -14 -83 -33t-17 -62v-606q0 -131 53 -187.5t133 -56.5q186 0 186 244v606q0 45 -25.5 64.5t-99.5 30.5v59h637v-59q-70 -14 -94 -35t-24 -60v-417q0 -567 -580 -567t-580 567z" glyph-name="Uring.aalt" horiz-adv-x="1449"/><glyph d="M1059 1106h420v-59q-70 -20 -94.5 -42t-49.5 -83l-360 -922h-465l-358 887q-29 72 -53.5 100.5t-84.5 59.5v59h666v-59q-94 -25 -112.5 -61t10.5 -87l303 -739l284 739q25 63 6.5 88t-112.5 60v59z" glyph-name="V.aalt" horiz-adv-x="1492"/><glyph d="M1806 1106h420v-59q-74 -23 -96.5 -42.5t-46.5 -82.5l-357 -922h-346l-270 758l-254 -758h-346l-358 887q-29 72 -53.5 100.5t-84.5 59.5v59h666v-59q-94 -25 -112.5 -61t10.5 -87l231 -563l184 563q20 61 2 88t-108 60v59h719v-59q-53 -14 -83 -30t-35 -38.5t-3 -35.5 t12 -44l199 -565l217 565q25 61 5 88t-112 60v59z" glyph-name="w.aalt" horiz-adv-x="2240"/><glyph d="M1309 1386l-205 -151l-23 12l21 254q10 125 81.5 172t151.5 10q76 -35 76 -128t-102 -169zM1806 1106h420v-59q-74 -23 -96.5 -42.5t-46.5 -82.5l-357 -922h-346l-270 758l-254 -758h-346l-358 887q-29 72 -53.5 100.5t-84.5 59.5v59h666v-59q-94 -25 -112.5 -61 t10.5 -87l231 -563l184 563q20 61 2 88t-108 60v59h719v-59q-53 -14 -83 -30t-35 -38.5t-3 -35.5t12 -44l199 -565l217 565q25 61 5 88t-112 60v59z" glyph-name="Wacute.aalt" horiz-adv-x="2240"/><glyph d="M1120 1425l-274 -172l-21 17l123 250q43 86 82 120.5t90 34.5t90 -34.5t82 -120.5l123 -250l-20 -17zM1806 1106h420v-59q-74 -23 -96.5 -42.5t-46.5 -82.5l-357 -922h-346l-270 758l-254 -758h-346l-358 887q-29 72 -53.5 100.5t-84.5 59.5v59h666v-59 q-94 -25 -112.5 -61t10.5 -87l231 -563l184 563q20 61 2 88t-108 60v59h719v-59q-53 -14 -83 -30t-35 -38.5t-3 -35.5t12 -44l199 -565l217 565q25 61 5 88t-112 60v59z" glyph-name="Wcircumflex.aalt" horiz-adv-x="2240"/><glyph d="M872.5 1262q-77.5 0 -132 54t-54.5 132q0 76 54.5 129t132 53t132 -53t54.5 -129q0 -78 -54.5 -132t-132 -54zM1366 1262q-78 0 -132 54t-54 132q0 76 54 129t132 53t132 -53t54 -129q0 -78 -54 -132t-132 -54zM1806 1106h420v-59q-74 -23 -96.5 -42.5t-46.5 -82.5 l-357 -922h-346l-270 758l-254 -758h-346l-358 887q-29 72 -53.5 100.5t-84.5 59.5v59h666v-59q-94 -25 -112.5 -61t10.5 -87l231 -563l184 563q20 61 2 88t-108 60v59h719v-59q-53 -14 -83 -30t-35 -38.5t-3 -35.5t12 -44l199 -565l217 565q25 61 5 88t-112 60v59z" glyph-name="Wdieresis.aalt" horiz-adv-x="2240"/><glyph d="M946 1386q-102 76 -102 169.5t76 127.5q80 37 151.5 -10t81.5 -172l21 -254l-23 -12zM1806 1106h420v-59q-74 -23 -96.5 -42.5t-46.5 -82.5l-357 -922h-346l-270 758l-254 -758h-346l-358 887q-29 72 -53.5 100.5t-84.5 59.5v59h666v-59q-94 -25 -112.5 -61t10.5 -87 l231 -563l184 563q20 61 2 88t-108 60v59h719v-59q-53 -14 -83 -30t-35 -38.5t-3 -35.5t12 -44l199 -565l217 565q25 61 5 88t-112 60v59z" glyph-name="Wgrave.aalt" horiz-adv-x="2240"/><glyph d="M1321 180q59 -84 154 -121v-59h-785v59q178 25 84 164l-176 254l-166 -248q-29 -45 -37 -76.5t19.5 -58t101.5 -35.5v-59h-469v59q43 12 70.5 23.5t68.5 46.5t80 90l238 346l-268 361q-12 16 -23.5 30.5t-24 24.5t-21.5 18.5t-22.5 14.5t-19.5 10t-20.5 8t-18.5 5 t-20.5 5.5t-20.5 4.5v59h784v-59q-82 -14 -93 -54.5t36 -95.5l148 -197l112 154q133 182 -39 193v59h463v-59q-74 -18 -125 -50t-114 -118l-199 -265z" glyph-name="X.aalt" horiz-adv-x="1523"/><glyph d="M1032 1106h449v-59q-147 -35 -191 -99l-284 -428v-366q0 -43 25.5 -61.5t103.5 -33.5v-59h-695v59q84 14 106.5 33t22.5 62v292l-331 480q-41 57 -83 80.5t-108 40.5v59h797v-59q-86 -14 -101.5 -47t31.5 -103l168 -252l131 215q43 68 46 109t-18.5 56t-68.5 22v59z" glyph-name="Y.aalt" horiz-adv-x="1527"/><glyph d="M1096 1386l-205 -151l-23 12l21 254q10 125 81.5 172t151.5 10q76 -35 76 -128t-102 -169zM1032 1106h449v-59q-147 -35 -191 -99l-284 -428v-366q0 -43 25.5 -61.5t103.5 -33.5v-59h-695v59q84 14 106.5 33t22.5 62v292l-331 480q-41 57 -83 80.5t-108 40.5v59h797v-59 q-86 -14 -101.5 -47t31.5 -103l168 -252l131 215q43 68 46 109t-18.5 56t-68.5 22v59z" glyph-name="Yacute.aalt" horiz-adv-x="1527"/><glyph d="M907 1425l-274 -172l-21 17l123 250q43 86 82 120.5t90 34.5t90 -34.5t82 -120.5l123 -250l-20 -17zM1032 1106h449v-59q-147 -35 -191 -99l-284 -428v-366q0 -43 25.5 -61.5t103.5 -33.5v-59h-695v59q84 14 106.5 33t22.5 62v292l-331 480q-41 57 -83 80.5t-108 40.5v59 h797v-59q-86 -14 -101.5 -47t31.5 -103l168 -252l131 215q43 68 46 109t-18.5 56t-68.5 22v59z" glyph-name="Ycircumflex.aalt" horiz-adv-x="1527"/><glyph d="M659.5 1262q-77.5 0 -132 54t-54.5 132q0 76 54.5 129t132 53t132 -53t54.5 -129q0 -78 -54.5 -132t-132 -54zM1153 1262q-78 0 -132 54t-54 132q0 76 54 129t132 53t132 -53t54 -129q0 -78 -54 -132t-132 -54zM1032 1106h449v-59q-147 -35 -191 -99l-284 -428v-366 q0 -43 25.5 -61.5t103.5 -33.5v-59h-695v59q84 14 106.5 33t22.5 62v292l-331 480q-41 57 -83 80.5t-108 40.5v59h797v-59q-86 -14 -101.5 -47t31.5 -103l168 -252l131 215q43 68 46 109t-18.5 56t-68.5 22v59z" glyph-name="ydieresis.aalt" horiz-adv-x="1527"/><glyph d="M733 1386q-102 76 -102 169.5t76 127.5q80 37 151.5 -10t81.5 -172l21 -254l-23 -12zM1032 1106h449v-59q-147 -35 -191 -99l-284 -428v-366q0 -43 25.5 -61.5t103.5 -33.5v-59h-695v59q84 14 106.5 33t22.5 62v292l-331 480q-41 57 -83 80.5t-108 40.5v59h797v-59 q-86 -14 -101.5 -47t31.5 -103l168 -252l131 215q43 68 46 109t-18.5 56t-68.5 22v59z" glyph-name="Ygrave.aalt" horiz-adv-x="1527"/><glyph d="M61 0v90l508 885h-88q-156 0 -238.5 -69.5t-129.5 -278.5h-64v479h1026v-78l-514 -897h76q178 0 257 71.5t134 264.5h62v-467h-1029z" glyph-name="Z.aalt" horiz-adv-x="1107"/><glyph d="M768 1683q76 -35 76 -128t-103 -169l-204 -151l-23 12l21 254q10 125 81.5 172t151.5 10zM61 0v90l508 885h-88q-156 0 -238.5 -69.5t-129.5 -278.5h-64v479h1026v-78l-514 -897h76q178 0 257 71.5t134 264.5h62v-467h-1029z" glyph-name="Zacute.aalt" horiz-adv-x="1107"/><glyph d="M553 1253q-51 0 -90 35t-82 121l-123 250l21 16l274 -172l274 172l21 -16l-123 -250q-43 -86 -82 -121t-90 -35zM1028 467h62v-467h-1029v90l508 885h-88q-156 0 -238.5 -69.5t-129.5 -278.5h-64v479h1026v-78l-514 -897h76q178 0 257 71.5t134 264.5z" glyph-name="Zcaron.aalt" horiz-adv-x="1107"/><glyph d="M553 1223q-92 0 -158.5 65.5t-66.5 159.5q0 92 66.5 156.5t158.5 64.5t158.5 -64.5t66.5 -156.5q0 -94 -66.5 -159.5t-158.5 -65.5zM61 0v90l508 885h-88q-156 0 -238.5 -69.5t-129.5 -278.5h-64v479h1026v-78l-514 -897h76q178 0 257 71.5t134 264.5h62v-467h-1029z" glyph-name="Zdotaccent.aalt" horiz-adv-x="1107"/><glyph d="M690 -33q-274 0 -454.5 159t-180.5 431q0 270 180.5 426t454.5 156q272 0 452.5 -156t180.5 -426q0 -272 -180.5 -431t-452.5 -159zM690 102q90 0 142.5 117t52.5 338q0 219 -52.5 333t-142.5 114q-92 0 -143 -115t-51 -332q0 -221 51 -338t143 -117z" glyph-name="zero.oldstyle" horiz-adv-x="1378"/><glyph d="M596 1118v-962q0 -45 24.5 -63.5t114.5 -33.5v-59h-704v59q90 14 114.5 34t24.5 63v739h-139v86l94 12q313 43 395 125h76z" glyph-name="one.oldstyle" horiz-adv-x="747"/><glyph d="M995 469h62v-469h-967v152q223 123 340 299t117 383q0 96 -31 141t-98 45q-49 0 -90 -19q8 -160 -37 -243.5t-154 -81.5q-61 2 -91 39t-30 94q0 127 128 228.5t368 101.5q217 0 342 -89t125 -253q0 -270 -512 -508h137q180 0 262 32.5t129 147.5z" glyph-name="two.oldstyle" horiz-adv-x="1134"/><glyph d="M725 418q197 -23 291 -115t94 -235q0 -199 -158.5 -301.5t-406.5 -102.5q-233 0 -376.5 75t-143.5 193q0 59 35.5 101.5t103.5 42.5q82 0 151.5 -86t100.5 -193h8q233 0 233 283q0 129 -72.5 188.5t-226.5 59.5h-131v155h131q289 0 289 297q0 225 -168 226q-49 0 -90 -15 q6 -143 -48 -229t-159 -86q-55 0 -85.5 32.5t-30.5 84.5q0 137 154.5 241.5t414.5 104.5q213 0 328.5 -80t115.5 -240q0 -143 -96 -249.5t-258 -151.5z" glyph-name="three.oldstyle" horiz-adv-x="1167"/><glyph d="M1343 152v-152h-206v-305h-447v305h-651v100l698 1006h400v-954h206zM264 152h426v606z" glyph-name="four.oldstyle" horiz-adv-x="1392"/><glyph d="M682 541q256 0 379 -113t123 -295q0 -233 -172 -351t-439 -118q-229 0 -371.5 75t-142.5 193q0 57 36 97.5t104 40.5q82 0 151.5 -84t100.5 -189h8q154 0 222.5 77t68.5 239q0 268 -218 268q-51 0 -94 -16.5t-79.5 -51t-52 -51t-42.5 -51.5l-119 35l9 860h708 q84 0 121 82h70v-434h-744l-4 -344q148 131 377 131z" glyph-name="five.oldstyle" horiz-adv-x="1243"/><glyph d="M924 864q178 0 297.5 -99t119.5 -304q0 -225 -167.5 -359.5t-434.5 -134.5q-629 0 -628 742q0 160 45 298t133 245.5t232.5 169t326.5 61.5q199 0 336 -87t137 -206q0 -61 -42 -105.5t-118 -44.5q-102 0 -172.5 86t-105.5 224q-96 -2 -164 -51.5t-102.5 -138.5 t-49 -192.5t-14.5 -240.5q133 137 371 137zM748 102q70 0 112.5 89.5t42.5 232.5q0 152 -37 223.5t-118 71.5q-109 0 -193 -152q10 -248 58.5 -356.5t134.5 -108.5z" glyph-name="six.oldstyle" horiz-adv-x="1421"/><glyph d="M268 1106h830v-166l-375 -1243h-418l574 1053h-801v417h69q14 -37 41 -49t80 -12z" glyph-name="seven.oldstyle" horiz-adv-x="1150"/><glyph d="M891 870q188 -90 279.5 -205.5t91.5 -277.5q0 -420 -641 -420q-276 0 -414.5 100.5t-138.5 249.5q2 256 335 361q-268 164 -268 426q0 180 151.5 279.5t395.5 99.5t378 -86t134 -234q-4 -207 -303 -293zM682 1350q-72 0 -123 -45t-51 -123q0 -82 55 -138.5t191 -115.5 q106 86 106 225q0 96 -48 146.5t-130 50.5zM623 100q117 0 188.5 55.5t71.5 151.5q0 86 -63.5 143.5t-203.5 118.5l-81 37q-133 -113 -134 -268q0 -104 55.5 -171t166.5 -67z" glyph-name="eight.oldstyle" horiz-adv-x="1329"/><glyph d="M651 1139q291 0 439.5 -181.5t148.5 -513.5q0 -362 -169 -565t-484 -203q-229 0 -371.5 75t-142.5 194q0 63 34.5 106t102.5 43q90 0 156.5 -77.5t97.5 -206.5h8q180 0 256 148t78 423q-127 -92 -322 -92q-182 0 -305 101.5t-123 295.5q0 217 157.5 335t438.5 118z M643 442q94 0 160 76q-8 262 -48 375t-116 113q-66 0 -104.5 -83t-38.5 -221q0 -133 34.5 -196.5t112.5 -63.5z" glyph-name="nine.oldstyle" horiz-adv-x="1318"/><glyph d="M547 -25q-219 0 -363.5 104.5t-144.5 282.5q0 176 144.5 277.5t363.5 101.5q217 0 360.5 -101t143.5 -278q0 -178 -144.5 -282.5t-359.5 -104.5zM547 84q61 0 97 72.5t36 206t-36 201t-97 67.5q-135 0 -135 -269q0 -133 36 -205.5t99 -72.5z" glyph-name="zero.dnom" horiz-adv-x="1089"/><glyph d="M477 723v-610q0 -20 4 -28.5t27.5 -19t75.5 -16.5v-49h-576v49q51 6 74.5 17.5t28 19.5t4.5 27v432h-107v73l70 7q260 25 334 98h65z" glyph-name="one.dnom" horiz-adv-x="577"/><glyph d="M752 346h51v-346h-770v127q166 82 255 184.5t89 215t-96 112.5q-20 0 -31 -2q-4 -233 -158 -234q-49 0 -73.5 29t-24.5 74q0 90 103.5 162.5t271.5 72.5q375 0 374 -227q0 -98 -72.5 -170t-221.5 -129h45q115 0 171 25.5t87 105.5z" glyph-name="two.dnom" horiz-adv-x="821"/><glyph d="M580 367q115 -20 159.5 -65.5t44.5 -113.5q0 -113 -99 -159.5t-320 -46.5q-348 0 -349 163q0 41 26 70t79 29q119 0 174 -170h6q115 0 115 114q0 109 -140 109h-120v117h120q63 0 97.5 37.5t34.5 87.5q0 102 -111 102h-2q-10 -70 -53 -124t-121 -54q-90 0 -90 82 t103.5 136t266.5 54q375 0 375 -186q1 -143 -196 -182z" glyph-name="three.dnom" horiz-adv-x="788"/><glyph d="M879 162h-127v-51q0 -27 19.5 -39.5t92.5 -22.5v-49h-588v49q53 8 78 17.5t29 17.5t4 27v51h-383v69l379 486h369v-445h127v-110zM180 272h207v258z" glyph-name="four.dnom" horiz-adv-x="921"/><glyph d="M492 403q295 0 294 -200q0 -221 -391 -221q-356 0 -356 170q0 35 22.5 60.5t67.5 25.5q117 0 156 -164h14q57 0 90 30.5t33 84t-35 83t-96 29.5q-74 0 -135 -39l-78 27l8 428h633v-242h-516l-2 -121q103 49 291 49z" glyph-name="five.dnom" horiz-adv-x="800"/><glyph d="M623 446q113 0 192.5 -52t79.5 -158q0 -129 -114.5 -195t-313.5 -66q-209 0 -318.5 96.5t-109.5 276.5q0 170 127 281.5t375 111.5q127 0 206.5 -46t79.5 -120q0 -41 -27.5 -67.5t-76.5 -26.5q-115 0 -166 156q-86 -2 -118.5 -65.5t-37.5 -186.5q91 61 222 61zM473 84 q31 0 48.5 35t17.5 90q0 123 -56 123q-39 0 -82 -56q4 -104 19.5 -148t52.5 -44z" glyph-name="six.dnom" horiz-adv-x="933"/><glyph d="M31 717h682v-137l-209 -580h-334l344 449h-483v268z" glyph-name="seven.dnom" horiz-adv-x="761"/><glyph d="M639 440q209 -70 209 -219q0 -131 -116 -185t-337 -54q-381 0 -381 184q0 119 170 145q-127 76 -127 203q0 109 104.5 165t278.5 56q365 0 365 -160q0 -51 -42 -89t-124 -46zM449 635q-78 0 -78 -53q0 -59 123 -101q45 35 45 82q0 72 -90 72zM401 80q127 0 127 59 q0 49 -127 86q-57 16 -82 27q-39 -45 -38 -94q-1 -78 120 -78z" glyph-name="eight.dnom" horiz-adv-x="862"/><glyph d="M453 741q211 0 331.5 -97t120.5 -282q0 -387 -504 -387q-330 0 -329 162q0 45 29.5 76t82.5 31q113 0 183 -162h12q98 0 130 63.5t34 200.5q-80 -76 -224 -76q-106 0 -181 56.5t-75 169.5q0 115 105 180t285 65zM457 391q47 0 84 72q-8 168 -74 168q-63 0 -64 -123 q1 -117 54 -117z" glyph-name="nine.dnom" horiz-adv-x="944"/><glyph d="M547 717q-219 0 -363.5 104.5t-144.5 282.5q0 176 144.5 277.5t363.5 101.5q217 0 360.5 -101.5t143.5 -277.5q0 -178 -144.5 -282.5t-359.5 -104.5zM547 825q61 0 97 73t36 206t-36 200.5t-97 67.5q-135 0 -135 -268q0 -133 36 -206t99 -73z" glyph-name="zero.frac" horiz-adv-x="1089"/><glyph d="M477 1450v-610q0 -20 4 -28.5t27.5 -19t75.5 -16.5v-49h-576v49q51 6 74.5 17.5t28 19.5t4.5 27v432h-107v74l70 6q260 25 334 98h65z" glyph-name="one.frac" horiz-adv-x="577"/><glyph d="M752 1085h51v-346h-770v127q166 82 255 184.5t89 215t-96 112.5q-20 0 -31 -2q-4 -233 -158 -233q-49 0 -73.5 28.5t-24.5 73.5q0 90 103.5 163t271.5 73q375 0 374 -228q0 -98 -72.5 -169.5t-221.5 -129.5h45q115 0 171 25.5t87 105.5z" glyph-name="two.frac" horiz-adv-x="821"/><glyph d="M580 1110q115 -20 159.5 -65.5t44.5 -112.5q0 -113 -99 -160t-320 -47q-348 0 -349 164q0 41 26 69.5t79 28.5q119 0 174 -170h6q115 0 115 115q0 109 -140 108h-120v117h120q63 0 97.5 38t34.5 87q0 102 -111 102h-2q-10 -70 -53 -124t-121 -54q-90 0 -90 82 t103.5 136.5t266.5 54.5q375 0 375 -187q1 -143 -196 -182z" glyph-name="three.frac" horiz-adv-x="788"/><glyph d="M879 895h-127v-51q0 -27 19.5 -39t92.5 -23v-49h-588v49q53 8 78 17.5t29 17.5t4 27v51h-383v70l379 485h369v-444h127v-111zM180 1006h207v258z" glyph-name="four.frac" horiz-adv-x="921"/><glyph d="M492 1139q295 0 294 -201q0 -221 -391 -221q-356 0 -356 170q0 35 22.5 60.5t67.5 25.5q117 0 156 -164h14q57 0 90 30.5t33 84t-35 83t-96 29.5q-74 0 -135 -39l-78 27l8 428h633v-242h-516l-2 -120q103 49 291 49z" glyph-name="five.frac" horiz-adv-x="800"/><glyph d="M623 1188q113 0 192.5 -52.5t79.5 -158.5q0 -129 -114.5 -194.5t-313.5 -65.5q-209 0 -318.5 96t-109.5 277q0 170 127 281.5t375 111.5q127 0 206.5 -46t79.5 -120q0 -41 -27.5 -67.5t-76.5 -26.5q-115 0 -166 155q-86 -2 -118.5 -65.5t-37.5 -186.5q91 62 222 62z M473 825q31 0 48.5 35t17.5 90q0 123 -56 123q-39 0 -82 -55q4 -104 19.5 -148.5t52.5 -44.5z" glyph-name="six.frac" horiz-adv-x="933"/><glyph d="M31 1450h682v-137l-209 -580h-334l344 449h-483v268z" glyph-name="seven.frac" horiz-adv-x="761"/><glyph d="M639 1190q209 -70 209 -219q0 -131 -116 -185.5t-337 -54.5q-381 0 -381 184q0 119 170 146q-127 76 -127 203q0 109 104.5 165t278.5 56q365 0 365 -160q0 -51 -42 -89t-124 -46zM449 1384q-78 0 -78 -53q0 -59 123 -100q45 35 45 82q0 71 -90 71zM401 829q127 0 127 60 q0 49 -127 86q-57 16 -82 26q-39 -45 -38 -94q-1 -78 120 -78z" glyph-name="eight.frac" horiz-adv-x="862"/><glyph d="M453 1477q211 0 331.5 -97.5t120.5 -281.5q0 -387 -504 -387q-330 0 -329 161q0 45 29.5 76t82.5 31q113 0 183 -162h12q98 0 130 63.5t34 200.5q-80 -76 -224 -75q-106 0 -181 56t-75 169q0 115 105 180.5t285 65.5zM457 1126q47 0 84 72q-8 168 -74 168q-63 0 -64 -123 q1 -117 54 -117z" glyph-name="nine.frac" horiz-adv-x="944"/><glyph d="M711 -33q-274 0 -454.5 159t-180.5 431q0 270 180 426t455 156q272 0 452 -156t180 -426q0 -272 -180 -431t-452 -159zM711 102q90 0 142 117t52 338q0 219 -52 333t-142 114q-92 0 -143.5 -115t-51.5 -332q0 -221 51.5 -338t143.5 -117z" glyph-name="zero.c2sc" horiz-adv-x="1419"/><glyph d="M588 1118v-962q0 -45 24.5 -63.5t114.5 -33.5v-59h-704v59q90 14 114.5 34t24.5 63v739h-139v86l94 12q313 43 395 125h76z" glyph-name="one.c2sc" horiz-adv-x="731"/><glyph d="M993 469h62v-469h-967v152q217 133 337 305t120 372q0 100 -31 145.5t-98 45.5q-51 0 -90 -19q8 -160 -37 -243.5t-154 -81.5q-61 2 -91 39t-30 94q0 127 128 228.5t368 101.5q217 0 342 -89t125 -253q0 -262 -408 -508h33q180 0 262 32.5t129 147.5z" glyph-name="two.c2sc" horiz-adv-x="1112"/><glyph d="M698 567q184 -29 260 -96.5t76 -181.5q0 -164 -142 -243t-384 -79q-424 0 -463 211q-10 61 21.5 110.5t117.5 49.5q94 0 158 -80t90 -172q168 0 168 221q0 96 -48 134t-157 38h-147v144h147q100 0 146.5 62.5t46.5 144t-37 133t-117 51.5q-37 0 -69 -13 q-2 -70 -16.5 -130t-58.5 -111t-112 -51q-117 0 -117 133q0 111 130.5 201t365.5 90q463 0 463 -277q0 -115 -72 -184.5t-250 -104.5z" glyph-name="three.c2sc" horiz-adv-x="1093"/><glyph d="M1202 250h-164v-96q0 -45 26 -62.5t118 -32.5v-59h-715v59q92 14 116.5 33t24.5 62v96h-577v88l571 768h436v-719h164v-137zM242 387h366v481z" glyph-name="four.c2sc" horiz-adv-x="1251"/><glyph d="M598 657q414 0 414 -338q0 -352 -535 -352q-227 0 -339.5 73t-112.5 187q0 59 34.5 100.5t104.5 41.5q66 0 112 -49.5t63 -108.5t19 -119q23 -6 50 -6q92 0 133 55.5t41 165.5q0 100 -47.5 155.5t-128.5 55.5q-100 0 -189 -74l-92 33l8 629h629q72 0 102 47h66v-379h-658 l-2 -180q119 63 328 63z" glyph-name="five.c2sc" horiz-adv-x="1075"/><glyph d="M821 672q156 0 263.5 -80t107.5 -246q0 -180 -150.5 -279.5t-404.5 -99.5q-274 0 -417.5 148.5t-143.5 423.5q0 260 165 430t486 170q180 0 293 -70t113 -170q0 -55 -39 -95t-109 -40q-94 0 -165.5 66.5t-102.5 170.5q-109 -14 -154 -121.5t-49 -304.5q117 97 307 97z M637 100q63 0 99 61.5t36 162.5q0 207 -113 206q-86 0 -143 -92q4 -182 33 -260t88 -78z" glyph-name="six.c2sc" horiz-adv-x="1224"/><glyph d="M188 1106h736v-162l-312 -944h-395l483 764h-684v389h66q20 -47 106 -47z" glyph-name="seven.c2sc" horiz-adv-x="960"/><glyph d="M766 680q307 -133 307 -373q0 -334 -565 -334q-238 0 -358.5 77t-120.5 190q2 184 266 256q-211 133 -211 333q0 145 132 224.5t347 79.5q217 0 336 -66t119 -180q0 -68 -66.5 -122t-185.5 -85zM563 1006q-43 0 -76.5 -29t-33.5 -70q0 -57 38.5 -96t141.5 -80 q70 70 69 143q0 63 -38 97.5t-101 34.5zM510 98q82 0 134 34t52 91q0 55 -46 92t-146 78q-72 31 -80 35q-80 -80 -80 -168q0 -70 42 -116t124 -46z" glyph-name="eight.c2sc" horiz-adv-x="1101"/><glyph d="M553 1139q279 0 436.5 -151.5t157.5 -426t-169 -434.5t-478 -160q-401 0 -441 209q-12 63 25 115.5t121 52.5q90 0 149.5 -74.5t87.5 -167.5q8 -2 27 -2q129 0 181 105.5t57 322.5q-100 -82 -295 -82q-158 0 -265.5 80t-107.5 242q0 172 135 271.5t379 99.5zM569 588 q82 0 136 86q-6 176 -37 251.5t-93 75.5q-113 0 -112 -219q0 -194 106 -194z" glyph-name="nine.c2sc" horiz-adv-x="1222"/><glyph d="M-117 1561q100 0 126 -88.5t-40 -204.5l-166 -295l-24 4l-41 344q-14 125 26.5 182.5t118.5 57.5z" glyph-name="glyph509"/><glyph d="M-782.5 1139q-77.5 0 -132 54t-54.5 132q0 76 54.5 129t132 53t132 -53t54.5 -129q0 -78 -54.5 -132t-132 -54zM-289 1139q-78 0 -132 54t-54 132q0 76 54 129t132 53t132.5 -53t54.5 -129q0 -78 -54.5 -132t-132.5 -54z" glyph-name="uni0308.aalt"/><glyph d="M-328 1100q-92 0 -158.5 65.5t-66.5 159.5q0 92 66.5 156.5t158.5 64.5t159 -64.5t67 -156.5q0 -94 -67 -159.5t-159 -65.5z" glyph-name="uni0307.aalt"/><glyph d="M-356 1561q80 37 151.5 -10.5t81.5 -172.5l21 -254l-23 -12l-205 152q-102 76 -102 169t76 128z" glyph-name="gravecomb.aalt"/><glyph d="M-82 1561q76 -35 76 -128.5t-103 -168.5l-204 -152l-23 12l21 254q10 125 81.5 172.5t151.5 10.5z" glyph-name="acutecomb.aalt"/><glyph d="M-598 1599q59 -6 88 -48t14.5 -115.5t-79.5 -161.5l-119 -160l-25 6l-33 199q-27 156 19.5 222t134.5 58zM-90 1501q41 -31 48 -79t-30 -104t-116 -97l-220 -111l-20 16l86 242q29 82 75 124t90 39t87 -30z" glyph-name="uni030B.aalt"/><glyph d="M-117 1561q100 0 126 -88.5t-40 -204.5l-166 -295l-24 4l-41 344q-14 125 26.5 182.5t118.5 57.5z" glyph-name="glyph515"/><glyph d="M-61 1147l-21 -17l-274 173l-275 -173l-20 17l123 250q43 86 81.5 120.5t90 34.5t90.5 -34.5t82 -120.5z" glyph-name="uni0302.aalt"/><glyph d="M-82 1552l21 -16l-123 -250q-43 -86 -82 -121t-90.5 -35t-90 35t-81.5 121l-123 250l20 16l275 -172z" glyph-name="uni030C.aalt"/><glyph d="M-526 1489q4 -63 60 -107.5t159 -44.5q104 0 159.5 44t59.5 108h41q10 -156 -61.5 -256t-198.5 -100t-200 100t-62 256h43z" glyph-name="uni0306.aalt"/><glyph d="M-356.5 1090q-108.5 0 -182 69.5t-73.5 177.5q0 111 73.5 180.5t182 69.5t181.5 -69.5t73 -180.5q0 -109 -73 -178t-181.5 -69zM-356.5 1204q53.5 0 91.5 36t38 97q0 63 -38 98t-91.5 35t-91 -34.5t-37.5 -98.5q0 -61 37.5 -97t91 -36z" glyph-name="uni030A.aalt"/><glyph d="M-735 1167l-41 13q23 147 87 228t154 81q61 0 144.5 -47t140.5 -47q35 0 64.5 16t44 30.5t39.5 47.5l41 -12q-23 -147 -87.5 -228.5t-154.5 -81.5q-61 0 -144 47.5t-141 47.5q-35 0 -64.5 -16.5t-43.5 -31t-39 -47.5z" glyph-name="tildecomb.aalt"/><glyph d="M-733 1434h672v-125h-672v125z" glyph-name="uni0304.aalt"/><glyph d="M-201 1391q57 0 91 -34t34 -97q0 -59 -41 -99.5t-104 -40.5q-86 0 -131 57.5t-45 139.5q0 127 90 207t233 75l8 -36q-94 -12 -146 -65.5t-58 -123.5q28 17 69 17z" glyph-name="uni0312.aalt"/><glyph d="M-242 -123q86 0 131 -57.5t45 -138.5q0 -127 -90 -207t-233 -76l-8 37q94 12 146 65.5t58 122.5q-29 -16 -69 -16q-57 0 -91 33.5t-34 97.5q0 59 41 99t104 40z" glyph-name="uni0326.aalt"/><glyph d="M-338 -113q133 8 194.5 -37t61.5 -122q0 -92 -67.5 -141.5t-174.5 -49.5q-223 0 -321 201l14 18q96 -80 207 -80q100 0 100 58q0 59 -157 69l-2 19l69 188h125z" glyph-name="uni0327.aalt"/><glyph d="M-672 25l41 -21q-150 -47 -206 -119.5t-56 -134.5q0 -70 88 -69q96 0 170 55l14 -19q-39 -78 -124.5 -129t-192.5 -51q-205 0 -205 174q0 117 126 202t345 112z" glyph-name="uni0328.aalt"/></font>
</defs>
</svg>
