<?xml version="1.0" standalone="no"?>
<!DOCTYPE svg PUBLIC "-//W3C//DTD SVG 1.1//EN" "http://www.w3.org/Graphics/SVG/1.1/DTD/svg11.dtd">
<svg xmlns="http://www.w3.org/2000/svg"><metadata>This SVG WebFont was generated by YouWorkForThem.
Copyright Â© 2018 by Emil Bertell All rights reserved.</metadata><defs><font horiz-adv-x="0" id="ywftsvg"><font-face ascent="1638" bbox="-770 -559 2617 2093.57" cap-height="1438" descent="-410" font-family="" font-stretch="normal" font-weight="200" panose-1="0 0 3 0 0 0 0 0 0 0" underline-position="0" underline-thickness="0" unicode-range="U+0020-FB02" units-per-em="2048" x-height="971"/><missing-glyph horiz-adv-x="1228"/><glyph d="M1147 145q0 -61 36 -83.5t154 -41.5v-20h-508v20q119 18 156 42t37 83v764h-612v-764q0 -61 44 -83.5t191 -41.5v-20h-553v20q119 18 156 42t37 83v764h-215v62h215v192q0 188 88 282.5t284 94.5q188 0 311.5 -73.5t123.5 -168.5q0 -35 -21.5 -54t-60.5 -19 q-61 0 -91 61.5t-26 147.5q-104 41 -231 41t-189.5 -63.5t-62.5 -209.5v-231h737v-826z" glyph-name="uniFB01" horiz-adv-x="1427" unicode="fi"/><glyph d="M1151 145q0 -61 36 -83.5t154 -41.5v-20h-507v20q119 18 155.5 42t36.5 83v1223q-164 106 -360 107q-123 0 -189.5 -57.5t-66.5 -200.5v-246h362v-62h-362v-764q0 -61 44 -83.5t191 -41.5v-20h-553v20q119 18 156 42t37 83v764h-215v62h215v207q0 362 368 362 q201 0 391 -80l107 78v-1393z" glyph-name="uniFB02" horiz-adv-x="1419" unicode="fl"/><glyph d="M1444 997q188 0 323.5 -131t135.5 -366q0 -242 -140.5 -382.5t-343.5 -140.5q-219 0 -336 175l-84 -152h-32v1350q-72 55 -166 90t-166 35q-225 0 -225 -246v-258h305v-62h-305v-764q0 -61 44 -83.5t191 -41.5v-20h-553v20q119 18 156 42t37 83v764h-215v62h215v219 q0 170 87 260t257 90q182 0 350 -82l113 80v-713q131 172 352 172zM1419 45q158 0 250 127t92 328q0 199 -86 314.5t-237 115.5q-238 0 -346 -201v-481q98 -203 327 -203z" glyph-name="f_b.liga" horiz-adv-x="2013" unicode="fb"/><glyph d="M1309 1540q137 0 237.5 -64.5t100.5 -150.5q0 -31 -21.5 -52.5t-56.5 -21.5q-57 0 -88 58.5t-19 144.5q-57 20 -149 21q-195 0 -195 -252v-252h305v-62h-305v-764q0 -61 44 -83.5t192 -41.5v-20h-553v20q119 18 155.5 42t36.5 83v764h-583v-764q0 -61 44 -83.5t191 -41.5 v-20h-553v20q119 18 156 42t37 83v764h-215v62h215v237q0 332 299 332q129 0 227 -65.5t98 -149.5q0 -74 -78 -74q-57 0 -86.5 59.5t-19.5 145.5q-51 18 -137 19q-178 0 -178 -228v-276h583v213q1 356 316 356z" glyph-name="f_f.liga" horiz-adv-x="1484" unicode="ff"/><glyph d="M1878 145q0 -61 36 -83.5t154 -41.5v-20h-507v20q119 18 155.5 42t36.5 83v764h-612v-764q0 -61 44 -83.5t191 -41.5v-20h-553v20q119 18 156 42t37 83v764h-606v-764q0 -61 44 -83.5t191 -41.5v-20h-553v20q119 18 156 42t37 83v764h-215v62h215v213q0 356 315 356 q133 0 231.5 -64.5t98.5 -150.5q0 -31 -21.5 -52.5t-56.5 -21.5q-57 0 -88 58.5t-19 144.5q-55 20 -141 21q-195 0 -194 -252v-252h606v192q0 188 88 282.5t285 94.5q188 0 311 -73.5t123 -168.5q0 -35 -21.5 -54t-60.5 -19q-61 0 -91 61.5t-26 147.5q-104 41 -231 41 t-189.5 -63.5t-62.5 -209.5v-231h737v-826z" glyph-name="f_f_i.liga" horiz-adv-x="2158" unicode="ffi"/><glyph d="M1892 145q0 -61 36 -83.5t155 -41.5v-20h-508v20q119 18 155.5 42t36.5 83v1223q-164 106 -360 107q-123 0 -189.5 -57.5t-66.5 -200.5v-246h362v-62h-362v-764q0 -61 44 -83.5t191 -41.5v-20h-552v20q119 18 155.5 42t36.5 83v764h-616v-764q0 -61 44 -83.5t191 -41.5 v-20h-553v20q119 18 156 42t37 83v764h-215v62h215v213q0 356 315 356q137 0 237.5 -64.5t100.5 -150.5q0 -31 -21.5 -52.5t-56.5 -21.5q-57 0 -88 58.5t-18 144.5q-57 20 -150 21q-195 0 -194 -252v-252h616v207q0 362 369 362q201 0 391 -80l106 78v-1393z" glyph-name="f_f_l.liga" horiz-adv-x="2160" unicode="ffl"/><glyph d="M1868 145q0 -61 35.5 -83.5t154.5 -41.5v-20h-508v20q119 18 155 41t36 84v471q0 301 -228 302q-260 0 -362 -320v-453q0 -61 36 -83.5t154 -41.5v-20h-507v20q119 18 155.5 42t36.5 83v1246q-152 84 -350 84q-266 0 -266 -263v-241h305v-62h-305v-764q0 -61 44 -83.5 t191 -41.5v-20h-553v20q119 18 156 42t37 83v764h-215v62h215v203q0 178 95 272t284 94q199 0 380 -78l107 76v-848q53 152 153.5 228.5t225.5 76.5q338 0 338 -354v-496z" glyph-name="f_h.liga" horiz-adv-x="2121" unicode="fh"/><glyph d="M410 971h698v-867q0 -254 -108.5 -377.5t-278.5 -123.5q-68 0 -108 28.5t-40 71.5q0 31 20.5 51.5t53.5 20.5q82 0 176 -113q160 80 160 383v864h-573v-764q0 -61 44 -83.5t191 -41.5v-20h-553v20q119 18 156 42t37 83v764h-215v62h215v213q0 176 78.5 266t257.5 88 q166 0 272 -63.5t106 -151.5q0 -35 -19 -54.5t-50 -19.5q-115 0 -131 203q-70 23 -174 23q-111 0 -163 -59.5t-52 -192.5v-252z" glyph-name="f_j.liga" horiz-adv-x="1298" unicode="fj"/><glyph d="M1761 201q57 -92 103.5 -125t142.5 -56v-20h-498v20q123 20 147.5 55.5t-32.5 131.5l-229 354l-244 -194v-222q0 -61 36 -83.5t154 -41.5v-20h-507v20q119 18 155.5 42t36.5 83v1248q-160 82 -356 82q-260 0 -260 -273v-231h305v-62h-305v-764q0 -61 44 -83.5t191 -41.5 v-20h-553v20q119 18 156 42t37 83v764h-215v62h215v192q0 176 90 276.5t274 100.5q213 0 395 -80l107 78v-1092l469 371q63 55 39.5 85t-133.5 48v21h459v-21q-147 -37 -291 -151l-203 -162z" glyph-name="f_k.liga" horiz-adv-x="2035" unicode="fk"/><glyph d="M1376 1268q-39 0 -66.5 27.5t-27.5 66.5t27.5 65.5t66.5 26.5t66.5 -26.5t27.5 -65.5t-27.5 -66.5t-66.5 -27.5zM971 948q-80 -8 -156 86q-57 -29 -106 -78q188 -82 188 -294q0 -88 -35 -156t-92 -104.5t-118.5 -55t-125.5 -18.5q-117 0 -180 -26t-63 -69q0 -78 272 -98 q246 -16 355.5 -75.5t109.5 -184.5q0 -272 -506 -272q-481 0 -481 223q0 92 92 151.5t244 75.5q-180 43 -180.5 153.5t178.5 145.5q-100 33 -164 109t-64 201q0 90 36 158.5t95.5 104.5t122 53t125.5 17q78 0 146 -22q106 145 247 145q53 0 87 -22.5t38 -61.5 q4 -35 -14 -58.5t-51 -27.5zM1149 883v20l303 82v-881q0 -244 -98.5 -361.5t-241.5 -139.5l-6 35q221 63 221 407v729q0 55 -29.5 73t-148.5 36zM782 662q0 135 -73.5 202.5t-190.5 67.5t-190.5 -67.5t-73.5 -202.5q0 -133 73.5 -201t190.5 -68t190.5 68t73.5 201zM903 -137 q0 80 -76.5 112.5t-283.5 51.5q-12 0 -33 4q-342 -33 -342 -205q0 -158 346 -158q102 0 186 17.5t143.5 63.5t59.5 114z" glyph-name="g_j.liga" horiz-adv-x="1660" unicode="gj"/><glyph glyph-name=".notdef" horiz-adv-x="1228"/><glyph glyph-name="glyph1"/><glyph glyph-name="glyph2" horiz-adv-x="681"/><glyph glyph-name="space" horiz-adv-x="415" unicode=" "/><glyph d="M291 1462q80 0 71 -151l-59 -920h-24l-58 920q-4 80 11.5 115.5t58.5 35.5zM291 -25q-39 0 -66.5 28t-27.5 67t27.5 65.5t66.5 26.5t66.5 -26.5t27.5 -65.5t-27.5 -67t-66.5 -28z" glyph-name="exclam" horiz-adv-x="581" unicode="!"/><glyph d="M209 1540q94 0 65 -176l-49 -313h-26l-49 313q-29 176 59 176zM506 1540q94 0 65 -176l-49 -313h-26l-50 313q-28 176 60 176z" glyph-name="quotedbl" horiz-adv-x="720" unicode="&quot;"/><glyph d="M1483 973h-223l-93 -486h215v-61h-227l-82 -426h-121l82 426h-577l-82 -426h-117l82 426h-201v61h213l92 486h-204v61h217l78 404h116l-78 -404h578l78 404h121l-78 -404h211v-61zM1047 487l92 486h-578l-92 -486h578z" glyph-name="numbersign" horiz-adv-x="1622" unicode="#"/><glyph d="M614 799q215 -53 321.5 -137t106.5 -240q0 -152 -106.5 -238t-263.5 -86q-39 0 -58 2v-198h-77v207q-94 16 -207 73q-94 43 -127 31t-64 -90h-18v518h24q20 -217 129 -328.5t263 -136.5v520q-201 43 -311.5 126t-110.5 239q0 133 103.5 216t254.5 83q45 0 64 -2v178h77 v-193q39 -8 150 -57q90 -41 123 -32.5t53 81.5h18v-479h-24q-39 350 -320 420v-477zM223 1075q0 -102 75 -157.5t239 -100.5v471q-16 2 -50 2q-127 0 -195.5 -58.5t-68.5 -156.5zM627 168q145 0 227 61.5t80 173.5q-2 106 -80 172t-240 105v-512h13z" glyph-name="dollar" horiz-adv-x="1140" unicode="$"/><glyph d="M354 840q-133 0 -216 79.5t-83 231.5t83 231.5t216 79.5t216 -79.5t83 -231.5t-83 -231.5t-216 -79.5zM1217 1438h88l-1104 -1438h-88zM354 887q86 0 132 69.5t46 194.5t-46 194.5t-132 69.5t-132 -69.5t-46 -194.5t46 -194.5t132 -69.5zM1051 -23q-133 0 -216 80 t-83 231.5t83 231.5t216 80t216 -80t83 -231.5t-83 -231.5t-216 -80zM1051 25q86 0 132 69.5t46 194.5t-46 194.5t-132 69.5t-132.5 -69.5t-46.5 -194.5t46.5 -194.5t132.5 -69.5z" glyph-name="percent" horiz-adv-x="1404" unicode="%"/><glyph d="M1692 287l20 -4q-14 -106 -93 -196.5t-220 -90.5q-186 0 -381 125q-219 -145 -496 -146q-225 0 -345 96.5t-120 258.5q0 166 115 274.5t305 163.5q-84 190 -84 344q0 156 108.5 253t297.5 97q164 0 260 -76.5t96 -201.5q0 -92 -48 -167t-138 -126t-167 -82t-188 -61 q78 -152 193 -291.5t246 -231.5q170 135 258 328q39 86 -10.5 133t-151.5 59v21h475v-21q-96 -18 -145 -57t-95 -131q-111 -227 -276 -369q172 -109 328 -108q199 0 256 207zM799 1395q-133 0 -210 -69t-77 -210q0 -145 80 -321q444 137 448 389q2 109 -64 160t-177 51z M541 45q227 0 420 115q-289 209 -461 559q-311 -121 -312 -383q0 -131 96.5 -211t256.5 -80z" glyph-name="ampersand" horiz-adv-x="1738" unicode="&amp;"/><glyph d="M209 1540q94 0 65 -176l-49 -313h-26l-49 313q-29 176 59 176z" glyph-name="quotesingle" horiz-adv-x="423" unicode="'"/><glyph d="M295 721q0 348 159.5 588.5t403.5 335.5l8 -25q-186 -72 -315 -331t-129 -568t129 -567t315 -332l-8 -25q-244 94 -403.5 335t-159.5 589z" glyph-name="parenleft" horiz-adv-x="1058" unicode="("/><glyph d="M764 721q0 -348 -160 -589t-403 -335l-8 25q186 74 315 332t129 567t-129 568t-315 331l8 25q244 -94 403.5 -335t159.5 -589z" glyph-name="parenright" horiz-adv-x="1058" unicode=")"/><glyph d="M547 1102q72 -35 43 -74q-29 -41 -84 10l-133 119l24 -174q10 -76 -39 -76q-47 0 -36 76l24 174l-133 -119q-55 -51 -84 -10q-29 39 43 74l166 80l-168 82q-70 33 -41 73q27 39 84 -12l135 -119l-26 180q-10 76 36 76q49 0 39 -76l-26 -180l135 119q57 51 84 12 q29 -41 -41 -73l-168 -82z" glyph-name="asterisk" horiz-adv-x="718" unicode="*"/><glyph d="M944 748v-66h-364v-369h-70v369h-365v66h365v364h70v-364h364z" glyph-name="plus" horiz-adv-x="1089" unicode="+"/><glyph d="M225 162q104 0 105 -160q0 -139 -80 -238.5t-217 -128.5l-13 27q119 43 173.5 117t58.5 201q-12 -4 -27 -5q-43 0 -68.5 27t-25.5 68q0 39 25.5 65.5t68.5 26.5z" glyph-name="comma" horiz-adv-x="450" unicode=","/><glyph d="M139 621h787v-68h-787v68z" glyph-name="hyphen" horiz-adv-x="1064" unicode="-"/><glyph d="M225 -25q-39 0 -66.5 28t-27.5 67t27.5 65.5t66.5 26.5t66.5 -26.5t27.5 -65.5t-27.5 -67t-66.5 -28z" glyph-name="period" horiz-adv-x="450" unicode="."/><glyph d="M1042 1651h84l-989 -1874h-84z" glyph-name="slash" horiz-adv-x="1179" unicode="/"/><glyph d="M739 -25q-260 0 -431 196t-171 540q0 346 172 548.5t430 202.5t430 -202.5t172 -548.5q0 -344 -171 -540t-431 -196zM739 45q215 0 333 167t118 499q0 326 -120 504t-331 178t-330.5 -178.5t-119.5 -503.5q0 -332 117.5 -499t332.5 -167z" glyph-name="zero" horiz-adv-x="1478" unicode="0"/><glyph d="M469 1446v-1301q0 -59 38 -82.5t159 -42.5v-20h-533v20q121 18 159 42t38 83l-4 1180h-193v23l168 34q106 23 148 64h20z" glyph-name="one" horiz-adv-x="792" unicode="1"/><glyph d="M1087 498h25v-498h-985v59q326 195 531.5 452t205.5 531q0 178 -86 264.5t-223 86.5q-139 0 -233 -58q4 -117 -30 -205t-112 -94q-47 -2 -68.5 24.5t-21.5 65.5q0 109 133 222.5t346 113.5q209 0 328 -108.5t119 -309.5q0 -467 -707 -946h453q156 0 213 74t112 326z" glyph-name="two" horiz-adv-x="1275" unicode="2"/><glyph d="M668 729q217 -18 334.5 -113.5t117.5 -248.5q0 -188 -141 -290t-381 -102q-201 0 -347.5 82t-146.5 207q0 41 24 64.5t54 23.5q43 0 91.5 -70.5t78.5 -185.5q98 -51 219 -51q201 0 302.5 88t101.5 234q0 164 -115 242.5t-385 78.5h-131v74h131q236 0 351.5 97t115.5 255 q0 131 -80 204t-217 73q-188 0 -291 -70q-6 -127 -45 -200.5t-94 -73.5q-35 0 -55.5 24.5t-20.5 67.5q0 125 149.5 224t368.5 99q82 0 154 -16t136.5 -52t101 -104.5t36.5 -165.5q0 -150 -106 -254t-311 -141z" glyph-name="three" horiz-adv-x="1288" unicode="3"/><glyph d="M1200 328h-227v-183q0 -59 33.5 -82.5t142.5 -42.5v-20h-481v20q109 18 142.5 42t33.5 83v183h-805v53l784 1057h150v-1039h227v-71zM143 399h701v940z" glyph-name="four" horiz-adv-x="1253" unicode="4"/><glyph d="M627 842q182 0 307 -98.5t125 -307.5q0 -219 -147.5 -340t-385.5 -121q-166 0 -302 85t-136 212q0 37 20.5 58.5t53.5 21.5q51 0 99 -72.5t77 -193.5q78 -41 186 -41q172 0 277.5 109.5t105.5 281.5q0 170 -82 253t-211 83q-143 0 -239 -46t-133 -110l-64 13v809h703 q41 0 59 12t37 49h24v-192h-741v-590q140 125 367 125z" glyph-name="five" horiz-adv-x="1210" unicode="5"/><glyph d="M760 813q176 0 293.5 -94t117.5 -297q0 -197 -138 -322t-351 -125q-268 0 -406.5 190.5t-138.5 543.5q0 317 168 535t449 218q174 0 285.5 -77.5t111.5 -176.5q0 -31 -20.5 -51t-53.5 -20q-139 0 -209 247q-31 6 -104 11q-221 8 -348 -184.5t-127 -508.5q0 -117 8 -192 q55 131 175 217t288 86zM682 45q156 0 250 102.5t94 274.5q0 158 -77 240.5t-212 82.5q-139 0 -253.5 -86t-174.5 -237q35 -199 128 -288t245 -89z" glyph-name="six" horiz-adv-x="1314" unicode="6"/><glyph d="M129 1438h825v-45l-532 -1393h-158l600 1327h-844v172h23q10 -39 27.5 -50t58.5 -11z" glyph-name="seven" horiz-adv-x="1024" unicode="7"/><glyph d="M774 797q207 -86 302 -187.5t95 -265.5q0 -182 -146 -275.5t-386 -93.5q-262 0 -382 97.5t-120 251.5q0 150 110.5 256t305.5 159q-346 152 -346 398q0 150 129 237.5t338 87.5q203 0 318.5 -86t113.5 -223q-2 -125 -91 -217t-241 -139zM326 1149q0 -94 81.5 -169 t286.5 -151l15 -6q147 66 207.5 148t60.5 188q0 111 -80 172.5t-223 61.5q-152 0 -250 -62.5t-98 -181.5zM639 45q182 0 298 79t116 220q0 121 -92.5 202t-313.5 159q-12 4 -22 8q-358 -127 -359 -385q0 -123 93.5 -203t279.5 -80z" glyph-name="eight" horiz-adv-x="1308" unicode="8"/><glyph d="M586 1462q254 0 413.5 -191.5t159.5 -533.5q0 -350 -160.5 -556t-445.5 -206q-180 0 -317.5 84t-137.5 215q0 35 19.5 54.5t50.5 19.5q53 0 101 -67.5t77 -186.5q92 -49 207 -49q233 0 344 169t111 523q0 47 -4 125q-70 -117 -193 -195.5t-283 -78.5q-190 0 -320 101.5 t-130 316.5q0 203 143.5 329.5t364.5 126.5zM557 657q139 0 259 86t175 222q-37 223 -145.5 325.5t-259.5 102.5q-172 0 -273.5 -102.5t-101.5 -278.5q0 -172 92 -263.5t254 -91.5z" glyph-name="nine" horiz-adv-x="1296" unicode="9"/><glyph d="M250 662q-39 0 -66.5 27.5t-27.5 66.5t27.5 65.5t66.5 26.5t66.5 -26.5t27.5 -65.5t-27.5 -66.5t-66.5 -27.5zM250 -25q-39 0 -66.5 28t-27.5 67t27.5 65.5t66.5 26.5t66.5 -26.5t27.5 -65.5t-27.5 -67t-66.5 -28z" glyph-name="colon" horiz-adv-x="499" unicode=":"/><glyph d="M280.5 682q-38.5 0 -66.5 27.5t-28 66.5t28 65.5t66.5 26.5t66.5 -26.5t28 -65.5t-28 -66.5t-66.5 -27.5zM287 162q104 0 104 -160q0 -139 -80 -238.5t-217 -128.5l-12 27q119 43 173 117t58 201q-12 -4 -26 -5q-43 0 -68.5 27t-25.5 68q0 39 25.5 65.5t68.5 26.5z" glyph-name="semicolon" horiz-adv-x="532" unicode=";"/><glyph d="M1063 1022l-746 -332l744 -332l-25 -65l-833 371v53l833 370z" glyph-name="less" horiz-adv-x="1220" unicode="&lt;"/><glyph d="M145 877v65h842v-65h-842zM145 459v65h842v-65h-842z" glyph-name="equal" horiz-adv-x="1132" unicode="="/><glyph d="M164 1087l833 -370v-53l-833 -371l-25 65l744 332l-746 332z" glyph-name="greater" horiz-adv-x="1146" unicode=">"/><glyph d="M632.5 1462q196.5 0 306.5 -90t110 -252q0 -104 -41 -189t-118 -148.5t-158 -106.5t-189 -86v-225h-78v251q438 201 438 504q0 139 -80 207t-215 68q-154 0 -274 -78q12 -272 -125 -273q-63 0 -64 82q0 131 145.5 233.5t342 102.5zM504 162q39 0 66.5 -26.5t27.5 -65.5 t-27.5 -67t-66.5 -28t-66.5 28t-27.5 67t27.5 65.5t66.5 26.5z" glyph-name="question" horiz-adv-x="1228" unicode="?"/><glyph d="M1036 1409q362 0 586.5 -221t224.5 -551q0 -240 -100 -357.5t-242 -117.5q-119 0 -189.5 65.5t-84.5 153.5q-37 -98 -116 -148.5t-169 -50.5q-156 0 -251 112t-95 288q0 178 97.5 290.5t260.5 112.5q184 0 265 -164l84 154h26v-492q0 -127 50.5 -190.5t132.5 -63.5 q244 0 243 400q0 141 -44 266t-129 226.5t-227 160.5t-323 59q-348 0 -559 -211.5t-211 -558.5q0 -180 60.5 -318t164 -219t231.5 -122t273 -41q270 0 453 129l16 -18q-84 -86 -217 -132.5t-274 -46.5q-375 0 -585 216.5t-210 551.5q0 360 230.5 599t627.5 239zM975 254 q90 0 153.5 63.5t85.5 167.5v201q-41 231 -239 232q-117 0 -183.5 -89.5t-66.5 -246.5q0 -328 250 -328z" glyph-name="at" horiz-adv-x="2009" unicode="@"/><glyph d="M1391 238q51 -125 90 -162t135 -56v-20h-610v20q184 20 236 59.5t3 158.5l-117 278h-702l-117 -278q-43 -102 11.5 -150.5t228.5 -67.5v-20h-541v20q90 18 135 63.5t90 154.5l500 1200h158zM451 575h653l-326 785z" glyph-name="A" horiz-adv-x="1624" unicode="A"/><glyph d="M1061 750q414 -39 414 -342q0 -408 -605 -408h-725v20q145 18 189.5 42t44.5 83v1147q0 59 -44 83t-190 42v21h779q244 0 356.5 -83t112.5 -251q0 -125 -83 -222t-249 -132zM905 1372h-395v-594h403q178 0 260 98.5t82 227.5q0 121 -75.5 194.5t-274.5 73.5zM872 63 q135 0 231.5 31t144.5 84t68.5 109.5t20.5 120.5q0 125 -96 214t-328 89h-403v-648h362z" glyph-name="B" horiz-adv-x="1605" unicode="B"/><glyph d="M805 -25q-291 0 -482.5 212t-191.5 536q0 328 206 533.5t501 205.5q147 0 342 -92q80 -39 114.5 -26.5t73.5 94.5h21v-600h-25q-45 555 -518 555q-264 0 -414.5 -191.5t-150.5 -478.5q0 -281 147 -473.5t397 -192.5q227 0 382 114t214 280l33 -11q-41 -178 -222 -321.5 t-427 -143.5z" glyph-name="C" horiz-adv-x="1552" unicode="C"/><glyph d="M825 1438q393 0 623.5 -183.5t230.5 -533.5t-230 -535.5t-624 -185.5h-680v20q145 18 189.5 42t44.5 83v1147q0 59 -44 83t-190 42v21h680zM825 66q344 0 523.5 173t179.5 482q0 307 -179.5 479t-523.5 172h-307v-1306h307z" glyph-name="D" horiz-adv-x="1810" unicode="D"/><glyph d="M1407 475h25l-41 -475h-1246v20q145 18 189.5 42t44.5 83v1147q0 59 -44 83t-190 42v21h1217v-477h-25q-27 246 -102.5 328.5t-265.5 82.5h-451v-594h289q139 0 193.5 66.5t72.5 263.5h25v-729h-25q-18 199 -72.5 265.5t-193.5 66.5h-289v-648h479q190 0 279.5 89.5 t130.5 322.5z" glyph-name="E" horiz-adv-x="1550" unicode="E"/><glyph d="M1362 1438v-518h-25q-27 270 -102.5 361t-265.5 91h-451v-594h289q139 0 193.5 66.5t72.5 263.5h25v-729h-25q-18 199 -72.5 265.5t-193.5 66.5h-289v-545q0 -74 67.5 -100.5t288.5 -45.5v-20h-729v20q145 18 189.5 42t44.5 83v1147q0 59 -44 83t-190 42v21h1217z" glyph-name="F" horiz-adv-x="1421" unicode="F"/><glyph d="M1640 729v-20q-119 -16 -154.5 -40t-35.5 -85v-584h-23q-31 84 -49 109.5t-53 25.5q-31 0 -105.5 -40t-184 -80t-228.5 -40q-291 0 -483.5 212t-192.5 536q0 328 206 533.5t503 205.5q143 0 356 -86q68 -31 104.5 -21.5t67.5 83.5h23v-518h-25q-72 473 -518 473 q-264 0 -414.5 -191.5t-150.5 -478.5q0 -281 147.5 -473.5t396.5 -192.5q264 0 492 183v344q0 59 -52.5 82.5t-222.5 42.5v20h596z" glyph-name="G" horiz-adv-x="1722" unicode="G"/><glyph d="M1796 1417q-145 -16 -188 -39.5t-43 -85.5v-1147q0 -61 43 -83.5t188 -41.5v-20h-604v20q145 18 189 42t44 83v596h-907v-596q0 -61 44 -83.5t188 -41.5v-20h-605v20q145 18 189.5 42t44.5 83v1147q0 59 -44 83t-190 42v21h605v-21q-143 -18 -187.5 -40.5t-44.5 -84.5 v-485h907v485q0 59 -44 83t-189 42v21h604v-21z" glyph-name="H" horiz-adv-x="1941" unicode="H"/><glyph d="M750 1417q-145 -16 -188.5 -39.5t-43.5 -85.5v-1147q0 -61 43 -83.5t189 -41.5v-20h-605v20q145 18 189.5 42t44.5 83v1147q0 59 -44 83t-190 42v21h605v-21z" glyph-name="I" horiz-adv-x="894" unicode="I"/><glyph d="M510 1438h625v-21q-133 -16 -172 -42.5t-39 -102.5v-686q0 -313 -147.5 -462t-389.5 -149q-190 0 -291.5 89.5t-101.5 177.5q0 45 27.5 74.5t70.5 29.5q72 0 122 -82t67 -213q53 -8 90 -8q82 0 150.5 22.5t131 76t97 156.5t34.5 249v725q0 76 -51 101.5t-223 43.5v21z " glyph-name="J" horiz-adv-x="1222" unicode="J"/><glyph d="M1450 199q57 -78 113.5 -120t160.5 -59v-20h-612v20q76 10 121 22.5t68.5 33t18.5 50.5t-38 73l-457 622l-307 -268v-408q0 -61 44 -83.5t188 -41.5v-20h-605v20q145 18 189.5 42t44.5 83v1147q0 59 -44 83t-190 42v21h605v-21q-143 -18 -187.5 -40.5t-44.5 -84.5v-653 l666 590q90 78 69.5 124t-153.5 64v21h575v-21q-113 -16 -198.5 -59t-180.5 -125l-368 -324z" glyph-name="K" horiz-adv-x="1785" unicode="K"/><glyph d="M1364 516h27l-41 -516h-1205v20q145 18 189.5 42t44.5 83v1147q0 59 -44 83t-190 42v21h707v-21q-211 -16 -272.5 -42.5t-61.5 -102.5v-1209h438q182 0 265.5 98.5t142.5 354.5z" glyph-name="L" horiz-adv-x="1447" unicode="L"/><glyph d="M2316 1417q-145 -18 -189 -41.5t-44 -83.5v-1075q0 -96 58.5 -135t174.5 -62v-20h-604v20q145 18 188.5 54.5t43.5 142.5v1133l-713 -1223h-72l-721 1186v-1073q0 -57 20.5 -98.5t62.5 -64t83 -34.5t107 -23v-20h-586v20q117 23 175 66t58 154v1052q0 59 -44 83t-189 42 v21h391l711 -1166l676 1166h413v-21z" glyph-name="M" horiz-adv-x="2461" unicode="M"/><glyph d="M1208 1438h584v-21q-117 -23 -175 -65.5t-58 -153.5v-1198h-142l-981 1321v-1081q0 -57 20.5 -98.5t62.5 -64t83 -34.5t107 -23v-20h-584v20q117 23 175 66t58 154v1052q0 59 -44 83t-189 42v21h391l965 -1297v1057q0 57 -20.5 98t-62.5 63.5t-83 35t-107 22.5v21z" glyph-name="N" horiz-adv-x="1894" unicode="N"/><glyph d="M862 -25q-305 0 -518 202t-213 544t213 541.5t518 199.5t518 -199.5t213 -541.5t-213 -544t-518 -202zM862 45q258 0 419 189.5t161 486.5t-161 484.5t-419 187.5t-418.5 -187.5t-160.5 -484.5t160.5 -486.5t418.5 -189.5z" glyph-name="O" horiz-adv-x="1724" unicode="O"/><glyph d="M870 1438q522 0 523 -406q0 -207 -131.5 -316.5t-391.5 -109.5h-360v-440q0 -74 55.5 -100.5t239.5 -45.5v-20h-660v20q145 18 189.5 42t44.5 83v1147q0 59 -44 83t-190 42v21h725zM852 672q215 0 309 103.5t94 256.5q0 150 -93 245t-310 95h-342v-700h342z" glyph-name="P" horiz-adv-x="1427" unicode="P"/><glyph d="M1165 -293q203 0 308 164l28 -12q-135 -262 -356 -262q-131 0 -324.5 88t-300.5 88q-98 0 -190 -33l-21 39l363 219q-238 57 -389.5 247.5t-151.5 475.5q0 342 213 541.5t518 199.5t518 -199.5t213 -541.5t-213 -544t-518 -202q-51 0 -104 7l-226 -138q125 14 336 -61.5 t297 -75.5zM283 721q0 -297 160.5 -486.5t418.5 -189.5t419 189.5t161 486.5t-161 484.5t-419 187.5t-418.5 -187.5t-160.5 -484.5z" glyph-name="Q" horiz-adv-x="1724" unicode="Q"/><glyph d="M1567 223l22 -10q-61 -238 -246 -238q-104 0 -165.5 77t-98.5 278q-16 90 -45.5 159.5t-71.5 109.5t-80 65.5t-91.5 35t-86 12.5t-81.5 3h-113v-549q0 -76 44 -101.5t189 -44.5v-20h-598v20q145 18 189.5 42t44.5 83v1147q0 59 -44 83t-190 42v21h725q461 0 461 -348 q0 -166 -132 -260.5t-376 -102.5q141 -20 241.5 -95t139.5 -249q45 -201 78 -266.5t100 -65.5q109 0 185 172zM510 774h278q201 0 303.5 94.5t102.5 221.5q0 283 -342 282h-342v-598z" glyph-name="R" horiz-adv-x="1589" unicode="R"/><glyph d="M1100 336q-2 137 -108.5 211t-346.5 127q-111 25 -188.5 55.5t-147 79.5t-104.5 124t-35 177q0 156 116.5 254t299.5 98q184 0 360 -92q84 -43 118 -30.5t58 98.5h19v-559h-25q-45 514 -516 514q-156 0 -236.5 -75t-80.5 -194q0 -139 95 -208.5t304 -116.5 q266 -61 398 -156.5t132 -282.5q0 -178 -133 -281.5t-327 -103.5q-90 0 -168 17.5t-110 32t-103 49.5q-86 37 -112 22.5t-62 -96.5h-19v559h25q43 -514 504 -514q186 0 290.5 79t102.5 212z" glyph-name="S" horiz-adv-x="1343" unicode="S"/><glyph d="M1282 1438v-477h-25q-16 176 -55 264t-99.5 117.5t-172.5 29.5h-191v-1227q0 -59 52.5 -82.5t222.5 -42.5v-20h-688v20q170 18 222 42t52 83v1227h-190q-113 0 -173.5 -29.5t-99.5 -117.5t-55 -264h-25v477h1225z" glyph-name="T" horiz-adv-x="1339" unicode="T"/><glyph d="M301 659v633q0 59 -41 83t-172 42v21h584v-21q-143 -18 -187.5 -40.5t-44.5 -84.5v-633q0 -311 107.5 -462.5t335 -151.5t334 150.5t106.5 463.5v633q0 59 -44 83t-189 42v21h583v-21q-133 -16 -172 -39.5t-39 -85.5v-633q0 -344 -154.5 -514t-424.5 -170 q-272 0 -427 170t-155 514z" glyph-name="U" horiz-adv-x="1761" unicode="U"/><glyph d="M1096 1438h540v-21q-90 -18 -135 -63t-90 -154l-500 -1200h-157l-500 1200q-51 125 -90 162t-135 55v21h610v-21q-184 -20 -236.5 -59t-3.5 -158l469 -1124l467 1124q43 102 -11 150.5t-228 66.5v21z" glyph-name="V" horiz-adv-x="1665" unicode="V"/><glyph d="M2077 1438h540v-21q-90 -18 -135 -63t-90 -154l-500 -1200h-157l-412 1243l-412 -1243h-157l-500 1200q-51 125 -90 162t-135 55v21h610v-21q-184 -20 -236.5 -59t-3.5 -158l467 -1120l367 1120q35 106 -16.5 152.5t-223.5 64.5v21h709v-21q-168 -20 -213 -57t-6 -160 l366 -1120l467 1120q43 102 -11 150.5t-228 66.5v21z" glyph-name="W" horiz-adv-x="2646" unicode="W"/><glyph d="M1223 238q88 -115 142 -157t144 -61v-20h-620v20q119 12 173 35t59 68t-54 115l-352 456l-346 -477q-68 -88 -27 -133t211 -64v-20h-541v20q90 16 143.5 59.5t123.5 137.5l387 531l-353 452q-88 115 -142 157t-146 60v21h622v-21q-178 -18 -218 -62t40 -155l326 -418 l348 439q129 164 -185 196v21h541v-21q-88 -16 -139 -58t-127 -138l-389 -492z" glyph-name="X" horiz-adv-x="1521" unicode="X"/><glyph d="M977 1438h512v-21q-84 -18 -140.5 -64t-138.5 -157l-385 -512v-539q0 -61 43 -83.5t189 -41.5v-20h-604v20q145 18 189 42t44 83v533l-375 522q-82 113 -138 156t-150 61v21h602v-21q-154 -18 -190 -68.5t32 -148.5l321 -459l338 455q74 102 39 152.5t-188 68.5v21z" glyph-name="Y" horiz-adv-x="1511" unicode="Y"/><glyph d="M145 0v59l877 1313h-545q-123 0 -187.5 -30.5t-103.5 -123t-57 -278.5h-25v498h1086v-45l-885 -1327h574q123 0 187 30.5t103 122.5t58 279h24v-498h-1106z" glyph-name="Z" horiz-adv-x="1380" unicode="Z"/><glyph d="M412 -129h280v-68h-401v1829h401v-67h-280v-1694z" glyph-name="bracketleft" horiz-adv-x="860" unicode="["/><glyph d="M137 1651l989 -1874h-84l-989 1874h84z" glyph-name="backslash" horiz-adv-x="1179" unicode="\"/><glyph d="M449 -129v1694h-281v67h401v-1829h-401v68h281z" glyph-name="bracketright" horiz-adv-x="860" unicode="]"/><glyph glyph-name="asciicircum" horiz-adv-x="1228" unicode="^"/><glyph d="M129 -109h891v-65h-891v65z" glyph-name="underscore" horiz-adv-x="1148" unicode="_"/><glyph d="M1124 139l25 -14q-20 -63 -70.5 -102t-115.5 -39q-100 0 -136 64.5t-32 184.5q-66 -117 -179.5 -188.5t-236.5 -71.5q-131 0 -189.5 65.5t-58.5 166.5q0 289 664 391v18q0 178 -61.5 246t-194.5 68q-143 0 -242 -64q39 -106 17.5 -166.5t-87.5 -60.5q-76 0 -75 88 q0 119 131 194.5t276 75.5q170 0 265.5 -76.5t95.5 -279.5v-483q0 -111 75 -111q74 0 129 94zM410 57q102 0 206.5 69t178.5 196v225q-297 -61 -413 -145.5t-116 -190.5q1 -154 144 -154z" glyph-name="a" horiz-adv-x="1165" unicode="a"/><glyph d="M694 997q186 0 322.5 -137t136.5 -374.5t-142.5 -373t-340.5 -135.5q-219 0 -336 175l-80 -152h-37v1327q0 55 -29.5 73.5t-148.5 35.5v20l303 82v-713q131 172 352 172zM670 45q158 0 250 120t92 320.5t-86 322.5t-238 122q-238 0 -346 -201v-485q92 -199 328 -199z" glyph-name="b" horiz-adv-x="1263" unicode="b"/><glyph d="M954 193l39 -35q-145 -182 -395 -183q-221 0 -354 137.5t-133 376.5q0 233 141 369.5t350 136.5q166 0 277.5 -83t111.5 -191q0 -35 -19.5 -58.5t-56.5 -23.5q-141 0 -133 262q-72 29 -180 29q-166 0 -258 -121t-92 -320q0 -205 89 -324.5t275 -119.5q229 1 338 148z" glyph-name="c" horiz-adv-x="1101" unicode="c"/><glyph d="M1059 145q0 -61 35.5 -83.5t154.5 -41.5v-20h-315v139q-129 -164 -330 -164q-199 0 -341 140.5t-142 380.5q0 238 143.5 368.5t347.5 130.5q203 0 320 -161v479q0 63 -29 82.5t-147 36.5v20l303 82v-1389zM604 43q223 0 328 201v485q-92 199 -320 199q-166 0 -258 -116 t-92 -316q0 -203 91 -328t251 -125z" glyph-name="d" horiz-adv-x="1310" unicode="d"/><glyph d="M578 995q193 0 318.5 -130t119.5 -392h-764q4 -199 93 -313.5t269 -114.5q233 0 342 141l39 -34q-145 -176 -399 -177q-213 0 -349 138.5t-136 382.5q0 238 135 368.5t332 130.5zM578 928q-145 0 -230.5 -104.5t-95.5 -286.5h620q-4 184 -80.5 287.5t-213.5 103.5z" glyph-name="e" horiz-adv-x="1114" unicode="e"/><glyph d="M600 1540q137 0 237.5 -64.5t100.5 -150.5q0 -35 -19.5 -54.5t-50.5 -19.5q-59 0 -93 61.5t-27 143.5q-55 18 -144 19q-195 0 -194 -252v-252h305v-62h-305v-764q0 -61 44 -83.5t191 -41.5v-20h-553v20q119 18 156 42t37 83v764h-215v62h215v213q0 356 315 356z" glyph-name="f" horiz-adv-x="776" unicode="f"/><glyph d="M555 135q246 -16 355.5 -75.5t109.5 -184.5q0 -272 -506 -272q-481 0 -481 223q0 92 92 151.5t244 75.5q-180 43 -180.5 153.5t178.5 145.5q-100 33 -164 109t-64 201q0 90 36 158.5t95.5 104.5t122 53t125.5 17q78 0 146 -22q106 145 247 145q53 0 87 -22.5t38 -61.5 q4 -35 -14 -58.5t-51 -27.5q-80 -8 -156 86q-57 -29 -106 -78q188 -82 188 -294q0 -88 -35 -156t-92 -104.5t-118.5 -55t-125.5 -18.5q-117 0 -180 -26t-63 -69q0 -78 272 -98zM254 662q0 -133 73.5 -201t190.5 -68t190.5 67.5t73.5 201.5q0 135 -73.5 202.5t-190.5 67.5 t-190.5 -67.5t-73.5 -202.5zM514 -332q102 0 186 17.5t143.5 63.5t59.5 114q0 80 -76.5 112.5t-283.5 51.5q-12 0 -33 4q-342 -33 -342 -205q0 -158 346 -158z" glyph-name="g" horiz-adv-x="1058" unicode="g"/><glyph d="M1100 145q0 -61 35.5 -83.5t154.5 -41.5v-20h-508v20q119 18 155 41t36 84v471q0 301 -228 302q-260 0 -362 -320v-453q0 -61 36 -83.5t154 -41.5v-20h-507v20q119 18 155.5 42t36.5 83v1160q0 55 -29.5 72.5t-148.5 35.5v21l303 82v-826q53 152 153.5 228.5t225.5 76.5 q338 0 338 -354v-496z" glyph-name="h" horiz-adv-x="1353" unicode="h"/><glyph d="M362.5 1268q-38.5 0 -66.5 27.5t-28 66.5t28 65.5t66.5 26.5t66.5 -26.5t28 -65.5t-28 -66.5t-66.5 -27.5zM438 145q0 -61 36 -83.5t155 -41.5v-20h-508v20q119 18 155.5 42t36.5 83v629q0 55 -29.5 72.5t-148.5 36.5v20l303 82v-840z" glyph-name="i" horiz-adv-x="718" unicode="i"/><glyph d="M317.5 1268q-38.5 0 -66.5 27.5t-28 66.5t28 65.5t66.5 26.5t66.5 -26.5t28 -65.5t-28 -66.5t-66.5 -27.5zM90 883v20l303 82v-881q0 -254 -102.5 -377.5t-263.5 -123.5q-68 0 -108 28.5t-40 71.5q0 31 20.5 51.5t53.5 20.5q82 0 174 -111q141 86 141 381v729 q0 55 -29.5 73t-148.5 36z" glyph-name="j" horiz-adv-x="602" unicode="j"/><glyph d="M993 201q57 -92 103.5 -125t142.5 -56v-20h-498v20q123 20 147.5 55.5t-32.5 131.5l-229 354l-244 -194v-222q0 -61 36 -83.5t154 -41.5v-20h-507v20q119 18 155.5 42t36.5 83v1182q0 55 -29.5 73.5t-148.5 35.5v20l303 82v-1092l469 371q63 55 39.5 85t-133.5 48v21h459 v-21q-147 -37 -291 -151l-203 -162z" glyph-name="k" horiz-adv-x="1267" unicode="k"/><glyph d="M383 145q0 -61 36 -83.5t154 -41.5v-20h-507v20q119 18 155.5 42t36.5 83v1182q0 55 -29.5 73.5t-148.5 35.5v20l303 82v-1393z" glyph-name="l" horiz-adv-x="651" unicode="l"/><glyph d="M1858 145q0 -61 35.5 -83.5t154.5 -41.5v-20h-508v20q119 18 155 41t36 84v471q0 303 -220 304q-248 0 -356 -281v-494q0 -61 36 -83.5t155 -41.5v-20h-508v20q119 18 154.5 41t35.5 84v471q0 303 -219 304q-266 0 -371 -322v-453q0 -61 36 -83.5t155 -41.5v-20h-508v20 q119 18 155.5 42t36.5 83v629q0 55 -29.5 72.5t-148.5 36.5v20l303 82v-291q55 152 156.5 227.5t230.5 75.5q123 0 214 -62.5t112 -217.5q113 281 377 280q139 0 234.5 -79.5t95.5 -276.5v-496z" glyph-name="m" horiz-adv-x="2111" unicode="m"/><glyph d="M1155 145q0 -61 36 -83.5t155 -41.5v-20h-508v20q119 18 154.5 41t35.5 84v463q0 172 -58.5 241t-160.5 69q-117 0 -215 -81t-156 -245v-447q0 -61 36 -83.5t155 -41.5v-20h-508v20q119 18 155.5 42t36.5 83v629q0 55 -30.5 72.5t-155.5 36.5v20l311 82v-276 q59 135 157.5 210.5t229.5 75.5q139 0 234.5 -82t95.5 -280v-488z" glyph-name="n" horiz-adv-x="1409" unicode="n"/><glyph d="M614 -25q-215 0 -359 132.5t-144 376t144 377.5t359 134t359.5 -134t144.5 -377.5t-144.5 -376t-359.5 -132.5zM614 43q174 0 268.5 118t94.5 322q0 209 -94.5 327t-268.5 118t-268 -118t-94 -327q0 -205 94 -322.5t268 -117.5z" glyph-name="o" horiz-adv-x="1228" unicode="o"/><glyph d="M690 997q186 0 322.5 -137t136.5 -374.5t-142.5 -373t-340.5 -135.5q-209 0 -328 162v-366q0 -61 44 -84t187 -41v-21h-549v21q119 18 156 41.5t37 83.5v1001q0 55 -29.5 73.5t-148.5 35.5v20l303 82v-160q131 172 352 172zM666 45q158 0 250 120t92 320.5t-86 322.5 t-238 122q-238 0 -346 -201v-485q92 -199 328 -199z" glyph-name="p" horiz-adv-x="1259" unicode="p"/><glyph d="M1047 -227q0 -61 35.5 -84t154.5 -41v-21h-549v21q143 18 187.5 40.5t44.5 84.5v364q-127 -162 -326 -162t-342 140.5t-143 380.5q0 238 144 368.5t355 130.5q217 0 334 -196l78 172h27v-1198zM594 43q221 0 326 201v485q-92 199 -312 199q-170 0 -264 -116t-94 -316 q0 -203 92 -328t252 -125z" glyph-name="q" horiz-adv-x="1253" unicode="q"/><glyph d="M756 995q70 0 105.5 -29.5t35.5 -74.5q0 -41 -21.5 -63.5t-56.5 -22.5q-76 0 -137 106q-74 -27 -139.5 -119t-104.5 -247v-400q0 -61 47 -83.5t201 -41.5v-20h-565v20q119 18 155.5 42t36.5 83v629q0 55 -29.5 72.5t-154.5 36.5v20l309 82v-287q47 143 131.5 220 t186.5 77z" glyph-name="r" horiz-adv-x="901" unicode="r"/><glyph d="M498 561q199 -47 276.5 -121.5t77.5 -197.5q0 -135 -96.5 -201t-237.5 -66q-207 0 -321 127l-47 -102h-37v395h45q8 -160 93 -256t255 -96q96 0 165.5 46t69.5 134q0 82 -62.5 131t-227.5 88q-174 41 -251 117t-77 193q0 106 81 174.5t234 68.5q188 0 305 -116l35 92h37 v-375h-45q-16 182 -94 257t-238 75q-100 0 -152.5 -43t-52.5 -119q0 -74 57.5 -122t207.5 -83z" glyph-name="s" horiz-adv-x="989" unicode="s"/><glyph d="M805 195l29 -25q-125 -195 -334 -195q-145 0 -204.5 78t-59.5 238v618h-166v62h166l86 264h38v-264h396v-62h-396v-657q0 -205 168 -205q154 1 277 148z" glyph-name="t" horiz-adv-x="849" unicode="t"/><glyph d="M1098 145q0 -61 35.5 -83.5t154.5 -41.5v-20h-315v246q-57 -135 -155.5 -203t-219.5 -68q-340 0 -340 365v485q0 61 -36 84t-154 41v21h317v-606q0 -311 221 -312q258 0 367 287v485q0 61 -39 84t-168 41v21h332v-826z" glyph-name="u" horiz-adv-x="1380" unicode="u"/><glyph d="M791 971h446v-21q-84 -20 -123 -51t-84 -129l-348 -770h-131l-348 770q-43 96 -83 128t-124 52v21h487v-21q-49 -8 -76.5 -15t-54 -20.5t-35 -33t-6.5 -48t21 -69.5l307 -692l313 716q33 74 -7 108t-154 54v21z" glyph-name="v" horiz-adv-x="1232" unicode="v"/><glyph d="M1493 971h426v-21q-45 -12 -63.5 -19t-45 -25.5t-44 -50.5t-37.5 -85l-308 -770h-131l-334 823l-331 -823h-131l-308 770q-35 96 -72.5 128t-117.5 52v21h471v-21q-119 -20 -155 -54t3 -132l265 -680l352 887h90l354 -887l273 704q29 74 -9 108t-147 54v21z" glyph-name="w" horiz-adv-x="1914" unicode="w"/><glyph d="M899 201q68 -82 123 -122t129 -59v-20h-514v20q145 33 165.5 66t-50.5 121l-201 242l-260 -297q-20 -29 -22.5 -53.5t41.5 -46t130 -32.5v-20h-424v20q61 16 106.5 54.5t133.5 138.5l252 287l4 -2l-225 272q-121 150 -252 180v21h514v-21q-145 -27 -167 -62.5t52 -123.5 l191 -229l211 241q41 47 51 78t-13.5 49.5t-54.5 27.5t-94 19v21h405v-21q-49 -16 -96 -59t-125 -133l-241 -277z" glyph-name="x" horiz-adv-x="1167" unicode="x"/><glyph d="M797 971h440v-21q-84 -20 -123 -51t-84 -129l-287 -639q-229 -528 -524 -528q-76 0 -131 29.5t-55 91.5q0 33 20.5 55t55.5 22q106 0 182 -131q147 37 287 277l-375 823q-45 100 -83 130t-124 50v21h487v-21q-115 -20 -154.5 -54t-6.5 -108l319 -716q4 8 7 16t8.5 18.5 t7.5 16.5l274 620q25 55 27 91t-20.5 58.5t-56.5 35t-91 22.5v21z" glyph-name="y" horiz-adv-x="1232" unicode="y"/><glyph d="M291 61h340q139 0 185 57.5t75 235.5h45v-354h-797v47l623 862h-338q-135 0 -175 -57t-71 -236h-45v355h780v-47z" glyph-name="z" horiz-adv-x="1058" unicode="z"/><glyph d="M289 737q104 -20 167.5 -94t63.5 -182q0 -96 -25.5 -218t-25.5 -180q0 -141 67.5 -195t229.5 -32l4 -22q-193 -61 -308.5 -4t-115.5 235q0 78 26.5 214t26.5 206q0 244 -219 244h-125v61h123q121 0 173 53.5t52 165.5q0 68 -26.5 199t-26.5 221q0 170 118 239.5t312 12.5 l-4 -23q-162 23 -232.5 -36.5t-70.5 -190.5q0 -72 25.5 -194.5t25.5 -202.5q0 -119 -63 -189t-172 -88z" glyph-name="braceleft" horiz-adv-x="860" unicode="{"/><glyph d="M299 -279v1887h78v-1887h-78z" glyph-name="bar" horiz-adv-x="675" unicode="|"/><glyph d="M571 737q-109 18 -172 88t-63 189q0 80 25.5 202.5t25.5 194.5q0 131 -70.5 190.5t-232.5 36.5l-4 23q195 57 312.5 -12.5t117.5 -239.5q0 -90 -26.5 -221t-26.5 -199q0 -113 52 -166t173 -53h123v-61h-125q-219 0 -219 -244q0 -70 26.5 -206t26.5 -214 q0 -178 -115.5 -235.5t-308.5 4.5l4 22q162 -23 229.5 31.5t67.5 195.5q0 57 -25.5 179.5t-25.5 218.5q0 109 63.5 182.5t167.5 93.5z" glyph-name="braceright" horiz-adv-x="860" unicode="}"/><glyph glyph-name="asciitilde" horiz-adv-x="1228" unicode="~"/><glyph d="M291 999q39 0 66.5 -27.5t27.5 -66.5t-27.5 -65.5t-66.5 -26.5t-66.5 26.5t-27.5 65.5t27.5 66.5t66.5 27.5zM291 -487q-43 0 -58.5 35.5t-11.5 115.5l58 920h24l59 -920q9 -151 -71 -151z" glyph-name="exclamdown" horiz-adv-x="581" unicode="¡"/><glyph d="M635 305q203 6 309 141l39 -34q-135 -162 -348 -174v-238h-78v238q-197 12 -311.5 142t-114.5 355q0 217 120 341t306 136v226h78v-224q160 -8 258 -89t98 -185q0 -35 -20.5 -58.5t-61.5 -23.5q-135 0 -127 262q-68 27 -147 29v-844zM272 735q0 -178 71 -291.5 t214 -134.5v838q-139 -16 -212 -124t-73 -288z" glyph-name="cent" horiz-adv-x="1101" unicode="¢"/><glyph d="M1352 537q14 -233 -80 -397.5t-277 -164.5q-180 0 -344 160q-109 -135 -309 -135q-117 0 -181.5 61.5t-64.5 151.5t63.5 150.5t170.5 60.5q117 0 270 -119q2 12 2 43q0 33 -4 64.5t-16.5 66.5t-19.5 57.5t-29.5 61.5t-29.5 52.5t-35 59.5t-34 54h-272v61h237 q-86 154 -86 305q0 154 114 243t294 89q127 0 223 -30.5t147.5 -77.5t76 -94.5t24.5 -90.5t-22.5 -66.5t-57.5 -23.5q-72 0 -115 69t-32 202q-82 43 -232 43q-281 0 -280 -254q0 -115 106 -314h428v-61h-395q131 -250 131 -416q0 -63 -23 -125q156 -121 297 -121 q131 0 217 107.5t95 327.5h43zM342 68q172 0 233 143q-70 72 -125 108.5t-120 36.5q-74 0 -117 -37.5t-43 -107.5q0 -66 47 -104.5t125 -38.5z" glyph-name="sterling" horiz-adv-x="1488" unicode="£"/><glyph glyph-name="currency" horiz-adv-x="1228" unicode="¤"/><glyph d="M909 1438h492v-21q-84 -16 -138.5 -62t-140.5 -159l-317 -416h391v-65h-418v-293h418v-66h-418v-211q0 -61 43 -83.5t189 -41.5v-20h-604v20q145 18 189 42t44 83v211h-418v66h418v293h-418v65h389l-305 420q-82 113 -138 156t-151 61v21h582v-21q-133 -18 -165 -68.5 t28 -148.5l280 -397l297 393q66 102 34 152.5t-163 68.5v21z" glyph-name="yen" horiz-adv-x="1417" unicode="¥"/><glyph d="M299 780v828h78v-828h-78zM377 549v-828h-78v828h78z" glyph-name="brokenbar" horiz-adv-x="675" unicode="¦"/><glyph d="M1212 631q0 -127 -104 -209t-272 -107q264 -94 264 -303q0 -115 -84 -184.5t-223 -69.5q-166 0 -326 70q-88 35 -120 24.5t-56 -69.5h-19v418h25q27 -373 455 -373q236 0 235 178q0 102 -81 149.5t-296 98.5q-231 55 -340.5 138t-109.5 216q0 123 98 198t262 97 q-248 94 -248 309q0 115 87 182.5t241 67.5q145 0 305 -69q88 -35 120 -25t56 70h19v-418h-25q-2 106 -43 183t-109.5 116t-142 56.5t-159.5 17.5q-236 0 -236 -170q0 -109 86 -163t291 -93q229 -43 339.5 -122t110.5 -214zM715 352q172 2 279.5 71t105.5 185 q-2 90 -87 149.5t-288 94.5q-29 4 -82 16q-170 -4 -271.5 -63.5t-99.5 -173.5q2 -90 87 -153.5t288 -108.5q12 -2 35 -7.5t33 -9.5z" glyph-name="section" horiz-adv-x="1384" unicode="§"/><glyph d="M884.5 -25q-327.5 0 -541.5 215.5t-214 528.5t214 528t541.5 215t541.5 -215t214 -528t-214 -528.5t-541.5 -215.5zM885 1411q-291 0 -494 -194.5t-203 -497.5q0 -301 203 -496.5t494 -195.5t493.5 195.5t202.5 496.5q0 303 -202.5 497.5t-493.5 194.5zM950 369 q104 0 175 54t104 146l14 -4q-23 -104 -107.5 -180t-213.5 -76q-168 0 -280 106.5t-112 315.5q0 199 110 310.5t253 111.5q82 0 197 -49q47 -23 73.5 -12.5t44.5 61.5h13v-360h-17q-25 162 -95.5 233.5t-190.5 71.5q-117 0 -191 -99.5t-74 -275.5q0 -170 81 -262t216 -92z " glyph-name="copyright" horiz-adv-x="1769" unicode="©"/><glyph d="M545 829l-264 -286l264 -289l-13 -18l-262 186q-92 66 -92 121q0 23 12.5 41t26.5 30.5t57 44.5l258 189zM870 829l-264 -286l264 -289l-12 -18l-262 186q-92 66 -92 121q0 31 19.5 53t76.5 63l258 189z" glyph-name="guillemotleft" horiz-adv-x="1069" unicode="«"/><glyph glyph-name="logicalnot" horiz-adv-x="1228" unicode="¬"/><glyph d="M550.5 1456q194.5 0 326 -118.5t131.5 -307.5q0 -190 -131.5 -309t-326 -119t-325.5 119t-131 307.5t131 308t325.5 119.5zM551 647q162 0 279.5 102.5t117.5 280.5t-117.5 278.5t-279.5 100.5t-279.5 -101.5t-117.5 -279.5t117.5 -279.5t279.5 -101.5zM770 827 q35 0 61 60l9 -4q-20 -94 -99 -95q-41 0 -61.5 27t-32.5 92q-12 57 -37.5 78t-70.5 21h-62v-148q0 -25 16.5 -33t69.5 -14v-16h-235v16q49 6 63.5 13t14.5 28v344q0 20 -14.5 27.5t-63.5 13.5v16h227q188 0 188 -112q0 -47 -38.5 -78t-102.5 -41q92 -16 115 -109 q10 -49 20 -67.5t33 -18.5zM477 1210v-161h53q141 0 142 92q0 70 -142 69h-53z" glyph-name="registered" horiz-adv-x="1101" unicode="®"/><glyph d="M522 766q-150 0 -253 97.5t-103 251t103.5 250.5t252.5 97q152 0 254.5 -97t102.5 -250.5t-102.5 -251t-254.5 -97.5zM522.5 840q110.5 0 190.5 72.5t80 201.5t-80 202t-190.5 73t-189.5 -73t-79 -202t79 -201.5t189.5 -72.5z" glyph-name="degree" horiz-adv-x="1044" unicode="°"/><glyph d="M580 893h364v-66h-364v-286h-70v286h-365v66h365v283h70v-283zM145 264v66h799v-66h-799z" glyph-name="plusminus" horiz-adv-x="1089" unicode="±"/><glyph d="M1452 1438v-21q-131 -18 -171 -40.5t-40 -84.5v-1415h-80v1495h-272v-1495h-80v619h-150q-266 0 -414.5 117.5t-148.5 351t149.5 353.5t413.5 120h793zM809 561v811h-127q-459 0 -459 -407q0 -403 459 -404h127z" glyph-name="paragraph" horiz-adv-x="1519" unicode="¶"/><glyph d="M225 567q-39 0 -66.5 28t-27.5 66.5t27.5 65.5t66.5 27t66.5 -27t27.5 -65.5t-27.5 -66.5t-66.5 -28z" glyph-name="periodcentered" horiz-adv-x="450" unicode="·"/><glyph d="M565 543q0 -55 -92 -121l-262 -186l-12 18l264 289l-264 286l12 19l258 -189q57 -41 76.5 -63t19.5 -53zM795 659q43 -33 57 -45t26.5 -30.5t12.5 -40.5q0 -55 -92 -121l-262 -186l-13 18l264 289l-264 286l13 19z" glyph-name="guillemotright" horiz-adv-x="1069" unicode="»"/><glyph d="M455 743v-18h-371v18q76 8 98.5 20.5t22.5 41.5l-2 561h-119v25l100 14q92 10 127 45h21v-645q0 -18 4 -26.5t32 -19t87 -16.5zM1235 1438h88l-1104 -1438h-88zM1470 162h-141v-82q0 -20 4 -28.5t28.5 -17.5t80.5 -16v-18h-344v18q68 10 89 21.5t21 40.5v82h-499v35 l487 516h133v-502h141v-49zM791 211h417v438z" glyph-name="onequarter" horiz-adv-x="1480" unicode="¼"/><glyph d="M455 743v-18h-371v18q76 8 98.5 20.5t22.5 41.5l-2 561h-119v25l100 14q92 10 127 45h21v-645q0 -18 4 -26.5t32 -19t87 -16.5zM1214 1438h89l-1104 -1438h-88zM1532 264h20v-264h-643v47q203 96 326 220t123 255q0 82 -50.5 122t-130 40t-135.5 -25q4 -160 -100 -161 q-29 -2 -45 14t-16 41q0 61 87 118.5t230 57.5q137 0 215 -55.5t78 -157.5q0 -213 -410 -430h230q104 0 146 32.5t75 145.5z" glyph-name="onehalf" horiz-adv-x="1650" unicode="½"/><glyph d="M698 918q0 -96 -92 -147.5t-250 -51.5q-137 0 -227 40t-92 101q-2 25 15.5 42.5t43.5 17.5q35 0 67 -39t52 -95q53 -20 119 -20q115 0 174 42t59 112q0 84 -75.5 114.5t-212.5 30.5h-86v53h86q135 0 202.5 46t67.5 116q0 131 -170 133q-102 0 -164 -24q2 -66 -23.5 -109 t-76.5 -45q-31 -2 -46.5 15.5t-15.5 39.5q0 57 96.5 113.5t249.5 56.5q279 0 279 -172q0 -70 -63.5 -121t-186.5 -71q131 -12 200.5 -58t69.5 -120zM1354 1438h88l-1104 -1438h-88zM1571 162h-141v-82q0 -20 4 -28.5t28.5 -17.5t79.5 -16v-18h-344v18q68 10 89.5 21.5 t21.5 40.5v82h-500v35l487 516h134v-502h141v-49zM891 211h418v438z" glyph-name="threequarters" horiz-adv-x="1581" unicode="¾"/><glyph d="M690 809q-39 0 -66.5 26.5t-27.5 65.5t27.5 66.5t66.5 27.5t66.5 -27.5t27.5 -66.5t-27.5 -65.5t-66.5 -26.5zM985 -74q63 0 64 -82q0 -131 -145.5 -233.5t-342 -102.5t-306.5 90.5t-110 251.5q0 104 41 189.5t118 149t158 106.5t189 86v225h78v-252q-438 -201 -438 -504 q0 -139 80 -206.5t215 -67.5q154 0 274 78q-12 272 125 272z" glyph-name="questiondown" horiz-adv-x="1167" unicode="¿"/><glyph d="M852 1610l-199 270q-33 45 -35 82t31 49q61 25 99 -78l114 -317zM1391 238q51 -125 90 -162t135 -56v-20h-610v20q184 20 236 59.5t3 158.5l-117 278h-702l-117 -278q-43 -102 11.5 -150.5t228.5 -67.5v-20h-541v20q90 18 135 63.5t90 154.5l500 1200h158zM451 575h653 l-326 785z" glyph-name="Agrave" horiz-adv-x="1624" unicode="À"/><glyph d="M995 1880l-198 -270l-11 6l115 317q37 102 98 78q33 -12 31 -49t-35 -82zM1391 238q51 -125 90 -162t135 -56v-20h-610v20q184 20 236 59.5t3 158.5l-117 278h-702l-117 -278q-43 -102 11.5 -150.5t228.5 -67.5v-20h-541v20q90 18 135 63.5t90 154.5l500 1200h158z M451 575h653l-326 785z" glyph-name="Aacute" horiz-adv-x="1624" unicode="Á"/><glyph d="M813 1853l-231 -221l-11 6l144 250q49 86 98 86q47 0 96 -86l144 -250l-11 -6zM1391 238q51 -125 90 -162t135 -56v-20h-610v20q184 20 236 59.5t3 158.5l-117 278h-702l-117 -278q-43 -102 11.5 -150.5t228.5 -67.5v-20h-541v20q90 18 135 63.5t90 154.5l500 1200h158z M451 575h653l-326 785z" glyph-name="Acircumflex" horiz-adv-x="1624" unicode="Â"/><glyph d="M655 1827q-55 0 -89 -26.5t-72 -86.5l-15 4q53 188 199 189q70 0 157 -53.5t136 -53.5q55 0 89 26.5t73 86.5l14 -4q-25 -80 -78 -134.5t-121 -54.5q-78 0 -162 53.5t-131 53.5zM1391 238q51 -125 90 -162t135 -56v-20h-610v20q184 20 236 59.5t3 158.5l-117 278h-702 l-117 -278q-43 -102 11.5 -150.5t228.5 -67.5v-20h-541v20q90 18 135 63.5t90 154.5l500 1200h158zM451 575h653l-326 785z" glyph-name="Atilde" horiz-adv-x="1624" unicode="Ã"/><glyph d="M610 1739q-37 0 -63.5 25.5t-26.5 64.5q0 37 26.5 62.5t63.5 25.5t63.5 -25.5t26.5 -62.5q0 -39 -26.5 -64.5t-63.5 -25.5zM1016 1739q-37 0 -63.5 25.5t-26.5 64.5q0 37 26.5 62.5t63.5 25.5t63.5 -25.5t26.5 -62.5q0 -39 -26.5 -64.5t-63.5 -25.5zM1391 238 q51 -125 90 -162t135 -56v-20h-610v20q184 20 236 59.5t3 158.5l-117 278h-702l-117 -278q-43 -102 11.5 -150.5t228.5 -67.5v-20h-541v20q90 18 135 63.5t90 154.5l500 1200h158zM451 575h653l-326 785z" glyph-name="Adieresis" horiz-adv-x="1624" unicode="Ä"/><glyph d="M813 1599q-90 0 -151.5 57.5t-61.5 147.5t61.5 148.5t151.5 58.5t150.5 -57.5t60.5 -149.5q0 -90 -60.5 -147.5t-150.5 -57.5zM813.5 1964q-63.5 0 -110 -43t-46.5 -116.5t46.5 -115.5t110 -42t109.5 42t46 115.5t-46 116.5t-109.5 43zM1391 238q51 -125 90 -162t135 -56 v-20h-610v20q184 20 236 59.5t3 158.5l-117 278h-702l-117 -278q-43 -102 11.5 -150.5t228.5 -67.5v-20h-541v20q90 18 135 63.5t90 154.5l500 1200h158zM451 575h653l-326 785z" glyph-name="Aring" horiz-adv-x="1624" unicode="Å"/><glyph d="M1946 475h24l-41 -475h-1087v20q154 18 192.5 57.5t26.5 160.5l-27 278h-575l-158 -278q-59 -96 -33.5 -145.5t164.5 -72.5v-20h-428v20q72 18 117 64.5t104 153.5l674 1200h1002v-477h-25q-27 246 -102.5 328.5t-266.5 82.5h-420l58 -594h201q139 0 193 66.5t73 263.5 h24v-729h-24q-18 199 -72.5 265.5t-193.5 66.5h-195l63 -648h322q188 0 278.5 89.5t131.5 322.5zM494 575h534l-80 803z" glyph-name="AE" horiz-adv-x="2088" unicode="Æ"/><glyph d="M805 -25h-17l-18 -106q264 16 264 -141q0 -68 -52 -109t-146 -41q-178 0 -271 139l15 19q80 -84 223 -84q55 0 90 20.5t35 57.5q0 90 -223 86l-3 18l25 146q-260 29 -428 235.5t-168 507.5q0 328 206 533.5t501 205.5q147 0 342 -92q80 -39 114.5 -26.5t73.5 94.5h21 v-600h-25q-45 555 -518 555q-264 0 -414.5 -191.5t-150.5 -478.5q0 -281 147 -473.5t397 -192.5q227 0 382 114t214 280l33 -11q-41 -178 -222 -321.5t-427 -143.5z" glyph-name="Ccedilla" horiz-adv-x="1552" unicode="Ç"/><glyph d="M815 1610l-199 270q-33 45 -34.5 82t30.5 49q61 25 99 -78l114 -317zM1407 475h25l-41 -475h-1246v20q145 18 189.5 42t44.5 83v1147q0 59 -44 83t-190 42v21h1217v-477h-25q-27 246 -102.5 328.5t-265.5 82.5h-451v-594h289q139 0 193.5 66.5t72.5 263.5h25v-729h-25 q-18 199 -72.5 265.5t-193.5 66.5h-289v-648h479q190 0 279.5 89.5t130.5 322.5z" glyph-name="Egrave" horiz-adv-x="1550" unicode="È"/><glyph d="M958 1880l-198 -270l-10 6l114 317q37 102 99 78q33 -12 30.5 -49t-35.5 -82zM1407 475h25l-41 -475h-1246v20q145 18 189.5 42t44.5 83v1147q0 59 -44 83t-190 42v21h1217v-477h-25q-27 246 -102.5 328.5t-265.5 82.5h-451v-594h289q139 0 193.5 66.5t72.5 263.5h25 v-729h-25q-18 199 -72.5 265.5t-193.5 66.5h-289v-648h479q190 0 279.5 89.5t130.5 322.5z" glyph-name="Eacute" horiz-adv-x="1550" unicode="É"/><glyph d="M776 1853l-231 -221l-10 6l143 250q49 86 98 86q47 0 96 -86l144 -250l-10 -6zM1407 475h25l-41 -475h-1246v20q145 18 189.5 42t44.5 83v1147q0 59 -44 83t-190 42v21h1217v-477h-25q-27 246 -102.5 328.5t-265.5 82.5h-451v-594h289q139 0 193.5 66.5t72.5 263.5h25 v-729h-25q-18 199 -72.5 265.5t-193.5 66.5h-289v-648h479q190 0 279.5 89.5t130.5 322.5z" glyph-name="Ecircumflex" horiz-adv-x="1550" unicode="Ê"/><glyph d="M573.5 1739q-36.5 0 -63.5 25.5t-27 64.5q0 37 27 62.5t63.5 25.5t63.5 -25.5t27 -62.5q0 -39 -27 -64.5t-63.5 -25.5zM979 1739q-37 0 -63.5 25.5t-26.5 64.5q0 37 26.5 62.5t63.5 25.5t63.5 -25.5t26.5 -62.5q0 -39 -26.5 -64.5t-63.5 -25.5zM1407 475h25l-41 -475 h-1246v20q145 18 189.5 42t44.5 83v1147q0 59 -44 83t-190 42v21h1217v-477h-25q-27 246 -102.5 328.5t-265.5 82.5h-451v-594h289q139 0 193.5 66.5t72.5 263.5h25v-729h-25q-18 199 -72.5 265.5t-193.5 66.5h-289v-648h479q190 0 279.5 89.5t130.5 322.5z" glyph-name="Edieresis" horiz-adv-x="1550" unicode="Ë"/><glyph d="M285 2011q61 25 98 -78l115 -317l-11 -6l-198 270q-33 45 -35 82t31 49zM750 1417q-145 -16 -188.5 -39.5t-43.5 -85.5v-1147q0 -61 43 -83.5t189 -41.5v-20h-605v20q145 18 189.5 42t44.5 83v1147q0 59 -44 83t-190 42v21h605v-21z" glyph-name="Igrave" horiz-adv-x="894" unicode="Ì"/><glyph d="M635 2011q33 -12 31 -49t-35 -82l-199 -270l-10 6l115 317q37 103 98 78zM750 1417q-145 -16 -188.5 -39.5t-43.5 -85.5v-1147q0 -61 43 -83.5t189 -41.5v-20h-605v20q145 18 189.5 42t44.5 83v1147q0 59 -44 83t-190 42v21h605v-21z" glyph-name="Iacute" horiz-adv-x="894" unicode="Í"/><glyph d="M449 1853l-232 -221l-10 6l143 250q49 86 99 86q47 0 96 -86l143 -250l-10 -6zM750 1417q-145 -16 -188.5 -39.5t-43.5 -85.5v-1147q0 -61 43 -83.5t189 -41.5v-20h-605v20q145 18 189.5 42t44.5 83v1147q0 59 -44 83t-190 42v21h605v-21z" glyph-name="Icircumflex" horiz-adv-x="894" unicode="Î"/><glyph d="M246 1739q-37 0 -63.5 25.5t-26.5 64.5q0 37 26.5 62.5t63.5 25.5t63.5 -25.5t26.5 -62.5q0 -39 -26.5 -64.5t-63.5 -25.5zM651 1739q-37 0 -63.5 25.5t-26.5 64.5q0 37 26.5 62.5t63.5 25.5t63.5 -25.5t26.5 -62.5q0 -39 -26.5 -64.5t-63.5 -25.5zM750 1417 q-145 -16 -188.5 -39.5t-43.5 -85.5v-1147q0 -61 43 -83.5t189 -41.5v-20h-605v20q145 18 189.5 42t44.5 83v1147q0 59 -44 83t-190 42v21h605v-21z" glyph-name="Idieresis" horiz-adv-x="894" unicode="Ï"/><glyph d="M825 1438q393 0 623.5 -183.5t230.5 -533.5t-230 -535.5t-624 -185.5h-680v20q145 18 189.5 42t44.5 83v568h-229v67h229v512q0 59 -44 83t-190 42v21h680zM825 66q344 0 523.5 173t179.5 482q0 307 -179.5 479t-523.5 172h-307v-592h418v-67h-418v-647h307z" glyph-name="Eth" horiz-adv-x="1810" unicode="Ð"/><glyph d="M791 1827q-55 0 -89 -26.5t-73 -86.5l-15 4q53 188 199 189q70 0 157 -53.5t136 -53.5q55 0 89 26.5t73 86.5l14 -4q-25 -80 -78 -134.5t-121 -54.5q-78 0 -161.5 53.5t-130.5 53.5zM1208 1438h584v-21q-117 -23 -175 -65.5t-58 -153.5v-1198h-142l-981 1321v-1081 q0 -57 20.5 -98.5t62.5 -64t83 -34.5t107 -23v-20h-584v20q117 23 175 66t58 154v1052q0 59 -44 83t-189 42v21h391l965 -1297v1057q0 57 -20.5 98t-62.5 63.5t-83 35t-107 22.5v21z" glyph-name="Ntilde" horiz-adv-x="1894" unicode="Ñ"/><glyph d="M698 2011q61 25 99 -78l114 -317l-10 -6l-199 270q-33 45 -35 82t31 49zM862 -25q-305 0 -518 202t-213 544t213 541.5t518 199.5t518 -199.5t213 -541.5t-213 -544t-518 -202zM862 45q258 0 419 189.5t161 486.5t-161 484.5t-419 187.5t-418.5 -187.5t-160.5 -484.5 t160.5 -486.5t418.5 -189.5z" glyph-name="Ograve" horiz-adv-x="1724" unicode="Ò"/><glyph d="M1049 2011q33 -12 30.5 -49t-35.5 -82l-198 -270l-10 6l114 317q38 103 99 78zM862 -25q-305 0 -518 202t-213 544t213 541.5t518 199.5t518 -199.5t213 -541.5t-213 -544t-518 -202zM862 45q258 0 419 189.5t161 486.5t-161 484.5t-419 187.5t-418.5 -187.5 t-160.5 -484.5t160.5 -486.5t418.5 -189.5z" glyph-name="Oacute" horiz-adv-x="1724" unicode="Ó"/><glyph d="M862 1853l-231 -221l-10 6l143 250q49 86 98 86q47 0 96 -86l144 -250l-10 -6zM862 1462q305 0 518 -199.5t213 -541.5t-213 -544t-518 -202t-518 202t-213 544t213 541.5t518 199.5zM862 45q258 0 419 189.5t161 486.5t-161 484.5t-419 187.5t-418.5 -187.5 t-160.5 -484.5t160.5 -486.5t418.5 -189.5z" glyph-name="Ocircumflex" horiz-adv-x="1724" unicode="Ô"/><glyph d="M543 1714l-15 4q53 188 199 189q70 0 157 -53.5t136 -53.5q55 0 89 26.5t73 86.5l14 -4q-25 -80 -78 -134.5t-121 -54.5q-78 0 -161.5 53.5t-130.5 53.5q-55 0 -89 -27t-73 -86zM862 -25q-305 0 -518 202t-213 544t213 541.5t518 199.5t518 -199.5t213 -541.5t-213 -544 t-518 -202zM862 45q258 0 419 189.5t161 486.5t-161 484.5t-419 187.5t-418.5 -187.5t-160.5 -484.5t160.5 -486.5t418.5 -189.5z" glyph-name="Otilde" horiz-adv-x="1724" unicode="Õ"/><glyph d="M659.5 1739q-36.5 0 -63.5 25.5t-27 64.5q0 37 27 62.5t63.5 25.5t63.5 -25.5t27 -62.5q0 -39 -27 -64.5t-63.5 -25.5zM1065 1739q-37 0 -63.5 25.5t-26.5 64.5q0 37 26.5 62.5t63.5 25.5t63.5 -25.5t26.5 -62.5q0 -39 -26.5 -64.5t-63.5 -25.5zM862 -25q-305 0 -518 202 t-213 544t213 541.5t518 199.5t518 -199.5t213 -541.5t-213 -544t-518 -202zM862 45q258 0 419 189.5t161 486.5t-161 484.5t-419 187.5t-418.5 -187.5t-160.5 -484.5t160.5 -486.5t418.5 -189.5z" glyph-name="Odieresis" horiz-adv-x="1724" unicode="Ö"/><glyph d="M813 975l-260 -258l260 -260l-45 -45l-260 260l-262 -260l-45 45l260 260l-260 258l45 45l262 -260l260 260z" glyph-name="multiply" horiz-adv-x="1013" unicode="×"/><glyph d="M1444 1192q150 -197 149 -471q0 -342 -213 -544t-518 -202q-326 0 -532 218l-148 -132l-51 60l148 131q-147 193 -148 469q0 342 213 541.5t518 199.5q324 0 531 -213l143 129l53 -57zM283 721q0 -215 90 -383l934 836q-164 219 -445 219q-258 0 -418.5 -187.5 t-160.5 -484.5zM862 45q258 0 419 189.5t161 486.5q0 219 -92 385l-934 -836q163 -225 446 -225z" glyph-name="Oslash" horiz-adv-x="1724" unicode="Ø"/><glyph d="M717 2011q61 25 98 -78l115 -317l-10 -6l-199 270q-33 45 -35 82t31 49zM301 659v633q0 59 -41 83t-172 42v21h584v-21q-143 -18 -187.5 -40.5t-44.5 -84.5v-633q0 -311 107.5 -462.5t335 -151.5t334 150.5t106.5 463.5v633q0 59 -44 83t-189 42v21h583v-21 q-133 -16 -172 -39.5t-39 -85.5v-633q0 -344 -154.5 -514t-424.5 -170q-272 0 -427 170t-155 514z" glyph-name="Ugrave" horiz-adv-x="1761" unicode="Ù"/><glyph d="M1067 2011q33 -12 31 -49t-35 -82l-199 -270l-10 6l115 317q37 103 98 78zM301 659v633q0 59 -41 83t-172 42v21h584v-21q-143 -18 -187.5 -40.5t-44.5 -84.5v-633q0 -311 107.5 -462.5t335 -151.5t334 150.5t106.5 463.5v633q0 59 -44 83t-189 42v21h583v-21 q-133 -16 -172 -39.5t-39 -85.5v-633q0 -344 -154.5 -514t-424.5 -170q-272 0 -427 170t-155 514z" glyph-name="Uacute" horiz-adv-x="1761" unicode="Ú"/><glyph d="M881 1853l-232 -221l-10 6l143 250q49 86 99 86q47 0 96 -86l143 -250l-10 -6zM1090 1438h583v-21q-133 -16 -172 -39.5t-39 -85.5v-633q0 -344 -154.5 -514t-424.5 -170q-272 0 -427 170t-155 514v633q0 59 -41 83t-172 42v21h584v-21q-143 -18 -187.5 -40.5 t-44.5 -84.5v-633q0 -311 107.5 -462.5t335 -151.5t334 150.5t106.5 463.5v633q0 59 -44 83t-189 42v21z" glyph-name="Ucircumflex" horiz-adv-x="1761" unicode="Û"/><glyph d="M678 1739q-37 0 -63.5 25.5t-26.5 64.5q0 37 26.5 62.5t63.5 25.5t63.5 -25.5t26.5 -62.5q0 -39 -26.5 -64.5t-63.5 -25.5zM1083.5 1739q-36.5 0 -63.5 25.5t-27 64.5q0 37 27 62.5t63.5 25.5t63.5 -25.5t27 -62.5q0 -39 -27 -64.5t-63.5 -25.5zM301 659v633q0 59 -41 83 t-172 42v21h584v-21q-143 -18 -187.5 -40.5t-44.5 -84.5v-633q0 -311 107.5 -462.5t335 -151.5t334 150.5t106.5 463.5v633q0 59 -44 83t-189 42v21h583v-21q-133 -16 -172 -39.5t-39 -85.5v-633q0 -344 -154.5 -514t-424.5 -170q-272 0 -427 170t-155 514z" glyph-name="Udieresis" horiz-adv-x="1761" unicode="Ü"/><glyph d="M981 1880l-199 -270l-10 6l115 317q37 102 98 78q33 -12 31 -49t-35 -82zM977 1438h512v-21q-84 -18 -140.5 -64t-138.5 -157l-385 -512v-539q0 -61 43 -83.5t189 -41.5v-20h-604v20q145 18 189 42t44 83v533l-375 522q-82 113 -138 156t-150 61v21h602v-21 q-154 -18 -190 -68.5t32 -148.5l321 -459l338 455q74 102 39 152.5t-188 68.5v21z" glyph-name="Yacute" horiz-adv-x="1511" unicode="Ý"/><glyph d="M831 1143q276 0 409.5 -95.5t133.5 -289.5q0 -406 -543 -406h-321v-186q0 -74 55.5 -100.5t239.5 -45.5v-20h-660v20q145 18 189.5 42t44.5 83v1147q0 59 -44 83t-190 42v21h598v-21q-145 -18 -189 -41.5t-44 -83.5v-149h321zM813 418q227 0 325.5 97t98.5 243 q0 319 -424 319h-303v-659h303z" glyph-name="Thorn" horiz-adv-x="1427" unicode="Þ"/><glyph d="M979 625q152 -68 225.5 -145t73.5 -208q0 -139 -98.5 -218t-241.5 -79t-243.5 52.5t-100.5 142.5q0 45 23.5 68.5t58.5 23.5q53 0 96 -61.5t68 -149.5q31 -6 71 -6q119 0 183.5 67.5t64.5 159.5q0 76 -43 132.5t-158 107.5q-180 80 -251.5 141.5t-71.5 167.5 q0 223 369 271q12 186 -63 282t-228 96q-158 0 -241 -83.5t-83 -307.5v-1079h-317v20q131 27 161.5 47.5t30.5 94.5v747h-217v62h217v108q0 217 109.5 339t341.5 122q90 0 158.5 -19.5t130 -69.5t93 -151.5t25.5 -248.5q-385 -39 -385 -215q0 -68 54.5 -110t187.5 -101z" glyph-name="germandbls" horiz-adv-x="1308" unicode="ß"/><glyph d="M573 1143l-198 270q-33 45 -35 82t31 49q61 25 98 -78l115 -317zM1124 139l25 -14q-20 -63 -70.5 -102t-115.5 -39q-100 0 -136 64.5t-32 184.5q-66 -117 -179.5 -188.5t-236.5 -71.5q-131 0 -189.5 65.5t-58.5 166.5q0 289 664 391v18q0 178 -61.5 246t-194.5 68 q-143 0 -242 -64q39 -106 17.5 -166.5t-87.5 -60.5q-76 0 -75 88q0 119 131 194.5t276 75.5q170 0 265.5 -76.5t95.5 -279.5v-483q0 -111 75 -111q74 0 129 94zM410 57q102 0 206.5 69t178.5 196v225q-297 -61 -413 -145.5t-116 -190.5q1 -154 144 -154z" glyph-name="agrave" horiz-adv-x="1165" unicode="à"/><glyph d="M717 1413l-199 -270l-10 6l115 317q37 102 98 78q33 -12 31 -49t-35 -82zM1124 139l25 -14q-20 -63 -70.5 -102t-115.5 -39q-100 0 -136 64.5t-32 184.5q-66 -117 -179.5 -188.5t-236.5 -71.5q-131 0 -189.5 65.5t-58.5 166.5q0 289 664 391v18q0 178 -61.5 246 t-194.5 68q-143 0 -242 -64q39 -106 17.5 -166.5t-87.5 -60.5q-76 0 -75 88q0 119 131 194.5t276 75.5q170 0 265.5 -76.5t95.5 -279.5v-483q0 -111 75 -111q74 0 129 94zM410 57q102 0 206.5 69t178.5 196v225q-297 -61 -413 -145.5t-116 -190.5q1 -154 144 -154z" glyph-name="aacute" horiz-adv-x="1165" unicode="á"/><glyph d="M535 1386l-232 -221l-10 6l143 250q49 86 99 86q47 0 96 -86l143 -250l-10 -6zM1124 139l25 -14q-20 -63 -70.5 -102t-115.5 -39q-100 0 -136 64.5t-32 184.5q-66 -117 -179.5 -188.5t-236.5 -71.5q-131 0 -189.5 65.5t-58.5 166.5q0 289 664 391v18q0 178 -61.5 246 t-194.5 68q-143 0 -242 -64q39 -106 17.5 -166.5t-87.5 -60.5q-76 0 -75 88q0 119 131 194.5t276 75.5q170 0 265.5 -76.5t95.5 -279.5v-483q0 -111 75 -111q74 0 129 94zM410 57q102 0 206.5 69t178.5 196v225q-297 -61 -413 -145.5t-116 -190.5q1 -154 144 -154z" glyph-name="acircumflex" horiz-adv-x="1165" unicode="â"/><glyph d="M377 1360q-55 0 -89 -26.5t-73 -86.5l-14 4q53 188 198 189q70 0 157 -53.5t136 -53.5q55 0 89 26.5t73 86.5l14 -4q-25 -80 -78 -134.5t-120 -54.5q-78 0 -162 53.5t-131 53.5zM1124 139l25 -14q-20 -63 -70.5 -102t-115.5 -39q-100 0 -136 64.5t-32 184.5 q-66 -117 -179.5 -188.5t-236.5 -71.5q-131 0 -189.5 65.5t-58.5 166.5q0 289 664 391v18q0 178 -61.5 246t-194.5 68q-143 0 -242 -64q39 -106 17.5 -166.5t-87.5 -60.5q-76 0 -75 88q0 119 131 194.5t276 75.5q170 0 265.5 -76.5t95.5 -279.5v-483q0 -111 75 -111 q74 0 129 94zM410 57q102 0 206.5 69t178.5 196v225q-297 -61 -413 -145.5t-116 -190.5q1 -154 144 -154z" glyph-name="atilde" horiz-adv-x="1165" unicode="ã"/><glyph d="M332 1272q-37 0 -63.5 25.5t-26.5 64.5q0 37 26.5 62.5t63.5 25.5t63.5 -25.5t26.5 -62.5q0 -39 -26.5 -64.5t-63.5 -25.5zM737 1272q-37 0 -63.5 25.5t-26.5 64.5q0 37 26.5 62.5t63.5 25.5t63.5 -25.5t26.5 -62.5q0 -39 -26.5 -64.5t-63.5 -25.5zM1124 139l25 -14 q-20 -63 -70.5 -102t-115.5 -39q-100 0 -136 64.5t-32 184.5q-66 -117 -179.5 -188.5t-236.5 -71.5q-131 0 -189.5 65.5t-58.5 166.5q0 289 664 391v18q0 178 -61.5 246t-194.5 68q-143 0 -242 -64q39 -106 17.5 -166.5t-87.5 -60.5q-76 0 -75 88q0 119 131 194.5t276 75.5 q170 0 265.5 -76.5t95.5 -279.5v-483q0 -111 75 -111q74 0 129 94zM410 57q102 0 206.5 69t178.5 196v225q-297 -61 -413 -145.5t-116 -190.5q1 -154 144 -154z" glyph-name="adieresis" horiz-adv-x="1165" unicode="ä"/><glyph d="M534.5 1133q-90.5 0 -151.5 57t-61 147t61 148.5t151.5 58.5t150.5 -57t60 -150q0 -90 -60 -147t-150.5 -57zM534.5 1497q-63.5 0 -109.5 -43t-46 -116.5t46 -115.5t109.5 -42t109.5 42t46 115.5t-46 116.5t-109.5 43zM1124 139l25 -14q-20 -63 -70.5 -102t-115.5 -39 q-100 0 -136 64.5t-32 184.5q-66 -117 -179.5 -188.5t-236.5 -71.5q-131 0 -189.5 65.5t-58.5 166.5q0 289 664 391v18q0 178 -61.5 246t-194.5 68q-143 0 -242 -64q39 -106 17.5 -166.5t-87.5 -60.5q-76 0 -75 88q0 119 131 194.5t276 75.5q170 0 265.5 -76.5t95.5 -279.5 v-483q0 -111 75 -111q74 0 129 94zM410 57q102 0 206.5 69t178.5 196v225q-297 -61 -413 -145.5t-116 -190.5q1 -154 144 -154z" glyph-name="aring" horiz-adv-x="1165" unicode="å"/><glyph d="M1223 995q184 0 303 -130t114 -392h-722q4 -199 88 -313.5t254 -114.5q213 0 321 141l39 -34q-145 -176 -379 -177q-145 0 -257 73t-165 206q-59 -125 -180 -203t-260 -78q-131 0 -189.5 65.5t-58.5 166.5q0 289 643 391v18q0 176 -56 245t-179 69q-143 0 -242 -64 q39 -106 17.5 -166.5t-87.5 -60.5q-76 0 -75 88q0 119 131 194.5t276 75.5q244 0 311 -172q126 172 353 172zM1223 928q-137 0 -216 -104.5t-89 -286.5h579q-4 184 -74.5 287.5t-199.5 103.5zM410 57q98 0 195 61.5t169 174.5v248q-283 -59 -395.5 -142.5t-112.5 -187.5 q1 -154 144 -154z" glyph-name="ae" horiz-adv-x="1738" unicode="æ"/><glyph d="M993 158q-137 -172 -370 -183l-19 -106q264 16 264 -141q0 -68 -52 -109t-146 -41q-178 0 -271 139l15 19q80 -84 223 -84q55 0 90 20.5t35 57.5q0 90 -223 86l-2 18l24 143q-205 10 -327.5 146.5t-122.5 365.5q0 233 141 369.5t350 136.5q166 0 277.5 -83t111.5 -191 q0 -35 -19.5 -58.5t-56.5 -23.5q-141 0 -133 262q-72 29 -180 29q-166 0 -258 -121t-92 -320q0 -205 89 -324.5t275 -119.5q229 0 338 148z" glyph-name="ccedilla" horiz-adv-x="1101" unicode="ç"/><glyph d="M616 1143l-198 270q-33 45 -35 82t31 49q61 25 98 -78l115 -317zM578 995q193 0 318.5 -130t119.5 -392h-764q4 -199 93 -313.5t269 -114.5q233 0 342 141l39 -34q-145 -176 -399 -177q-213 0 -349 138.5t-136 382.5q0 238 135 368.5t332 130.5zM578 928 q-145 0 -230.5 -104.5t-95.5 -286.5h620q-4 184 -80.5 287.5t-213.5 103.5z" glyph-name="egrave" horiz-adv-x="1114" unicode="è"/><glyph d="M760 1413l-199 -270l-10 6l115 317q37 102 98 78q33 -12 31 -49t-35 -82zM578 995q193 0 318.5 -130t119.5 -392h-764q4 -199 93 -313.5t269 -114.5q233 0 342 141l39 -34q-145 -176 -399 -177q-213 0 -349 138.5t-136 382.5q0 238 135 368.5t332 130.5zM578 928 q-145 0 -230.5 -104.5t-95.5 -286.5h620q-4 184 -80.5 287.5t-213.5 103.5z" glyph-name="eacute" horiz-adv-x="1114" unicode="é"/><glyph d="M578 1386l-232 -221l-10 6l143 250q49 86 99 86q47 0 96 -86l143 -250l-10 -6zM578 995q193 0 318.5 -130t119.5 -392h-764q4 -199 93 -313.5t269 -114.5q233 0 342 141l39 -34q-145 -176 -399 -177q-213 0 -349 138.5t-136 382.5q0 238 135 368.5t332 130.5zM578 928 q-145 0 -230.5 -104.5t-95.5 -286.5h620q-4 184 -80.5 287.5t-213.5 103.5z" glyph-name="ecircumflex" horiz-adv-x="1114" unicode="ê"/><glyph d="M375 1272q-37 0 -63.5 25.5t-26.5 64.5q0 37 26.5 62.5t63.5 25.5t63.5 -25.5t26.5 -62.5q0 -39 -26.5 -64.5t-63.5 -25.5zM780 1272q-37 0 -63.5 25.5t-26.5 64.5q0 37 26.5 62.5t63.5 25.5t63.5 -25.5t26.5 -62.5q0 -39 -26.5 -64.5t-63.5 -25.5zM578 995 q193 0 318.5 -130t119.5 -392h-764q4 -199 93 -313.5t269 -114.5q233 0 342 141l39 -34q-145 -176 -399 -177q-213 0 -349 138.5t-136 382.5q0 238 135 368.5t332 130.5zM578 928q-145 0 -230.5 -104.5t-95.5 -286.5h620q-4 184 -80.5 287.5t-213.5 103.5z" glyph-name="edieresis" horiz-adv-x="1114" unicode="ë"/><glyph d="M399 1143l-198 270q-33 45 -35 82t31 49q61 25 98 -78l115 -317zM438 145q0 -61 36 -83.5t155 -41.5v-20h-508v20q119 18 155.5 42t36.5 83v629q0 55 -29.5 72.5t-148.5 36.5v20l303 82v-840z" glyph-name="igrave" horiz-adv-x="718" unicode="ì"/><glyph d="M543 1413l-199 -270l-10 6l115 317q37 102 98 78q33 -12 31 -49t-35 -82zM438 145q0 -61 36 -83.5t155 -41.5v-20h-508v20q119 18 155.5 42t36.5 83v629q0 55 -29.5 72.5t-148.5 36.5v20l303 82v-840z" glyph-name="iacute" horiz-adv-x="718" unicode="í"/><glyph d="M360 1386l-231 -221l-10 6l143 250q49 86 98 86q47 0 97 -86l143 -250l-10 -6zM438 145q0 -61 36 -83.5t155 -41.5v-20h-508v20q119 18 155.5 42t36.5 83v629q0 55 -29.5 72.5t-148.5 36.5v20l303 82v-840z" glyph-name="icircumflex" horiz-adv-x="718" unicode="î"/><glyph d="M248 1362q0 -39 -26.5 -64.5t-63.5 -25.5t-63.5 25.5t-26.5 64.5q0 37 26.5 62.5t63.5 25.5t63.5 -25.5t26.5 -62.5zM563 1272q-37 0 -63.5 25.5t-26.5 64.5q0 37 26.5 62.5t63.5 25.5t63.5 -25.5t26.5 -62.5q0 -39 -26.5 -64.5t-63.5 -25.5zM438 145q0 -61 36 -83.5 t155 -41.5v-20h-508v20q119 18 155.5 42t36.5 83v629q0 55 -29.5 72.5t-148.5 36.5v20l303 82v-840z" glyph-name="idieresis" horiz-adv-x="718" unicode="ï"/><glyph d="M1262 1272l-230 -90q111 -190 111 -467q0 -344 -141.5 -542t-409.5 -198q-207 0 -338 121t-131 336q0 213 140 327.5t329 114.5q143 0 246.5 -71.5t150.5 -186.5q2 35 2 111q0 240 -76 408l-385 -154l-22 53l381 152q-123 209 -344 209q-109 0 -191 -37t-125 -84l-32 41 q47 57 138 102t220 45q285 0 446 -231l238 94zM592 45q324 0 385 438q-41 147 -141.5 233.5t-227.5 86.5q-154 0 -247 -98.5t-93 -272.5q0 -182 88.5 -284.5t235.5 -102.5z" glyph-name="eth" horiz-adv-x="1275" unicode="ð"/><glyph d="M547 1360q-55 0 -89 -26.5t-73 -86.5l-14 4q53 188 198 189q70 0 157 -53.5t136 -53.5q55 0 89 26.5t73 86.5l14 -4q-25 -80 -78 -134.5t-120 -54.5q-78 0 -162 53.5t-131 53.5zM1155 145q0 -61 36 -83.5t155 -41.5v-20h-508v20q119 18 154.5 41t35.5 84v463 q0 172 -58.5 241t-160.5 69q-117 0 -215 -81t-156 -245v-447q0 -61 36 -83.5t155 -41.5v-20h-508v20q119 18 155.5 42t36.5 83v629q0 55 -30.5 72.5t-155.5 36.5v20l311 82v-276q59 135 157.5 210.5t229.5 75.5q139 0 234.5 -82t95.5 -280v-488z" glyph-name="ntilde" horiz-adv-x="1409" unicode="ñ"/><glyph d="M451 1544q61 25 98 -78l115 -317l-11 -6l-198 270q-33 45 -35 82t31 49zM614 -25q-215 0 -359 132.5t-144 376t144 377.5t359 134t359.5 -134t144.5 -377.5t-144.5 -376t-359.5 -132.5zM614 43q174 0 268.5 118t94.5 322q0 209 -94.5 327t-268.5 118t-268 -118t-94 -327 q0 -205 94 -322.5t268 -117.5z" glyph-name="ograve" horiz-adv-x="1228" unicode="ò"/><glyph d="M801 1544q33 -12 30.5 -49t-34.5 -82l-199 -270l-10 6l114 317q38 103 99 78zM614 -25q-215 0 -359 132.5t-144 376t144 377.5t359 134t359.5 -134t144.5 -377.5t-144.5 -376t-359.5 -132.5zM614 43q174 0 268.5 118t94.5 322q0 209 -94.5 327t-268.5 118t-268 -118 t-94 -327q0 -205 94 -322.5t268 -117.5z" glyph-name="oacute" horiz-adv-x="1228" unicode="ó"/><glyph d="M614 1386l-231 -221l-10 6l143 250q49 86 98 86q47 0 97 -86l143 -250l-10 -6zM614 995q215 0 359.5 -134t144.5 -377.5t-144.5 -376t-359.5 -132.5t-359 132.5t-144 376t144 377.5t359 134zM614 43q174 0 268.5 118t94.5 322q0 209 -94.5 327t-268.5 118t-268 -118 t-94 -327q0 -205 94 -322.5t268 -117.5z" glyph-name="ocircumflex" horiz-adv-x="1228" unicode="ô"/><glyph d="M295 1247l-14 4q53 188 198 189q70 0 157 -53.5t136 -53.5q55 0 89 26.5t73 86.5l14 -4q-25 -80 -78 -134.5t-120 -54.5q-78 0 -162 53.5t-131 53.5q-55 0 -89 -27t-73 -86zM614 -25q-215 0 -359 132.5t-144 376t144 377.5t359 134t359.5 -134t144.5 -377.5t-144.5 -376 t-359.5 -132.5zM614 43q174 0 268.5 118t94.5 322q0 209 -94.5 327t-268.5 118t-268 -118t-94 -327q0 -205 94 -322.5t268 -117.5z" glyph-name="otilde" horiz-adv-x="1228" unicode="õ"/><glyph d="M412 1272q-37 0 -63.5 25.5t-26.5 64.5q0 37 26.5 62.5t63.5 25.5t63.5 -25.5t26.5 -62.5q0 -39 -26.5 -64.5t-63.5 -25.5zM817 1272q-37 0 -63.5 25.5t-26.5 64.5q0 37 26.5 62.5t63.5 25.5t63.5 -25.5t26.5 -62.5q0 -39 -26.5 -64.5t-63.5 -25.5zM614 -25 q-215 0 -359 132.5t-144 376t144 377.5t359 134t359.5 -134t144.5 -377.5t-144.5 -376t-359.5 -132.5zM614 43q174 0 268.5 118t94.5 322q0 209 -94.5 327t-268.5 118t-268 -118t-94 -327q0 -205 94 -322.5t268 -117.5z" glyph-name="odieresis" horiz-adv-x="1228" unicode="ö"/><glyph d="M543 913q-31 0 -54.5 24t-23.5 56q0 31 23.5 53.5t54.5 22.5q33 0 56.5 -22.5t23.5 -53.5q0 -33 -23.5 -56.5t-56.5 -23.5zM145 682v66h801v-66h-801zM545 362q-33 0 -55.5 23t-22.5 55.5t22.5 54t55.5 21.5t56.5 -21.5t23.5 -54t-23.5 -55.5t-56.5 -23z" glyph-name="divide" horiz-adv-x="1091" unicode="÷"/><glyph d="M1147 938l-131 -123q102 -133 102 -332q0 -244 -144.5 -376t-359.5 -132q-219 0 -356 131l-133 -124l-53 55l135 127q-96 129 -96 319q0 244 144 378t359 134q209 0 349 -123l131 123zM252 483q0 -139 43 -237l594 557q-96 125 -275 125q-174 0 -268 -118t-94 -327z M977 483q0 145 -47 250l-596 -555q96 -135 280 -135q174 0 268.5 117.5t94.5 322.5z" glyph-name="oslash" horiz-adv-x="1228" unicode="ø"/><glyph d="M735 1143l-198 270q-33 45 -35 82t30 49q61 25 99 -78l114 -317zM1098 145q0 -61 35.5 -83.5t154.5 -41.5v-20h-315v246q-57 -135 -155.5 -203t-219.5 -68q-340 0 -340 365v485q0 61 -36 84t-154 41v21h317v-606q0 -311 221 -312q258 0 367 287v485q0 61 -39 84t-168 41 v21h332v-826z" glyph-name="ugrave" horiz-adv-x="1380" unicode="ù"/><glyph d="M879 1413l-199 -270l-10 6l114 317q37 102 99 78q33 -12 31 -49t-35 -82zM1098 145q0 -61 35.5 -83.5t154.5 -41.5v-20h-315v246q-57 -135 -155.5 -203t-219.5 -68q-340 0 -340 365v485q0 61 -36 84t-154 41v21h317v-606q0 -311 221 -312q258 0 367 287v485q0 61 -39 84 t-168 41v21h332v-826z" glyph-name="uacute" horiz-adv-x="1380" unicode="ú"/><glyph d="M696 1386l-231 -221l-10 6l143 250q49 86 98 86q47 0 97 -86l143 -250l-10 -6zM1098 145q0 -61 35.5 -83.5t154.5 -41.5v-20h-315v246q-57 -135 -155.5 -203t-219.5 -68q-340 0 -340 365v485q0 61 -36 84t-154 41v21h317v-606q0 -311 221 -312q258 0 367 287v485 q0 61 -39 84t-168 41v21h332v-826z" glyph-name="ucircumflex" horiz-adv-x="1380" unicode="û"/><glyph d="M493.5 1272q-36.5 0 -63.5 25.5t-27 64.5q0 37 27 62.5t63.5 25.5t63.5 -25.5t27 -62.5q0 -39 -27 -64.5t-63.5 -25.5zM899 1272q-37 0 -63.5 25.5t-26.5 64.5q0 37 26.5 62.5t63.5 25.5t63.5 -25.5t26.5 -62.5q0 -39 -26.5 -64.5t-63.5 -25.5zM1098 145 q0 -61 35.5 -83.5t154.5 -41.5v-20h-315v246q-57 -135 -155.5 -203t-219.5 -68q-340 0 -340 365v485q0 61 -36 84t-154 41v21h317v-606q0 -311 221 -312q258 0 367 287v485q0 61 -39 84t-168 41v21h332v-826z" glyph-name="udieresis" horiz-adv-x="1380" unicode="ü"/><glyph d="M827 1413l-198 -270l-11 6l115 317q37 102 98 78q33 -12 31 -49t-35 -82zM797 971h440v-21q-84 -20 -123 -51t-84 -129l-287 -639q-229 -528 -524 -528q-76 0 -131 29.5t-55 91.5q0 33 20.5 55t55.5 22q106 0 182 -131q147 37 287 277l-375 823q-45 100 -83 130t-124 50 v21h487v-21q-115 -20 -154.5 -54t-6.5 -108l319 -716q4 8 7 16t8.5 18.5t7.5 16.5l274 620q25 55 27 91t-20.5 58.5t-56.5 35t-91 22.5v21z" glyph-name="yacute" horiz-adv-x="1232" unicode="ý"/><glyph d="M690 997q186 0 322.5 -137t136.5 -374.5t-142.5 -373t-340.5 -135.5q-209 0 -328 162v-366q0 -61 44 -84t187 -41v-21h-549v21q119 18 156 41.5t37 83.5v1538q0 55 -29.5 73.5t-148.5 34.5v21l303 82v-697q131 172 352 172zM666 45q158 0 250 120t92 320.5t-86 322.5 t-238 122q-238 0 -346 -201v-485q92 -199 328 -199z" glyph-name="thorn" horiz-adv-x="1259" unicode="þ"/><glyph d="M442.5 1272q-36.5 0 -63.5 25.5t-27 64.5q0 37 27 62.5t63.5 25.5t63 -25.5t26.5 -62.5q0 -39 -26.5 -64.5t-63 -25.5zM848 1272q-37 0 -63.5 25.5t-26.5 64.5q0 37 26.5 62.5t63.5 25.5t63.5 -25.5t26.5 -62.5q0 -39 -26.5 -64.5t-63.5 -25.5zM797 971h440v-21 q-84 -20 -123 -51t-84 -129l-287 -639q-229 -528 -524 -528q-76 0 -131 29.5t-55 91.5q0 33 20.5 55t55.5 22q106 0 182 -131q147 37 287 277l-375 823q-45 100 -83 130t-124 50v21h487v-21q-115 -20 -154.5 -54t-6.5 -108l319 -716q4 8 7 16t8.5 18.5t7.5 16.5l274 620 q25 55 27 91t-20.5 58.5t-56.5 35t-91 22.5v21z" glyph-name="ydieresis" horiz-adv-x="1232" unicode="ÿ"/><glyph d="M1100 1872v-68h-574v68h574zM1391 238q51 -125 90 -162t135 -56v-20h-610v20q184 20 236 59.5t3 158.5l-117 278h-702l-117 -278q-43 -102 11.5 -150.5t228.5 -67.5v-20h-541v20q90 18 135 63.5t90 154.5l500 1200h158zM451 575h653l-326 785z" glyph-name="Amacron" horiz-adv-x="1624" unicode="Ā"/><glyph d="M821 1405v-68h-573v68h573zM1124 139l25 -14q-20 -63 -70.5 -102t-115.5 -39q-100 0 -136 64.5t-32 184.5q-66 -117 -179.5 -188.5t-236.5 -71.5q-131 0 -189.5 65.5t-58.5 166.5q0 289 664 391v18q0 178 -61.5 246t-194.5 68q-143 0 -242 -64q39 -106 17.5 -166.5 t-87.5 -60.5q-76 0 -75 88q0 119 131 194.5t276 75.5q170 0 265.5 -76.5t95.5 -279.5v-483q0 -111 75 -111q74 0 129 94zM410 57q102 0 206.5 69t178.5 196v225q-297 -61 -413 -145.5t-116 -190.5q1 -154 144 -154z" glyph-name="amacron" horiz-adv-x="1165" unicode="ā"/><glyph d="M813.5 1640q-104.5 0 -161 76t-60.5 199h22q4 -78 58.5 -135.5t140.5 -57.5t140.5 57.5t58.5 135.5h20q-4 -125 -59 -200t-159.5 -75zM1391 238q51 -125 90 -162t135 -56v-20h-610v20q184 20 236 59.5t3 158.5l-117 278h-702l-117 -278q-43 -102 11.5 -150.5t228.5 -67.5 v-20h-541v20q90 18 135 63.5t90 154.5l500 1200h158zM451 575h653l-326 785z" glyph-name="Abreve" horiz-adv-x="1624" unicode="Ă"/><glyph d="M534.5 1174q-104.5 0 -161 75.5t-60.5 198.5h23q4 -78 58.5 -135.5t140.5 -57.5t140 57.5t58 135.5h21q-4 -125 -59.5 -199.5t-160 -74.5zM1124 139l25 -14q-20 -63 -70.5 -102t-115.5 -39q-100 0 -136 64.5t-32 184.5q-66 -117 -179.5 -188.5t-236.5 -71.5 q-131 0 -189.5 65.5t-58.5 166.5q0 289 664 391v18q0 178 -61.5 246t-194.5 68q-143 0 -242 -64q39 -106 17.5 -166.5t-87.5 -60.5q-76 0 -75 88q0 119 131 194.5t276 75.5q170 0 265.5 -76.5t95.5 -279.5v-483q0 -111 75 -111q74 0 129 94zM410 57q102 0 206.5 69 t178.5 196v225q-297 -61 -413 -145.5t-116 -190.5q1 -154 144 -154z" glyph-name="abreve" horiz-adv-x="1165" unicode="ă"/><glyph d="M1616 -281l10 -6q-72 -139 -227 -139q-61 0 -100 35t-39 100q0 94 77.5 172t190.5 119h-522v20q184 20 236 59.5t3 158.5l-117 278h-702l-117 -278q-43 -102 11.5 -150.5t228.5 -67.5v-20h-541v20q90 18 135 63.5t90 154.5l500 1200h158l500 -1200q51 -125 90 -162 t135 -56v-20q-252 -98 -252 -272q0 -86 82 -86q102 -1 170 77zM451 575h653l-326 785z" glyph-name="Aogonek" horiz-adv-x="1624" unicode="Ą"/><glyph d="M969 -16q-172 -94 -172 -236q0 -86 82 -86q102 0 170 78l10 -6q-72 -139 -228 -140q-61 0 -100 35t-39 101q0 80 57.5 149.5t147.5 114.5q-109 37 -102 239q-66 -117 -179.5 -188.5t-236.5 -71.5q-131 0 -189.5 65.5t-58.5 166.5q0 289 664 391v18q0 178 -61.5 246 t-194.5 68q-143 0 -242 -64q39 -106 17.5 -166.5t-87.5 -60.5q-76 0 -75 88q0 119 131 194.5t276 75.5q170 0 265.5 -76.5t95.5 -279.5v-483q0 -111 75 -111q74 0 129 94l25 -14q-45 -137 -180 -141zM410 57q102 0 206.5 69t178.5 196v225q-297 -61 -413 -145.5t-116 -190.5 q1 -154 144 -154z" glyph-name="aogonek" horiz-adv-x="1165" unicode="ą"/><glyph d="M1047 2011q33 -12 30.5 -49t-35.5 -82l-198 -270l-10 6l114 317q38 103 99 78zM805 -25q-291 0 -482.5 212t-191.5 536q0 328 206 533.5t501 205.5q147 0 342 -92q80 -39 114.5 -26.5t73.5 94.5h21v-600h-25q-45 555 -518 555q-264 0 -414.5 -191.5t-150.5 -478.5 q0 -281 147 -473.5t397 -192.5q227 0 382 114t214 280l33 -11q-41 -178 -222 -321.5t-427 -143.5z" glyph-name="Cacute" horiz-adv-x="1552" unicode="Ć"/><glyph d="M733 1413l-198 -270l-11 6l115 317q37 102 98 78q33 -12 31 -49t-35 -82zM954 193l39 -35q-145 -182 -395 -183q-221 0 -354 137.5t-133 376.5q0 233 141 369.5t350 136.5q166 0 277.5 -83t111.5 -191q0 -35 -19.5 -58.5t-56.5 -23.5q-141 0 -133 262q-72 29 -180 29 q-166 0 -258 -121t-92 -320q0 -205 89 -324.5t275 -119.5q229 1 338 148z" glyph-name="cacute" horiz-adv-x="1101" unicode="ć"/><glyph d="M860 1735q-39 0 -66.5 27.5t-27.5 66.5t27.5 65.5t66.5 26.5t66.5 -26.5t27.5 -65.5t-27.5 -66.5t-66.5 -27.5zM805 -25q-291 0 -482.5 212t-191.5 536q0 328 206 533.5t501 205.5q147 0 342 -92q80 -39 114.5 -26.5t73.5 94.5h21v-600h-25q-45 555 -518 555 q-264 0 -414.5 -191.5t-150.5 -478.5q0 -281 147 -473.5t397 -192.5q227 0 382 114t214 280l33 -11q-41 -178 -222 -321.5t-427 -143.5z" glyph-name="Cdotaccent" horiz-adv-x="1552" unicode="Ċ"/><glyph d="M551 1268q-39 0 -66.5 27.5t-27.5 66.5t27.5 65.5t66.5 26.5t66.5 -26.5t27.5 -65.5t-27.5 -66.5t-66.5 -27.5zM954 193l39 -35q-145 -182 -395 -183q-221 0 -354 137.5t-133 376.5q0 233 141 369.5t350 136.5q166 0 277.5 -83t111.5 -191q0 -35 -19.5 -58.5t-56.5 -23.5 q-141 0 -133 262q-72 29 -180 29q-166 0 -258 -121t-92 -320q0 -205 89 -324.5t275 -119.5q229 1 338 148z" glyph-name="cdotaccent" horiz-adv-x="1101" unicode="ċ"/><glyph d="M860 1632q-49 0 -98 86l-144 250l11 6l231 -221l230 221l10 -6l-144 -250q-49 -86 -96 -86zM1421 451l33 -11q-41 -178 -222 -321.5t-427 -143.5q-291 0 -482.5 212t-191.5 536q0 328 206 533.5t501 205.5q147 0 342 -92q80 -39 114.5 -26.5t73.5 94.5h21v-600h-25 q-45 555 -518 555q-264 0 -414.5 -191.5t-150.5 -478.5q0 -281 147 -473.5t397 -192.5q227 0 382 114t214 280z" glyph-name="Ccaron" horiz-adv-x="1552" unicode="Č"/><glyph d="M551 1165q-49 0 -98 86l-144 250l10 6l232 -221l229 221l11 -6l-144 -250q-49 -86 -96 -86zM954 193l39 -35q-145 -182 -395 -183q-221 0 -354 137.5t-133 376.5q0 233 141 369.5t350 136.5q166 0 277.5 -83t111.5 -191q0 -35 -19.5 -58.5t-56.5 -23.5q-141 0 -133 262 q-72 29 -180 29q-166 0 -258 -121t-92 -320q0 -205 89 -324.5t275 -119.5q229 1 338 148z" glyph-name="ccaron" horiz-adv-x="1101" unicode="č"/><glyph d="M905 1632q-49 0 -98 86l-143 250l10 6l231 -221l230 221l10 -6l-144 -250q-49 -86 -96 -86zM825 1438q393 0 623.5 -183.5t230.5 -533.5t-230 -535.5t-624 -185.5h-680v20q145 18 189.5 42t44.5 83v1147q0 59 -44 83t-190 42v21h680zM825 66q344 0 523.5 173t179.5 482 q0 307 -179.5 479t-523.5 172h-307v-1306h307z" glyph-name="Dcaron" horiz-adv-x="1810" unicode="Ď"/><glyph d="M1376 1540q63 0 25 -166l-88 -377h-17l17 398q4 80 17 112.5t46 32.5zM1059 145q0 -61 35.5 -83.5t154.5 -41.5v-20h-315v139q-129 -164 -330 -164q-199 0 -341 140.5t-142 380.5q0 238 143.5 368.5t347.5 130.5q203 0 320 -161v479q0 63 -29 82.5t-147 36.5v20l303 82 v-1389zM604 43q223 0 328 201v485q-92 199 -320 199q-166 0 -258 -116t-92 -316q0 -203 91 -328t251 -125z" glyph-name="dcaron" horiz-adv-x="1310" unicode="ď"/><glyph d="M825 1438q393 0 623.5 -183.5t230.5 -533.5t-230 -535.5t-624 -185.5h-680v20q145 18 189.5 42t44.5 83v568h-229v67h229v512q0 59 -44 83t-190 42v21h680zM825 66q344 0 523.5 173t179.5 482q0 307 -179.5 479t-523.5 172h-307v-592h418v-67h-418v-647h307z" glyph-name="Dcroat" horiz-adv-x="1810" unicode="Đ"/><glyph d="M1264 1169h-205v-1024q0 -61 35.5 -83.5t154.5 -41.5v-20h-315v139q-129 -164 -330 -164q-199 0 -341 140.5t-142 380.5q0 238 143.5 368.5t347.5 130.5q203 0 320 -161v335h-455v68h455v76q0 63 -29 82.5t-147 36.5v20l303 82v-297h205v-68zM604 43q223 0 328 201v485 q-92 199 -320 199q-166 0 -258 -116t-92 -316q0 -203 91 -328t251 -125z" glyph-name="dcroat" horiz-adv-x="1300" unicode="đ"/><glyph d="M1063 1872v-68h-574v68h574zM1407 475h25l-41 -475h-1246v20q145 18 189.5 42t44.5 83v1147q0 59 -44 83t-190 42v21h1217v-477h-25q-27 246 -102.5 328.5t-265.5 82.5h-451v-594h289q139 0 193.5 66.5t72.5 263.5h25v-729h-25q-18 199 -72.5 265.5t-193.5 66.5h-289 v-648h479q190 0 279.5 89.5t130.5 322.5z" glyph-name="Emacron" horiz-adv-x="1550" unicode="Ē"/><glyph d="M864 1405v-68h-573v68h573zM578 995q193 0 318.5 -130t119.5 -392h-764q4 -199 93 -313.5t269 -114.5q233 0 342 141l39 -34q-145 -176 -399 -177q-213 0 -349 138.5t-136 382.5q0 238 135 368.5t332 130.5zM578 928q-145 0 -230.5 -104.5t-95.5 -286.5h620 q-4 184 -80.5 287.5t-213.5 103.5z" glyph-name="emacron" horiz-adv-x="1114" unicode="ē"/><glyph d="M776 1735q-39 0 -66.5 27.5t-27.5 66.5t27.5 65.5t66.5 26.5t66.5 -26.5t27.5 -65.5t-27.5 -66.5t-66.5 -27.5zM1407 475h25l-41 -475h-1246v20q145 18 189.5 42t44.5 83v1147q0 59 -44 83t-190 42v21h1217v-477h-25q-27 246 -102.5 328.5t-265.5 82.5h-451v-594h289 q139 0 193.5 66.5t72.5 263.5h25v-729h-25q-18 199 -72.5 265.5t-193.5 66.5h-289v-648h479q190 0 279.5 89.5t130.5 322.5z" glyph-name="Edotaccent" horiz-adv-x="1550" unicode="Ė"/><glyph d="M577.5 1268q-38.5 0 -66.5 27.5t-28 66.5t28 65.5t66.5 26.5t66.5 -26.5t28 -65.5t-28 -66.5t-66.5 -27.5zM578 995q193 0 318.5 -130t119.5 -392h-764q4 -199 93 -313.5t269 -114.5q233 0 342 141l39 -34q-145 -176 -399 -177q-213 0 -349 138.5t-136 382.5 q0 238 135 368.5t332 130.5zM578 928q-145 0 -230.5 -104.5t-95.5 -286.5h620q-4 184 -80.5 287.5t-213.5 103.5z" glyph-name="edotaccent" horiz-adv-x="1114" unicode="ė"/><glyph d="M1225 -338q102 0 170 78l10 -6q-72 -139 -227 -140q-61 0 -100.5 35t-39.5 101q0 84 61.5 154.5t157.5 115.5h-1112v20q145 18 189.5 42t44.5 83v1147q0 59 -44 83t-190 42v21h1217v-477h-25q-27 246 -102.5 328.5t-265.5 82.5h-451v-594h289q139 0 193.5 66.5 t72.5 263.5h25v-729h-25q-18 199 -72.5 265.5t-193.5 66.5h-289v-648h479q190 0 279.5 89.5t130.5 322.5h25l-39 -452l2 -3h-2l-2 -20h-43q-205 -96 -205 -252q0 -86 82 -86z" glyph-name="Eogonek" horiz-adv-x="1550" unicode="Ę"/><glyph d="M578 995q193 0 318.5 -130t119.5 -392h-764q4 -199 93 -313.5t269 -114.5q233 0 342 141l39 -34q-66 -82 -168 -129h-2l-26 -13q-223 -96 -224 -260q0 -86 82 -86q102 0 170 78l11 -6q-72 -139 -228 -139q-61 0 -100 34.5t-39 100.5q0 141 172 245q-16 -2 -47 -2 q-213 0 -349 138.5t-136 382.5q0 238 135 368.5t332 130.5zM578 928q-145 0 -230.5 -104.5t-95.5 -286.5h620q-4 184 -80.5 287.5t-213.5 103.5z" glyph-name="eogonek" horiz-adv-x="1114" unicode="ę"/><glyph d="M776 1632q-49 0 -98 86l-143 250l10 6l231 -221l230 221l10 -6l-144 -250q-49 -86 -96 -86zM1407 475h25l-41 -475h-1246v20q145 18 189.5 42t44.5 83v1147q0 59 -44 83t-190 42v21h1217v-477h-25q-27 246 -102.5 328.5t-265.5 82.5h-451v-594h289q139 0 193.5 66.5 t72.5 263.5h25v-729h-25q-18 199 -72.5 265.5t-193.5 66.5h-289v-648h479q190 0 279.5 89.5t130.5 322.5z" glyph-name="Ecaron" horiz-adv-x="1550" unicode="Ě"/><glyph d="M578 1165q-49 0 -99 86l-143 250l10 6l232 -221l229 221l10 -6l-143 -250q-49 -86 -96 -86zM578 995q193 0 318.5 -130t119.5 -392h-764q4 -199 93 -313.5t269 -114.5q233 0 342 141l39 -34q-145 -176 -399 -177q-213 0 -349 138.5t-136 382.5q0 238 135 368.5t332 130.5 zM578 928q-145 0 -230.5 -104.5t-95.5 -286.5h620q-4 184 -80.5 287.5t-213.5 103.5z" glyph-name="ecaron" horiz-adv-x="1114" unicode="ě"/><glyph d="M866.5 1640q-104.5 0 -161 76t-60.5 199h23q4 -78 58 -135.5t140 -57.5t140.5 57.5t58.5 135.5h20q-4 -125 -59 -200t-159.5 -75zM1640 729v-20q-119 -16 -154.5 -40t-35.5 -85v-584h-23q-31 84 -49 109.5t-53 25.5q-31 0 -105.5 -40t-184 -80t-228.5 -40 q-291 0 -483.5 212t-192.5 536q0 328 206 533.5t503 205.5q143 0 356 -86q68 -31 104.5 -21.5t67.5 83.5h23v-518h-25q-72 473 -518 473q-264 0 -414.5 -191.5t-150.5 -478.5q0 -281 147.5 -473.5t396.5 -192.5q264 0 492 183v344q0 59 -52.5 82.5t-222.5 42.5v20h596z" glyph-name="Gbreve" horiz-adv-x="1722" unicode="Ğ"/><glyph d="M546.5 1174q-104.5 0 -160.5 75.5t-60 198.5h22q4 -78 58.5 -135.5t140.5 -57.5t140 57.5t58 135.5h21q-4 -125 -59.5 -199.5t-160 -74.5zM555 135q246 -16 355.5 -75.5t109.5 -184.5q0 -272 -506 -272q-481 0 -481 223q0 92 92 151.5t244 75.5q-180 43 -180.5 153.5 t178.5 145.5q-100 33 -164 109t-64 201q0 90 36 158.5t95.5 104.5t122 53t125.5 17q78 0 146 -22q106 145 247 145q53 0 87 -22.5t38 -61.5q4 -35 -14 -58.5t-51 -27.5q-80 -8 -156 86q-57 -29 -106 -78q188 -82 188 -294q0 -88 -35 -156t-92 -104.5t-118.5 -55 t-125.5 -18.5q-117 0 -180 -26t-63 -69q0 -78 272 -98zM254 662q0 -133 73.5 -201t190.5 -68t190.5 67.5t73.5 201.5q0 135 -73.5 202.5t-190.5 67.5t-190.5 -67.5t-73.5 -202.5zM514 -332q102 0 186 17.5t143.5 63.5t59.5 114q0 80 -76.5 112.5t-283.5 51.5q-12 0 -33 4 q-342 -33 -342 -205q0 -158 346 -158z" glyph-name="gbreve" horiz-adv-x="1058" unicode="ğ"/><glyph d="M866 1735q-39 0 -66.5 27.5t-27.5 66.5t27.5 65.5t66.5 26.5t67 -26.5t28 -65.5t-28 -66.5t-67 -27.5zM1640 729v-20q-119 -16 -154.5 -40t-35.5 -85v-584h-23q-31 84 -49 109.5t-53 25.5q-31 0 -105.5 -40t-184 -80t-228.5 -40q-291 0 -483.5 212t-192.5 536 q0 328 206 533.5t503 205.5q143 0 356 -86q68 -31 104.5 -21.5t67.5 83.5h23v-518h-25q-72 473 -518 473q-264 0 -414.5 -191.5t-150.5 -478.5q0 -281 147.5 -473.5t396.5 -192.5q264 0 492 183v344q0 59 -52.5 82.5t-222.5 42.5v20h596z" glyph-name="Gdotaccent" horiz-adv-x="1722" unicode="Ġ"/><glyph d="M547 1268q-39 0 -66.5 27.5t-27.5 66.5t27.5 65.5t66.5 26.5t66.5 -26.5t27.5 -65.5t-27.5 -66.5t-66.5 -27.5zM555 135q246 -16 355.5 -75.5t109.5 -184.5q0 -272 -506 -272q-481 0 -481 223q0 92 92 151.5t244 75.5q-180 43 -180.5 153.5t178.5 145.5q-100 33 -164 109 t-64 201q0 90 36 158.5t95.5 104.5t122 53t125.5 17q78 0 146 -22q106 145 247 145q53 0 87 -22.5t38 -61.5q4 -35 -14 -58.5t-51 -27.5q-80 -8 -156 86q-57 -29 -106 -78q188 -82 188 -294q0 -88 -35 -156t-92 -104.5t-118.5 -55t-125.5 -18.5q-117 0 -180 -26t-63 -69 q0 -78 272 -98zM254 662q0 -133 73.5 -201t190.5 -68t190.5 67.5t73.5 201.5q0 135 -73.5 202.5t-190.5 67.5t-190.5 -67.5t-73.5 -202.5zM514 -332q102 0 186 17.5t143.5 63.5t59.5 114q0 80 -76.5 112.5t-283.5 51.5q-12 0 -33 4q-342 -33 -342 -205q0 -158 346 -158z" glyph-name="gdotaccent" horiz-adv-x="1058" unicode="ġ"/><glyph d="M1640 729v-20q-119 -16 -154.5 -40t-35.5 -85v-584h-23q-31 84 -49 109.5t-53 25.5q-31 0 -105.5 -40t-184 -80t-228.5 -40q-291 0 -483.5 212t-192.5 536q0 328 206 533.5t503 205.5q143 0 356 -86q68 -31 104.5 -21.5t67.5 83.5h23v-518h-25q-72 473 -518 473 q-264 0 -414.5 -191.5t-150.5 -478.5q0 -281 147.5 -473.5t396.5 -192.5q264 0 492 183v344q0 59 -52.5 82.5t-222.5 42.5v20h596zM870 -117q104 0 105 -139q0 -115 -67.5 -188.5t-186.5 -96.5l-6 27q88 31 131 81t51 136q-14 -6 -33 -6q-41 0 -64.5 26.5t-23.5 67.5 q0 39 25.5 65.5t68.5 26.5z" glyph-name="Gcommaaccent" horiz-adv-x="1722" unicode="Ģ"/><glyph d="M520 1180q-104 0 -104 139q0 115 67.5 188.5t186.5 96.5l6 -27q-88 -31 -131 -81t-51 -136q16 6 32 6q41 0 64.5 -26.5t23.5 -67.5q0 -39 -25.5 -65.5t-68.5 -26.5zM555 135q246 -16 355.5 -75.5t109.5 -184.5q0 -272 -506 -272q-481 0 -481 223q0 92 92 151.5t244 75.5 q-180 43 -180.5 153.5t178.5 145.5q-100 33 -164 109t-64 201q0 90 36 158.5t95.5 104.5t122 53t125.5 17q78 0 146 -22q106 145 247 145q53 0 87 -22.5t38 -61.5q4 -35 -14 -58.5t-51 -27.5q-80 -8 -156 86q-57 -29 -106 -78q188 -82 188 -294q0 -88 -35 -156t-92 -104.5 t-118.5 -55t-125.5 -18.5q-117 0 -180 -26t-63 -69q0 -78 272 -98zM254 662q0 -133 73.5 -201t190.5 -68t190.5 67.5t73.5 201.5q0 135 -73.5 202.5t-190.5 67.5t-190.5 -67.5t-73.5 -202.5zM514 -332q102 0 186 17.5t143.5 63.5t59.5 114q0 80 -76.5 112.5t-283.5 51.5 q-12 0 -33 4q-342 -33 -342 -205q0 -158 346 -158z" glyph-name="gcommaaccent" horiz-adv-x="1058" unicode="ģ"/><glyph d="M1796 1417q-145 -16 -188 -39.5t-43 -85.5v-237h198v-66h-198v-844q0 -61 43 -83.5t188 -41.5v-20h-604v20q145 18 189 42t44 83v441h-907v-441q0 -61 44 -83.5t188 -41.5v-20h-605v20q145 18 189.5 42t44.5 83v844h-199v66h199v237q0 59 -44 83t-190 42v21h605v-21 q-143 -18 -187.5 -40.5t-44.5 -84.5v-237h907v237q0 59 -44 83t-189 42v21h604v-21zM1425 651v338h-907v-338h907z" glyph-name="Hbar" horiz-adv-x="1941" unicode="Ħ"/><glyph d="M1100 145q0 -61 35.5 -83.5t154.5 -41.5v-20h-508v20q119 18 155 41t36 84v471q0 301 -228 302q-260 0 -362 -320v-453q0 -61 36 -83.5t154 -41.5v-20h-507v20q119 18 155.5 42t36.5 83v1010h-162v68h162v82q0 55 -29.5 72.5t-148.5 35.5v21l303 82v-293h551v-68h-551 v-465q53 152 153.5 228.5t225.5 76.5q338 0 338 -354v-496z" glyph-name="hbar" horiz-adv-x="1353" unicode="ħ"/><glyph d="M162 1872h573v-68h-573v68zM750 1417q-145 -16 -188.5 -39.5t-43.5 -85.5v-1147q0 -61 43 -83.5t189 -41.5v-20h-605v20q145 18 189.5 42t44.5 83v1147q0 59 -44 83t-190 42v21h605v-21z" glyph-name="Imacron" horiz-adv-x="894" unicode="Ī"/><glyph d="M74 1405h573v-68h-573v68zM438 145q0 -61 36 -83.5t155 -41.5v-20h-508v20q119 18 155.5 42t36.5 83v629q0 55 -29.5 72.5t-148.5 36.5v20l303 82v-840z" glyph-name="imacron" horiz-adv-x="718" unicode="ī"/><glyph d="M805 -260l10 -6q-72 -139 -227 -140q-61 0 -100 35t-39 101q0 84 61 154.5t158 115.5h-523v20q145 18 189.5 42t44.5 83v1147q0 59 -44 83t-190 42v21h605v-21q-145 -16 -188.5 -39.5t-43.5 -85.5v-1147q0 -57 40 -80.5t167 -39.5q37 10 63 16l17 -21q-252 -98 -252 -272 q0 -86 82 -86q102 0 170 78z" glyph-name="Iogonek" horiz-adv-x="894" unicode="Į"/><glyph d="M360.5 1268q-38.5 0 -66.5 27.5t-28 66.5t28 65.5t66.5 26.5t66.5 -26.5t28 -65.5t-28 -66.5t-66.5 -27.5zM647 -260l10 -6q-72 -139 -227 -140q-61 0 -100 35t-39 101q0 84 61.5 154.5t157.5 115.5h-389v20q119 18 155.5 42t36.5 83v629q0 55 -29.5 72.5t-148.5 36.5v20 l303 82v-840q0 -55 29 -77.5t115 -38.5l49 12l16 -21q-12 -4 -18 -8v-12h-29q-205 -96 -205 -252q0 -86 82 -86q102 0 170 78z" glyph-name="iogonek" horiz-adv-x="718" unicode="į"/><glyph d="M448.5 1735q-38.5 0 -66.5 27.5t-28 66.5t28 65.5t66.5 26.5t66.5 -26.5t28 -65.5t-28 -66.5t-66.5 -27.5zM750 1417q-145 -16 -188.5 -39.5t-43.5 -85.5v-1147q0 -61 43 -83.5t189 -41.5v-20h-605v20q145 18 189.5 42t44.5 83v1147q0 59 -44 83t-190 42v21h605v-21z" glyph-name="Idotaccent" horiz-adv-x="894" unicode="İ"/><glyph d="M438 145q0 -61 36 -83.5t155 -41.5v-20h-508v20q119 18 155.5 42t36.5 83v629q0 55 -29.5 72.5t-148.5 36.5v20l303 82v-840z" glyph-name="dotlessi" horiz-adv-x="718" unicode="ı"/><glyph d="M1450 199q57 -78 113.5 -120t160.5 -59v-20h-612v20q76 10 121 22.5t68.5 33t18.5 50.5t-38 73l-457 622l-307 -268v-408q0 -61 44 -83.5t188 -41.5v-20h-605v20q145 18 189.5 42t44.5 83v1147q0 59 -44 83t-190 42v21h605v-21q-143 -18 -187.5 -40.5t-44.5 -84.5v-653 l666 590q90 78 69.5 124t-153.5 64v21h575v-21q-113 -16 -198.5 -59t-180.5 -125l-368 -324zM897 -117q104 0 104 -139q0 -115 -67.5 -188.5t-185.5 -96.5l-7 27q88 31 131 81t52 136q-14 -6 -33 -6q-41 0 -64.5 26.5t-23.5 67.5q0 39 25.5 65.5t68.5 26.5z" glyph-name="Kcommaaccent" horiz-adv-x="1785" unicode="Ķ"/><glyph d="M993 201q57 -92 103.5 -125t142.5 -56v-20h-498v20q123 20 147.5 55.5t-32.5 131.5l-229 354l-244 -194v-222q0 -61 36 -83.5t154 -41.5v-20h-507v20q119 18 155.5 42t36.5 83v1182q0 55 -29.5 73.5t-148.5 35.5v20l303 82v-1092l469 371q63 55 39.5 85t-133.5 48v21h459 v-21q-147 -37 -291 -151l-203 -162zM639 -117q104 0 104 -139q0 -115 -67.5 -188.5t-186.5 -96.5l-6 27q88 31 131 81t52 136q-14 -6 -33 -6q-41 0 -64.5 26.5t-23.5 67.5q0 39 25.5 65.5t68.5 26.5z" glyph-name="kcommaaccent" horiz-adv-x="1267" unicode="ķ"/><glyph d="M645 1880l-199 -270l-10 6l115 317q37 102 98 78q33 -12 31 -49t-35 -82zM1364 516h27l-41 -516h-1205v20q145 18 189.5 42t44.5 83v1147q0 59 -44 83t-190 42v21h707v-21q-211 -16 -272.5 -42.5t-61.5 -102.5v-1209h438q182 0 265.5 98.5t142.5 354.5z" glyph-name="Lacute" horiz-adv-x="1447" unicode="Ĺ"/><glyph d="M508 1958l-199 -270l-10 6l115 317q37 102 98 78q33 -12 31 -49t-35 -82zM383 145q0 -61 36 -83.5t154 -41.5v-20h-507v20q119 18 155.5 42t36.5 83v1182q0 55 -29.5 73.5t-148.5 35.5v20l303 82v-1393z" glyph-name="lacute" horiz-adv-x="651" unicode="ĺ"/><glyph d="M1364 516h27l-41 -516h-1205v20q145 18 189.5 42t44.5 83v1147q0 59 -44 83t-190 42v21h707v-21q-211 -16 -272.5 -42.5t-61.5 -102.5v-1209h438q182 0 265.5 98.5t142.5 354.5zM750 -117q104 0 104 -139q0 -115 -67.5 -188.5t-186.5 -96.5l-6 27q88 31 131 81t51 136 q-14 -6 -33 -6q-41 0 -64.5 26.5t-23.5 67.5q0 39 26 65.5t69 26.5z" glyph-name="Lcommaaccent" horiz-adv-x="1447" unicode="Ļ"/><glyph d="M383 145q0 -61 36 -83.5t154 -41.5v-20h-507v20q119 18 155.5 42t36.5 83v1182q0 55 -29.5 73.5t-148.5 35.5v20l303 82v-1393zM330 -117q104 0 104 -139q0 -115 -67.5 -188.5t-186.5 -96.5l-6 27q88 31 131 81t51 136q-14 -6 -32 -6q-41 0 -64.5 26.5t-23.5 67.5 q0 39 25.5 65.5t68.5 26.5z" glyph-name="lcommaaccent" horiz-adv-x="651" unicode="ļ"/><glyph d="M1225 1296l-88 -376h-17l17 397q4 80 17 112.5t46 32.5q64 0 25 -166zM1364 516h27l-41 -516h-1205v20q145 18 189.5 42t44.5 83v1147q0 59 -44 83t-190 42v21h707v-21q-211 -16 -272.5 -42.5t-61.5 -102.5v-1209h438q182 0 265.5 98.5t142.5 354.5z" glyph-name="Lcaron" horiz-adv-x="1447" unicode="Ľ"/><glyph d="M717 1540q63 0 24 -166l-88 -377h-16l16 398q4 80 17.5 112.5t46.5 32.5zM383 145q0 -61 36 -83.5t154 -41.5v-20h-507v20q119 18 155.5 42t36.5 83v1182q0 55 -29.5 73.5t-148.5 35.5v20l303 82v-1393z" glyph-name="lcaron" horiz-adv-x="651" unicode="ľ"/><glyph d="M1364 516h27l-41 -516h-1205v20q145 18 189.5 42t44.5 83v525l-256 -68l-17 57l273 72v561q0 59 -44 83t-190 42v21h707v-21q-211 -16 -272.5 -42.5t-61.5 -102.5v-504l488 129l14 -57l-502 -133v-644h438q182 0 265.5 98.5t142.5 354.5z" glyph-name="Lslash" horiz-adv-x="1488" unicode="Ł"/><glyph d="M453 145q0 -61 35.5 -83.5t154.5 -41.5v-20h-508v20q119 18 156 42t37 83v652l-285 -109l-25 64l310 118v457q0 55 -30 73.5t-148 35.5v20l303 82v-620l301 114l24 -63l-325 -125v-699z" glyph-name="lslash" horiz-adv-x="786" unicode="ł"/><glyph d="M1130 1880l-198 -270l-10 6l114 317q37 102 99 78q33 -12 30.5 -49t-35.5 -82zM1208 1438h584v-21q-117 -23 -175 -65.5t-58 -153.5v-1198h-142l-981 1321v-1081q0 -57 20.5 -98.5t62.5 -64t83 -34.5t107 -23v-20h-584v20q117 23 175 66t58 154v1052q0 59 -44 83t-189 42 v21h391l965 -1297v1057q0 57 -20.5 98t-62.5 63.5t-83 35t-107 22.5v21z" glyph-name="Nacute" horiz-adv-x="1894" unicode="Ń"/><glyph d="M887 1413l-199 -270l-10 6l115 317q37 102 98 78q33 -12 31 -49t-35 -82zM1155 145q0 -61 36 -83.5t155 -41.5v-20h-508v20q119 18 154.5 41t35.5 84v463q0 172 -58.5 241t-160.5 69q-117 0 -215 -81t-156 -245v-447q0 -61 36 -83.5t155 -41.5v-20h-508v20 q119 18 155.5 42t36.5 83v629q0 55 -30.5 72.5t-155.5 36.5v20l311 82v-276q59 135 157.5 210.5t229.5 75.5q139 0 234.5 -82t95.5 -280v-488z" glyph-name="nacute" horiz-adv-x="1409" unicode="ń"/><glyph d="M1208 1438h584v-21q-117 -23 -175 -65.5t-58 -153.5v-1198h-142l-981 1321v-1081q0 -57 20.5 -98.5t62.5 -64t83 -34.5t107 -23v-20h-584v20q117 23 175 66t58 154v1052q0 59 -44 83t-189 42v21h391l965 -1297v1057q0 57 -20.5 98t-62.5 63.5t-83 35t-107 22.5v21z M952 -117q104 0 105 -139q0 -115 -67.5 -188.5t-186.5 -96.5l-6 27q88 31 131 81t51 136q-14 -6 -33 -6q-41 0 -64.5 26.5t-23.5 67.5q0 39 25.5 65.5t68.5 26.5z" glyph-name="Ncommaaccent" horiz-adv-x="1894" unicode="Ņ"/><glyph d="M1155 145q0 -61 36 -83.5t155 -41.5v-20h-508v20q119 18 154.5 41t35.5 84v463q0 172 -58.5 241t-160.5 69q-117 0 -215 -81t-156 -245v-447q0 -61 36 -83.5t155 -41.5v-20h-508v20q119 18 155.5 42t36.5 83v629q0 55 -30.5 72.5t-155.5 36.5v20l311 82v-276 q59 135 157.5 210.5t229.5 75.5q139 0 234.5 -82t95.5 -280v-488zM733 -117q104 0 105 -139q0 -115 -68 -188.5t-186 -96.5l-6 27q88 31 131 81t51 136q-14 -6 -33 -6q-41 0 -64.5 26.5t-23.5 67.5q0 39 25.5 65.5t68.5 26.5z" glyph-name="ncommaaccent" horiz-adv-x="1409" unicode="ņ"/><glyph d="M948 1632q-49 0 -98 86l-143 250l10 6l231 -221l230 221l10 -6l-144 -250q-49 -86 -96 -86zM1208 1438h584v-21q-117 -23 -175 -65.5t-58 -153.5v-1198h-142l-981 1321v-1081q0 -57 20.5 -98.5t62.5 -64t83 -34.5t107 -23v-20h-584v20q117 23 175 66t58 154v1052 q0 59 -44 83t-189 42v21h391l965 -1297v1057q0 57 -20.5 98t-62.5 63.5t-83 35t-107 22.5v21z" glyph-name="Ncaron" horiz-adv-x="1894" unicode="Ň"/><glyph d="M705 1165q-49 0 -99 86l-143 250l10 6l232 -221l229 221l10 -6l-143 -250q-49 -86 -96 -86zM1155 145q0 -61 36 -83.5t155 -41.5v-20h-508v20q119 18 154.5 41t35.5 84v463q0 172 -58.5 241t-160.5 69q-117 0 -215 -81t-156 -245v-447q0 -61 36 -83.5t155 -41.5v-20h-508 v20q119 18 155.5 42t36.5 83v629q0 55 -30.5 72.5t-155.5 36.5v20l311 82v-276q59 135 157.5 210.5t229.5 75.5q139 0 234.5 -82t95.5 -280v-488z" glyph-name="ncaron" horiz-adv-x="1409" unicode="ň"/><glyph d="M1208 1438h584v-21q-117 -23 -175 -65.5t-58 -153.5v-1094q0 -252 -99.5 -376.5t-247.5 -124.5q-90 0 -143 41t-53 96q0 39 20.5 62.5t59.5 23.5q98 0 192 -148q150 55 182 248l-1034 1395v-1081q0 -57 20.5 -98.5t62.5 -64t83 -34.5t107 -23v-20h-584v20q117 23 175 66 t58 154v1052q0 59 -44 83t-189 42v21h391l965 -1297v1057q0 57 -20.5 98t-62.5 63.5t-83 35t-107 22.5v21z" glyph-name="Eng" horiz-adv-x="1894" unicode="Ŋ"/><glyph d="M827 995q137 0 232.5 -82t95.5 -280v-529q0 -252 -100.5 -376.5t-251.5 -124.5q-78 0 -120 27.5t-42 72.5q0 31 20.5 51.5t53.5 20.5q80 0 172 -107q141 80 141 377v563q0 172 -58.5 241t-158.5 69q-117 0 -216 -81t-157 -245v-447q0 -61 36 -83.5t155 -41.5v-20h-508v20 q119 18 155.5 42t36.5 83v629q0 55 -30.5 72.5t-155.5 36.5v20l311 82v-289q123 299 389 299z" glyph-name="eng" horiz-adv-x="1409" unicode="ŋ"/><glyph d="M575 1872h574v-68h-574v68zM862 -25q-305 0 -518 202t-213 544t213 541.5t518 199.5t518 -199.5t213 -541.5t-213 -544t-518 -202zM862 45q258 0 419 189.5t161 486.5t-161 484.5t-419 187.5t-418.5 -187.5t-160.5 -484.5t160.5 -486.5t418.5 -189.5z" glyph-name="Omacron" horiz-adv-x="1724" unicode="Ō"/><glyph d="M328 1405h573v-68h-573v68zM614 -25q-215 0 -359 132.5t-144 376t144 377.5t359 134t359.5 -134t144.5 -377.5t-144.5 -376t-359.5 -132.5zM614 43q174 0 268.5 118t94.5 322q0 209 -94.5 327t-268.5 118t-268 -118t-94 -327q0 -205 94 -322.5t268 -117.5z" glyph-name="omacron" horiz-adv-x="1228" unicode="ō"/><glyph d="M774 1612l-12 2l14 313q6 104 70 105q35 0 45 -37t-8 -88zM999 1612l-10 6l139 283q47 94 105 67q31 -14 25.5 -51t-41.5 -78zM862 -25q-305 0 -518 202t-213 544t213 541.5t518 199.5t518 -199.5t213 -541.5t-213 -544t-518 -202zM862 45q258 0 419 189.5t161 486.5 t-161 484.5t-419 187.5t-418.5 -187.5t-160.5 -484.5t160.5 -486.5t418.5 -189.5z" glyph-name="Ohungarumlaut" horiz-adv-x="1724" unicode="Ő"/><glyph d="M526 1145l-12 2l14 313q6 104 70 105q35 0 45 -37t-8 -88zM752 1145l-11 6l140 283q47 94 104 67q31 -14 26 -51t-42 -78zM614 -25q-215 0 -359 132.5t-144 376t144 377.5t359 134t359.5 -134t144.5 -377.5t-144.5 -376t-359.5 -132.5zM614 43q174 0 268.5 118t94.5 322 q0 209 -94.5 327t-268.5 118t-268 -118t-94 -327q0 -205 94 -322.5t268 -117.5z" glyph-name="ohungarumlaut" horiz-adv-x="1228" unicode="ő"/><glyph d="M2181 475h25l-41 -475h-1282q-319 0 -535.5 194.5t-216.5 526.5t216 524.5t536 192.5h1253v-477h-25q-27 246 -102.5 328.5t-265.5 82.5h-430v-594h268q139 0 193.5 66.5t72.5 263.5h25v-729h-25q-18 199 -72.5 265.5t-193.5 66.5h-268v-648h459q190 0 279 89.5 t130 322.5zM924 63h250v1309h-250q-301 0 -471 -179t-170 -472q0 -295 171 -476.5t470 -181.5z" glyph-name="OE" horiz-adv-x="2324" unicode="Œ"/><glyph d="M1446 995q193 0 318.5 -130t119.5 -392h-764q4 -199 93.5 -313.5t269.5 -114.5q233 0 342 141l39 -34q-145 -176 -400 -177q-135 0 -243.5 58.5t-171.5 169.5q-66 -111 -180.5 -169.5t-254.5 -58.5q-215 0 -359 132.5t-144 376t144 377.5t359 134q137 0 251 -57t179 -166 q61 109 168 166t234 57zM614 43q174 0 268.5 118t94.5 322q0 209 -94.5 327t-268.5 118t-268 -118t-94 -327q0 -205 94 -322.5t268 -117.5zM1446 928q-145 0 -230.5 -104.5t-95.5 -286.5h621q-4 184 -81 287.5t-214 103.5z" glyph-name="oe" horiz-adv-x="1982" unicode="œ"/><glyph d="M958 1880l-198 -270l-10 6l114 317q37 102 99 78q33 -12 30.5 -49t-35.5 -82zM1567 223l22 -10q-61 -238 -246 -238q-104 0 -165.5 77t-98.5 278q-16 90 -45.5 159.5t-71.5 109.5t-80 65.5t-91.5 35t-86 12.5t-81.5 3h-113v-549q0 -76 44 -101.5t189 -44.5v-20h-598v20 q145 18 189.5 42t44.5 83v1147q0 59 -44 83t-190 42v21h725q461 0 461 -348q0 -166 -132 -260.5t-376 -102.5q141 -20 241.5 -95t139.5 -249q45 -201 78 -266.5t100 -65.5q109 0 185 172zM510 774h278q201 0 303.5 94.5t102.5 221.5q0 283 -342 282h-342v-598z" glyph-name="Racute" horiz-adv-x="1589" unicode="Ŕ"/><glyph d="M672 1413l-199 -270l-10 6l115 317q37 102 98 78q33 -12 31 -49t-35 -82zM756 995q70 0 105.5 -29.5t35.5 -74.5q0 -41 -21.5 -63.5t-56.5 -22.5q-76 0 -137 106q-74 -27 -139.5 -119t-104.5 -247v-400q0 -61 47 -83.5t201 -41.5v-20h-565v20q119 18 155.5 42t36.5 83 v629q0 55 -29.5 72.5t-154.5 36.5v20l309 82v-287q47 143 131.5 220t186.5 77z" glyph-name="racute" horiz-adv-x="901" unicode="ŕ"/><glyph d="M1567 223l22 -10q-61 -238 -246 -238q-104 0 -165.5 77t-98.5 278q-16 90 -45.5 159.5t-71.5 109.5t-80 65.5t-91.5 35t-86 12.5t-81.5 3h-113v-549q0 -76 44 -101.5t189 -44.5v-20h-598v20q145 18 189.5 42t44.5 83v1147q0 59 -44 83t-190 42v21h725q461 0 461 -348 q0 -166 -132 -260.5t-376 -102.5q141 -20 241.5 -95t139.5 -249q45 -201 78 -266.5t100 -65.5q109 0 185 172zM510 774h278q201 0 303.5 94.5t102.5 221.5q0 283 -342 282h-342v-598zM780 -117q104 0 105 -139q0 -115 -67.5 -188.5t-186.5 -96.5l-6 27q88 31 131 81t51 136 q-16 -6 -33 -6q-41 0 -64.5 26.5t-23.5 67.5q0 39 25.5 65.5t68.5 26.5z" glyph-name="Rcommaaccent" horiz-adv-x="1589" unicode="Ŗ"/><glyph d="M756 995q70 0 105.5 -29.5t35.5 -74.5q0 -41 -21.5 -63.5t-56.5 -22.5q-76 0 -137 106q-74 -27 -139.5 -119t-104.5 -247v-400q0 -61 47 -83.5t201 -41.5v-20h-565v20q119 18 155.5 42t36.5 83v629q0 55 -29.5 72.5t-154.5 36.5v20l309 82v-287q47 143 131.5 220 t186.5 77zM399 -117q104 0 105 -139q0 -115 -67.5 -188.5t-186.5 -96.5l-6 27q88 31 131 81t51 136q-14 -6 -33 -6q-41 0 -64.5 26.5t-23.5 67.5q0 39 25.5 65.5t68.5 26.5z" glyph-name="rcommaaccent" horiz-adv-x="901" unicode="ŗ"/><glyph d="M776 1632q-49 0 -98 86l-143 250l10 6l231 -221l230 221l10 -6l-144 -250q-49 -86 -96 -86zM1567 223l22 -10q-61 -238 -246 -238q-104 0 -165.5 77t-98.5 278q-16 90 -45.5 159.5t-71.5 109.5t-80 65.5t-91.5 35t-86 12.5t-81.5 3h-113v-549q0 -76 44 -101.5t189 -44.5 v-20h-598v20q145 18 189.5 42t44.5 83v1147q0 59 -44 83t-190 42v21h725q461 0 461 -348q0 -166 -132 -260.5t-376 -102.5q141 -20 241.5 -95t139.5 -249q45 -201 78 -266.5t100 -65.5q109 0 185 172zM510 774h278q201 0 303.5 94.5t102.5 221.5q0 283 -342 282h-342v-598z " glyph-name="Rcaron" horiz-adv-x="1589" unicode="Ř"/><glyph d="M489 1165q-49 0 -98 86l-143 250l10 6l231 -221l230 221l10 -6l-143 -250q-50 -86 -97 -86zM756 995q70 0 105.5 -29.5t35.5 -74.5q0 -41 -21.5 -63.5t-56.5 -22.5q-76 0 -137 106q-74 -27 -139.5 -119t-104.5 -247v-400q0 -61 47 -83.5t201 -41.5v-20h-565v20 q119 18 155.5 42t36.5 83v629q0 55 -29.5 72.5t-154.5 36.5v20l309 82v-287q47 143 131.5 220t186.5 77z" glyph-name="rcaron" horiz-adv-x="901" unicode="ř"/><glyph d="M858 2011q33 -12 31 -49t-35 -82l-199 -270l-10 6l115 317q37 103 98 78zM1100 336q-2 137 -108.5 211t-346.5 127q-111 25 -188.5 55.5t-147 79.5t-104.5 124t-35 177q0 156 116.5 254t299.5 98q184 0 360 -92q84 -43 118 -30.5t58 98.5h19v-559h-25q-45 514 -516 514 q-156 0 -236.5 -75t-80.5 -194q0 -139 95 -208.5t304 -116.5q266 -61 398 -156.5t132 -282.5q0 -178 -133 -281.5t-327 -103.5q-90 0 -168 17.5t-110 32t-103 49.5q-86 37 -112 22.5t-62 -96.5h-19v559h25q43 -514 504 -514q186 0 290.5 79t102.5 212z" glyph-name="Sacute" horiz-adv-x="1343" unicode="Ś"/><glyph d="M678 1413l-199 -270l-10 6l115 317q37 102 98 78q33 -12 31 -49t-35 -82zM498 561q199 -47 276.5 -121.5t77.5 -197.5q0 -135 -96.5 -201t-237.5 -66q-207 0 -321 127l-47 -102h-37v395h45q8 -160 93 -256t255 -96q96 0 165.5 46t69.5 134q0 82 -62.5 131t-227.5 88 q-174 41 -251 117t-77 193q0 106 81 174.5t234 68.5q188 0 305 -116l35 92h37v-375h-45q-16 182 -94 257t-238 75q-100 0 -152.5 -43t-52.5 -119q0 -74 57.5 -122t207.5 -83z" glyph-name="sacute" horiz-adv-x="989" unicode="ś"/><glyph d="M752 -25q-37 0 -56 2l-18 -108q264 16 264 -141q0 -68 -52 -109t-147 -41q-178 0 -270 139l14 19q80 -84 224 -84q55 0 90 20.5t35 57.5q0 90 -224 86l-2 18l27 148q-119 16 -266 92q-86 37 -112 22.5t-62 -96.5h-19v559h25q43 -514 504 -514q186 0 290.5 79t102.5 212 q-2 137 -108.5 211t-346.5 127q-111 25 -188.5 55.5t-147 79.5t-104.5 124t-35 177q0 156 116.5 254t299.5 98q184 0 360 -92q84 -43 118 -30.5t58 98.5h19v-559h-25q-45 514 -516 514q-156 0 -236.5 -75t-80.5 -194q0 -139 95 -208.5t304 -116.5q266 -61 398 -156.5 t132 -282.5q0 -178 -132.5 -281.5t-327.5 -103.5z" glyph-name="Scedilla" horiz-adv-x="1343" unicode="Ş"/><glyph d="M852 242q0 -135 -96.5 -201t-235.5 -66l-18 -106q264 16 264 -141q0 -68 -52 -109t-147 -41q-178 0 -270 139l14 19q80 -84 224 -84q55 0 89.5 20.5t34.5 57.5q0 90 -223 86l-2 18l25 146q-168 16 -262 122l-47 -102h-37v395h45q8 -160 93 -256t255 -96q96 0 165.5 46 t69.5 134q0 82 -62.5 131t-227.5 88q-174 41 -251 117t-77 193q0 106 81 174.5t234 68.5q188 0 305 -116l35 92h37v-375h-45q-16 182 -94 257t-238 75q-100 0 -152.5 -43t-52.5 -119q0 -74 57.5 -122t207.5 -83q199 -47 276.5 -121.5t77.5 -197.5z" glyph-name="scedilla" horiz-adv-x="989" unicode="ş"/><glyph d="M672 1632q-49 0 -99 86l-143 250l10 6l232 -221l229 221l10 -6l-143 -250q-49 -86 -96 -86zM682 799q266 -61 398 -156.5t132 -282.5q0 -178 -133 -281.5t-327 -103.5q-90 0 -168 17.5t-110 32t-103 49.5q-86 37 -112 22.5t-62 -96.5h-19v559h25q43 -514 504 -514 q186 0 290.5 79t102.5 212q-2 137 -108.5 211t-346.5 127q-111 25 -188.5 55.5t-147 79.5t-104.5 124t-35 177q0 156 116.5 254t299.5 98q184 0 360 -92q84 -43 118 -30.5t58 98.5h19v-559h-25q-45 514 -516 514q-156 0 -236.5 -75t-80.5 -194q0 -139 95 -208.5t304 -116.5z " glyph-name="Scaron" horiz-adv-x="1343" unicode="Š"/><glyph d="M496 1165q-49 0 -99 86l-143 250l10 6l232 -221l229 221l10 -6l-143 -250q-49 -86 -96 -86zM498 561q199 -47 276.5 -121.5t77.5 -197.5q0 -135 -96.5 -201t-237.5 -66q-207 0 -321 127l-47 -102h-37v395h45q8 -160 93 -256t255 -96q96 0 165.5 46t69.5 134 q0 82 -62.5 131t-227.5 88q-174 41 -251 117t-77 193q0 106 81 174.5t234 68.5q188 0 305 -116l35 92h37v-375h-45q-16 182 -94 257t-238 75q-100 0 -152.5 -43t-52.5 -119q0 -74 57.5 -122t207.5 -83z" glyph-name="scaron" horiz-adv-x="989" unicode="š"/><glyph d="M1282 1438v-477h-25q-16 176 -55 264t-99.5 117.5t-172.5 29.5h-191v-1227q0 -59 52.5 -82.5t222.5 -42.5v-20h-316l-22 -131q264 16 264 -141q0 -68 -52 -109t-147 -41q-178 0 -270 139l14 19q80 -84 224 -84q55 0 90 20.5t35 57.5q0 90 -224 86l-2 18l29 166h-311v20 q170 18 222 42t52 83v1227h-190q-113 0 -173.5 -29.5t-99.5 -117.5t-55 -264h-25v477h1225z" glyph-name="Tcommaaccent" horiz-adv-x="1339" unicode="Ţ"/><glyph d="M535 -131q264 16 264 -141q0 -68 -52.5 -109t-146.5 -41q-178 0 -270 139l14 19q80 -84 223 -84q55 0 90 20.5t35 57.5q0 90 -223 86l-2 18l25 141q-141 2 -198.5 79t-57.5 237v618h-166v62h166l86 264h38v-264h396v-62h-396v-657q0 -205 168 -205q154 0 277 148l29 -25 q-111 -170 -281 -190z" glyph-name="tcommaaccent" horiz-adv-x="849" unicode="ţ"/><glyph d="M670 1632q-49 0 -99 86l-143 250l10 6l232 -221l229 221l10 -6l-143 -250q-49 -86 -96 -86zM1282 1438v-477h-25q-16 176 -55 264t-99.5 117.5t-172.5 29.5h-191v-1227q0 -59 52.5 -82.5t222.5 -42.5v-20h-688v20q170 18 222 42t52 83v1227h-190q-113 0 -173.5 -29.5 t-99.5 -117.5t-55 -264h-25v477h1225z" glyph-name="Tcaron" horiz-adv-x="1339" unicode="Ť"/><glyph d="M664 1415l-103 -336h-16l30 357q6 80 21.5 112.5t48.5 32.5q70 0 19 -166zM805 195l29 -25q-125 -195 -334 -195q-145 0 -204.5 78t-59.5 238v618h-166v62h166l86 264h38v-264h396v-62h-396v-657q0 -205 168 -205q154 1 277 148z" glyph-name="tcaron" horiz-adv-x="849" unicode="ť"/><glyph d="M1282 1438v-477h-25q-16 176 -55 264t-99.5 117.5t-172.5 29.5h-191v-745h451v-68h-451v-414q0 -59 52.5 -82.5t222.5 -42.5v-20h-688v20q170 18 222 42t52 83v414h-416v68h416v745h-190q-113 0 -173.5 -29.5t-99.5 -117.5t-55 -264h-25v477h1225z" glyph-name="Tbar" horiz-adv-x="1339" unicode="Ŧ"/><glyph d="M805 195l29 -25q-125 -195 -334 -195q-145 0 -204.5 78t-59.5 238v196h-158v62h158v360h-166v62h166l86 264h38v-264h396v-62h-396v-360h383v-62h-383v-235q0 -205 168 -205q154 1 277 148z" glyph-name="tbar" horiz-adv-x="854" unicode="ŧ"/><glyph d="M594 1872h573v-68h-573v68zM301 659v633q0 59 -41 83t-172 42v21h584v-21q-143 -18 -187.5 -40.5t-44.5 -84.5v-633q0 -311 107.5 -462.5t335 -151.5t334 150.5t106.5 463.5v633q0 59 -44 83t-189 42v21h583v-21q-133 -16 -172 -39.5t-39 -85.5v-633q0 -344 -154.5 -514 t-424.5 -170q-272 0 -427 170t-155 514z" glyph-name="Umacron" horiz-adv-x="1761" unicode="Ū"/><glyph d="M983 1405v-68h-573v68h573zM1098 145q0 -61 35.5 -83.5t154.5 -41.5v-20h-315v246q-57 -135 -155.5 -203t-219.5 -68q-340 0 -340 365v485q0 61 -36 84t-154 41v21h317v-606q0 -311 221 -312q258 0 367 287v485q0 61 -39 84t-168 41v21h332v-826z" glyph-name="umacron" horiz-adv-x="1380" unicode="ū"/><glyph d="M881 1599q-90 0 -151.5 57.5t-61.5 147.5t61.5 148.5t151.5 58.5t150.5 -57.5t60.5 -149.5q0 -90 -60.5 -147.5t-150.5 -57.5zM880.5 1647q63.5 0 109.5 42t46 115.5t-46 116.5t-109.5 43t-109.5 -43t-46 -116.5t46 -115.5t109.5 -42zM301 659v633q0 59 -41 83t-172 42 v21h584v-21q-143 -18 -187.5 -40.5t-44.5 -84.5v-633q0 -311 107.5 -462.5t335 -151.5t334 150.5t106.5 463.5v633q0 59 -44 83t-189 42v21h583v-21q-133 -16 -172 -39.5t-39 -85.5v-633q0 -344 -154.5 -514t-424.5 -170q-272 0 -427 170t-155 514z" glyph-name="Uring" horiz-adv-x="1761" unicode="Ů"/><glyph d="M696 1133q-90 0 -151.5 57t-61.5 147t61.5 148.5t151.5 58.5t150.5 -57t60.5 -150q0 -90 -60.5 -147t-150.5 -57zM696.5 1497q-63.5 0 -109.5 -43t-46 -116.5t46 -115.5t109.5 -42t109.5 42t46 115.5t-46 116.5t-109.5 43zM1098 145q0 -61 35.5 -83.5t154.5 -41.5v-20 h-315v246q-57 -135 -155.5 -203t-219.5 -68q-340 0 -340 365v485q0 61 -36 84t-154 41v21h317v-606q0 -311 221 -312q258 0 367 287v485q0 61 -39 84t-168 41v21h332v-826z" glyph-name="uring" horiz-adv-x="1380" unicode="ů"/><glyph d="M793 1612l-13 2l15 313q6 104 69 105q35 0 45.5 -37t-8.5 -88zM1018 1612l-10 6l139 283q47 94 104 67q31 -14 26 -51t-42 -78zM301 659v633q0 59 -41 83t-172 42v21h584v-21q-143 -18 -187.5 -40.5t-44.5 -84.5v-633q0 -311 107.5 -462.5t335 -151.5t334 150.5 t106.5 463.5v633q0 59 -44 83t-189 42v21h583v-21q-133 -16 -172 -39.5t-39 -85.5v-633q0 -344 -154.5 -514t-424.5 -170q-272 0 -427 170t-155 514z" glyph-name="Uhungarumlaut" horiz-adv-x="1761" unicode="Ű"/><glyph d="M717 1440l-109 -295l-12 2l14 313q6 104 70 105q35 0 45 -37t-8 -88zM1051 1372l-217 -227l-11 6l140 283q47 94 104 67q31 -14 26 -51t-42 -78zM1098 145q0 -61 35.5 -83.5t154.5 -41.5v-20h-315v246q-57 -135 -155.5 -203t-219.5 -68q-340 0 -340 365v485q0 61 -36 84 t-154 41v21h317v-606q0 -311 221 -312q258 0 367 287v485q0 61 -39 84t-168 41v21h332v-826z" glyph-name="uhungarumlaut" horiz-adv-x="1380" unicode="ű"/><glyph d="M1090 1438h583v-21q-133 -16 -172 -39.5t-39 -85.5v-633q0 -287 -108.5 -452.5t-302.5 -212.5q-252 -98 -252 -273q0 -86 82 -86q102 0 170 78l10 -6q-72 -139 -227 -139q-61 0 -100.5 35t-39.5 100q0 84 63.5 155.5t162.5 116.5h-37q-272 0 -427 170t-155 514v633 q0 59 -41 83t-172 42v21h584v-21q-143 -18 -187.5 -40.5t-44.5 -84.5v-633q0 -311 107.5 -462.5t335 -151.5t334 150.5t106.5 463.5v633q0 59 -44 83t-189 42v21z" glyph-name="Uogonek" horiz-adv-x="1761" unicode="Ų"/><glyph d="M1288 -281l10 -6q-72 -139 -227 -139q-61 0 -100 35t-39 100q0 94 77.5 172t190.5 119h-227v246q-57 -135 -155.5 -203t-219.5 -68q-340 0 -340 365v485q0 61 -36 84t-154 41v21h317v-606q0 -311 221 -312q258 0 367 287v485q0 61 -39 84t-168 41v21h332v-826 q0 -61 35.5 -83.5t154.5 -41.5v-20q-252 -98 -252 -272q0 -86 82 -86q102 -1 170 77z" glyph-name="uogonek" horiz-adv-x="1380" unicode="ų"/><glyph d="M1323 1853l-231 -221l-11 6l144 250q49 86 98 86q47 0 96 -86l144 -250l-11 -6zM2077 1438h540v-21q-90 -18 -135 -63t-90 -154l-500 -1200h-157l-412 1243l-412 -1243h-157l-500 1200q-51 125 -90 162t-135 55v21h610v-21q-184 -20 -236.5 -59t-3.5 -158l467 -1120 l367 1120q35 106 -16.5 152.5t-223.5 64.5v21h709v-21q-168 -20 -213 -57t-6 -160l366 -1120l467 1120q43 102 -11 150.5t-228 66.5v21z" glyph-name="Wcircumflex" horiz-adv-x="2646" unicode="Ŵ"/><glyph d="M983 1386l-231 -221l-11 6l144 250q49 86 98 86q47 0 96 -86l144 -250l-11 -6zM1493 971h426v-21q-45 -12 -63.5 -19t-45 -25.5t-44 -50.5t-37.5 -85l-308 -770h-131l-334 823l-331 -823h-131l-308 770q-35 96 -72.5 128t-117.5 52v21h471v-21q-119 -20 -155 -54t3 -132 l265 -680l352 887h90l354 -887l273 704q29 74 -9 108t-147 54v21z" glyph-name="wcircumflex" horiz-adv-x="1914" unicode="ŵ"/><glyph d="M799 1853l-232 -221l-10 6l143 250q49 86 99 86q47 0 96 -86l143 -250l-10 -6zM977 1438h512v-21q-84 -18 -140.5 -64t-138.5 -157l-385 -512v-539q0 -61 43 -83.5t189 -41.5v-20h-604v20q145 18 189 42t44 83v533l-375 522q-82 113 -138 156t-150 61v21h602v-21 q-154 -18 -190 -68.5t32 -148.5l321 -459l338 455q74 102 39 152.5t-188 68.5v21z" glyph-name="Ycircumflex" horiz-adv-x="1511" unicode="Ŷ"/><glyph d="M645 1386l-231 -221l-11 6l144 250q49 86 98 86q47 0 96 -86l144 -250l-11 -6zM797 971h440v-21q-84 -20 -123 -51t-84 -129l-287 -639q-229 -528 -524 -528q-76 0 -131 29.5t-55 91.5q0 33 20.5 55t55.5 22q106 0 182 -131q147 37 287 277l-375 823q-45 100 -83 130 t-124 50v21h487v-21q-115 -20 -154.5 -54t-6.5 -108l319 -716q4 8 7 16t8.5 18.5t7.5 16.5l274 620q25 55 27 91t-20.5 58.5t-56.5 35t-91 22.5v21z" glyph-name="ycircumflex" horiz-adv-x="1232" unicode="ŷ"/><glyph d="M596 1739q-37 0 -63.5 25.5t-26.5 64.5q0 37 26.5 62.5t63.5 25.5t63.5 -25.5t26.5 -62.5q0 -39 -26.5 -64.5t-63.5 -25.5zM1001.5 1739q-36.5 0 -63.5 25.5t-27 64.5q0 37 27 62.5t63.5 25.5t63.5 -25.5t27 -62.5q0 -39 -27 -64.5t-63.5 -25.5zM977 1438h512v-21 q-84 -18 -140.5 -64t-138.5 -157l-385 -512v-539q0 -61 43 -83.5t189 -41.5v-20h-604v20q145 18 189 42t44 83v533l-375 522q-82 113 -138 156t-150 61v21h602v-21q-154 -18 -190 -68.5t32 -148.5l321 -459l338 455q74 102 39 152.5t-188 68.5v21z" glyph-name="Ydieresis" horiz-adv-x="1511" unicode="Ÿ"/><glyph d="M877 2011q33 -12 30.5 -49t-35.5 -82l-198 -270l-10 6l114 317q38 103 99 78zM145 0v59l877 1313h-545q-123 0 -187.5 -30.5t-103.5 -123t-57 -278.5h-25v498h1086v-45l-885 -1327h574q123 0 187 30.5t103 122.5t58 279h24v-498h-1106z" glyph-name="Zacute" horiz-adv-x="1380" unicode="Ź"/><glyph d="M717 1544q33 -12 30.5 -49t-34.5 -82l-199 -270l-10 6l114 317q38 103 99 78zM291 61h340q139 0 185 57.5t75 235.5h45v-354h-797v47l623 862h-338q-135 0 -175 -57t-71 -236h-45v355h780v-47z" glyph-name="zacute" horiz-adv-x="1058" unicode="ź"/><glyph d="M690 1735q-39 0 -66.5 27.5t-27.5 66.5t27.5 65.5t66.5 26.5t66.5 -26.5t27.5 -65.5t-27.5 -66.5t-66.5 -27.5zM145 0v59l877 1313h-545q-123 0 -187.5 -30.5t-103.5 -123t-57 -278.5h-25v498h1086v-45l-885 -1327h574q123 0 187 30.5t103 122.5t58 279h24v-498h-1106z " glyph-name="Zdotaccent" horiz-adv-x="1380" unicode="Ż"/><glyph d="M530.5 1268q-38.5 0 -66.5 27.5t-28 66.5t28 65.5t66.5 26.5t66.5 -26.5t28 -65.5t-28 -66.5t-66.5 -27.5zM291 61h340q139 0 185 57.5t75 235.5h45v-354h-797v47l623 862h-338q-135 0 -175 -57t-71 -236h-45v355h780v-47z" glyph-name="zdotaccent" horiz-adv-x="1058" unicode="ż"/><glyph d="M690 1632q-49 0 -98 86l-143 250l10 6l231 -221l230 221l10 -6l-144 -250q-49 -86 -96 -86zM1227 498h24v-498h-1106v59l877 1313h-545q-123 0 -187.5 -30.5t-103.5 -123t-57 -278.5h-25v498h1086v-45l-885 -1327h574q123 0 187 30.5t103.5 123t57.5 278.5z" glyph-name="Zcaron" horiz-adv-x="1380" unicode="Ž"/><glyph d="M530 1165q-49 0 -98 86l-143 250l10 6l231 -221l230 221l10 -6l-143 -250q-50 -86 -97 -86zM891 354h45v-354h-797v47l623 862h-338q-135 0 -175 -57t-71 -236h-45v355h780v-47l-622 -863h340q139 0 185 57.5t75 235.5z" glyph-name="zcaron" horiz-adv-x="1058" unicode="ž"/><glyph d="M682 799q266 -61 398 -156.5t132 -282.5q0 -178 -133 -281.5t-327 -103.5q-90 0 -168 17.5t-110 32t-103 49.5q-86 37 -112 22.5t-62 -96.5h-19v559h25q43 -514 504 -514q186 0 290.5 79t102.5 212q-2 137 -108.5 211t-346.5 127q-111 25 -188.5 55.5t-147 79.5 t-104.5 124t-35 177q0 156 116.5 254t299.5 98q184 0 360 -92q84 -43 118 -30.5t58 98.5h19v-559h-25q-45 514 -516 514q-156 0 -236.5 -75t-80.5 -194q0 -139 95 -208.5t304 -116.5zM676 -117q104 0 104 -139q0 -115 -67.5 -188.5t-186.5 -96.5l-6 27q88 31 131 81t51 136 q-14 -6 -32 -6q-41 0 -64.5 26.5t-23.5 67.5q0 39 25.5 65.5t68.5 26.5z" glyph-name="Scommaaccent" horiz-adv-x="1343" unicode="Ș"/><glyph d="M498 561q199 -47 276.5 -121.5t77.5 -197.5q0 -135 -96.5 -201t-237.5 -66q-207 0 -321 127l-47 -102h-37v395h45q8 -160 93 -256t255 -96q96 0 165.5 46t69.5 134q0 82 -62.5 131t-227.5 88q-174 41 -251 117t-77 193q0 106 81 174.5t234 68.5q188 0 305 -116l35 92h37 v-375h-45q-16 182 -94 257t-238 75q-100 0 -152.5 -43t-52.5 -119q0 -74 57.5 -122t207.5 -83zM500 -117q104 0 104 -139q0 -115 -67.5 -188.5t-186.5 -96.5l-6 27q88 31 131 81t51 136q-14 -6 -32 -6q-41 0 -64.5 26.5t-23.5 67.5q0 39 25.5 65.5t68.5 26.5z" glyph-name="scommaaccent" horiz-adv-x="989" unicode="ș"/><glyph d="M1282 1438v-477h-25q-16 176 -55 264t-99.5 117.5t-172.5 29.5h-191v-1227q0 -59 52.5 -82.5t222.5 -42.5v-20h-688v20q170 18 222 42t52 83v1227h-190q-113 0 -173.5 -29.5t-99.5 -117.5t-55 -264h-25v477h1225zM674 -117q104 0 104 -139q0 -115 -67.5 -188.5 t-186.5 -96.5l-6 27q88 31 131 81t51 136q-16 -6 -32 -6q-41 0 -64.5 26.5t-23.5 67.5q0 39 25.5 65.5t68.5 26.5z" glyph-name="uni021A" horiz-adv-x="1339" unicode="Ț"/><glyph d="M805 195l29 -25q-125 -195 -334 -195q-145 0 -204.5 78t-59.5 238v618h-166v62h166l86 264h38v-264h396v-62h-396v-657q0 -205 168 -205q154 1 277 148zM532 -117q104 0 105 -139q0 -115 -67.5 -188.5t-186.5 -96.5l-6 27q88 31 131 81t51 136q-14 -6 -33 -6 q-41 0 -64.5 26.5t-23.5 67.5q0 39 25.5 65.5t68.5 26.5z" glyph-name="uni021B" horiz-adv-x="849" unicode="ț"/><glyph d="M-315 1544q61 25 98 -78l115 -317l-11 -6l-198 270q-33 45 -35 82t31 49z" glyph-name="gravecomb" unicode="̀"/><glyph d="M-100 1544q33 -12 30.5 -49t-34.5 -82l-199 -270l-10 6l114 317q38 103 99 78z" glyph-name="acutecomb" unicode="́"/><glyph d="M-102 1171l-11 -6l-229 221l-231 -221l-11 6l144 250q49 86 98 86q47 0 96 -86z" glyph-name="uni0302" unicode="̂"/><glyph d="M-756 1247l-14 4q53 188 199 189q70 0 156.5 -53.5t135.5 -53.5q55 0 89 26.5t73 86.5l15 -4q-25 -80 -78 -134.5t-121 -54.5q-78 0 -162 53.5t-131 53.5q-55 0 -89 -27t-73 -86z" glyph-name="tildecomb" unicode="̃"/><glyph d="M-676 1405h574v-68h-574v68z" glyph-name="uni0304" unicode="̄"/><glyph d="M-506 1448q4 -78 58.5 -135.5t140.5 -57.5t140 57.5t58 135.5h21q-4 -125 -59.5 -199.5t-160 -74.5t-160.5 75.5t-60 198.5h22z" glyph-name="uni0306" unicode="̆"/><glyph d="M-197 1268q-39 0 -66.5 27.5t-27.5 66.5t27.5 65.5t66.5 26.5t67 -26.5t28 -65.5t-28 -66.5t-67 -27.5z" glyph-name="uni0307" unicode="̇"/><glyph d="M-622.5 1272q-36.5 0 -63.5 25.5t-27 64.5q0 37 27 62.5t63.5 25.5t63.5 -25.5t27 -62.5q0 -39 -27 -64.5t-63.5 -25.5zM-217 1272q-37 0 -63.5 25.5t-26.5 64.5q0 37 26.5 62.5t63.5 25.5t63.5 -25.5t26.5 -62.5q0 -39 -26.5 -64.5t-63.5 -25.5z" glyph-name="uni0308" unicode="̈"/><glyph d="M-334 1133q-90 0 -151.5 57t-61.5 147t61.5 148.5t151.5 58.5t150.5 -57t60.5 -150q0 -90 -60.5 -147t-150.5 -57zM-333.5 1180q63.5 0 109.5 42t46 115.5t-46 116.5t-109.5 43t-109.5 -43t-46 -116.5t46 -115.5t109.5 -42z" glyph-name="uni030A" unicode="̊"/><glyph d="M-547 1145l-12 2l14 313q6 104 70 105q35 0 45 -37t-8 -88zM-322 1145l-10 6l139 283q47 94 105 67q31 -14 25.5 -51t-41.5 -78z" glyph-name="uni030B" unicode="̋"/><glyph d="M-113 1507l11 -6l-144 -250q-49 -86 -96 -86q-49 0 -98 86l-144 250l11 6l231 -221z" glyph-name="uni030C" unicode="̌"/><glyph d="M-231 1366q41 0 64.5 -26.5t23.5 -67.5q0 -39 -26 -65.5t-69 -26.5q-104 0 -104 139q0 115 67.5 188.5t186.5 96.5l6 -27q-88 -31 -131 -81t-51 -136q17 6 33 6z" glyph-name="uni0312" unicode="̒"/><glyph d="M-225 -117q104 0 104 -139q0 -115 -67.5 -188.5t-186.5 -96.5l-6 27q88 31 131 81t51 136q-16 -6 -32 -6q-41 0 -64.5 26.5t-23.5 67.5q0 39 25.5 65.5t68.5 26.5z" glyph-name="uni0326" unicode="̦"/><glyph d="M-340 -131q264 16 264 -141q0 -68 -52 -109t-146 -41q-178 0 -271 139l15 19q80 -84 223 -84q55 0 90 20.5t35 57.5q0 90 -224 86l-2 18l31 176h62z" glyph-name="uni0327" unicode="̧"/><glyph d="M-299 -422q-61 0 -100 35t-39 100q0 109 103.5 196t236.5 116l16 -21q-252 -98 -252 -272q0 -86 82 -86q102 0 170 78l10 -7q-71 -139 -227 -139z" glyph-name="uni0328" unicode="̨"/><glyph d="M1362 1610l-199 270q-33 45 -35 82t31 49q61 25 98 -78l115 -317zM2077 1438h540v-21q-90 -18 -135 -63t-90 -154l-500 -1200h-157l-412 1243l-412 -1243h-157l-500 1200q-51 125 -90 162t-135 55v21h610v-21q-184 -20 -236.5 -59t-3.5 -158l467 -1120l367 1120 q35 106 -16.5 152.5t-223.5 64.5v21h709v-21q-168 -20 -213 -57t-6 -160l366 -1120l467 1120q43 102 -11 150.5t-228 66.5v21z" glyph-name="Wgrave" horiz-adv-x="2646" unicode="Ẁ"/><glyph d="M1022 1143l-199 270q-33 45 -35 82t31 49q61 25 99 -78l114 -317zM1493 971h426v-21q-45 -12 -63.5 -19t-45 -25.5t-44 -50.5t-37.5 -85l-308 -770h-131l-334 823l-331 -823h-131l-308 770q-35 96 -72.5 128t-117.5 52v21h471v-21q-119 -20 -155 -54t3 -132l265 -680 l352 887h90l354 -887l273 704q29 74 -9 108t-147 54v21z" glyph-name="wgrave" horiz-adv-x="1914" unicode="ẁ"/><glyph d="M1505 1880l-198 -270l-11 6l115 317q37 102 98 78q33 -12 31 -49t-35 -82zM2077 1438h540v-21q-90 -18 -135 -63t-90 -154l-500 -1200h-157l-412 1243l-412 -1243h-157l-500 1200q-51 125 -90 162t-135 55v21h610v-21q-184 -20 -236.5 -59t-3.5 -158l467 -1120l367 1120 q35 106 -16.5 152.5t-223.5 64.5v21h709v-21q-168 -20 -213 -57t-6 -160l366 -1120l467 1120q43 102 -11 150.5t-228 66.5v21z" glyph-name="Wacute" horiz-adv-x="2646" unicode="Ẃ"/><glyph d="M1165 1413l-198 -270l-11 6l115 317q37 102 98 78q33 -12 31 -49t-35 -82zM1493 971h426v-21q-45 -12 -63.5 -19t-45 -25.5t-44 -50.5t-37.5 -85l-308 -770h-131l-334 823l-331 -823h-131l-308 770q-35 96 -72.5 128t-117.5 52v21h471v-21q-119 -20 -155 -54t3 -132 l265 -680l352 887h90l354 -887l273 704q29 74 -9 108t-147 54v21z" glyph-name="wacute" horiz-adv-x="1914" unicode="ẃ"/><glyph d="M1120 1739q-37 0 -63.5 25.5t-26.5 64.5q0 37 26.5 62.5t63.5 25.5t63.5 -25.5t26.5 -62.5q0 -39 -26.5 -64.5t-63.5 -25.5zM1526 1739q-37 0 -63.5 25.5t-26.5 64.5q0 37 26.5 62.5t63.5 25.5t63.5 -25.5t26.5 -62.5q0 -39 -26.5 -64.5t-63.5 -25.5zM2077 1438h540v-21 q-90 -18 -135 -63t-90 -154l-500 -1200h-157l-412 1243l-412 -1243h-157l-500 1200q-51 125 -90 162t-135 55v21h610v-21q-184 -20 -236.5 -59t-3.5 -158l467 -1120l367 1120q35 106 -16.5 152.5t-223.5 64.5v21h709v-21q-168 -20 -213 -57t-6 -160l366 -1120l467 1120 q43 102 -11 150.5t-228 66.5v21z" glyph-name="Wdieresis" horiz-adv-x="2646" unicode="Ẅ"/><glyph d="M780 1272q-37 0 -63.5 25.5t-26.5 64.5q0 37 26.5 62.5t63.5 25.5t63.5 -25.5t26.5 -62.5q0 -39 -26.5 -64.5t-63.5 -25.5zM1186 1272q-37 0 -63.5 25.5t-26.5 64.5q0 37 26.5 62.5t63.5 25.5t63.5 -25.5t26.5 -62.5q0 -39 -26.5 -64.5t-63.5 -25.5zM1493 971h426v-21 q-45 -12 -63.5 -19t-45 -25.5t-44 -50.5t-37.5 -85l-308 -770h-131l-334 823l-331 -823h-131l-308 770q-35 96 -72.5 128t-117.5 52v21h471v-21q-119 -20 -155 -54t3 -132l265 -680l352 887h90l354 -887l273 704q29 74 -9 108t-147 54v21z" glyph-name="wdieresis" horiz-adv-x="1914" unicode="ẅ"/><glyph d="M985 799q279 -10 430.5 -117t151.5 -313q0 -199 -122 -296.5t-319 -97.5q-170 0 -282.5 73t-112.5 165q0 45 23.5 69.5t64.5 24.5q57 0 106.5 -61.5t98.5 -194.5q41 -6 88 -6q135 0 222 84t87 231q0 381 -559 377v45l426 590h-770v-1372h-373v20q145 18 189.5 42t44.5 83 v1147q0 59 -44 83t-190 42v21h1262v-58z" glyph-name="uni1E9E" horiz-adv-x="1671" unicode="ẞ"/><glyph d="M838 1610l-199 270q-33 45 -35 82t31 49q61 25 98 -78l115 -317zM977 1438h512v-21q-84 -18 -140.5 -64t-138.5 -157l-385 -512v-539q0 -61 43 -83.5t189 -41.5v-20h-604v20q145 18 189 42t44 83v533l-375 522q-82 113 -138 156t-150 61v21h602v-21q-154 -18 -190 -68.5 t32 -148.5l321 -459l338 455q74 102 39 152.5t-188 68.5v21z" glyph-name="Ygrave" horiz-adv-x="1511" unicode="Ỳ"/><glyph d="M684 1143l-199 270q-33 45 -34.5 82t30.5 49q61 25 99 -78l114 -317zM797 971h440v-21q-84 -20 -123 -51t-84 -129l-287 -639q-229 -528 -524 -528q-76 0 -131 29.5t-55 91.5q0 33 20.5 55t55.5 22q106 0 182 -131q147 37 287 277l-375 823q-45 100 -83 130t-124 50v21 h487v-21q-115 -20 -154.5 -54t-6.5 -108l319 -716q4 8 7 16t8.5 18.5t7.5 16.5l274 620q25 55 27 91t-20.5 58.5t-56.5 35t-91 22.5v21z" glyph-name="ygrave" horiz-adv-x="1232" unicode="ỳ"/><glyph d="M139 621h1102v-68h-1102v68z" glyph-name="endash" horiz-adv-x="1380" unicode="–"/><glyph d="M139 621h1553v-68h-1553v68z" glyph-name="emdash" horiz-adv-x="1830" unicode="—"/><glyph d="M236 1221q80 0 79 -82q0 -39 -24.5 -64.5t-65.5 -25.5q-104 0 -104 149q0 125 68.5 217t166.5 119l13 -27q-162 -88 -170 -293q14 7 37 7z" glyph-name="quoteleft" horiz-adv-x="450" unicode="‘"/><glyph d="M225 1540q104 0 105 -149q0 -125 -68.5 -217.5t-167.5 -118.5l-12 26q162 88 170 293q-14 -6 -37 -6q-80 0 -80 82q0 39 24.5 64.5t65.5 25.5z" glyph-name="quoteright" horiz-adv-x="450" unicode="’"/><glyph d="M225 162q104 0 105 -160q0 -139 -80 -238.5t-217 -128.5l-13 27q119 43 173.5 117t58.5 201q-12 -4 -27 -5q-43 0 -68.5 27t-25.5 68q0 39 25.5 65.5t68.5 26.5z" glyph-name="quotesinglbase" horiz-adv-x="450" unicode="‚"/><glyph d="M369 1505q-162 -88 -170 -293q14 6 37 7q80 0 79 -82q0 -39 -24.5 -64.5t-65.5 -25.5q-104 0 -104 149q0 125 68.5 217t166.5 119zM516 1219q80 0 80 -82q0 -39 -24.5 -64.5t-65.5 -25.5q-104 0 -105 149q0 125 69 217t167 119l12 -27q-162 -88 -170 -293q17 7 37 7z" glyph-name="quotedblleft" horiz-adv-x="731" unicode="“"/><glyph d="M225 1540q104 0 105 -149q0 -125 -68.5 -217.5t-167.5 -118.5l-12 26q162 88 170 293q-14 -6 -37 -6q-80 0 -80 82q0 39 24.5 64.5t65.5 25.5zM506 1540q104 0 104 -149q0 -125 -68.5 -217.5t-166.5 -118.5l-13 26q162 88 170 293q-16 -6 -36 -6q-80 0 -80 82 q0 39 24.5 64.5t65.5 25.5z" glyph-name="quotedblright" horiz-adv-x="731" unicode="”"/><glyph d="M225 162q104 0 105 -160q0 -139 -80 -238.5t-217 -128.5l-13 27q119 43 173.5 117t58.5 201q-12 -4 -27 -5q-43 0 -68.5 27t-25.5 68q0 39 25.5 65.5t68.5 26.5zM532 162q104 0 105 -160q0 -139 -80 -238.5t-217 -128.5l-12 27q119 43 173 117t58 201q-12 -4 -27 -5 q-43 0 -68.5 27t-25.5 68q0 39 25.5 65.5t68.5 26.5z" glyph-name="quotedblbase" horiz-adv-x="757" unicode="„"/><glyph d="M885 1094v-66h-344v-684h-78v684h-344v66h344v344h78v-344h344z" glyph-name="dagger" horiz-adv-x="1003" unicode="†"/><glyph d="M885 1102h-344v-422h344v-66h-344v-270h-78v270h-344v66h344v422h-344v65h344v271h78v-271h344v-65z" glyph-name="daggerdbl" horiz-adv-x="1003" unicode="‡"/><glyph d="M307 543q-59 0 -100 41t-41 100q0 57 41 97t100 40q57 0 99.5 -40t42.5 -97q0 -59 -42.5 -100t-99.5 -41z" glyph-name="bullet" horiz-adv-x="614" unicode="•"/><glyph d="M225 -25q-39 0 -66.5 28t-27.5 67t27.5 65.5t66.5 26.5t66.5 -26.5t27.5 -65.5t-27.5 -67t-66.5 -28zM559 -25q-39 0 -66.5 28t-27.5 67t27.5 65.5t66.5 26.5t66.5 -26.5t27.5 -65.5t-27.5 -67t-66.5 -28zM893 -25q-39 0 -66.5 28t-27.5 67t27.5 65.5t66.5 26.5 t66.5 -26.5t27.5 -65.5t-27.5 -67t-66.5 -28z" glyph-name="ellipsis" horiz-adv-x="1118" unicode="…"/><glyph d="M354 840q-133 0 -216 79.5t-83 231.5t83 231.5t216 79.5t216 -79.5t83 -231.5t-83 -231.5t-216 -79.5zM1217 1438h88l-1104 -1438h-88zM354 887q86 0 132 69.5t46 194.5t-46 194.5t-132 69.5t-132 -69.5t-46 -194.5t46 -194.5t132 -69.5zM1051 -23q-133 0 -216 80 t-83 231.5t83 231.5t216 80t216 -80t83 -231.5t-83 -231.5t-216 -80zM1739 -23q-133 0 -216 80t-83 231.5t83 231.5t216 80t216 -80t83 -231.5t-83 -231.5t-216 -80zM1051 25q86 0 132 69.5t46 194.5t-46 194.5t-132 69.5t-132.5 -69.5t-46.5 -194.5t46.5 -194.5 t132.5 -69.5zM1739 25q86 0 132 69.5t46 194.5t-46 194.5t-132 69.5t-132 -69.5t-46 -194.5t46 -194.5t132 -69.5z" glyph-name="perthousand" horiz-adv-x="2093" unicode="‰"/><glyph d="M590 829l-299 -286l299 -289l-12 -18l-304 186q-96 57 -96 121q0 33 21.5 56.5t79.5 59.5l299 189z" glyph-name="guilsinglleft" horiz-adv-x="788" unicode="‹"/><glyph d="M510 659q57 -37 78.5 -60.5t21.5 -55.5q0 -63 -96 -121l-303 -186l-12 18l299 289l-299 286l12 19z" glyph-name="guilsinglright" horiz-adv-x="788" unicode="›"/><glyph d="M1128 1438h89l-1104 -1438h-88z" glyph-name="fraction" horiz-adv-x="1241" unicode="⁄"/><glyph d="M1341 389l33 -10q-41 -158 -189.5 -281t-359.5 -123q-223 0 -376.5 146.5t-196.5 410.5h-197v66h189q-6 59 -6 121q0 53 8 143h-191v66h203q49 250 209 392t364 142q57 0 115 -13t85.5 -24.5t88.5 -40.5q76 -41 118 -32.5t71 86.5h20v-559h-24q-23 268 -153 392t-312 124 q-172 0 -286 -125t-151 -342h625v-66h-633q-8 -59 -8 -143q0 -63 6 -121h635v-66h-627q37 -223 158 -351t313 -128q166 0 292 98.5t177 237.5z" glyph-name="Euro" horiz-adv-x="1466" unicode="€"/><glyph d="M874 1438v-355h-24q-29 186 -76 242.5t-149 56.5h-76v-602q0 -59 38 -82.5t158 -42.5v-20h-499v20q121 18 158.5 42t37.5 83v602h-75q-102 0 -149.5 -56t-76.5 -243h-24v355h757zM2271 1417q-96 -18 -126.5 -41.5t-30.5 -83.5v-516q0 -49 37.5 -73.5t119.5 -47.5v-20 h-409v20q92 23 118.5 42.5t26.5 78.5v588l-389 -651h-29l-385 583v-512q0 -55 39 -81.5t117 -47.5v-20h-391v20q88 20 131 47t43 82v508q0 59 -29 83t-125 42v21h236l405 -607l357 607h284v-21z" glyph-name="trademark" horiz-adv-x="2488" unicode="™"/><glyph d="M455 743v-18h-371v18q76 8 98.5 20.5t22.5 41.5l-2 561h-119v25l100 14q92 10 127 45h21v-645q0 -18 4 -26.5t32 -19t87 -16.5zM1188 1438h88l-1104 -1438h-88zM1223 406q240 -70 239 -220q0 -102 -95 -151t-257 -49q-166 0 -246 49t-80 125q0 139 236 192 q-193 72 -193 193q0 86 85 134t223 48q135 0 210.5 -43t75.5 -113q1 -122 -198 -165zM936 573q0 -53 46 -85.5t183 -65.5h4q84 25 115 61.5t31 88t-48 79t-132 27.5t-141.5 -28t-57.5 -77zM1110 33q106 0 175 35.5t69 101.5q0 57 -54.5 92t-187.5 64q-16 2 -39 10 q-182 -53 -182 -172q0 -57 55 -94t164 -37z" glyph-name="oneeighth" horiz-adv-x="1538" unicode="⅛"/><glyph d="M698 918q0 -96 -92 -147.5t-250 -51.5q-137 0 -227 40t-92 101q-2 25 15.5 42.5t43.5 17.5q35 0 67 -39t52 -95q53 -20 119 -20q115 0 174 42t59 112q0 84 -75.5 114.5t-212.5 30.5h-86v53h86q135 0 202.5 46t67.5 116q0 131 -170 133q-102 0 -164 -24q2 -66 -23.5 -109 t-76.5 -45q-31 -2 -46.5 15.5t-15.5 39.5q0 57 96.5 113.5t249.5 56.5q279 0 279 -172q0 -70 -63.5 -121t-186.5 -71q131 -12 200.5 -58t69.5 -120zM1300 1438h89l-1104 -1438h-88zM1337 406q240 -70 240 -220q0 -102 -95.5 -151t-256.5 -49q-166 0 -246 49t-80 125 q0 139 236 192q-193 72 -193 193q0 86 85 134t222 48q135 0 211 -43t76 -113q0 -122 -199 -165zM1051 573q0 -53 46 -85.5t183 -65.5h4q84 25 115 61.5t31 88t-48.5 79t-132.5 27.5t-141 -28t-57 -77zM1225 33q106 0 174.5 35.5t68.5 101.5q0 57 -54 92t-187 64 q-16 2 -39 10q-182 -53 -182 -172q0 -57 55 -94t164 -37z" glyph-name="threeeighths" horiz-adv-x="1652" unicode="⅜"/><glyph d="M1311 1438h88l-1104 -1438h-88zM696 936q0 -111 -94 -170t-248 -59q-115 0 -201.5 44t-86.5 107q0 23 15 39t40 16q39 0 69.5 -39.5t47.5 -99.5q49 -16 108 -16q98 0 156.5 48t58.5 128q0 78 -50 118t-128 40q-76 0 -138.5 -21.5t-82.5 -46.5l-43 8v404h536v-107h-475 l-2 -242q102 57 238 58q121 0 200.5 -53.5t79.5 -155.5zM1327 406q240 -70 240 -220q0 -102 -95.5 -151t-257.5 -49q-166 0 -245.5 49t-79.5 125q0 139 235 192q-193 72 -192 193q0 86 85 134t222 48q135 0 211 -43t76 -113q0 -122 -199 -165zM1040 573q0 -53 46.5 -85.5 t183.5 -65.5h4q84 25 114.5 61.5t30.5 88t-48 79t-132 27.5t-141.5 -28t-57.5 -77zM1214 33q106 0 175 35.5t69 101.5q0 57 -54 92t-187 64q-16 2 -39 10q-182 -53 -183 -172q0 -57 55 -94t164 -37z" glyph-name="fiveeighths" horiz-adv-x="1642" unicode="⅝"/><glyph d="M168 725l373 612h-529v101h609v-45l-322 -668h-131zM1143 1438h88l-1104 -1438h-88zM1202 406q240 -70 240 -220q0 -102 -95.5 -151t-256.5 -49q-166 0 -246 49t-80 125q0 139 235 192q-193 72 -192 193q0 86 85 134t222 48q135 0 211 -43t76 -113q0 -122 -199 -165z M915 573q0 -53 46.5 -85.5t183.5 -65.5h4q84 25 114.5 61.5t30.5 88t-48 79t-132 27.5t-141.5 -28t-57.5 -77zM1090 33q106 0 174.5 35.5t68.5 101.5q0 57 -54 92t-187 64q-16 2 -39 10q-182 -53 -183 -172q0 -57 55.5 -94t164.5 -37z" glyph-name="seveneighths" horiz-adv-x="1517" unicode="⅞"/><glyph d="M145 682v66h799v-66h-799z" glyph-name="minus" horiz-adv-x="1089" unicode="−"/><glyph glyph-name="approxequal" horiz-adv-x="1228" unicode="≈"/><glyph d="M987 877h-282l-211 -353h493v-65h-532l-105 -176h-78l107 176h-234v65h273l211 353h-484v65h525l114 193h74l-115 -193h244v-65z" glyph-name="notequal" horiz-adv-x="1132" unicode="≠"/><glyph d="M1008 440l-25 -65l-833 330v53l833 329l27 -65l-742 -291zM82 188h983v-65h-983v65z" glyph-name="lessequal" horiz-adv-x="1146" unicode="≤"/><glyph d="M139 440l740 291l-742 291l27 65l833 -329v-53l-833 -330zM82 188h983v-65h-983v65z" glyph-name="greaterequal" horiz-adv-x="1146" unicode="≥"/><glyph glyph-name="lozenge" horiz-adv-x="1228" unicode="◊"/><glyph d="M1946 1438h438v-21q-90 -16 -133 -61t-92 -156l-541 -1200h-158l-256 547l-246 -547h-157l-561 1200q-59 125 -96.5 162t-129.5 55v21h529v-21q-129 -18 -166 -66t8 -151l530 -1126l250 557l-266 569q-55 119 -101 159t-145 58v21h508v-21q-123 -18 -146.5 -56t29.5 -161 l193 -409l184 409q47 102 26.5 151.5t-122.5 65.5v21h420v-21q-94 -18 -146.5 -65t-99.5 -152l-223 -493l299 -633l508 1126q82 186 -137 217v21z" glyph-name="W.salt" horiz-adv-x="2398"/><glyph d="M2157 145q0 -61 35.5 -83.5t154.5 -41.5v-20h-508v20q119 18 155 41t36 84v471q0 301 -228 302q-260 0 -362 -320v-453q0 -61 35.5 -83.5t154.5 -41.5v-20h-508v20q119 18 156 42t37 83v992q0 145 -67.5 227t-188.5 82q-139 0 -211 -77t-72 -214q0 -90 31 -201 q86 -39 135 -102.5t49 -132.5q0 -35 -19.5 -57.5t-53.5 -22.5q-117 0 -146 266q-74 25 -170 25q-166 0 -258 -121t-92 -320q0 -205 89 -324.5t275 -119.5q229 0 338 148l39 -35q-145 -182 -395 -183q-221 0 -354 137.5t-133 376.5q0 233 141 369.5t350 136.5q80 0 152 -22 q-29 109 -29 190q0 156 88 244t246 88q162 0 256 -94l125 115v-826q53 152 153.5 228.5t225.5 76.5q338 0 338 -354v-496z" glyph-name="c_h.dlig" horiz-adv-x="2410"/><glyph d="M2050 201q57 -92 103.5 -125t142.5 -56v-20h-498v20q123 20 147.5 55.5t-32.5 131.5l-230 354l-243 -194v-222q0 -61 35.5 -83.5t154.5 -41.5v-20h-508v20q119 18 156 42t37 83v992q0 145 -67.5 227t-188.5 82q-139 0 -211 -73t-72 -197q0 -111 31 -222q86 -39 135 -101 t49 -132q0 -35 -19.5 -58.5t-56.5 -23.5q-119 0 -145 266q-74 25 -168 25q-166 0 -258 -121t-92 -320q0 -205 89 -324.5t275 -119.5q229 0 338 148l39 -35q-145 -182 -395 -183q-221 0 -354 137.5t-133 376.5q0 233 141 369.5t350 136.5q80 0 152 -22q-29 111 -29 203 q0 147 89 233t245 86q158 0 256 -92l125 135v-1092l469 371q63 55 39.5 85t-133.5 48v21h458v-21q-147 -37 -291 -151l-202 -162z" glyph-name="c_k.dlig" horiz-adv-x="2324"/><glyph d="M1440 145q0 -61 35.5 -83.5t154.5 -41.5v-20h-508v20q119 18 156 42t37 83v992q0 145 -67.5 227t-188.5 82q-137 0 -210 -77t-73 -193q0 -111 31 -222q86 -39 135 -101t49 -132q0 -35 -19.5 -58.5t-51.5 -23.5q-72 0 -110 78t-44 190q-74 23 -164 23q-166 0 -258 -121 t-92 -320q0 -205 89 -324.5t275 -119.5q229 0 338 148l39 -35q-145 -182 -395 -183q-221 0 -354 137.5t-133 376.5q0 233 141 369.5t350 136.5q80 0 152 -22q-29 111 -29 203q0 141 90 230t244 89q158 0 256 -92l125 135v-1393z" glyph-name="c_l.dlig" horiz-adv-x="1708"/><glyph d="M1792 997q186 0 322.5 -137t136.5 -374.5t-142.5 -373t-341.5 -135.5q-209 0 -327 162v-366q0 -61 44 -84t187 -41v-21h-549v21q119 18 156 41.5t37 83.5v1001q0 55 -30 73.5t-148 35.5v20q246 59 245 248q0 115 -73.5 184.5t-188.5 69.5q-178 0 -265 -119t-73 -321 q96 -35 152.5 -102.5t56.5 -141.5q0 -35 -19.5 -58.5t-56.5 -23.5q-76 0 -117.5 80t-56.5 196q-55 16 -135 17q-170 0 -262 -121t-92 -322q0 -205 89 -324.5t275 -119.5q229 0 338 148l39 -35q-145 -182 -395 -183q-221 0 -354 137.5t-133 376.5q0 233 141 369.5t350 136.5 q70 0 131 -16q-14 221 90.5 348t296.5 127q158 0 239 -89t81 -228v-312q131 172 352 172zM1767 45q158 0 250 120t92 320.5t-86 322.5t-237 122q-238 0 -346 -201v-485q91 -199 327 -199z" glyph-name="c_p.dlig" horiz-adv-x="2361"/><glyph d="M1907 195l28 -25q-125 -195 -333 -195q-145 0 -207 78t-58 238l13 618h-179v62h91q106 0 164.5 67.5t58.5 151.5q0 209 -250 209q-176 0 -297 -119t-131 -326q86 -39 135 -101t49 -132q0 -35 -19.5 -58.5t-56.5 -23.5q-76 0 -114.5 77t-40.5 193q-63 20 -158 21 q-166 0 -258 -121t-92 -320q0 -205 89 -324.5t275 -119.5q229 0 338 148l39 -35q-145 -182 -395 -183q-221 0 -354 137.5t-133 376.5q0 233 141 369.5t350 136.5q88 0 158 -24q12 229 148 356t327 127q164 0 237.5 -77t73.5 -187q0 -141 -125 -219h437v-62h-396v-657 q0 -205 168 -205q154 1 277 148z" glyph-name="c_t.dlig" horiz-adv-x="1951"/><glyph d="M2073 145q0 -61 35.5 -83.5t154.5 -41.5v-20h-508v20q119 18 155 41t36 84v471q0 301 -228 302q-260 0 -362 -320v-453q0 -61 35.5 -83.5t154.5 -41.5v-20h-508v20q119 18 156 42t37 83v992q0 147 -73 228t-212 81q-137 0 -216 -82t-79 -203q0 -100 31 -209 q72 -33 110.5 -87t38.5 -117q0 -80 -67 -80q-111 0 -119 233q-72 29 -180 29q-231 0 -232 -164q0 -74 57.5 -122t207.5 -83q199 -47 276.5 -121.5t77.5 -197.5q0 -135 -96.5 -201t-237.5 -66q-207 0 -321 127l-47 -102h-37v395h45q8 -160 93 -256t255 -96q96 0 165.5 46 t69.5 134q0 82 -62.5 131t-227.5 88q-174 41 -251 117t-77 193q0 109 85 176t257 67q90 0 164 -22q-29 104 -29 188q0 145 95.5 239.5t250.5 94.5q186 0 285 -94l125 137v-848q53 152 153.5 228.5t225.5 76.5q338 0 338 -354v-496z" glyph-name="s_h.dlig" horiz-adv-x="2326"/><glyph d="M1966 201q57 -92 103.5 -125t142.5 -56v-20h-498v20q123 20 147.5 55.5t-32.5 131.5l-230 354l-243 -194v-222q0 -61 35.5 -83.5t154.5 -41.5v-20h-508v20q119 18 156 42t37 83v992q0 147 -72 228t-209 81q-139 0 -219 -82t-80 -203q0 -100 31 -209q72 -33 110.5 -87 t38.5 -117q0 -80 -67 -80q-111 0 -119 233q-72 29 -180 29q-231 0 -232 -164q0 -74 57.5 -122t207.5 -83q199 -47 276.5 -121.5t77.5 -197.5q0 -135 -96.5 -201t-237.5 -66q-207 0 -321 127l-47 -102h-37v395h45q8 -160 93 -256t255 -96q96 0 165.5 46t69.5 134 q0 82 -62.5 131t-227.5 88q-174 41 -251 117t-77 193q0 109 85 176t257 67q90 0 164 -22q-29 104 -29 188q0 145 96.5 239.5t253.5 94.5q182 0 281 -94l125 137v-1092l469 371q63 55 39.5 85t-133.5 48v21h458v-21q-147 -37 -291 -151l-202 -162z" glyph-name="s_k.dlig" horiz-adv-x="2240"/><glyph d="M1356 145q0 -61 35.5 -83.5t154.5 -41.5v-20h-508v20q119 18 156 42t37 83v992q0 147 -72 228t-209 81q-139 0 -219 -82t-80 -203q0 -100 31 -209q72 -33 110.5 -87t38.5 -117q0 -80 -67 -80q-106 0 -119 233q-72 29 -180 29q-231 0 -232 -164q0 -74 57.5 -122t207.5 -83 q199 -47 276.5 -121.5t77.5 -197.5q0 -135 -96.5 -201t-237.5 -66q-207 0 -321 127l-47 -102h-37v395h45q8 -160 93 -256t255 -96q96 0 165.5 46t69.5 134q0 82 -62.5 131t-227.5 88q-174 41 -251 117t-77 193q0 109 85 176t257 67q90 0 164 -22q-29 104 -29 188 q0 145 96.5 239.5t253.5 94.5q182 0 281 -94l125 137v-1393z" glyph-name="s_l.dlig" horiz-adv-x="1624"/><glyph d="M1700 997q186 0 322.5 -137t136.5 -374.5t-142.5 -373t-341.5 -135.5q-209 0 -327 162v-366q0 -61 44 -84t187 -41v-21h-549v21q119 18 156 41.5t37 83.5v1001q0 55 -30 73.5t-149 35.5v20q119 8 181.5 76t62.5 168q0 121 -72.5 189.5t-187.5 68.5q-180 0 -266 -123 t-70 -334q139 -72 139 -198q0 -35 -19 -58.5t-56 -23.5q-59 0 -86 67.5t-25 165.5q-72 29 -180 29q-231 0 -232 -164q0 -74 57.5 -122t207.5 -83q199 -47 276.5 -121.5t77.5 -197.5q0 -135 -96.5 -201t-237.5 -66q-207 0 -321 127l-47 -102h-37v395h45q8 -160 93 -256 t255 -96q96 0 165.5 46t69.5 134q0 82 -62.5 131t-227.5 88q-174 41 -251 117t-77 193q0 109 85 176t257 67q98 0 178 -26q-12 227 89.5 356t295.5 129q158 0 239 -86t81 -225v-318q131 172 352 172zM1675 45q158 0 250 120t92 320.5t-86 322.5t-237 122q-238 0 -346 -201 v-485q91 -199 327 -199z" glyph-name="s_p.dlig" horiz-adv-x="2269"/><glyph d="M1794 195l29 -25q-125 -195 -334 -195q-145 0 -204.5 78t-59.5 238v618h-166v62h90q113 0 168 65.5t55 153.5q0 215 -250 215q-178 0 -299 -123t-129 -336q137 -72 137 -196q0 -35 -19 -58.5t-56 -23.5q-115 0 -111 233q-72 29 -180 29q-231 0 -232 -164q0 -74 57.5 -122 t207.5 -83q199 -47 276.5 -121.5t77.5 -197.5q0 -135 -96.5 -201t-237.5 -66q-207 0 -321 127l-47 -102h-37v395h45q8 -160 93 -256t255 -96q96 0 165.5 46t69.5 134q0 82 -62.5 131t-227.5 88q-174 41 -251 117t-77 193q0 109 85 176t257 67q106 0 182 -28q8 233 146.5 362 t328.5 129q164 0 239 -77.5t75 -188.5q0 -145 -129 -221h438v-62h-395v-657q0 -205 168 -205q153 1 276 148z" glyph-name="s_t.dlig" horiz-adv-x="1839"/><glyph d="M1114 184q39 -92 68.5 -119.5t109.5 -44.5v-20h-508v20q152 16 188 48t1 114l-82 197h-533l-82 -197q-29 -72 8.5 -107.5t184.5 -54.5v-20h-451v20q74 14 111 51.5t70 114.5l379 908h155zM385 442h479l-241 574z" glyph-name="A.aalt" horiz-adv-x="1310"/><glyph d="M838 1536l-199 -270l-10 6l114 317q37 102 99 78q33 -12 31 -49t-35 -82zM1114 184q39 -92 68.5 -119.5t109.5 -44.5v-20h-508v20q152 16 188 48t1 114l-82 197h-533l-82 -197q-29 -72 8.5 -107.5t184.5 -54.5v-20h-451v20q74 14 111 51.5t70 114.5l379 908h155zM385 442 h479l-241 574z" glyph-name="Aacute.aalt" horiz-adv-x="1310"/><glyph d="M655.5 1296q-104.5 0 -161 76t-60.5 199h23q4 -78 58 -135.5t140 -57.5t140.5 57.5t58.5 135.5h20q-4 -125 -59 -200t-159.5 -75zM1114 184q39 -92 68.5 -119.5t109.5 -44.5v-20h-508v20q152 16 188 48t1 114l-82 197h-533l-82 -197q-29 -72 8.5 -107.5t184.5 -54.5v-20 h-451v20q74 14 111 51.5t70 114.5l379 908h155zM385 442h479l-241 574z" glyph-name="Abreve.aalt" horiz-adv-x="1310"/><glyph d="M655 1509l-231 -221l-10 6l143 250q49 86 98 86q47 0 97 -86l143 -250l-10 -6zM1114 184q39 -92 68.5 -119.5t109.5 -44.5v-20h-508v20q152 16 188 48t1 114l-82 197h-533l-82 -197q-29 -72 8.5 -107.5t184.5 -54.5v-20h-451v20q74 14 111 51.5t70 114.5l379 908h155z M385 442h479l-241 574z" glyph-name="Acircumflex.aalt" horiz-adv-x="1310"/><glyph d="M452.5 1395q-36.5 0 -63.5 25.5t-27 64.5q0 37 27 62.5t63.5 25.5t63.5 -25.5t27 -62.5q0 -39 -27 -64.5t-63.5 -25.5zM858 1395q-37 0 -63.5 25.5t-26.5 64.5q0 37 26.5 62.5t63.5 25.5t63.5 -25.5t26.5 -62.5q0 -39 -26.5 -64.5t-63.5 -25.5zM1114 184 q39 -92 68.5 -119.5t109.5 -44.5v-20h-508v20q152 16 188 48t1 114l-82 197h-533l-82 -197q-29 -72 8.5 -107.5t184.5 -54.5v-20h-451v20q74 14 111 51.5t70 114.5l379 908h155zM385 442h479l-241 574z" glyph-name="Adieresis.aalt" horiz-adv-x="1310"/><glyph d="M694 1266l-198 270q-33 45 -35 82t31 49q61 25 98 -78l115 -317zM1114 184q39 -92 68.5 -119.5t109.5 -44.5v-20h-508v20q152 16 188 48t1 114l-82 197h-533l-82 -197q-29 -72 8.5 -107.5t184.5 -54.5v-20h-451v20q74 14 111 51.5t70 114.5l379 908h155zM385 442h479 l-241 574z" glyph-name="Agrave.aalt" horiz-adv-x="1310"/><glyph d="M942 1528v-68h-573v68h573zM1114 184q39 -92 68.5 -119.5t109.5 -44.5v-20h-508v20q152 16 188 48t1 114l-82 197h-533l-82 -197q-29 -72 8.5 -107.5t184.5 -54.5v-20h-451v20q74 14 111 51.5t70 114.5l379 908h155zM385 442h479l-241 574z" glyph-name="Amacron.aalt" horiz-adv-x="1310"/><glyph d="M1292 -281l11 -6q-72 -139 -228 -139q-61 0 -100 35t-39 100q0 94 78 172t190 119h-420v20q152 16 188 48t1 114l-82 197h-533l-82 -197q-29 -72 8.5 -107.5t184.5 -54.5v-20h-451v20q74 14 111 51.5t70 114.5l379 908h155l381 -910q39 -92 68.5 -119.5t109.5 -44.5v-20 q-252 -98 -252 -272q0 -86 82 -86q102 -1 170 77zM385 442h479l-241 574z" glyph-name="Aogonek.aalt" horiz-adv-x="1310"/><glyph d="M655 1255q-90 0 -151.5 57.5t-61.5 147.5t61.5 148.5t151.5 58.5t150.5 -57.5t60.5 -149.5q0 -90 -60.5 -147.5t-150.5 -57.5zM655.5 1620q-63.5 0 -109.5 -43t-46 -117t46 -115.5t109.5 -41.5t109.5 41.5t46 115.5t-46 117t-109.5 43zM1114 184q39 -92 68.5 -119.5 t109.5 -44.5v-20h-508v20q152 16 188 48t1 114l-82 197h-533l-82 -197q-29 -72 8.5 -107.5t184.5 -54.5v-20h-451v20q74 14 111 51.5t70 114.5l379 908h155zM385 442h479l-241 574z" glyph-name="Aring.aalt" horiz-adv-x="1310"/><glyph d="M498 1483q-55 0 -89 -26.5t-73 -86.5l-14 4q53 188 198 189q70 0 157 -53.5t136 -53.5q55 0 89 26.5t73 86.5l14 -4q-25 -80 -78 -134.5t-120 -54.5q-78 0 -162 53.5t-131 53.5zM1114 184q39 -92 68.5 -119.5t109.5 -44.5v-20h-508v20q152 16 188 48t1 114l-82 197h-533 l-82 -197q-29 -72 8.5 -107.5t184.5 -54.5v-20h-451v20q74 14 111 51.5t70 114.5l379 908h155zM385 442h479l-241 574z" glyph-name="Atilde.aalt" horiz-adv-x="1310"/><glyph d="M1731 371h22l-35 -371h-942v20q119 14 153 39t25 107l-20 215h-483l-134 -199q-25 -41 -28.5 -71.5t41.5 -54t145 -36.5v-20h-457v20q72 14 119 53.5t96 112.5l609 908h856v-371h-23q-25 188 -89 245.5t-214 57.5h-360l41 -426h190q111 0 155 47t60 195h23v-553h-23 q-8 86 -25.5 136t-49 72.5t-59.5 28.5t-81 6h-184l43 -466h289q147 0 226 65.5t114 239.5zM492 442h436l-51 572z" glyph-name="AE.aalt" horiz-adv-x="1845"/><glyph d="M877 571q344 -29 344 -262q0 -309 -492 -309h-596v20q115 14 149.5 32t34.5 63v864q0 47 -34.5 63.5t-149.5 30.5v21h635q385 0 385 -254q0 -94 -68.5 -168t-207.5 -101zM739 1026h-290v-426h294q141 0 208 69.5t67 166.5q0 190 -279 190zM715 68q205 0 286.5 70.5 t81.5 172.5q0 92 -76.5 156.5t-258.5 64.5h-299v-464h266z" glyph-name="B.aalt" horiz-adv-x="1304"/><glyph d="M686 57q178 0 302 84t171 205l29 -8q-33 -137 -179.5 -247.5t-349.5 -110.5q-238 0 -395.5 159.5t-157.5 409.5q0 252 166 410.5t394 158.5q154 0 297 -69q66 -31 94 -24t61 71h19v-463h-25q-20 223 -134 317t-280 94q-207 0 -325.5 -141t-118.5 -354 q0 -207 116.5 -349.5t315.5 -142.5z" glyph-name="C.aalt" horiz-adv-x="1247"/><glyph d="M870 1667q33 -12 31 -49t-35 -82l-198 -270l-11 6l115 317q37 103 98 78zM686 57q178 0 302 84t171 205l29 -8q-33 -137 -179.5 -247.5t-349.5 -110.5q-238 0 -395.5 159.5t-157.5 409.5q0 252 166 410.5t394 158.5q154 0 297 -69q66 -31 94 -24t61 71h19v-463h-25 q-20 223 -134 317t-280 94q-207 0 -325.5 -141t-118.5 -354q0 -207 116.5 -349.5t315.5 -142.5z" glyph-name="Cacute.aalt" horiz-adv-x="1247"/><glyph d="M684 1288q-49 0 -98 86l-144 250l11 6l231 -221l229 221l11 -6l-144 -250q-49 -86 -96 -86zM1159 346l29 -8q-33 -137 -179.5 -247.5t-349.5 -110.5q-238 0 -395.5 159.5t-157.5 409.5q0 252 166 410.5t394 158.5q154 0 297 -69q66 -31 94 -24t61 71h19v-463h-25 q-20 223 -134 317t-280 94q-207 0 -325.5 -141t-118.5 -354q0 -207 116.5 -349.5t315.5 -142.5q178 0 302 84t171 205z" glyph-name="Ccaron.aalt" horiz-adv-x="1247"/><glyph d="M1188 338q-31 -127 -158 -231.5t-305 -122.5l-20 -115q264 16 264 -141q0 -68 -52.5 -109t-146.5 -41q-178 0 -270 139l14 19q80 -84 223 -84q55 0 90 20.5t35 57.5q0 90 -223 86l-2 18l25 146h-3q-238 0 -395.5 159.5t-157.5 409.5q0 252 166 410.5t394 158.5 q154 0 297 -69q66 -31 94 -24t61 71h19v-463h-25q-20 223 -134 317t-280 94q-207 0 -325.5 -141t-118.5 -354q0 -207 116.5 -349.5t315.5 -142.5q178 0 302 84t171 205z" glyph-name="Ccedilla.aalt" horiz-adv-x="1247"/><glyph d="M684 1391q-39 0 -66.5 27.5t-27.5 66.5t27.5 65.5t66.5 26.5t66.5 -26.5t27.5 -65.5t-27.5 -66.5t-66.5 -27.5zM686 57q178 0 302 84t171 205l29 -8q-33 -137 -179.5 -247.5t-349.5 -110.5q-238 0 -395.5 159.5t-157.5 409.5q0 252 166 410.5t394 158.5q154 0 297 -69 q66 -31 94 -24t61 71h19v-463h-25q-20 223 -134 317t-280 94q-207 0 -325.5 -141t-118.5 -354q0 -207 116.5 -349.5t315.5 -142.5z" glyph-name="Cdotaccent.aalt" horiz-adv-x="1247"/><glyph d="M670 1094q324 0 510 -138.5t186 -406.5t-186.5 -408.5t-509.5 -140.5h-537v20q115 14 149.5 32t34.5 63v864q0 47 -34.5 63.5t-149.5 30.5v21h537zM668 68q270 0 410.5 127t140.5 354t-140.5 352t-410.5 125h-213v-958h213z" glyph-name="D.aalt" horiz-adv-x="1472"/><glyph d="M670 1094q324 0 510 -138.5t186 -406.5t-186.5 -408.5t-509.5 -140.5h-537v20q115 14 149.5 32t34.5 63v422h-198v67h198v375q0 47 -34.5 63.5t-149.5 30.5v21h537zM668 68q270 0 410.5 127t140.5 354t-140.5 352t-410.5 125h-213v-422h483v-67h-483v-469h213z" glyph-name="Eth.aalt" horiz-adv-x="1472"/><glyph d="M754 1288q-49 0 -99 86l-143 250l10 6l232 -221l229 221l10 -6l-143 -250q-49 -86 -96 -86zM670 1094q324 0 510 -138.5t186 -406.5t-186.5 -408.5t-509.5 -140.5h-537v20q115 14 149.5 32t34.5 63v864q0 47 -34.5 63.5t-149.5 30.5v21h537zM668 68q270 0 410.5 127 t140.5 354t-140.5 352t-410.5 125h-213v-958h213z" glyph-name="Dcaron.aalt" horiz-adv-x="1472"/><glyph d="M670 1094q324 0 510 -138.5t186 -406.5t-186.5 -408.5t-509.5 -140.5h-537v20q115 14 149.5 32t34.5 63v422h-198v67h198v375q0 47 -34.5 63.5t-149.5 30.5v21h537zM668 68q270 0 410.5 127t140.5 354t-140.5 352t-410.5 125h-213v-422h483v-67h-483v-469h213z" glyph-name="Dcroat.aalt" horiz-adv-x="1472"/><glyph d="M1159 371h23l-35 -371h-1014v20q115 14 149.5 32t34.5 63v864q0 45 -33.5 62.5t-150.5 31.5v21h993v-371h-22q-25 188 -89.5 245.5t-213.5 57.5h-346v-426h217q111 0 154.5 48t60.5 194h22v-553h-22q-16 158 -64.5 200.5t-150.5 42.5h-217v-466h364q147 0 226 65.5 t114 239.5z" glyph-name="E.aalt" horiz-adv-x="1273"/><glyph d="M831 1536l-198 -270l-10 6l114 317q37 102 99 78q33 -12 30.5 -49t-35.5 -82zM1159 371h23l-35 -371h-1014v20q115 14 149.5 32t34.5 63v864q0 45 -33.5 62.5t-150.5 31.5v21h993v-371h-22q-25 188 -89.5 245.5t-213.5 57.5h-346v-426h217q111 0 154.5 48t60.5 194h22 v-553h-22q-16 158 -64.5 200.5t-150.5 42.5h-217v-466h364q147 0 226 65.5t114 239.5z" glyph-name="Eacute.aalt" horiz-adv-x="1273"/><glyph d="M649 1288q-49 0 -98 86l-143 250l10 6l231 -221l230 221l10 -6l-144 -250q-49 -86 -96 -86zM1159 371h23l-35 -371h-1014v20q115 14 149.5 32t34.5 63v864q0 45 -33.5 62.5t-150.5 31.5v21h993v-371h-22q-25 188 -89.5 245.5t-213.5 57.5h-346v-426h217q111 0 154.5 48 t60.5 194h22v-553h-22q-16 158 -64.5 200.5t-150.5 42.5h-217v-466h364q147 0 226 65.5t114 239.5z" glyph-name="Ecaron.aalt" horiz-adv-x="1273"/><glyph d="M649 1509l-231 -221l-10 6l143 250q49 86 98 86q47 0 96 -86l144 -250l-10 -6zM1159 371h23l-35 -371h-1014v20q115 14 149.5 32t34.5 63v864q0 45 -33.5 62.5t-150.5 31.5v21h993v-371h-22q-25 188 -89.5 245.5t-213.5 57.5h-346v-426h217q111 0 154.5 48t60.5 194h22 v-553h-22q-16 158 -64.5 200.5t-150.5 42.5h-217v-466h364q147 0 226 65.5t114 239.5z" glyph-name="Ecircumflex.aalt" horiz-adv-x="1273"/><glyph d="M446.5 1395q-36.5 0 -63.5 25.5t-27 64.5q0 37 27 62.5t63.5 25.5t63.5 -25.5t27 -62.5q0 -39 -27 -64.5t-63.5 -25.5zM852 1395q-37 0 -63.5 25.5t-26.5 64.5q0 37 26.5 62.5t63.5 25.5t63.5 -25.5t26.5 -62.5q0 -39 -26.5 -64.5t-63.5 -25.5zM1159 371h23l-35 -371 h-1014v20q115 14 149.5 32t34.5 63v864q0 45 -33.5 62.5t-150.5 31.5v21h993v-371h-22q-25 188 -89.5 245.5t-213.5 57.5h-346v-426h217q111 0 154.5 48t60.5 194h22v-553h-22q-16 158 -64.5 200.5t-150.5 42.5h-217v-466h364q147 0 226 65.5t114 239.5z" glyph-name="Edieresis.aalt" horiz-adv-x="1273"/><glyph d="M649 1391q-39 0 -66.5 27.5t-27.5 66.5t27.5 65.5t66.5 26.5t66.5 -26.5t27.5 -65.5t-27.5 -66.5t-66.5 -27.5zM1159 371h23l-35 -371h-1014v20q115 14 149.5 32t34.5 63v864q0 45 -33.5 62.5t-150.5 31.5v21h993v-371h-22q-25 188 -89.5 245.5t-213.5 57.5h-346v-426 h217q111 0 154.5 48t60.5 194h22v-553h-22q-16 158 -64.5 200.5t-150.5 42.5h-217v-466h364q147 0 226 65.5t114 239.5z" glyph-name="Edotaccent.aalt" horiz-adv-x="1273"/><glyph d="M688 1266l-199 270q-33 45 -34.5 82t30.5 49q61 25 99 -78l114 -317zM1159 371h23l-35 -371h-1014v20q115 14 149.5 32t34.5 63v864q0 45 -33.5 62.5t-150.5 31.5v21h993v-371h-22q-25 188 -89.5 245.5t-213.5 57.5h-346v-426h217q111 0 154.5 48t60.5 194h22v-553h-22 q-16 158 -64.5 200.5t-150.5 42.5h-217v-466h364q147 0 226 65.5t114 239.5z" glyph-name="Egrave.aalt" horiz-adv-x="1273"/><glyph d="M936 1528v-68h-574v68h574zM1159 371h23l-35 -371h-1014v20q115 14 149.5 32t34.5 63v864q0 45 -33.5 62.5t-150.5 31.5v21h993v-371h-22q-25 188 -89.5 245.5t-213.5 57.5h-346v-426h217q111 0 154.5 48t60.5 194h22v-553h-22q-16 158 -64.5 200.5t-150.5 42.5h-217 v-466h364q147 0 226 65.5t114 239.5z" glyph-name="Emacron.aalt" horiz-adv-x="1273"/><glyph d="M977 -358q102 0 170 77l10 -6q-72 -139 -227 -139q-61 0 -100 35t-39 100q0 94 77.5 172t190.5 119h-926v20q115 14 149.5 32t34.5 63v864q0 45 -33.5 62.5t-150.5 31.5v21h993v-371h-22q-25 188 -89.5 245.5t-213.5 57.5h-346v-426h217q111 0 154.5 48t60.5 194h22v-553 h-22q-16 158 -64.5 200.5t-150.5 42.5h-217v-466h364q147 0 226 65.5t114 239.5h23l-35 -371q-252 -98 -252 -272q0 -86 82 -86z" glyph-name="Eogonek.aalt" horiz-adv-x="1273"/><glyph d="M1126 1094v-398h-22q-25 207 -90.5 268.5t-212.5 61.5h-346v-426h217q111 0 154.5 48t60.5 194h22v-553h-22q-16 158 -64.5 200.5t-150.5 42.5h-217v-403q0 -55 53 -74.5t227 -34.5v-20h-602v20q115 14 149.5 32t34.5 63v864q0 45 -33.5 62.5t-150.5 31.5v21h993z" glyph-name="F.aalt" horiz-adv-x="1173"/><glyph d="M1339 555v-20q-96 -14 -123.5 -32t-27.5 -63v-440h-25q-23 53 -39 68.5t-45 15.5q-27 0 -87 -26.5t-150 -54.5t-187 -28q-238 0 -393.5 161t-155.5 413t169 410.5t409 158.5q119 0 291 -69q43 -16 65.5 -18.5t42 12t35.5 53.5h21v-402h-25q-57 352 -414 353 q-209 0 -327.5 -142.5t-118.5 -355.5q0 -205 115.5 -347.5t312.5 -142.5q211 0 375 127v254q0 45 -42 62.5t-175 32.5v20h499z" glyph-name="G.aalt" horiz-adv-x="1409"/><glyph d="M708.5 1296q-104.5 0 -160.5 76t-61 199h23q4 -78 58.5 -135.5t140.5 -57.5t140 57.5t58 135.5h21q-4 -125 -59.5 -200t-160 -75zM1339 555v-20q-96 -14 -123.5 -32t-27.5 -63v-440h-25q-23 53 -39 68.5t-45 15.5q-27 0 -87 -26.5t-150 -54.5t-187 -28q-238 0 -393.5 161 t-155.5 413t169 410.5t409 158.5q119 0 291 -69q43 -16 65.5 -18.5t42 12t35.5 53.5h21v-402h-25q-57 352 -414 353q-209 0 -327.5 -142.5t-118.5 -355.5q0 -205 115.5 -347.5t312.5 -142.5q211 0 375 127v254q0 45 -42 62.5t-175 32.5v20h499z" glyph-name="Gbreve.aalt" horiz-adv-x="1409"/><glyph d="M1339 555v-20q-96 -14 -123.5 -32t-27.5 -63v-440h-25q-23 53 -39 68.5t-45 15.5q-27 0 -87 -26.5t-150 -54.5t-187 -28q-238 0 -393.5 161t-155.5 413t169 410.5t409 158.5q119 0 291 -69q43 -16 65.5 -18.5t42 12t35.5 53.5h21v-402h-25q-57 352 -414 353 q-209 0 -327.5 -142.5t-118.5 -355.5q0 -205 115.5 -347.5t312.5 -142.5q211 0 375 127v254q0 45 -42 62.5t-175 32.5v20h499zM713 -117q104 0 104 -139q0 -115 -67.5 -188.5t-186.5 -96.5l-6 27q88 31 131 81t51 136q-14 -6 -32 -6q-41 0 -65 26.5t-24 67.5q0 39 26 65.5 t69 26.5z" glyph-name="Gcommaaccent.aalt" horiz-adv-x="1409"/><glyph d="M709 1391q-39 0 -67 27.5t-28 66.5t28 65.5t67 26.5t66.5 -26.5t27.5 -65.5t-27.5 -66.5t-66.5 -27.5zM1339 555v-20q-96 -14 -123.5 -32t-27.5 -63v-440h-25q-23 53 -39 68.5t-45 15.5q-27 0 -87 -26.5t-150 -54.5t-187 -28q-238 0 -393.5 161t-155.5 413t169 410.5 t409 158.5q119 0 291 -69q43 -16 65.5 -18.5t42 12t35.5 53.5h21v-402h-25q-57 352 -414 353q-209 0 -327.5 -142.5t-118.5 -355.5q0 -205 115.5 -347.5t312.5 -142.5q211 0 375 127v254q0 45 -42 62.5t-175 32.5v20h499z" glyph-name="Gdotaccent.aalt" horiz-adv-x="1409"/><glyph d="M1479 1073q-113 -12 -148 -29.5t-35 -64.5v-864q0 -43 31 -61.5t152 -33.5v-20h-506v20q119 14 151.5 32t32.5 63v434h-702v-434q0 -45 32.5 -62.5t151.5 -32.5v-20h-506v20q115 14 149.5 32t34.5 63v864q0 43 -30.5 61.5t-153.5 32.5v21h506v-21q-117 -14 -150.5 -31.5 t-33.5 -62.5v-363h702v363q0 45 -31.5 62.5t-152.5 31.5v21h506v-21z" glyph-name="H.aalt" horiz-adv-x="1611"/><glyph d="M1479 1073q-113 -12 -148 -29.5t-35 -64.5v-221h123v-58h-123v-585q0 -43 31 -61.5t152 -33.5v-20h-506v20q119 14 151.5 32t32.5 63v278h-702v-278q0 -45 32.5 -62.5t151.5 -32.5v-20h-506v20q115 14 149.5 32t34.5 63v585h-124v58h124v221q0 43 -30.5 61.5t-153.5 32.5 v21h506v-21q-117 -14 -150.5 -31.5t-33.5 -62.5v-221h702v221q0 45 -31.5 62.5t-152.5 31.5v21h506v-21zM1157 453v247h-702v-247h702z" glyph-name="Hbar.aalt" horiz-adv-x="1611"/><glyph d="M639 1073q-117 -12 -150.5 -29.5t-33.5 -64.5v-864q0 -45 34.5 -62.5t149.5 -32.5v-20h-506v20q115 14 149.5 32t34.5 63v864q0 43 -30.5 61.5t-153.5 32.5v21h506v-21z" glyph-name="I.aalt" horiz-adv-x="772"/><glyph d="M573 1667q33 -12 31 -49t-35 -82l-198 -270l-11 6l115 317q37 103 98 78zM639 1073q-117 -12 -150.5 -29.5t-33.5 -64.5v-864q0 -45 34.5 -62.5t149.5 -32.5v-20h-506v20q115 14 149.5 32t34.5 63v864q0 43 -30.5 61.5t-153.5 32.5v21h506v-21z" glyph-name="Iacute.aalt" horiz-adv-x="772"/><glyph d="M387 1509l-231 -221l-11 6l144 250q49 86 98 86q47 0 96 -86l144 -250l-11 -6zM639 1073q-117 -12 -150.5 -29.5t-33.5 -64.5v-864q0 -45 34.5 -62.5t149.5 -32.5v-20h-506v20q115 14 149.5 32t34.5 63v864q0 43 -30.5 61.5t-153.5 32.5v21h506v-21z" glyph-name="Icircumflex.aalt" horiz-adv-x="772"/><glyph d="M184 1395q-37 0 -63.5 25.5t-26.5 64.5q0 37 26.5 62.5t63.5 25.5t63.5 -25.5t26.5 -62.5q0 -39 -26.5 -64.5t-63.5 -25.5zM590 1395q-37 0 -63.5 25.5t-26.5 64.5q0 37 26.5 62.5t63.5 25.5t63.5 -25.5t26.5 -62.5q0 -39 -26.5 -64.5t-63.5 -25.5zM639 1073 q-117 -12 -150.5 -29.5t-33.5 -64.5v-864q0 -45 34.5 -62.5t149.5 -32.5v-20h-506v20q115 14 149.5 32t34.5 63v864q0 43 -30.5 61.5t-153.5 32.5v21h506v-21z" glyph-name="Idieresis.aalt" horiz-adv-x="772"/><glyph d="M223 1667q61 25 99 -78l114 -317l-10 -6l-199 270q-33 45 -35 82t31 49zM639 1073q-117 -12 -150.5 -29.5t-33.5 -64.5v-864q0 -45 34.5 -62.5t149.5 -32.5v-20h-506v20q115 14 149.5 32t34.5 63v864q0 43 -30.5 61.5t-153.5 32.5v21h506v-21z" glyph-name="Igrave.aalt" horiz-adv-x="772"/><glyph d="M100 1528h574v-68h-574v68zM639 1073q-117 -12 -150.5 -29.5t-33.5 -64.5v-864q0 -45 34.5 -62.5t149.5 -32.5v-20h-506v20q115 14 149.5 32t34.5 63v864q0 43 -30.5 61.5t-153.5 32.5v21h506v-21z" glyph-name="Imacron.aalt" horiz-adv-x="772"/><glyph d="M678 -264l10 -6q-72 -139 -227 -140q-61 0 -100 35t-39 101q0 84 64.5 156.5t162.5 117.5h-416v20q115 14 149.5 32t34.5 63v864q0 43 -30.5 61.5t-153.5 32.5v21h506v-21q-117 -12 -150.5 -29.5t-33.5 -64.5v-864q0 -43 30.5 -60.5t126.5 -29.5l50 12l16 -21 q-252 -98 -252 -272q0 -86 82 -86q102 0 170 78z" glyph-name="Iogonek.aalt" horiz-adv-x="772"/><glyph d="M391 1094h522v-21q-106 -12 -135.5 -31.5t-29.5 -80.5v-517q0 -242 -122 -355.5t-319 -113.5q-158 0 -240.5 70t-82.5 141q0 37 23.5 60.5t60.5 23.5q57 0 101 -64.5t58 -164.5q10 -2 35 -2q346 0 346 362v560q0 55 -36.5 76.5t-180.5 35.5v21z" glyph-name="J.aalt" horiz-adv-x="980"/><glyph d="M1206 156q35 -43 55.5 -63.5t61.5 -41t102 -31.5v-20h-514v20q127 14 154 45t-23 89l-354 456l-233 -192v-303q0 -45 31.5 -62.5t150.5 -32.5v-20h-504v20q115 14 149.5 32t34.5 63v864q0 43 -30.5 61.5t-153.5 32.5v21h506v-21q-117 -14 -150.5 -31.5t-33.5 -62.5v-477 l485 403q170 141 -49 168v21h491v-21q-158 -20 -313 -149l-276 -228z" glyph-name="K.aalt" horiz-adv-x="1472"/><glyph d="M1206 156q35 -43 55.5 -63.5t61.5 -41t102 -31.5v-20h-514v20q127 14 154 45t-23 89l-354 456l-233 -192v-303q0 -45 31.5 -62.5t150.5 -32.5v-20h-504v20q115 14 149.5 32t34.5 63v864q0 43 -30.5 61.5t-153.5 32.5v21h506v-21q-117 -14 -150.5 -31.5t-33.5 -62.5v-477 l485 403q170 141 -49 168v21h491v-21q-158 -20 -313 -149l-276 -228zM752 -117q104 0 104 -139q0 -115 -67.5 -188.5t-186.5 -96.5l-6 27q88 31 131 81t51 136q-16 -6 -33 -6q-41 0 -64.5 26.5t-23.5 67.5q0 39 26 65.5t69 26.5z" glyph-name="Kcommaaccent.aalt" horiz-adv-x="1472"/><glyph d="M1137 399h26l-45 -399h-985v20q115 14 149.5 32t34.5 63v864q0 43 -30.5 61.5t-153.5 32.5v21h586v-21q-166 -12 -215 -31.5t-49 -74.5v-899h333q141 0 220.5 69t128.5 262z" glyph-name="L.aalt" horiz-adv-x="1228"/><glyph d="M582 1536l-199 -270l-10 6l114 317q37 102 99 78q33 -12 31 -49t-35 -82zM1137 399h26l-45 -399h-985v20q115 14 149.5 32t34.5 63v864q0 43 -30.5 61.5t-153.5 32.5v21h586v-21q-166 -12 -215 -31.5t-49 -74.5v-899h333q141 0 220.5 69t128.5 262z" glyph-name="Lacute.aalt" horiz-adv-x="1228"/><glyph d="M1038 1049l-88 -377h-16l16 397q4 80 17.5 112.5t46.5 32.5q63 1 24 -165zM1137 399h26l-45 -399h-985v20q115 14 149.5 32t34.5 63v864q0 43 -30.5 61.5t-153.5 32.5v21h586v-21q-166 -12 -215 -31.5t-49 -74.5v-899h333q141 0 220.5 69t128.5 262z" glyph-name="Lcaron.aalt" horiz-adv-x="1228"/><glyph d="M1137 399h26l-45 -399h-985v20q115 14 149.5 32t34.5 63v864q0 43 -30.5 61.5t-153.5 32.5v21h586v-21q-166 -12 -215 -31.5t-49 -74.5v-899h333q141 0 220.5 69t128.5 262zM629 -117q104 0 104 -139q0 -115 -67.5 -188.5t-186.5 -96.5l-6 27q88 31 131 81t51 136 q-16 -6 -32 -6q-41 0 -64.5 26.5t-23.5 67.5q0 39 25.5 65.5t68.5 26.5z" glyph-name="Lcommaaccent.aalt" horiz-adv-x="1228"/><glyph d="M1137 399h26l-45 -399h-985v20q115 14 149.5 32t34.5 63v358l-262 -76l-18 66l280 82v434q0 43 -30.5 61.5t-153.5 32.5v21h586v-21q-166 -12 -215 -31.5t-49 -74.5v-381l368 106l21 -65l-389 -113v-446h333q141 0 220.5 69t128.5 262z" glyph-name="Lslash.aalt" horiz-adv-x="1228"/><glyph d="M1915 1073q-121 -14 -152.5 -31.5t-31.5 -62.5v-809q0 -72 46 -102.5t138 -47.5v-20h-508v20q121 12 152.5 41t31.5 109v842l-563 -914h-65l-562 869v-777q0 -82 52.5 -117.5t164.5 -52.5v-20h-485v20q96 16 141 52.5t45 117.5v789q0 43 -31.5 61.5t-152.5 32.5v21h338 l553 -846l518 846h371v-21z" glyph-name="M.aalt" horiz-adv-x="2048"/><glyph d="M1004 1094h483v-21q-96 -16 -141.5 -52t-45.5 -114v-907h-131l-770 961v-775q0 -82 54.5 -115.5t162.5 -50.5v-20h-483v20q92 16 139 50t47 116v793q0 43 -31.5 61.5t-152.5 32.5v21h332l754 -942v755q0 45 -16.5 75t-50.5 47.5t-66.5 26.5t-83.5 17v21z" glyph-name="N.aalt" horiz-adv-x="1593"/><glyph d="M1018 1536l-199 -270l-10 6l115 317q37 102 98 78q33 -12 31 -49t-35 -82zM1004 1094h483v-21q-96 -16 -141.5 -52t-45.5 -114v-907h-131l-770 961v-775q0 -82 54.5 -115.5t162.5 -50.5v-20h-483v20q92 16 139 50t47 116v793q0 43 -31.5 61.5t-152.5 32.5v21h332 l754 -942v755q0 45 -16.5 75t-50.5 47.5t-66.5 26.5t-83.5 17v21z" glyph-name="Nacute.aalt" horiz-adv-x="1593"/><glyph d="M836 1288q-49 0 -99 86l-143 250l10 6l232 -221l229 221l10 -6l-143 -250q-49 -86 -96 -86zM1004 1094h483v-21q-96 -16 -141.5 -52t-45.5 -114v-907h-131l-770 961v-775q0 -82 54.5 -115.5t162.5 -50.5v-20h-483v20q92 16 139 50t47 116v793q0 43 -31.5 61.5 t-152.5 32.5v21h332l754 -942v755q0 45 -16.5 75t-50.5 47.5t-66.5 26.5t-83.5 17v21z" glyph-name="Ncaron.aalt" horiz-adv-x="1593"/><glyph d="M1004 1094h483v-21q-96 -16 -141.5 -52t-45.5 -114v-907h-131l-770 961v-775q0 -82 54.5 -115.5t162.5 -50.5v-20h-483v20q92 16 139 50t47 116v793q0 43 -31.5 61.5t-152.5 32.5v21h332l754 -942v755q0 45 -16.5 75t-50.5 47.5t-66.5 26.5t-83.5 17v21zM825 -117 q104 0 105 -139q0 -115 -67.5 -188.5t-186.5 -96.5l-6 27q88 31 131 81t51 136q-14 -6 -33 -6q-41 0 -64.5 26.5t-23.5 67.5q0 39 25.5 65.5t68.5 26.5z" glyph-name="Ncommaaccent.aalt" horiz-adv-x="1593"/><glyph d="M1016 1094h471v-21q-96 -16 -141.5 -52t-45.5 -114v-803q0 -252 -100 -376.5t-252 -124.5q-78 0 -120 27.5t-42 72.5q0 31 20.5 51.5t53.5 20.5q84 0 176 -113q154 66 187 270l-834 1041v-787q0 -82 54.5 -115.5t162.5 -50.5v-20h-473v20q92 16 139 50t47 116v793 q0 43 -31.5 61.5t-152.5 32.5v21h332l766 -959v772q0 45 -16.5 75t-50 47.5t-66.5 26.5t-84 17v21z" glyph-name="Eng.aalt" horiz-adv-x="1593"/><glyph d="M678 1483q-55 0 -89 -26.5t-73 -86.5l-14 4q53 188 198 189q70 0 157 -53.5t136 -53.5q55 0 89 26.5t73 86.5l14 -4q-25 -80 -78 -134.5t-120 -54.5q-78 0 -162 53.5t-131 53.5zM1004 1094h483v-21q-96 -16 -141.5 -52t-45.5 -114v-907h-131l-770 961v-775 q0 -82 54.5 -115.5t162.5 -50.5v-20h-483v20q92 16 139 50t47 116v793q0 43 -31.5 61.5t-152.5 32.5v21h332l754 -942v755q0 45 -16.5 75t-50.5 47.5t-66.5 26.5t-83.5 17v21z" glyph-name="Ntilde.aalt" horiz-adv-x="1593"/><glyph d="M709 -20q-252 0 -427.5 153.5t-175.5 415.5q0 260 175.5 412.5t427.5 152.5t427 -152.5t175 -412.5q0 -262 -175 -415.5t-427 -153.5zM709 51q201 0 326.5 139.5t125.5 358.5t-125 356t-327.5 137t-328.5 -138t-126 -355q0 -219 126 -358.5t329 -139.5z" glyph-name="O.aalt" horiz-adv-x="1417"/><glyph d="M895 1667q33 -12 31 -49t-35 -82l-199 -270l-10 6l115 317q37 103 98 78zM709 -20q-252 0 -427.5 153.5t-175.5 415.5q0 260 175.5 412.5t427.5 152.5t427 -152.5t175 -412.5q0 -262 -175 -415.5t-427 -153.5zM709 51q201 0 326.5 139.5t125.5 358.5t-125 356t-327.5 137 t-328.5 -138t-126 -355q0 -219 126 -358.5t329 -139.5z" glyph-name="Oacute.aalt" horiz-adv-x="1417"/><glyph d="M709 1509l-232 -221l-10 6l143 250q49 86 99 86q47 0 96 -86l143 -250l-10 -6zM709 1114q252 0 427 -152.5t175 -412.5q0 -262 -175 -415.5t-427 -153.5t-427.5 153.5t-175.5 415.5q0 260 175.5 412.5t427.5 152.5zM709 51q201 0 326.5 139.5t125.5 358.5t-125 356 t-327.5 137t-328.5 -138t-126 -355q0 -219 126 -358.5t329 -139.5z" glyph-name="Ocircumflex.aalt" horiz-adv-x="1417"/><glyph d="M506 1395q-37 0 -63.5 25.5t-26.5 64.5q0 37 26.5 62.5t63.5 25.5t63.5 -25.5t26.5 -62.5q0 -39 -26.5 -64.5t-63.5 -25.5zM911 1395q-37 0 -63.5 25.5t-26.5 64.5q0 37 26.5 62.5t63.5 25.5t63.5 -25.5t26.5 -62.5q0 -39 -26.5 -64.5t-63.5 -25.5zM709 -20 q-252 0 -427.5 153.5t-175.5 415.5q0 260 175.5 412.5t427.5 152.5t427 -152.5t175 -412.5q0 -262 -175 -415.5t-427 -153.5zM709 51q201 0 326.5 139.5t125.5 358.5t-125 356t-327.5 137t-328.5 -138t-126 -355q0 -219 126 -358.5t329 -139.5z" glyph-name="Odieresis.aalt" horiz-adv-x="1417"/><glyph d="M545 1667q61 25 98 -78l115 -317l-10 -6l-199 270q-33 45 -35 82t31 49zM709 -20q-252 0 -427.5 153.5t-175.5 415.5q0 260 175.5 412.5t427.5 152.5t427 -152.5t175 -412.5q0 -262 -175 -415.5t-427 -153.5zM709 51q201 0 326.5 139.5t125.5 358.5t-125 356t-327.5 137 t-328.5 -138t-126 -355q0 -219 126 -358.5t329 -139.5z" glyph-name="Ograve.aalt" horiz-adv-x="1417"/><glyph d="M621 1268l-13 2l15 313q6 104 69 105q35 0 45.5 -37t-8.5 -88zM846 1268l-10 6l139 282q47 94 104 68q31 -14 26 -51t-42 -78zM709 -20q-252 0 -427.5 153.5t-175.5 415.5q0 260 175.5 412.5t427.5 152.5t427 -152.5t175 -412.5q0 -262 -175 -415.5t-427 -153.5zM709 51 q201 0 326.5 139.5t125.5 358.5t-125 356t-327.5 137t-328.5 -138t-126 -355q0 -219 126 -358.5t329 -139.5z" glyph-name="Ohungarumlaut.aalt" horiz-adv-x="1417"/><glyph d="M422 1528h573v-68h-573v68zM709 -20q-252 0 -427.5 153.5t-175.5 415.5q0 260 175.5 412.5t427.5 152.5t427 -152.5t175 -412.5q0 -262 -175 -415.5t-427 -153.5zM709 51q201 0 326.5 139.5t125.5 358.5t-125 356t-327.5 137t-328.5 -138t-126 -355q0 -219 126 -358.5 t329 -139.5z" glyph-name="Omacron.aalt" horiz-adv-x="1417"/><glyph d="M1176 922q135 -147 135 -373q0 -262 -175 -415.5t-427 -153.5q-227 0 -396 126l-151 -143l-53 57l147 140q-150 154 -150 389q0 260 175.5 412.5t427.5 152.5q242 0 411 -139l131 125l54 -56zM254 549q0 -180 88 -309l698 661q-129 141 -331.5 141t-328.5 -138t-126 -355 zM709 51q201 0 326.5 139.5t125.5 358.5q0 166 -76 289l-694 -658q123 -129 318 -129z" glyph-name="Oslash.aalt" horiz-adv-x="1417"/><glyph d="M389 1370l-14 4q53 188 198 189q70 0 157 -53.5t136 -53.5q55 0 89 26.5t73 86.5l14 -4q-25 -80 -78 -134.5t-120 -54.5q-78 0 -162 53.5t-131 53.5q-55 0 -89 -27t-73 -86zM709 -20q-252 0 -427.5 153.5t-175.5 415.5q0 260 175.5 412.5t427.5 152.5t427 -152.5 t175 -412.5q0 -262 -175 -415.5t-427 -153.5zM709 51q201 0 326.5 139.5t125.5 358.5t-125 356t-327.5 137t-328.5 -138t-126 -355q0 -219 126 -358.5t329 -139.5z" glyph-name="Otilde.aalt" horiz-adv-x="1417"/><glyph d="M1833 371h22l-34 -371h-1071q-279 0 -461.5 146.5t-182.5 402.5q0 254 181.5 399.5t462.5 145.5h1050v-371h-22q-25 188 -89.5 245.5t-213.5 57.5h-347v-426h218q111 0 154.5 48t60.5 194h22v-553h-22q-16 158 -64.5 200.5t-150.5 42.5h-218v-466h365q147 0 226 65.5 t114 239.5zM750 66h241v960h-241q-231 0 -363.5 -132t-132.5 -345q0 -215 132.5 -349t363.5 -134z" glyph-name="OE.aalt" horiz-adv-x="1947"/><glyph d="M735 1094q424 0 424 -310q0 -158 -108.5 -241.5t-319.5 -83.5h-282v-328q0 -57 45 -76.5t192 -34.5v-20h-553v20q115 14 149.5 32t34.5 63v864q0 47 -34.5 63.5t-149.5 30.5v21h602zM705 526q170 0 244.5 73t74.5 183q0 109 -75 176.5t-244 67.5h-256v-500h256z" glyph-name="P.aalt" horiz-adv-x="1185"/><glyph d="M735 877q424 0 424 -310q0 -158 -108.5 -241.5t-319.5 -83.5h-282v-111q0 -57 45 -76.5t192 -34.5v-20h-553v20q115 14 149.5 32t34.5 63v864q0 47 -34.5 63.5t-149.5 30.5v21h500v-21q-115 -14 -149.5 -30.5t-34.5 -63.5v-102h286zM705 309q170 0 244.5 73t74.5 183 q0 109 -75 176.5t-244 67.5h-256v-500h256z" glyph-name="Thorn.aalt" horiz-adv-x="1185"/><glyph d="M971 -258q166 0 250 123l26 -10q-100 -217 -295 -217q-109 0 -266.5 67.5t-243.5 67.5q-78 0 -153 -27l-21 35l285 215q-197 45 -322 190.5t-125 362.5q0 260 175.5 412.5t427.5 152.5t427 -152.5t175 -412.5q0 -262 -175 -415.5t-427 -153.5q-29 0 -82 4l-197 -152 q113 18 293 -36t248 -54zM254 549q0 -219 126 -358.5t329 -139.5q201 0 326.5 139.5t125.5 358.5t-125 356t-327.5 137t-328.5 -138t-126 -355z" glyph-name="Q.aalt" horiz-adv-x="1404"/><glyph d="M1296 180l21 -10q-25 -94 -80 -142t-129 -48q-90 0 -140 61t-81 215q-16 80 -50 137.5t-68 85t-85 42t-80 16.5t-76 2h-79v-408q0 -57 34.5 -76.5t151.5 -34.5v-20h-502v20q115 14 149.5 32t34.5 63v864q0 47 -34.5 63.5t-149.5 30.5v21h604q377 0 377 -265 q0 -123 -103.5 -199.5t-285.5 -74.5q236 -47 287 -264q35 -145 60.5 -191.5t78.5 -46.5q86 0 145 127zM449 600h206q160 0 242 66.5t82 160.5q0 199 -274 199h-256v-426z" glyph-name="R.aalt" horiz-adv-x="1302"/><glyph d="M838 1536l-199 -270l-10 6l114 317q37 102 99 78q33 -12 31 -49t-35 -82zM1296 180l21 -10q-25 -94 -80 -142t-129 -48q-90 0 -140 61t-81 215q-16 80 -50 137.5t-68 85t-85 42t-80 16.5t-76 2h-79v-408q0 -57 34.5 -76.5t151.5 -34.5v-20h-502v20q115 14 149.5 32 t34.5 63v864q0 47 -34.5 63.5t-149.5 30.5v21h604q377 0 377 -265q0 -123 -103.5 -199.5t-285.5 -74.5q236 -47 287 -264q35 -145 60.5 -191.5t78.5 -46.5q86 0 145 127zM449 600h206q160 0 242 66.5t82 160.5q0 199 -274 199h-256v-426z" glyph-name="Racute.aalt" horiz-adv-x="1302"/><glyph d="M655 1288q-49 0 -98 86l-143 250l10 6l231 -221l230 221l10 -6l-143 -250q-50 -86 -97 -86zM1296 180l21 -10q-25 -94 -80 -142t-129 -48q-90 0 -140 61t-81 215q-16 80 -50 137.5t-68 85t-85 42t-80 16.5t-76 2h-79v-408q0 -57 34.5 -76.5t151.5 -34.5v-20h-502v20 q115 14 149.5 32t34.5 63v864q0 47 -34.5 63.5t-149.5 30.5v21h604q377 0 377 -265q0 -123 -103.5 -199.5t-285.5 -74.5q236 -47 287 -264q35 -145 60.5 -191.5t78.5 -46.5q86 0 145 127zM449 600h206q160 0 242 66.5t82 160.5q0 199 -274 199h-256v-426z" glyph-name="Rcaron.aalt" horiz-adv-x="1302"/><glyph d="M1296 180l21 -10q-25 -94 -80 -142t-129 -48q-90 0 -140 61t-81 215q-16 80 -50 137.5t-68 85t-85 42t-80 16.5t-76 2h-79v-408q0 -57 34.5 -76.5t151.5 -34.5v-20h-502v20q115 14 149.5 32t34.5 63v864q0 47 -34.5 63.5t-149.5 30.5v21h604q377 0 377 -265 q0 -123 -103.5 -199.5t-285.5 -74.5q236 -47 287 -264q35 -145 60.5 -191.5t78.5 -46.5q86 0 145 127zM449 600h206q160 0 242 66.5t82 160.5q0 199 -274 199h-256v-426zM659 -117q104 0 105 -139q0 -115 -67.5 -188.5t-186.5 -96.5l-6 27q88 31 131 81t51 136 q-14 -6 -33 -6q-41 0 -64.5 26.5t-23.5 67.5q0 39 25.5 65.5t68.5 26.5z" glyph-name="Rcommaaccent.aalt" horiz-adv-x="1302"/><glyph d="M864 252q0 100 -83 155.5t-271 90.5q-180 35 -277.5 112.5t-97.5 229.5q0 123 92 200.5t238 77.5q147 0 291 -69q70 -33 96.5 -26t46.5 71h16v-422h-22q-37 379 -412 379q-115 0 -174 -53.5t-59 -137.5q0 -104 72.5 -156.5t226.5 -80.5q213 -39 321.5 -117t108.5 -225 q0 -141 -107.5 -223.5t-259.5 -82.5q-76 0 -140 13.5t-95 27t-88 39.5q-66 27 -88.5 15.5t-51.5 -70.5h-16v420h23q8 -84 38.5 -150.5t71.5 -107.5t93.5 -68.5t102.5 -38t99 -10.5q143 0 224 56.5t81 150.5z" glyph-name="S.aalt" horiz-adv-x="1114"/><glyph d="M725 1667q33 -12 31 -49t-35 -82l-199 -270l-10 6l115 317q37 103 98 78zM864 252q0 100 -83 155.5t-271 90.5q-180 35 -277.5 112.5t-97.5 229.5q0 123 92 200.5t238 77.5q147 0 291 -69q70 -33 96.5 -26t46.5 71h16v-422h-22q-37 379 -412 379q-115 0 -174 -53.5 t-59 -137.5q0 -104 72.5 -156.5t226.5 -80.5q213 -39 321.5 -117t108.5 -225q0 -141 -107.5 -223.5t-259.5 -82.5q-76 0 -140 13.5t-95 27t-88 39.5q-66 27 -88.5 15.5t-51.5 -70.5h-16v420h23q8 -84 38.5 -150.5t71.5 -107.5t93.5 -68.5t102.5 -38t99 -10.5q143 0 224 56.5 t81 150.5z" glyph-name="Sacute.aalt" horiz-adv-x="1114"/><glyph d="M539 1288q-49 0 -99 86l-143 250l10 6l232 -221l229 221l10 -6l-143 -250q-49 -86 -96 -86zM547 623q213 -39 321.5 -117t108.5 -225q0 -141 -107.5 -223.5t-259.5 -82.5q-76 0 -140 13.5t-95 27t-88 39.5q-66 27 -88.5 15.5t-51.5 -70.5h-16v420h23q8 -84 38.5 -150.5 t71.5 -107.5t93.5 -68.5t102.5 -38t99 -10.5q143 0 224 56.5t81 150.5q0 100 -83 155.5t-271 90.5q-180 35 -277.5 112.5t-97.5 229.5q0 123 92 200.5t238 77.5q147 0 291 -69q70 -33 96.5 -26t46.5 71h16v-422h-22q-37 379 -412 379q-115 0 -174 -53.5t-59 -137.5 q0 -104 72.5 -156t226.5 -81z" glyph-name="Scaron.aalt" horiz-adv-x="1114"/><glyph d="M610 -25q-33 0 -47 2l-18 -108q264 16 264 -141q0 -68 -52 -109t-147 -41q-178 0 -270 139l14 19q80 -84 224 -84q55 0 89.5 20.5t34.5 57.5q0 90 -223 86l-2 18l27 148q-94 14 -217 73q-66 27 -88.5 15.5t-51.5 -70.5h-16v420h23q8 -84 38.5 -150.5t71.5 -107.5 t93.5 -68.5t102.5 -38t99 -10.5q143 0 224 56.5t81 150.5q0 100 -83 155.5t-271 90.5q-180 35 -277.5 112.5t-97.5 229.5q0 123 92 200.5t238 77.5q147 0 291 -69q70 -33 96.5 -26t46.5 71h16v-422h-22q-37 379 -412 379q-115 0 -174 -53.5t-59 -137.5q0 -104 72.5 -156.5 t226.5 -80.5q213 -39 321.5 -117t108.5 -225q0 -141 -107.5 -223.5t-259.5 -82.5z" glyph-name="Scedilla.c2sc" horiz-adv-x="1114"/><glyph d="M547 623q213 -39 321.5 -117t108.5 -225q0 -141 -107.5 -223.5t-259.5 -82.5q-76 0 -140 13.5t-95 27t-88 39.5q-66 27 -88.5 15.5t-51.5 -70.5h-16v420h23q8 -84 38.5 -150.5t71.5 -107.5t93.5 -68.5t102.5 -38t99 -10.5q143 0 224 56.5t81 150.5q0 100 -83 155.5 t-271 90.5q-180 35 -277.5 112.5t-97.5 229.5q0 123 92 200.5t238 77.5q147 0 291 -69q70 -33 96.5 -26t46.5 71h16v-422h-22q-37 379 -412 379q-115 0 -174 -53.5t-59 -137.5q0 -104 72.5 -156t226.5 -81zM543 -117q104 0 104 -139q0 -115 -67.5 -188.5t-186.5 -96.5l-6 27 q88 31 131 81t51 136q-14 -6 -32 -6q-41 0 -64.5 26.5t-23.5 67.5q0 39 25.5 65.5t68.5 26.5z" glyph-name="Scommaaccent.aalt" horiz-adv-x="1114"/><glyph d="M848 608q457 -27 457 -327q0 -152 -102.5 -226.5t-262.5 -74.5q-143 0 -234.5 46t-91.5 115q0 35 20.5 56.5t55.5 21.5q88 0 168 -174q41 -4 66 -4q104 0 171.5 62.5t67.5 170.5q0 276 -442 277v47l319 428h-585v-1026h-322v20q115 14 149.5 32t34.5 63v864 q0 45 -31.5 62.5t-152.5 31.5v21h1043v-50z" glyph-name="uni1E9E.aalt" horiz-adv-x="1382"/><glyph d="M1057 1094v-377h-23q-12 106 -34.5 169.5t-60.5 93.5t-76 38t-101 8h-139v-911q0 -45 41 -62.5t174 -32.5v-20h-570v20q133 14 174 32t41 63v911h-139q-68 0 -106.5 -9t-74.5 -41t-57.5 -94.5t-33.5 -164.5h-23v377h1008z" glyph-name="T.aalt" horiz-adv-x="1105"/><glyph d="M1057 1094v-377h-23q-12 106 -34.5 169.5t-60.5 93.5t-76 38t-101 8h-139v-518h323v-68h-323v-325q0 -45 41 -62.5t174 -32.5v-20h-570v20q133 14 174 32t41 63v325h-323v68h323v518h-139q-68 0 -106.5 -9t-74.5 -41t-57.5 -94.5t-33.5 -164.5h-23v377h1008z" glyph-name="Tbar.aalt" horiz-adv-x="1105"/><glyph d="M553 1288q-49 0 -98 86l-144 250l11 6l231 -221l229 221l11 -6l-144 -250q-49 -86 -96 -86zM1057 1094v-377h-23q-12 106 -34.5 169.5t-60.5 93.5t-76 38t-101 8h-139v-911q0 -45 41 -62.5t174 -32.5v-20h-570v20q133 14 174 32t41 63v911h-139q-68 0 -106.5 -9 t-74.5 -41t-57.5 -94.5t-33.5 -164.5h-23v377h1008z" glyph-name="Tcaron.aalt" horiz-adv-x="1105"/><glyph d="M1057 1094v-377h-23q-12 106 -34.5 169.5t-60.5 93.5t-76 38t-101 8h-139v-911q0 -45 41 -62.5t174 -32.5v-20h-256l-23 -131q264 16 264 -141q0 -68 -52 -109t-146 -41q-178 0 -271 139l15 19q80 -84 223 -84q55 0 90 20.5t35 57.5q0 90 -223 86l-2 18l28 166h-252v20 q133 14 174 32t41 63v911h-139q-68 0 -106.5 -9t-74.5 -41t-57.5 -94.5t-33.5 -164.5h-23v377h1008z" glyph-name="Tcommaaccent.c2sc" horiz-adv-x="1105"/><glyph d="M1057 1094v-377h-23q-12 106 -34.5 169.5t-60.5 93.5t-76 38t-101 8h-139v-911q0 -45 41 -62.5t174 -32.5v-20h-570v20q133 14 174 32t41 63v911h-139q-68 0 -106.5 -9t-74.5 -41t-57.5 -94.5t-33.5 -164.5h-23v377h1008zM557 -117q104 0 105 -139q0 -115 -68 -188.5 t-186 -96.5l-7 27q88 31 131 81t52 136q-14 -6 -33 -6q-41 0 -64.5 26.5t-23.5 67.5q0 39 25.5 65.5t68.5 26.5z" glyph-name="uni021A.aalt" horiz-adv-x="1105"/><glyph d="M236 504v475q0 43 -30 61.5t-138 32.5v21h483v-21q-119 -14 -149.5 -32.5t-30.5 -61.5v-492q0 -213 80.5 -326.5t265.5 -113.5q188 0 267 116t79 324v492q0 43 -33 62.5t-151 31.5v21h485v-21q-109 -12 -138.5 -30.5t-29.5 -63.5v-475q0 -266 -128 -397.5t-351 -131.5 t-352 131.5t-129 397.5z" glyph-name="U.aalt" horiz-adv-x="1431"/><glyph d="M901 1667q33 -12 31 -49t-35 -82l-199 -270l-10 6l115 317q37 103 98 78zM236 504v475q0 43 -30 61.5t-138 32.5v21h483v-21q-119 -14 -149.5 -32.5t-30.5 -61.5v-492q0 -213 80.5 -326.5t265.5 -113.5q188 0 267 116t79 324v492q0 43 -33 62.5t-151 31.5v21h485v-21 q-109 -12 -138.5 -30.5t-29.5 -63.5v-475q0 -266 -128 -397.5t-351 -131.5t-352 131.5t-129 397.5z" glyph-name="Uacute.aalt" horiz-adv-x="1431"/><glyph d="M715 1509l-232 -221l-10 6l143 250q49 86 99 86q47 0 96 -86l143 -250l-10 -6zM879 1094h485v-21q-109 -12 -138.5 -30.5t-29.5 -63.5v-475q0 -266 -128 -397.5t-351 -131.5t-352 131.5t-129 397.5v475q0 43 -30 61.5t-138 32.5v21h483v-21q-119 -14 -149.5 -32.5 t-30.5 -61.5v-492q0 -213 80.5 -326.5t265.5 -113.5q188 0 267 116t79 324v492q0 43 -33 62.5t-151 31.5v21z" glyph-name="Ucircumflex.aalt" horiz-adv-x="1431"/><glyph d="M512 1395q-37 0 -63.5 25.5t-26.5 64.5q0 37 26.5 62.5t63.5 25.5t63.5 -25.5t26.5 -62.5q0 -39 -26.5 -64.5t-63.5 -25.5zM917.5 1395q-36.5 0 -63.5 25.5t-27 64.5q0 37 27 62.5t63.5 25.5t63.5 -25.5t27 -62.5q0 -39 -27 -64.5t-63.5 -25.5zM236 504v475 q0 43 -30 61.5t-138 32.5v21h483v-21q-119 -14 -149.5 -32.5t-30.5 -61.5v-492q0 -213 80.5 -326.5t265.5 -113.5q188 0 267 116t79 324v492q0 43 -33 62.5t-151 31.5v21h485v-21q-109 -12 -138.5 -30.5t-29.5 -63.5v-475q0 -266 -128 -397.5t-351 -131.5t-352 131.5 t-129 397.5z" glyph-name="Udieresis.aalt" horiz-adv-x="1431"/><glyph d="M551 1667q61 25 98 -78l115 -317l-10 -6l-199 270q-33 45 -35 82t31 49zM236 504v475q0 43 -30 61.5t-138 32.5v21h483v-21q-119 -14 -149.5 -32.5t-30.5 -61.5v-492q0 -213 80.5 -326.5t265.5 -113.5q188 0 267 116t79 324v492q0 43 -33 62.5t-151 31.5v21h485v-21 q-109 -12 -138.5 -30.5t-29.5 -63.5v-475q0 -266 -128 -397.5t-351 -131.5t-352 131.5t-129 397.5z" glyph-name="Ugrave.aalt" horiz-adv-x="1431"/><glyph d="M627 1268l-13 2l15 313q6 104 69 105q35 0 45.5 -37t-8.5 -88zM852 1268l-10 6l139 282q47 94 104 68q31 -14 26 -51t-42 -78zM236 504v475q0 43 -30 61.5t-138 32.5v21h483v-21q-119 -14 -149.5 -32.5t-30.5 -61.5v-492q0 -213 80.5 -326.5t265.5 -113.5q188 0 267 116 t79 324v492q0 43 -33 62.5t-151 31.5v21h485v-21q-109 -12 -138.5 -30.5t-29.5 -63.5v-475q0 -266 -128 -397.5t-351 -131.5t-352 131.5t-129 397.5z" glyph-name="Uhungarumlaut.aalt" horiz-adv-x="1431"/><glyph d="M428 1528h573v-68h-573v68zM236 504v475q0 43 -30 61.5t-138 32.5v21h483v-21q-119 -14 -149.5 -32.5t-30.5 -61.5v-492q0 -213 80.5 -326.5t265.5 -113.5q188 0 267 116t79 324v492q0 43 -33 62.5t-151 31.5v21h485v-21q-109 -12 -138.5 -30.5t-29.5 -63.5v-475 q0 -266 -128 -397.5t-351 -131.5t-352 131.5t-129 397.5z" glyph-name="Umacron.aalt" horiz-adv-x="1431"/><glyph d="M879 1094h485v-21q-109 -12 -138.5 -30.5t-29.5 -63.5v-475q0 -227 -94 -356.5t-264 -161.5q-233 -98 -234 -265q0 -86 82 -86q102 0 170 78l10 -6q-72 -139 -227 -139q-61 0 -100 35t-39 100q0 84 62.5 156.5t160.5 115.5h-6q-223 0 -352 131.5t-129 397.5v475 q0 43 -30 61.5t-138 32.5v21h483v-21q-119 -14 -149.5 -32.5t-30.5 -61.5v-492q0 -213 80.5 -326.5t265.5 -113.5q188 0 267 116t79 324v492q0 43 -33 62.5t-151 31.5v21z" glyph-name="Uogonek.aalt" horiz-adv-x="1431"/><glyph d="M715 1255q-90 0 -151.5 57.5t-61.5 147.5t61.5 148.5t151.5 58.5t150.5 -57.5t60.5 -149.5q0 -90 -60.5 -147.5t-150.5 -57.5zM714.5 1303q63.5 0 109.5 41.5t46 115.5t-46 117t-109.5 43t-109.5 -43t-46 -117t46 -115.5t109.5 -41.5zM236 504v475q0 43 -30 61.5 t-138 32.5v21h483v-21q-119 -14 -149.5 -32.5t-30.5 -61.5v-492q0 -213 80.5 -326.5t265.5 -113.5q188 0 267 116t79 324v492q0 43 -33 62.5t-151 31.5v21h485v-21q-109 -12 -138.5 -30.5t-29.5 -63.5v-475q0 -266 -128 -397.5t-351 -131.5t-352 131.5t-129 397.5z" glyph-name="Uring.aalt" horiz-adv-x="1431"/><glyph d="M889 1094h448v-21q-74 -14 -108.5 -47t-69.5 -113l-401 -913h-156l-401 909q-39 88 -69 118t-109 46v21h507v-21q-152 -16 -188.5 -48t0.5 -114l371 -835l348 801q43 98 6 139t-178 57v21z" glyph-name="V.aalt" horiz-adv-x="1359"/><glyph d="M1618 1094h446v-21q-76 -14 -110.5 -49t-67.5 -111l-401 -913h-113l-330 928l-325 -928h-115l-401 909q-39 88 -69 118t-109 46v21h507v-21q-152 -16 -188.5 -48t0.5 -114l344 -776l270 776q27 76 -4.5 111t-171.5 51v21h584v-21q-141 -16 -173 -48t1 -114l272 -778 l330 750q45 90 9 132t-185 58v21z" glyph-name="w.aalt" horiz-adv-x="2086"/><glyph d="M1227 1536l-199 -270l-10 6l115 317q37 102 98 78q33 -12 31 -49t-35 -82zM1618 1094h446v-21q-76 -14 -110.5 -49t-67.5 -111l-401 -913h-113l-330 928l-325 -928h-115l-401 909q-39 88 -69 118t-109 46v21h507v-21q-152 -16 -188.5 -48t0.5 -114l344 -776l270 776 q27 76 -4.5 111t-171.5 51v21h584v-21q-141 -16 -173 -48t1 -114l272 -778l330 750q45 90 9 132t-185 58v21z" glyph-name="Wacute.aalt" horiz-adv-x="2086"/><glyph d="M1044 1509l-231 -221l-10 6l143 250q49 86 98 86q47 0 97 -86l143 -250l-10 -6zM1618 1094h446v-21q-76 -14 -110.5 -49t-67.5 -111l-401 -913h-113l-330 928l-325 -928h-115l-401 909q-39 88 -69 118t-109 46v21h507v-21q-152 -16 -188.5 -48t0.5 -114l344 -776l270 776 q27 76 -4.5 111t-171.5 51v21h584v-21q-141 -16 -173 -48t1 -114l272 -778l330 750q45 90 9 132t-185 58v21z" glyph-name="Wcircumflex.aalt" horiz-adv-x="2086"/><glyph d="M842 1395q-37 0 -63.5 25.5t-26.5 64.5q0 37 26.5 62.5t63.5 25.5t63.5 -25.5t26.5 -62.5q0 -39 -26.5 -64.5t-63.5 -25.5zM1247 1395q-37 0 -63.5 25.5t-26.5 64.5q0 37 26.5 62.5t63.5 25.5t63.5 -25.5t26.5 -62.5q0 -39 -26.5 -64.5t-63.5 -25.5zM1618 1094h446v-21 q-76 -14 -110.5 -49t-67.5 -111l-401 -913h-113l-330 928l-325 -928h-115l-401 909q-39 88 -69 118t-109 46v21h507v-21q-152 -16 -188.5 -48t0.5 -114l344 -776l270 776q27 76 -4.5 111t-171.5 51v21h584v-21q-141 -16 -173 -48t1 -114l272 -778l330 750q45 90 9 132 t-185 58v21z" glyph-name="Wdieresis.aalt" horiz-adv-x="2086"/><glyph d="M1083 1266l-198 270q-33 45 -35 82t31 49q61 25 98 -78l115 -317zM1618 1094h446v-21q-76 -14 -110.5 -49t-67.5 -111l-401 -913h-113l-330 928l-325 -928h-115l-401 909q-39 88 -69 118t-109 46v21h507v-21q-152 -16 -188.5 -48t0.5 -114l344 -776l270 776 q27 76 -4.5 111t-171.5 51v21h584v-21q-141 -16 -173 -48t1 -114l272 -778l330 750q45 90 9 132t-185 58v21z" glyph-name="Wgrave.aalt" horiz-adv-x="2086"/><glyph d="M1016 180q63 -82 107 -113.5t118 -46.5v-20h-524v20q147 14 175 53.5t-36 110.5l-272 334l-267 -346q-55 -59 -26.5 -98t172.5 -54v-20h-451v20q72 12 117 46t98 104l308 399l-283 344q-70 84 -115 116t-117 44v21h527v-21q-147 -14 -175 -52t38 -110l249 -301l261 312 q35 41 38 69.5t-39 51t-139 30.5v21h453v-21q-72 -12 -116 -45t-103 -104l-303 -365z" glyph-name="X.aalt" horiz-adv-x="1253"/><glyph d="M799 1094h428v-21q-70 -14 -115 -47t-106 -113l-312 -401v-397q0 -45 32 -62.5t153 -32.5v-20h-506v20q119 14 151.5 32t32.5 63v395l-307 403q-45 57 -65.5 79t-62.5 46.5t-102 34.5v21h512v-21q-129 -14 -153.5 -55t31.5 -107l249 -336l254 330q61 72 38 114t-152 54 v21z" glyph-name="Y.aalt" horiz-adv-x="1247"/><glyph d="M829 1536l-198 -270l-10 6l114 317q37 102 99 78q33 -12 30.5 -49t-35.5 -82zM799 1094h428v-21q-70 -14 -115 -47t-106 -113l-312 -401v-397q0 -45 32 -62.5t153 -32.5v-20h-506v20q119 14 151.5 32t32.5 63v395l-307 403q-45 57 -65.5 79t-62.5 46.5t-102 34.5v21h512 v-21q-129 -14 -153.5 -55t31.5 -107l249 -336l254 330q61 72 38 114t-152 54v21z" glyph-name="Yacute.aalt" horiz-adv-x="1247"/><glyph d="M647 1509l-231 -221l-10 6l143 250q49 86 98 86q47 0 96 -86l144 -250l-10 -6zM799 1094h428v-21q-70 -14 -115 -47t-106 -113l-312 -401v-397q0 -45 32 -62.5t153 -32.5v-20h-506v20q119 14 151.5 32t32.5 63v395l-307 403q-45 57 -65.5 79t-62.5 46.5t-102 34.5v21h512 v-21q-129 -14 -153.5 -55t31.5 -107l249 -336l254 330q61 72 38 114t-152 54v21z" glyph-name="Ycircumflex.aalt" horiz-adv-x="1247"/><glyph d="M444.5 1395q-36.5 0 -63.5 25.5t-27 64.5q0 37 27 62.5t63.5 25.5t63.5 -25.5t27 -62.5q0 -39 -27 -64.5t-63.5 -25.5zM850 1395q-37 0 -63.5 25.5t-26.5 64.5q0 37 26.5 62.5t63.5 25.5t63.5 -25.5t26.5 -62.5q0 -39 -26.5 -64.5t-63.5 -25.5zM799 1094h428v-21 q-70 -14 -115 -47t-106 -113l-312 -401v-397q0 -45 32 -62.5t153 -32.5v-20h-506v20q119 14 151.5 32t32.5 63v395l-307 403q-45 57 -65.5 79t-62.5 46.5t-102 34.5v21h512v-21q-129 -14 -153.5 -55t31.5 -107l249 -336l254 330q61 72 38 114t-152 54v21z" glyph-name="ydieresis.aalt" horiz-adv-x="1247"/><glyph d="M686 1266l-199 270q-33 45 -34.5 82t30.5 49q61 25 99 -78l114 -317zM799 1094h428v-21q-70 -14 -115 -47t-106 -113l-312 -401v-397q0 -45 32 -62.5t153 -32.5v-20h-506v20q119 14 151.5 32t32.5 63v395l-307 403q-45 57 -65.5 79t-62.5 46.5t-102 34.5v21h512v-21 q-129 -14 -153.5 -55t31.5 -107l249 -336l254 330q61 72 38 114t-152 54v21z" glyph-name="Ygrave.aalt" horiz-adv-x="1247"/><glyph d="M113 0v49l688 979h-408q-147 0 -206.5 -61.5t-82.5 -259.5h-22v387h891v-39l-694 -985h428q70 0 109.5 8t80.5 38.5t63.5 96.5t34.5 174h25v-387h-907z" glyph-name="Z.aalt" horiz-adv-x="1118"/><glyph d="M745 1667q33 -12 31 -49t-35 -82l-198 -270l-11 6l115 317q37 103 98 78zM113 0v49l688 979h-408q-147 0 -206.5 -61.5t-82.5 -259.5h-22v387h891v-39l-694 -985h428q70 0 109.5 8t80.5 38.5t63.5 96.5t34.5 174h25v-387h-907z" glyph-name="Zacute.aalt" horiz-adv-x="1118"/><glyph d="M559 1288q-49 0 -98 86l-144 250l11 6l231 -221l229 221l11 -6l-144 -250q-49 -86 -96 -86zM995 387h25v-387h-907v49l688 979h-408q-147 0 -206.5 -61.5t-82.5 -259.5h-22v387h891v-39l-694 -985h428q70 0 109.5 8t80.5 38.5t63.5 96t34.5 174.5z" glyph-name="Zcaron.aalt" horiz-adv-x="1118"/><glyph d="M559 1391q-39 0 -66.5 27.5t-27.5 66.5t27.5 65.5t66.5 26.5t66.5 -26.5t27.5 -65.5t-27.5 -66.5t-66.5 -27.5zM113 0v49l688 979h-408q-147 0 -206.5 -61.5t-82.5 -259.5h-22v387h891v-39l-694 -985h428q70 0 109.5 8t80.5 38.5t63.5 96.5t34.5 174h25v-387h-907z" glyph-name="Zdotaccent.aalt" horiz-adv-x="1118"/><glyph d="M606 -20q-223 0 -370.5 151.5t-147.5 417.5q0 262 147.5 415.5t370.5 153.5t370.5 -153.5t147.5 -415.5q0 -266 -147.5 -417.5t-370.5 -151.5zM606 47q174 0 272.5 126t98.5 376q0 240 -99.5 371t-271.5 131t-271 -131.5t-99 -370.5q0 -250 98 -376t272 -126z" glyph-name="zero.oldstyle" horiz-adv-x="1212"/><glyph d="M412 1114v-997q0 -43 34.5 -62.5t163.5 -34.5v-20h-534v20q125 16 161.5 33t36.5 64l-4 891h-153v24l133 25q104 20 141 57h21z" glyph-name="one.oldstyle" horiz-adv-x="700"/><glyph d="M956 391h23v-391h-909v55q305 147 477 330.5t172 390.5q0 141 -82 208t-215 67q-102 0 -176 -35q4 -102 -31 -177t-109 -81q-39 -2 -57 20.5t-18 55.5q0 92 115.5 188t302.5 96q195 0 306 -88t111 -256q0 -201 -172 -375t-432 -303h420q131 0 181 55.5t93 239.5z" glyph-name="two.oldstyle" horiz-adv-x="1058"/><glyph d="M618 406q186 -16 293 -110.5t107 -236.5q0 -178 -140.5 -272t-353.5 -94q-170 0 -311 68.5t-141 177.5q0 41 21.5 64.5t56.5 23.5q51 0 105 -64.5t83 -171.5q76 -29 178 -29q154 0 255 83t101 214q0 305 -430 306h-131v73h131q197 0 297.5 99.5t100.5 248.5 q0 121 -72 191t-195 70q-172 0 -268 -66q6 -115 -27.5 -179.5t-99.5 -64.5q-86 0 -76 92q12 102 150.5 195.5t333.5 93.5q78 0 143.5 -16.5t124.5 -51t94 -102t35 -162.5q0 -131 -97.5 -237t-267.5 -143z" glyph-name="three.oldstyle" horiz-adv-x="1167"/><glyph d="M1139 72v-72h-234v-295h-123v295h-747v53l727 1039h143v-1020h234zM131 72h651v929z" glyph-name="four.oldstyle" horiz-adv-x="1183"/><glyph d="M623 518q186 0 309 -95t123 -290q0 -215 -144.5 -327.5t-363.5 -112.5q-172 0 -314.5 71.5t-142.5 178.5q0 39 21.5 61.5t56.5 22.5q51 0 104.5 -68t83.5 -168q76 -29 185 -29q164 0 263 98.5t99 272.5q0 154 -83 235t-210 81q-147 0 -237 -52.5t-131 -124.5l-64 13 l23 809h651q41 0 58.5 14t37.5 53h25v-198h-703l-20 -594q135 149 373 149z" glyph-name="five.oldstyle" horiz-adv-x="1169"/><glyph d="M750 813q176 0 288.5 -94t112.5 -297q0 -197 -133 -322t-336 -125q-268 0 -406.5 190.5t-138.5 543.5q0 313 172 533t445 220q172 0 284.5 -76.5t112.5 -168.5q0 -39 -23.5 -61.5t-64.5 -22.5q-145 0 -176 245q-47 10 -123 15q-213 8 -344 -185.5t-131 -505.5 q0 -113 8 -188q57 129 175 214t278 85zM682 45q147 0 235.5 102.5t88.5 274.5q0 160 -73 241.5t-206 81.5t-245.5 -87t-172.5 -236q35 -199 128 -288t245 -89z" glyph-name="six.oldstyle" horiz-adv-x="1275"/><glyph d="M170 1094h764v-45l-404 -1342h-157l477 1276h-789v172h23q10 -39 27.5 -50t58.5 -11z" glyph-name="seven.oldstyle" horiz-adv-x="1024"/><glyph d="M752 797q197 -86 287.5 -186.5t90.5 -260.5q0 -186 -140 -280.5t-372 -94.5q-252 0 -366.5 97.5t-114.5 251.5q0 150 106.5 256t293.5 159q-338 152 -338 398q0 150 126 237.5t328 87.5q197 0 309.5 -86t110.5 -223q-2 -125 -88 -217t-233 -139zM317 1149q0 -94 79 -169 t278 -151q8 -4 12 -4q141 63 199.5 145.5t58.5 188.5q0 111 -76.5 172.5t-214.5 61.5q-147 0 -241.5 -62.5t-94.5 -181.5zM618 45q172 0 283 80t111 225q0 117 -87 198t-298 157q-16 6 -21 8q-340 -127 -340 -385q0 -123 88 -203t264 -80z" glyph-name="eight.oldstyle" horiz-adv-x="1267"/><glyph d="M594 1118q233 0 378.5 -168t145.5 -487q0 -334 -157.5 -552t-436.5 -218q-156 0 -294 62.5t-138 156.5q0 41 21.5 64.5t56.5 23.5q55 0 108.5 -55.5t81.5 -159.5q66 -23 164 -23q442 0 443 701q0 66 -2 94q-57 -121 -167 -195.5t-266 -74.5q-180 0 -300.5 100t-120.5 277 q0 201 136 327.5t347 126.5zM561 356q135 0 238.5 83t152.5 237q-59 373 -358 373q-162 0 -256 -103.5t-94 -275.5q0 -152 85 -233t232 -81z" glyph-name="nine.oldstyle" horiz-adv-x="1280"/><glyph d="M477 -14q-178 0 -294.5 99t-116.5 273q0 172 117.5 271.5t293.5 99.5t294 -100.5t118 -270.5q0 -174 -117 -273t-295 -99zM477 35q131 0 205 82t74 241q0 154 -75 238t-204 84t-202.5 -84t-73.5 -238q0 -160 72.5 -241.5t203.5 -81.5z" glyph-name="zero.dnom" horiz-adv-x="954"/><glyph d="M332 725v-645q0 -18 4 -26.5t31.5 -18.5t87.5 -17v-18h-371v18q76 8 98.5 20.5t22.5 41.5l-2 561h-119v25l100 14q92 10 127 45h21z" glyph-name="one.dnom" horiz-adv-x="520"/><glyph d="M702 264h21v-264h-643v47q203 96 325.5 220t122.5 255q0 82 -50 122t-130 40t-135 -25q4 -160 -100 -161q-29 -2 -45.5 14t-16.5 41q0 61 87 118.5t231 57.5q137 0 215 -55.5t78 -157.5q0 -213 -410 -430h229q104 0 146 32.5t75 145.5z" glyph-name="two.dnom" horiz-adv-x="821"/><glyph d="M428 362q131 -12 200.5 -58t69.5 -120q0 -96 -92 -147t-250 -51q-137 0 -227 40t-92 101q-2 25 15.5 42t43.5 17q35 0 67 -38.5t52 -94.5q53 -20 119 -20q115 0 174 42t59 111q0 84 -75.5 115t-212.5 31h-86v53h86q135 0 202.5 46t67.5 116q0 131 -170 133 q-102 0 -164 -25q2 -66 -23.5 -108.5t-76.5 -44.5q-31 -2 -46.5 15.5t-15.5 39.5q0 57 96.5 113.5t249.5 56.5q279 0 279 -172q0 -70 -63.5 -121.5t-186.5 -71.5z" glyph-name="three.dnom" horiz-adv-x="788"/><glyph d="M786 162h-141v-82q0 -20 4 -28.5t28.5 -17.5t80.5 -16v-18h-344v18q68 10 89 21.5t21 40.5v82h-499v35l487 516h133v-502h141v-49zM106 211h418v438z" glyph-name="four.dnom" horiz-adv-x="796"/><glyph d="M416 422q121 0 200.5 -53.5t79.5 -155.5q0 -111 -94 -170t-248 -59q-115 0 -201.5 44t-86.5 107q0 23 15 39t40 16q39 0 69.5 -39.5t47.5 -99.5q49 -16 108 -16q98 0 156.5 48t58.5 128q0 78 -50 118t-128 40q-76 0 -138.5 -21.5t-82.5 -46.5l-43 8v404h536v-107h-475 l-2 -241q103 57 238 57z" glyph-name="five.dnom" horiz-adv-x="780"/><glyph d="M487 414q113 0 190 -49.5t77 -151.5t-93.5 -165.5t-236.5 -63.5q-176 0 -267 95t-91 271q0 160 110.5 269.5t298.5 109.5q121 0 190.5 -40t69.5 -91q0 -27 -19.5 -42t-45.5 -15q-96 0 -133 135q-8 0 -26.5 1t-29.5 1q-131 2 -205.5 -87t-74.5 -243q0 -43 2 -63 q89 129 284 129zM424 31q90 0 145.5 49t55.5 129q0 76 -45 114.5t-123 38.5q-170 0 -246 -137q35 -194 213 -194z" glyph-name="six.dnom" horiz-adv-x="833"/><glyph d="M12 713h609v-45l-322 -668h-131l373 612h-529v101z" glyph-name="seven.dnom" horiz-adv-x="661"/><glyph d="M514 406q240 -70 240 -220q0 -102 -95.5 -151t-257.5 -49q-166 0 -245.5 49t-79.5 125q0 139 235 192q-193 72 -192 193q0 86 85 134t222 48q135 0 211 -43t76 -113q0 -122 -199 -165zM227 573q0 -53 46 -85.5t184 -65.5h4q84 25 114.5 61.5t30.5 88t-48 79t-132 27.5 t-141.5 -28t-57.5 -77zM401 33q106 0 175 35.5t69 101.5q0 57 -54 92t-188 64q-16 2 -38 10q-182 -53 -183 -172q0 -57 55 -94t164 -37z" glyph-name="eight.dnom" horiz-adv-x="829"/><glyph d="M397 727q160 0 257.5 -96t97.5 -266q0 -174 -101.5 -276.5t-279.5 -102.5q-117 0 -208 41t-91 100t55 59q72 0 123 -135q55 -16 115 -16q250 0 249 330q0 35 -2 51q-88 -125 -268 -125q-117 0 -195.5 50t-78.5 157q0 102 92 165.5t235 63.5zM377 340q76 0 136 41t91 102 q-39 195 -207 195q-92 0 -148 -48t-56 -128q0 -78 50 -120t134 -42z" glyph-name="nine.dnom" horiz-adv-x="817"/><glyph d="M477 727q-178 0 -294.5 99.5t-116.5 273.5q0 172 117.5 271t293.5 99t294 -100t118 -270q0 -174 -117 -273.5t-295 -99.5zM477 776q131 0 205 82t74 242q0 154 -75 237.5t-204 83.5t-202.5 -84t-73.5 -237q0 -160 72.5 -242t203.5 -82z" glyph-name="zero.frac" horiz-adv-x="954"/><glyph d="M332 1450v-645q0 -18 4 -26.5t31.5 -18.5t87.5 -17v-18h-371v18q76 8 98.5 20.5t22.5 41.5l-2 561h-119v25l100 14q92 10 127 45h21z" glyph-name="one.frac" horiz-adv-x="520"/><glyph d="M702 1001h21v-264h-643v47q203 96 325.5 220t122.5 256q0 82 -50 121.5t-130 39.5t-135 -24q4 -160 -100 -162q-29 -2 -45.5 14.5t-16.5 40.5q0 61 87 118.5t231 57.5q137 0 215 -55t78 -158q0 -213 -410 -430h229q104 0 146 32.5t75 145.5z" glyph-name="two.frac" horiz-adv-x="821"/><glyph d="M428 1096q131 -12 200.5 -58.5t69.5 -119.5q0 -96 -92 -147.5t-250 -51.5q-137 0 -227 40t-92 101q-2 25 15.5 42.5t43.5 17.5q35 0 67 -39t52 -95q53 -20 119 -20q115 0 174 42t59 112q0 84 -75.5 114.5t-212.5 30.5h-86v53h86q135 0 202.5 46t67.5 116q0 131 -170 133 q-102 0 -164 -24q2 -66 -23.5 -109t-76.5 -45q-31 -2 -46.5 15.5t-15.5 39.5q0 57 96.5 113.5t249.5 56.5q279 0 279 -172q0 -70 -63.5 -121t-186.5 -71z" glyph-name="three.frac" horiz-adv-x="788"/><glyph d="M786 887h-141v-82q0 -20 4 -28.5t28.5 -17.5t80.5 -16v-18h-344v18q68 10 89 21.5t21 40.5v82h-499v35l487 516h133v-502h141v-49zM106 936h418v438z" glyph-name="four.frac" horiz-adv-x="796"/><glyph d="M416 1145q121 0 200.5 -53.5t79.5 -155.5q0 -111 -94 -170t-248 -59q-115 0 -201.5 44t-86.5 107q0 23 15 39t40 16q39 0 69.5 -39.5t47.5 -99.5q49 -16 108 -16q98 0 156.5 48t58.5 128q0 78 -50 118t-128 40q-76 0 -138.5 -21.5t-82.5 -46.5l-43 8v404h536v-107h-475 l-2 -242q103 58 238 58z" glyph-name="five.frac" horiz-adv-x="780"/><glyph d="M487 1155q113 0 190 -49t77 -151.5t-93.5 -166t-236.5 -63.5q-176 0 -267 95t-91 272q0 160 110.5 269t298.5 109q121 0 190.5 -39.5t69.5 -91.5q0 -27 -19.5 -42t-45.5 -15q-96 0 -133 135q-8 0 -26.5 1t-29.5 1q-131 2 -205.5 -87t-74.5 -242q0 -43 2 -64 q89 129 284 129zM424 772q90 0 145.5 49t55.5 129q0 76 -45 115t-123 39q-170 0 -246 -137q35 -195 213 -195z" glyph-name="six.frac" horiz-adv-x="833"/><glyph d="M12 1438h609v-45l-322 -668h-131l373 612h-529v101z" glyph-name="seven.frac" horiz-adv-x="661"/><glyph d="M514 1155q240 -70 240 -219q0 -102 -95.5 -151.5t-257.5 -49.5q-166 0 -245.5 49.5t-79.5 124.5q0 139 235 193q-193 72 -192 192q0 86 85 134.5t222 48.5q135 0 211 -43t76 -113q0 -123 -199 -166zM227 1323q0 -53 46 -86t184 -66h4q84 25 114.5 62t30.5 88t-48 78.5 t-132 27.5t-141.5 -27.5t-57.5 -76.5zM401 782q106 0 175 36t69 102q0 57 -54 92t-188 63q-16 2 -38 10q-182 -53 -183 -172q0 -57 55 -94t164 -37z" glyph-name="eight.frac" horiz-adv-x="829"/><glyph d="M397 1462q160 0 257.5 -96t97.5 -266q0 -174 -101.5 -276.5t-279.5 -102.5q-117 0 -208 41t-91 100.5t55 59.5q72 0 123 -136q55 -16 115 -16q250 0 249 330q0 35 -2 51q-88 -125 -268 -125q-117 0 -195.5 50t-78.5 157q0 102 92 165.5t235 63.5zM377 1075q76 0 136 41 t91 103q-39 195 -207 194q-92 0 -148 -48t-56 -128q0 -78 50 -120t134 -42z" glyph-name="nine.frac" horiz-adv-x="817"/><glyph d="M606 -20q-223 0 -370.5 151.5t-147.5 417.5q0 262 147.5 415.5t370.5 153.5t370.5 -153.5t147.5 -415.5q0 -266 -147.5 -417.5t-370.5 -151.5zM606 41q174 0 272.5 128t98.5 380q0 244 -99.5 376t-271.5 132t-271 -132t-99 -376q0 -252 98 -380t272 -128z" glyph-name="zero.c2sc" horiz-adv-x="1212"/><glyph d="M412 1114v-997q0 -43 27.5 -62.5t129.5 -34.5v-20h-452v20q98 16 127.5 33t29.5 64l-4 891h-153v24l133 25q104 20 141 57h21z" glyph-name="one.c2sc" horiz-adv-x="661"/><glyph d="M895 391h23v-391h-812v55q264 150 425 343.5t161 398.5q0 133 -66.5 197.5t-172.5 64.5q-113 0 -181 -39q2 -96 -27.5 -162.5t-94.5 -71.5q-39 -2 -57.5 20.5t-18.5 55.5q0 84 109.5 170t287.5 86q172 0 270.5 -84t98.5 -239q0 -348 -559 -699h340q131 0 181 55.5 t93 239.5z" glyph-name="two.c2sc" horiz-adv-x="1052"/><glyph d="M532 555q172 -14 263.5 -87t91.5 -187q0 -145 -117 -223t-313 -78q-168 0 -286 61t-120 158q0 37 20.5 56t49.5 19q41 0 82 -55t65 -143q76 -35 162 -35q156 0 234.5 65.5t78.5 174.5q0 127 -93 182t-294 55h-106v66h106q182 0 272.5 72.5t90.5 189.5q0 207 -225 209 q-133 2 -222 -45q0 -215 -122 -224q-39 -2 -57.5 20.5t-18.5 55.5q0 84 122.5 169t315.5 85q152 0 250 -61.5t98 -202.5q0 -109 -84 -187.5t-244 -109.5z" glyph-name="three.c2sc" horiz-adv-x="1011"/><glyph d="M1010 250h-183v-135q0 -43 26 -61.5t118 -33.5v-20h-416v20q88 14 114.5 32t26.5 63v135h-645v45l631 799h145v-783h183v-61zM145 311h551v697z" glyph-name="four.c2sc" horiz-adv-x="1040"/><glyph d="M528 647q152 0 253.5 -77.5t101.5 -239.5q0 -168 -122 -261.5t-319 -93.5q-139 0 -250.5 65.5t-111.5 164.5q0 31 18.5 50t46.5 19q45 0 83 -56t63 -146q63 -29 145 -29q135 0 217 80t82 207q0 125 -65.5 187.5t-167.5 62.5q-100 0 -182 -35t-111 -78l-53 10v617h557 q45 0 62.5 12t33.5 55h25v-190h-607v-416q127 92 301 92z" glyph-name="five.c2sc" horiz-adv-x="997"/><glyph d="M610 629q143 0 240.5 -74t97.5 -231q0 -154 -115.5 -251.5t-293.5 -97.5q-221 0 -336 146.5t-115 417.5q0 244 139.5 411.5t372.5 167.5q152 0 240 -59.5t88 -132.5q0 -39 -22.5 -58.5t-55.5 -19.5q-66 0 -103.5 49t-62.5 150q-68 6 -78 6q-174 4 -272 -139.5t-98 -378.5 q0 -49 4 -127q49 96 143 158.5t227 62.5zM539 37q121 0 194.5 78t73.5 207q0 117 -60.5 179t-164.5 62q-106 0 -195.5 -62.5t-136.5 -170.5q27 -154 98.5 -223.5t190.5 -69.5z" glyph-name="six.c2sc" horiz-adv-x="1056"/><glyph d="M111 1094h673v-47l-422 -1047h-147l485 985h-684v176h23q8 -43 23.5 -55t48.5 -12z" glyph-name="seven.c2sc" horiz-adv-x="839"/><glyph d="M612 612q166 -63 244 -143t78 -203q0 -143 -121 -214.5t-321 -71.5q-211 0 -311.5 74.5t-100.5 191.5q0 111 87 190.5t241 118.5q-272 117 -273 305q0 117 107.5 185.5t279.5 68.5q170 0 265.5 -65.5t93.5 -171.5q-2 -92 -74 -160t-195 -105zM254 877q0 -70 63.5 -125.5 t231.5 -114.5l2 -2h4q205 86 205 246q0 82 -62.5 127t-175.5 45q-117 0 -192.5 -45t-75.5 -131zM492 41q141 0 232 57.5t91 159.5q0 88 -72.5 147.5t-244.5 116.5l-29 10q-268 -96 -268 -282q0 -90 73 -149.5t218 -59.5z" glyph-name="eight.c2sc" horiz-adv-x="1013"/><glyph d="M483 1114q207 0 335 -146.5t128 -406.5q0 -266 -131 -423.5t-364 -157.5q-152 0 -262.5 63t-112.5 162q0 31 17.5 49t45.5 18q47 0 88 -54t66 -144q72 -33 153 -33q182 0 266.5 127t84.5 393q0 47 -2 68q-131 -182 -367 -183q-156 0 -261.5 78t-105.5 240q0 156 120 253 t302 97zM459 508q106 0 194 56.5t133 146.5q-47 342 -303 342q-133 0 -210.5 -77t-77.5 -208q0 -125 70.5 -192.5t193.5 -67.5z" glyph-name="nine.c2sc" horiz-adv-x="1034"/><glyph d="M-123 1540q63 0 25 -166l-88 -377h-17l17 398q4 80 17 112.5t46 32.5z" glyph-name="glyph509"/><glyph d="M-622.5 1272q-36.5 0 -63.5 25.5t-27 64.5q0 37 27 62.5t63.5 25.5t63.5 -25.5t27 -62.5q0 -39 -27 -64.5t-63.5 -25.5zM-217 1272q-37 0 -63.5 25.5t-26.5 64.5q0 37 26.5 62.5t63.5 25.5t63.5 -25.5t26.5 -62.5q0 -39 -26.5 -64.5t-63.5 -25.5z" glyph-name="uni0308.aalt"/><glyph d="M-197 1268q-39 0 -66.5 27.5t-27.5 66.5t27.5 65.5t66.5 26.5t67 -26.5t28 -65.5t-28 -66.5t-67 -27.5z" glyph-name="uni0307.aalt"/><glyph d="M-315 1544q61 25 98 -78l115 -317l-11 -6l-198 270q-33 45 -35 82t31 49z" glyph-name="gravecomb.aalt"/><glyph d="M-100 1544q33 -12 30.5 -49t-34.5 -82l-199 -270l-10 6l114 317q38 103 99 78z" glyph-name="acutecomb.aalt"/><glyph d="M-475 1565q35 0 45 -37t-8 -88l-109 -295l-12 2l14 313q7 105 70 105zM-88 1501q31 -14 25.5 -51t-41.5 -78l-218 -227l-10 6l139 283q48 94 105 67z" glyph-name="uni030B.aalt"/><glyph d="M-123 1540q63 0 25 -166l-88 -377h-17l17 398q4 80 17 112.5t46 32.5z" glyph-name="glyph515"/><glyph d="M-102 1171l-11 -6l-229 221l-231 -221l-11 6l144 250q49 86 98 86q47 0 96 -86z" glyph-name="uni0302.aalt"/><glyph d="M-113 1507l11 -6l-144 -250q-49 -86 -96 -86q-49 0 -98 86l-144 250l11 6l231 -221z" glyph-name="uni030C.aalt"/><glyph d="M-506 1448q4 -78 58.5 -135.5t140.5 -57.5t140 57.5t58 135.5h21q-4 -125 -59.5 -199.5t-160 -74.5t-160.5 75.5t-60 198.5h22z" glyph-name="uni0306.aalt"/><glyph d="M-334 1133q-90 0 -151.5 57t-61.5 147t61.5 148.5t151.5 58.5t150.5 -57t60.5 -150q0 -90 -60.5 -147t-150.5 -57zM-333.5 1180q63.5 0 109.5 42t46 115.5t-46 116.5t-109.5 43t-109.5 -43t-46 -116.5t46 -115.5t109.5 -42z" glyph-name="uni030A.aalt"/><glyph d="M-756 1247l-14 4q53 188 199 189q70 0 156.5 -53.5t135.5 -53.5q55 0 89 26.5t73 86.5l15 -4q-25 -80 -78 -134.5t-121 -54.5q-78 0 -162 53.5t-131 53.5q-55 0 -89 -27t-73 -86z" glyph-name="tildecomb.aalt"/><glyph d="M-676 1405h574v-68h-574v68z" glyph-name="uni0304.aalt"/><glyph d="M-231 1366q41 0 64.5 -26.5t23.5 -67.5q0 -39 -26 -65.5t-69 -26.5q-104 0 -104 139q0 115 67.5 188.5t186.5 96.5l6 -27q-88 -31 -131 -81t-51 -136q17 6 33 6z" glyph-name="uni0312.aalt"/><glyph d="M-225 -135q104 0 104 -139q0 -115 -67.5 -189t-186.5 -96l-6 27q88 31 131 81t51 136q-16 -6 -32 -7q-41 0 -64.5 27t-23.5 68q0 39 25.5 65.5t68.5 26.5z" glyph-name="uni0326.aalt"/><glyph d="M-352 -123q258 4 258 -141q0 -68 -52.5 -109t-146.5 -41q-178 0 -270 140l14 18q80 -84 223 -84q55 0 90 20.5t35 57.5q0 90 -217 94l-2 18l60 160h59z" glyph-name="uni0327.aalt"/><glyph d="M-98 14l16 -10q-162 -47 -226.5 -124t-64.5 -144q0 -88 90 -88q100 0 160 76l10 -7q-27 -61 -84 -100t-133 -39q-150 0 -149 143q0 106 104.5 187t276.5 106z" glyph-name="uni0328.aalt"/></font>
</defs>
</svg>
