<svg style="margin-left: -75px;" class="smdvs" width="572" height="75" viewBox="0 0 572 75" fill="none"
                xmlns="http://www.w3.org/2000/svg">
                <path style="fill: #fff;"
                  d="M60.192 74.44C100.8 74.44 108.96 62.152 108.96 49.48V48.136C108.96 33.64 99.168 26.92 71.328 26.152L56.928 25.768C45.888 25.48 43.104 24.04 43.104 21.448V21.256C43.104 18.856 44.736 17.512 53.472 17.512C62.976 17.512 64.128 20.968 64.416 23.272H106.272V22.792C106.272 10.504 97.344 0.327997 59.04 0.327997H46.848C12.288 0.327997 1.536 8.584 1.536 22.024V22.888C1.536 34.12 7.68 44.488 37.056 45.544L52.128 46.024C64.416 46.504 65.376 48.712 65.376 51.112V51.4C65.376 53.992 62.88 56.392 54.432 56.392C44.448 56.392 43.104 51.784 43.104 48.712H0.384V49.48C0.384 58.696 4.32 74.44 47.616 74.44H60.192ZM112.57 73H148.762V37.672L167.866 73H185.242L204.442 37.672V73H240.73V1.576H194.938L177.466 33.352L160.666 1.576H112.57V73ZM246.726 73H303.942C347.814 73 357.51 56.104 357.51 38.344V35.368C357.51 16.936 344.742 1.576 303.942 1.576H246.726V73ZM283.206 23.752H297.798C318.15 23.752 319.782 32.488 319.782 36.712V37.288C319.782 41.512 318.438 50.92 297.798 50.92H283.206V23.752ZM435.768 73L467.16 1.576H429.336L410.712 45.64L391.032 1.576H349.656L383.64 73H435.768ZM522.473 74.44C563.081 74.44 571.241 62.152 571.241 49.48V48.136C571.241 33.64 561.449 26.92 533.609 26.152L519.209 25.768C508.169 25.48 505.385 24.04 505.385 21.448V21.256C505.385 18.856 507.017 17.512 515.753 17.512C525.257 17.512 526.409 20.968 526.697 23.272H568.553V22.792C568.553 10.504 559.625 0.327997 521.321 0.327997H509.129C474.569 0.327997 463.817 8.584 463.817 22.024V22.888C463.817 34.12 469.961 44.488 499.337 45.544L514.409 46.024C526.697 46.504 527.657 48.712 527.657 51.112V51.4C527.657 53.992 525.161 56.392 516.713 56.392C506.729 56.392 505.385 51.784 505.385 48.712H462.665V49.48C462.665 58.696 466.601 74.44 509.897 74.44H522.473Z"
                  fill="black" />
              </svg>