<svg height='100px' width='100px'  fill="#000000" xmlns="http://www.w3.org/2000/svg" xmlns:xlink="http://www.w3.org/1999/xlink" version="1.1" x="0px" y="0px" viewBox="0 0 100 100" style="enable-background:new 0 0 100 100;" xml:space="preserve"><g><path d="M51,34c0.9-1.4,1.7-3.3,3-4.8c3.6-4.2,7.6-7.9,13.5-8.2c1.5-0.1,3.3,0.4,4.6,1.3c5.5,3.4,7.3,8.7,7.8,14.8   c0.7,8.3-2.2,15.4-7.1,21.8c-4.4,5.8-9,11.6-13.3,17.4c-1.4,1.9-2.6,4.1-3.7,6.2c-0.6,1.3-1.6,1.6-2.8,1.6c-1.2,0-1.7-0.7-2.1-1.9   c-2.2-5.8-4.4-11.7-9.1-16.1c-2.3-2.1-5-3.9-7.6-5.7c-2.4-1.7-4.8-3.3-7.2-5c-4.5-3.1-6.9-7.6-8.3-12.8c-1.4-5-0.8-9.6,1.9-13.9   c2.4-3.8,6.1-5.5,10.4-5.7c5.1-0.3,9.5,1.8,13.3,5C46.7,29.9,48.8,32,51,34z"></path><path d="M74.8,6.3c-0.2,0.8-0.1,1.7-0.5,2.3c-1.6,2.5-3.2,5-4.9,7.4c-0.4,0.5-1.2,0.7-1.9,1c-0.2-0.7-0.7-1.4-0.6-2   c0.7-3.4,2.5-6.2,5.4-8.2c0.6-0.4,1.3-0.6,1.9-0.8C74.5,6.1,74.6,6.2,74.8,6.3z"></path><path d="M69.1,71.4c0.5,0.3,1.1,0.5,1.4,0.9c1.6,2.1,3.1,4.3,4.7,6.5c0.3,0.5,0.6,1.1,0.5,1.7c0,0.5-0.5,1-0.7,1.5   c-0.5-0.3-1.1-0.5-1.4-0.9c-1.8-2.3-3.6-4.7-5.3-7.1c-0.4-0.5-0.4-1.3-0.4-2C67.9,71.9,68.6,71.7,69.1,71.4z"></path><path d="M78.8,56.6c1.2,0.4,2.2,0.6,3,1.2c1.9,1.4,3.7,3,5.5,4.7c0.3,0.2,0.2,1.2,0,1.5c-0.2,0.3-1.1,0.4-1.5,0.1   c-2.5-1.4-4.9-2.9-7.3-4.5c-0.5-0.3-0.9-1.2-0.9-1.9C77.5,57.4,78.3,57,78.8,56.6z"></path><path d="M50.6,22c-1.6-2.3-0.7-4.8-0.4-7.2c0.1-1.1,0.5-2.2,0.9-3.3c0.1-0.4,0.7-0.8,1.1-0.8c0.4,0,0.9,0.4,1,0.8   c0.2,0.8,0.4,1.6,0.3,2.4c-0.2,2-0.6,3.9-0.7,5.9C52.7,21.3,52.1,21.9,50.6,22z"></path><path d="M81.4,25.8c-0.4-0.3-1-0.6-1.2-1.2c-0.2-0.4-0.1-1.2,0.2-1.5c2.2-2,4.5-3.9,7.8-3.9c0.5,0,1,0.3,1.5,0.5   c-0.2,0.5-0.3,1.1-0.6,1.4c-2,1.5-4.1,2.9-6.2,4.3C82.5,25.7,82.1,25.7,81.4,25.8z"></path><path d="M46.1,84.3c-0.5,1-0.8,1.8-1.2,2.5c-1.2,1.7-2.3,3.4-3.6,5.1c-0.4,0.5-1,0.8-1.6,1.1c-0.3,0.1-0.9,0-1.1-0.3   c-0.2-0.2-0.2-0.8,0-1.1c1.6-2.6,3.1-5.3,4.8-7.8c0.3-0.4,1.2-0.5,1.8-0.5C45.4,83.2,45.7,83.8,46.1,84.3z"></path><path d="M10.4,16c0.9,0.7,1.8,1.2,2.5,2c1.2,1.3,2.4,2.7,3.4,4.2c0.3,0.4-0.1,1.3-0.2,2c-0.6-0.1-1.3-0.1-1.7-0.5   c-1.8-1.7-3.5-3.4-5.2-5.2c-0.3-0.3-0.5-1.1-0.3-1.5C9,16.6,9.7,16.4,10.4,16z"></path><path d="M63.5,94.4c-0.6-1-1.1-1.9-1.7-2.9c-0.9-1.7-1.8-3.4-2.5-5.2c-0.2-0.6,0.3-1.4,0.5-2.1c0.7,0.3,1.6,0.4,1.9,0.9   c1.1,2.2,2.2,4.5,3,6.9c0.2,0.7-0.4,1.6-0.6,2.4C63.9,94.4,63.7,94.4,63.5,94.4z"></path><path d="M31.6,10.1c0.2,0.2,1.1,0.4,1.3,1c0.9,1.9,1.6,3.8,2.2,5.8c0.2,0.5-0.2,1.4-0.6,1.7c-0.7,0.5-1.5,0.1-1.8-0.7   c-0.9-2-1.9-4-2.7-6.1C29.6,11,29.9,10.1,31.6,10.1z"></path><path d="M13.3,64.2c-0.1-0.5-0.5-1.2-0.3-1.5c0.5-0.9,1.2-1.8,2-2.6C16,59,17.1,58,18.3,57c0.4-0.3,1.3-0.5,1.6-0.2   c0.4,0.4,0.8,1.2,0.6,1.7c-0.2,0.7-0.8,1.5-1.4,2c-1.5,1.2-3.2,2.3-4.8,3.4C14.1,64,13.9,64,13.3,64.2z"></path><path d="M26.9,78.2c-0.2-0.1-0.8-0.2-0.8-0.4c-0.1-0.3,0.1-0.9,0.3-1.2c1.5-1.8,3-3.6,4.6-5.3c0.4-0.5,1.1-0.8,1.7-1   c1-0.3,2,0.8,1.3,1.6C32,74,29.8,76,27.7,78C27.6,78.1,27.3,78.1,26.9,78.2z"></path><path d="M92.7,40.3c-0.6,0.3-1.2,0.9-1.6,0.8c-2-0.8-3.9-0.4-5.9-0.2c-0.6,0.1-1.6-0.6-1.9-1.1c-0.2-0.4,0.4-1.4,0.9-1.8   c1.6-1.1,5.9-0.6,7.3,0.8C92,39.1,92.2,39.6,92.7,40.3z"></path><path d="M8,46.6c-0.5-0.3-1-0.5-1.2-0.8c-0.1-0.3,0.2-1,0.5-1.2c1.8-1.1,3.5-2.2,5.4-3.1c0.5-0.2,1.3,0.5,2,0.8   c-0.3,0.6-0.4,1.4-0.9,1.6C12,44.9,10,45.7,8,46.6z"></path></g></svg>