<svg height='100px' width='100px'  fill="#000000" xmlns="http://www.w3.org/2000/svg" viewBox="0 0 25 25" x="0px" y="0px"><title>Solid_Justify </title><g><path d="M12.583,8.2705a4.23,4.23,0,1,0,4.23,4.23A4.2336,4.2336,0,0,0,12.583,8.2705Z"></path><path d="M18.4844,2H6.6816A4.6033,4.6033,0,0,0,2.083,6.5986V18.4014A4.6033,4.6033,0,0,0,6.6816,23H18.4844a4.6033,4.6033,0,0,0,4.5986-4.5986V6.5986A4.6033,4.6033,0,0,0,18.4844,2ZM18.5,7.5a1,1,0,1,1,1-1A1,1,0,0,1,18.5,7.5ZM12.583,17.73a5.23,5.23,0,1,1,5.23-5.23A5.2349,5.2349,0,0,1,12.583,17.73Z"></path></g></svg>