<svg width="1688" height="72" viewBox="0 0 1688 72" fill="none" xmlns="http://www.w3.org/2000/svg">
<path d="M21.295 71H37.5223L50.1018 28.6591H50.6473L63.2268 71H79.4882L99.7723 1.18182H81.1586L70.5904 47.0341H70.0109L57.9768 1.18182H42.7723L30.7382 46.9318H30.1586L19.6245 1.18182H0.9768L21.295 71ZM106.744 71H123.619V42.9432H151.13V71H167.971V1.18182H151.13V29.2045H123.619V1.18182H106.744V71ZM193.659 71L198.261 56.3409H222.363L226.965 71H245.102L221.545 1.18182H199.079L175.522 71H193.659ZM202.284 43.5227L210.022 18.7727H210.568L218.34 43.5227H202.284ZM241.616 14.8864H262.821V71H279.457V14.8864H300.627V1.18182H241.616V14.8864ZM346.369 1.18182H329.494V71H346.369V1.18182ZM416.383 1.18182H399.542V41.4091H398.963L371.485 1.18182H356.963V71H373.838V30.7045H374.281L402.065 71H416.383V1.18182ZM426.994 71H443.869V42.9432H471.619V29.2045H443.869V14.8864H474.653V1.18182H426.994V71ZM483.15 71H529.071V57.2955H500.025V1.18182H483.15V71ZM580.147 1.18182V46.6591C580.147 52.9659 575 57.0227 567.363 57.0227C559.795 57.0227 554.681 52.9659 554.681 46.6591V1.18182H537.806V47.3068C537.806 63.1932 549.67 71.8864 567.363 71.8864C584.92 71.8864 596.886 63.1932 596.886 47.3068V1.18182H580.147ZM607.463 71H656.144V57.2955H624.338V42.9432H653.656V29.2045H624.338V14.8864H656.144V1.18182H607.463V71ZM726.133 1.18182H709.292V41.4091H708.713L681.235 1.18182H666.713V71H683.588V30.7045H684.031L711.815 71H726.133V1.18182ZM800.119 26.4773C798.414 9.77272 785.971 0.22727 769.096 0.22727C750.482 0.22727 735.994 13.0114 735.994 36.0909C735.994 59.0682 750.142 71.9545 769.096 71.9545C788.255 71.9545 798.857 58.9318 800.119 46.5568L783.073 46.4545C781.88 53.1705 776.835 57.1591 769.437 57.1591C759.482 57.1591 753.21 49.9659 753.21 36.0909C753.21 22.7614 759.346 15.0227 769.539 15.0227C777.21 15.0227 782.221 19.4886 783.073 26.4773H800.119ZM809.775 71H858.457V57.2955H826.65V42.9432H855.968V29.2045H826.65V14.8864H858.457V1.18182H809.775V71ZM906.764 22.1136H922.923C922.786 9.05682 912.389 0.22727 896.161 0.22727C880.207 0.22727 868.718 8.92045 868.821 21.9091C868.786 32.5114 876.218 38.4773 888.286 41.2386L895.582 42.9432C903.252 44.7159 906.696 46.7955 906.764 50.7159C906.696 54.9773 902.707 57.9432 895.923 57.9432C888.457 57.9432 883.548 54.4659 883.173 47.75H867.014C867.218 64.0795 878.571 71.8864 896.127 71.8864C913.514 71.8864 923.809 64.0114 923.877 50.75C923.809 39.6023 916.275 32.7841 902.502 29.75L896.502 28.3864C890.161 27.0227 886.139 24.9091 886.275 20.75C886.309 16.9318 889.582 14.1705 896.127 14.1705C902.707 14.1705 906.321 17.1364 906.764 22.1136ZM949.548 1.18182L975.082 47.6818V71H991.855V47.6818L1017.39 1.18182H998.536L983.775 30.3977H983.161L968.4 1.18182H949.548ZM1085.77 36.0909C1085.77 13.0114 1071.18 0.22727 1052.43 0.22727C1033.61 0.22727 1019.12 13.0114 1019.12 36.0909C1019.12 59.0682 1033.61 71.9545 1052.43 71.9545C1071.18 71.9545 1085.77 59.1705 1085.77 36.0909ZM1068.52 36.0909C1068.52 49.7614 1062.52 57.1591 1052.43 57.1591C1042.37 57.1591 1036.33 49.7614 1036.33 36.0909C1036.33 22.4205 1042.37 15.0227 1052.43 15.0227C1062.52 15.0227 1068.52 22.4205 1068.52 36.0909ZM1137.96 1.18182V46.6591C1137.96 52.9659 1132.81 57.0227 1125.18 57.0227C1117.61 57.0227 1112.49 52.9659 1112.49 46.6591V1.18182H1095.62V47.3068C1095.62 63.1932 1107.48 71.8864 1125.18 71.8864C1142.73 71.8864 1154.7 63.1932 1154.7 47.3068V1.18182H1137.96ZM1183.62 14.8864H1204.82V71H1221.46V14.8864H1242.63V1.18182H1183.62V14.8864ZM1250.87 71H1267.74V42.9432H1295.26V71H1312.1V1.18182H1295.26V29.2045H1267.74V1.18182H1250.87V71ZM1322.68 71H1371.36V57.2955H1339.56V42.9432H1368.87V29.2045H1339.56V14.8864H1371.36V1.18182H1322.68V71ZM1402.56 1.18182V71H1418.99V27.875H1419.57L1436.34 70.5568H1446.84L1463.61 28.1136H1464.19V71H1480.62V1.18182H1459.73L1442 44.4091H1441.18L1423.45 1.18182H1402.56ZM1557.05 36.0909C1557.05 13.0114 1542.46 0.22727 1523.71 0.22727C1504.89 0.22727 1490.4 13.0114 1490.4 36.0909C1490.4 59.0682 1504.89 71.9545 1523.71 71.9545C1542.46 71.9545 1557.05 59.1705 1557.05 36.0909ZM1539.8 36.0909C1539.8 49.7614 1533.8 57.1591 1523.71 57.1591C1513.65 57.1591 1507.62 49.7614 1507.62 36.0909C1507.62 22.4205 1513.65 15.0227 1523.71 15.0227C1533.8 15.0227 1539.8 22.4205 1539.8 36.0909ZM1604.64 22.1136H1620.8C1620.66 9.05682 1610.26 0.22727 1594.04 0.22727C1578.08 0.22727 1566.59 8.92045 1566.7 21.9091C1566.66 32.5114 1574.09 38.4773 1586.16 41.2386L1593.46 42.9432C1601.13 44.7159 1604.57 46.7955 1604.64 50.7159C1604.57 54.9773 1600.58 57.9432 1593.8 57.9432C1586.33 57.9432 1581.42 54.4659 1581.05 47.75H1564.89C1565.09 64.0795 1576.45 71.8864 1594 71.8864C1611.39 71.8864 1621.68 64.0114 1621.75 50.75C1621.68 39.6023 1614.15 32.7841 1600.38 29.75L1594.38 28.3864C1588.04 27.0227 1584.01 24.9091 1584.15 20.75C1584.18 16.9318 1587.46 14.1705 1594 14.1705C1600.58 14.1705 1604.2 17.1364 1604.64 22.1136ZM1627.99 14.8864H1649.2V71H1665.83V14.8864H1687V1.18182H1627.99V14.8864Z" fill="black"/>
</svg>
