<svg height='100px' width='100px'  fill="#000000" xmlns="http://www.w3.org/2000/svg" xmlns:xlink="http://www.w3.org/1999/xlink" version="1.1" x="0px" y="0px" viewBox="0 0 100 100" style="enable-background:new 0 0 100 100;" xml:space="preserve"><g><path d="M30.13,82.63c-4.24,0-8.22-1.64-11.2-4.62c-2.98-2.98-4.62-6.96-4.62-11.2c0-4.24,1.64-8.22,4.62-11.2L33.45,41.1   c2.98-2.98,6.96-4.62,11.2-4.62s8.22,1.64,11.2,4.62c1.83,1.83,3.2,4.12,3.95,6.6c0.4,1.32-0.35,2.72-1.67,3.11   c-1.32,0.4-2.72-0.35-3.11-1.67c-0.51-1.7-1.44-3.25-2.69-4.51c-4.23-4.23-11.1-4.23-15.33,0L22.47,59.15   c-4.23,4.23-4.23,11.1,0,15.33c2.04,2.04,4.76,3.16,7.66,3.16s5.63-1.12,7.66-3.16l7.19-7.19c0.98-0.98,2.56-0.98,3.54,0   c0.98,0.98,0.98,2.56,0,3.54l-7.19,7.19C38.35,80.99,34.38,82.63,30.13,82.63z"></path></g><g><path d="M60.01,64.5c-4.24,0-8.22-1.64-11.2-4.62c-1.83-1.83-3.2-4.12-3.95-6.6c-0.4-1.32,0.35-2.72,1.67-3.11   c1.32-0.4,2.72,0.35,3.11,1.67c0.51,1.69,1.44,3.25,2.69,4.5c4.22,4.22,11.1,4.23,15.33,0l14.51-14.51c4.22-4.23,4.22-11.1,0-15.33   c-4.22-4.22-11.1-4.23-15.33,0l-7.19,7.19c-0.98,0.98-2.56,0.98-3.54,0c-0.98-0.98-0.98-2.56,0-3.54l7.19-7.19   c6.17-6.18,16.22-6.17,22.4,0c6.17,6.17,6.17,16.22,0,22.4L71.2,59.88C68.22,62.86,64.25,64.5,60.01,64.5z"></path></g></svg>