<svg class="email" height='100px' width='100px' xmlns="http://www.w3.org/2000/svg" xmlns:xlink="http://www.w3.org/1999/xlink" viewBox="0 0 22 22" version="1.1" x="0px" y="0px"><title>at</title><desc>Created with Sketch.</desc><g stroke="none" stroke-width="1" fill="none" fill-rule="evenodd"><g transform="translate(-677.000000, -102.000000)" fill-rule="nonzero" fill="#000000"><path d="M692.000017,116.000465 C691.087789,117.214647 689.635609,118 688,118 C685.238576,118 683,115.761424 683,113 C683,110.238576 685.238576,108 688,108 C689.635609,108 691.087789,108.785353 692.000017,109.999535 L692.000017,107.999983 L693.000017,107.999983 L693.000017,113.156804 L693.000017,115.999983 C693.000017,117.1022 693.992664,117.733545 695.151917,117.418687 C696.549304,117.039151 697.536297,115.492735 697.500017,112.999983 C697.500017,107.753278 693.246722,103.499983 688.000017,103.499983 C682.753312,103.499983 678.500017,107.753278 678.500017,112.999983 C678.500017,118.246688 682.753312,122.499983 688.000017,122.499983 C690.060857,122.499983 692.021034,121.8427 693.642689,120.643444 L694.237286,121.447468 C692.444946,122.77295 690.276758,123.499983 688.000017,123.499983 C682.201027,123.499983 677.500017,118.798973 677.500017,112.999983 C677.500017,107.200993 682.201027,102.499983 688.000017,102.499983 C693.799007,102.499983 698.500017,107.200993 698.499964,112.992696 C698.542436,115.906656 697.285958,117.875301 695.414026,118.383726 C693.65691,118.860966 692.000312,117.807474 692.000017,116.000465 Z M688,117 C690.209139,117 692,115.209139 692,113 C692,110.790861 690.209139,109 688,109 C685.790861,109 684,110.790861 684,113 C684,115.209139 685.790861,117 688,117 Z"></path></g></g></svg>