<svg width="486" height="73" viewBox="0 0 486 73" fill="none" xmlns="http://www.w3.org/2000/svg">
<path d="M24.728 0.399998H14.744V0.975996C16.472 4.528 16.856 5.584 16.856 8.848V17.296C15.8 16.336 14.264 15.376 12.056 15.376C5.24 15.376 0.728 23.056 0.728 38.32C0.728 52.336 4.76 58.576 10.232 58.576C13.688 58.576 15.704 56.368 16.856 53.776L16.952 58H24.728V0.399998ZM16.856 18.928V52.432C16.184 53.584 15.032 54.64 13.688 54.64C10.328 54.64 9.08 49.168 9.08 36.112C9.08 22.96 10.328 17.488 13.784 17.488C14.936 17.488 15.992 18.16 16.856 18.928ZM52.1675 32.464C52.1675 22.576 48.4235 15.376 41.5115 15.376C33.6395 15.376 29.2235 24.208 29.2235 38.224C29.2235 51.088 33.4475 58.576 41.6075 58.576C47.9435 58.576 51.3035 53.968 51.9755 47.248L51.4955 47.152C50.2475 50.896 48.1355 53.008 44.9675 53.008C39.5915 53.008 37.4795 47.344 37.4795 35.632H52.0715C52.1675 34.576 52.1675 33.616 52.1675 32.464ZM44.3915 33.808H37.4795V31.312C37.4795 21.904 38.6315 17.2 41.2235 17.2C43.8155 17.2 44.3915 21.136 44.3915 30.256V33.808ZM72.8585 22.768L72.2825 16.432C70.6505 15.952 67.8665 15.376 65.3705 15.376C58.8425 15.376 55.2905 19.888 55.2905 25.936C55.2905 30.832 57.5945 34.48 61.4345 39.376C65.1785 44.368 67.6745 47.728 67.6745 52.048C67.6745 54.928 66.2345 56.848 64.1225 56.848C62.1065 56.848 60.6665 55.792 55.7705 49.264L55.2905 49.36L56.5385 57.328C58.2665 58 60.9545 58.576 63.3545 58.576C70.2665 58.576 74.0105 53.68 74.0105 46.96C74.0105 41.008 71.4185 37.36 67.5785 32.56C63.8345 27.76 61.6265 24.496 61.6265 21.136C61.6265 18.448 62.8745 17.104 64.8905 17.104C66.5225 17.104 67.6745 17.776 72.4745 22.864L72.8585 22.768ZM96.9148 23.632L96.7228 16.72C94.7068 15.952 91.9228 15.376 89.5228 15.376C80.8828 15.376 76.7548 24.4 76.7548 38.416C76.7548 51.184 80.5948 58.576 88.2748 58.576C94.1308 58.576 97.2988 54.16 97.8748 47.44L97.3948 47.344C96.3388 50.896 94.5148 53.008 91.7308 53.008C86.9308 53.008 85.1068 47.056 85.1068 34.672C85.1068 22.672 86.4508 17.296 89.1388 17.296C90.6748 17.296 91.7308 18.352 96.5308 23.728L96.9148 23.632ZM115.84 15.376C113.92 15.376 111.616 16.912 110.08 22.288L109.792 16.048H100.288V16.624C101.92 20.08 102.208 20.944 102.208 24.016V50.8C102.208 53.68 101.92 54.64 100.384 57.424V58H112V57.424C110.368 54.64 110.08 53.776 110.08 50.992V23.152C110.368 22.768 110.752 22.672 111.232 22.672C112.192 22.672 113.728 23.056 118.24 24.784L118.624 24.688V16.624C118.048 16.048 117.088 15.376 115.84 15.376ZM127.048 12.304C130.024 12.304 132.04 10.096 132.04 7.6C132.04 5.008 130.024 2.8 127.048 2.8C124.072 2.8 122.056 5.008 122.056 7.6C122.056 10.096 124.072 12.304 127.048 12.304ZM131.08 50.8V16.048H121.288V16.624C122.92 20.08 123.208 20.944 123.208 24.016V50.8C123.208 53.68 122.92 54.64 121.384 57.424V58H132.904V57.424C131.368 54.64 131.08 53.68 131.08 50.8ZM152.135 15.376C148.871 15.376 146.567 17.488 145.319 20.272V0.399998H135.431V0.975996C137.159 4.528 137.447 5.584 137.447 8.848V56.752C140.135 57.808 143.975 58.576 147.239 58.576C157.223 58.576 161.447 50.128 161.447 34.672C161.447 21.232 157.799 15.376 152.135 15.376ZM147.335 56.752C146.663 56.752 145.895 56.656 145.319 56.56V21.328C146.087 20.368 147.239 19.6 148.487 19.6C152.039 19.6 153.095 24.88 153.095 38.032C153.095 52.432 151.559 56.752 147.335 56.752ZM187.918 32.464C187.918 22.576 184.174 15.376 177.262 15.376C169.39 15.376 164.974 24.208 164.974 38.224C164.974 51.088 169.198 58.576 177.358 58.576C183.694 58.576 187.054 53.968 187.726 47.248L187.246 47.152C185.998 50.896 183.886 53.008 180.718 53.008C175.342 53.008 173.23 47.344 173.23 35.632H187.822C187.918 34.576 187.918 33.616 187.918 32.464ZM180.142 33.808H173.23V31.312C173.23 21.904 174.382 17.2 176.974 17.2C179.566 17.2 180.142 21.136 180.142 30.256V33.808ZM218.211 16.048V16.624C220.803 19.792 221.571 21.232 221.571 23.344C221.571 24.592 221.283 25.84 220.899 28.336L217.251 50.8L212.739 25.264C212.355 22.864 212.259 21.808 212.259 20.752C212.259 19.6 212.547 18.448 213.795 16.624V16.048H201.795V16.624C203.331 19.504 203.907 21.04 204.771 25.648L210.531 58H216.099L215.715 60.4C215.043 64.528 213.795 65.68 209.763 65.68C208.323 65.68 207.171 65.584 206.211 65.392V71.44C207.075 72.304 208.515 72.976 210.435 72.976C214.179 72.976 216.003 70.48 216.771 65.968L223.011 28.336C223.971 22.672 224.643 20.464 226.275 16.624V16.048H218.211ZM239.996 58.576C247.964 58.576 252.956 49.264 252.956 36.976C252.956 24.688 247.964 15.376 239.996 15.376C232.028 15.376 227.036 24.688 227.036 36.976C227.036 49.264 232.028 58.576 239.996 58.576ZM239.996 56.848C236.348 56.848 235.868 49.264 235.868 36.976C235.868 24.688 236.348 17.2 239.996 17.2C243.644 17.2 244.124 24.688 244.124 36.976C244.124 49.264 243.644 56.848 239.996 56.848ZM279.911 16.048H270.119V16.624C271.751 20.08 272.039 21.04 272.039 24.016V52.72C271.271 53.68 270.119 54.64 268.583 54.64C266.183 54.64 265.415 52.912 265.415 49.936V16.048H255.623V16.624C257.255 20.08 257.543 21.04 257.543 24.016V49.84C257.543 55.408 260.231 58.576 264.935 58.576C268.295 58.576 270.599 56.56 272.135 53.776V58H279.911V16.048ZM300.153 15.376C298.233 15.376 295.929 16.912 294.393 22.288L294.105 16.048H284.601V16.624C286.233 20.08 286.521 20.944 286.521 24.016V50.8C286.521 53.68 286.233 54.64 284.697 57.424V58H296.313V57.424C294.681 54.64 294.393 53.776 294.393 50.992V23.152C294.681 22.768 295.065 22.672 295.545 22.672C296.505 22.672 298.041 23.056 302.553 24.784L302.937 24.688V16.624C302.361 16.048 301.401 15.376 300.153 15.376ZM334.387 15.376C331.123 15.376 329.011 17.488 327.667 19.984L327.475 16.048H317.875V16.624C319.507 20.08 319.795 21.04 319.795 24.016V65.104C319.795 67.984 319.507 68.944 317.971 71.728V72.304H329.587V71.728C327.955 68.944 327.667 67.984 327.667 65.104V57.424C328.723 58.096 330.067 58.672 331.699 58.672C339.283 58.672 343.795 50.416 343.795 35.44C343.795 21.616 340.147 15.376 334.387 15.376ZM330.355 56.56C329.299 56.56 328.435 56.176 327.667 55.696V21.232C328.435 20.176 329.491 19.312 330.835 19.312C334.387 19.312 335.443 25.072 335.443 37.744C335.443 51.472 334.099 56.56 330.355 56.56ZM362.403 15.376C360.483 15.376 358.179 16.912 356.643 22.288L356.355 16.048H346.851V16.624C348.483 20.08 348.771 20.944 348.771 24.016V50.8C348.771 53.68 348.483 54.64 346.947 57.424V58H358.563V57.424C356.931 54.64 356.643 53.776 356.643 50.992V23.152C356.931 22.768 357.315 22.672 357.795 22.672C358.755 22.672 360.291 23.056 364.803 24.784L365.187 24.688V16.624C364.611 16.048 363.651 15.376 362.403 15.376ZM379.871 58.576C387.839 58.576 392.831 49.264 392.831 36.976C392.831 24.688 387.839 15.376 379.871 15.376C371.903 15.376 366.911 24.688 366.911 36.976C366.911 49.264 371.903 58.576 379.871 58.576ZM379.871 56.848C376.223 56.848 375.743 49.264 375.743 36.976C375.743 24.688 376.223 17.2 379.871 17.2C383.519 17.2 383.999 24.688 383.999 36.976C383.999 49.264 383.519 56.848 379.871 56.848ZM416.321 23.632L416.129 16.72C414.113 15.952 411.329 15.376 408.929 15.376C400.289 15.376 396.161 24.4 396.161 38.416C396.161 51.184 400.001 58.576 407.681 58.576C413.537 58.576 416.705 54.16 417.281 47.44L416.801 47.344C415.745 50.896 413.921 53.008 411.137 53.008C406.337 53.008 404.513 47.056 404.513 34.672C404.513 22.672 405.857 17.296 408.545 17.296C410.081 17.296 411.137 18.352 415.937 23.728L416.321 23.632ZM442.355 32.464C442.355 22.576 438.611 15.376 431.699 15.376C423.827 15.376 419.411 24.208 419.411 38.224C419.411 51.088 423.635 58.576 431.795 58.576C438.131 58.576 441.491 53.968 442.163 47.248L441.683 47.152C440.435 50.896 438.323 53.008 435.155 53.008C429.779 53.008 427.667 47.344 427.667 35.632H442.259C442.355 34.576 442.355 33.616 442.355 32.464ZM434.579 33.808H427.667V31.312C427.667 21.904 428.819 17.2 431.411 17.2C434.003 17.2 434.579 21.136 434.579 30.256V33.808ZM463.046 22.768L462.47 16.432C460.838 15.952 458.054 15.376 455.558 15.376C449.03 15.376 445.478 19.888 445.478 25.936C445.478 30.832 447.782 34.48 451.622 39.376C455.366 44.368 457.862 47.728 457.862 52.048C457.862 54.928 456.422 56.848 454.31 56.848C452.294 56.848 450.854 55.792 445.958 49.264L445.478 49.36L446.726 57.328C448.454 58 451.142 58.576 453.542 58.576C460.454 58.576 464.198 53.68 464.198 46.96C464.198 41.008 461.606 37.36 457.766 32.56C454.022 27.76 451.814 24.496 451.814 21.136C451.814 18.448 453.062 17.104 455.078 17.104C456.71 17.104 457.862 17.776 462.662 22.864L463.046 22.768ZM484.327 22.768L483.751 16.432C482.119 15.952 479.335 15.376 476.839 15.376C470.311 15.376 466.759 19.888 466.759 25.936C466.759 30.832 469.063 34.48 472.903 39.376C476.647 44.368 479.143 47.728 479.143 52.048C479.143 54.928 477.703 56.848 475.591 56.848C473.575 56.848 472.135 55.792 467.239 49.264L466.759 49.36L468.007 57.328C469.735 58 472.423 58.576 474.823 58.576C481.735 58.576 485.479 53.68 485.479 46.96C485.479 41.008 482.887 37.36 479.047 32.56C475.303 27.76 473.095 24.496 473.095 21.136C473.095 18.448 474.343 17.104 476.359 17.104C477.991 17.104 479.143 17.776 483.943 22.864L484.327 22.768Z" fill="black"/>
</svg>
