<svg xmlns="http://www.w3.org/2000/svg" width="310" height="310" viewBox="0 0 310 310">
  <defs>
    <style>
      .cls-1 {
        fill: #010101;
        fill-rule: evenodd;
      }
    </style>
  </defs>
  <path id="What_do_you_aim_to_communicate_through_what_you_make_" data-name="What do you aim to communicate through what you make?" class="cls-1" d="M18.6,141.717l-9.333-4.092,0.016-.136,10.031-1.8,0.534-4.5L3.122,124.023,2.5,129.27l10.417,3.638-0.016.135L1.871,134.585l-0.49,4.13,10.331,4.074-0.016.135L0.751,144.03l-0.622,5.248,17.939-3.058Zm3.98-22.124-6.546-1.909,1.756-6.022,6.546,1.909,1.326-4.55L8.908,104.136l-1.326,4.549,6.546,1.908-1.756,6.022-6.546-1.908L4.5,119.256l16.757,4.886Zm3.226-19.578,2.367-5.252,3.459,0.456,2.1-4.662-18.28-1.92-2.662,5.905L26.34,106.967l2.1-4.662Zm-7.329-6.389,0.056-.124L24.5,94.285l-1.485,3.294ZM24.6,79.513l11.688,7.024,2.406-4L27,75.51l2.7-4.5-3.273-1.967-7.814,13,3.273,1.967ZM52.352,62.625a7.277,7.277,0,0,0-.322-4.242A10.807,10.807,0,0,0,44.9,52.3a7.285,7.285,0,0,0-4.252.359,9.794,9.794,0,0,0-3.818,2.864l-4.317,5.055L45.79,71.917l4.361-5.107A9.639,9.639,0,0,0,52.352,62.625Zm-13.7-3.034,1.085-1.27a5.681,5.681,0,0,1,1.815-1.482,2.853,2.853,0,0,1,2.025-.154,6.722,6.722,0,0,1,2.483,1.476,6.825,6.825,0,0,1,1.852,2.215,2.836,2.836,0,0,1,.188,2,5.307,5.307,0,0,1-1.119,1.953L45.808,65.7ZM60.335,37.584a7.573,7.573,0,0,0-4.3-.224,9.523,9.523,0,0,0-6.425,5.722,7.552,7.552,0,0,0-.266,4.289,9.857,9.857,0,0,0,2.425,4.42,9.819,9.819,0,0,0,4.1,2.905,7.608,7.608,0,0,0,4.3.236,9.488,9.488,0,0,0,6.43-5.716,7.571,7.571,0,0,0,.273-4.294A9.829,9.829,0,0,0,64.45,40.5,9.829,9.829,0,0,0,60.335,37.584Zm2.176,9.458A3.527,3.527,0,0,1,58.5,50.619a5.96,5.96,0,0,1-3.083-2.071,5.96,5.96,0,0,1-1.7-3.3,3.527,3.527,0,0,1,4.016-3.577,5.96,5.96,0,0,1,3.083,2.071A5.96,5.96,0,0,1,62.511,47.043Zm16.136-12.39,2.868,4.68,4.011-2.458-2.868-4.68L81.87,18.643,77.365,21.4l0.8,7.827-0.116.071-6.612-4.265L66.93,27.8ZM100.61,14.288a7.574,7.574,0,0,0-4.025-1.523,9.523,9.523,0,0,0-7.862,3.494,7.552,7.552,0,0,0-1.56,4,9.857,9.857,0,0,0,.963,4.949,9.819,9.819,0,0,0,3.02,4.016,7.608,7.608,0,0,0,4.02,1.534,9.487,9.487,0,0,0,7.866-3.486,7.571,7.571,0,0,0,1.568-4.007,9.833,9.833,0,0,0-.959-4.95A9.833,9.833,0,0,0,100.61,14.288ZM99.8,23.96a3.528,3.528,0,0,1-4.915,2.184,5.959,5.959,0,0,1-2.305-2.911,5.96,5.96,0,0,1-.615-3.662,3.528,3.528,0,0,1,4.915-2.184A5.96,5.96,0,0,1,99.186,20.3,5.957,5.957,0,0,1,99.8,23.96Zm17.995-7.8a2.8,2.8,0,1,1-5.372,1.549L109.439,7.353l-4.553,1.313,3.1,10.744a6.2,6.2,0,0,0,1.861,3.051A6.137,6.137,0,0,0,113,23.885a10.27,10.27,0,0,0,7.583-2.187,5.965,5.965,0,0,0,1.879-6.463l-3.1-10.744L114.811,5.8Zm19.414-.408,5.73-.606,1.351,3.217,5.085-.538L141.812,1.068l-6.442.681-3.894,17.964,5.086-.538ZM139.029,6.2l0.135-.014,2.335,5.547-3.594.38ZM151.268,0.59l0.283,17.452,4.738-.077L156.006,0.514Zm7.761,17.1,4.613,0.469L164.67,8.054l0.136,0.014,2.852,10.365,2.781,0.283,4.874-9.51,0.136,0.014-1.022,10.039,4.613,0.469,1.767-17.365-5.868-.6L169.9,11.191l-0.2-.021L166.664,0.924l-5.868-.6ZM195.3,9.8l-3.845,13.083,4.481,1.317,3.845-13.083,5.036,1.48L205.9,8.934,191.341,4.656,190.265,8.32ZM222.27,19.978a7.575,7.575,0,0,0-1.585-4,9.521,9.521,0,0,0-7.877-3.46,7.553,7.553,0,0,0-4.01,1.543,9.846,9.846,0,0,0-3.01,4.044,9.825,9.825,0,0,0-.936,4.937,7.617,7.617,0,0,0,1.573,4.005,9.488,9.488,0,0,0,7.874,3.468,7.571,7.571,0,0,0,4.018-1.539,9.821,9.821,0,0,0,3.014-4.043A9.834,9.834,0,0,0,222.27,19.978Zm-7.7,5.915a3.527,3.527,0,0,1-4.924-2.163,5.957,5.957,0,0,1,.6-3.665,5.962,5.962,0,0,1,2.293-2.921,3.528,3.528,0,0,1,4.924,2.163,5.957,5.957,0,0,1-.6,3.665A5.961,5.961,0,0,1,214.575,25.893Zm30.843,7.225a6.735,6.735,0,0,0-1.013-3.468,9.29,9.29,0,0,0-2.811-2.851,8.849,8.849,0,0,0-4.107-1.531,7.546,7.546,0,0,0-4.207.813,9.885,9.885,0,0,0-3.68,3.445,10.025,10.025,0,0,0-1.824,4.68,7.432,7.432,0,0,0,.8,4.2,9.691,9.691,0,0,0,6.116,4.658,7.306,7.306,0,0,0,5.33-.831,6.475,6.475,0,0,0,1.776-1.521l-3.967-2.715a2.8,2.8,0,0,1-1.78.933,3.125,3.125,0,0,1-2.088-.622,3.226,3.226,0,0,1-1.549-2.514,5.793,5.793,0,0,1,1.23-3.539,5.891,5.891,0,0,1,2.774-2.422,3.19,3.19,0,0,1,2.985.466,2.956,2.956,0,0,1,1.361,1.8,2.917,2.917,0,0,1-.36,2.081l3.986,2.687A7.472,7.472,0,0,0,245.418,33.118Zm15.815,14.827a7.572,7.572,0,0,0-.249-4.3,9.523,9.523,0,0,0-6.394-5.757,7.552,7.552,0,0,0-4.292.207,11.216,11.216,0,0,0-6.564,7.29,7.612,7.612,0,0,0,.237,4.3,9.49,9.49,0,0,0,6.388,5.763,7.574,7.574,0,0,0,4.3-.2,9.832,9.832,0,0,0,4.13-2.893A9.829,9.829,0,0,0,261.233,47.944Zm-9.162,3.2a3.527,3.527,0,0,1-4-3.6,5.955,5.955,0,0,1,1.719-3.292,5.957,5.957,0,0,1,3.094-2.054,3.527,3.527,0,0,1,4,3.6,5.962,5.962,0,0,1-1.719,3.292A5.96,5.96,0,0,1,252.071,51.146Zm2.829,9.57,2.929,3.594,7.876-6.418L265.791,58l-5.314,9.344,1.766,2.167,10.171-3.276,0.086,0.106-7.822,6.375,2.929,3.594L281.138,65.28l-3.726-4.572-10.227,3.1-0.129-.159,5.1-9.39-3.726-4.572Zm14.269,17.868,2.294,4.029,8.829-5.026,0.067,0.118-6.787,8.336,1.382,2.429,10.574-1.547,0.068,0.118-8.77,4.992,2.294,4.029,15.169-8.635L291.371,82.3l-10.6,1.365-0.1-.178,6.585-8.416-2.918-5.126Zm20.92,27.283a2.8,2.8,0,1,1-2.014-5.215l10.05-3.881-1.707-4.42-10.431,4.028a5.954,5.954,0,0,0-4.018,5.388,10.268,10.268,0,0,0,2.843,7.362,5.969,5.969,0,0,0,6.6,1.306l10.431-4.028-1.707-4.42Zm15.7,15.427-8.88,2.148-0.032-.132,7.421-8.18-0.946-3.909-16.965,4.1,1.115,4.605,8.913-2.156,0.024,0.1-7.43,8.287,0.93,3.843,16.965-4.1Zm1.7,8.911-17.272,2.518,0.683,4.689,17.272-2.518Zm-0.744,24.229a6.736,6.736,0,0,0,2.172-2.888,9.321,9.321,0,0,0,.6-3.959,8.856,8.856,0,0,0-1.234-4.206,7.549,7.549,0,0,0-3.171-2.882,9.884,9.884,0,0,0-4.962-.884,10.028,10.028,0,0,0-4.841,1.342,7.432,7.432,0,0,0-2.883,3.153,9.686,9.686,0,0,0-.068,7.687,7.3,7.3,0,0,0,3.858,3.771,6.482,6.482,0,0,0,2.282.511l-0.2-4.8a2.8,2.8,0,0,1-1.813-.867,3.132,3.132,0,0,1-.753-2.045,3.227,3.227,0,0,1,1.086-2.745,5.788,5.788,0,0,1,3.571-1.135,5.892,5.892,0,0,1,3.6.771,3.19,3.19,0,0,1,1.415,2.67,2.953,2.953,0,0,1-.628,2.168,2.912,2.912,0,0,1-1.881.959l0.235,4.8A7.475,7.475,0,0,0,306.747,154.434Zm-11.681,9.88-0.494,5.741-3.415.715-0.438,5.095,17.884-4.244,0.555-6.454-16.9-7.236-0.438,5.095Zm9.032,3.6-0.012.136-5.889,1.238,0.309-3.6Zm-1.086,15.315-13.357-2.749-0.941,4.574,13.356,2.75-1.059,5.142,3.74,0.77,3.059-14.859-3.74-.77Zm-19.981,21.024,3.623,1.208,2.469-7.406L291.969,199l-2.275,6.824,3.622,1.208,2.275-6.824,2.846,0.949-2.48,7.438,3.622,1.208,3.979-11.933L287,192.352Zm6.79,18.046-12.1-6.287-2.154,4.144,12.1,6.288-2.421,4.658,3.388,1.761,7-13.462-3.389-1.76Zm-20.548,8.361,5.594,3.9-3.586,5.146-5.594-3.9-2.709,3.888,14.321,9.979,2.709-3.888-5.594-3.9L278,236.742l5.594,3.9,2.709-3.888-14.321-9.979Zm-11.232,14.654,4.271,3.867-1.1,1.213-6.33-1.592-3.455,3.817,7.207,1.741a5.155,5.155,0,0,0-.027,2.912,5.7,5.7,0,0,0,1.752,2.65,6,6,0,0,0,2.907,1.538,5.291,5.291,0,0,0,3.031-.314,7.7,7.7,0,0,0,2.807-2.046l5.055-5.586L261.221,241.8Zm10.135,9.174-1.121,1.239a3.278,3.278,0,0,1-1.689,1.1,1.882,1.882,0,0,1-1.688-.573,1.793,1.793,0,0,1-.71-1.6,3.433,3.433,0,0,1,.953-1.77l1.121-1.239ZM246.867,274.62a7.57,7.57,0,0,0,4.291.325,9.525,9.525,0,0,0,6.557-5.57,7.551,7.551,0,0,0,.367-4.281,11.211,11.211,0,0,0-6.351-7.476,7.6,7.6,0,0,0-4.289-.338,9.488,9.488,0,0,0-6.563,5.564,7.573,7.573,0,0,0-.374,4.287A11.216,11.216,0,0,0,246.867,274.62Zm-1.953-9.507a3.527,3.527,0,0,1,4.1-3.481,7.456,7.456,0,0,1,4.657,5.482,3.529,3.529,0,0,1-4.1,3.482A7.46,7.46,0,0,1,244.914,265.113Zm-15.027,12.565a2.8,2.8,0,1,1,4.712-3.01l5.8,9.079,3.993-2.551-6.019-9.423a5.952,5.952,0,0,0-6.079-2.868,10.274,10.274,0,0,0-6.651,4.249,5.966,5.966,0,0,0,.031,6.73l6.019,9.423,3.994-2.55Zm-19.695,15.663a5.959,5.959,0,0,0,2.415,2.305,7.152,7.152,0,0,0,3.355.785,9.347,9.347,0,0,0,7.161-3.622,7.783,7.783,0,0,0,1.513-4.073,9.7,9.7,0,0,0-1.012-4.923,9.917,9.917,0,0,0-2.98-3.87,7.582,7.582,0,0,0-4.023-1.536,8.982,8.982,0,0,0-4.515.9,8.821,8.821,0,0,0-3.3,2.519,6.71,6.71,0,0,0-1.432,3.519,7.813,7.813,0,0,0,.8,4.125l1.017,2.2,7.022-3.252-1.418-3.063-2.877,1.333a2.341,2.341,0,0,1,0-2,3.668,3.668,0,0,1,1.894-1.62,3.222,3.222,0,0,1,3.062,0,6,6,0,0,1,2.359,2.862,5.668,5.668,0,0,1,.6,3.621,3.3,3.3,0,0,1-1.98,2.317,3.219,3.219,0,0,1-1.876.329,2.233,2.233,0,0,1-1.433-.863Zm-12.207-8.182,1.987,6.522-6,1.828-1.987-6.522-4.533,1.381,5.087,16.7,4.533-1.381-1.987-6.522,6-1.828,1.987,6.522,4.533-1.381-5.087-16.7Zm-27.253,5.981-2.061,9.981-0.135.012-3.847-9.437-4.515.416-3.527,17.852,5.262-.484,1.389-10.946,0.136-.012,3.805,10.468,4.141-.381,1.834-10.953,0.136-.012,3.36,10.475,5.262-.485-6.725-16.909Zm-22.464.733-0.484,6.8-6.257-.445,0.484-6.8-4.727-.336-1.238,17.41,4.726,0.337,0.484-6.8,6.257,0.445-0.484,6.8,4.727,0.336,1.238-17.411Zm-19.854.983-5.634-1.2-0.287-3.477-5-1.066,1.995,18.272,6.335,1.351,9.274-15.87-5-1.066Zm-4.691,8.516-0.133-.029-0.5-6,3.534,0.753ZM108.681,298.4l4.391-12.91-4.422-1.5-4.391,12.91-4.97-1.69-1.229,3.615,14.363,4.885,1.229-3.615Zm-19.56-17,2.621-4.822-4.133-2.247-2.621,4.823-11.345,7.453,4.643,2.523,6.381-4.6,0.12,0.065L84.4,292.449l4.643,2.523Zm-28.591-8.826a7.574,7.574,0,0,0,.695,4.247,9.525,9.525,0,0,0,6.958,5.061,7.549,7.549,0,0,0,4.247-.653,11.215,11.215,0,0,0,5.77-7.933,7.606,7.606,0,0,0-.683-4.248,9.487,9.487,0,0,0-6.953-5.068,7.577,7.577,0,0,0-4.254.647A11.216,11.216,0,0,0,60.529,272.572Zm8.779-4.137a3.527,3.527,0,0,1,4.349,3.163,7.454,7.454,0,0,1-4.231,5.817,3.527,3.527,0,0,1-4.349-3.163A7.458,7.458,0,0,1,69.309,268.435Zm-15.77-11.662a2.8,2.8,0,1,1,4.035,3.87l-7.457,7.775,3.42,3.28,7.74-8.07a5.953,5.953,0,0,0,1.354-6.583,10.264,10.264,0,0,0-5.7-5.463A5.969,5.969,0,0,0,50.4,253.2l-7.74,8.07,3.42,3.28Zm-4.22-14.011-2.7-3.772L38.357,244.9l-0.079-.111,5.894-8.99-1.626-2.274-10.358,2.627-0.079-.111,8.209-5.868-2.7-3.772-14.2,10.151,3.43,4.8,10.4-2.449,0.119,0.166-5.684,9.05,3.43,4.8ZM30.827,220.518l-2.587-5.147,2.533-2.4-2.3-4.569L15.469,221.389l2.909,5.788,18.183-2.692-2.3-4.568Zm-9.578,1.667-0.061-.122,4.367-4.141,1.623,3.229ZM26.2,201.877l-4.258,1.455-2.442-.823,4.927-5.826L22.6,191.328l-7.211,8.84L6.124,197.1l1.785,5.226,8.375,2.687,0.077,0.226L9.684,207.52,11.216,212l16.517-5.643Zm-6.535-24.555-3.736.787,1.61,7.639-2.935.619-1.483-7.039-3.736.788,1.483,7.038-2.936.619L6.316,180.1l-3.736.787L5.174,193.2l17.079-3.6ZM13.08,167.51l-0.407.04a2.544,2.544,0,0,1-1.653-.315,4.952,4.952,0,0,1-1.277-1.284,7.105,7.105,0,0,0-1.909-1.843,3.992,3.992,0,0,0-2.6-.526,4.239,4.239,0,0,0-2.579,1.081,4.962,4.962,0,0,0-1.376,2.4,9.3,9.3,0,0,0-.215,3.292,8.126,8.126,0,0,0,.841,2.966,4.872,4.872,0,0,0,1.928,2.039,5.22,5.22,0,0,0,3.115.553l-0.423-4.343a1.562,1.562,0,0,1-1.245-.389,1.7,1.7,0,0,1-.583-1.146,1.582,1.582,0,0,1,.289-1.12,1.322,1.322,0,0,1,.987-0.546,1.593,1.593,0,0,1,1.266.429A10.675,10.675,0,0,1,8.4,170.055a4.894,4.894,0,0,0,1.015.972,3.349,3.349,0,0,0,1.4.523,9.067,9.067,0,0,0,2.252,0l0.407-.039Zm5.037-.2a2.289,2.289,0,0,0-1.754-.561,2.252,2.252,0,0,0-1.584.886,2.377,2.377,0,0,0,.325,3.334,2.213,2.213,0,0,0,1.721.53,2.258,2.258,0,0,0,1.616-.855A2.366,2.366,0,0,0,18.117,167.306Z"/>
</svg>
