<svg xmlns="http://www.w3.org/2000/svg" width="405" height="405" viewBox="0 0 405 405">
  <defs>
    <style>
      .cls-1 {
        fill-rule: evenodd;
      }
    </style>
  </defs>
  <path id="How_did_you_start_out_" data-name="How did you start out?" class="cls-1" d="M166.537,47.008l-3.025-16.486,15.167-2.783L181.7,44.225l11.458-2.1-7.744-42.2L173.96,2.02l3.025,16.486-15.167,2.783L158.793,4.8l-11.458,2.1,7.744,42.2Zm84.2-32.445a18.622,18.622,0,0,0-6.285-8.508,23.411,23.411,0,0,0-20.9-3.26A18.568,18.568,0,0,0,215,8.987,24.245,24.245,0,0,0,210.4,20.493a24.137,24.137,0,0,0,.888,12.321,18.7,18.7,0,0,0,6.261,8.526,23.325,23.325,0,0,0,20.9,3.281,18.611,18.611,0,0,0,8.578-6.19,24.159,24.159,0,0,0,4.615-11.5A24.159,24.159,0,0,0,250.742,14.563Zm-14.559,18.9a8.671,8.671,0,0,1-13.062-2.038q-1.775-3.373-.883-9.086t3.609-8.385a8.671,8.671,0,0,1,13.062,2.038q1.775,3.373.883,9.086T236.183,33.465Zm42.389,28.409,18.617-16.765,0.288,0.173-6.129,24.292,9.547,5.754,32.988-30.218-11.125-6.706-18.7,19.653-0.287-.173,7.714-26.272-8.757-5.278L283.147,45.354l-0.287-.173,8.6-25.638-11.126-6.705L269.025,56.12Zm69.667,68.7a17.889,17.889,0,0,0,10.067,2.837,26.568,26.568,0,0,0,20.051-11.321,17.911,17.911,0,0,0,2.76-10.12,24.08,24.08,0,0,0-3.39-11.234L369.7,86.5,332.325,107.58l8.11,14.381A23.707,23.707,0,0,0,348.239,130.573Zm18.569-29.067,2.018,3.576a13.974,13.974,0,0,1,1.889,5.441,7.012,7.012,0,0,1-1.355,4.806,16.537,16.537,0,0,1-5.5,4.487,16.782,16.782,0,0,1-6.677,2.406,6.975,6.975,0,0,1-4.772-1.253,13.042,13.042,0,0,1-3.565-4.232l-2.182-3.868Zm29.229,40.869-41.351,11.458,3.111,11.226L399.148,153.6Zm-31.282,63.954a17.892,17.892,0,0,0,7.582,7.206,26.568,26.568,0,0,0,23.016-.662,17.9,17.9,0,0,0,7.161-7.665,24.076,24.076,0,0,0,2.242-11.518l-0.462-16.336L361.4,178.568l0.467,16.5A23.69,23.69,0,0,0,364.755,206.329Zm29.983-17.05,0.116,4.1a13.958,13.958,0,0,1-.866,5.695,7.008,7.008,0,0,1-3.44,3.618,16.524,16.524,0,0,1-6.96,1.4,16.792,16.792,0,0,1-7.029-.986,6.971,6.971,0,0,1-3.637-3.334,13.058,13.058,0,0,1-1.18-5.406l-0.125-4.44Zm-32.27,78.839-12.28-5.589L345.4,273.055l12.281,5.59,20.247,26.525,5.381-11.823L370.911,278.5l0.139-.305,19.338-.407,5.381-11.823Zm-30.76,78.2a18.619,18.619,0,0,0,10.569-.443,23.409,23.409,0,0,0,14.4-15.49,18.568,18.568,0,0,0-.339-10.557,27.575,27.575,0,0,0-17.661-16.422,18.706,18.706,0,0,0-10.57.414A23.323,23.323,0,0,0,313.692,319.3a18.619,18.619,0,0,0,.325,10.573A27.569,27.569,0,0,0,331.708,346.323ZM324.2,323.677a8.672,8.672,0,0,1,9-9.682q3.787,0.418,8.023,4.356t4.927,7.685a8.672,8.672,0,0,1-9,9.682q-3.787-.418-8.023-4.356T324.2,323.677Zm-44.89,36.473a6.874,6.874,0,1,1,12.13-6.462l12.452,23.373,10.281-5.477-12.925-24.261a14.636,14.636,0,0,0-14.341-8.2,25.243,25.243,0,0,0-17.124,9.122,14.673,14.673,0,0,0-1.227,16.5L281.479,389l10.281-5.477Zm-83.624,31a13.275,13.275,0,0,0,2.469,7.244,13.542,13.542,0,0,0,6.106,4.578,21.421,21.421,0,0,0,9.067,1.264,22.322,22.322,0,0,0,8.917-2.191,14.53,14.53,0,0,0,5.878-5.1,11.809,11.809,0,0,0,1.81-7.261,9.982,9.982,0,0,0-3.67-7.747,19.544,19.544,0,0,0-9.183-3.66l-4.317-.7a15.229,15.229,0,0,1-5.093-1.484,2.938,2.938,0,0,1-1.572-2.361,3.108,3.108,0,0,1,1.318-2.671,7.392,7.392,0,0,1,4.184-1.228,8.1,8.1,0,0,1,5.322,1.262,5.851,5.851,0,0,1,2.276,4.38l11.047-.581a15.747,15.747,0,0,0-2.776-8.7,13.522,13.522,0,0,0-6.713-4.755,26.288,26.288,0,0,0-9.826-1.14q-8.139.429-12.584,4.072a11.429,11.429,0,0,0-4.132,9.985,11.728,11.728,0,0,0,3.594,8.087q3.317,3.194,10.489,4.347l3.555,0.568a13.037,13.037,0,0,1,4.531,1.377,2.708,2.708,0,0,1,1.459,2.42,2.868,2.868,0,0,1-1.132,2.409,6.652,6.652,0,0,1-3.885,1.128,6.439,6.439,0,0,1-4.277-.95,4.543,4.543,0,0,1-1.731-3.182Zm-34.6-1.123,8.246-32.492-11.129-2.824L149.96,387.2l-12.51-3.174-2.309,9.1,36.148,9.173,2.309-9.1ZM122.81,348.935l-12.128-7.316,2.125-8.309-10.764-6.494L92.007,370.874l13.635,8.225,34.291-29.426-10.764-6.493Zm-17.738,16.02-0.287-.174,3.656-14.335,7.606,4.589Zm-19.69-55.834L74.6,318.311l-2.61-3.062,5.884-14.928-8.21-9.63-6.526,17.018a12.688,12.688,0,0,0-7.092-.988,14,14,0,0,0-7.013,3.432,14.789,14.789,0,0,0-4.671,6.6,13.024,13.024,0,0,0-.195,7.49,18.938,18.938,0,0,0,4.1,7.489l12.017,14.094L92.94,317.986Zm-25.573,21.8L57.144,327.8a8.052,8.052,0,0,1-2.156-4.466,4.625,4.625,0,0,1,1.933-3.933,4.4,4.4,0,0,1,4.118-1.226,8.431,8.431,0,0,1,4.014,2.883l2.664,3.125ZM28.087,282.736l30.837-13.148-4.5-10.562L23.584,272.174,18.522,260.3l-8.634,3.681,14.627,34.306,8.634-3.681Zm-16.5-108.369a18.62,18.62,0,0,0-7.8,7.148A23.411,23.411,0,0,0,2.753,202.64,18.564,18.564,0,0,0,9.814,210.5a24.232,24.232,0,0,0,11.928,3.365A24.138,24.138,0,0,0,33.9,211.68a18.7,18.7,0,0,0,7.818-7.126,23.325,23.325,0,0,0,1.058-21.124,18.61,18.61,0,0,0-7.06-7.878,24.157,24.157,0,0,0-11.927-3.375A24.161,24.161,0,0,0,11.588,174.367Zm20.333,12.484a8.671,8.671,0,0,1-.648,13.2q-3.167,2.121-8.943,1.837t-8.719-2.7a8.672,8.672,0,0,1,.648-13.2q3.167-2.12,8.943-1.836T31.921,186.851ZM42.841,130A6.874,6.874,0,1,1,37.7,142.74l-24.558-9.913-4.36,10.8,25.49,10.29a14.639,14.639,0,0,0,16.263-2.925,22.852,22.852,0,0,0,5.436-8.289,22.745,22.745,0,0,0,1.826-9.7,14.673,14.673,0,0,0-9.659-13.434L22.644,109.28l-4.36,10.8Zm8.781-47.1,25.707,21.516L84.7,95.61,58.991,74.094l8.283-9.9-7.2-6.024L36.14,86.772l7.2,6.024Zm59.3-26.729-0.556-.839a6.247,6.247,0,0,1-1.222-3.952,12.151,12.151,0,0,1,1.317-4.252,17.489,17.489,0,0,0,1.8-6.27,9.814,9.814,0,0,0-1.858-6.258,10.42,10.42,0,0,0-5.321-4.354,12.193,12.193,0,0,0-6.8-.218,22.852,22.852,0,0,0-7.4,3.327A19.989,19.989,0,0,0,85.412,38.6a11.973,11.973,0,0,0-2.2,6.536,12.825,12.825,0,0,0,2.389,7.4l8.944-5.923a3.843,3.843,0,0,1-.592-3.151,4.194,4.194,0,0,1,1.818-2.586,3.888,3.888,0,0,1,2.765-.663,3.241,3.241,0,0,1,2.323,1.515,3.916,3.916,0,0,1,.527,3.244,26.069,26.069,0,0,1-1.386,3.959,12.056,12.056,0,0,0-.94,3.324,8.244,8.244,0,0,0,.477,3.642,22.305,22.305,0,0,0,2.588,4.895l0.556,0.839Zm6.246,10.7a5.636,5.636,0,0,0-.8-4.457A5.529,5.529,0,0,0,112.614,60a5.843,5.843,0,0,0-6.865,4.547,5.448,5.448,0,0,0,.833,4.349,5.551,5.551,0,0,0,3.72,2.525A5.817,5.817,0,0,0,117.167,66.873Z"/>
</svg>
