<svg width="924" height="75" viewBox="0 0 924 75" fill="none" xmlns="http://www.w3.org/2000/svg">
<path d="M46.25 56.6406C46.25 53.7344 45.5625 51.2812 44.1875 49.2812C42.8438 47.25 40.7031 45.4688 37.7656 43.9375C34.8594 42.375 30.4531 40.7812 24.5469 39.1562C18.6406 37.5312 14.2031 35.8906 11.2344 34.2344C8.29688 32.5781 6.14062 30.6562 4.76562 28.4688C3.39062 26.2812 2.70312 23.625 2.70312 20.5C2.70312 15.5312 4.79688 11.5156 8.98438 8.45312C13.1719 5.35938 18.625 3.8125 25.3438 3.8125C29.7188 3.8125 33.6406 4.67187 37.1094 6.39062C40.6094 8.07812 43.3125 10.4688 45.2188 13.5625C47.125 16.625 48.0781 20.0938 48.0781 23.9688H45.5469C45.5469 18.875 43.6719 14.6719 39.9219 11.3594C36.1719 8.01562 31.3125 6.34375 25.3438 6.34375C19.3438 6.34375 14.4844 7.6875 10.7656 10.375C7.07812 13.0312 5.23438 16.375 5.23438 20.4062C5.23438 24.5 6.84375 27.7969 10.0625 30.2969C13.2812 32.7969 18.5938 35.0156 26 36.9531C33.4062 38.8594 38.8281 41.0781 42.2656 43.6094C46.6406 46.8281 48.8281 51.1406 48.8281 56.5469C48.8281 59.9844 47.8594 63.0312 45.9219 65.6875C43.9844 68.3125 41.2344 70.3438 37.6719 71.7812C34.1094 73.2188 30.1094 73.9375 25.6719 73.9375C20.7344 73.9375 16.2969 73.125 12.3594 71.5C8.42188 69.8438 5.45312 67.5 3.45312 64.4688C1.48438 61.4375 0.5 57.8594 0.5 53.7344H3.03125C3.03125 59.3281 5.125 63.6719 9.3125 66.7656C13.5 69.8594 18.9531 71.4062 25.6719 71.4062C31.6406 71.4062 36.5625 70.0469 40.4375 67.3281C44.3125 64.5781 46.25 61.0156 46.25 56.6406ZM66.5938 73H64.0625V4.75H66.5938V73ZM131.234 7.28125H106.391V73H103.859V7.28125H79.0156V4.75H131.234V7.28125ZM179.938 39.1562H145.719V70.4688H184.719V73H143.188V4.75H184.719V7.28125H145.719V36.625H179.938V39.1562ZM220.812 73V4.75H238.766C246.109 4.75 251.656 6.25 255.406 9.25C259.188 12.2188 261.078 16.5469 261.078 22.2344C261.078 26.3594 260.031 29.7812 257.938 32.5C255.844 35.2188 252.891 36.9531 249.078 37.7031C253.391 38.2656 256.984 40.1406 259.859 43.3281C262.734 46.4844 264.172 50.1094 264.172 54.2031C264.172 60.0156 262.281 64.6094 258.5 67.9844C254.75 71.3281 249.516 73 242.797 73H220.812ZM223.344 39.2969V70.4688H243.078C248.859 70.4688 253.391 69.0469 256.672 66.2031C259.984 63.3281 261.641 59.3594 261.641 54.2969C261.641 49.9844 260.047 46.4375 256.859 43.6562C253.672 40.8438 249.406 39.3906 244.062 39.2969H223.344ZM223.344 36.7656H239.703C245.922 36.7656 250.609 35.5781 253.766 33.2031C256.922 30.7969 258.5 27.0781 258.5 22.0469C258.5 12.3594 252.109 7.4375 239.328 7.28125H223.344V36.7656ZM295.297 44.7812L319.203 4.75H322.297L296.562 47.0781V73H294.031V47.0781L268.297 4.75H271.672L295.297 44.7812ZM412.723 74.44C453.331 74.44 461.491 62.152 461.491 49.48V48.136C461.491 33.64 451.699 26.92 423.859 26.152L409.459 25.768C398.419 25.48 395.635 24.04 395.635 21.448V21.256C395.635 18.856 397.267 17.512 406.003 17.512C415.507 17.512 416.659 20.968 416.947 23.272H458.803V22.792C458.803 10.504 449.875 0.327997 411.571 0.327997H399.379C364.819 0.327997 354.067 8.584 354.067 22.024V22.888C354.067 34.12 360.211 44.488 389.587 45.544L404.659 46.024C416.947 46.504 417.907 48.712 417.907 51.112V51.4C417.907 53.992 415.411 56.392 406.963 56.392C396.979 56.392 395.635 51.784 395.635 48.712H352.915V49.48C352.915 58.696 356.851 74.44 400.147 74.44H412.723ZM465.101 73H501.293V37.672L520.397 73H537.773L556.973 37.672V73H593.261V1.576H547.469L529.997 33.352L513.197 1.576H465.101V73ZM599.257 73H656.473C700.345 73 710.041 56.104 710.041 38.344V35.368C710.041 16.936 697.273 1.576 656.473 1.576H599.257V73ZM635.737 23.752H650.329C670.681 23.752 672.313 32.488 672.313 36.712V37.288C672.313 41.512 670.969 50.92 650.329 50.92H635.737V23.752ZM788.299 73L819.691 1.576H781.867L763.243 45.64L743.563 1.576H702.187L736.171 73H788.299ZM875.005 74.44C915.613 74.44 923.773 62.152 923.773 49.48V48.136C923.773 33.64 913.98 26.92 886.141 26.152L871.741 25.768C860.701 25.48 857.917 24.04 857.917 21.448V21.256C857.917 18.856 859.549 17.512 868.285 17.512C877.789 17.512 878.941 20.968 879.229 23.272H921.084V22.792C921.084 10.504 912.157 0.327997 873.853 0.327997H861.661C827.101 0.327997 816.349 8.584 816.349 22.024V22.888C816.349 34.12 822.493 44.488 851.869 45.544L866.941 46.024C879.229 46.504 880.189 48.712 880.189 51.112V51.4C880.189 53.992 877.693 56.392 869.245 56.392C859.261 56.392 857.917 51.784 857.917 48.712H815.197V49.48C815.197 58.696 819.133 74.44 862.429 74.44H875.005Z" fill="black"/>
</svg>
