<svg height='100px' width='100px'  fill="#000000" xmlns="http://www.w3.org/2000/svg" xmlns:xlink="http://www.w3.org/1999/xlink" version="1.1" x="0px" y="0px" viewBox="0 0 100 100" style="enable-background:new 0 0 100 100;" xml:space="preserve"><path d="M28.8,96.4c-1.1-1.6-0.7-2.9,0.3-4.5c1.4-2.5,2.9-5,4-7.7c2.1-5.3,4.8-10.2,6.9-15.5c1.8-4.5,3.6-8.9,5-13.5  c0.6-2.1,0.6-4.4,1.5-6.4c0.8-1.8,1.8-3.6,2.8-5.3c0.3-0.6,0.7-0.9,1.4-0.9c0.7,0.1,0.6,0.6,0.7,1.1c0.1,1.1,0.8,2.1,1.3,2.9  c3.2,4.8,5.5,10.1,7.9,15.3c2.4,5.1,4.8,10.2,7.2,15.3c2.4,5,3.7,10.5,6.9,15.2c1.2,1.7,0.3,3.1-1.8,3.5c-2.4,0.4-4.8,0.2-7.2,0.2  c-8.1,0-16.1,0.3-24.2,0.1c-3.3-0.1-6.7,0.5-9.9-0.3C30.4,95.6,29.7,96.3,28.8,96.4z M51.2,77.5c-0.8,0.2-1.4,0.9-2,1.4  c-1.8,1.6-3.5,3.4-5.5,4.7c-2.8,1.7-5.4,3.5-7.7,5.9c-0.4,0.4-1,1-2,0.1c6.5-5.4,12.4-11.4,18.1-17.5c-4.8,3.3-8.4,8.4-14.4,10.2  c1.4-2.8,3.9-4.7,5.7-7.2c-0.6-0.2-0.8,0.1-1,0.3c-1.5,1.4-3.5,2.2-4.8,4C37.2,79.8,35.9,80,36,81c0.1,1.3-0.2,2.2-1.1,3  c-0.3,0.3-0.4,0.7-0.5,1.1c-0.4,2.6-1.4,5-2.8,7.2c-0.3,0.4-0.6,0.8-0.2,1.5c1.5,0.2,3,0.7,4.6,0c0.3-0.2,0.9-0.6,0.5-0.9  c-1.2-0.9-0.2-1.3,0.3-1.7c4.7-3.6,8.8-7.9,13.2-11.9c0.5-0.5,1.2-0.9,1.4-1.7c1-0.4,1.6-1.2,1.9-2.2C52.4,76,51.6,76.6,51.2,77.5z   M38.3,93.9c1,0.7,1.9,0.4,2.8,0c2.4-1.2,4.2-3.2,6.7-4.3c0.3-0.1,0.7-0.6,0.8-0.9c0.4-1.1,1.3-1.7,2.1-2.5c1.3-1.5,3.1-2.6,4.1-4.4  c-3.8,2.5-7,5.8-11.2,8.4c0.2-1.5,1.1-1.8,1.7-2.3c0.7-0.6,1.5-1.1,2.2-1.6c1.2-1,1.2-1-0.1-2.3C44,86.9,40.9,90.1,38.3,93.9z   M47.8,64.4c3.1-1.6,5.3-4.2,8-6.3c0.5-0.4,0.6-0.8,0.3-1.3c-0.8-1.5-1.6-2.9-2.5-4.4c-0.2-0.4-0.7-0.5-1.1-0.2  c-2,2.1-4.1,4.2-5.5,7.1c1.4-0.3,2.1-1.1,2.8-1.8c0.9-0.7,1.8-1.5,2.7-2.2c0.4-0.3,1-0.6,1.4-0.3c0.6,0.5,0.1,1.1-0.3,1.5  c-0.6,0.8-1.3,1.6-1.9,2.3C50.3,60.7,48.9,62.5,47.8,64.4z M58,61.1c-4.7,6.4-10.7,11.1-15.7,17.1c0.8,0.2,1.1-0.4,1.4-0.6  c5-3.9,9.4-8.4,13.9-12.8C58.8,63.7,58.9,62.7,58,61.1z M56.1,82.4c0.1,0.1,0.2,0.2,0.3,0.3c2.7-2.3,5.3-4.6,8-6.9  c0.3-0.3,0.5-0.6,0.3-1.1c-0.4-0.7-0.7-1.5-1.1-2.2c-0.4-0.7-1-0.8-1.6-0.2c-1.6,1.7-3.1,3.3-4.7,5c0.9-0.3,1.5-0.7,2.3-1.1  c0.4-0.2,0.8-0.2,1.1,0.2c0.2,0.3,0.2,0.6,0,0.9c-0.3,0.4-0.6,0.8-0.9,1.2C58.6,79.8,57.3,81.1,56.1,82.4z M66,83.6  c-4.6,2.9-8.8,6.4-13,10.1c1.1,0.5,1.9,0.4,2.6-0.2C59.3,90.6,63.5,88,66,83.6z M60.7,80.7c-1.9,1.4-3.7,2.9-5.6,4.4  c-1.9,1.6-3.9,3.2-5.8,4.7c-1.8,1.5-3.9,2.6-5.6,4.7c3.1-0.7,3.5-0.9,5.1-2.6c0.5-0.5,0.9-0.9,1.5-1.3c2.4-1.7,4.6-3.8,6.9-5.7  C58.6,83.6,59.9,82.4,60.7,80.7z M42.2,73.3c0.7-0.1,0.8-0.1,0.8-0.1c5.2-3.7,9.4-8.7,14.2-12.8c0.4-0.3,0.2-0.8-0.1-1.1  c-0.4-0.4-0.7,0-1,0.3c-2.5,2.4-5,4.8-7.6,7.2C46.4,68.7,44.4,70.8,42.2,73.3z M48.5,61c-3.5,0.4-4.7,2.7-5.7,5.4  c-0.8,2.2-1.7,4.3-2.5,6.4c2-1,3.3-2.5,4.6-4c-0.6-0.5-1.3,0.4-1.7-0.2c-0.4-0.7,0.2-1.1,0.5-1.5c0.4-0.5,0.9-1,1.3-1.5  C46.1,64,47.5,62.7,48.5,61z M48.2,93.7c1.7,0.9,2.6,0.1,3.5-0.6c2.6-2.2,5.3-4.4,7.9-6.6c0.8-0.7,1.5-1.5,2.2-2.2  C56.7,86.6,53,90.6,48.2,93.7z M50.1,76.3c1.9-1.1,3.4-2.7,5-4.1c1.6-1.5,2.9-3.2,4.7-4.4c0.7-0.5,1.2-0.9,0.4-1.7  c-0.7-0.7-1.2-0.2-1.6,0.4c-1.7,2.4-3.8,4.5-5.8,6.6C51.9,74,50.7,74.8,50.1,76.3z M69.1,89c-2.8,0.9-5.1,2.5-7.5,4.8  C65.7,94,67,90.9,69.1,89z M56.2,74.5c0.1,0.1,0.3,0.3,0.4,0.4c1.6-1.4,3.2-2.9,4.8-4.2c1.1-0.9,0.6-1.5-0.2-2.3  C59.5,70.5,57.8,72.5,56.2,74.5z M67.4,93.6c1.7,0.5,2.9,0,4.1,0.1c0.4,0,0.8-0.1,1-0.6c0.1-0.5-0.1-1-0.4-1.3  c-0.4-0.5-0.9-0.4-1.3-0.1C69.8,92.1,68.8,92.7,67.4,93.6z M61.9,81.6c0.1,0.1,0.2,0.2,0.3,0.4c1.2-0.8,2.4-1.6,3.6-2.5  c0.4-0.3,0.4-0.7,0.1-1.1c-0.3-0.4-0.7-0.3-1,0C63.9,79.4,62.9,80.5,61.9,81.6z M58.4,93.5c0.1,0.2,0.3,0.3,0.4,0.5  c1.3-0.6,2.1-1.6,2.7-2.9C60.4,91.8,59.4,92.6,58.4,93.5z M66.1,86c1-0.2,1.5-0.9,2.1-1.4c0.2-0.2,0.5-0.4,0.2-0.8  c-0.3-0.3-0.6-0.2-0.8,0C67,84.4,66.4,85,66.1,86z M50.3,51.9c0.6-0.4,1.1-0.7,1.6-1c0.4-0.3,0.5-0.6,0.2-1c-0.4-0.4-0.8-0.1-1,0.2  C50.7,50.6,50.2,50.9,50.3,51.9z"></path><path d="M54.6,2.6c3.9,0.8,7,2.2,9.2,5.2c2.2,2.9,3.4,6.2,4.6,9.6c0.6,1.7,0.3,3.3-0.1,4.9c-1.2,5.5-4,10-8.7,13.1  c-3.1,2.1-6.7,3.4-10.5,3.4c-1.4,0-2.8-0.6-4.1-1c-6.3-2-11.8-9.2-11.8-15.8c0-2.1,0.5-4.3,1.6-6.2c0.9-1.5,1.7-3.1,2.6-4.6  c0.2-0.4,0.6-0.8,0.6-1.4c-0.1-1.4,0.5-1.9,2-1.8c0.7,0,1.7-0.1,1.2-1.5c-0.3-0.8,0.8-1.1,1.6-1.1c0.5,0,0.9,0.3,1.4-0.1  c2.3-2.1,5.3-2.2,8.2-2.4C53.2,3,54,2.3,54.6,2.6z M47.3,21.4c-1.1,0.1-1.4,1-1.8,1.8c-1.2,0.8-2.1,1.9-2.4,3.3c1-1,2.2-1.8,2.6-3.2  C46.5,22.9,47.1,22.3,47.3,21.4c0.9-0.4,1.3-1.1,1.6-2c1.2-0.5,1.8-1.7,2.7-2.5c1.4-1.3,2.8-2.7,4.4-3.7c0.5-0.3,1-0.7,1.7-0.1  c-0.6,1.4-1.9,2.2-2.9,3.2c-1,1.1-2.1,2.2-3.1,3.3c-1,1.1-2.1,2.1-3.1,3.3c-0.9,1-2.5,1.4-2.7,3c2.9-2.8,6.7-4.6,9.3-7.9  c1.5-2,3.4-3.7,5.1-5.5c0.7-0.7,1.5-1.4,3.1-1.7c-2,2.1-3.6,3.7-5.2,5.4c-1.5,1.6-3.1,3.3-4.6,5c-1.5,1.7-3.2,3.1-4.1,5.2  c4.2-4.2,8.1-8.7,12.8-12.5c-2.2,3.1-4.9,5.9-7.4,8.7c-2.6,2.9-5.3,5.7-7.2,9.4c1-0.1,1.3-0.7,1.6-1c1.9-1.8,3.8-3.7,5.7-5.6  c3.3-3.2,6.4-6.6,9.8-9.6c0.7-0.6,1.7-1.4-0.2-2c-0.4-0.1-0.4-0.7-0.5-1.1C63.6,10.3,62,8.6,60,7.3c-0.5-0.4-1.1-1.1-1.7-0.6  c-0.5,0.4-0.8,1.1-0.6,1.8c0.3,1-0.2,1.7-0.9,2.1c-1.3,0.8-2.2,2-3.3,3.1c-1.7,1.7-3.6,3.4-4.6,5.8C48,19.8,47.2,20.3,47.3,21.4z   M49.6,34.8c0.3-1.4,1.4-2.3,2.3-3.4c0.8-1.1,1.6-2.1,2.5-3.1c0.9-1,2-1.7,2.6-3.5c-2.4,2.3-4.4,4.3-6.5,6.2  c-0.3,0.3-0.6,0.6-0.9,0.9c-1.5,1.3-2.5,2.8-2.9,4.7c3.7,1.1,8-0.3,9.2-3.1c-0.9,0-1.2,0.8-1.8,1.2c-0.3,0.2-0.6,0.3-0.9,0.1  c-0.4-0.3-0.4-0.7-0.1-1.1c0.3-0.4,0.6-0.8,0.9-1.2c2.4-3.4,5.3-6.4,7.6-9.9c0.6-0.9,1.4-1.7,3-2.2c-1.3,2.3-3.1,3.7-4.3,5.6  c-1.2,1.8-2.9,3.3-3.8,5.3c2.9-2.3,5.1-5.4,8.4-7.3c-0.6,1.9-2.1,3-3.2,4.4c-1.2,1.4-2.5,2.7-3.7,4.8c9.7-6.7,9.2-10,8-16.1  c-1.3,0.6-2,1.8-2.8,2.8c-3.1,3.5-6.5,6.7-8.9,10.8c-0.8,1.4-1.9,2.5-2.9,3.7C50.9,34.8,50.5,35.3,49.6,34.8z M57.7,6.6  c-0.5-0.8-1.3-0.9-1.9-1.2c-0.4-0.2-0.8-0.1-1.1,0.4c-1.1,2-3.2,2.9-4.7,4.4c-3.6,3.8-7.1,7.7-10.7,11.6c-0.3,0.3-0.9,0.6-0.4,1.2  c1.5-0.9,2.9-1.9,4.2-3.2C47.7,15.1,52.4,10.6,57.7,6.6z M44.9,19.5c-1.4,1-2.5,2.3-3.6,3.7c1,1.9-1.1,1.9-1.8,2.8  c-0.3,0.5-1,0.6-1.5,0c-0.3-0.4-0.7-0.5-1-0.1c-0.3,0.3-0.4,0.8-0.2,1.1c0.3,0.5,0.7,0.9,1.1,1.4c1,1,1.2,1,2.1-0.1  c1.2-1.5,2.3-3,3.5-4.5C44.6,22.7,45.6,21.4,44.9,19.5z M41.4,31.3c0.9,1,1.7,1.5,2.4,2c1,0.7,1.7,0.6,2.2-0.5  c0.2-0.4,0.5-0.7,0.3-1.1c-0.7-0.3-1.1,1-1.8,0.3c-0.6-0.7,0.1-1.2,0.4-1.7c0.6-0.8,1.2-1.6,1.7-2.4c0.4-0.6,1.1-1.1,1.2-1.9  C45.7,27.6,43.6,29.4,41.4,31.3z M40,13.2c1,0.2,1.3-0.4,1.7-0.8c1-0.9,1.9-1.9,2.9-2.7c0.6-0.5,1.2-1.3,2.4-0.6  c0.8,0.5,1.8-0.7,1.6-1.3c-0.2-1,0.6-1.5,0.5-2.6C45.1,7,42.7,10.2,40,13.2z M42.5,16.5c-0.5-0.2-0.6-0.2-0.7-0.2  C39,17.9,38,21.2,35.4,23c-0.1,0-0.1,0.1-0.1,0.2c-0.1,0.3,0,0.5,0.2,0.7c0.3,0.3,0.6,0.3,0.8,0C38.2,21.3,40.3,19,42.5,16.5z   M38.9,12.5c0.8-0.8,1.9-1.2,2.2-2.3C40.1,10.6,39.1,11.2,38.9,12.5z M36.2,17.5c0.4-0.2,0.8-0.5,0.8-1.1c0-0.2-0.2-0.3-0.4-0.1  C36.1,16.5,35.9,16.9,36.2,17.5z M60,33.7c0.1-0.1,0.3-0.4,0.4-0.6c0.1-0.2-0.1-0.3-0.3-0.1c-0.2,0.2-0.5,0.4-0.6,0.7  C59.5,33.8,59.7,33.9,60,33.7z"></path></svg>